<?xml version="1.0" encoding="UTF-8"?>
<svg xmlns="http://www.w3.org/2000/svg" xmlns:xlink="http://www.w3.org/1999/xlink" width="1080pt" height="1080pt" viewBox="0 0 1080 1080" version="1.1">
<defs>
<g>
<symbol overflow="visible" id="glyph0-0">
<path style="stroke:none;" d="M 1.140625 4.03125 L 1.140625 -16.0625 L 12.53125 -16.0625 L 12.53125 4.03125 Z M 2.40625 2.765625 L 11.25 2.765625 L 11.25 -14.78125 L 2.40625 -14.78125 Z "/>
</symbol>
<symbol overflow="visible" id="glyph0-1">
<path style="stroke:none;" d="M 5.625 -1.171875 L 8.953125 -1.171875 C 10.285156 -1.171875 11.257812 -1.460938 11.875 -2.046875 C 12.488281 -2.628906 12.796875 -3.550781 12.796875 -4.8125 C 12.796875 -6.0625 12.488281 -6.972656 11.875 -7.546875 C 11.269531 -8.117188 10.296875 -8.40625 8.953125 -8.40625 L 5.625 -8.40625 Z M 5.625 -9.59375 L 8.453125 -9.59375 C 9.671875 -9.59375 10.554688 -9.820312 11.109375 -10.28125 C 11.671875 -10.75 11.953125 -11.488281 11.953125 -12.5 C 11.953125 -13.519531 11.671875 -14.257812 11.109375 -14.71875 C 10.554688 -15.1875 9.671875 -15.421875 8.453125 -15.421875 L 5.625 -15.421875 Z M 1.25 0 L 1.25 -1.171875 L 3.375 -1.171875 L 3.375 -15.421875 L 1.25 -15.421875 L 1.25 -16.609375 L 9.453125 -16.609375 C 11.128906 -16.609375 12.390625 -16.265625 13.234375 -15.578125 C 14.085938 -14.890625 14.515625 -13.863281 14.515625 -12.5 C 14.515625 -11.519531 14.21875 -10.734375 13.625 -10.140625 C 13.039062 -9.554688 12.179688 -9.195312 11.046875 -9.0625 C 12.453125 -8.882812 13.519531 -8.429688 14.25 -7.703125 C 14.976562 -6.984375 15.34375 -6.019531 15.34375 -4.8125 C 15.34375 -3.164062 14.820312 -1.953125 13.78125 -1.171875 C 12.75 -0.390625 11.132812 0 8.9375 0 Z "/>
</symbol>
<symbol overflow="visible" id="glyph0-2">
<path style="stroke:none;" d="M 10.890625 -11.84375 L 10.890625 -8.890625 L 9.71875 -8.890625 C 9.675781 -9.472656 9.507812 -9.910156 9.21875 -10.203125 C 8.925781 -10.492188 8.503906 -10.640625 7.953125 -10.640625 C 6.941406 -10.640625 6.164062 -10.289062 5.625 -9.59375 C 5.09375 -8.894531 4.828125 -7.890625 4.828125 -6.578125 L 4.828125 -1.171875 L 7.203125 -1.171875 L 7.203125 0 L 0.9375 0 L 0.9375 -1.171875 L 2.78125 -1.171875 L 2.78125 -10.65625 L 0.828125 -10.65625 L 0.828125 -11.828125 L 4.828125 -11.828125 L 4.828125 -9.71875 C 5.222656 -10.539062 5.734375 -11.148438 6.359375 -11.546875 C 6.992188 -11.941406 7.765625 -12.140625 8.671875 -12.140625 C 9.003906 -12.140625 9.351562 -12.113281 9.71875 -12.0625 C 10.09375 -12.007812 10.484375 -11.9375 10.890625 -11.84375 Z "/>
</symbol>
<symbol overflow="visible" id="glyph0-3">
<path style="stroke:none;" d="M 6.859375 -0.78125 C 7.953125 -0.78125 8.773438 -1.210938 9.328125 -2.078125 C 9.890625 -2.941406 10.171875 -4.222656 10.171875 -5.921875 C 10.171875 -7.609375 9.890625 -8.882812 9.328125 -9.75 C 8.773438 -10.613281 7.953125 -11.046875 6.859375 -11.046875 C 5.753906 -11.046875 4.921875 -10.613281 4.359375 -9.75 C 3.804688 -8.882812 3.53125 -7.609375 3.53125 -5.921875 C 3.53125 -4.222656 3.8125 -2.941406 4.375 -2.078125 C 4.9375 -1.210938 5.765625 -0.78125 6.859375 -0.78125 Z M 6.859375 0.328125 C 5.128906 0.328125 3.742188 -0.238281 2.703125 -1.375 C 1.660156 -2.519531 1.140625 -4.035156 1.140625 -5.921875 C 1.140625 -7.804688 1.660156 -9.3125 2.703125 -10.4375 C 3.742188 -11.570312 5.128906 -12.140625 6.859375 -12.140625 C 8.578125 -12.140625 9.957031 -11.570312 11 -10.4375 C 12.039062 -9.3125 12.5625 -7.804688 12.5625 -5.921875 C 12.5625 -4.035156 12.039062 -2.519531 11 -1.375 C 9.957031 -0.238281 8.578125 0.328125 6.859375 0.328125 Z "/>
</symbol>
<symbol overflow="visible" id="glyph0-4">
<path style="stroke:none;" d="M 2.453125 -10.640625 L 0.65625 -10.640625 L 0.65625 -11.828125 L 2.453125 -11.828125 L 2.453125 -15.5 L 4.515625 -15.5 L 4.515625 -11.828125 L 8.359375 -11.828125 L 8.359375 -10.640625 L 4.515625 -10.640625 L 4.515625 -3.125 C 4.515625 -2.125 4.609375 -1.484375 4.796875 -1.203125 C 4.992188 -0.921875 5.351562 -0.78125 5.875 -0.78125 C 6.40625 -0.78125 6.789062 -0.9375 7.03125 -1.25 C 7.28125 -1.5625 7.414062 -2.070312 7.4375 -2.78125 L 8.984375 -2.78125 C 8.921875 -1.707031 8.625 -0.921875 8.09375 -0.421875 C 7.570312 0.078125 6.773438 0.328125 5.703125 0.328125 C 4.515625 0.328125 3.675781 0.0664062 3.1875 -0.453125 C 2.695312 -0.984375 2.453125 -1.875 2.453125 -3.125 Z "/>
</symbol>
</g>
</defs>
<g id="surface127">
<g style="fill:rgb(0%,0%,0%);fill-opacity:1;">
  <use xlink:href="#glyph0-1" x="30" y="41.142578"/>
  <use xlink:href="#glyph0-2" x="47" y="41.142578"/>
  <use xlink:href="#glyph0-3" x="58" y="41.142578"/>
  <use xlink:href="#glyph0-4" x="72" y="41.142578"/>
</g>
</g>
</svg>
