<?xml version="1.0" encoding="UTF-8"?>
<svg xmlns="http://www.w3.org/2000/svg" xmlns:xlink="http://www.w3.org/1999/xlink" width="1080pt" height="1080pt" viewBox="0 0 1080 1080" version="1.1">
<defs>
<g>
<symbol overflow="visible" id="glyph0-0">
<path style="stroke:none;" d="M 0.609375 2.15625 L 0.609375 -8.609375 L 6.71875 -8.609375 L 6.71875 2.15625 Z M 1.296875 1.484375 L 6.03125 1.484375 L 6.03125 -7.921875 L 1.296875 -7.921875 Z "/>
</symbol>
<symbol overflow="visible" id="glyph0-1">
<path style="stroke:none;" d="M 3.015625 -0.625 L 4.796875 -0.625 C 5.515625 -0.625 6.035156 -0.78125 6.359375 -1.09375 C 6.691406 -1.40625 6.859375 -1.898438 6.859375 -2.578125 C 6.859375 -3.242188 6.691406 -3.734375 6.359375 -4.046875 C 6.035156 -4.359375 5.515625 -4.515625 4.796875 -4.515625 L 3.015625 -4.515625 Z M 3.015625 -5.140625 L 4.53125 -5.140625 C 5.1875 -5.140625 5.660156 -5.265625 5.953125 -5.515625 C 6.253906 -5.765625 6.40625 -6.160156 6.40625 -6.703125 C 6.40625 -7.242188 6.253906 -7.640625 5.953125 -7.890625 C 5.660156 -8.140625 5.1875 -8.265625 4.53125 -8.265625 L 3.015625 -8.265625 Z M 0.671875 0 L 0.671875 -0.625 L 1.8125 -0.625 L 1.8125 -8.265625 L 0.671875 -8.265625 L 0.671875 -8.90625 L 5.078125 -8.90625 C 5.972656 -8.90625 6.644531 -8.71875 7.09375 -8.34375 C 7.550781 -7.976562 7.78125 -7.429688 7.78125 -6.703125 C 7.78125 -6.171875 7.625 -5.75 7.3125 -5.4375 C 7 -5.125 6.535156 -4.929688 5.921875 -4.859375 C 6.679688 -4.765625 7.253906 -4.523438 7.640625 -4.140625 C 8.035156 -3.753906 8.234375 -3.234375 8.234375 -2.578125 C 8.234375 -1.691406 7.953125 -1.039062 7.390625 -0.625 C 6.835938 -0.207031 5.972656 0 4.796875 0 Z "/>
</symbol>
<symbol overflow="visible" id="glyph0-2">
<path style="stroke:none;" d="M 5.84375 -6.359375 L 5.84375 -4.765625 L 5.203125 -4.765625 C 5.179688 -5.078125 5.09375 -5.3125 4.9375 -5.46875 C 4.789062 -5.625 4.566406 -5.703125 4.265625 -5.703125 C 3.722656 -5.703125 3.304688 -5.515625 3.015625 -5.140625 C 2.734375 -4.765625 2.59375 -4.226562 2.59375 -3.53125 L 2.59375 -0.625 L 3.859375 -0.625 L 3.859375 0 L 0.5 0 L 0.5 -0.625 L 1.484375 -0.625 L 1.484375 -5.71875 L 0.4375 -5.71875 L 0.4375 -6.34375 L 2.59375 -6.34375 L 2.59375 -5.21875 C 2.800781 -5.65625 3.070312 -5.976562 3.40625 -6.1875 C 3.75 -6.40625 4.164062 -6.515625 4.65625 -6.515625 C 4.832031 -6.515625 5.019531 -6.5 5.21875 -6.46875 C 5.414062 -6.445312 5.625 -6.410156 5.84375 -6.359375 Z "/>
</symbol>
<symbol overflow="visible" id="glyph0-3">
<path style="stroke:none;" d="M 3.671875 -0.421875 C 4.265625 -0.421875 4.707031 -0.648438 5 -1.109375 C 5.300781 -1.578125 5.453125 -2.265625 5.453125 -3.171875 C 5.453125 -4.078125 5.300781 -4.757812 5 -5.21875 C 4.707031 -5.6875 4.265625 -5.921875 3.671875 -5.921875 C 3.085938 -5.921875 2.644531 -5.6875 2.34375 -5.21875 C 2.039062 -4.757812 1.890625 -4.078125 1.890625 -3.171875 C 1.890625 -2.265625 2.039062 -1.578125 2.34375 -1.109375 C 2.644531 -0.648438 3.085938 -0.421875 3.671875 -0.421875 Z M 3.671875 0.171875 C 2.753906 0.171875 2.015625 -0.128906 1.453125 -0.734375 C 0.890625 -1.347656 0.609375 -2.160156 0.609375 -3.171875 C 0.609375 -4.179688 0.882812 -4.988281 1.4375 -5.59375 C 2 -6.207031 2.742188 -6.515625 3.671875 -6.515625 C 4.597656 -6.515625 5.335938 -6.207031 5.890625 -5.59375 C 6.453125 -4.988281 6.734375 -4.179688 6.734375 -3.171875 C 6.734375 -2.160156 6.453125 -1.347656 5.890625 -0.734375 C 5.335938 -0.128906 4.597656 0.171875 3.671875 0.171875 Z "/>
</symbol>
<symbol overflow="visible" id="glyph0-4">
<path style="stroke:none;" d="M 1.3125 -5.703125 L 0.359375 -5.703125 L 0.359375 -6.34375 L 1.3125 -6.34375 L 1.3125 -8.3125 L 2.421875 -8.3125 L 2.421875 -6.34375 L 4.484375 -6.34375 L 4.484375 -5.703125 L 2.421875 -5.703125 L 2.421875 -1.671875 C 2.421875 -1.140625 2.472656 -0.796875 2.578125 -0.640625 C 2.679688 -0.492188 2.875 -0.421875 3.15625 -0.421875 C 3.4375 -0.421875 3.640625 -0.503906 3.765625 -0.671875 C 3.898438 -0.835938 3.972656 -1.109375 3.984375 -1.484375 L 4.8125 -1.484375 C 4.78125 -0.910156 4.625 -0.488281 4.34375 -0.21875 C 4.0625 0.0390625 3.632812 0.171875 3.0625 0.171875 C 2.425781 0.171875 1.972656 0.03125 1.703125 -0.25 C 1.441406 -0.53125 1.3125 -1.003906 1.3125 -1.671875 Z "/>
</symbol>
</g>
</defs>
<g id="surface42">
<g style="fill:rgb(0%,0%,0%);fill-opacity:1;">
  <use xlink:href="#glyph0-1" x="30" y="31.345703"/>
  <use xlink:href="#glyph0-2" x="39" y="31.345703"/>
  <use xlink:href="#glyph0-3" x="45" y="31.345703"/>
  <use xlink:href="#glyph0-4" x="52" y="31.345703"/>
</g>
</g>
</svg>
