<?xml version="1.0" encoding="UTF-8"?>
<svg xmlns="http://www.w3.org/2000/svg" xmlns:xlink="http://www.w3.org/1999/xlink" width="147.21" height="188.639" viewBox="0 0 147.21 188.639">
<defs>
<clipPath id="clip-0">
<path clip-rule="nonzero" d="M 85 174 L 100 174 L 100 188.640625 L 85 188.640625 Z M 85 174 "/>
</clipPath>
<clipPath id="clip-1">
<path clip-rule="nonzero" d="M 79 168 L 106 168 L 106 188.640625 L 79 188.640625 Z M 79 168 "/>
</clipPath>
<clipPath id="clip-2">
<path clip-rule="nonzero" d="M 120 174 L 135 174 L 135 188.640625 L 120 188.640625 Z M 120 174 "/>
</clipPath>
<clipPath id="clip-3">
<path clip-rule="nonzero" d="M 114 168 L 141 168 L 141 188.640625 L 114 188.640625 Z M 114 168 "/>
</clipPath>
<clipPath id="clip-4">
<path clip-rule="nonzero" d="M 123 98 L 147.210938 98 L 147.210938 124 L 123 124 Z M 123 98 "/>
</clipPath>
</defs>
<path fill-rule="nonzero" fill="rgb(0%, 0%, 0%)" fill-opacity="1" d="M 63.363281 2.816406 C 63.363281 1.261719 62.101562 0 60.546875 0 C 58.988281 0 57.726562 1.261719 57.726562 2.816406 C 57.726562 4.375 58.988281 5.636719 60.546875 5.636719 C 62.101562 5.636719 63.363281 4.375 63.363281 2.816406 Z M 63.363281 2.816406 "/>
<path fill-rule="nonzero" fill="rgb(0%, 0%, 0%)" fill-opacity="1" d="M 32.039062 44.246094 C 32.039062 43.96875 31.816406 43.746094 31.539062 43.746094 C 31.265625 43.746094 31.042969 43.96875 31.042969 44.246094 C 31.042969 44.519531 31.265625 44.742188 31.539062 44.742188 C 31.816406 44.742188 32.039062 44.519531 32.039062 44.246094 Z M 32.039062 44.246094 "/>
<path fill-rule="nonzero" fill="rgb(79.998779%, 79.998779%, 79.998779%)" fill-opacity="1" stroke-width="0.3985" stroke-linecap="butt" stroke-linejoin="miter" stroke="rgb(0%, 0%, 0%)" stroke-opacity="1" stroke-miterlimit="10" d="M 7.043531 0.001875 C 7.043531 3.8925 3.891188 7.044844 0.0005625 7.044844 C -3.890062 7.044844 -7.046312 3.8925 -7.046312 0.001875 C -7.046312 -3.892656 -3.890062 -7.045 0.0005625 -7.045 C 3.891188 -7.045 7.043531 -3.892656 7.043531 0.001875 Z M 7.043531 0.001875 " transform="matrix(1, 0, 0, -1, 13.976, 69.33)"/>
<path fill-rule="nonzero" fill="rgb(79.998779%, 79.998779%, 79.998779%)" fill-opacity="1" stroke-width="0.3985" stroke-linecap="butt" stroke-linejoin="miter" stroke="rgb(0%, 0%, 0%)" stroke-opacity="1" stroke-miterlimit="10" d="M 7.044438 0.001875 C 7.044438 3.8925 3.892094 7.044844 0.00146875 7.044844 C -3.893062 7.044844 -7.045406 3.8925 -7.045406 0.001875 C -7.045406 -3.892656 -3.893062 -7.045 0.00146875 -7.045 C 3.892094 -7.045 7.044438 -3.892656 7.044438 0.001875 Z M 7.044438 0.001875 " transform="matrix(1, 0, 0, -1, 49.104, 69.33)"/>
<path fill-rule="nonzero" fill="rgb(0%, 0%, 0%)" fill-opacity="1" d="M 90.050781 44.246094 C 90.050781 43.96875 89.828125 43.746094 89.554688 43.746094 C 89.277344 43.746094 89.054688 43.96875 89.054688 44.246094 C 89.054688 44.519531 89.277344 44.742188 89.554688 44.742188 C 89.828125 44.742188 90.050781 44.519531 90.050781 44.246094 Z M 90.050781 44.246094 "/>
<path fill-rule="nonzero" fill="rgb(0%, 0%, 0%)" fill-opacity="1" d="M 61.046875 85.671875 C 61.046875 85.394531 60.820312 85.171875 60.546875 85.171875 C 60.273438 85.171875 60.050781 85.394531 60.050781 85.671875 C 60.050781 85.945312 60.273438 86.167969 60.546875 86.167969 C 60.820312 86.167969 61.046875 85.945312 61.046875 85.671875 Z M 61.046875 85.671875 "/>
<path fill-rule="nonzero" fill="rgb(0%, 0%, 0%)" fill-opacity="1" d="M 29.148438 131.222656 C 29.148438 130.949219 28.925781 130.726562 28.652344 130.726562 C 28.375 130.726562 28.152344 130.949219 28.152344 131.222656 C 28.152344 131.5 28.375 131.722656 28.652344 131.722656 C 28.925781 131.722656 29.148438 131.5 29.148438 131.222656 Z M 29.148438 131.222656 "/>
<path fill-rule="nonzero" fill="rgb(79.998779%, 79.998779%, 79.998779%)" fill-opacity="1" stroke-width="0.3985" stroke-linecap="butt" stroke-linejoin="miter" stroke="rgb(0%, 0%, 0%)" stroke-opacity="1" stroke-miterlimit="10" d="M 7.045812 0.00040625 C 7.045812 3.891031 3.889562 7.047281 -0.0010625 7.047281 C -3.891688 7.047281 -7.044031 3.891031 -7.044031 0.00040625 C -7.044031 -3.890219 -3.891688 -7.046469 -0.0010625 -7.046469 C 3.889562 -7.046469 7.045812 -3.890219 7.045812 0.00040625 Z M 7.045812 0.00040625 " transform="matrix(1, 0, 0, -1, 11.087, 156.309)"/>
<path fill-rule="nonzero" fill="rgb(79.998779%, 79.998779%, 79.998779%)" fill-opacity="1" stroke-width="0.3985" stroke-linecap="butt" stroke-linejoin="miter" stroke="rgb(0%, 0%, 0%)" stroke-opacity="1" stroke-miterlimit="10" d="M 7.046719 0.00040625 C 7.046719 3.891031 3.890469 7.047281 -0.00015625 7.047281 C -3.890781 7.047281 -7.047031 3.891031 -7.047031 0.00040625 C -7.047031 -3.890219 -3.890781 -7.046469 -0.00015625 -7.046469 C 3.890469 -7.046469 7.046719 -3.890219 7.046719 0.00040625 Z M 7.046719 0.00040625 " transform="matrix(1, 0, 0, -1, 46.215, 156.309)"/>
<path fill-rule="nonzero" fill="rgb(0%, 0%, 0%)" fill-opacity="1" d="M 92.941406 131.222656 C 92.941406 130.949219 92.71875 130.726562 92.441406 130.726562 C 92.167969 130.726562 91.945312 130.949219 91.945312 131.222656 C 91.945312 131.5 92.167969 131.722656 92.441406 131.722656 C 92.71875 131.722656 92.941406 131.5 92.941406 131.222656 Z M 92.941406 131.222656 "/>
<path fill-rule="nonzero" fill="rgb(79.998779%, 79.998779%, 79.998779%)" fill-opacity="1" stroke-width="0.3985" stroke-linecap="butt" stroke-linejoin="miter" stroke="rgb(0%, 0%, 0%)" stroke-opacity="1" stroke-miterlimit="10" d="M 7.043875 0.00040625 C 7.043875 3.891031 3.891531 7.047281 0.00090625 7.047281 C -3.889719 7.047281 -7.045969 3.891031 -7.045969 0.00040625 C -7.045969 -3.890219 -3.889719 -7.046469 0.00090625 -7.046469 C 3.891531 -7.046469 7.043875 -3.890219 7.043875 0.00040625 Z M 7.043875 0.00040625 " transform="matrix(1, 0, 0, -1, 74.878, 156.309)"/>
<path fill-rule="nonzero" fill="rgb(0%, 0%, 0%)" fill-opacity="1" d="M 110.503906 156.308594 C 110.503906 156.035156 110.28125 155.8125 110.007812 155.8125 C 109.730469 155.8125 109.507812 156.035156 109.507812 156.308594 C 109.507812 156.585938 109.730469 156.808594 110.007812 156.808594 C 110.28125 156.808594 110.503906 156.585938 110.503906 156.308594 Z M 110.503906 156.308594 "/>
<g clip-path="url(#clip-0)">
<path fill-rule="nonzero" fill="rgb(79.998779%, 79.998779%, 79.998779%)" fill-opacity="1" d="M 99.488281 181.394531 C 99.488281 177.503906 96.332031 174.347656 92.441406 174.347656 C 88.550781 174.347656 85.398438 177.503906 85.398438 181.394531 C 85.398438 185.285156 88.550781 188.4375 92.441406 188.4375 C 96.332031 188.4375 99.488281 185.285156 99.488281 181.394531 Z M 99.488281 181.394531 "/>
</g>
<g clip-path="url(#clip-1)">
<path fill="none" stroke-width="0.3985" stroke-linecap="butt" stroke-linejoin="miter" stroke="rgb(0%, 0%, 0%)" stroke-opacity="1" stroke-miterlimit="10" d="M 7.046281 -0.00053125 C 7.046281 3.890094 3.890031 7.046344 -0.00059375 7.046344 C -3.891219 7.046344 -7.043563 3.890094 -7.043563 -0.00053125 C -7.043563 -3.891156 -3.891219 -7.0435 -0.00059375 -7.0435 C 3.890031 -7.0435 7.046281 -3.891156 7.046281 -0.00053125 Z M 7.046281 -0.00053125 " transform="matrix(1, 0, 0, -1, 92.442, 181.394)"/>
</g>
<g clip-path="url(#clip-2)">
<path fill-rule="nonzero" fill="rgb(79.998779%, 79.998779%, 79.998779%)" fill-opacity="1" d="M 134.617188 181.394531 C 134.617188 177.503906 131.460938 174.347656 127.570312 174.347656 C 123.679688 174.347656 120.523438 177.503906 120.523438 181.394531 C 120.523438 185.285156 123.679688 188.4375 127.570312 188.4375 C 131.460938 188.4375 134.617188 185.285156 134.617188 181.394531 Z M 134.617188 181.394531 "/>
</g>
<g clip-path="url(#clip-3)">
<path fill="none" stroke-width="0.3985" stroke-linecap="butt" stroke-linejoin="miter" stroke="rgb(0%, 0%, 0%)" stroke-opacity="1" stroke-miterlimit="10" d="M 7.047188 -0.00053125 C 7.047188 3.890094 3.890938 7.046344 0.0003125 7.046344 C -3.890312 7.046344 -7.046562 3.890094 -7.046562 -0.00053125 C -7.046562 -3.891156 -3.890312 -7.0435 0.0003125 -7.0435 C 3.890938 -7.0435 7.047188 -3.891156 7.047188 -0.00053125 Z M 7.047188 -0.00053125 " transform="matrix(1, 0, 0, -1, 127.57, 181.394)"/>
</g>
<path fill-rule="nonzero" fill="rgb(0%, 0%, 0%)" fill-opacity="1" d="M 119.054688 85.671875 C 119.054688 85.394531 118.832031 85.171875 118.558594 85.171875 C 118.28125 85.171875 118.058594 85.394531 118.058594 85.671875 C 118.058594 85.945312 118.28125 86.167969 118.558594 86.167969 C 118.832031 86.167969 119.054688 85.945312 119.054688 85.671875 Z M 119.054688 85.671875 "/>
<path fill-rule="nonzero" fill="rgb(79.998779%, 79.998779%, 79.998779%)" fill-opacity="1" stroke-width="0.3985" stroke-linecap="butt" stroke-linejoin="miter" stroke="rgb(0%, 0%, 0%)" stroke-opacity="1" stroke-miterlimit="10" d="M 7.045063 -0.0018125 C 7.045063 3.892719 3.892719 7.045062 -0.0018125 7.045062 C -3.892437 7.045062 -7.044781 3.892719 -7.044781 -0.0018125 C -7.044781 -3.892438 -3.892437 -7.044781 -0.0018125 -7.044781 C 3.892719 -7.044781 7.045063 -3.892438 7.045063 -0.0018125 Z M 7.045063 -0.0018125 " transform="matrix(1, 0, 0, -1, 100.994, 110.756)"/>
<path fill-rule="nonzero" fill="rgb(79.998779%, 79.998779%, 79.998779%)" fill-opacity="1" d="M 143.167969 110.757812 C 143.167969 106.863281 140.015625 103.710938 136.121094 103.710938 C 132.230469 103.710938 129.078125 106.863281 129.078125 110.757812 C 129.078125 114.648438 132.230469 117.800781 136.121094 117.800781 C 140.015625 117.800781 143.167969 114.648438 143.167969 110.757812 Z M 143.167969 110.757812 "/>
<g clip-path="url(#clip-4)">
<path fill="none" stroke-width="0.3985" stroke-linecap="butt" stroke-linejoin="miter" stroke="rgb(0%, 0%, 0%)" stroke-opacity="1" stroke-miterlimit="10" d="M 7.044969 -0.0018125 C 7.044969 3.892719 3.892625 7.045062 -0.00190625 7.045062 C -3.892531 7.045062 -7.044875 3.892719 -7.044875 -0.0018125 C -7.044875 -3.892438 -3.892531 -7.044781 -0.00190625 -7.044781 C 3.892625 -7.044781 7.044969 -3.892438 7.044969 -0.0018125 Z M 7.044969 -0.0018125 " transform="matrix(1, 0, 0, -1, 136.123, 110.756)"/>
</g>
<path fill="none" stroke-width="0.3985" stroke-linecap="butt" stroke-linejoin="miter" stroke="rgb(0%, 0%, 0%)" stroke-opacity="1" stroke-miterlimit="10" d="M -1.729594 -2.471063 L -28.6085 -40.857781 " transform="matrix(1, 0, 0, -1, 60.546, 2.818)"/>
<path fill="none" stroke-width="0.3985" stroke-linecap="butt" stroke-linejoin="miter" stroke="rgb(0%, 0%, 0%)" stroke-opacity="1" stroke-miterlimit="10" d="M -29.405375 -41.998406 L -42.417094 -60.576531 " transform="matrix(1, 0, 0, -1, 60.546, 2.818)"/>
<path fill="none" stroke-width="0.3985" stroke-linecap="butt" stroke-linejoin="miter" stroke="rgb(0%, 0%, 0%)" stroke-opacity="1" stroke-miterlimit="10" d="M -28.6085 -41.998406 L -15.596781 -60.576531 " transform="matrix(1, 0, 0, -1, 60.546, 2.818)"/>
<path fill="none" stroke-width="0.3985" stroke-linecap="butt" stroke-linejoin="miter" stroke="rgb(0%, 0%, 0%)" stroke-opacity="1" stroke-miterlimit="10" d="M 1.731344 -2.471063 L 28.606344 -40.857781 " transform="matrix(1, 0, 0, -1, 60.546, 2.818)"/>
<path fill="none" stroke-width="0.3985" stroke-linecap="butt" stroke-linejoin="miter" stroke="rgb(0%, 0%, 0%)" stroke-opacity="1" stroke-miterlimit="10" d="M 28.606344 -41.998406 L 0.399313 -82.283563 " transform="matrix(1, 0, 0, -1, 60.546, 2.818)"/>
<path fill="none" stroke-width="0.3985" stroke-linecap="butt" stroke-linejoin="miter" stroke="rgb(0%, 0%, 0%)" stroke-opacity="1" stroke-miterlimit="10" d="M -0.401469 -83.424188 L -31.495219 -127.83825 " transform="matrix(1, 0, 0, -1, 60.546, 2.818)"/>
<path fill="none" stroke-width="0.3985" stroke-linecap="butt" stroke-linejoin="miter" stroke="rgb(0%, 0%, 0%)" stroke-opacity="1" stroke-miterlimit="10" d="M -32.296 -128.978875 L -45.303812 -147.557 " transform="matrix(1, 0, 0, -1, 60.546, 2.818)"/>
<path fill="none" stroke-width="0.3985" stroke-linecap="butt" stroke-linejoin="miter" stroke="rgb(0%, 0%, 0%)" stroke-opacity="1" stroke-miterlimit="10" d="M -31.495219 -128.978875 L -18.487406 -147.557 " transform="matrix(1, 0, 0, -1, 60.546, 2.818)"/>
<path fill="none" stroke-width="0.3985" stroke-linecap="butt" stroke-linejoin="miter" stroke="rgb(0%, 0%, 0%)" stroke-opacity="1" stroke-miterlimit="10" d="M 0.399313 -83.424188 L 31.496969 -127.83825 " transform="matrix(1, 0, 0, -1, 60.546, 2.818)"/>
<path fill="none" stroke-width="0.3985" stroke-linecap="butt" stroke-linejoin="miter" stroke="rgb(0%, 0%, 0%)" stroke-opacity="1" stroke-miterlimit="10" d="M 31.496969 -128.978875 L 18.48525 -147.557 " transform="matrix(1, 0, 0, -1, 60.546, 2.818)"/>
<path fill="none" stroke-width="0.3985" stroke-linecap="butt" stroke-linejoin="miter" stroke="rgb(0%, 0%, 0%)" stroke-opacity="1" stroke-miterlimit="10" d="M 32.29775 -128.978875 L 49.059469 -152.920281 " transform="matrix(1, 0, 0, -1, 60.546, 2.818)"/>
<path fill="none" stroke-width="0.3985" stroke-linecap="butt" stroke-linejoin="miter" stroke="rgb(0%, 0%, 0%)" stroke-opacity="1" stroke-miterlimit="10" d="M 49.059469 -154.064813 L 36.051656 -172.642938 " transform="matrix(1, 0, 0, -1, 60.546, 2.818)"/>
<path fill="none" stroke-width="0.3985" stroke-linecap="butt" stroke-linejoin="miter" stroke="rgb(0%, 0%, 0%)" stroke-opacity="1" stroke-miterlimit="10" d="M 49.86025 -154.064813 L 62.868063 -172.642938 " transform="matrix(1, 0, 0, -1, 60.546, 2.818)"/>
<path fill="none" stroke-width="0.3985" stroke-linecap="butt" stroke-linejoin="miter" stroke="rgb(0%, 0%, 0%)" stroke-opacity="1" stroke-miterlimit="10" d="M 29.407125 -41.998406 L 57.614156 -82.283563 " transform="matrix(1, 0, 0, -1, 60.546, 2.818)"/>
<path fill="none" stroke-width="0.3985" stroke-linecap="butt" stroke-linejoin="miter" stroke="rgb(0%, 0%, 0%)" stroke-opacity="1" stroke-miterlimit="10" d="M 57.614156 -83.424188 L 44.602438 -102.006219 " transform="matrix(1, 0, 0, -1, 60.546, 2.818)"/>
<path fill="none" stroke-width="0.3985" stroke-linecap="butt" stroke-linejoin="miter" stroke="rgb(0%, 0%, 0%)" stroke-opacity="1" stroke-miterlimit="10" d="M 58.411031 -83.424188 L 71.42275 -102.006219 " transform="matrix(1, 0, 0, -1, 60.546, 2.818)"/>
</svg>
