<?xml version="1.0" encoding="UTF-8"?>
<svg xmlns="http://www.w3.org/2000/svg" xmlns:xlink="http://www.w3.org/1999/xlink" width="164.774" height="174.618" viewBox="0 0 164.774 174.618">
<defs>
<clipPath id="clip-0">
<path clip-rule="nonzero" d="M 47 160 L 62 160 L 62 174.617188 L 47 174.617188 Z M 47 160 "/>
</clipPath>
<clipPath id="clip-1">
<path clip-rule="nonzero" d="M 42 154 L 68 154 L 68 174.617188 L 42 174.617188 Z M 42 154 "/>
</clipPath>
<clipPath id="clip-2">
<path clip-rule="nonzero" d="M 82 160 L 97 160 L 97 174.617188 L 82 174.617188 Z M 82 160 "/>
</clipPath>
<clipPath id="clip-3">
<path clip-rule="nonzero" d="M 77 154 L 103 154 L 103 174.617188 L 77 174.617188 Z M 77 154 "/>
</clipPath>
<clipPath id="clip-4">
<path clip-rule="nonzero" d="M 111 160 L 126 160 L 126 174.617188 L 111 174.617188 Z M 111 160 "/>
</clipPath>
<clipPath id="clip-5">
<path clip-rule="nonzero" d="M 105 154 L 132 154 L 132 174.617188 L 105 174.617188 Z M 105 154 "/>
</clipPath>
<clipPath id="clip-6">
<path clip-rule="nonzero" d="M 146 160 L 161 160 L 161 174.617188 L 146 174.617188 Z M 146 160 "/>
</clipPath>
<clipPath id="clip-7">
<path clip-rule="nonzero" d="M 141 154 L 164.773438 154 L 164.773438 174.617188 L 141 174.617188 Z M 141 154 "/>
</clipPath>
</defs>
<path fill-rule="nonzero" fill="rgb(0%, 0%, 0%)" fill-opacity="1" d="M 79.664062 2.816406 C 79.664062 1.261719 78.402344 0 76.847656 0 C 75.289062 0 74.027344 1.261719 74.027344 2.816406 C 74.027344 4.375 75.289062 5.636719 76.847656 5.636719 C 78.402344 5.636719 79.664062 4.375 79.664062 2.816406 Z M 79.664062 2.816406 "/>
<path fill-rule="nonzero" fill="rgb(0%, 0%, 0%)" fill-opacity="1" d="M 58.15625 30.222656 C 58.15625 29.949219 57.933594 29.726562 57.65625 29.726562 C 57.382812 29.726562 57.160156 29.949219 57.160156 30.222656 C 57.160156 30.5 57.382812 30.722656 57.65625 30.722656 C 57.933594 30.722656 58.15625 30.5 58.15625 30.222656 Z M 58.15625 30.222656 "/>
<path fill-rule="nonzero" fill="rgb(0%, 0%, 0%)" fill-opacity="1" d="M 29.148438 71.648438 C 29.148438 71.375 28.925781 71.152344 28.652344 71.152344 C 28.375 71.152344 28.152344 71.375 28.152344 71.648438 C 28.152344 71.925781 28.375 72.148438 28.652344 72.148438 C 28.925781 72.148438 29.148438 71.925781 29.148438 71.648438 Z M 29.148438 71.648438 "/>
<path fill-rule="nonzero" fill="rgb(79.998779%, 79.998779%, 79.998779%)" fill-opacity="1" stroke-width="0.3985" stroke-linecap="butt" stroke-linejoin="miter" stroke="rgb(0%, 0%, 0%)" stroke-opacity="1" stroke-miterlimit="10" d="M 7.045812 0.000625 C 7.045812 3.89125 3.889562 7.043594 -0.0010625 7.043594 C -3.891688 7.043594 -7.044031 3.89125 -7.044031 0.000625 C -7.044031 -3.89 -3.891688 -7.04625 -0.0010625 -7.04625 C 3.889562 -7.04625 7.045812 -3.89 7.045812 0.000625 Z M 7.045812 0.000625 " transform="matrix(1, 0, 0, -1, 11.087, 96.735)"/>
<path fill-rule="nonzero" fill="rgb(79.998779%, 79.998779%, 79.998779%)" fill-opacity="1" stroke-width="0.3985" stroke-linecap="butt" stroke-linejoin="miter" stroke="rgb(0%, 0%, 0%)" stroke-opacity="1" stroke-miterlimit="10" d="M 7.046719 0.000625 C 7.046719 3.89125 3.890469 7.043594 -0.00015625 7.043594 C -3.890781 7.043594 -7.047031 3.89125 -7.047031 0.000625 C -7.047031 -3.89 -3.890781 -7.04625 -0.00015625 -7.04625 C 3.890469 -7.04625 7.046719 -3.89 7.046719 0.000625 Z M 7.046719 0.000625 " transform="matrix(1, 0, 0, -1, 46.215, 96.735)"/>
<path fill-rule="nonzero" fill="rgb(0%, 0%, 0%)" fill-opacity="1" d="M 87.160156 71.648438 C 87.160156 71.375 86.9375 71.152344 86.664062 71.152344 C 86.386719 71.152344 86.164062 71.375 86.164062 71.648438 C 86.164062 71.925781 86.386719 72.148438 86.664062 72.148438 C 86.9375 72.148438 87.160156 71.925781 87.160156 71.648438 Z M 87.160156 71.648438 "/>
<path fill-rule="nonzero" fill="rgb(0%, 0%, 0%)" fill-opacity="1" d="M 55.265625 117.203125 C 55.265625 116.929688 55.042969 116.703125 54.769531 116.703125 C 54.492188 116.703125 54.269531 116.929688 54.269531 117.203125 C 54.269531 117.476562 54.492188 117.699219 54.769531 117.699219 C 55.042969 117.699219 55.265625 117.476562 55.265625 117.203125 Z M 55.265625 117.203125 "/>
<path fill-rule="nonzero" fill="rgb(79.998779%, 79.998779%, 79.998779%)" fill-opacity="1" stroke-width="0.3985" stroke-linecap="butt" stroke-linejoin="miter" stroke="rgb(0%, 0%, 0%)" stroke-opacity="1" stroke-miterlimit="10" d="M 7.046 -0.0010625 C 7.046 3.889562 3.88975 7.045812 -0.000875 7.045812 C -3.8915 7.045812 -7.043844 3.889562 -7.043844 -0.0010625 C -7.043844 -3.891688 -3.8915 -7.044031 -0.000875 -7.044031 C 3.88975 -7.044031 7.046 -3.891688 7.046 -0.0010625 Z M 7.046 -0.0010625 " transform="matrix(1, 0, 0, -1, 37.204, 142.288)"/>
<path fill-rule="nonzero" fill="rgb(0%, 0%, 0%)" fill-opacity="1" d="M 72.832031 142.289062 C 72.832031 142.011719 72.605469 141.789062 72.332031 141.789062 C 72.058594 141.789062 71.832031 142.011719 71.832031 142.289062 C 71.832031 142.5625 72.058594 142.785156 72.332031 142.785156 C 72.605469 142.785156 72.832031 142.5625 72.832031 142.289062 Z M 72.832031 142.289062 "/>
<g clip-path="url(#clip-0)">
<path fill-rule="nonzero" fill="rgb(79.998779%, 79.998779%, 79.998779%)" fill-opacity="1" d="M 61.8125 167.371094 C 61.8125 163.480469 58.660156 160.328125 54.769531 160.328125 C 50.875 160.328125 47.722656 163.480469 47.722656 167.371094 C 47.722656 171.265625 50.875 174.417969 54.769531 174.417969 C 58.660156 174.417969 61.8125 171.265625 61.8125 167.371094 Z M 61.8125 167.371094 "/>
</g>
<g clip-path="url(#clip-1)">
<path fill="none" stroke-width="0.3985" stroke-linecap="butt" stroke-linejoin="miter" stroke="rgb(0%, 0%, 0%)" stroke-opacity="1" stroke-miterlimit="10" d="M 7.0445 0.00190625 C 7.0445 3.892531 3.892156 7.044875 0.00153125 7.044875 C -3.893 7.044875 -7.045344 3.892531 -7.045344 0.00190625 C -7.045344 -3.892625 -3.893 -7.044969 0.00153125 -7.044969 C 3.892156 -7.044969 7.0445 -3.892625 7.0445 0.00190625 Z M 7.0445 0.00190625 " transform="matrix(1, 0, 0, -1, 54.768, 167.373)"/>
</g>
<g clip-path="url(#clip-2)">
<path fill-rule="nonzero" fill="rgb(79.998779%, 79.998779%, 79.998779%)" fill-opacity="1" d="M 96.941406 167.371094 C 96.941406 163.480469 93.789062 160.328125 89.894531 160.328125 C 86.003906 160.328125 82.851562 163.480469 82.851562 167.371094 C 82.851562 171.265625 86.003906 174.417969 89.894531 174.417969 C 93.789062 174.417969 96.941406 171.265625 96.941406 167.371094 Z M 96.941406 167.371094 "/>
</g>
<g clip-path="url(#clip-3)">
<path fill="none" stroke-width="0.3985" stroke-linecap="butt" stroke-linejoin="miter" stroke="rgb(0%, 0%, 0%)" stroke-opacity="1" stroke-miterlimit="10" d="M 7.045406 0.00190625 C 7.045406 3.892531 3.893062 7.044875 -0.00146875 7.044875 C -3.892094 7.044875 -7.044438 3.892531 -7.044438 0.00190625 C -7.044438 -3.892625 -3.892094 -7.044969 -0.00146875 -7.044969 C 3.893062 -7.044969 7.045406 -3.892625 7.045406 0.00190625 Z M 7.045406 0.00190625 " transform="matrix(1, 0, 0, -1, 89.896, 167.373)"/>
</g>
<path fill-rule="nonzero" fill="rgb(0%, 0%, 0%)" fill-opacity="1" d="M 119.058594 117.203125 C 119.058594 116.929688 118.835938 116.703125 118.558594 116.703125 C 118.285156 116.703125 118.0625 116.929688 118.0625 117.203125 C 118.0625 117.476562 118.285156 117.699219 118.558594 117.699219 C 118.835938 117.699219 119.058594 117.476562 119.058594 117.203125 Z M 119.058594 117.203125 "/>
<path fill-rule="nonzero" fill="rgb(79.998779%, 79.998779%, 79.998779%)" fill-opacity="1" stroke-width="0.3985" stroke-linecap="butt" stroke-linejoin="miter" stroke="rgb(0%, 0%, 0%)" stroke-opacity="1" stroke-miterlimit="10" d="M 7.045063 -0.0010625 C 7.045063 3.889562 3.892719 7.045812 -0.0018125 7.045812 C -3.892437 7.045812 -7.044781 3.889562 -7.044781 -0.0010625 C -7.044781 -3.891688 -3.892437 -7.044031 -0.0018125 -7.044031 C 3.892719 -7.044031 7.045063 -3.891688 7.045063 -0.0010625 Z M 7.045063 -0.0010625 " transform="matrix(1, 0, 0, -1, 100.994, 142.288)"/>
<path fill-rule="nonzero" fill="rgb(0%, 0%, 0%)" fill-opacity="1" d="M 136.621094 142.289062 C 136.621094 142.011719 136.398438 141.789062 136.121094 141.789062 C 135.847656 141.789062 135.625 142.011719 135.625 142.289062 C 135.625 142.5625 135.847656 142.785156 136.121094 142.785156 C 136.398438 142.785156 136.621094 142.5625 136.621094 142.289062 Z M 136.621094 142.289062 "/>
<g clip-path="url(#clip-4)">
<path fill-rule="nonzero" fill="rgb(79.998779%, 79.998779%, 79.998779%)" fill-opacity="1" d="M 125.601562 167.371094 C 125.601562 163.480469 122.449219 160.328125 118.558594 160.328125 C 114.667969 160.328125 111.511719 163.480469 111.511719 167.371094 C 111.511719 171.265625 114.667969 174.417969 118.558594 174.417969 C 122.449219 174.417969 125.601562 171.265625 125.601562 167.371094 Z M 125.601562 167.371094 "/>
</g>
<g clip-path="url(#clip-5)">
<path fill="none" stroke-width="0.3985" stroke-linecap="butt" stroke-linejoin="miter" stroke="rgb(0%, 0%, 0%)" stroke-opacity="1" stroke-miterlimit="10" d="M 7.043562 0.00190625 C 7.043562 3.892531 3.891219 7.044875 0.00059375 7.044875 C -3.890031 7.044875 -7.046281 3.892531 -7.046281 0.00190625 C -7.046281 -3.892625 -3.890031 -7.044969 0.00059375 -7.044969 C 3.891219 -7.044969 7.043562 -3.892625 7.043562 0.00190625 Z M 7.043562 0.00190625 " transform="matrix(1, 0, 0, -1, 118.558, 167.373)"/>
</g>
<g clip-path="url(#clip-6)">
<path fill-rule="nonzero" fill="rgb(79.998779%, 79.998779%, 79.998779%)" fill-opacity="1" d="M 160.734375 167.371094 C 160.734375 163.480469 157.578125 160.328125 153.6875 160.328125 C 149.796875 160.328125 146.640625 163.480469 146.640625 167.371094 C 146.640625 171.265625 149.796875 174.417969 153.6875 174.417969 C 157.578125 174.417969 160.734375 171.265625 160.734375 167.371094 Z M 160.734375 167.371094 "/>
</g>
<g clip-path="url(#clip-7)">
<path fill="none" stroke-width="0.3985" stroke-linecap="butt" stroke-linejoin="miter" stroke="rgb(0%, 0%, 0%)" stroke-opacity="1" stroke-miterlimit="10" d="M 7.047375 0.00190625 C 7.047375 3.892531 3.891125 7.044875 0.0005 7.044875 C -3.890125 7.044875 -7.046375 3.892531 -7.046375 0.00190625 C -7.046375 -3.892625 -3.890125 -7.044969 0.0005 -7.044969 C 3.891125 -7.044969 7.047375 -3.892625 7.047375 0.00190625 Z M 7.047375 0.00190625 " transform="matrix(1, 0, 0, -1, 153.687, 167.373)"/>
</g>
<path fill-rule="nonzero" fill="rgb(79.998779%, 79.998779%, 79.998779%)" fill-opacity="1" stroke-width="0.3985" stroke-linecap="butt" stroke-linejoin="miter" stroke="rgb(0%, 0%, 0%)" stroke-opacity="1" stroke-miterlimit="10" d="M 7.044125 0.00034375 C 7.044125 3.890969 3.891781 7.047219 0.00115625 7.047219 C -3.889469 7.047219 -7.045719 3.890969 -7.045719 0.00034375 C -7.045719 -3.890281 -3.889469 -7.046531 0.00115625 -7.046531 C 3.891781 -7.046531 7.044125 -3.890281 7.044125 0.00034375 Z M 7.044125 0.00034375 " transform="matrix(1, 0, 0, -1, 96.034, 30.223)"/>
<path fill="none" stroke-width="0.3985" stroke-linecap="butt" stroke-linejoin="miter" stroke="rgb(0%, 0%, 0%)" stroke-opacity="1" stroke-miterlimit="10" d="M -1.728813 -2.471063 L -18.787406 -26.834344 " transform="matrix(1, 0, 0, -1, 76.846, 2.818)"/>
<path fill="none" stroke-width="0.3985" stroke-linecap="butt" stroke-linejoin="miter" stroke="rgb(0%, 0%, 0%)" stroke-opacity="1" stroke-miterlimit="10" d="M -19.588188 -27.974969 L -47.795219 -68.260125 " transform="matrix(1, 0, 0, -1, 76.846, 2.818)"/>
<path fill="none" stroke-width="0.3985" stroke-linecap="butt" stroke-linejoin="miter" stroke="rgb(0%, 0%, 0%)" stroke-opacity="1" stroke-miterlimit="10" d="M -48.596 -69.404656 L -61.603813 -87.982781 " transform="matrix(1, 0, 0, -1, 76.846, 2.818)"/>
<path fill="none" stroke-width="0.3985" stroke-linecap="butt" stroke-linejoin="miter" stroke="rgb(0%, 0%, 0%)" stroke-opacity="1" stroke-miterlimit="10" d="M -47.795219 -69.404656 L -34.787406 -87.982781 " transform="matrix(1, 0, 0, -1, 76.846, 2.818)"/>
<path fill="none" stroke-width="0.3985" stroke-linecap="butt" stroke-linejoin="miter" stroke="rgb(0%, 0%, 0%)" stroke-opacity="1" stroke-miterlimit="10" d="M -18.787406 -27.974969 L 9.415719 -68.260125 " transform="matrix(1, 0, 0, -1, 76.846, 2.818)"/>
<path fill="none" stroke-width="0.3985" stroke-linecap="butt" stroke-linejoin="miter" stroke="rgb(0%, 0%, 0%)" stroke-opacity="1" stroke-miterlimit="10" d="M 9.415719 -69.404656 L -21.678031 -113.814813 " transform="matrix(1, 0, 0, -1, 76.846, 2.818)"/>
<path fill="none" stroke-width="0.3985" stroke-linecap="butt" stroke-linejoin="miter" stroke="rgb(0%, 0%, 0%)" stroke-opacity="1" stroke-miterlimit="10" d="M -22.478813 -114.955438 L -35.486625 -133.537469 " transform="matrix(1, 0, 0, -1, 76.846, 2.818)"/>
<path fill="none" stroke-width="0.3985" stroke-linecap="butt" stroke-linejoin="miter" stroke="rgb(0%, 0%, 0%)" stroke-opacity="1" stroke-miterlimit="10" d="M -21.678031 -114.955438 L -4.912406 -138.90075 " transform="matrix(1, 0, 0, -1, 76.846, 2.818)"/>
<path fill="none" stroke-width="0.3985" stroke-linecap="butt" stroke-linejoin="miter" stroke="rgb(0%, 0%, 0%)" stroke-opacity="1" stroke-miterlimit="10" d="M -4.912406 -140.041375 L -17.924125 -158.623406 " transform="matrix(1, 0, 0, -1, 76.846, 2.818)"/>
<path fill="none" stroke-width="0.3985" stroke-linecap="butt" stroke-linejoin="miter" stroke="rgb(0%, 0%, 0%)" stroke-opacity="1" stroke-miterlimit="10" d="M -4.115531 -140.041375 L 8.896187 -158.623406 " transform="matrix(1, 0, 0, -1, 76.846, 2.818)"/>
<path fill="none" stroke-width="0.3985" stroke-linecap="butt" stroke-linejoin="miter" stroke="rgb(0%, 0%, 0%)" stroke-opacity="1" stroke-miterlimit="10" d="M 10.2165 -69.404656 L 41.314156 -113.814813 " transform="matrix(1, 0, 0, -1, 76.846, 2.818)"/>
<path fill="none" stroke-width="0.3985" stroke-linecap="butt" stroke-linejoin="miter" stroke="rgb(0%, 0%, 0%)" stroke-opacity="1" stroke-miterlimit="10" d="M 41.314156 -114.955438 L 28.302437 -133.537469 " transform="matrix(1, 0, 0, -1, 76.846, 2.818)"/>
<path fill="none" stroke-width="0.3985" stroke-linecap="butt" stroke-linejoin="miter" stroke="rgb(0%, 0%, 0%)" stroke-opacity="1" stroke-miterlimit="10" d="M 42.114937 -114.955438 L 58.876656 -138.90075 " transform="matrix(1, 0, 0, -1, 76.846, 2.818)"/>
<path fill="none" stroke-width="0.3985" stroke-linecap="butt" stroke-linejoin="miter" stroke="rgb(0%, 0%, 0%)" stroke-opacity="1" stroke-miterlimit="10" d="M 58.876656 -140.041375 L 45.868844 -158.623406 " transform="matrix(1, 0, 0, -1, 76.846, 2.818)"/>
<path fill="none" stroke-width="0.3985" stroke-linecap="butt" stroke-linejoin="miter" stroke="rgb(0%, 0%, 0%)" stroke-opacity="1" stroke-miterlimit="10" d="M 59.677437 -140.041375 L 72.68525 -158.623406 " transform="matrix(1, 0, 0, -1, 76.846, 2.818)"/>
<path fill="none" stroke-width="0.3985" stroke-linecap="butt" stroke-linejoin="miter" stroke="rgb(0%, 0%, 0%)" stroke-opacity="1" stroke-miterlimit="10" d="M 1.732125 -2.471063 L 15.032906 -21.471063 " transform="matrix(1, 0, 0, -1, 76.846, 2.818)"/>
</svg>
