<?xml version="1.0" encoding="UTF-8"?>
<svg xmlns="http://www.w3.org/2000/svg" xmlns:xlink="http://www.w3.org/1999/xlink" width="147.21" height="199.703" viewBox="0 0 147.21 199.703">
<defs>
<clipPath id="clip-0">
<path clip-rule="nonzero" d="M 85 185 L 100 185 L 100 199.703125 L 85 199.703125 Z M 85 185 "/>
</clipPath>
<clipPath id="clip-1">
<path clip-rule="nonzero" d="M 79 179 L 106 179 L 106 199.703125 L 79 199.703125 Z M 79 179 "/>
</clipPath>
<clipPath id="clip-2">
<path clip-rule="nonzero" d="M 120 185 L 135 185 L 135 199.703125 L 120 199.703125 Z M 120 185 "/>
</clipPath>
<clipPath id="clip-3">
<path clip-rule="nonzero" d="M 114 179 L 141 179 L 141 199.703125 L 114 199.703125 Z M 114 179 "/>
</clipPath>
<clipPath id="clip-4">
<path clip-rule="nonzero" d="M 123 109 L 147.210938 109 L 147.210938 135 L 123 135 Z M 123 109 "/>
</clipPath>
</defs>
<path fill-rule="nonzero" fill="rgb(0%, 0%, 0%)" fill-opacity="1" d="M 55.617188 2.816406 C 55.617188 1.261719 54.355469 0 52.800781 0 C 51.242188 0 49.980469 1.261719 49.980469 2.816406 C 49.980469 4.375 51.242188 5.636719 52.800781 5.636719 C 54.355469 5.636719 55.617188 4.375 55.617188 2.816406 Z M 55.617188 2.816406 "/>
<path fill-rule="nonzero" fill="rgb(79.998779%, 79.998779%, 79.998779%)" fill-opacity="1" stroke-width="0.3985" stroke-linecap="butt" stroke-linejoin="miter" stroke="rgb(0%, 0%, 0%)" stroke-opacity="1" stroke-miterlimit="10" d="M 7.04525 0.00034375 C 7.04525 3.890969 3.892906 7.047219 -0.001625 7.047219 C -3.89225 7.047219 -7.044594 3.890969 -7.044594 0.00034375 C -7.044594 -3.890281 -3.89225 -7.046531 -0.001625 -7.046531 C 3.892906 -7.046531 7.04525 -3.890281 7.04525 0.00034375 Z M 7.04525 0.00034375 " transform="matrix(1, 0, 0, -1, 33.611, 30.223)"/>
<path fill-rule="nonzero" fill="rgb(0%, 0%, 0%)" fill-opacity="1" d="M 72.484375 30.222656 C 72.484375 29.949219 72.261719 29.726562 71.988281 29.726562 C 71.714844 29.726562 71.488281 29.949219 71.488281 30.222656 C 71.488281 30.5 71.714844 30.722656 71.988281 30.722656 C 72.261719 30.722656 72.484375 30.5 72.484375 30.222656 Z M 72.484375 30.222656 "/>
<path fill-rule="nonzero" fill="rgb(79.998779%, 79.998779%, 79.998779%)" fill-opacity="1" stroke-width="0.3985" stroke-linecap="butt" stroke-linejoin="miter" stroke="rgb(0%, 0%, 0%)" stroke-opacity="1" stroke-miterlimit="10" d="M 7.04475 -0.00059375 C 7.04475 3.890031 3.892406 7.046281 0.00178125 7.046281 C -3.89275 7.046281 -7.045094 3.890031 -7.045094 -0.00059375 C -7.045094 -3.891219 -3.89275 -7.043563 0.00178125 -7.043563 C 3.892406 -7.043563 7.04475 -3.891219 7.04475 -0.00059375 Z M 7.04475 -0.00059375 " transform="matrix(1, 0, 0, -1, 54.424, 55.308)"/>
<path fill-rule="nonzero" fill="rgb(0%, 0%, 0%)" fill-opacity="1" d="M 90.050781 55.308594 C 90.050781 55.03125 89.828125 54.808594 89.554688 54.808594 C 89.277344 54.808594 89.054688 55.03125 89.054688 55.308594 C 89.054688 55.582031 89.277344 55.804688 89.554688 55.804688 C 89.828125 55.804688 90.050781 55.582031 90.050781 55.308594 Z M 90.050781 55.308594 "/>
<path fill-rule="nonzero" fill="rgb(0%, 0%, 0%)" fill-opacity="1" d="M 61.046875 96.734375 C 61.046875 96.460938 60.820312 96.238281 60.546875 96.238281 C 60.273438 96.238281 60.050781 96.460938 60.050781 96.734375 C 60.050781 97.011719 60.273438 97.234375 60.546875 97.234375 C 60.820312 97.234375 61.046875 97.011719 61.046875 96.734375 Z M 61.046875 96.734375 "/>
<path fill-rule="nonzero" fill="rgb(0%, 0%, 0%)" fill-opacity="1" d="M 29.148438 142.289062 C 29.148438 142.011719 28.925781 141.789062 28.652344 141.789062 C 28.375 141.789062 28.152344 142.011719 28.152344 142.289062 C 28.152344 142.5625 28.375 142.785156 28.652344 142.785156 C 28.925781 142.785156 29.148438 142.5625 29.148438 142.289062 Z M 29.148438 142.289062 "/>
<path fill-rule="nonzero" fill="rgb(79.998779%, 79.998779%, 79.998779%)" fill-opacity="1" stroke-width="0.3985" stroke-linecap="butt" stroke-linejoin="miter" stroke="rgb(0%, 0%, 0%)" stroke-opacity="1" stroke-miterlimit="10" d="M 7.045813 0.00190625 C 7.045813 3.892531 3.889563 7.044875 -0.0010625 7.044875 C -3.891687 7.044875 -7.044031 3.892531 -7.044031 0.00190625 C -7.044031 -3.892625 -3.891687 -7.044969 -0.0010625 -7.044969 C 3.889563 -7.044969 7.045813 -3.892625 7.045813 0.00190625 Z M 7.045813 0.00190625 " transform="matrix(1, 0, 0, -1, 11.087, 167.373)"/>
<path fill-rule="nonzero" fill="rgb(79.998779%, 79.998779%, 79.998779%)" fill-opacity="1" stroke-width="0.3985" stroke-linecap="butt" stroke-linejoin="miter" stroke="rgb(0%, 0%, 0%)" stroke-opacity="1" stroke-miterlimit="10" d="M 7.046719 0.00190625 C 7.046719 3.892531 3.890469 7.044875 -0.00015625 7.044875 C -3.890781 7.044875 -7.047031 3.892531 -7.047031 0.00190625 C -7.047031 -3.892625 -3.890781 -7.044969 -0.00015625 -7.044969 C 3.890469 -7.044969 7.046719 -3.892625 7.046719 0.00190625 Z M 7.046719 0.00190625 " transform="matrix(1, 0, 0, -1, 46.215, 167.373)"/>
<path fill-rule="nonzero" fill="rgb(0%, 0%, 0%)" fill-opacity="1" d="M 92.941406 142.289062 C 92.941406 142.011719 92.71875 141.789062 92.441406 141.789062 C 92.167969 141.789062 91.945312 142.011719 91.945312 142.289062 C 91.945312 142.5625 92.167969 142.785156 92.441406 142.785156 C 92.71875 142.785156 92.941406 142.5625 92.941406 142.289062 Z M 92.941406 142.289062 "/>
<path fill-rule="nonzero" fill="rgb(79.998779%, 79.998779%, 79.998779%)" fill-opacity="1" stroke-width="0.3985" stroke-linecap="butt" stroke-linejoin="miter" stroke="rgb(0%, 0%, 0%)" stroke-opacity="1" stroke-miterlimit="10" d="M 7.043875 0.00190625 C 7.043875 3.892531 3.891531 7.044875 0.00090625 7.044875 C -3.889719 7.044875 -7.045969 3.892531 -7.045969 0.00190625 C -7.045969 -3.892625 -3.889719 -7.044969 0.00090625 -7.044969 C 3.891531 -7.044969 7.043875 -3.892625 7.043875 0.00190625 Z M 7.043875 0.00190625 " transform="matrix(1, 0, 0, -1, 74.878, 167.373)"/>
<path fill-rule="nonzero" fill="rgb(0%, 0%, 0%)" fill-opacity="1" d="M 110.503906 167.371094 C 110.503906 167.097656 110.28125 166.875 110.007812 166.875 C 109.730469 166.875 109.507812 167.097656 109.507812 167.371094 C 109.507812 167.648438 109.730469 167.871094 110.007812 167.871094 C 110.28125 167.871094 110.503906 167.648438 110.503906 167.371094 Z M 110.503906 167.371094 "/>
<g clip-path="url(#clip-0)">
<path fill-rule="nonzero" fill="rgb(79.998779%, 79.998779%, 79.998779%)" fill-opacity="1" d="M 99.488281 192.457031 C 99.488281 188.566406 96.332031 185.414062 92.441406 185.414062 C 88.550781 185.414062 85.398438 188.566406 85.398438 192.457031 C 85.398438 196.347656 88.550781 199.503906 92.441406 199.503906 C 96.332031 199.503906 99.488281 196.347656 99.488281 192.457031 Z M 99.488281 192.457031 "/>
</g>
<g clip-path="url(#clip-1)">
<path fill="none" stroke-width="0.3985" stroke-linecap="butt" stroke-linejoin="miter" stroke="rgb(0%, 0%, 0%)" stroke-opacity="1" stroke-miterlimit="10" d="M 7.046281 0.00096875 C 7.046281 3.891594 3.890031 7.043937 -0.00059375 7.043937 C -3.891219 7.043937 -7.043563 3.891594 -7.043563 0.00096875 C -7.043563 -3.889656 -3.891219 -7.045906 -0.00059375 -7.045906 C 3.890031 -7.045906 7.046281 -3.889656 7.046281 0.00096875 Z M 7.046281 0.00096875 " transform="matrix(1, 0, 0, -1, 92.442, 192.458)"/>
</g>
<g clip-path="url(#clip-2)">
<path fill-rule="nonzero" fill="rgb(79.998779%, 79.998779%, 79.998779%)" fill-opacity="1" d="M 134.617188 192.457031 C 134.617188 188.566406 131.460938 185.414062 127.570312 185.414062 C 123.679688 185.414062 120.523438 188.566406 120.523438 192.457031 C 120.523438 196.347656 123.679688 199.503906 127.570312 199.503906 C 131.460938 199.503906 134.617188 196.347656 134.617188 192.457031 Z M 134.617188 192.457031 "/>
</g>
<g clip-path="url(#clip-3)">
<path fill="none" stroke-width="0.3985" stroke-linecap="butt" stroke-linejoin="miter" stroke="rgb(0%, 0%, 0%)" stroke-opacity="1" stroke-miterlimit="10" d="M 7.047188 0.00096875 C 7.047188 3.891594 3.890938 7.043937 0.0003125 7.043937 C -3.890312 7.043937 -7.046562 3.891594 -7.046562 0.00096875 C -7.046562 -3.889656 -3.890312 -7.045906 0.0003125 -7.045906 C 3.890938 -7.045906 7.047188 -3.889656 7.047188 0.00096875 Z M 7.047188 0.00096875 " transform="matrix(1, 0, 0, -1, 127.57, 192.458)"/>
</g>
<path fill-rule="nonzero" fill="rgb(0%, 0%, 0%)" fill-opacity="1" d="M 119.058594 96.734375 C 119.058594 96.460938 118.835938 96.238281 118.558594 96.238281 C 118.285156 96.238281 118.0625 96.460938 118.0625 96.734375 C 118.0625 97.011719 118.285156 97.234375 118.558594 97.234375 C 118.835938 97.234375 119.058594 97.011719 119.058594 96.734375 Z M 119.058594 96.734375 "/>
<path fill-rule="nonzero" fill="rgb(79.998779%, 79.998779%, 79.998779%)" fill-opacity="1" stroke-width="0.3985" stroke-linecap="butt" stroke-linejoin="miter" stroke="rgb(0%, 0%, 0%)" stroke-opacity="1" stroke-miterlimit="10" d="M 7.044062 -0.0003125 C 7.044062 3.890312 3.891719 7.046562 0.00109375 7.046562 C -3.889531 7.046562 -7.045781 3.890312 -7.045781 -0.0003125 C -7.045781 -3.890938 -3.889531 -7.047188 0.00109375 -7.047188 C 3.891719 -7.047188 7.044062 -3.890938 7.044062 -0.0003125 Z M 7.044062 -0.0003125 " transform="matrix(1, 0, 0, -1, 100.995, 121.82)"/>
<path fill-rule="nonzero" fill="rgb(79.998779%, 79.998779%, 79.998779%)" fill-opacity="1" d="M 143.167969 121.820312 C 143.167969 117.929688 140.015625 114.773438 136.121094 114.773438 C 132.230469 114.773438 129.078125 117.929688 129.078125 121.820312 C 129.078125 125.710938 132.230469 128.867188 136.121094 128.867188 C 140.015625 128.867188 143.167969 125.710938 143.167969 121.820312 Z M 143.167969 121.820312 "/>
<g clip-path="url(#clip-4)">
<path fill="none" stroke-width="0.3985" stroke-linecap="butt" stroke-linejoin="miter" stroke="rgb(0%, 0%, 0%)" stroke-opacity="1" stroke-miterlimit="10" d="M 7.044969 -0.0003125 C 7.044969 3.890312 3.892625 7.046562 -0.00190625 7.046562 C -3.892531 7.046562 -7.044875 3.890312 -7.044875 -0.0003125 C -7.044875 -3.890938 -3.892531 -7.047188 -0.00190625 -7.047188 C 3.892625 -7.047188 7.044969 -3.890938 7.044969 -0.0003125 Z M 7.044969 -0.0003125 " transform="matrix(1, 0, 0, -1, 136.123, 121.82)"/>
</g>
<path fill="none" stroke-width="0.3985" stroke-linecap="butt" stroke-linejoin="miter" stroke="rgb(0%, 0%, 0%)" stroke-opacity="1" stroke-miterlimit="10" d="M -1.729687 -2.471063 L -15.034375 -21.471063 " transform="matrix(1, 0, 0, -1, 52.8, 2.818)"/>
<path fill="none" stroke-width="0.3985" stroke-linecap="butt" stroke-linejoin="miter" stroke="rgb(0%, 0%, 0%)" stroke-opacity="1" stroke-miterlimit="10" d="M 1.73125 -2.471063 L 18.789844 -26.834344 " transform="matrix(1, 0, 0, -1, 52.8, 2.818)"/>
<path fill="none" stroke-width="0.3985" stroke-linecap="butt" stroke-linejoin="miter" stroke="rgb(0%, 0%, 0%)" stroke-opacity="1" stroke-miterlimit="10" d="M 18.789844 -27.974969 L 5.778125 -46.557 " transform="matrix(1, 0, 0, -1, 52.8, 2.818)"/>
<path fill="none" stroke-width="0.3985" stroke-linecap="butt" stroke-linejoin="miter" stroke="rgb(0%, 0%, 0%)" stroke-opacity="1" stroke-miterlimit="10" d="M 19.590625 -27.974969 L 36.352344 -51.920281 " transform="matrix(1, 0, 0, -1, 52.8, 2.818)"/>
<path fill="none" stroke-width="0.3985" stroke-linecap="butt" stroke-linejoin="miter" stroke="rgb(0%, 0%, 0%)" stroke-opacity="1" stroke-miterlimit="10" d="M 36.352344 -53.060906 L 8.145313 -93.346063 " transform="matrix(1, 0, 0, -1, 52.8, 2.818)"/>
<path fill="none" stroke-width="0.3985" stroke-linecap="butt" stroke-linejoin="miter" stroke="rgb(0%, 0%, 0%)" stroke-opacity="1" stroke-miterlimit="10" d="M 7.348438 -94.490594 L -23.749219 -138.90075 " transform="matrix(1, 0, 0, -1, 52.8, 2.818)"/>
<path fill="none" stroke-width="0.3985" stroke-linecap="butt" stroke-linejoin="miter" stroke="rgb(0%, 0%, 0%)" stroke-opacity="1" stroke-miterlimit="10" d="M -24.55 -140.041375 L -37.557812 -158.623406 " transform="matrix(1, 0, 0, -1, 52.8, 2.818)"/>
<path fill="none" stroke-width="0.3985" stroke-linecap="butt" stroke-linejoin="miter" stroke="rgb(0%, 0%, 0%)" stroke-opacity="1" stroke-miterlimit="10" d="M -23.749219 -140.041375 L -10.741406 -158.623406 " transform="matrix(1, 0, 0, -1, 52.8, 2.818)"/>
<path fill="none" stroke-width="0.3985" stroke-linecap="butt" stroke-linejoin="miter" stroke="rgb(0%, 0%, 0%)" stroke-opacity="1" stroke-miterlimit="10" d="M 8.145313 -94.490594 L 39.242969 -138.90075 " transform="matrix(1, 0, 0, -1, 52.8, 2.818)"/>
<path fill="none" stroke-width="0.3985" stroke-linecap="butt" stroke-linejoin="miter" stroke="rgb(0%, 0%, 0%)" stroke-opacity="1" stroke-miterlimit="10" d="M 39.242969 -140.041375 L 26.235156 -158.623406 " transform="matrix(1, 0, 0, -1, 52.8, 2.818)"/>
<path fill="none" stroke-width="0.3985" stroke-linecap="butt" stroke-linejoin="miter" stroke="rgb(0%, 0%, 0%)" stroke-opacity="1" stroke-miterlimit="10" d="M 40.04375 -140.041375 L 56.805469 -163.986688 " transform="matrix(1, 0, 0, -1, 52.8, 2.818)"/>
<path fill="none" stroke-width="0.3985" stroke-linecap="butt" stroke-linejoin="miter" stroke="rgb(0%, 0%, 0%)" stroke-opacity="1" stroke-miterlimit="10" d="M 56.805469 -165.127313 L 43.797656 -183.709344 " transform="matrix(1, 0, 0, -1, 52.8, 2.818)"/>
<path fill="none" stroke-width="0.3985" stroke-linecap="butt" stroke-linejoin="miter" stroke="rgb(0%, 0%, 0%)" stroke-opacity="1" stroke-miterlimit="10" d="M 57.60625 -165.127313 L 70.617969 -183.709344 " transform="matrix(1, 0, 0, -1, 52.8, 2.818)"/>
<path fill="none" stroke-width="0.3985" stroke-linecap="butt" stroke-linejoin="miter" stroke="rgb(0%, 0%, 0%)" stroke-opacity="1" stroke-miterlimit="10" d="M 37.153125 -53.060906 L 65.360156 -93.346063 " transform="matrix(1, 0, 0, -1, 52.8, 2.818)"/>
<path fill="none" stroke-width="0.3985" stroke-linecap="butt" stroke-linejoin="miter" stroke="rgb(0%, 0%, 0%)" stroke-opacity="1" stroke-miterlimit="10" d="M 65.360156 -94.490594 L 52.352344 -113.068719 " transform="matrix(1, 0, 0, -1, 52.8, 2.818)"/>
<path fill="none" stroke-width="0.3985" stroke-linecap="butt" stroke-linejoin="miter" stroke="rgb(0%, 0%, 0%)" stroke-opacity="1" stroke-miterlimit="10" d="M 66.160938 -94.490594 L 79.16875 -113.068719 " transform="matrix(1, 0, 0, -1, 52.8, 2.818)"/>
</svg>
