<?xml version="1.0" encoding="UTF-8"?>
<svg xmlns="http://www.w3.org/2000/svg" xmlns:xlink="http://www.w3.org/1999/xlink" width="161.886" height="163.555" viewBox="0 0 161.886 163.555">
<defs>
<clipPath id="clip-0">
<path clip-rule="nonzero" d="M 30 149 L 45 149 L 45 163.554688 L 30 163.554688 Z M 30 149 "/>
</clipPath>
<clipPath id="clip-1">
<path clip-rule="nonzero" d="M 24 143 L 50 143 L 50 163.554688 L 24 163.554688 Z M 24 143 "/>
</clipPath>
<clipPath id="clip-2">
<path clip-rule="nonzero" d="M 65 149 L 80 149 L 80 163.554688 L 65 163.554688 Z M 65 149 "/>
</clipPath>
<clipPath id="clip-3">
<path clip-rule="nonzero" d="M 59 143 L 86 143 L 86 163.554688 L 59 163.554688 Z M 59 143 "/>
</clipPath>
<clipPath id="clip-4">
<path clip-rule="nonzero" d="M 93 149 L 109 149 L 109 163.554688 L 93 163.554688 Z M 93 149 "/>
</clipPath>
<clipPath id="clip-5">
<path clip-rule="nonzero" d="M 88 143 L 114 143 L 114 163.554688 L 88 163.554688 Z M 88 143 "/>
</clipPath>
<clipPath id="clip-6">
<path clip-rule="nonzero" d="M 129 149 L 144 149 L 144 163.554688 L 129 163.554688 Z M 129 149 "/>
</clipPath>
<clipPath id="clip-7">
<path clip-rule="nonzero" d="M 123 143 L 149 143 L 149 163.554688 L 123 163.554688 Z M 123 143 "/>
</clipPath>
<clipPath id="clip-8">
<path clip-rule="nonzero" d="M 138 81 L 161.886719 81 L 161.886719 108 L 138 108 Z M 138 81 "/>
</clipPath>
</defs>
<path fill-rule="nonzero" fill="rgb(0%, 0%, 0%)" fill-opacity="1" d="M 89.480469 2.816406 C 89.480469 1.261719 88.21875 0 86.664062 0 C 85.109375 0 83.847656 1.261719 83.847656 2.816406 C 83.847656 4.375 85.109375 5.636719 86.664062 5.636719 C 88.21875 5.636719 89.480469 4.375 89.480469 2.816406 Z M 89.480469 2.816406 "/>
<path fill-rule="nonzero" fill="rgb(0%, 0%, 0%)" fill-opacity="1" d="M 58.15625 44.246094 C 58.15625 43.972656 57.933594 43.746094 57.65625 43.746094 C 57.382812 43.746094 57.160156 43.972656 57.160156 44.246094 C 57.160156 44.519531 57.382812 44.742188 57.65625 44.742188 C 57.933594 44.742188 58.15625 44.519531 58.15625 44.246094 Z M 58.15625 44.246094 "/>
<path fill-rule="nonzero" fill="rgb(0%, 0%, 0%)" fill-opacity="1" d="M 29.148438 85.671875 C 29.148438 85.398438 28.925781 85.175781 28.652344 85.175781 C 28.375 85.175781 28.152344 85.398438 28.152344 85.671875 C 28.152344 85.945312 28.375 86.171875 28.652344 86.171875 C 28.925781 86.171875 29.148438 85.945312 29.148438 85.671875 Z M 29.148438 85.671875 "/>
<path fill-rule="nonzero" fill="rgb(79.998779%, 79.998779%, 79.998779%)" fill-opacity="1" stroke-width="0.3985" stroke-linecap="butt" stroke-linejoin="miter" stroke="rgb(0%, 0%, 0%)" stroke-opacity="1" stroke-miterlimit="10" d="M 7.045812 -0.0008125 C 7.045812 3.889813 3.889562 7.046063 -0.0010625 7.046063 C -3.891688 7.046063 -7.044031 3.889813 -7.044031 -0.0008125 C -7.044031 -3.891437 -3.891688 -7.043781 -0.0010625 -7.043781 C 3.889562 -7.043781 7.045812 -3.891437 7.045812 -0.0008125 Z M 7.045812 -0.0008125 " transform="matrix(1, 0, 0, -1, 11.087, 110.757)"/>
<path fill-rule="nonzero" fill="rgb(79.998779%, 79.998779%, 79.998779%)" fill-opacity="1" stroke-width="0.3985" stroke-linecap="butt" stroke-linejoin="miter" stroke="rgb(0%, 0%, 0%)" stroke-opacity="1" stroke-miterlimit="10" d="M 7.046719 -0.0008125 C 7.046719 3.889813 3.890469 7.046063 -0.00015625 7.046063 C -3.890781 7.046063 -7.047031 3.889813 -7.047031 -0.0008125 C -7.047031 -3.891437 -3.890781 -7.043781 -0.00015625 -7.043781 C 3.890469 -7.043781 7.046719 -3.891437 7.046719 -0.0008125 Z M 7.046719 -0.0008125 " transform="matrix(1, 0, 0, -1, 46.215, 110.757)"/>
<path fill-rule="nonzero" fill="rgb(0%, 0%, 0%)" fill-opacity="1" d="M 87.160156 85.671875 C 87.160156 85.398438 86.9375 85.175781 86.664062 85.175781 C 86.386719 85.175781 86.164062 85.398438 86.164062 85.671875 C 86.164062 85.945312 86.386719 86.171875 86.664062 86.171875 C 86.9375 86.171875 87.160156 85.945312 87.160156 85.671875 Z M 87.160156 85.671875 "/>
<path fill-rule="nonzero" fill="rgb(0%, 0%, 0%)" fill-opacity="1" d="M 55.265625 131.226562 C 55.265625 130.949219 55.042969 130.726562 54.769531 130.726562 C 54.492188 130.726562 54.269531 130.949219 54.269531 131.226562 C 54.269531 131.5 54.492188 131.722656 54.769531 131.722656 C 55.042969 131.722656 55.265625 131.5 55.265625 131.226562 Z M 55.265625 131.226562 "/>
<g clip-path="url(#clip-0)">
<path fill-rule="nonzero" fill="rgb(79.998779%, 79.998779%, 79.998779%)" fill-opacity="1" d="M 44.25 156.308594 C 44.25 152.417969 41.09375 149.265625 37.203125 149.265625 C 33.3125 149.265625 30.160156 152.417969 30.160156 156.308594 C 30.160156 160.199219 33.3125 163.355469 37.203125 163.355469 C 41.09375 163.355469 44.25 160.199219 44.25 156.308594 Z M 44.25 156.308594 "/>
</g>
<g clip-path="url(#clip-1)">
<path fill="none" stroke-width="0.3985" stroke-linecap="butt" stroke-linejoin="miter" stroke="rgb(0%, 0%, 0%)" stroke-opacity="1" stroke-miterlimit="10" d="M 7.046 0.00140625 C 7.046 3.892031 3.88975 7.044375 -0.000875 7.044375 C -3.8915 7.044375 -7.043844 3.892031 -7.043844 0.00140625 C -7.043844 -3.889219 -3.8915 -7.045469 -0.000875 -7.045469 C 3.88975 -7.045469 7.046 -3.889219 7.046 0.00140625 Z M 7.046 0.00140625 " transform="matrix(1, 0, 0, -1, 37.204, 156.31)"/>
</g>
<g clip-path="url(#clip-2)">
<path fill-rule="nonzero" fill="rgb(79.998779%, 79.998779%, 79.998779%)" fill-opacity="1" d="M 79.378906 156.308594 C 79.378906 152.417969 76.222656 149.265625 72.332031 149.265625 C 68.441406 149.265625 65.285156 152.417969 65.285156 156.308594 C 65.285156 160.199219 68.441406 163.355469 72.332031 163.355469 C 76.222656 163.355469 79.378906 160.199219 79.378906 156.308594 Z M 79.378906 156.308594 "/>
</g>
<g clip-path="url(#clip-3)">
<path fill="none" stroke-width="0.3985" stroke-linecap="butt" stroke-linejoin="miter" stroke="rgb(0%, 0%, 0%)" stroke-opacity="1" stroke-miterlimit="10" d="M 7.046906 0.00140625 C 7.046906 3.892031 3.890656 7.044375 0.00003125 7.044375 C -3.890594 7.044375 -7.046844 3.892031 -7.046844 0.00140625 C -7.046844 -3.889219 -3.890594 -7.045469 0.00003125 -7.045469 C 3.890656 -7.045469 7.046906 -3.889219 7.046906 0.00140625 Z M 7.046906 0.00140625 " transform="matrix(1, 0, 0, -1, 72.332, 156.31)"/>
</g>
<path fill-rule="nonzero" fill="rgb(0%, 0%, 0%)" fill-opacity="1" d="M 119.054688 131.226562 C 119.054688 130.949219 118.832031 130.726562 118.558594 130.726562 C 118.28125 130.726562 118.058594 130.949219 118.058594 131.226562 C 118.058594 131.5 118.28125 131.722656 118.558594 131.722656 C 118.832031 131.722656 119.054688 131.5 119.054688 131.226562 Z M 119.054688 131.226562 "/>
<g clip-path="url(#clip-4)">
<path fill-rule="nonzero" fill="rgb(79.998779%, 79.998779%, 79.998779%)" fill-opacity="1" d="M 108.039062 156.308594 C 108.039062 152.417969 104.886719 149.265625 100.992188 149.265625 C 97.101562 149.265625 93.949219 152.417969 93.949219 156.308594 C 93.949219 160.199219 97.101562 163.355469 100.992188 163.355469 C 104.886719 163.355469 108.039062 160.199219 108.039062 156.308594 Z M 108.039062 156.308594 "/>
</g>
<g clip-path="url(#clip-5)">
<path fill="none" stroke-width="0.3985" stroke-linecap="butt" stroke-linejoin="miter" stroke="rgb(0%, 0%, 0%)" stroke-opacity="1" stroke-miterlimit="10" d="M 7.045063 0.00140625 C 7.045063 3.892031 3.892719 7.044375 -0.0018125 7.044375 C -3.892437 7.044375 -7.044781 3.892031 -7.044781 0.00140625 C -7.044781 -3.889219 -3.892437 -7.045469 -0.0018125 -7.045469 C 3.892719 -7.045469 7.045063 -3.889219 7.045063 0.00140625 Z M 7.045063 0.00140625 " transform="matrix(1, 0, 0, -1, 100.994, 156.31)"/>
</g>
<g clip-path="url(#clip-6)">
<path fill-rule="nonzero" fill="rgb(79.998779%, 79.998779%, 79.998779%)" fill-opacity="1" d="M 143.167969 156.308594 C 143.167969 152.417969 140.015625 149.265625 136.121094 149.265625 C 132.230469 149.265625 129.078125 152.417969 129.078125 156.308594 C 129.078125 160.199219 132.230469 163.355469 136.121094 163.355469 C 140.015625 163.355469 143.167969 160.199219 143.167969 156.308594 Z M 143.167969 156.308594 "/>
</g>
<g clip-path="url(#clip-7)">
<path fill="none" stroke-width="0.3985" stroke-linecap="butt" stroke-linejoin="miter" stroke="rgb(0%, 0%, 0%)" stroke-opacity="1" stroke-miterlimit="10" d="M 7.044969 0.00140625 C 7.044969 3.892031 3.892625 7.044375 -0.00190625 7.044375 C -3.892531 7.044375 -7.044875 3.892031 -7.044875 0.00140625 C -7.044875 -3.889219 -3.892531 -7.045469 -0.00190625 -7.045469 C 3.892625 -7.045469 7.044969 -3.889219 7.044969 0.00140625 Z M 7.044969 0.00140625 " transform="matrix(1, 0, 0, -1, 136.123, 156.31)"/>
</g>
<path fill-rule="nonzero" fill="rgb(0%, 0%, 0%)" fill-opacity="1" d="M 116.167969 44.246094 C 116.167969 43.972656 115.945312 43.746094 115.671875 43.746094 C 115.394531 43.746094 115.171875 43.972656 115.171875 44.246094 C 115.171875 44.519531 115.394531 44.742188 115.671875 44.742188 C 115.945312 44.742188 116.167969 44.519531 116.167969 44.246094 Z M 116.167969 44.246094 "/>
<path fill-rule="nonzero" fill="rgb(79.998779%, 79.998779%, 79.998779%)" fill-opacity="1" stroke-width="0.3985" stroke-linecap="butt" stroke-linejoin="miter" stroke="rgb(0%, 0%, 0%)" stroke-opacity="1" stroke-miterlimit="10" d="M 7.045344 -0.00103125 C 7.045344 3.889594 3.893 7.045844 -0.00153125 7.045844 C -3.892156 7.045844 -7.0445 3.889594 -7.0445 -0.00103125 C -7.0445 -3.891656 -3.892156 -7.044 -0.00153125 -7.044 C 3.893 -7.044 7.045344 -3.891656 7.045344 -0.00103125 Z M 7.045344 -0.00103125 " transform="matrix(1, 0, 0, -1, 98.107, 69.331)"/>
<path fill-rule="nonzero" fill="rgb(0%, 0%, 0%)" fill-opacity="1" d="M 133.734375 69.332031 C 133.734375 69.054688 133.511719 68.832031 133.234375 68.832031 C 132.960938 68.832031 132.738281 69.054688 132.738281 69.332031 C 132.738281 69.605469 132.960938 69.828125 133.234375 69.828125 C 133.511719 69.828125 133.734375 69.605469 133.734375 69.332031 Z M 133.734375 69.332031 "/>
<path fill-rule="nonzero" fill="rgb(79.998779%, 79.998779%, 79.998779%)" fill-opacity="1" stroke-width="0.3985" stroke-linecap="butt" stroke-linejoin="miter" stroke="rgb(0%, 0%, 0%)" stroke-opacity="1" stroke-miterlimit="10" d="M 7.043844 0.0019375 C 7.043844 3.892563 3.8915 7.044906 0.000875 7.044906 C -3.88975 7.044906 -7.046 3.892563 -7.046 0.0019375 C -7.046 -3.892594 -3.88975 -7.044937 0.000875 -7.044937 C 3.8915 -7.044937 7.043844 -3.892594 7.043844 0.0019375 Z M 7.043844 0.0019375 " transform="matrix(1, 0, 0, -1, 115.671, 94.416)"/>
<path fill-rule="nonzero" fill="rgb(79.998779%, 79.998779%, 79.998779%)" fill-opacity="1" d="M 157.84375 94.414062 C 157.84375 90.523438 154.691406 87.371094 150.800781 87.371094 C 146.90625 87.371094 143.753906 90.523438 143.753906 94.414062 C 143.753906 98.308594 146.90625 101.460938 150.800781 101.460938 C 154.691406 101.460938 157.84375 98.308594 157.84375 94.414062 Z M 157.84375 94.414062 "/>
<g clip-path="url(#clip-8)">
<path fill="none" stroke-width="0.3985" stroke-linecap="butt" stroke-linejoin="miter" stroke="rgb(0%, 0%, 0%)" stroke-opacity="1" stroke-miterlimit="10" d="M 7.04475 0.0019375 C 7.04475 3.892563 3.892406 7.044906 0.00178125 7.044906 C -3.89275 7.044906 -7.045094 3.892563 -7.045094 0.0019375 C -7.045094 -3.892594 -3.89275 -7.044937 0.00178125 -7.044937 C 3.892406 -7.044937 7.04475 -3.892594 7.04475 0.0019375 Z M 7.04475 0.0019375 " transform="matrix(1, 0, 0, -1, 150.799, 94.416)"/>
</g>
<path fill="none" stroke-width="0.3985" stroke-linecap="butt" stroke-linejoin="miter" stroke="rgb(0%, 0%, 0%)" stroke-opacity="1" stroke-miterlimit="10" d="M -1.730406 -2.471062 L -28.605406 -40.857781 " transform="matrix(1, 0, 0, -1, 86.664, 2.818)"/>
<path fill="none" stroke-width="0.3985" stroke-linecap="butt" stroke-linejoin="miter" stroke="rgb(0%, 0%, 0%)" stroke-opacity="1" stroke-miterlimit="10" d="M -29.406188 -41.998406 L -57.613219 -82.283562 " transform="matrix(1, 0, 0, -1, 86.664, 2.818)"/>
<path fill="none" stroke-width="0.3985" stroke-linecap="butt" stroke-linejoin="miter" stroke="rgb(0%, 0%, 0%)" stroke-opacity="1" stroke-miterlimit="10" d="M -58.414 -83.428094 L -71.421813 -102.006219 " transform="matrix(1, 0, 0, -1, 86.664, 2.818)"/>
<path fill="none" stroke-width="0.3985" stroke-linecap="butt" stroke-linejoin="miter" stroke="rgb(0%, 0%, 0%)" stroke-opacity="1" stroke-miterlimit="10" d="M -57.613219 -83.428094 L -44.605406 -102.006219 " transform="matrix(1, 0, 0, -1, 86.664, 2.818)"/>
<path fill="none" stroke-width="0.3985" stroke-linecap="butt" stroke-linejoin="miter" stroke="rgb(0%, 0%, 0%)" stroke-opacity="1" stroke-miterlimit="10" d="M -28.605406 -41.998406 L -0.402281 -82.283562 " transform="matrix(1, 0, 0, -1, 86.664, 2.818)"/>
<path fill="none" stroke-width="0.3985" stroke-linecap="butt" stroke-linejoin="miter" stroke="rgb(0%, 0%, 0%)" stroke-opacity="1" stroke-miterlimit="10" d="M -0.402281 -83.428094 L -31.496031 -127.83825 " transform="matrix(1, 0, 0, -1, 86.664, 2.818)"/>
<path fill="none" stroke-width="0.3985" stroke-linecap="butt" stroke-linejoin="miter" stroke="rgb(0%, 0%, 0%)" stroke-opacity="1" stroke-miterlimit="10" d="M -32.296813 -128.978875 L -45.304625 -147.560906 " transform="matrix(1, 0, 0, -1, 86.664, 2.818)"/>
<path fill="none" stroke-width="0.3985" stroke-linecap="butt" stroke-linejoin="miter" stroke="rgb(0%, 0%, 0%)" stroke-opacity="1" stroke-miterlimit="10" d="M -31.496031 -128.978875 L -18.488219 -147.560906 " transform="matrix(1, 0, 0, -1, 86.664, 2.818)"/>
<path fill="none" stroke-width="0.3985" stroke-linecap="butt" stroke-linejoin="miter" stroke="rgb(0%, 0%, 0%)" stroke-opacity="1" stroke-miterlimit="10" d="M 0.3985 -83.428094 L 31.496156 -127.83825 " transform="matrix(1, 0, 0, -1, 86.664, 2.818)"/>
<path fill="none" stroke-width="0.3985" stroke-linecap="butt" stroke-linejoin="miter" stroke="rgb(0%, 0%, 0%)" stroke-opacity="1" stroke-miterlimit="10" d="M 31.496156 -128.978875 L 18.484437 -147.560906 " transform="matrix(1, 0, 0, -1, 86.664, 2.818)"/>
<path fill="none" stroke-width="0.3985" stroke-linecap="butt" stroke-linejoin="miter" stroke="rgb(0%, 0%, 0%)" stroke-opacity="1" stroke-miterlimit="10" d="M 32.293031 -128.978875 L 45.30475 -147.560906 " transform="matrix(1, 0, 0, -1, 86.664, 2.818)"/>
<path fill="none" stroke-width="0.3985" stroke-linecap="butt" stroke-linejoin="miter" stroke="rgb(0%, 0%, 0%)" stroke-opacity="1" stroke-miterlimit="10" d="M 1.730531 -2.471062 L 28.605531 -40.857781 " transform="matrix(1, 0, 0, -1, 86.664, 2.818)"/>
<path fill="none" stroke-width="0.3985" stroke-linecap="butt" stroke-linejoin="miter" stroke="rgb(0%, 0%, 0%)" stroke-opacity="1" stroke-miterlimit="10" d="M 28.605531 -41.998406 L 15.597719 -60.580437 " transform="matrix(1, 0, 0, -1, 86.664, 2.818)"/>
<path fill="none" stroke-width="0.3985" stroke-linecap="butt" stroke-linejoin="miter" stroke="rgb(0%, 0%, 0%)" stroke-opacity="1" stroke-miterlimit="10" d="M 29.406312 -41.998406 L 46.171937 -65.943719 " transform="matrix(1, 0, 0, -1, 86.664, 2.818)"/>
<path fill="none" stroke-width="0.3985" stroke-linecap="butt" stroke-linejoin="miter" stroke="rgb(0%, 0%, 0%)" stroke-opacity="1" stroke-miterlimit="10" d="M 46.171937 -67.084344 L 33.160219 -85.666375 " transform="matrix(1, 0, 0, -1, 86.664, 2.818)"/>
<path fill="none" stroke-width="0.3985" stroke-linecap="butt" stroke-linejoin="miter" stroke="rgb(0%, 0%, 0%)" stroke-opacity="1" stroke-miterlimit="10" d="M 46.972719 -67.084344 L 59.980531 -85.666375 " transform="matrix(1, 0, 0, -1, 86.664, 2.818)"/>
</svg>
