<?xml version="1.0" encoding="UTF-8"?>
<svg xmlns="http://www.w3.org/2000/svg" xmlns:xlink="http://www.w3.org/1999/xlink" width="132.879" height="179.235" viewBox="0 0 132.879 179.235">
<defs>
<clipPath id="clip-0">
<path clip-rule="nonzero" d="M 56 164 L 71 164 L 71 179.234375 L 56 179.234375 Z M 56 164 "/>
</clipPath>
<clipPath id="clip-1">
<path clip-rule="nonzero" d="M 51 159 L 77 159 L 77 179.234375 L 51 179.234375 Z M 51 159 "/>
</clipPath>
<clipPath id="clip-2">
<path clip-rule="nonzero" d="M 91 164 L 106 164 L 106 179.234375 L 91 179.234375 Z M 91 164 "/>
</clipPath>
<clipPath id="clip-3">
<path clip-rule="nonzero" d="M 86 159 L 112 159 L 112 179.234375 L 86 179.234375 Z M 86 159 "/>
</clipPath>
<clipPath id="clip-4">
<path clip-rule="nonzero" d="M 109 109 L 132.878906 109 L 132.878906 135 L 109 135 Z M 109 109 "/>
</clipPath>
</defs>
<path fill-rule="nonzero" fill="rgb(0%, 0%, 0%)" fill-opacity="1" d="M 41.285156 2.816406 C 41.285156 1.261719 40.023438 0 38.46875 0 C 36.914062 0 35.652344 1.261719 35.652344 2.816406 C 35.652344 4.375 36.914062 5.636719 38.46875 5.636719 C 40.023438 5.636719 41.285156 4.375 41.285156 2.816406 Z M 41.285156 2.816406 "/>
<path fill-rule="nonzero" fill="rgb(79.998779%, 79.998779%, 79.998779%)" fill-opacity="1" stroke-width="0.3985" stroke-linecap="butt" stroke-linejoin="miter" stroke="rgb(0%, 0%, 0%)" stroke-opacity="1" stroke-miterlimit="10" d="M 7.047125 0.00034375 C 7.047125 3.890969 3.890875 7.047219 0.00025 7.047219 C -3.890375 7.047219 -7.046625 3.890969 -7.046625 0.00034375 C -7.046625 -3.890281 -3.890375 -7.046531 0.00025 -7.046531 C 3.890875 -7.046531 7.047125 -3.890281 7.047125 0.00034375 Z M 7.047125 0.00034375 " transform="matrix(1, 0, 0, -1, 19.281, 30.223)"/>
<path fill-rule="nonzero" fill="rgb(0%, 0%, 0%)" fill-opacity="1" d="M 58.15625 30.222656 C 58.15625 29.949219 57.933594 29.726562 57.65625 29.726562 C 57.382812 29.726562 57.160156 29.949219 57.160156 30.222656 C 57.160156 30.5 57.382812 30.722656 57.65625 30.722656 C 57.933594 30.722656 58.15625 30.5 58.15625 30.222656 Z M 58.15625 30.222656 "/>
<path fill-rule="nonzero" fill="rgb(0%, 0%, 0%)" fill-opacity="1" d="M 29.148438 71.648438 C 29.148438 71.375 28.925781 71.152344 28.652344 71.152344 C 28.375 71.152344 28.152344 71.375 28.152344 71.648438 C 28.152344 71.925781 28.375 72.148438 28.652344 72.148438 C 28.925781 72.148438 29.148438 71.925781 29.148438 71.648438 Z M 29.148438 71.648438 "/>
<path fill-rule="nonzero" fill="rgb(79.998779%, 79.998779%, 79.998779%)" fill-opacity="1" stroke-width="0.3985" stroke-linecap="butt" stroke-linejoin="miter" stroke="rgb(0%, 0%, 0%)" stroke-opacity="1" stroke-miterlimit="10" d="M 7.045812 0.000625 C 7.045812 3.89125 3.889562 7.043594 -0.0010625 7.043594 C -3.891688 7.043594 -7.044031 3.89125 -7.044031 0.000625 C -7.044031 -3.89 -3.891688 -7.04625 -0.0010625 -7.04625 C 3.889562 -7.04625 7.045812 -3.89 7.045812 0.000625 Z M 7.045812 0.000625 " transform="matrix(1, 0, 0, -1, 11.087, 96.735)"/>
<path fill-rule="nonzero" fill="rgb(0%, 0%, 0%)" fill-opacity="1" d="M 46.714844 96.734375 C 46.714844 96.460938 46.488281 96.238281 46.214844 96.238281 C 45.941406 96.238281 45.71875 96.460938 45.71875 96.734375 C 45.71875 97.011719 45.941406 97.234375 46.214844 97.234375 C 46.488281 97.234375 46.714844 97.011719 46.714844 96.734375 Z M 46.714844 96.734375 "/>
<path fill-rule="nonzero" fill="rgb(79.998779%, 79.998779%, 79.998779%)" fill-opacity="1" stroke-width="0.3985" stroke-linecap="butt" stroke-linejoin="miter" stroke="rgb(0%, 0%, 0%)" stroke-opacity="1" stroke-miterlimit="10" d="M 7.044312 -0.0003125 C 7.044312 3.890312 3.891969 7.046562 0.00134375 7.046562 C -3.889281 7.046562 -7.045531 3.890312 -7.045531 -0.0003125 C -7.045531 -3.890938 -3.889281 -7.047188 0.00134375 -7.047188 C 3.891969 -7.047188 7.044312 -3.890938 7.044312 -0.0003125 Z M 7.044312 -0.0003125 " transform="matrix(1, 0, 0, -1, 28.651, 121.82)"/>
<path fill-rule="nonzero" fill="rgb(0%, 0%, 0%)" fill-opacity="1" d="M 64.277344 121.820312 C 64.277344 121.542969 64.054688 121.320312 63.777344 121.320312 C 63.503906 121.320312 63.28125 121.542969 63.28125 121.820312 C 63.28125 122.09375 63.503906 122.316406 63.777344 122.316406 C 64.054688 122.316406 64.277344 122.09375 64.277344 121.820312 Z M 64.277344 121.820312 "/>
<path fill-rule="nonzero" fill="rgb(79.998779%, 79.998779%, 79.998779%)" fill-opacity="1" stroke-width="0.3985" stroke-linecap="butt" stroke-linejoin="miter" stroke="rgb(0%, 0%, 0%)" stroke-opacity="1" stroke-miterlimit="10" d="M 7.046719 -0.00125 C 7.046719 3.889375 3.890469 7.045625 -0.00015625 7.045625 C -3.890781 7.045625 -7.047031 3.889375 -7.047031 -0.00125 C -7.047031 -3.891875 -3.890781 -7.044219 -0.00015625 -7.044219 C 3.890469 -7.044219 7.046719 -3.891875 7.046719 -0.00125 Z M 7.046719 -0.00125 " transform="matrix(1, 0, 0, -1, 46.215, 146.905)"/>
<path fill-rule="nonzero" fill="rgb(0%, 0%, 0%)" fill-opacity="1" d="M 81.839844 146.90625 C 81.839844 146.628906 81.617188 146.40625 81.34375 146.40625 C 81.066406 146.40625 80.84375 146.628906 80.84375 146.90625 C 80.84375 147.179688 81.066406 147.402344 81.34375 147.402344 C 81.617188 147.402344 81.839844 147.179688 81.839844 146.90625 Z M 81.839844 146.90625 "/>
<g clip-path="url(#clip-0)">
<path fill-rule="nonzero" fill="rgb(79.998779%, 79.998779%, 79.998779%)" fill-opacity="1" d="M 70.824219 171.988281 C 70.824219 168.097656 67.671875 164.945312 63.777344 164.945312 C 59.886719 164.945312 56.734375 168.097656 56.734375 171.988281 C 56.734375 175.882812 59.886719 179.035156 63.777344 179.035156 C 67.671875 179.035156 70.824219 175.882812 70.824219 171.988281 Z M 70.824219 171.988281 "/>
</g>
<g clip-path="url(#clip-1)">
<path fill="none" stroke-width="0.3985" stroke-linecap="butt" stroke-linejoin="miter" stroke="rgb(0%, 0%, 0%)" stroke-opacity="1" stroke-miterlimit="10" d="M 7.045219 0.00171875 C 7.045219 3.892344 3.892875 7.044687 -0.00165625 7.044687 C -3.892281 7.044687 -7.044625 3.892344 -7.044625 0.00171875 C -7.044625 -3.892813 -3.892281 -7.045156 -0.00165625 -7.045156 C 3.892875 -7.045156 7.045219 -3.892813 7.045219 0.00171875 Z M 7.045219 0.00171875 " transform="matrix(1, 0, 0, -1, 63.779, 171.99)"/>
</g>
<g clip-path="url(#clip-2)">
<path fill-rule="nonzero" fill="rgb(79.998779%, 79.998779%, 79.998779%)" fill-opacity="1" d="M 105.953125 171.988281 C 105.953125 168.097656 102.796875 164.945312 98.90625 164.945312 C 95.015625 164.945312 91.863281 168.097656 91.863281 171.988281 C 91.863281 175.882812 95.015625 179.035156 98.90625 179.035156 C 102.796875 179.035156 105.953125 175.882812 105.953125 171.988281 Z M 105.953125 171.988281 "/>
</g>
<g clip-path="url(#clip-3)">
<path fill="none" stroke-width="0.3985" stroke-linecap="butt" stroke-linejoin="miter" stroke="rgb(0%, 0%, 0%)" stroke-opacity="1" stroke-miterlimit="10" d="M 7.046125 0.00171875 C 7.046125 3.892344 3.889875 7.044687 -0.00075 7.044687 C -3.891375 7.044687 -7.043719 3.892344 -7.043719 0.00171875 C -7.043719 -3.892813 -3.891375 -7.045156 -0.00075 -7.045156 C 3.889875 -7.045156 7.046125 -3.892813 7.046125 0.00171875 Z M 7.046125 0.00171875 " transform="matrix(1, 0, 0, -1, 98.907, 171.99)"/>
</g>
<path fill-rule="nonzero" fill="rgb(0%, 0%, 0%)" fill-opacity="1" d="M 87.164062 71.648438 C 87.164062 71.375 86.9375 71.152344 86.664062 71.152344 C 86.390625 71.152344 86.164062 71.375 86.164062 71.648438 C 86.164062 71.925781 86.390625 72.148438 86.664062 72.148438 C 86.9375 72.148438 87.164062 71.925781 87.164062 71.648438 Z M 87.164062 71.648438 "/>
<path fill-rule="nonzero" fill="rgb(79.998779%, 79.998779%, 79.998779%)" fill-opacity="1" stroke-width="0.3985" stroke-linecap="butt" stroke-linejoin="miter" stroke="rgb(0%, 0%, 0%)" stroke-opacity="1" stroke-miterlimit="10" d="M 7.044531 0.000625 C 7.044531 3.89125 3.892187 7.043594 0.0015625 7.043594 C -3.892969 7.043594 -7.045313 3.89125 -7.045313 0.000625 C -7.045313 -3.89 -3.892969 -7.04625 0.0015625 -7.04625 C 3.892187 -7.04625 7.044531 -3.89 7.044531 0.000625 Z M 7.044531 0.000625 " transform="matrix(1, 0, 0, -1, 69.1, 96.735)"/>
<path fill-rule="nonzero" fill="rgb(0%, 0%, 0%)" fill-opacity="1" d="M 104.726562 96.734375 C 104.726562 96.460938 104.503906 96.238281 104.226562 96.238281 C 103.953125 96.238281 103.730469 96.460938 103.730469 96.734375 C 103.730469 97.011719 103.953125 97.234375 104.226562 97.234375 C 104.503906 97.234375 104.726562 97.011719 104.726562 96.734375 Z M 104.726562 96.734375 "/>
<path fill-rule="nonzero" fill="rgb(79.998779%, 79.998779%, 79.998779%)" fill-opacity="1" stroke-width="0.3985" stroke-linecap="butt" stroke-linejoin="miter" stroke="rgb(0%, 0%, 0%)" stroke-opacity="1" stroke-miterlimit="10" d="M 7.046937 -0.0003125 C 7.046937 3.890312 3.890687 7.046562 0.0000625 7.046562 C -3.890563 7.046562 -7.046813 3.890312 -7.046813 -0.0003125 C -7.046813 -3.890938 -3.890563 -7.047188 0.0000625 -7.047188 C 3.890687 -7.047188 7.046937 -3.890938 7.046937 -0.0003125 Z M 7.046937 -0.0003125 " transform="matrix(1, 0, 0, -1, 86.664, 121.82)"/>
<path fill-rule="nonzero" fill="rgb(79.998779%, 79.998779%, 79.998779%)" fill-opacity="1" d="M 128.835938 121.820312 C 128.835938 117.929688 125.683594 114.773438 121.792969 114.773438 C 117.902344 114.773438 114.746094 117.929688 114.746094 121.820312 C 114.746094 125.710938 117.902344 128.867188 121.792969 128.867188 C 125.683594 128.867188 128.835938 125.710938 128.835938 121.820312 Z M 128.835938 121.820312 "/>
<g clip-path="url(#clip-4)">
<path fill="none" stroke-width="0.3985" stroke-linecap="butt" stroke-linejoin="miter" stroke="rgb(0%, 0%, 0%)" stroke-opacity="1" stroke-miterlimit="10" d="M 7.043937 -0.0003125 C 7.043937 3.890312 3.891594 7.046562 0.00096875 7.046562 C -3.889656 7.046562 -7.045906 3.890312 -7.045906 -0.0003125 C -7.045906 -3.890938 -3.889656 -7.047188 0.00096875 -7.047188 C 3.891594 -7.047188 7.043937 -3.890938 7.043937 -0.0003125 Z M 7.043937 -0.0003125 " transform="matrix(1, 0, 0, -1, 121.792, 121.82)"/>
</g>
<path fill="none" stroke-width="0.3985" stroke-linecap="butt" stroke-linejoin="miter" stroke="rgb(0%, 0%, 0%)" stroke-opacity="1" stroke-miterlimit="10" d="M -1.730719 -2.471063 L -15.035406 -21.471063 " transform="matrix(1, 0, 0, -1, 38.469, 2.818)"/>
<path fill="none" stroke-width="0.3985" stroke-linecap="butt" stroke-linejoin="miter" stroke="rgb(0%, 0%, 0%)" stroke-opacity="1" stroke-miterlimit="10" d="M 1.730219 -2.471063 L 18.788812 -26.834344 " transform="matrix(1, 0, 0, -1, 38.469, 2.818)"/>
<path fill="none" stroke-width="0.3985" stroke-linecap="butt" stroke-linejoin="miter" stroke="rgb(0%, 0%, 0%)" stroke-opacity="1" stroke-miterlimit="10" d="M 18.788812 -27.974969 L -9.418219 -68.260125 " transform="matrix(1, 0, 0, -1, 38.469, 2.818)"/>
<path fill="none" stroke-width="0.3985" stroke-linecap="butt" stroke-linejoin="miter" stroke="rgb(0%, 0%, 0%)" stroke-opacity="1" stroke-miterlimit="10" d="M -10.219 -69.404656 L -23.226813 -87.982781 " transform="matrix(1, 0, 0, -1, 38.469, 2.818)"/>
<path fill="none" stroke-width="0.3985" stroke-linecap="butt" stroke-linejoin="miter" stroke="rgb(0%, 0%, 0%)" stroke-opacity="1" stroke-miterlimit="10" d="M -9.418219 -69.404656 L 7.347406 -93.346063 " transform="matrix(1, 0, 0, -1, 38.469, 2.818)"/>
<path fill="none" stroke-width="0.3985" stroke-linecap="butt" stroke-linejoin="miter" stroke="rgb(0%, 0%, 0%)" stroke-opacity="1" stroke-miterlimit="10" d="M 7.347406 -94.490594 L -5.664313 -113.068719 " transform="matrix(1, 0, 0, -1, 38.469, 2.818)"/>
<path fill="none" stroke-width="0.3985" stroke-linecap="butt" stroke-linejoin="miter" stroke="rgb(0%, 0%, 0%)" stroke-opacity="1" stroke-miterlimit="10" d="M 8.144281 -94.490594 L 24.909906 -118.432 " transform="matrix(1, 0, 0, -1, 38.469, 2.818)"/>
<path fill="none" stroke-width="0.3985" stroke-linecap="butt" stroke-linejoin="miter" stroke="rgb(0%, 0%, 0%)" stroke-opacity="1" stroke-miterlimit="10" d="M 24.909906 -119.576531 L 11.902094 -138.154656 " transform="matrix(1, 0, 0, -1, 38.469, 2.818)"/>
<path fill="none" stroke-width="0.3985" stroke-linecap="butt" stroke-linejoin="miter" stroke="rgb(0%, 0%, 0%)" stroke-opacity="1" stroke-miterlimit="10" d="M 25.710687 -119.576531 L 42.476312 -143.517938 " transform="matrix(1, 0, 0, -1, 38.469, 2.818)"/>
<path fill="none" stroke-width="0.3985" stroke-linecap="butt" stroke-linejoin="miter" stroke="rgb(0%, 0%, 0%)" stroke-opacity="1" stroke-miterlimit="10" d="M 42.476312 -144.662469 L 29.464594 -163.240594 " transform="matrix(1, 0, 0, -1, 38.469, 2.818)"/>
<path fill="none" stroke-width="0.3985" stroke-linecap="butt" stroke-linejoin="miter" stroke="rgb(0%, 0%, 0%)" stroke-opacity="1" stroke-miterlimit="10" d="M 43.273187 -144.662469 L 56.284906 -163.240594 " transform="matrix(1, 0, 0, -1, 38.469, 2.818)"/>
<path fill="none" stroke-width="0.3985" stroke-linecap="butt" stroke-linejoin="miter" stroke="rgb(0%, 0%, 0%)" stroke-opacity="1" stroke-miterlimit="10" d="M 19.589594 -27.974969 L 47.796625 -68.260125 " transform="matrix(1, 0, 0, -1, 38.469, 2.818)"/>
<path fill="none" stroke-width="0.3985" stroke-linecap="butt" stroke-linejoin="miter" stroke="rgb(0%, 0%, 0%)" stroke-opacity="1" stroke-miterlimit="10" d="M 47.796625 -69.404656 L 34.784906 -87.982781 " transform="matrix(1, 0, 0, -1, 38.469, 2.818)"/>
<path fill="none" stroke-width="0.3985" stroke-linecap="butt" stroke-linejoin="miter" stroke="rgb(0%, 0%, 0%)" stroke-opacity="1" stroke-miterlimit="10" d="M 48.5935 -69.404656 L 65.359125 -93.346063 " transform="matrix(1, 0, 0, -1, 38.469, 2.818)"/>
<path fill="none" stroke-width="0.3985" stroke-linecap="butt" stroke-linejoin="miter" stroke="rgb(0%, 0%, 0%)" stroke-opacity="1" stroke-miterlimit="10" d="M 65.359125 -94.490594 L 52.351312 -113.068719 " transform="matrix(1, 0, 0, -1, 38.469, 2.818)"/>
<path fill="none" stroke-width="0.3985" stroke-linecap="butt" stroke-linejoin="miter" stroke="rgb(0%, 0%, 0%)" stroke-opacity="1" stroke-miterlimit="10" d="M 66.159906 -94.490594 L 79.167719 -113.068719 " transform="matrix(1, 0, 0, -1, 38.469, 2.818)"/>
</svg>
