<?xml version="1.0" encoding="UTF-8"?>
<svg xmlns="http://www.w3.org/2000/svg" xmlns:xlink="http://www.w3.org/1999/xlink" width="248.675" height="171.807" viewBox="0 0 248.675 171.807">
<defs>
<clipPath id="clip-0">
<path clip-rule="nonzero" d="M 4 157 L 19 157 L 19 171.808594 L 4 171.808594 Z M 4 157 "/>
</clipPath>
<clipPath id="clip-1">
<path clip-rule="nonzero" d="M 0 151 L 24 151 L 24 171.808594 L 0 171.808594 Z M 0 151 "/>
</clipPath>
<clipPath id="clip-2">
<path clip-rule="nonzero" d="M 39 157 L 54 157 L 54 171.808594 L 39 171.808594 Z M 39 157 "/>
</clipPath>
<clipPath id="clip-3">
<path clip-rule="nonzero" d="M 33 151 L 59 151 L 59 171.808594 L 33 171.808594 Z M 33 151 "/>
</clipPath>
<clipPath id="clip-4">
<path clip-rule="nonzero" d="M 67 157 L 82 157 L 82 171.808594 L 67 171.808594 Z M 67 157 "/>
</clipPath>
<clipPath id="clip-5">
<path clip-rule="nonzero" d="M 62 151 L 88 151 L 88 171.808594 L 62 171.808594 Z M 62 151 "/>
</clipPath>
<clipPath id="clip-6">
<path clip-rule="nonzero" d="M 102 157 L 118 157 L 118 171.808594 L 102 171.808594 Z M 102 157 "/>
</clipPath>
<clipPath id="clip-7">
<path clip-rule="nonzero" d="M 97 151 L 123 151 L 123 171.808594 L 97 171.808594 Z M 97 151 "/>
</clipPath>
<clipPath id="clip-8">
<path clip-rule="nonzero" d="M 131 157 L 146 157 L 146 171.808594 L 131 171.808594 Z M 131 157 "/>
</clipPath>
<clipPath id="clip-9">
<path clip-rule="nonzero" d="M 125 151 L 152 151 L 152 171.808594 L 125 171.808594 Z M 125 151 "/>
</clipPath>
<clipPath id="clip-10">
<path clip-rule="nonzero" d="M 166 157 L 181 157 L 181 171.808594 L 166 171.808594 Z M 166 157 "/>
</clipPath>
<clipPath id="clip-11">
<path clip-rule="nonzero" d="M 161 151 L 187 151 L 187 171.808594 L 161 171.808594 Z M 161 151 "/>
</clipPath>
<clipPath id="clip-12">
<path clip-rule="nonzero" d="M 195 157 L 210 157 L 210 171.808594 L 195 171.808594 Z M 195 157 "/>
</clipPath>
<clipPath id="clip-13">
<path clip-rule="nonzero" d="M 189 151 L 216 151 L 216 171.808594 L 189 171.808594 Z M 189 151 "/>
</clipPath>
<clipPath id="clip-14">
<path clip-rule="nonzero" d="M 230 157 L 245 157 L 245 171.808594 L 230 171.808594 Z M 230 157 "/>
</clipPath>
<clipPath id="clip-15">
<path clip-rule="nonzero" d="M 224 151 L 248.675781 151 L 248.675781 171.808594 L 224 171.808594 Z M 224 151 "/>
</clipPath>
</defs>
<path fill-rule="nonzero" fill="rgb(0%, 0%, 0%)" fill-opacity="1" d="M 127.15625 2.816406 C 127.15625 1.261719 125.894531 0 124.335938 0 C 122.78125 0 121.519531 1.261719 121.519531 2.816406 C 121.519531 4.375 122.78125 5.636719 124.335938 5.636719 C 125.894531 5.636719 127.15625 4.375 127.15625 2.816406 Z M 127.15625 2.816406 "/>
<path fill-rule="nonzero" fill="rgb(0%, 0%, 0%)" fill-opacity="1" d="M 61.046875 93.925781 C 61.046875 93.648438 60.820312 93.425781 60.546875 93.425781 C 60.273438 93.425781 60.050781 93.648438 60.050781 93.925781 C 60.050781 94.199219 60.273438 94.421875 60.546875 94.421875 C 60.820312 94.421875 61.046875 94.199219 61.046875 93.925781 Z M 61.046875 93.925781 "/>
<path fill-rule="nonzero" fill="rgb(0%, 0%, 0%)" fill-opacity="1" d="M 29.148438 139.476562 C 29.148438 139.203125 28.925781 138.980469 28.652344 138.980469 C 28.375 138.980469 28.152344 139.203125 28.152344 139.476562 C 28.152344 139.753906 28.375 139.976562 28.652344 139.976562 C 28.925781 139.976562 29.148438 139.753906 29.148438 139.476562 Z M 29.148438 139.476562 "/>
<g clip-path="url(#clip-0)">
<path fill-rule="nonzero" fill="rgb(79.998779%, 79.998779%, 79.998779%)" fill-opacity="1" d="M 18.132812 164.5625 C 18.132812 160.671875 14.976562 157.515625 11.085938 157.515625 C 7.195312 157.515625 4.042969 160.671875 4.042969 164.5625 C 4.042969 168.453125 7.195312 171.609375 11.085938 171.609375 C 14.976562 171.609375 18.132812 168.453125 18.132812 164.5625 Z M 18.132812 164.5625 "/>
</g>
<g clip-path="url(#clip-1)">
<path fill="none" stroke-width="0.3985" stroke-linecap="butt" stroke-linejoin="miter" stroke="rgb(0%, 0%, 0%)" stroke-opacity="1" stroke-miterlimit="10" d="M 7.045812 -0.0005 C 7.045812 3.890125 3.889562 7.046375 -0.0010625 7.046375 C -3.891688 7.046375 -7.044031 3.890125 -7.044031 -0.0005 C -7.044031 -3.891125 -3.891688 -7.047375 -0.0010625 -7.047375 C 3.889562 -7.047375 7.045812 -3.891125 7.045812 -0.0005 Z M 7.045812 -0.0005 " transform="matrix(1, 0, 0, -1, 11.087, 164.562)"/>
</g>
<g clip-path="url(#clip-2)">
<path fill-rule="nonzero" fill="rgb(79.998779%, 79.998779%, 79.998779%)" fill-opacity="1" d="M 53.261719 164.5625 C 53.261719 160.671875 50.105469 157.515625 46.214844 157.515625 C 42.324219 157.515625 39.167969 160.671875 39.167969 164.5625 C 39.167969 168.453125 42.324219 171.609375 46.214844 171.609375 C 50.105469 171.609375 53.261719 168.453125 53.261719 164.5625 Z M 53.261719 164.5625 "/>
</g>
<g clip-path="url(#clip-3)">
<path fill="none" stroke-width="0.3985" stroke-linecap="butt" stroke-linejoin="miter" stroke="rgb(0%, 0%, 0%)" stroke-opacity="1" stroke-miterlimit="10" d="M 7.046719 -0.0005 C 7.046719 3.890125 3.890469 7.046375 -0.00015625 7.046375 C -3.890781 7.046375 -7.047031 3.890125 -7.047031 -0.0005 C -7.047031 -3.891125 -3.890781 -7.047375 -0.00015625 -7.047375 C 3.890469 -7.047375 7.046719 -3.891125 7.046719 -0.0005 Z M 7.046719 -0.0005 " transform="matrix(1, 0, 0, -1, 46.215, 164.562)"/>
</g>
<path fill-rule="nonzero" fill="rgb(0%, 0%, 0%)" fill-opacity="1" d="M 92.941406 139.476562 C 92.941406 139.203125 92.71875 138.980469 92.441406 138.980469 C 92.167969 138.980469 91.945312 139.203125 91.945312 139.476562 C 91.945312 139.753906 92.167969 139.976562 92.441406 139.976562 C 92.71875 139.976562 92.941406 139.753906 92.941406 139.476562 Z M 92.941406 139.476562 "/>
<g clip-path="url(#clip-4)">
<path fill-rule="nonzero" fill="rgb(79.998779%, 79.998779%, 79.998779%)" fill-opacity="1" d="M 81.921875 164.5625 C 81.921875 160.671875 78.769531 157.515625 74.878906 157.515625 C 70.988281 157.515625 67.832031 160.671875 67.832031 164.5625 C 67.832031 168.453125 70.988281 171.609375 74.878906 171.609375 C 78.769531 171.609375 81.921875 168.453125 81.921875 164.5625 Z M 81.921875 164.5625 "/>
</g>
<g clip-path="url(#clip-5)">
<path fill="none" stroke-width="0.3985" stroke-linecap="butt" stroke-linejoin="miter" stroke="rgb(0%, 0%, 0%)" stroke-opacity="1" stroke-miterlimit="10" d="M 7.043875 -0.0005 C 7.043875 3.890125 3.891531 7.046375 0.00090625 7.046375 C -3.889719 7.046375 -7.045969 3.890125 -7.045969 -0.0005 C -7.045969 -3.891125 -3.889719 -7.047375 0.00090625 -7.047375 C 3.891531 -7.047375 7.043875 -3.891125 7.043875 -0.0005 Z M 7.043875 -0.0005 " transform="matrix(1, 0, 0, -1, 74.878, 164.562)"/>
</g>
<g clip-path="url(#clip-6)">
<path fill-rule="nonzero" fill="rgb(79.998779%, 79.998779%, 79.998779%)" fill-opacity="1" d="M 117.050781 164.5625 C 117.050781 160.671875 113.898438 157.515625 110.007812 157.515625 C 106.113281 157.515625 102.960938 160.671875 102.960938 164.5625 C 102.960938 168.453125 106.113281 171.609375 110.007812 171.609375 C 113.898438 171.609375 117.050781 168.453125 117.050781 164.5625 Z M 117.050781 164.5625 "/>
</g>
<g clip-path="url(#clip-7)">
<path fill="none" stroke-width="0.3985" stroke-linecap="butt" stroke-linejoin="miter" stroke="rgb(0%, 0%, 0%)" stroke-opacity="1" stroke-miterlimit="10" d="M 7.044781 -0.0005 C 7.044781 3.890125 3.892437 7.046375 0.0018125 7.046375 C -3.892719 7.046375 -7.045063 3.890125 -7.045063 -0.0005 C -7.045063 -3.891125 -3.892719 -7.047375 0.0018125 -7.047375 C 3.892437 -7.047375 7.044781 -3.891125 7.044781 -0.0005 Z M 7.044781 -0.0005 " transform="matrix(1, 0, 0, -1, 110.006, 164.562)"/>
</g>
<path fill-rule="nonzero" fill="rgb(0%, 0%, 0%)" fill-opacity="1" d="M 188.625 93.925781 C 188.625 93.648438 188.402344 93.425781 188.128906 93.425781 C 187.851562 93.425781 187.628906 93.648438 187.628906 93.925781 C 187.628906 94.199219 187.851562 94.421875 188.128906 94.421875 C 188.402344 94.421875 188.625 94.199219 188.625 93.925781 Z M 188.625 93.925781 "/>
<path fill-rule="nonzero" fill="rgb(0%, 0%, 0%)" fill-opacity="1" d="M 156.730469 139.476562 C 156.730469 139.203125 156.507812 138.980469 156.234375 138.980469 C 155.957031 138.980469 155.734375 139.203125 155.734375 139.476562 C 155.734375 139.753906 155.957031 139.976562 156.234375 139.976562 C 156.507812 139.976562 156.730469 139.753906 156.730469 139.476562 Z M 156.730469 139.476562 "/>
<g clip-path="url(#clip-8)">
<path fill-rule="nonzero" fill="rgb(79.998779%, 79.998779%, 79.998779%)" fill-opacity="1" d="M 145.714844 164.5625 C 145.714844 160.671875 142.558594 157.515625 138.667969 157.515625 C 134.777344 157.515625 131.621094 160.671875 131.621094 164.5625 C 131.621094 168.453125 134.777344 171.609375 138.667969 171.609375 C 142.558594 171.609375 145.714844 168.453125 145.714844 164.5625 Z M 145.714844 164.5625 "/>
</g>
<g clip-path="url(#clip-9)">
<path fill="none" stroke-width="0.3985" stroke-linecap="butt" stroke-linejoin="miter" stroke="rgb(0%, 0%, 0%)" stroke-opacity="1" stroke-miterlimit="10" d="M 7.046844 -0.0005 C 7.046844 3.890125 3.890594 7.046375 -0.00003125 7.046375 C -3.890656 7.046375 -7.046906 3.890125 -7.046906 -0.0005 C -7.046906 -3.891125 -3.890656 -7.047375 -0.00003125 -7.047375 C 3.890594 -7.047375 7.046844 -3.891125 7.046844 -0.0005 Z M 7.046844 -0.0005 " transform="matrix(1, 0, 0, -1, 138.668, 164.562)"/>
</g>
<g clip-path="url(#clip-10)">
<path fill-rule="nonzero" fill="rgb(79.998779%, 79.998779%, 79.998779%)" fill-opacity="1" d="M 180.84375 164.5625 C 180.84375 160.671875 177.6875 157.515625 173.796875 157.515625 C 169.90625 157.515625 166.75 160.671875 166.75 164.5625 C 166.75 168.453125 169.90625 171.609375 173.796875 171.609375 C 177.6875 171.609375 180.84375 168.453125 180.84375 164.5625 Z M 180.84375 164.5625 "/>
</g>
<g clip-path="url(#clip-11)">
<path fill="none" stroke-width="0.3985" stroke-linecap="butt" stroke-linejoin="miter" stroke="rgb(0%, 0%, 0%)" stroke-opacity="1" stroke-miterlimit="10" d="M 7.04675 -0.0005 C 7.04675 3.890125 3.8905 7.046375 -0.000125 7.046375 C -3.89075 7.046375 -7.047 3.890125 -7.047 -0.0005 C -7.047 -3.891125 -3.89075 -7.047375 -0.000125 -7.047375 C 3.8905 -7.047375 7.04675 -3.891125 7.04675 -0.0005 Z M 7.04675 -0.0005 " transform="matrix(1, 0, 0, -1, 173.797, 164.562)"/>
</g>
<path fill-rule="nonzero" fill="rgb(0%, 0%, 0%)" fill-opacity="1" d="M 220.519531 139.476562 C 220.519531 139.203125 220.296875 138.980469 220.023438 138.980469 C 219.746094 138.980469 219.523438 139.203125 219.523438 139.476562 C 219.523438 139.753906 219.746094 139.976562 220.023438 139.976562 C 220.296875 139.976562 220.519531 139.753906 220.519531 139.476562 Z M 220.519531 139.476562 "/>
<g clip-path="url(#clip-12)">
<path fill-rule="nonzero" fill="rgb(79.998779%, 79.998779%, 79.998779%)" fill-opacity="1" d="M 209.503906 164.5625 C 209.503906 160.671875 206.351562 157.515625 202.460938 157.515625 C 198.566406 157.515625 195.414062 160.671875 195.414062 164.5625 C 195.414062 168.453125 198.566406 171.609375 202.460938 171.609375 C 206.351562 171.609375 209.503906 168.453125 209.503906 164.5625 Z M 209.503906 164.5625 "/>
</g>
<g clip-path="url(#clip-13)">
<path fill="none" stroke-width="0.3985" stroke-linecap="butt" stroke-linejoin="miter" stroke="rgb(0%, 0%, 0%)" stroke-opacity="1" stroke-miterlimit="10" d="M 7.044906 -0.0005 C 7.044906 3.890125 3.892562 7.046375 0.0019375 7.046375 C -3.892594 7.046375 -7.044938 3.890125 -7.044938 -0.0005 C -7.044938 -3.891125 -3.892594 -7.047375 0.0019375 -7.047375 C 3.892562 -7.047375 7.044906 -3.891125 7.044906 -0.0005 Z M 7.044906 -0.0005 " transform="matrix(1, 0, 0, -1, 202.459, 164.562)"/>
</g>
<g clip-path="url(#clip-14)">
<path fill-rule="nonzero" fill="rgb(79.998779%, 79.998779%, 79.998779%)" fill-opacity="1" d="M 244.632812 164.5625 C 244.632812 160.671875 241.476562 157.515625 237.585938 157.515625 C 233.695312 157.515625 230.542969 160.671875 230.542969 164.5625 C 230.542969 168.453125 233.695312 171.609375 237.585938 171.609375 C 241.476562 171.609375 244.632812 168.453125 244.632812 164.5625 Z M 244.632812 164.5625 "/>
</g>
<g clip-path="url(#clip-15)">
<path fill="none" stroke-width="0.3985" stroke-linecap="butt" stroke-linejoin="miter" stroke="rgb(0%, 0%, 0%)" stroke-opacity="1" stroke-miterlimit="10" d="M 7.045813 -0.0005 C 7.045813 3.890125 3.889563 7.046375 -0.0010625 7.046375 C -3.891687 7.046375 -7.044031 3.890125 -7.044031 -0.0005 C -7.044031 -3.891125 -3.891687 -7.047375 -0.0010625 -7.047375 C 3.889563 -7.047375 7.045813 -3.891125 7.045813 -0.0005 Z M 7.045813 -0.0005 " transform="matrix(1, 0, 0, -1, 237.587, 164.562)"/>
</g>
<path fill="none" stroke-width="0.3985" stroke-linecap="butt" stroke-linejoin="miter" stroke="rgb(0%, 0%, 0%)" stroke-opacity="1" stroke-miterlimit="10" d="M -1.731531 -2.471062 L -63.391688 -90.537469 " transform="matrix(1, 0, 0, -1, 124.337, 2.818)"/>
<path fill="none" stroke-width="0.3985" stroke-linecap="butt" stroke-linejoin="miter" stroke="rgb(0%, 0%, 0%)" stroke-opacity="1" stroke-miterlimit="10" d="M -64.192469 -91.678094 L -95.286219 -136.08825 " transform="matrix(1, 0, 0, -1, 124.337, 2.818)"/>
<path fill="none" stroke-width="0.3985" stroke-linecap="butt" stroke-linejoin="miter" stroke="rgb(0%, 0%, 0%)" stroke-opacity="1" stroke-miterlimit="10" d="M -96.087 -137.232781 L -109.094813 -155.810906 " transform="matrix(1, 0, 0, -1, 124.337, 2.818)"/>
<path fill="none" stroke-width="0.3985" stroke-linecap="butt" stroke-linejoin="miter" stroke="rgb(0%, 0%, 0%)" stroke-opacity="1" stroke-miterlimit="10" d="M -95.286219 -137.232781 L -82.278406 -155.810906 " transform="matrix(1, 0, 0, -1, 124.337, 2.818)"/>
<path fill="none" stroke-width="0.3985" stroke-linecap="butt" stroke-linejoin="miter" stroke="rgb(0%, 0%, 0%)" stroke-opacity="1" stroke-miterlimit="10" d="M -63.391688 -91.678094 L -32.294031 -136.08825 " transform="matrix(1, 0, 0, -1, 124.337, 2.818)"/>
<path fill="none" stroke-width="0.3985" stroke-linecap="butt" stroke-linejoin="miter" stroke="rgb(0%, 0%, 0%)" stroke-opacity="1" stroke-miterlimit="10" d="M -32.294031 -137.232781 L -45.30575 -155.810906 " transform="matrix(1, 0, 0, -1, 124.337, 2.818)"/>
<path fill="none" stroke-width="0.3985" stroke-linecap="butt" stroke-linejoin="miter" stroke="rgb(0%, 0%, 0%)" stroke-opacity="1" stroke-miterlimit="10" d="M -31.497156 -137.232781 L -18.485438 -155.810906 " transform="matrix(1, 0, 0, -1, 124.337, 2.818)"/>
<path fill="none" stroke-width="0.3985" stroke-linecap="butt" stroke-linejoin="miter" stroke="rgb(0%, 0%, 0%)" stroke-opacity="1" stroke-miterlimit="10" d="M 1.729406 -2.471062 L 63.393469 -90.537469 " transform="matrix(1, 0, 0, -1, 124.337, 2.818)"/>
<path fill="none" stroke-width="0.3985" stroke-linecap="butt" stroke-linejoin="miter" stroke="rgb(0%, 0%, 0%)" stroke-opacity="1" stroke-miterlimit="10" d="M 63.393469 -91.678094 L 32.295812 -136.08825 " transform="matrix(1, 0, 0, -1, 124.337, 2.818)"/>
<path fill="none" stroke-width="0.3985" stroke-linecap="butt" stroke-linejoin="miter" stroke="rgb(0%, 0%, 0%)" stroke-opacity="1" stroke-miterlimit="10" d="M 31.495031 -137.232781 L 18.487219 -155.810906 " transform="matrix(1, 0, 0, -1, 124.337, 2.818)"/>
<path fill="none" stroke-width="0.3985" stroke-linecap="butt" stroke-linejoin="miter" stroke="rgb(0%, 0%, 0%)" stroke-opacity="1" stroke-miterlimit="10" d="M 32.295812 -137.232781 L 45.303625 -155.810906 " transform="matrix(1, 0, 0, -1, 124.337, 2.818)"/>
<path fill="none" stroke-width="0.3985" stroke-linecap="butt" stroke-linejoin="miter" stroke="rgb(0%, 0%, 0%)" stroke-opacity="1" stroke-miterlimit="10" d="M 64.190344 -91.678094 L 95.288 -136.08825 " transform="matrix(1, 0, 0, -1, 124.337, 2.818)"/>
<path fill="none" stroke-width="0.3985" stroke-linecap="butt" stroke-linejoin="miter" stroke="rgb(0%, 0%, 0%)" stroke-opacity="1" stroke-miterlimit="10" d="M 95.288 -137.232781 L 82.276281 -155.810906 " transform="matrix(1, 0, 0, -1, 124.337, 2.818)"/>
<path fill="none" stroke-width="0.3985" stroke-linecap="butt" stroke-linejoin="miter" stroke="rgb(0%, 0%, 0%)" stroke-opacity="1" stroke-miterlimit="10" d="M 96.088781 -137.232781 L 109.096594 -155.810906 " transform="matrix(1, 0, 0, -1, 124.337, 2.818)"/>
</svg>
