<?xml version="1.0" encoding="UTF-8"?>
<svg xmlns="http://www.w3.org/2000/svg" xmlns:xlink="http://www.w3.org/1999/xlink" width="188.116" height="176.424" viewBox="0 0 188.116 176.424">
<defs>
<clipPath id="clip-0">
<path clip-rule="nonzero" d="M 71 162 L 86 162 L 86 176.425781 L 71 176.425781 Z M 71 162 "/>
</clipPath>
<clipPath id="clip-1">
<path clip-rule="nonzero" d="M 65 156 L 91 156 L 91 176.425781 L 65 176.425781 Z M 65 156 "/>
</clipPath>
<clipPath id="clip-2">
<path clip-rule="nonzero" d="M 106 162 L 121 162 L 121 176.425781 L 106 176.425781 Z M 106 162 "/>
</clipPath>
<clipPath id="clip-3">
<path clip-rule="nonzero" d="M 100 156 L 126 156 L 126 176.425781 L 100 176.425781 Z M 100 156 "/>
</clipPath>
<clipPath id="clip-4">
<path clip-rule="nonzero" d="M 134 162 L 149 162 L 149 176.425781 L 134 176.425781 Z M 134 162 "/>
</clipPath>
<clipPath id="clip-5">
<path clip-rule="nonzero" d="M 129 156 L 155 156 L 155 176.425781 L 129 176.425781 Z M 129 156 "/>
</clipPath>
<clipPath id="clip-6">
<path clip-rule="nonzero" d="M 169 162 L 185 162 L 185 176.425781 L 169 176.425781 Z M 169 162 "/>
</clipPath>
<clipPath id="clip-7">
<path clip-rule="nonzero" d="M 164 156 L 188.117188 156 L 188.117188 176.425781 L 164 176.425781 Z M 164 156 "/>
</clipPath>
</defs>
<path fill-rule="nonzero" fill="rgb(0%, 0%, 0%)" fill-opacity="1" d="M 63.363281 2.816406 C 63.363281 1.261719 62.101562 0 60.546875 0 C 58.992188 0 57.730469 1.261719 57.730469 2.816406 C 57.730469 4.375 58.992188 5.636719 60.546875 5.636719 C 62.101562 5.636719 63.363281 4.375 63.363281 2.816406 Z M 63.363281 2.816406 "/>
<path fill-rule="nonzero" fill="rgb(0%, 0%, 0%)" fill-opacity="1" d="M 29.148438 48.371094 C 29.148438 48.097656 28.925781 47.871094 28.652344 47.871094 C 28.375 47.871094 28.152344 48.097656 28.152344 48.371094 C 28.152344 48.644531 28.375 48.867188 28.652344 48.867188 C 28.925781 48.867188 29.148438 48.644531 29.148438 48.371094 Z M 29.148438 48.371094 "/>
<path fill-rule="nonzero" fill="rgb(79.998779%, 79.998779%, 79.998779%)" fill-opacity="1" stroke-width="0.3985" stroke-linecap="butt" stroke-linejoin="miter" stroke="rgb(0%, 0%, 0%)" stroke-opacity="1" stroke-miterlimit="10" d="M 7.045813 -0.00103125 C 7.045813 3.889594 3.889563 7.045844 -0.0010625 7.045844 C -3.891687 7.045844 -7.044031 3.889594 -7.044031 -0.00103125 C -7.044031 -3.891656 -3.891687 -7.044 -0.0010625 -7.044 C 3.889563 -7.044 7.045813 -3.891656 7.045813 -0.00103125 Z M 7.045813 -0.00103125 " transform="matrix(1, 0, 0, -1, 11.087, 73.456)"/>
<path fill-rule="nonzero" fill="rgb(79.998779%, 79.998779%, 79.998779%)" fill-opacity="1" stroke-width="0.3985" stroke-linecap="butt" stroke-linejoin="miter" stroke="rgb(0%, 0%, 0%)" stroke-opacity="1" stroke-miterlimit="10" d="M 7.046719 -0.00103125 C 7.046719 3.889594 3.890469 7.045844 -0.00015625 7.045844 C -3.890781 7.045844 -7.047031 3.889594 -7.047031 -0.00103125 C -7.047031 -3.891656 -3.890781 -7.044 -0.00015625 -7.044 C 3.890469 -7.044 7.046719 -3.891656 7.046719 -0.00103125 Z M 7.046719 -0.00103125 " transform="matrix(1, 0, 0, -1, 46.215, 73.456)"/>
<path fill-rule="nonzero" fill="rgb(0%, 0%, 0%)" fill-opacity="1" d="M 92.941406 48.371094 C 92.941406 48.097656 92.71875 47.871094 92.441406 47.871094 C 92.167969 47.871094 91.945312 48.097656 91.945312 48.371094 C 91.945312 48.644531 92.167969 48.867188 92.441406 48.867188 C 92.71875 48.867188 92.941406 48.644531 92.941406 48.371094 Z M 92.941406 48.371094 "/>
<path fill-rule="nonzero" fill="rgb(79.998779%, 79.998779%, 79.998779%)" fill-opacity="1" stroke-width="0.3985" stroke-linecap="butt" stroke-linejoin="miter" stroke="rgb(0%, 0%, 0%)" stroke-opacity="1" stroke-miterlimit="10" d="M 7.043875 -0.00103125 C 7.043875 3.889594 3.891531 7.045844 0.00090625 7.045844 C -3.889719 7.045844 -7.045969 3.889594 -7.045969 -0.00103125 C -7.045969 -3.891656 -3.889719 -7.044 0.00090625 -7.044 C 3.891531 -7.044 7.043875 -3.891656 7.043875 -0.00103125 Z M 7.043875 -0.00103125 " transform="matrix(1, 0, 0, -1, 74.878, 73.456)"/>
<path fill-rule="nonzero" fill="rgb(0%, 0%, 0%)" fill-opacity="1" d="M 110.503906 73.457031 C 110.503906 73.179688 110.28125 72.957031 110.007812 72.957031 C 109.730469 72.957031 109.507812 73.179688 109.507812 73.457031 C 109.507812 73.730469 109.730469 73.953125 110.007812 73.953125 C 110.28125 73.953125 110.503906 73.730469 110.503906 73.457031 Z M 110.503906 73.457031 "/>
<path fill-rule="nonzero" fill="rgb(0%, 0%, 0%)" fill-opacity="1" d="M 78.609375 119.007812 C 78.609375 118.734375 78.386719 118.511719 78.109375 118.511719 C 77.835938 118.511719 77.613281 118.734375 77.613281 119.007812 C 77.613281 119.285156 77.835938 119.507812 78.109375 119.507812 C 78.386719 119.507812 78.609375 119.285156 78.609375 119.007812 Z M 78.609375 119.007812 "/>
<path fill-rule="nonzero" fill="rgb(79.998779%, 79.998779%, 79.998779%)" fill-opacity="1" stroke-width="0.3985" stroke-linecap="butt" stroke-linejoin="miter" stroke="rgb(0%, 0%, 0%)" stroke-opacity="1" stroke-miterlimit="10" d="M 7.043844 0.00025 C 7.043844 3.890875 3.8915 7.047125 0.000875 7.047125 C -3.88975 7.047125 -7.046 3.890875 -7.046 0.00025 C -7.046 -3.890375 -3.88975 -7.046625 0.000875 -7.046625 C 3.8915 -7.046625 7.043844 -3.890375 7.043844 0.00025 Z M 7.043844 0.00025 " transform="matrix(1, 0, 0, -1, 60.546, 144.094)"/>
<path fill-rule="nonzero" fill="rgb(0%, 0%, 0%)" fill-opacity="1" d="M 96.171875 144.09375 C 96.171875 143.820312 95.949219 143.597656 95.675781 143.597656 C 95.398438 143.597656 95.175781 143.820312 95.175781 144.09375 C 95.175781 144.367188 95.398438 144.59375 95.675781 144.59375 C 95.949219 144.59375 96.171875 144.367188 96.171875 144.09375 Z M 96.171875 144.09375 "/>
<g clip-path="url(#clip-0)">
<path fill-rule="nonzero" fill="rgb(79.998779%, 79.998779%, 79.998779%)" fill-opacity="1" d="M 85.15625 169.179688 C 85.15625 165.289062 82 162.132812 78.109375 162.132812 C 74.21875 162.132812 71.066406 165.289062 71.066406 169.179688 C 71.066406 173.070312 74.21875 176.222656 78.109375 176.222656 C 82 176.222656 85.15625 173.070312 85.15625 169.179688 Z M 85.15625 169.179688 "/>
</g>
<g clip-path="url(#clip-1)">
<path fill="none" stroke-width="0.3985" stroke-linecap="butt" stroke-linejoin="miter" stroke="rgb(0%, 0%, 0%)" stroke-opacity="1" stroke-miterlimit="10" d="M 7.04625 -0.0006875 C 7.04625 3.889938 3.89 7.046188 -0.000625 7.046188 C -3.89125 7.046188 -7.043594 3.889938 -7.043594 -0.0006875 C -7.043594 -3.891312 -3.89125 -7.043656 -0.000625 -7.043656 C 3.89 -7.043656 7.04625 -3.891312 7.04625 -0.0006875 Z M 7.04625 -0.0006875 " transform="matrix(1, 0, 0, -1, 78.11, 169.179)"/>
</g>
<g clip-path="url(#clip-2)">
<path fill-rule="nonzero" fill="rgb(79.998779%, 79.998779%, 79.998779%)" fill-opacity="1" d="M 120.285156 169.179688 C 120.285156 165.289062 117.128906 162.132812 113.238281 162.132812 C 109.347656 162.132812 106.195312 165.289062 106.195312 169.179688 C 106.195312 173.070312 109.347656 176.222656 113.238281 176.222656 C 117.128906 176.222656 120.285156 173.070312 120.285156 169.179688 Z M 120.285156 169.179688 "/>
</g>
<g clip-path="url(#clip-3)">
<path fill="none" stroke-width="0.3985" stroke-linecap="butt" stroke-linejoin="miter" stroke="rgb(0%, 0%, 0%)" stroke-opacity="1" stroke-miterlimit="10" d="M 7.046156 -0.0006875 C 7.046156 3.889938 3.889906 7.046188 -0.00071875 7.046188 C -3.891344 7.046188 -7.043688 3.889938 -7.043688 -0.0006875 C -7.043688 -3.891312 -3.891344 -7.043656 -0.00071875 -7.043656 C 3.889906 -7.043656 7.046156 -3.891312 7.046156 -0.0006875 Z M 7.046156 -0.0006875 " transform="matrix(1, 0, 0, -1, 113.239, 169.179)"/>
</g>
<path fill-rule="nonzero" fill="rgb(0%, 0%, 0%)" fill-opacity="1" d="M 142.398438 119.007812 C 142.398438 118.734375 142.175781 118.511719 141.902344 118.511719 C 141.625 118.511719 141.402344 118.734375 141.402344 119.007812 C 141.402344 119.285156 141.625 119.507812 141.902344 119.507812 C 142.175781 119.507812 142.398438 119.285156 142.398438 119.007812 Z M 142.398438 119.007812 "/>
<path fill-rule="nonzero" fill="rgb(79.998779%, 79.998779%, 79.998779%)" fill-opacity="1" stroke-width="0.3985" stroke-linecap="butt" stroke-linejoin="miter" stroke="rgb(0%, 0%, 0%)" stroke-opacity="1" stroke-miterlimit="10" d="M 7.045812 0.00025 C 7.045812 3.890875 3.889562 7.047125 -0.0010625 7.047125 C -3.891688 7.047125 -7.044031 3.890875 -7.044031 0.00025 C -7.044031 -3.890375 -3.891688 -7.046625 -0.0010625 -7.046625 C 3.889562 -7.046625 7.045812 -3.890375 7.045812 0.00025 Z M 7.045812 0.00025 " transform="matrix(1, 0, 0, -1, 124.337, 144.094)"/>
<path fill-rule="nonzero" fill="rgb(0%, 0%, 0%)" fill-opacity="1" d="M 159.964844 144.09375 C 159.964844 143.820312 159.738281 143.597656 159.464844 143.597656 C 159.191406 143.597656 158.96875 143.820312 158.96875 144.09375 C 158.96875 144.367188 159.191406 144.59375 159.464844 144.59375 C 159.738281 144.59375 159.964844 144.367188 159.964844 144.09375 Z M 159.964844 144.09375 "/>
<g clip-path="url(#clip-4)">
<path fill-rule="nonzero" fill="rgb(79.998779%, 79.998779%, 79.998779%)" fill-opacity="1" d="M 148.945312 169.179688 C 148.945312 165.289062 145.792969 162.132812 141.902344 162.132812 C 138.011719 162.132812 134.855469 165.289062 134.855469 169.179688 C 134.855469 173.070312 138.011719 176.222656 141.902344 176.222656 C 145.792969 176.222656 148.945312 173.070312 148.945312 169.179688 Z M 148.945312 169.179688 "/>
</g>
<g clip-path="url(#clip-5)">
<path fill="none" stroke-width="0.3985" stroke-linecap="butt" stroke-linejoin="miter" stroke="rgb(0%, 0%, 0%)" stroke-opacity="1" stroke-miterlimit="10" d="M 7.044312 -0.0006875 C 7.044312 3.889938 3.891969 7.046188 0.00134375 7.046188 C -3.889281 7.046188 -7.045531 3.889938 -7.045531 -0.0006875 C -7.045531 -3.891312 -3.889281 -7.043656 0.00134375 -7.043656 C 3.891969 -7.043656 7.044312 -3.891312 7.044312 -0.0006875 Z M 7.044312 -0.0006875 " transform="matrix(1, 0, 0, -1, 141.901, 169.179)"/>
</g>
<g clip-path="url(#clip-6)">
<path fill-rule="nonzero" fill="rgb(79.998779%, 79.998779%, 79.998779%)" fill-opacity="1" d="M 184.074219 169.179688 C 184.074219 165.289062 180.921875 162.132812 177.027344 162.132812 C 173.136719 162.132812 169.984375 165.289062 169.984375 169.179688 C 169.984375 173.070312 173.136719 176.222656 177.027344 176.222656 C 180.921875 176.222656 184.074219 173.070312 184.074219 169.179688 Z M 184.074219 169.179688 "/>
</g>
<g clip-path="url(#clip-7)">
<path fill="none" stroke-width="0.3985" stroke-linecap="butt" stroke-linejoin="miter" stroke="rgb(0%, 0%, 0%)" stroke-opacity="1" stroke-miterlimit="10" d="M 7.045219 -0.0006875 C 7.045219 3.889938 3.892875 7.046188 -0.00165625 7.046188 C -3.892281 7.046188 -7.044625 3.889938 -7.044625 -0.0006875 C -7.044625 -3.891312 -3.892281 -7.043656 -0.00165625 -7.043656 C 3.892875 -7.043656 7.045219 -3.891312 7.045219 -0.0006875 Z M 7.045219 -0.0006875 " transform="matrix(1, 0, 0, -1, 177.029, 169.179)"/>
</g>
<path fill="none" stroke-width="0.3985" stroke-linecap="butt" stroke-linejoin="miter" stroke="rgb(0%, 0%, 0%)" stroke-opacity="1" stroke-miterlimit="10" d="M -1.730594 -2.471062 L -31.496219 -44.982781 " transform="matrix(1, 0, 0, -1, 60.547, 2.818)"/>
<path fill="none" stroke-width="0.3985" stroke-linecap="butt" stroke-linejoin="miter" stroke="rgb(0%, 0%, 0%)" stroke-opacity="1" stroke-miterlimit="10" d="M -32.297 -46.123406 L -45.304812 -64.705437 " transform="matrix(1, 0, 0, -1, 60.547, 2.818)"/>
<path fill="none" stroke-width="0.3985" stroke-linecap="butt" stroke-linejoin="miter" stroke="rgb(0%, 0%, 0%)" stroke-opacity="1" stroke-miterlimit="10" d="M -31.496219 -46.123406 L -18.488406 -64.705437 " transform="matrix(1, 0, 0, -1, 60.547, 2.818)"/>
<path fill="none" stroke-width="0.3985" stroke-linecap="butt" stroke-linejoin="miter" stroke="rgb(0%, 0%, 0%)" stroke-opacity="1" stroke-miterlimit="10" d="M 1.730344 -2.471062 L 31.495969 -44.982781 " transform="matrix(1, 0, 0, -1, 60.547, 2.818)"/>
<path fill="none" stroke-width="0.3985" stroke-linecap="butt" stroke-linejoin="miter" stroke="rgb(0%, 0%, 0%)" stroke-opacity="1" stroke-miterlimit="10" d="M 31.495969 -46.123406 L 18.488156 -64.705437 " transform="matrix(1, 0, 0, -1, 60.547, 2.818)"/>
<path fill="none" stroke-width="0.3985" stroke-linecap="butt" stroke-linejoin="miter" stroke="rgb(0%, 0%, 0%)" stroke-opacity="1" stroke-miterlimit="10" d="M 32.29675 -46.123406 L 49.058469 -70.068719 " transform="matrix(1, 0, 0, -1, 60.547, 2.818)"/>
<path fill="none" stroke-width="0.3985" stroke-linecap="butt" stroke-linejoin="miter" stroke="rgb(0%, 0%, 0%)" stroke-opacity="1" stroke-miterlimit="10" d="M 49.058469 -71.209344 L 17.964719 -115.623406 " transform="matrix(1, 0, 0, -1, 60.547, 2.818)"/>
<path fill="none" stroke-width="0.3985" stroke-linecap="butt" stroke-linejoin="miter" stroke="rgb(0%, 0%, 0%)" stroke-opacity="1" stroke-miterlimit="10" d="M 17.163938 -116.764031 L 4.156125 -135.342156 " transform="matrix(1, 0, 0, -1, 60.547, 2.818)"/>
<path fill="none" stroke-width="0.3985" stroke-linecap="butt" stroke-linejoin="miter" stroke="rgb(0%, 0%, 0%)" stroke-opacity="1" stroke-miterlimit="10" d="M 17.964719 -116.764031 L 34.730344 -140.705437 " transform="matrix(1, 0, 0, -1, 60.547, 2.818)"/>
<path fill="none" stroke-width="0.3985" stroke-linecap="butt" stroke-linejoin="miter" stroke="rgb(0%, 0%, 0%)" stroke-opacity="1" stroke-miterlimit="10" d="M 34.730344 -141.849969 L 21.718625 -160.428094 " transform="matrix(1, 0, 0, -1, 60.547, 2.818)"/>
<path fill="none" stroke-width="0.3985" stroke-linecap="butt" stroke-linejoin="miter" stroke="rgb(0%, 0%, 0%)" stroke-opacity="1" stroke-miterlimit="10" d="M 35.527219 -141.849969 L 48.538938 -160.428094 " transform="matrix(1, 0, 0, -1, 60.547, 2.818)"/>
<path fill="none" stroke-width="0.3985" stroke-linecap="butt" stroke-linejoin="miter" stroke="rgb(0%, 0%, 0%)" stroke-opacity="1" stroke-miterlimit="10" d="M 49.85925 -71.209344 L 80.956906 -115.623406 " transform="matrix(1, 0, 0, -1, 60.547, 2.818)"/>
<path fill="none" stroke-width="0.3985" stroke-linecap="butt" stroke-linejoin="miter" stroke="rgb(0%, 0%, 0%)" stroke-opacity="1" stroke-miterlimit="10" d="M 80.956906 -116.764031 L 67.945188 -135.342156 " transform="matrix(1, 0, 0, -1, 60.547, 2.818)"/>
<path fill="none" stroke-width="0.3985" stroke-linecap="butt" stroke-linejoin="miter" stroke="rgb(0%, 0%, 0%)" stroke-opacity="1" stroke-miterlimit="10" d="M 81.753781 -116.764031 L 98.519406 -140.705437 " transform="matrix(1, 0, 0, -1, 60.547, 2.818)"/>
<path fill="none" stroke-width="0.3985" stroke-linecap="butt" stroke-linejoin="miter" stroke="rgb(0%, 0%, 0%)" stroke-opacity="1" stroke-miterlimit="10" d="M 98.519406 -141.849969 L 85.511594 -160.428094 " transform="matrix(1, 0, 0, -1, 60.547, 2.818)"/>
<path fill="none" stroke-width="0.3985" stroke-linecap="butt" stroke-linejoin="miter" stroke="rgb(0%, 0%, 0%)" stroke-opacity="1" stroke-miterlimit="10" d="M 99.320188 -141.849969 L 112.328 -160.428094 " transform="matrix(1, 0, 0, -1, 60.547, 2.818)"/>
</svg>
