<?xml version="1.0" encoding="UTF-8"?>
<svg xmlns="http://www.w3.org/2000/svg" xmlns:xlink="http://www.w3.org/1999/xlink" width="183.499" height="213.064" viewBox="0 0 183.499 213.064">
<defs>
<clipPath id="clip-0">
<path clip-rule="nonzero" d="M 124 193 L 150 193 L 150 213.0625 L 124 213.0625 Z M 124 193 "/>
</clipPath>
<clipPath id="clip-1">
<path clip-rule="nonzero" d="M 159 193 L 183.5 193 L 183.5 213.0625 L 159 213.0625 Z M 159 193 "/>
</clipPath>
</defs>
<path fill-rule="nonzero" fill="rgb(0%, 0%, 0%)" fill-opacity="1" d="M 33.09375 2.816406 C 33.09375 1.261719 31.832031 0 30.277344 0 C 28.71875 0 27.457031 1.261719 27.457031 2.816406 C 27.457031 4.375 28.71875 5.636719 30.277344 5.636719 C 31.832031 5.636719 33.09375 4.375 33.09375 2.816406 Z M 33.09375 2.816406 "/>
<path fill-rule="nonzero" fill="rgb(79.998779%, 79.998779%, 79.998779%)" fill-opacity="1" stroke-width="0.3985" stroke-linecap="butt" stroke-linejoin="miter" stroke="rgb(0%, 0%, 0%)" stroke-opacity="1" stroke-miterlimit="10" d="M 7.045813 0.00034375 C 7.045813 3.890969 3.889563 7.047219 -0.0010625 7.047219 C -3.891687 7.047219 -7.044031 3.890969 -7.044031 0.00034375 C -7.044031 -3.890281 -3.891687 -7.046531 -0.0010625 -7.046531 C 3.889563 -7.046531 7.045813 -3.890281 7.045813 0.00034375 Z M 7.045813 0.00034375 " transform="matrix(1, 0, 0, -1, 11.087, 30.223)"/>
<path fill-rule="nonzero" fill="rgb(0%, 0%, 0%)" fill-opacity="1" d="M 49.960938 30.222656 C 49.960938 29.949219 49.738281 29.726562 49.464844 29.726562 C 49.1875 29.726562 48.964844 29.949219 48.964844 30.222656 C 48.964844 30.5 49.1875 30.722656 49.464844 30.722656 C 49.738281 30.722656 49.960938 30.5 49.960938 30.222656 Z M 49.960938 30.222656 "/>
<path fill-rule="nonzero" fill="rgb(79.998779%, 79.998779%, 79.998779%)" fill-opacity="1" stroke-width="0.3985" stroke-linecap="butt" stroke-linejoin="miter" stroke="rgb(0%, 0%, 0%)" stroke-opacity="1" stroke-miterlimit="10" d="M 7.045313 -0.00059375 C 7.045313 3.890031 3.892969 7.046281 -0.0015625 7.046281 C -3.892187 7.046281 -7.044531 3.890031 -7.044531 -0.00059375 C -7.044531 -3.891219 -3.892187 -7.043562 -0.0015625 -7.043562 C 3.892969 -7.043562 7.045313 -3.891219 7.045313 -0.00059375 Z M 7.045313 -0.00059375 " transform="matrix(1, 0, 0, -1, 31.9, 55.308)"/>
<path fill-rule="nonzero" fill="rgb(0%, 0%, 0%)" fill-opacity="1" d="M 67.527344 55.308594 C 67.527344 55.03125 67.304688 54.808594 67.027344 54.808594 C 66.753906 54.808594 66.53125 55.03125 66.53125 55.308594 C 66.53125 55.582031 66.753906 55.804688 67.027344 55.804688 C 67.304688 55.804688 67.527344 55.582031 67.527344 55.308594 Z M 67.527344 55.308594 "/>
<path fill-rule="nonzero" fill="rgb(79.998779%, 79.998779%, 79.998779%)" fill-opacity="1" stroke-width="0.3985" stroke-linecap="butt" stroke-linejoin="miter" stroke="rgb(0%, 0%, 0%)" stroke-opacity="1" stroke-miterlimit="10" d="M 7.043813 -0.00153125 C 7.043813 3.893 3.891469 7.045344 0.00084375 7.045344 C -3.889781 7.045344 -7.046031 3.893 -7.046031 -0.00153125 C -7.046031 -3.892156 -3.889781 -7.0445 0.00084375 -7.0445 C 3.891469 -7.0445 7.043813 -3.892156 7.043813 -0.00153125 Z M 7.043813 -0.00153125 " transform="matrix(1, 0, 0, -1, 49.464, 80.393)"/>
<path fill-rule="nonzero" fill="rgb(0%, 0%, 0%)" fill-opacity="1" d="M 85.089844 80.394531 C 85.089844 80.117188 84.867188 79.894531 84.59375 79.894531 C 84.316406 79.894531 84.09375 80.117188 84.09375 80.394531 C 84.09375 80.667969 84.316406 80.890625 84.59375 80.890625 C 84.867188 80.890625 85.089844 80.667969 85.089844 80.394531 Z M 85.089844 80.394531 "/>
<path fill-rule="nonzero" fill="rgb(79.998779%, 79.998779%, 79.998779%)" fill-opacity="1" stroke-width="0.3985" stroke-linecap="butt" stroke-linejoin="miter" stroke="rgb(0%, 0%, 0%)" stroke-opacity="1" stroke-miterlimit="10" d="M 7.046219 -0.00146875 C 7.046219 3.893063 3.889969 7.045406 -0.00065625 7.045406 C -3.891281 7.045406 -7.043625 3.893063 -7.043625 -0.00146875 C -7.043625 -3.892094 -3.891281 -7.044437 -0.00065625 -7.044437 C 3.889969 -7.044437 7.046219 -3.892094 7.046219 -0.00146875 Z M 7.046219 -0.00146875 " transform="matrix(1, 0, 0, -1, 67.028, 105.479)"/>
<path fill-rule="nonzero" fill="rgb(0%, 0%, 0%)" fill-opacity="1" d="M 102.652344 105.480469 C 102.652344 105.203125 102.429688 104.980469 102.15625 104.980469 C 101.882812 104.980469 101.65625 105.203125 101.65625 105.480469 C 101.65625 105.753906 101.882812 105.976562 102.15625 105.976562 C 102.429688 105.976562 102.652344 105.753906 102.652344 105.480469 Z M 102.652344 105.480469 "/>
<path fill-rule="nonzero" fill="rgb(79.998779%, 79.998779%, 79.998779%)" fill-opacity="1" stroke-width="0.3985" stroke-linecap="butt" stroke-linejoin="miter" stroke="rgb(0%, 0%, 0%)" stroke-opacity="1" stroke-miterlimit="10" d="M 7.044719 0.0015 C 7.044719 3.892125 3.892375 7.044469 0.00175 7.044469 C -3.892781 7.044469 -7.045125 3.892125 -7.045125 0.0015 C -7.045125 -3.893031 -3.892781 -7.045375 0.00175 -7.045375 C 3.892375 -7.045375 7.044719 -3.893031 7.044719 0.0015 Z M 7.044719 0.0015 " transform="matrix(1, 0, 0, -1, 84.592, 130.564)"/>
<path fill-rule="nonzero" fill="rgb(0%, 0%, 0%)" fill-opacity="1" d="M 120.21875 130.5625 C 120.21875 130.289062 119.996094 130.066406 119.71875 130.066406 C 119.445312 130.066406 119.222656 130.289062 119.222656 130.5625 C 119.222656 130.839844 119.445312 131.0625 119.71875 131.0625 C 119.996094 131.0625 120.21875 130.839844 120.21875 130.5625 Z M 120.21875 130.5625 "/>
<path fill-rule="nonzero" fill="rgb(79.998779%, 79.998779%, 79.998779%)" fill-opacity="1" stroke-width="0.3985" stroke-linecap="butt" stroke-linejoin="miter" stroke="rgb(0%, 0%, 0%)" stroke-opacity="1" stroke-miterlimit="10" d="M 7.047125 0.0005625 C 7.047125 3.891188 3.890875 7.043531 0.00025 7.043531 C -3.890375 7.043531 -7.046625 3.891188 -7.046625 0.0005625 C -7.046625 -3.890062 -3.890375 -7.046312 0.00025 -7.046312 C 3.890875 -7.046312 7.047125 -3.890062 7.047125 0.0005625 Z M 7.047125 0.0005625 " transform="matrix(1, 0, 0, -1, 102.156, 155.649)"/>
<path fill-rule="nonzero" fill="rgb(0%, 0%, 0%)" fill-opacity="1" d="M 137.78125 155.648438 C 137.78125 155.375 137.558594 155.152344 137.285156 155.152344 C 137.007812 155.152344 136.785156 155.375 136.785156 155.648438 C 136.785156 155.925781 137.007812 156.148438 137.285156 156.148438 C 137.558594 156.148438 137.78125 155.925781 137.78125 155.648438 Z M 137.78125 155.648438 "/>
<path fill-rule="nonzero" fill="rgb(79.998779%, 79.998779%, 79.998779%)" fill-opacity="1" stroke-width="0.3985" stroke-linecap="butt" stroke-linejoin="miter" stroke="rgb(0%, 0%, 0%)" stroke-opacity="1" stroke-miterlimit="10" d="M 7.045625 -0.000375 C 7.045625 3.89025 3.889375 7.0465 -0.00125 7.0465 C -3.891875 7.0465 -7.044219 3.89025 -7.044219 -0.000375 C -7.044219 -3.891 -3.891875 -7.04725 -0.00125 -7.04725 C 3.889375 -7.04725 7.045625 -3.891 7.045625 -0.000375 Z M 7.045625 -0.000375 " transform="matrix(1, 0, 0, -1, 119.72, 180.734)"/>
<path fill-rule="nonzero" fill="rgb(0%, 0%, 0%)" fill-opacity="1" d="M 155.347656 180.734375 C 155.347656 180.457031 155.125 180.234375 154.847656 180.234375 C 154.574219 180.234375 154.351562 180.457031 154.351562 180.734375 C 154.351562 181.007812 154.574219 181.230469 154.847656 181.230469 C 155.125 181.230469 155.347656 181.007812 155.347656 180.734375 Z M 155.347656 180.734375 "/>
<path fill-rule="nonzero" fill="rgb(79.998779%, 79.998779%, 79.998779%)" fill-opacity="1" d="M 144.328125 205.820312 C 144.328125 201.929688 141.175781 198.773438 137.285156 198.773438 C 133.394531 198.773438 130.238281 201.929688 130.238281 205.820312 C 130.238281 209.710938 133.394531 212.863281 137.285156 212.863281 C 141.175781 212.863281 144.328125 209.710938 144.328125 205.820312 Z M 144.328125 205.820312 "/>
<g clip-path="url(#clip-0)">
<path fill="none" stroke-width="0.3985" stroke-linecap="butt" stroke-linejoin="miter" stroke="rgb(0%, 0%, 0%)" stroke-opacity="1" stroke-miterlimit="10" d="M 7.044125 -0.0013125 C 7.044125 3.889313 3.891781 7.045563 0.00115625 7.045563 C -3.889469 7.045563 -7.045719 3.889313 -7.045719 -0.0013125 C -7.045719 -3.891937 -3.889469 -7.044281 0.00115625 -7.044281 C 3.891781 -7.044281 7.044125 -3.891937 7.044125 -0.0013125 Z M 7.044125 -0.0013125 " transform="matrix(1, 0, 0, -1, 137.284, 205.819)"/>
</g>
<path fill-rule="nonzero" fill="rgb(79.998779%, 79.998779%, 79.998779%)" fill-opacity="1" d="M 179.457031 205.820312 C 179.457031 201.929688 176.304688 198.773438 172.410156 198.773438 C 168.519531 198.773438 165.367188 201.929688 165.367188 205.820312 C 165.367188 209.710938 168.519531 212.863281 172.410156 212.863281 C 176.304688 212.863281 179.457031 209.710938 179.457031 205.820312 Z M 179.457031 205.820312 "/>
<g clip-path="url(#clip-1)">
<path fill="none" stroke-width="0.3985" stroke-linecap="butt" stroke-linejoin="miter" stroke="rgb(0%, 0%, 0%)" stroke-opacity="1" stroke-miterlimit="10" d="M 7.045031 -0.0013125 C 7.045031 3.889313 3.892687 7.045563 -0.00184375 7.045563 C -3.892469 7.045563 -7.044813 3.889313 -7.044813 -0.0013125 C -7.044813 -3.891937 -3.892469 -7.044281 -0.00184375 -7.044281 C 3.892687 -7.044281 7.045031 -3.891937 7.045031 -0.0013125 Z M 7.045031 -0.0013125 " transform="matrix(1, 0, 0, -1, 172.412, 205.819)"/>
</g>
<path fill="none" stroke-width="0.3985" stroke-linecap="butt" stroke-linejoin="miter" stroke="rgb(0%, 0%, 0%)" stroke-opacity="1" stroke-miterlimit="10" d="M -1.729125 -2.471062 L -15.033812 -21.471062 " transform="matrix(1, 0, 0, -1, 30.276, 2.818)"/>
<path fill="none" stroke-width="0.3985" stroke-linecap="butt" stroke-linejoin="miter" stroke="rgb(0%, 0%, 0%)" stroke-opacity="1" stroke-miterlimit="10" d="M 1.731813 -2.471062 L 18.790406 -26.834344 " transform="matrix(1, 0, 0, -1, 30.276, 2.818)"/>
<path fill="none" stroke-width="0.3985" stroke-linecap="butt" stroke-linejoin="miter" stroke="rgb(0%, 0%, 0%)" stroke-opacity="1" stroke-miterlimit="10" d="M 18.790406 -27.974969 L 5.778688 -46.557 " transform="matrix(1, 0, 0, -1, 30.276, 2.818)"/>
<path fill="none" stroke-width="0.3985" stroke-linecap="butt" stroke-linejoin="miter" stroke="rgb(0%, 0%, 0%)" stroke-opacity="1" stroke-miterlimit="10" d="M 19.587281 -27.974969 L 36.352906 -51.920281 " transform="matrix(1, 0, 0, -1, 30.276, 2.818)"/>
<path fill="none" stroke-width="0.3985" stroke-linecap="butt" stroke-linejoin="miter" stroke="rgb(0%, 0%, 0%)" stroke-opacity="1" stroke-miterlimit="10" d="M 36.352906 -53.060906 L 23.345094 -71.642937 " transform="matrix(1, 0, 0, -1, 30.276, 2.818)"/>
<path fill="none" stroke-width="0.3985" stroke-linecap="butt" stroke-linejoin="miter" stroke="rgb(0%, 0%, 0%)" stroke-opacity="1" stroke-miterlimit="10" d="M 37.153688 -53.060906 L 53.915406 -77.006219 " transform="matrix(1, 0, 0, -1, 30.276, 2.818)"/>
<path fill="none" stroke-width="0.3985" stroke-linecap="butt" stroke-linejoin="miter" stroke="rgb(0%, 0%, 0%)" stroke-opacity="1" stroke-miterlimit="10" d="M 53.915406 -78.146844 L 40.907594 -96.728875 " transform="matrix(1, 0, 0, -1, 30.276, 2.818)"/>
<path fill="none" stroke-width="0.3985" stroke-linecap="butt" stroke-linejoin="miter" stroke="rgb(0%, 0%, 0%)" stroke-opacity="1" stroke-miterlimit="10" d="M 54.716188 -78.146844 L 71.481813 -102.092156 " transform="matrix(1, 0, 0, -1, 30.276, 2.818)"/>
<path fill="none" stroke-width="0.3985" stroke-linecap="butt" stroke-linejoin="miter" stroke="rgb(0%, 0%, 0%)" stroke-opacity="1" stroke-miterlimit="10" d="M 71.481813 -103.232781 L 58.474 -121.814812 " transform="matrix(1, 0, 0, -1, 30.276, 2.818)"/>
<path fill="none" stroke-width="0.3985" stroke-linecap="butt" stroke-linejoin="miter" stroke="rgb(0%, 0%, 0%)" stroke-opacity="1" stroke-miterlimit="10" d="M 72.282594 -103.232781 L 89.044313 -127.178094 " transform="matrix(1, 0, 0, -1, 30.276, 2.818)"/>
<path fill="none" stroke-width="0.3985" stroke-linecap="butt" stroke-linejoin="miter" stroke="rgb(0%, 0%, 0%)" stroke-opacity="1" stroke-miterlimit="10" d="M 89.044313 -128.318719 L 76.0365 -146.896844 " transform="matrix(1, 0, 0, -1, 30.276, 2.818)"/>
<path fill="none" stroke-width="0.3985" stroke-linecap="butt" stroke-linejoin="miter" stroke="rgb(0%, 0%, 0%)" stroke-opacity="1" stroke-miterlimit="10" d="M 89.845094 -128.318719 L 106.610719 -152.260125 " transform="matrix(1, 0, 0, -1, 30.276, 2.818)"/>
<path fill="none" stroke-width="0.3985" stroke-linecap="butt" stroke-linejoin="miter" stroke="rgb(0%, 0%, 0%)" stroke-opacity="1" stroke-miterlimit="10" d="M 106.610719 -153.404656 L 93.599 -171.982781 " transform="matrix(1, 0, 0, -1, 30.276, 2.818)"/>
<path fill="none" stroke-width="0.3985" stroke-linecap="butt" stroke-linejoin="miter" stroke="rgb(0%, 0%, 0%)" stroke-opacity="1" stroke-miterlimit="10" d="M 107.4115 -153.404656 L 124.173219 -177.346062 " transform="matrix(1, 0, 0, -1, 30.276, 2.818)"/>
<path fill="none" stroke-width="0.3985" stroke-linecap="butt" stroke-linejoin="miter" stroke="rgb(0%, 0%, 0%)" stroke-opacity="1" stroke-miterlimit="10" d="M 124.173219 -178.490594 L 111.165406 -197.068719 " transform="matrix(1, 0, 0, -1, 30.276, 2.818)"/>
<path fill="none" stroke-width="0.3985" stroke-linecap="butt" stroke-linejoin="miter" stroke="rgb(0%, 0%, 0%)" stroke-opacity="1" stroke-miterlimit="10" d="M 124.974 -178.490594 L 137.981812 -197.068719 " transform="matrix(1, 0, 0, -1, 30.276, 2.818)"/>
</svg>
