<?xml version="1.0" encoding="UTF-8"?>
<svg xmlns="http://www.w3.org/2000/svg" xmlns:xlink="http://www.w3.org/1999/xlink" width="161.885" height="168.172" viewBox="0 0 161.885 168.172">
<defs>
<clipPath id="clip-0">
<path clip-rule="nonzero" d="M 62 148 L 88 148 L 88 168.171875 L 62 168.171875 Z M 62 148 "/>
</clipPath>
<clipPath id="clip-1">
<path clip-rule="nonzero" d="M 97 148 L 124 148 L 124 168.171875 L 97 168.171875 Z M 97 148 "/>
</clipPath>
<clipPath id="clip-2">
<path clip-rule="nonzero" d="M 138 123 L 161.886719 123 L 161.886719 149 L 138 149 Z M 138 123 "/>
</clipPath>
</defs>
<path fill-rule="nonzero" fill="rgb(0%, 0%, 0%)" fill-opacity="1" d="M 60.476562 2.816406 C 60.476562 1.261719 59.214844 0 57.65625 0 C 56.101562 0 54.839844 1.261719 54.839844 2.816406 C 54.839844 4.375 56.101562 5.636719 57.65625 5.636719 C 59.214844 5.636719 60.476562 4.375 60.476562 2.816406 Z M 60.476562 2.816406 "/>
<path fill-rule="nonzero" fill="rgb(0%, 0%, 0%)" fill-opacity="1" d="M 29.148438 44.246094 C 29.148438 43.96875 28.925781 43.746094 28.652344 43.746094 C 28.375 43.746094 28.152344 43.96875 28.152344 44.246094 C 28.152344 44.519531 28.375 44.742188 28.652344 44.742188 C 28.925781 44.742188 29.148438 44.519531 29.148438 44.246094 Z M 29.148438 44.246094 "/>
<path fill-rule="nonzero" fill="rgb(79.998779%, 79.998779%, 79.998779%)" fill-opacity="1" stroke-width="0.3985" stroke-linecap="butt" stroke-linejoin="miter" stroke="rgb(0%, 0%, 0%)" stroke-opacity="1" stroke-miterlimit="10" d="M 7.045813 0.001875 C 7.045813 3.8925 3.889563 7.044844 -0.0010625 7.044844 C -3.891687 7.044844 -7.044031 3.8925 -7.044031 0.001875 C -7.044031 -3.892656 -3.891687 -7.045 -0.0010625 -7.045 C 3.889563 -7.045 7.045813 -3.892656 7.045813 0.001875 Z M 7.045813 0.001875 " transform="matrix(1, 0, 0, -1, 11.087, 69.33)"/>
<path fill-rule="nonzero" fill="rgb(79.998779%, 79.998779%, 79.998779%)" fill-opacity="1" stroke-width="0.3985" stroke-linecap="butt" stroke-linejoin="miter" stroke="rgb(0%, 0%, 0%)" stroke-opacity="1" stroke-miterlimit="10" d="M 7.046719 0.001875 C 7.046719 3.8925 3.890469 7.044844 -0.00015625 7.044844 C -3.890781 7.044844 -7.047031 3.8925 -7.047031 0.001875 C -7.047031 -3.892656 -3.890781 -7.045 -0.00015625 -7.045 C 3.890469 -7.045 7.046719 -3.892656 7.046719 0.001875 Z M 7.046719 0.001875 " transform="matrix(1, 0, 0, -1, 46.215, 69.33)"/>
<path fill-rule="nonzero" fill="rgb(0%, 0%, 0%)" fill-opacity="1" d="M 87.160156 44.246094 C 87.160156 43.96875 86.9375 43.746094 86.664062 43.746094 C 86.386719 43.746094 86.164062 43.96875 86.164062 44.246094 C 86.164062 44.519531 86.386719 44.742188 86.664062 44.742188 C 86.9375 44.742188 87.160156 44.519531 87.160156 44.246094 Z M 87.160156 44.246094 "/>
<path fill-rule="nonzero" fill="rgb(0%, 0%, 0%)" fill-opacity="1" d="M 58.152344 85.671875 C 58.152344 85.398438 57.929688 85.175781 57.65625 85.175781 C 57.382812 85.175781 57.15625 85.398438 57.15625 85.671875 C 57.15625 85.945312 57.382812 86.171875 57.65625 86.171875 C 57.929688 86.171875 58.152344 85.945312 58.152344 85.671875 Z M 58.152344 85.671875 "/>
<path fill-rule="nonzero" fill="rgb(79.998779%, 79.998779%, 79.998779%)" fill-opacity="1" stroke-width="0.3985" stroke-linecap="butt" stroke-linejoin="miter" stroke="rgb(0%, 0%, 0%)" stroke-opacity="1" stroke-miterlimit="10" d="M 7.044719 -0.0008125 C 7.044719 3.889812 3.892375 7.046062 0.00175 7.046062 C -3.892781 7.046062 -7.045125 3.889812 -7.045125 -0.0008125 C -7.045125 -3.891438 -3.892781 -7.043781 0.00175 -7.043781 C 3.892375 -7.043781 7.044719 -3.891438 7.044719 -0.0008125 Z M 7.044719 -0.0008125 " transform="matrix(1, 0, 0, -1, 40.092, 110.757)"/>
<path fill-rule="nonzero" fill="rgb(0%, 0%, 0%)" fill-opacity="1" d="M 75.71875 110.757812 C 75.71875 110.480469 75.496094 110.257812 75.21875 110.257812 C 74.945312 110.257812 74.722656 110.480469 74.722656 110.757812 C 74.722656 111.03125 74.945312 111.253906 75.21875 111.253906 C 75.496094 111.253906 75.71875 111.03125 75.71875 110.757812 Z M 75.71875 110.757812 "/>
<path fill-rule="nonzero" fill="rgb(79.998779%, 79.998779%, 79.998779%)" fill-opacity="1" stroke-width="0.3985" stroke-linecap="butt" stroke-linejoin="miter" stroke="rgb(0%, 0%, 0%)" stroke-opacity="1" stroke-miterlimit="10" d="M 7.047125 -0.00175 C 7.047125 3.892781 3.890875 7.045125 0.00025 7.045125 C -3.890375 7.045125 -7.046625 3.892781 -7.046625 -0.00175 C -7.046625 -3.892375 -3.890375 -7.044719 0.00025 -7.044719 C 3.890875 -7.044719 7.047125 -3.892375 7.047125 -0.00175 Z M 7.047125 -0.00175 " transform="matrix(1, 0, 0, -1, 57.656, 135.842)"/>
<path fill-rule="nonzero" fill="rgb(0%, 0%, 0%)" fill-opacity="1" d="M 93.28125 135.84375 C 93.28125 135.566406 93.058594 135.34375 92.785156 135.34375 C 92.507812 135.34375 92.285156 135.566406 92.285156 135.84375 C 92.285156 136.117188 92.507812 136.339844 92.785156 136.339844 C 93.058594 136.339844 93.28125 136.117188 93.28125 135.84375 Z M 93.28125 135.84375 "/>
<path fill-rule="nonzero" fill="rgb(79.998779%, 79.998779%, 79.998779%)" fill-opacity="1" d="M 82.265625 160.925781 C 82.265625 157.035156 79.109375 153.882812 75.21875 153.882812 C 71.328125 153.882812 68.175781 157.035156 68.175781 160.925781 C 68.175781 164.816406 71.328125 167.972656 75.21875 167.972656 C 79.109375 167.972656 82.265625 164.816406 82.265625 160.925781 Z M 82.265625 160.925781 "/>
<g clip-path="url(#clip-0)">
<path fill="none" stroke-width="0.3985" stroke-linecap="butt" stroke-linejoin="miter" stroke="rgb(0%, 0%, 0%)" stroke-opacity="1" stroke-miterlimit="10" d="M 7.045625 0.00121875 C 7.045625 3.891844 3.889375 7.044187 -0.00125 7.044187 C -3.891875 7.044187 -7.044219 3.891844 -7.044219 0.00121875 C -7.044219 -3.889406 -3.891875 -7.045656 -0.00125 -7.045656 C 3.889375 -7.045656 7.045625 -3.889406 7.045625 0.00121875 Z M 7.045625 0.00121875 " transform="matrix(1, 0, 0, -1, 75.22, 160.927)"/>
</g>
<path fill-rule="nonzero" fill="rgb(79.998779%, 79.998779%, 79.998779%)" fill-opacity="1" d="M 117.394531 160.925781 C 117.394531 157.035156 114.238281 153.882812 110.347656 153.882812 C 106.457031 153.882812 103.300781 157.035156 103.300781 160.925781 C 103.300781 164.816406 106.457031 167.972656 110.347656 167.972656 C 114.238281 167.972656 117.394531 164.816406 117.394531 160.925781 Z M 117.394531 160.925781 "/>
<g clip-path="url(#clip-1)">
<path fill="none" stroke-width="0.3985" stroke-linecap="butt" stroke-linejoin="miter" stroke="rgb(0%, 0%, 0%)" stroke-opacity="1" stroke-miterlimit="10" d="M 7.046531 0.00121875 C 7.046531 3.891844 3.890281 7.044187 -0.00034375 7.044187 C -3.890969 7.044187 -7.047219 3.891844 -7.047219 0.00121875 C -7.047219 -3.889406 -3.890969 -7.045656 -0.00034375 -7.045656 C 3.890281 -7.045656 7.046531 -3.889406 7.046531 0.00121875 Z M 7.046531 0.00121875 " transform="matrix(1, 0, 0, -1, 110.348, 160.927)"/>
</g>
<path fill-rule="nonzero" fill="rgb(0%, 0%, 0%)" fill-opacity="1" d="M 116.167969 85.671875 C 116.167969 85.398438 115.945312 85.175781 115.667969 85.175781 C 115.394531 85.175781 115.171875 85.398438 115.171875 85.671875 C 115.171875 85.945312 115.394531 86.171875 115.667969 86.171875 C 115.945312 86.171875 116.167969 85.945312 116.167969 85.671875 Z M 116.167969 85.671875 "/>
<path fill-rule="nonzero" fill="rgb(79.998779%, 79.998779%, 79.998779%)" fill-opacity="1" stroke-width="0.3985" stroke-linecap="butt" stroke-linejoin="miter" stroke="rgb(0%, 0%, 0%)" stroke-opacity="1" stroke-miterlimit="10" d="M 7.047344 -0.0008125 C 7.047344 3.889812 3.891094 7.046062 0.00046875 7.046062 C -3.890156 7.046062 -7.046406 3.889812 -7.046406 -0.0008125 C -7.046406 -3.891438 -3.890156 -7.043781 0.00046875 -7.043781 C 3.891094 -7.043781 7.047344 -3.891438 7.047344 -0.0008125 Z M 7.047344 -0.0008125 " transform="matrix(1, 0, 0, -1, 98.105, 110.757)"/>
<path fill-rule="nonzero" fill="rgb(0%, 0%, 0%)" fill-opacity="1" d="M 133.730469 110.757812 C 133.730469 110.480469 133.507812 110.257812 133.234375 110.257812 C 132.957031 110.257812 132.734375 110.480469 132.734375 110.757812 C 132.734375 111.03125 132.957031 111.253906 133.234375 111.253906 C 133.507812 111.253906 133.730469 111.03125 133.730469 110.757812 Z M 133.730469 110.757812 "/>
<path fill-rule="nonzero" fill="rgb(79.998779%, 79.998779%, 79.998779%)" fill-opacity="1" stroke-width="0.3985" stroke-linecap="butt" stroke-linejoin="miter" stroke="rgb(0%, 0%, 0%)" stroke-opacity="1" stroke-miterlimit="10" d="M 7.045844 -0.00175 C 7.045844 3.892781 3.889594 7.045125 -0.00103125 7.045125 C -3.891656 7.045125 -7.044 3.892781 -7.044 -0.00175 C -7.044 -3.892375 -3.891656 -7.044719 -0.00103125 -7.044719 C 3.889594 -7.044719 7.045844 -3.892375 7.045844 -0.00175 Z M 7.045844 -0.00175 " transform="matrix(1, 0, 0, -1, 115.669, 135.842)"/>
<path fill-rule="nonzero" fill="rgb(79.998779%, 79.998779%, 79.998779%)" fill-opacity="1" d="M 157.84375 135.84375 C 157.84375 131.949219 154.6875 128.796875 150.796875 128.796875 C 146.90625 128.796875 143.75 131.949219 143.75 135.84375 C 143.75 139.734375 146.90625 142.886719 150.796875 142.886719 C 154.6875 142.886719 157.84375 139.734375 157.84375 135.84375 Z M 157.84375 135.84375 "/>
<g clip-path="url(#clip-2)">
<path fill="none" stroke-width="0.3985" stroke-linecap="butt" stroke-linejoin="miter" stroke="rgb(0%, 0%, 0%)" stroke-opacity="1" stroke-miterlimit="10" d="M 7.04675 -0.00175 C 7.04675 3.892781 3.8905 7.045125 -0.000125 7.045125 C -3.89075 7.045125 -7.047 3.892781 -7.047 -0.00175 C -7.047 -3.892375 -3.89075 -7.044719 -0.000125 -7.044719 C 3.8905 -7.044719 7.04675 -3.892375 7.04675 -0.00175 Z M 7.04675 -0.00175 " transform="matrix(1, 0, 0, -1, 150.797, 135.842)"/>
</g>
<path fill="none" stroke-width="0.3985" stroke-linecap="butt" stroke-linejoin="miter" stroke="rgb(0%, 0%, 0%)" stroke-opacity="1" stroke-miterlimit="10" d="M -1.731219 -2.471063 L -28.606219 -40.853875 " transform="matrix(1, 0, 0, -1, 57.657, 2.818)"/>
<path fill="none" stroke-width="0.3985" stroke-linecap="butt" stroke-linejoin="miter" stroke="rgb(0%, 0%, 0%)" stroke-opacity="1" stroke-miterlimit="10" d="M -29.407 -41.998406 L -42.414812 -60.576531 " transform="matrix(1, 0, 0, -1, 57.657, 2.818)"/>
<path fill="none" stroke-width="0.3985" stroke-linecap="butt" stroke-linejoin="miter" stroke="rgb(0%, 0%, 0%)" stroke-opacity="1" stroke-miterlimit="10" d="M -28.606219 -41.998406 L -15.598406 -60.576531 " transform="matrix(1, 0, 0, -1, 57.657, 2.818)"/>
<path fill="none" stroke-width="0.3985" stroke-linecap="butt" stroke-linejoin="miter" stroke="rgb(0%, 0%, 0%)" stroke-opacity="1" stroke-miterlimit="10" d="M 1.729719 -2.471063 L 28.604719 -40.853875 " transform="matrix(1, 0, 0, -1, 57.657, 2.818)"/>
<path fill="none" stroke-width="0.3985" stroke-linecap="butt" stroke-linejoin="miter" stroke="rgb(0%, 0%, 0%)" stroke-opacity="1" stroke-miterlimit="10" d="M 28.604719 -41.998406 L 0.397688 -82.283563 " transform="matrix(1, 0, 0, -1, 57.657, 2.818)"/>
<path fill="none" stroke-width="0.3985" stroke-linecap="butt" stroke-linejoin="miter" stroke="rgb(0%, 0%, 0%)" stroke-opacity="1" stroke-miterlimit="10" d="M -0.399187 -83.424188 L -13.410906 -102.006219 " transform="matrix(1, 0, 0, -1, 57.657, 2.818)"/>
<path fill="none" stroke-width="0.3985" stroke-linecap="butt" stroke-linejoin="miter" stroke="rgb(0%, 0%, 0%)" stroke-opacity="1" stroke-miterlimit="10" d="M 0.397688 -83.424188 L 17.163313 -107.3695 " transform="matrix(1, 0, 0, -1, 57.657, 2.818)"/>
<path fill="none" stroke-width="0.3985" stroke-linecap="butt" stroke-linejoin="miter" stroke="rgb(0%, 0%, 0%)" stroke-opacity="1" stroke-miterlimit="10" d="M 17.163313 -108.510125 L 4.1555 -127.092156 " transform="matrix(1, 0, 0, -1, 57.657, 2.818)"/>
<path fill="none" stroke-width="0.3985" stroke-linecap="butt" stroke-linejoin="miter" stroke="rgb(0%, 0%, 0%)" stroke-opacity="1" stroke-miterlimit="10" d="M 17.964094 -108.510125 L 34.725813 -132.455438 " transform="matrix(1, 0, 0, -1, 57.657, 2.818)"/>
<path fill="none" stroke-width="0.3985" stroke-linecap="butt" stroke-linejoin="miter" stroke="rgb(0%, 0%, 0%)" stroke-opacity="1" stroke-miterlimit="10" d="M 34.725813 -133.596063 L 21.718 -152.178094 " transform="matrix(1, 0, 0, -1, 57.657, 2.818)"/>
<path fill="none" stroke-width="0.3985" stroke-linecap="butt" stroke-linejoin="miter" stroke="rgb(0%, 0%, 0%)" stroke-opacity="1" stroke-miterlimit="10" d="M 35.526594 -133.596063 L 48.538313 -152.178094 " transform="matrix(1, 0, 0, -1, 57.657, 2.818)"/>
<path fill="none" stroke-width="0.3985" stroke-linecap="butt" stroke-linejoin="miter" stroke="rgb(0%, 0%, 0%)" stroke-opacity="1" stroke-miterlimit="10" d="M 29.4055 -41.998406 L 57.612531 -82.283563 " transform="matrix(1, 0, 0, -1, 57.657, 2.818)"/>
<path fill="none" stroke-width="0.3985" stroke-linecap="butt" stroke-linejoin="miter" stroke="rgb(0%, 0%, 0%)" stroke-opacity="1" stroke-miterlimit="10" d="M 57.612531 -83.424188 L 44.604719 -102.006219 " transform="matrix(1, 0, 0, -1, 57.657, 2.818)"/>
<path fill="none" stroke-width="0.3985" stroke-linecap="butt" stroke-linejoin="miter" stroke="rgb(0%, 0%, 0%)" stroke-opacity="1" stroke-miterlimit="10" d="M 58.413313 -83.424188 L 75.178938 -107.3695 " transform="matrix(1, 0, 0, -1, 57.657, 2.818)"/>
<path fill="none" stroke-width="0.3985" stroke-linecap="butt" stroke-linejoin="miter" stroke="rgb(0%, 0%, 0%)" stroke-opacity="1" stroke-miterlimit="10" d="M 75.178938 -108.510125 L 62.167219 -127.092156 " transform="matrix(1, 0, 0, -1, 57.657, 2.818)"/>
<path fill="none" stroke-width="0.3985" stroke-linecap="butt" stroke-linejoin="miter" stroke="rgb(0%, 0%, 0%)" stroke-opacity="1" stroke-miterlimit="10" d="M 75.975813 -108.510125 L 88.987531 -127.092156 " transform="matrix(1, 0, 0, -1, 57.657, 2.818)"/>
</svg>
