<?xml version="1.0" encoding="UTF-8"?>
<svg xmlns="http://www.w3.org/2000/svg" xmlns:xlink="http://www.w3.org/1999/xlink" width="156.221" height="199.703" viewBox="0 0 156.221 199.703">
<defs>
<clipPath id="clip-0">
<path clip-rule="nonzero" d="M 102 185 L 118 185 L 118 199.703125 L 102 199.703125 Z M 102 185 "/>
</clipPath>
<clipPath id="clip-1">
<path clip-rule="nonzero" d="M 97 179 L 123 179 L 123 199.703125 L 97 199.703125 Z M 97 179 "/>
</clipPath>
<clipPath id="clip-2">
<path clip-rule="nonzero" d="M 138 185 L 153 185 L 153 199.703125 L 138 199.703125 Z M 138 185 "/>
</clipPath>
<clipPath id="clip-3">
<path clip-rule="nonzero" d="M 132 179 L 156.222656 179 L 156.222656 199.703125 L 132 199.703125 Z M 132 179 "/>
</clipPath>
</defs>
<path fill-rule="nonzero" fill="rgb(0%, 0%, 0%)" fill-opacity="1" d="M 73.183594 2.816406 C 73.183594 1.261719 71.921875 0 70.363281 0 C 68.808594 0 67.546875 1.261719 67.546875 2.816406 C 67.546875 4.375 68.808594 5.636719 70.363281 5.636719 C 71.921875 5.636719 73.183594 4.375 73.183594 2.816406 Z M 73.183594 2.816406 "/>
<path fill-rule="nonzero" fill="rgb(79.998779%, 79.998779%, 79.998779%)" fill-opacity="1" stroke-width="0.3985" stroke-linecap="butt" stroke-linejoin="miter" stroke="rgb(0%, 0%, 0%)" stroke-opacity="1" stroke-miterlimit="10" d="M 7.046656 0.00034375 C 7.046656 3.890969 3.890406 7.047219 -0.00021875 7.047219 C -3.890844 7.047219 -7.047094 3.890969 -7.047094 0.00034375 C -7.047094 -3.890281 -3.890844 -7.046531 -0.00021875 -7.046531 C 3.890406 -7.046531 7.046656 -3.890281 7.046656 0.00034375 Z M 7.046656 0.00034375 " transform="matrix(1, 0, 0, -1, 51.176, 30.223)"/>
<path fill-rule="nonzero" fill="rgb(0%, 0%, 0%)" fill-opacity="1" d="M 90.050781 30.222656 C 90.050781 29.949219 89.828125 29.726562 89.554688 29.726562 C 89.277344 29.726562 89.054688 29.949219 89.054688 30.222656 C 89.054688 30.5 89.277344 30.722656 89.554688 30.722656 C 89.828125 30.722656 90.050781 30.5 90.050781 30.222656 Z M 90.050781 30.222656 "/>
<path fill-rule="nonzero" fill="rgb(0%, 0%, 0%)" fill-opacity="1" d="M 61.046875 71.648438 C 61.046875 71.375 60.820312 71.152344 60.546875 71.152344 C 60.273438 71.152344 60.050781 71.375 60.050781 71.648438 C 60.050781 71.925781 60.273438 72.148438 60.546875 72.148438 C 60.820312 72.148438 61.046875 71.925781 61.046875 71.648438 Z M 61.046875 71.648438 "/>
<path fill-rule="nonzero" fill="rgb(0%, 0%, 0%)" fill-opacity="1" d="M 29.148438 117.203125 C 29.148438 116.929688 28.925781 116.703125 28.652344 116.703125 C 28.375 116.703125 28.152344 116.929688 28.152344 117.203125 C 28.152344 117.476562 28.375 117.699219 28.652344 117.699219 C 28.925781 117.699219 29.148438 117.476562 29.148438 117.203125 Z M 29.148438 117.203125 "/>
<path fill-rule="nonzero" fill="rgb(79.998779%, 79.998779%, 79.998779%)" fill-opacity="1" stroke-width="0.3985" stroke-linecap="butt" stroke-linejoin="miter" stroke="rgb(0%, 0%, 0%)" stroke-opacity="1" stroke-miterlimit="10" d="M 7.045812 -0.0010625 C 7.045812 3.889562 3.889562 7.045812 -0.0010625 7.045812 C -3.891688 7.045812 -7.044031 3.889562 -7.044031 -0.0010625 C -7.044031 -3.891688 -3.891688 -7.044031 -0.0010625 -7.044031 C 3.889562 -7.044031 7.045812 -3.891688 7.045812 -0.0010625 Z M 7.045812 -0.0010625 " transform="matrix(1, 0, 0, -1, 11.087, 142.288)"/>
<path fill-rule="nonzero" fill="rgb(79.998779%, 79.998779%, 79.998779%)" fill-opacity="1" stroke-width="0.3985" stroke-linecap="butt" stroke-linejoin="miter" stroke="rgb(0%, 0%, 0%)" stroke-opacity="1" stroke-miterlimit="10" d="M 7.046719 -0.0010625 C 7.046719 3.889562 3.890469 7.045812 -0.00015625 7.045812 C -3.890781 7.045812 -7.047031 3.889562 -7.047031 -0.0010625 C -7.047031 -3.891688 -3.890781 -7.044031 -0.00015625 -7.044031 C 3.890469 -7.044031 7.046719 -3.891688 7.046719 -0.0010625 Z M 7.046719 -0.0010625 " transform="matrix(1, 0, 0, -1, 46.215, 142.288)"/>
<path fill-rule="nonzero" fill="rgb(0%, 0%, 0%)" fill-opacity="1" d="M 92.941406 117.203125 C 92.941406 116.929688 92.71875 116.703125 92.441406 116.703125 C 92.167969 116.703125 91.945312 116.929688 91.945312 117.203125 C 91.945312 117.476562 92.167969 117.699219 92.441406 117.699219 C 92.71875 117.699219 92.941406 117.476562 92.941406 117.203125 Z M 92.941406 117.203125 "/>
<path fill-rule="nonzero" fill="rgb(79.998779%, 79.998779%, 79.998779%)" fill-opacity="1" stroke-width="0.3985" stroke-linecap="butt" stroke-linejoin="miter" stroke="rgb(0%, 0%, 0%)" stroke-opacity="1" stroke-miterlimit="10" d="M 7.043875 -0.0010625 C 7.043875 3.889562 3.891531 7.045812 0.00090625 7.045812 C -3.889719 7.045812 -7.045969 3.889562 -7.045969 -0.0010625 C -7.045969 -3.891688 -3.889719 -7.044031 0.00090625 -7.044031 C 3.891531 -7.044031 7.043875 -3.891688 7.043875 -0.0010625 Z M 7.043875 -0.0010625 " transform="matrix(1, 0, 0, -1, 74.878, 142.288)"/>
<path fill-rule="nonzero" fill="rgb(0%, 0%, 0%)" fill-opacity="1" d="M 110.503906 142.289062 C 110.503906 142.011719 110.28125 141.789062 110.007812 141.789062 C 109.730469 141.789062 109.507812 142.011719 109.507812 142.289062 C 109.507812 142.5625 109.730469 142.785156 110.007812 142.785156 C 110.28125 142.785156 110.503906 142.5625 110.503906 142.289062 Z M 110.503906 142.289062 "/>
<path fill-rule="nonzero" fill="rgb(79.998779%, 79.998779%, 79.998779%)" fill-opacity="1" stroke-width="0.3985" stroke-linecap="butt" stroke-linejoin="miter" stroke="rgb(0%, 0%, 0%)" stroke-opacity="1" stroke-miterlimit="10" d="M 7.046281 0.00190625 C 7.046281 3.892531 3.890031 7.044875 -0.00059375 7.044875 C -3.891219 7.044875 -7.043563 3.892531 -7.043563 0.00190625 C -7.043563 -3.892625 -3.891219 -7.044969 -0.00059375 -7.044969 C 3.890031 -7.044969 7.046281 -3.892625 7.046281 0.00190625 Z M 7.046281 0.00190625 " transform="matrix(1, 0, 0, -1, 92.442, 167.373)"/>
<path fill-rule="nonzero" fill="rgb(0%, 0%, 0%)" fill-opacity="1" d="M 128.066406 167.371094 C 128.066406 167.097656 127.84375 166.875 127.570312 166.875 C 127.292969 166.875 127.070312 167.097656 127.070312 167.371094 C 127.070312 167.648438 127.292969 167.871094 127.570312 167.871094 C 127.84375 167.871094 128.066406 167.648438 128.066406 167.371094 Z M 128.066406 167.371094 "/>
<g clip-path="url(#clip-0)">
<path fill-rule="nonzero" fill="rgb(79.998779%, 79.998779%, 79.998779%)" fill-opacity="1" d="M 117.050781 192.457031 C 117.050781 188.566406 113.898438 185.414062 110.007812 185.414062 C 106.113281 185.414062 102.960938 188.566406 102.960938 192.457031 C 102.960938 196.347656 106.113281 199.503906 110.007812 199.503906 C 113.898438 199.503906 117.050781 196.347656 117.050781 192.457031 Z M 117.050781 192.457031 "/>
</g>
<g clip-path="url(#clip-1)">
<path fill="none" stroke-width="0.3985" stroke-linecap="butt" stroke-linejoin="miter" stroke="rgb(0%, 0%, 0%)" stroke-opacity="1" stroke-miterlimit="10" d="M 7.044781 0.00096875 C 7.044781 3.891594 3.892437 7.043937 0.0018125 7.043937 C -3.892719 7.043937 -7.045063 3.891594 -7.045063 0.00096875 C -7.045063 -3.889656 -3.892719 -7.045906 0.0018125 -7.045906 C 3.892437 -7.045906 7.044781 -3.889656 7.044781 0.00096875 Z M 7.044781 0.00096875 " transform="matrix(1, 0, 0, -1, 110.006, 192.458)"/>
</g>
<g clip-path="url(#clip-2)">
<path fill-rule="nonzero" fill="rgb(79.998779%, 79.998779%, 79.998779%)" fill-opacity="1" d="M 152.179688 192.457031 C 152.179688 188.566406 149.023438 185.414062 145.132812 185.414062 C 141.242188 185.414062 138.089844 188.566406 138.089844 192.457031 C 138.089844 196.347656 141.242188 199.503906 145.132812 199.503906 C 149.023438 199.503906 152.179688 196.347656 152.179688 192.457031 Z M 152.179688 192.457031 "/>
</g>
<g clip-path="url(#clip-3)">
<path fill="none" stroke-width="0.3985" stroke-linecap="butt" stroke-linejoin="miter" stroke="rgb(0%, 0%, 0%)" stroke-opacity="1" stroke-miterlimit="10" d="M 7.045687 0.00096875 C 7.045687 3.891594 3.889437 7.043937 -0.0011875 7.043937 C -3.891813 7.043937 -7.044156 3.891594 -7.044156 0.00096875 C -7.044156 -3.889656 -3.891813 -7.045906 -0.0011875 -7.045906 C 3.889437 -7.045906 7.045687 -3.889656 7.045687 0.00096875 Z M 7.045687 0.00096875 " transform="matrix(1, 0, 0, -1, 145.134, 192.458)"/>
</g>
<path fill-rule="nonzero" fill="rgb(0%, 0%, 0%)" fill-opacity="1" d="M 119.054688 71.648438 C 119.054688 71.375 118.832031 71.152344 118.558594 71.152344 C 118.28125 71.152344 118.058594 71.375 118.058594 71.648438 C 118.058594 71.925781 118.28125 72.148438 118.558594 72.148438 C 118.832031 72.148438 119.054688 71.925781 119.054688 71.648438 Z M 119.054688 71.648438 "/>
<path fill-rule="nonzero" fill="rgb(79.998779%, 79.998779%, 79.998779%)" fill-opacity="1" stroke-width="0.3985" stroke-linecap="butt" stroke-linejoin="miter" stroke="rgb(0%, 0%, 0%)" stroke-opacity="1" stroke-miterlimit="10" d="M 7.045063 0.000625 C 7.045063 3.89125 3.892719 7.043594 -0.0018125 7.043594 C -3.892437 7.043594 -7.044781 3.89125 -7.044781 0.000625 C -7.044781 -3.89 -3.892437 -7.04625 -0.0018125 -7.04625 C 3.892719 -7.04625 7.045063 -3.89 7.045063 0.000625 Z M 7.045063 0.000625 " transform="matrix(1, 0, 0, -1, 100.994, 96.735)"/>
<path fill-rule="nonzero" fill="rgb(79.998779%, 79.998779%, 79.998779%)" fill-opacity="1" stroke-width="0.3985" stroke-linecap="butt" stroke-linejoin="miter" stroke="rgb(0%, 0%, 0%)" stroke-opacity="1" stroke-miterlimit="10" d="M 7.044969 0.000625 C 7.044969 3.89125 3.892625 7.043594 -0.00190625 7.043594 C -3.892531 7.043594 -7.044875 3.89125 -7.044875 0.000625 C -7.044875 -3.89 -3.892531 -7.04625 -0.00190625 -7.04625 C 3.892625 -7.04625 7.044969 -3.89 7.044969 0.000625 Z M 7.044969 0.000625 " transform="matrix(1, 0, 0, -1, 136.123, 96.735)"/>
<path fill="none" stroke-width="0.3985" stroke-linecap="butt" stroke-linejoin="miter" stroke="rgb(0%, 0%, 0%)" stroke-opacity="1" stroke-miterlimit="10" d="M -1.731188 -2.471063 L -15.031969 -21.471063 " transform="matrix(1, 0, 0, -1, 70.364, 2.818)"/>
<path fill="none" stroke-width="0.3985" stroke-linecap="butt" stroke-linejoin="miter" stroke="rgb(0%, 0%, 0%)" stroke-opacity="1" stroke-miterlimit="10" d="M 1.72975 -2.471063 L 18.788344 -26.834344 " transform="matrix(1, 0, 0, -1, 70.364, 2.818)"/>
<path fill="none" stroke-width="0.3985" stroke-linecap="butt" stroke-linejoin="miter" stroke="rgb(0%, 0%, 0%)" stroke-opacity="1" stroke-miterlimit="10" d="M 18.788344 -27.974969 L -9.418688 -68.260125 " transform="matrix(1, 0, 0, -1, 70.364, 2.818)"/>
<path fill="none" stroke-width="0.3985" stroke-linecap="butt" stroke-linejoin="miter" stroke="rgb(0%, 0%, 0%)" stroke-opacity="1" stroke-miterlimit="10" d="M -10.219469 -69.404656 L -41.313219 -113.814813 " transform="matrix(1, 0, 0, -1, 70.364, 2.818)"/>
<path fill="none" stroke-width="0.3985" stroke-linecap="butt" stroke-linejoin="miter" stroke="rgb(0%, 0%, 0%)" stroke-opacity="1" stroke-miterlimit="10" d="M -42.114 -114.955438 L -55.121813 -133.537469 " transform="matrix(1, 0, 0, -1, 70.364, 2.818)"/>
<path fill="none" stroke-width="0.3985" stroke-linecap="butt" stroke-linejoin="miter" stroke="rgb(0%, 0%, 0%)" stroke-opacity="1" stroke-miterlimit="10" d="M -41.313219 -114.955438 L -28.305406 -133.537469 " transform="matrix(1, 0, 0, -1, 70.364, 2.818)"/>
<path fill="none" stroke-width="0.3985" stroke-linecap="butt" stroke-linejoin="miter" stroke="rgb(0%, 0%, 0%)" stroke-opacity="1" stroke-miterlimit="10" d="M -9.418688 -69.404656 L 21.678969 -113.814813 " transform="matrix(1, 0, 0, -1, 70.364, 2.818)"/>
<path fill="none" stroke-width="0.3985" stroke-linecap="butt" stroke-linejoin="miter" stroke="rgb(0%, 0%, 0%)" stroke-opacity="1" stroke-miterlimit="10" d="M 21.678969 -114.955438 L 8.66725 -133.537469 " transform="matrix(1, 0, 0, -1, 70.364, 2.818)"/>
<path fill="none" stroke-width="0.3985" stroke-linecap="butt" stroke-linejoin="miter" stroke="rgb(0%, 0%, 0%)" stroke-opacity="1" stroke-miterlimit="10" d="M 22.47975 -114.955438 L 39.241469 -138.90075 " transform="matrix(1, 0, 0, -1, 70.364, 2.818)"/>
<path fill="none" stroke-width="0.3985" stroke-linecap="butt" stroke-linejoin="miter" stroke="rgb(0%, 0%, 0%)" stroke-opacity="1" stroke-miterlimit="10" d="M 39.241469 -140.041375 L 26.233656 -158.623406 " transform="matrix(1, 0, 0, -1, 70.364, 2.818)"/>
<path fill="none" stroke-width="0.3985" stroke-linecap="butt" stroke-linejoin="miter" stroke="rgb(0%, 0%, 0%)" stroke-opacity="1" stroke-miterlimit="10" d="M 40.04225 -140.041375 L 56.807875 -163.986688 " transform="matrix(1, 0, 0, -1, 70.364, 2.818)"/>
<path fill="none" stroke-width="0.3985" stroke-linecap="butt" stroke-linejoin="miter" stroke="rgb(0%, 0%, 0%)" stroke-opacity="1" stroke-miterlimit="10" d="M 56.807875 -165.127313 L 43.796156 -183.709344 " transform="matrix(1, 0, 0, -1, 70.364, 2.818)"/>
<path fill="none" stroke-width="0.3985" stroke-linecap="butt" stroke-linejoin="miter" stroke="rgb(0%, 0%, 0%)" stroke-opacity="1" stroke-miterlimit="10" d="M 57.60475 -165.127313 L 70.616469 -183.709344 " transform="matrix(1, 0, 0, -1, 70.364, 2.818)"/>
<path fill="none" stroke-width="0.3985" stroke-linecap="butt" stroke-linejoin="miter" stroke="rgb(0%, 0%, 0%)" stroke-opacity="1" stroke-miterlimit="10" d="M 19.589125 -27.974969 L 47.796156 -68.260125 " transform="matrix(1, 0, 0, -1, 70.364, 2.818)"/>
<path fill="none" stroke-width="0.3985" stroke-linecap="butt" stroke-linejoin="miter" stroke="rgb(0%, 0%, 0%)" stroke-opacity="1" stroke-miterlimit="10" d="M 47.796156 -69.404656 L 34.784437 -87.982781 " transform="matrix(1, 0, 0, -1, 70.364, 2.818)"/>
<path fill="none" stroke-width="0.3985" stroke-linecap="butt" stroke-linejoin="miter" stroke="rgb(0%, 0%, 0%)" stroke-opacity="1" stroke-miterlimit="10" d="M 48.593031 -69.404656 L 61.60475 -87.982781 " transform="matrix(1, 0, 0, -1, 70.364, 2.818)"/>
</svg>
