<?xml version="1.0" encoding="UTF-8"?>
<svg xmlns="http://www.w3.org/2000/svg" xmlns:xlink="http://www.w3.org/1999/xlink" width="120.27pt" height="90.677pt" viewBox="0 0 120.27 90.677">
<defs>
<g>
<g id="glyph-0-0">
<path d="M 2.9375 -6.375 C 2.9375 -6.625 2.9375 -6.640625 2.703125 -6.640625 C 2.078125 -6 1.203125 -6 0.890625 -6 L 0.890625 -5.6875 C 1.09375 -5.6875 1.671875 -5.6875 2.1875 -5.953125 L 2.1875 -0.78125 C 2.1875 -0.421875 2.15625 -0.3125 1.265625 -0.3125 L 0.953125 -0.3125 L 0.953125 0 C 1.296875 -0.03125 2.15625 -0.03125 2.5625 -0.03125 C 2.953125 -0.03125 3.828125 -0.03125 4.171875 0 L 4.171875 -0.3125 L 3.859375 -0.3125 C 2.953125 -0.3125 2.9375 -0.421875 2.9375 -0.78125 Z M 2.9375 -6.375 "/>
</g>
<g id="glyph-0-1">
<path d="M 1.265625 -0.765625 L 2.328125 -1.796875 C 3.875 -3.171875 4.46875 -3.703125 4.46875 -4.703125 C 4.46875 -5.84375 3.578125 -6.640625 2.359375 -6.640625 C 1.234375 -6.640625 0.5 -5.71875 0.5 -4.828125 C 0.5 -4.28125 1 -4.28125 1.03125 -4.28125 C 1.203125 -4.28125 1.546875 -4.390625 1.546875 -4.8125 C 1.546875 -5.0625 1.359375 -5.328125 1.015625 -5.328125 C 0.9375 -5.328125 0.921875 -5.328125 0.890625 -5.3125 C 1.109375 -5.96875 1.65625 -6.328125 2.234375 -6.328125 C 3.140625 -6.328125 3.5625 -5.515625 3.5625 -4.703125 C 3.5625 -3.90625 3.078125 -3.125 2.515625 -2.5 L 0.609375 -0.375 C 0.5 -0.265625 0.5 -0.234375 0.5 0 L 4.203125 0 L 4.46875 -1.734375 L 4.234375 -1.734375 C 4.171875 -1.4375 4.109375 -1 4 -0.84375 C 3.9375 -0.765625 3.28125 -0.765625 3.0625 -0.765625 Z M 1.265625 -0.765625 "/>
</g>
<g id="glyph-0-2">
<path d="M 2.890625 -3.515625 C 3.703125 -3.78125 4.28125 -4.46875 4.28125 -5.265625 C 4.28125 -6.078125 3.40625 -6.640625 2.453125 -6.640625 C 1.453125 -6.640625 0.6875 -6.046875 0.6875 -5.28125 C 0.6875 -4.953125 0.90625 -4.765625 1.203125 -4.765625 C 1.5 -4.765625 1.703125 -4.984375 1.703125 -5.28125 C 1.703125 -5.765625 1.234375 -5.765625 1.09375 -5.765625 C 1.390625 -6.265625 2.046875 -6.390625 2.40625 -6.390625 C 2.828125 -6.390625 3.375 -6.171875 3.375 -5.28125 C 3.375 -5.15625 3.34375 -4.578125 3.09375 -4.140625 C 2.796875 -3.65625 2.453125 -3.625 2.203125 -3.625 C 2.125 -3.609375 1.890625 -3.59375 1.8125 -3.59375 C 1.734375 -3.578125 1.671875 -3.5625 1.671875 -3.46875 C 1.671875 -3.359375 1.734375 -3.359375 1.90625 -3.359375 L 2.34375 -3.359375 C 3.15625 -3.359375 3.53125 -2.6875 3.53125 -1.703125 C 3.53125 -0.34375 2.84375 -0.0625 2.40625 -0.0625 C 1.96875 -0.0625 1.21875 -0.234375 0.875 -0.8125 C 1.21875 -0.765625 1.53125 -0.984375 1.53125 -1.359375 C 1.53125 -1.71875 1.265625 -1.921875 0.984375 -1.921875 C 0.734375 -1.921875 0.421875 -1.78125 0.421875 -1.34375 C 0.421875 -0.4375 1.34375 0.21875 2.4375 0.21875 C 3.65625 0.21875 4.5625 -0.6875 4.5625 -1.703125 C 4.5625 -2.515625 3.921875 -3.296875 2.890625 -3.515625 Z M 2.890625 -3.515625 "/>
</g>
<g id="glyph-0-3">
<path d="M 2.9375 -1.640625 L 2.9375 -0.78125 C 2.9375 -0.421875 2.90625 -0.3125 2.171875 -0.3125 L 1.96875 -0.3125 L 1.96875 0 C 2.375 -0.03125 2.890625 -0.03125 3.3125 -0.03125 C 3.734375 -0.03125 4.25 -0.03125 4.671875 0 L 4.671875 -0.3125 L 4.453125 -0.3125 C 3.71875 -0.3125 3.703125 -0.421875 3.703125 -0.78125 L 3.703125 -1.640625 L 4.6875 -1.640625 L 4.6875 -1.953125 L 3.703125 -1.953125 L 3.703125 -6.484375 C 3.703125 -6.6875 3.703125 -6.75 3.53125 -6.75 C 3.453125 -6.75 3.421875 -6.75 3.34375 -6.625 L 0.28125 -1.953125 L 0.28125 -1.640625 Z M 2.984375 -1.953125 L 0.5625 -1.953125 L 2.984375 -5.671875 Z M 2.984375 -1.953125 "/>
</g>
<g id="glyph-0-4">
<path d="M 4.46875 -2 C 4.46875 -3.1875 3.65625 -4.1875 2.578125 -4.1875 C 2.109375 -4.1875 1.671875 -4.03125 1.3125 -3.671875 L 1.3125 -5.625 C 1.515625 -5.5625 1.84375 -5.5 2.15625 -5.5 C 3.390625 -5.5 4.09375 -6.40625 4.09375 -6.53125 C 4.09375 -6.59375 4.0625 -6.640625 3.984375 -6.640625 C 3.984375 -6.640625 3.953125 -6.640625 3.90625 -6.609375 C 3.703125 -6.515625 3.21875 -6.3125 2.546875 -6.3125 C 2.15625 -6.3125 1.6875 -6.390625 1.21875 -6.59375 C 1.140625 -6.625 1.125 -6.625 1.109375 -6.625 C 1 -6.625 1 -6.546875 1 -6.390625 L 1 -3.4375 C 1 -3.265625 1 -3.1875 1.140625 -3.1875 C 1.21875 -3.1875 1.234375 -3.203125 1.28125 -3.265625 C 1.390625 -3.421875 1.75 -3.96875 2.5625 -3.96875 C 3.078125 -3.96875 3.328125 -3.515625 3.40625 -3.328125 C 3.5625 -2.953125 3.59375 -2.578125 3.59375 -2.078125 C 3.59375 -1.71875 3.59375 -1.125 3.34375 -0.703125 C 3.109375 -0.3125 2.734375 -0.0625 2.28125 -0.0625 C 1.5625 -0.0625 0.984375 -0.59375 0.8125 -1.171875 C 0.84375 -1.171875 0.875 -1.15625 0.984375 -1.15625 C 1.3125 -1.15625 1.484375 -1.40625 1.484375 -1.640625 C 1.484375 -1.890625 1.3125 -2.140625 0.984375 -2.140625 C 0.84375 -2.140625 0.5 -2.0625 0.5 -1.609375 C 0.5 -0.75 1.1875 0.21875 2.296875 0.21875 C 3.453125 0.21875 4.46875 -0.734375 4.46875 -2 Z M 4.46875 -2 "/>
</g>
</g>
<clipPath id="clip-0">
<path clip-rule="nonzero" d="M 73 76 L 89 76 L 89 90.675781 L 73 90.675781 Z M 73 76 "/>
</clipPath>
<clipPath id="clip-1">
<path clip-rule="nonzero" d="M 68 70 L 94 70 L 94 90.675781 L 68 90.675781 Z M 68 70 "/>
</clipPath>
<clipPath id="clip-2">
<path clip-rule="nonzero" d="M 96 70 L 120.269531 70 L 120.269531 90.675781 L 96 90.675781 Z M 96 70 "/>
</clipPath>
</defs>
<path fill-rule="nonzero" fill="rgb(0%, 0%, 0%)" fill-opacity="1" d="M 56.066406 2.816406 C 56.066406 1.261719 54.804688 0 53.246094 0 C 51.691406 0 50.429688 1.261719 50.429688 2.816406 C 50.429688 4.375 51.691406 5.636719 53.246094 5.636719 C 54.804688 5.636719 56.066406 4.375 56.066406 2.816406 Z M 56.066406 2.816406 "/>
<path fill-rule="nonzero" fill="rgb(0%, 0%, 0%)" fill-opacity="1" d="M 25.476562 43.191406 C 25.476562 42.917969 25.253906 42.695312 24.980469 42.695312 C 24.703125 42.695312 24.480469 42.917969 24.480469 43.191406 C 24.480469 43.46875 24.703125 43.691406 24.980469 43.691406 C 25.253906 43.691406 25.476562 43.46875 25.476562 43.191406 Z M 25.476562 43.191406 "/>
<path fill-rule="nonzero" fill="rgb(100%, 79.998779%, 79.998779%)" fill-opacity="1" stroke-width="0.3985" stroke-linecap="butt" stroke-linejoin="miter" stroke="rgb(100%, 0%, 0%)" stroke-opacity="1" stroke-miterlimit="10" d="M 7.088312 0.00025 C 7.088312 3.914312 3.912531 7.086187 -0.00153125 7.086187 C -3.915594 7.086187 -7.087469 3.914312 -7.087469 0.00025 C -7.087469 -3.913813 -3.915594 -7.085688 -0.00153125 -7.085688 C 3.912531 -7.085688 7.088312 -3.913813 7.088312 0.00025 Z M 7.088312 0.00025 " transform="matrix(1, 0, 0, -1, 10.607, 63.719)"/>
<g fill="rgb(0%, 0%, 0%)" fill-opacity="1">
<use xlink:href="#glyph-0-0" x="8.116" y="66.929"/>
</g>
<path fill="none" stroke-width="0.3985" stroke-linecap="butt" stroke-linejoin="miter" stroke="rgb(0%, 0%, 0%)" stroke-opacity="1" stroke-miterlimit="10" d="M 7.0855 0.00025 C 7.0855 3.914312 3.913625 7.086187 -0.0004375 7.086187 C -3.9145 7.086187 -7.086375 3.914312 -7.086375 0.00025 C -7.086375 -3.913813 -3.9145 -7.085688 -0.0004375 -7.085688 C 3.913625 -7.085688 7.0855 -3.913813 7.0855 0.00025 Z M 7.0855 0.00025 " transform="matrix(1, 0, 0, -1, 39.352, 63.719)"/>
<g fill="rgb(0%, 0%, 0%)" fill-opacity="1">
<use xlink:href="#glyph-0-1" x="36.861" y="66.929"/>
</g>
<path fill-rule="nonzero" fill="rgb(0%, 0%, 0%)" fill-opacity="1" d="M 82.015625 43.191406 C 82.015625 42.917969 81.792969 42.695312 81.515625 42.695312 C 81.242188 42.695312 81.019531 42.917969 81.019531 43.191406 C 81.019531 43.46875 81.242188 43.691406 81.515625 43.691406 C 81.792969 43.691406 82.015625 43.46875 82.015625 43.191406 Z M 82.015625 43.191406 "/>
<path fill-rule="nonzero" fill="rgb(100%, 79.998779%, 79.998779%)" fill-opacity="1" stroke-width="0.3985" stroke-linecap="butt" stroke-linejoin="miter" stroke="rgb(100%, 0%, 0%)" stroke-opacity="1" stroke-miterlimit="10" d="M 7.085125 0.00071875 C 7.085125 3.914781 3.91325 7.086656 -0.0008125 7.086656 C -3.914875 7.086656 -7.08675 3.914781 -7.08675 0.00071875 C -7.08675 -3.913344 -3.914875 -7.085219 -0.0008125 -7.085219 C 3.91325 -7.085219 7.085125 -3.913344 7.085125 0.00071875 Z M 7.085125 0.00071875 " transform="matrix(1, 0, 0, -1, 67.743, 62.864)"/>
<g fill="rgb(0%, 0%, 0%)" fill-opacity="1">
<use xlink:href="#glyph-0-2" x="65.252" y="66.074"/>
</g>
<path fill-rule="nonzero" fill="rgb(0%, 0%, 0%)" fill-opacity="1" d="M 95.789062 62.863281 C 95.789062 62.589844 95.566406 62.367188 95.289062 62.367188 C 95.015625 62.367188 94.792969 62.589844 94.792969 62.863281 C 94.792969 63.140625 95.015625 63.363281 95.289062 63.363281 C 95.566406 63.363281 95.789062 63.140625 95.789062 62.863281 Z M 95.789062 62.863281 "/>
<g clip-path="url(#clip-0)">
<path fill-rule="nonzero" fill="rgb(100%, 79.998779%, 79.998779%)" fill-opacity="1" d="M 88.003906 83.390625 C 88.003906 79.476562 84.832031 76.304688 80.917969 76.304688 C 77.003906 76.304688 73.832031 79.476562 73.832031 83.390625 C 73.832031 87.304688 77.003906 90.476562 80.917969 90.476562 C 84.832031 90.476562 88.003906 87.304688 88.003906 83.390625 Z M 88.003906 83.390625 "/>
</g>
<g clip-path="url(#clip-1)">
<path fill="none" stroke-width="0.3985" stroke-linecap="butt" stroke-linejoin="miter" stroke="rgb(100%, 0%, 0%)" stroke-opacity="1" stroke-miterlimit="10" d="M 7.084906 0.000375 C 7.084906 3.914437 3.913031 7.086312 -0.00103125 7.086312 C -3.915094 7.086312 -7.086969 3.914437 -7.086969 0.000375 C -7.086969 -3.913688 -3.915094 -7.085563 -0.00103125 -7.085563 C 3.913031 -7.085563 7.084906 -3.913688 7.084906 0.000375 Z M 7.084906 0.000375 " transform="matrix(1, 0, 0, -1, 80.919, 83.391)"/>
</g>
<g fill="rgb(0%, 0%, 0%)" fill-opacity="1">
<use xlink:href="#glyph-0-3" x="78.428" y="86.601"/>
</g>
<g clip-path="url(#clip-2)">
<path fill="none" stroke-width="0.3985" stroke-linecap="butt" stroke-linejoin="miter" stroke="rgb(0%, 0%, 0%)" stroke-opacity="1" stroke-miterlimit="10" d="M 7.086 0.000375 C 7.086 3.914437 3.914125 7.086312 0.0000625 7.086312 C -3.914 7.086312 -7.085875 3.914437 -7.085875 0.000375 C -7.085875 -3.913688 -3.914 -7.085563 0.0000625 -7.085563 C 3.914125 -7.085563 7.086 -3.913688 7.086 0.000375 Z M 7.086 0.000375 " transform="matrix(1, 0, 0, -1, 109.664, 83.391)"/>
</g>
<g fill="rgb(0%, 0%, 0%)" fill-opacity="1">
<use xlink:href="#glyph-0-4" x="107.173" y="86.601"/>
</g>
<path fill="none" stroke-width="0.3985" stroke-linecap="butt" stroke-linejoin="miter" stroke="rgb(0%, 0%, 0%)" stroke-opacity="1" stroke-miterlimit="10" d="M -1.732375 -2.471063 L -27.869094 -39.803094 " transform="matrix(1, 0, 0, -1, 53.248, 2.818)"/>
<path fill="none" stroke-width="0.3985" stroke-linecap="butt" stroke-linejoin="miter" stroke="rgb(0%, 0%, 0%)" stroke-opacity="1" stroke-miterlimit="10" d="M -28.669875 -40.943719 L -38.462844 -54.932 " transform="matrix(1, 0, 0, -1, 53.248, 2.818)"/>
<path fill="none" stroke-width="0.3985" stroke-linecap="butt" stroke-linejoin="miter" stroke="rgb(0%, 0%, 0%)" stroke-opacity="1" stroke-miterlimit="10" d="M -27.869094 -40.943719 L -18.076125 -54.932 " transform="matrix(1, 0, 0, -1, 53.248, 2.818)"/>
<path fill="none" stroke-width="0.3985" stroke-linecap="butt" stroke-linejoin="miter" stroke="rgb(0%, 0%, 0%)" stroke-opacity="1" stroke-miterlimit="10" d="M 1.732469 -2.471063 L 27.869187 -39.803094 " transform="matrix(1, 0, 0, -1, 53.248, 2.818)"/>
<path fill="none" stroke-width="0.3985" stroke-linecap="butt" stroke-linejoin="miter" stroke="rgb(0%, 0%, 0%)" stroke-opacity="1" stroke-miterlimit="10" d="M 27.869187 -40.943719 L 18.673875 -54.080438 " transform="matrix(1, 0, 0, -1, 53.248, 2.818)"/>
<path fill="none" stroke-width="0.3985" stroke-linecap="butt" stroke-linejoin="miter" stroke="rgb(0%, 0%, 0%)" stroke-opacity="1" stroke-miterlimit="10" d="M 28.669969 -40.943719 L 41.642625 -59.474969 " transform="matrix(1, 0, 0, -1, 53.248, 2.818)"/>
<path fill="none" stroke-width="0.3985" stroke-linecap="butt" stroke-linejoin="miter" stroke="rgb(0%, 0%, 0%)" stroke-opacity="1" stroke-miterlimit="10" d="M 41.642625 -60.6195 L 31.849656 -74.603875 " transform="matrix(1, 0, 0, -1, 53.248, 2.818)"/>
<path fill="none" stroke-width="0.3985" stroke-linecap="butt" stroke-linejoin="miter" stroke="rgb(0%, 0%, 0%)" stroke-opacity="1" stroke-miterlimit="10" d="M 42.443406 -60.6195 L 52.236375 -74.603875 " transform="matrix(1, 0, 0, -1, 53.248, 2.818)"/>
</svg>
