<?xml version="1.0" encoding="UTF-8"?>
<svg xmlns="http://www.w3.org/2000/svg" xmlns:xlink="http://www.w3.org/1999/xlink" width="213.794" height="72.062" viewBox="0 0 213.794 72.062">
<defs>
<clipPath id="clip-0">
<path clip-rule="nonzero" d="M 0 0 L 73 0 L 73 72.0625 L 0 72.0625 Z M 0 0 "/>
</clipPath>
<clipPath id="clip-1">
<path clip-rule="nonzero" d="M 141 0 L 213.792969 0 L 213.792969 72.0625 L 141 72.0625 Z M 141 0 "/>
</clipPath>
</defs>
<g clip-path="url(#clip-0)">
<path fill="none" stroke-width="1.19553" stroke-linecap="butt" stroke-linejoin="miter" stroke="rgb(0%, 0%, 0%)" stroke-opacity="1" stroke-miterlimit="10" d="M -0.00034375 -0.00084375 L -0.00034375 70.866344 L 70.866844 70.866344 L 70.866844 -0.00084375 Z M -0.00034375 -0.00084375 " transform="matrix(1, 0, 0, -1, 0.598, 71.464)"/>
</g>
<path fill="none" stroke-width="1.19553" stroke-linecap="butt" stroke-linejoin="miter" stroke="rgb(0%, 0%, 0%)" stroke-opacity="1" stroke-miterlimit="10" d="M 85.038719 35.43275 L 119.577781 35.43275 " transform="matrix(1, 0, 0, -1, 0.598, 71.464)"/>
<path fill-rule="nonzero" fill="rgb(0%, 0%, 0%)" fill-opacity="1" stroke-width="1.19553" stroke-linecap="butt" stroke-linejoin="miter" stroke="rgb(0%, 0%, 0%)" stroke-opacity="1" stroke-miterlimit="10" d="M 10.851391 -0.00075 L 1.929516 3.366437 L 4.870922 -0.00075 L 1.929516 -3.364031 Z M 10.851391 -0.00075 " transform="matrix(1, 0, 0, -1, 115.60564, 36.0305)"/>
<g clip-path="url(#clip-1)">
<path fill="none" stroke-width="1.19553" stroke-linecap="butt" stroke-linejoin="miter" stroke="rgb(50%, 50%, 50%)" stroke-opacity="1" stroke-miterlimit="10" d="M 141.734031 -0.00084375 L 141.734031 70.866344 L 212.601219 70.866344 L 212.601219 -0.00084375 Z M 141.734031 -0.00084375 " transform="matrix(1, 0, 0, -1, 0.598, 71.464)"/>
</g>
<path fill="none" stroke-width="1.19553" stroke-linecap="butt" stroke-linejoin="miter" stroke="rgb(0%, 0%, 0%)" stroke-opacity="1" stroke-miterlimit="10" d="M 141.734031 70.866344 L 141.734031 49.608531 L 162.99575 49.608531 L 162.99575 70.866344 Z M 162.99575 49.608531 L 162.99575 35.43275 L 177.167625 35.43275 L 177.167625 49.608531 Z M 177.167625 35.43275 L 177.167625 28.346812 L 184.253562 28.346812 L 184.253562 35.43275 Z M 184.253562 28.346812 L 184.253562 21.260875 L 191.3395 21.260875 L 191.3395 28.346812 Z M 184.253562 28.346812 " transform="matrix(1, 0, 0, -1, 0.598, 71.464)"/>
</svg>
