<?xml version="1.0" encoding="utf-8"?>
<svg xmlns="http://www.w3.org/2000/svg" xmlns:xlink="http://www.w3.org/1999/xlink" width="600" height="400" viewBox="0 0 2400 1600">
<defs>
  <clipPath id="clip120">
    <rect x="0" y="0" width="2400" height="1600"/>
  </clipPath>
</defs>
<path clip-path="url(#clip120)" d="
M0 1600 L2400 1600 L2400 0 L0 0  Z
  " fill="#000000" fill-rule="evenodd" fill-opacity="0"/>
<defs>
  <clipPath id="clip121">
    <rect x="480" y="0" width="1681" height="1600"/>
  </clipPath>
</defs>
<path clip-path="url(#clip120)" d="
M388.798 1303.78 L2305.51 1303.78 L2305.51 94.4882 L388.798 94.4882  Z
  " fill="#000000" fill-rule="evenodd" fill-opacity="0"/>
<defs>
  <clipPath id="clip122">
    <rect x="388" y="94" width="1918" height="1210"/>
  </clipPath>
</defs>
<polyline clip-path="url(#clip122)" style="stroke:#000000; stroke-linecap:round; stroke-linejoin:round; stroke-width:4; stroke-opacity:0.1; fill:none" points="
  623.867,1303.78 623.867,94.4882 
  "/>
<polyline clip-path="url(#clip122)" style="stroke:#000000; stroke-linecap:round; stroke-linejoin:round; stroke-width:4; stroke-opacity:0.1; fill:none" points="
  985.511,1303.78 985.511,94.4882 
  "/>
<polyline clip-path="url(#clip122)" style="stroke:#000000; stroke-linecap:round; stroke-linejoin:round; stroke-width:4; stroke-opacity:0.1; fill:none" points="
  1347.15,1303.78 1347.15,94.4882 
  "/>
<polyline clip-path="url(#clip122)" style="stroke:#000000; stroke-linecap:round; stroke-linejoin:round; stroke-width:4; stroke-opacity:0.1; fill:none" points="
  1708.8,1303.78 1708.8,94.4882 
  "/>
<polyline clip-path="url(#clip122)" style="stroke:#000000; stroke-linecap:round; stroke-linejoin:round; stroke-width:4; stroke-opacity:0.1; fill:none" points="
  2070.44,1303.78 2070.44,94.4882 
  "/>
<polyline clip-path="url(#clip120)" style="stroke:#000000; stroke-linecap:round; stroke-linejoin:round; stroke-width:8; stroke-opacity:1; fill:none" points="
  388.798,1303.78 2305.51,1303.78 
  "/>
<polyline clip-path="url(#clip120)" style="stroke:#000000; stroke-linecap:round; stroke-linejoin:round; stroke-width:8; stroke-opacity:1; fill:none" points="
  623.867,1303.78 623.867,1284.88 
  "/>
<polyline clip-path="url(#clip120)" style="stroke:#000000; stroke-linecap:round; stroke-linejoin:round; stroke-width:8; stroke-opacity:1; fill:none" points="
  985.511,1303.78 985.511,1284.88 
  "/>
<polyline clip-path="url(#clip120)" style="stroke:#000000; stroke-linecap:round; stroke-linejoin:round; stroke-width:8; stroke-opacity:1; fill:none" points="
  1347.15,1303.78 1347.15,1284.88 
  "/>
<polyline clip-path="url(#clip120)" style="stroke:#000000; stroke-linecap:round; stroke-linejoin:round; stroke-width:8; stroke-opacity:1; fill:none" points="
  1708.8,1303.78 1708.8,1284.88 
  "/>
<polyline clip-path="url(#clip120)" style="stroke:#000000; stroke-linecap:round; stroke-linejoin:round; stroke-width:8; stroke-opacity:1; fill:none" points="
  2070.44,1303.78 2070.44,1284.88 
  "/>
<path clip-path="url(#clip120)" d="M561.668 1375.72 L621.019 1375.72 L621.019 1383.59 L561.668 1383.59 L561.668 1375.72 Z" fill="#000000" fill-rule="evenodd" fill-opacity="1" /><path clip-path="url(#clip120)" d="M666.899 1348.4 L643.288 1385.3 L666.899 1385.3 L666.899 1348.4 M664.445 1340.26 L676.204 1340.26 L676.204 1385.3 L686.065 1385.3 L686.065 1393.08 L676.204 1393.08 L676.204 1409.38 L666.899 1409.38 L666.899 1393.08 L635.695 1393.08 L635.695 1384.05 L664.445 1340.26 Z" fill="#000000" fill-rule="evenodd" fill-opacity="1" /><path clip-path="url(#clip120)" d="M925.395 1375.72 L984.747 1375.72 L984.747 1383.59 L925.395 1383.59 L925.395 1375.72 Z" fill="#000000" fill-rule="evenodd" fill-opacity="1" /><path clip-path="url(#clip120)" d="M1012.99 1401.51 L1045.63 1401.51 L1045.63 1409.38 L1001.74 1409.38 L1001.74 1401.51 Q1007.06 1396 1016.23 1386.74 Q1025.44 1377.43 1027.8 1374.75 Q1032.29 1369.7 1034.05 1366.23 Q1035.86 1362.71 1035.86 1359.33 Q1035.86 1353.82 1031.97 1350.35 Q1028.13 1346.88 1021.92 1346.88 Q1017.52 1346.88 1012.62 1348.4 Q1007.76 1349.93 1002.2 1353.03 L1002.2 1343.59 Q1007.85 1341.32 1012.76 1340.16 Q1017.66 1339.01 1021.74 1339.01 Q1032.48 1339.01 1038.87 1344.38 Q1045.26 1349.75 1045.26 1358.73 Q1045.26 1362.99 1043.64 1366.83 Q1042.06 1370.63 1037.85 1375.81 Q1036.69 1377.15 1030.49 1383.59 Q1024.28 1389.98 1012.99 1401.51 Z" fill="#000000" fill-rule="evenodd" fill-opacity="1" /><path clip-path="url(#clip120)" d="M1347.15 1346.41 Q1339.93 1346.41 1336.28 1353.54 Q1332.66 1360.63 1332.66 1374.89 Q1332.66 1389.1 1336.28 1396.23 Q1339.93 1403.31 1347.15 1403.31 Q1354.42 1403.31 1358.03 1396.23 Q1361.69 1389.1 1361.69 1374.89 Q1361.69 1360.63 1358.03 1353.54 Q1354.42 1346.41 1347.15 1346.41 M1347.15 1339.01 Q1358.78 1339.01 1364.89 1348.22 Q1371.04 1357.39 1371.04 1374.89 Q1371.04 1392.34 1364.89 1401.55 Q1358.78 1410.72 1347.15 1410.72 Q1335.53 1410.72 1329.38 1401.55 Q1323.27 1392.34 1323.27 1374.89 Q1323.27 1357.39 1329.38 1348.22 Q1335.53 1339.01 1347.15 1339.01 Z" fill="#000000" fill-rule="evenodd" fill-opacity="1" /><path clip-path="url(#clip120)" d="M1698.1 1401.51 L1730.74 1401.51 L1730.74 1409.38 L1686.85 1409.38 L1686.85 1401.51 Q1692.18 1396 1701.35 1386.74 Q1710.56 1377.43 1712.92 1374.75 Q1717.41 1369.7 1719.17 1366.23 Q1720.97 1362.71 1720.97 1359.33 Q1720.97 1353.82 1717.09 1350.35 Q1713.24 1346.88 1707.04 1346.88 Q1702.64 1346.88 1697.73 1348.4 Q1692.87 1349.93 1687.32 1353.03 L1687.32 1343.59 Q1692.97 1341.32 1697.87 1340.16 Q1702.78 1339.01 1706.85 1339.01 Q1717.6 1339.01 1723.98 1344.38 Q1730.37 1349.75 1730.37 1358.73 Q1730.37 1362.99 1728.75 1366.83 Q1727.18 1370.63 1722.97 1375.81 Q1721.81 1377.15 1715.6 1383.59 Q1709.4 1389.98 1698.1 1401.51 Z" fill="#000000" fill-rule="evenodd" fill-opacity="1" /><path clip-path="url(#clip120)" d="M2076.46 1348.4 L2052.85 1385.3 L2076.46 1385.3 L2076.46 1348.4 M2074.01 1340.26 L2085.77 1340.26 L2085.77 1385.3 L2095.63 1385.3 L2095.63 1393.08 L2085.77 1393.08 L2085.77 1409.38 L2076.46 1409.38 L2076.46 1393.08 L2045.26 1393.08 L2045.26 1384.05 L2074.01 1340.26 Z" fill="#000000" fill-rule="evenodd" fill-opacity="1" /><polyline clip-path="url(#clip122)" style="stroke:#000000; stroke-linecap:round; stroke-linejoin:round; stroke-width:4; stroke-opacity:0.1; fill:none" points="
  388.798,1269.57 2305.51,1269.57 
  "/>
<polyline clip-path="url(#clip122)" style="stroke:#000000; stroke-linecap:round; stroke-linejoin:round; stroke-width:4; stroke-opacity:0.1; fill:none" points="
  388.798,1041.4 2305.51,1041.4 
  "/>
<polyline clip-path="url(#clip122)" style="stroke:#000000; stroke-linecap:round; stroke-linejoin:round; stroke-width:4; stroke-opacity:0.1; fill:none" points="
  388.798,813.23 2305.51,813.23 
  "/>
<polyline clip-path="url(#clip122)" style="stroke:#000000; stroke-linecap:round; stroke-linejoin:round; stroke-width:4; stroke-opacity:0.1; fill:none" points="
  388.798,585.058 2305.51,585.058 
  "/>
<polyline clip-path="url(#clip122)" style="stroke:#000000; stroke-linecap:round; stroke-linejoin:round; stroke-width:4; stroke-opacity:0.1; fill:none" points="
  388.798,356.885 2305.51,356.885 
  "/>
<polyline clip-path="url(#clip122)" style="stroke:#000000; stroke-linecap:round; stroke-linejoin:round; stroke-width:4; stroke-opacity:0.1; fill:none" points="
  388.798,128.713 2305.51,128.713 
  "/>
<polyline clip-path="url(#clip120)" style="stroke:#000000; stroke-linecap:round; stroke-linejoin:round; stroke-width:8; stroke-opacity:1; fill:none" points="
  388.798,1303.78 388.798,94.4882 
  "/>
<polyline clip-path="url(#clip120)" style="stroke:#000000; stroke-linecap:round; stroke-linejoin:round; stroke-width:8; stroke-opacity:1; fill:none" points="
  388.798,1269.57 407.696,1269.57 
  "/>
<polyline clip-path="url(#clip120)" style="stroke:#000000; stroke-linecap:round; stroke-linejoin:round; stroke-width:8; stroke-opacity:1; fill:none" points="
  388.798,1041.4 407.696,1041.4 
  "/>
<polyline clip-path="url(#clip120)" style="stroke:#000000; stroke-linecap:round; stroke-linejoin:round; stroke-width:8; stroke-opacity:1; fill:none" points="
  388.798,813.23 407.696,813.23 
  "/>
<polyline clip-path="url(#clip120)" style="stroke:#000000; stroke-linecap:round; stroke-linejoin:round; stroke-width:8; stroke-opacity:1; fill:none" points="
  388.798,585.058 407.696,585.058 
  "/>
<polyline clip-path="url(#clip120)" style="stroke:#000000; stroke-linecap:round; stroke-linejoin:round; stroke-width:8; stroke-opacity:1; fill:none" points="
  388.798,356.885 407.696,356.885 
  "/>
<polyline clip-path="url(#clip120)" style="stroke:#000000; stroke-linecap:round; stroke-linejoin:round; stroke-width:8; stroke-opacity:1; fill:none" points="
  388.798,128.713 407.696,128.713 
  "/>
<path clip-path="url(#clip120)" d="M328.909 1241.17 Q321.687 1241.17 318.03 1248.3 Q314.418 1255.38 314.418 1269.64 Q314.418 1283.86 318.03 1290.99 Q321.687 1298.07 328.909 1298.07 Q336.178 1298.07 339.789 1290.99 Q343.446 1283.86 343.446 1269.64 Q343.446 1255.38 339.789 1248.3 Q336.178 1241.17 328.909 1241.17 M328.909 1233.76 Q340.529 1233.76 346.641 1242.98 Q352.798 1252.14 352.798 1269.64 Q352.798 1287.1 346.641 1296.31 Q340.529 1305.48 328.909 1305.48 Q317.289 1305.48 311.131 1296.31 Q305.02 1287.1 305.02 1269.64 Q305.02 1252.14 311.131 1242.98 Q317.289 1233.76 328.909 1233.76 Z" fill="#000000" fill-rule="evenodd" fill-opacity="1" /><path clip-path="url(#clip120)" d="M310.993 1006.84 L347.705 1006.84 L347.705 1014.71 L319.557 1014.71 L319.557 1031.66 Q321.594 1030.96 323.631 1030.64 Q325.668 1030.27 327.705 1030.27 Q339.279 1030.27 346.039 1036.61 Q352.798 1042.95 352.798 1053.79 Q352.798 1064.94 345.854 1071.15 Q338.909 1077.3 326.27 1077.3 Q321.918 1077.3 317.381 1076.56 Q312.891 1075.82 308.076 1074.34 L308.076 1064.94 Q312.243 1067.21 316.687 1068.32 Q321.131 1069.43 326.085 1069.43 Q334.094 1069.43 338.77 1065.22 Q343.446 1061.01 343.446 1053.79 Q343.446 1046.56 338.77 1042.35 Q334.094 1038.14 326.085 1038.14 Q322.335 1038.14 318.585 1038.97 Q314.881 1039.8 310.993 1041.56 L310.993 1006.84 Z" fill="#000000" fill-rule="evenodd" fill-opacity="1" /><path clip-path="url(#clip120)" d="M250.206 839.92 L265.484 839.92 L265.484 787.188 L248.863 790.522 L248.863 782.003 L265.391 778.67 L274.743 778.67 L274.743 839.92 L290.02 839.92 L290.02 847.79 L250.206 847.79 L250.206 839.92 Z" fill="#000000" fill-rule="evenodd" fill-opacity="1" /><path clip-path="url(#clip120)" d="M328.909 784.827 Q321.687 784.827 318.03 791.957 Q314.418 799.04 314.418 813.299 Q314.418 827.512 318.03 834.642 Q321.687 841.725 328.909 841.725 Q336.178 841.725 339.789 834.642 Q343.446 827.512 343.446 813.299 Q343.446 799.04 339.789 791.957 Q336.178 784.827 328.909 784.827 M328.909 777.42 Q340.529 777.42 346.641 786.633 Q352.798 795.799 352.798 813.299 Q352.798 830.753 346.641 839.966 Q340.529 849.132 328.909 849.132 Q317.289 849.132 311.131 839.966 Q305.02 830.753 305.02 813.299 Q305.02 795.799 311.131 786.633 Q317.289 777.42 328.909 777.42 Z" fill="#000000" fill-rule="evenodd" fill-opacity="1" /><path clip-path="url(#clip120)" d="M252.197 611.747 L267.474 611.747 L267.474 559.016 L250.854 562.349 L250.854 553.831 L267.382 550.498 L276.734 550.498 L276.734 611.747 L292.011 611.747 L292.011 619.618 L252.197 619.618 L252.197 611.747 Z" fill="#000000" fill-rule="evenodd" fill-opacity="1" /><path clip-path="url(#clip120)" d="M310.993 550.498 L347.705 550.498 L347.705 558.368 L319.557 558.368 L319.557 575.312 Q321.594 574.618 323.631 574.294 Q325.668 573.923 327.705 573.923 Q339.279 573.923 346.039 580.266 Q352.798 586.609 352.798 597.442 Q352.798 608.599 345.854 614.803 Q338.909 620.96 326.27 620.96 Q321.918 620.96 317.381 620.22 Q312.891 619.479 308.076 617.997 L308.076 608.599 Q312.243 610.868 316.687 611.979 Q321.131 613.09 326.085 613.09 Q334.094 613.09 338.77 608.877 Q343.446 604.664 343.446 597.442 Q343.446 590.22 338.77 586.007 Q334.094 581.794 326.085 581.794 Q322.335 581.794 318.585 582.627 Q314.881 583.46 310.993 585.22 L310.993 550.498 Z" fill="#000000" fill-rule="evenodd" fill-opacity="1" /><path clip-path="url(#clip120)" d="M256.641 383.575 L289.28 383.575 L289.28 391.445 L245.391 391.445 L245.391 383.575 Q250.715 378.066 259.882 368.807 Q269.095 359.501 271.456 356.816 Q275.946 351.77 277.706 348.298 Q279.511 344.779 279.511 341.399 Q279.511 335.89 275.622 332.418 Q271.78 328.946 265.576 328.946 Q261.178 328.946 256.271 330.474 Q251.41 332.001 245.854 335.103 L245.854 325.659 Q251.502 323.39 256.41 322.233 Q261.317 321.075 265.391 321.075 Q276.132 321.075 282.521 326.446 Q288.909 331.816 288.909 340.798 Q288.909 345.057 287.289 348.899 Q285.715 352.696 281.502 357.881 Q280.345 359.223 274.141 365.659 Q267.937 372.047 256.641 383.575 Z" fill="#000000" fill-rule="evenodd" fill-opacity="1" /><path clip-path="url(#clip120)" d="M328.909 328.483 Q321.687 328.483 318.03 335.612 Q314.418 342.696 314.418 356.955 Q314.418 371.168 318.03 378.297 Q321.687 385.381 328.909 385.381 Q336.178 385.381 339.789 378.297 Q343.446 371.168 343.446 356.955 Q343.446 342.696 339.789 335.612 Q336.178 328.483 328.909 328.483 M328.909 321.075 Q340.529 321.075 346.641 330.288 Q352.798 339.455 352.798 356.955 Q352.798 374.409 346.641 383.621 Q340.529 392.788 328.909 392.788 Q317.289 392.788 311.131 383.621 Q305.02 374.409 305.02 356.955 Q305.02 339.455 311.131 330.288 Q317.289 321.075 328.909 321.075 Z" fill="#000000" fill-rule="evenodd" fill-opacity="1" /><path clip-path="url(#clip120)" d="M258.632 155.403 L291.27 155.403 L291.27 163.273 L247.382 163.273 L247.382 155.403 Q252.706 149.894 261.872 140.635 Q271.085 131.329 273.446 128.644 Q277.937 123.598 279.696 120.125 Q281.502 116.607 281.502 113.227 Q281.502 107.718 277.613 104.246 Q273.771 100.774 267.567 100.774 Q263.169 100.774 258.261 102.301 Q253.4 103.829 247.845 106.931 L247.845 97.4866 Q253.493 95.2181 258.4 94.0607 Q263.308 92.9033 267.382 92.9033 Q278.122 92.9033 284.511 98.2737 Q290.9 103.644 290.9 112.625 Q290.9 116.885 289.28 120.727 Q287.706 124.524 283.493 129.709 Q282.335 131.051 276.132 137.486 Q269.928 143.875 258.632 155.403 Z" fill="#000000" fill-rule="evenodd" fill-opacity="1" /><path clip-path="url(#clip120)" d="M310.993 94.1533 L347.705 94.1533 L347.705 102.024 L319.557 102.024 L319.557 118.968 Q321.594 118.274 323.631 117.949 Q325.668 117.579 327.705 117.579 Q339.279 117.579 346.039 123.922 Q352.798 130.264 352.798 141.098 Q352.798 152.255 345.854 158.459 Q338.909 164.616 326.27 164.616 Q321.918 164.616 317.381 163.875 Q312.891 163.134 308.076 161.653 L308.076 152.255 Q312.243 154.523 316.687 155.634 Q321.131 156.746 326.085 156.746 Q334.094 156.746 338.77 152.533 Q343.446 148.32 343.446 141.098 Q343.446 133.875 338.77 129.662 Q334.094 125.449 326.085 125.449 Q322.335 125.449 318.585 126.283 Q314.881 127.116 310.993 128.875 L310.993 94.1533 Z" fill="#000000" fill-rule="evenodd" fill-opacity="1" /><polyline clip-path="url(#clip122)" style="stroke:#00008b; stroke-linecap:round; stroke-linejoin:round; stroke-width:8; stroke-opacity:1; fill:none" points="
  443.045,128.713 445.988,136.129 448.931,143.52 451.874,150.887 454.817,158.23 482.03,224.982 509.244,289.666 536.457,352.282 563.671,412.832 596.379,482.872 
  629.087,549.926 656.742,604.289 684.396,656.518 714.437,710.834 744.477,762.63 772.172,808.151 799.867,851.53 829.558,895.659 859.25,937.328 876.45,960.34 
  893.65,982.527 910.851,1003.89 928.051,1024.42 958.622,1058.88 989.194,1090.74 1016,1116.52 1042.81,1140.3 1072.04,1163.94 1101.27,1185.19 1130.67,1204.16 
  1160.07,1220.72 1192.58,1236.23 1225.09,1248.78 1256.02,1257.98 1286.95,1264.51 1319.11,1268.48 1351.27,1269.55 1378.34,1268.22 1405.41,1264.84 1421.94,1261.77 
  1438.46,1257.94 1454.99,1253.35 1471.51,1247.99 1501.79,1236.2 1532.07,1221.85 1560.03,1206.33 1588,1188.62 1616.32,1168.46 1644.65,1146.05 1676.39,1118.28 
  1708.14,1087.7 1736.91,1057.56 1765.67,1025.11 1782.14,1005.49 1798.61,985.116 1815.08,963.985 1831.55,942.097 1862.04,899.565 1892.54,854.437 1922.6,807.404 
  1952.67,757.849 1981.86,707.32 2011.05,654.413 2040.97,597.708 2070.9,538.503 2087.29,505.01 2103.68,470.767 2120.08,435.774 2136.47,400.031 2160.28,346.772 
  2184.1,291.93 2207.91,235.505 2231.72,177.498 2236.61,165.401 2241.49,153.239 2246.38,141.009 2251.27,128.713 
  "/>
<polyline clip-path="url(#clip122)" style="stroke:#ff0000; stroke-linecap:round; stroke-linejoin:round; stroke-width:8; stroke-opacity:1; fill:none" points="
  985.511,1087.04 1889.62,858.864 
  "/>
<circle clip-path="url(#clip122)" cx="985.511" cy="1087.04" r="28.8" fill="#ff0000" fill-rule="evenodd" fill-opacity="1" stroke="#000000" stroke-opacity="1" stroke-width="6.4"/>
<circle clip-path="url(#clip122)" cx="1889.62" cy="858.864" r="28.8" fill="#ff0000" fill-rule="evenodd" fill-opacity="1" stroke="#000000" stroke-opacity="1" stroke-width="6.4"/>
<polyline clip-path="url(#clip122)" style="stroke:#ff0000; stroke-linecap:round; stroke-linejoin:round; stroke-width:8; stroke-opacity:1; fill:none" stroke-dasharray="32, 20" points="
  1437.57,972.95 1437.57,1258.17 
  "/>
<line clip-path="url(#clip122)" x1="1437.57" y1="972.95" x2="1405.57" y2="940.95" style="stroke:#ff0000; stroke-width:6.4; stroke-opacity:1"/>
<line clip-path="url(#clip122)" x1="1437.57" y1="972.95" x2="1405.57" y2="1004.95" style="stroke:#ff0000; stroke-width:6.4; stroke-opacity:1"/>
<line clip-path="url(#clip122)" x1="1437.57" y1="972.95" x2="1469.57" y2="1004.95" style="stroke:#ff0000; stroke-width:6.4; stroke-opacity:1"/>
<line clip-path="url(#clip122)" x1="1437.57" y1="972.95" x2="1469.57" y2="940.95" style="stroke:#ff0000; stroke-width:6.4; stroke-opacity:1"/>
<line clip-path="url(#clip122)" x1="1437.57" y1="1258.17" x2="1405.57" y2="1226.17" style="stroke:#ff0000; stroke-width:6.4; stroke-opacity:1"/>
<line clip-path="url(#clip122)" x1="1437.57" y1="1258.17" x2="1405.57" y2="1290.17" style="stroke:#ff0000; stroke-width:6.4; stroke-opacity:1"/>
<line clip-path="url(#clip122)" x1="1437.57" y1="1258.17" x2="1469.57" y2="1290.17" style="stroke:#ff0000; stroke-width:6.4; stroke-opacity:1"/>
<line clip-path="url(#clip122)" x1="1437.57" y1="1258.17" x2="1469.57" y2="1226.17" style="stroke:#ff0000; stroke-width:6.4; stroke-opacity:1"/>
</svg>
