<?xml version="1.0" encoding="UTF-8"?>
<svg xmlns="http://www.w3.org/2000/svg" xmlns:xlink="http://www.w3.org/1999/xlink" width="426.392pt" height="142.928pt" viewBox="0 0 426.392 142.928" version="1.1">
<defs>
<clipPath id="clip1">
  <path d="M 0 0 L 143 0 L 143 142.929688 L 0 142.929688 Z M 0 0 "/>
</clipPath>
<clipPath id="clip2">
  <path d="M 283 0 L 426.390625 0 L 426.390625 142.929688 L 283 142.929688 Z M 283 0 "/>
</clipPath>
</defs>
<g id="surface1">
<g clip-path="url(#clip1)" clip-rule="nonzero">
<path style="fill:none;stroke-width:1.19553;stroke-linecap:butt;stroke-linejoin:miter;stroke:rgb(100%,100%,100%);stroke-opacity:1;stroke-miterlimit:10;" d="M -0.00034375 0.001875 L -0.00034375 141.732344 L 141.734031 141.732344 L 141.734031 0.001875 Z M -0.00034375 0.001875 " transform="matrix(1,0,0,-1,0.598,142.33)"/>
</g>
<path style="fill:none;stroke-width:1.19553;stroke-linecap:butt;stroke-linejoin:miter;stroke:rgb(100%,100%,100%);stroke-opacity:1;stroke-miterlimit:10;" d="M 170.081687 70.865156 L 251.93325 70.865156 " transform="matrix(1,0,0,-1,0.598,142.33)"/>
<path style=" stroke:none;fill-rule:nonzero;fill:rgb(100%,100%,100%);fill-opacity:1;" d="M 255.71875 71.464844 L 250.617188 68.914063 L 252.53125 71.464844 L 250.617188 74.011719 "/>
<g clip-path="url(#clip2)" clip-rule="nonzero">
<path style="fill:none;stroke-width:1.19553;stroke-linecap:butt;stroke-linejoin:miter;stroke:rgb(50%,50%,50%);stroke-opacity:1;stroke-miterlimit:10;" d="M 283.468406 0.001875 L 283.468406 141.732344 L 425.202781 141.732344 L 425.202781 0.001875 Z M 283.468406 0.001875 " transform="matrix(1,0,0,-1,0.598,142.33)"/>
</g>
<path style="fill:none;stroke-width:1.19553;stroke-linecap:butt;stroke-linejoin:miter;stroke:rgb(100%,100%,100%);stroke-opacity:1;stroke-miterlimit:10;" d="M 283.468406 141.732344 L 283.468406 99.212813 L 325.987937 99.212813 L 325.987937 141.732344 Z M 325.987937 99.212813 L 325.987937 70.865156 L 354.335594 70.865156 L 354.335594 99.212813 Z M 354.335594 70.865156 L 354.335594 56.693281 L 368.507469 56.693281 L 368.507469 70.865156 Z M 368.507469 56.693281 L 368.507469 42.521406 L 382.68325 42.521406 L 382.68325 56.693281 Z M 368.507469 56.693281 " transform="matrix(1,0,0,-1,0.598,142.33)"/>
</g>
</svg>
