<?xml version="1.0" encoding="UTF-8"?>
<svg xmlns="http://www.w3.org/2000/svg" xmlns:xlink="http://www.w3.org/1999/xlink" width="156.221" height="183.362" viewBox="0 0 156.221 183.362">
<defs>
<clipPath id="clip-0">
<path clip-rule="nonzero" d="M 102 169 L 118 169 L 118 183.363281 L 102 183.363281 Z M 102 169 "/>
</clipPath>
<clipPath id="clip-1">
<path clip-rule="nonzero" d="M 97 163 L 123 163 L 123 183.363281 L 97 183.363281 Z M 97 163 "/>
</clipPath>
<clipPath id="clip-2">
<path clip-rule="nonzero" d="M 138 169 L 153 169 L 153 183.363281 L 138 183.363281 Z M 138 169 "/>
</clipPath>
<clipPath id="clip-3">
<path clip-rule="nonzero" d="M 132 163 L 156.222656 163 L 156.222656 183.363281 L 132 183.363281 Z M 132 163 "/>
</clipPath>
</defs>
<path fill-rule="nonzero" fill="rgb(0%, 0%, 0%)" fill-opacity="1" d="M 61.738281 2.816406 C 61.738281 1.261719 60.476562 0 58.921875 0 C 57.367188 0 56.105469 1.261719 56.105469 2.816406 C 56.105469 4.375 57.367188 5.636719 58.921875 5.636719 C 60.476562 5.636719 61.738281 4.375 61.738281 2.816406 Z M 61.738281 2.816406 "/>
<path fill-rule="nonzero" fill="rgb(79.998779%, 79.998779%, 79.998779%)" fill-opacity="1" stroke-width="0.3985" stroke-linecap="butt" stroke-linejoin="miter" stroke="rgb(0%, 0%, 0%)" stroke-opacity="1" stroke-miterlimit="10" d="M 7.04725 0.00134375 C 7.04725 3.891969 3.891 7.044313 0.000375 7.044313 C -3.89025 7.044313 -7.0465 3.891969 -7.0465 0.00134375 C -7.0465 -3.889281 -3.89025 -7.045531 0.000375 -7.045531 C 3.891 -7.045531 7.04725 -3.889281 7.04725 0.00134375 Z M 7.04725 0.00134375 " transform="matrix(1, 0, 0, -1, 39.734, 30.224)"/>
<path fill-rule="nonzero" fill="rgb(0%, 0%, 0%)" fill-opacity="1" d="M 78.609375 30.222656 C 78.609375 29.949219 78.386719 29.726562 78.109375 29.726562 C 77.835938 29.726562 77.613281 29.949219 77.613281 30.222656 C 77.613281 30.5 77.835938 30.722656 78.109375 30.722656 C 78.386719 30.722656 78.609375 30.5 78.609375 30.222656 Z M 78.609375 30.222656 "/>
<path fill-rule="nonzero" fill="rgb(0%, 0%, 0%)" fill-opacity="1" d="M 61.046875 55.308594 C 61.046875 55.035156 60.820312 54.8125 60.546875 54.8125 C 60.273438 54.8125 60.050781 55.035156 60.050781 55.308594 C 60.050781 55.585938 60.273438 55.808594 60.546875 55.808594 C 60.820312 55.808594 61.046875 55.585938 61.046875 55.308594 Z M 61.046875 55.308594 "/>
<path fill-rule="nonzero" fill="rgb(0%, 0%, 0%)" fill-opacity="1" d="M 29.148438 100.863281 C 29.148438 100.585938 28.925781 100.363281 28.652344 100.363281 C 28.375 100.363281 28.152344 100.585938 28.152344 100.863281 C 28.152344 101.136719 28.375 101.359375 28.652344 101.359375 C 28.925781 101.359375 29.148438 101.136719 29.148438 100.863281 Z M 29.148438 100.863281 "/>
<path fill-rule="nonzero" fill="rgb(79.998779%, 79.998779%, 79.998779%)" fill-opacity="1" stroke-width="0.3985" stroke-linecap="butt" stroke-linejoin="miter" stroke="rgb(0%, 0%, 0%)" stroke-opacity="1" stroke-miterlimit="10" d="M 7.045812 0.0016875 C 7.045812 3.892313 3.889562 7.044656 -0.0010625 7.044656 C -3.891688 7.044656 -7.044031 3.892313 -7.044031 0.0016875 C -7.044031 -3.892844 -3.891688 -7.045187 -0.0010625 -7.045187 C 3.889562 -7.045187 7.045812 -3.892844 7.045812 0.0016875 Z M 7.045812 0.0016875 " transform="matrix(1, 0, 0, -1, 11.087, 125.947)"/>
<path fill-rule="nonzero" fill="rgb(79.998779%, 79.998779%, 79.998779%)" fill-opacity="1" stroke-width="0.3985" stroke-linecap="butt" stroke-linejoin="miter" stroke="rgb(0%, 0%, 0%)" stroke-opacity="1" stroke-miterlimit="10" d="M 7.046719 0.0016875 C 7.046719 3.892313 3.890469 7.044656 -0.00015625 7.044656 C -3.890781 7.044656 -7.047031 3.892313 -7.047031 0.0016875 C -7.047031 -3.892844 -3.890781 -7.045187 -0.00015625 -7.045187 C 3.890469 -7.045187 7.046719 -3.892844 7.046719 0.0016875 Z M 7.046719 0.0016875 " transform="matrix(1, 0, 0, -1, 46.215, 125.947)"/>
<path fill-rule="nonzero" fill="rgb(0%, 0%, 0%)" fill-opacity="1" d="M 92.941406 100.863281 C 92.941406 100.585938 92.71875 100.363281 92.441406 100.363281 C 92.167969 100.363281 91.945312 100.585938 91.945312 100.863281 C 91.945312 101.136719 92.167969 101.359375 92.441406 101.359375 C 92.71875 101.359375 92.941406 101.136719 92.941406 100.863281 Z M 92.941406 100.863281 "/>
<path fill-rule="nonzero" fill="rgb(79.998779%, 79.998779%, 79.998779%)" fill-opacity="1" stroke-width="0.3985" stroke-linecap="butt" stroke-linejoin="miter" stroke="rgb(0%, 0%, 0%)" stroke-opacity="1" stroke-miterlimit="10" d="M 7.043875 0.0016875 C 7.043875 3.892313 3.891531 7.044656 0.00090625 7.044656 C -3.889719 7.044656 -7.045969 3.892313 -7.045969 0.0016875 C -7.045969 -3.892844 -3.889719 -7.045187 0.00090625 -7.045187 C 3.891531 -7.045187 7.043875 -3.892844 7.043875 0.0016875 Z M 7.043875 0.0016875 " transform="matrix(1, 0, 0, -1, 74.878, 125.947)"/>
<path fill-rule="nonzero" fill="rgb(0%, 0%, 0%)" fill-opacity="1" d="M 110.503906 125.945312 C 110.503906 125.671875 110.28125 125.449219 110.007812 125.449219 C 109.730469 125.449219 109.507812 125.671875 109.507812 125.945312 C 109.507812 126.222656 109.730469 126.445312 110.007812 126.445312 C 110.28125 126.445312 110.503906 126.222656 110.503906 125.945312 Z M 110.503906 125.945312 "/>
<path fill-rule="nonzero" fill="rgb(79.998779%, 79.998779%, 79.998779%)" fill-opacity="1" stroke-width="0.3985" stroke-linecap="butt" stroke-linejoin="miter" stroke="rgb(0%, 0%, 0%)" stroke-opacity="1" stroke-miterlimit="10" d="M 7.046281 0.00075 C 7.046281 3.891375 3.890031 7.043719 -0.00059375 7.043719 C -3.891219 7.043719 -7.043563 3.891375 -7.043563 0.00075 C -7.043563 -3.889875 -3.891219 -7.046125 -0.00059375 -7.046125 C 3.890031 -7.046125 7.046281 -3.889875 7.046281 0.00075 Z M 7.046281 0.00075 " transform="matrix(1, 0, 0, -1, 92.442, 151.032)"/>
<path fill-rule="nonzero" fill="rgb(0%, 0%, 0%)" fill-opacity="1" d="M 128.066406 151.03125 C 128.066406 150.757812 127.84375 150.535156 127.570312 150.535156 C 127.292969 150.535156 127.070312 150.757812 127.070312 151.03125 C 127.070312 151.308594 127.292969 151.53125 127.570312 151.53125 C 127.84375 151.53125 128.066406 151.308594 128.066406 151.03125 Z M 128.066406 151.03125 "/>
<g clip-path="url(#clip-0)">
<path fill-rule="nonzero" fill="rgb(79.998779%, 79.998779%, 79.998779%)" fill-opacity="1" d="M 117.050781 176.117188 C 117.050781 172.226562 113.898438 169.070312 110.007812 169.070312 C 106.113281 169.070312 102.960938 172.226562 102.960938 176.117188 C 102.960938 180.007812 106.113281 183.164062 110.007812 183.164062 C 113.898438 183.164062 117.050781 180.007812 117.050781 176.117188 Z M 117.050781 176.117188 "/>
</g>
<g clip-path="url(#clip-1)">
<path fill="none" stroke-width="0.3985" stroke-linecap="butt" stroke-linejoin="miter" stroke="rgb(0%, 0%, 0%)" stroke-opacity="1" stroke-miterlimit="10" d="M 7.044781 -0.0001875 C 7.044781 3.890438 3.892437 7.046688 0.0018125 7.046688 C -3.892719 7.046688 -7.045063 3.890438 -7.045063 -0.0001875 C -7.045063 -3.890812 -3.892719 -7.047062 0.0018125 -7.047062 C 3.892437 -7.047062 7.044781 -3.890812 7.044781 -0.0001875 Z M 7.044781 -0.0001875 " transform="matrix(1, 0, 0, -1, 110.006, 176.117)"/>
</g>
<g clip-path="url(#clip-2)">
<path fill-rule="nonzero" fill="rgb(79.998779%, 79.998779%, 79.998779%)" fill-opacity="1" d="M 152.179688 176.117188 C 152.179688 172.226562 149.023438 169.070312 145.132812 169.070312 C 141.242188 169.070312 138.089844 172.226562 138.089844 176.117188 C 138.089844 180.007812 141.242188 183.164062 145.132812 183.164062 C 149.023438 183.164062 152.179688 180.007812 152.179688 176.117188 Z M 152.179688 176.117188 "/>
</g>
<g clip-path="url(#clip-3)">
<path fill="none" stroke-width="0.3985" stroke-linecap="butt" stroke-linejoin="miter" stroke="rgb(0%, 0%, 0%)" stroke-opacity="1" stroke-miterlimit="10" d="M 7.045687 -0.0001875 C 7.045687 3.890438 3.889437 7.046688 -0.0011875 7.046688 C -3.891813 7.046688 -7.044156 3.890438 -7.044156 -0.0001875 C -7.044156 -3.890812 -3.891813 -7.047062 -0.0011875 -7.047062 C 3.889437 -7.047062 7.045687 -3.890812 7.045687 -0.0001875 Z M 7.045687 -0.0001875 " transform="matrix(1, 0, 0, -1, 145.134, 176.117)"/>
</g>
<path fill-rule="nonzero" fill="rgb(79.998779%, 79.998779%, 79.998779%)" fill-opacity="1" stroke-width="0.3985" stroke-linecap="butt" stroke-linejoin="miter" stroke="rgb(0%, 0%, 0%)" stroke-opacity="1" stroke-miterlimit="10" d="M 7.04375 0.00040625 C 7.04375 3.891031 3.891406 7.047281 0.00078125 7.047281 C -3.889844 7.047281 -7.046094 3.891031 -7.046094 0.00040625 C -7.046094 -3.890219 -3.889844 -7.046469 0.00078125 -7.046469 C 3.891406 -7.046469 7.04375 -3.890219 7.04375 0.00040625 Z M 7.04375 0.00040625 " transform="matrix(1, 0, 0, -1, 95.675, 55.309)"/>
<path fill="none" stroke-width="0.3985" stroke-linecap="butt" stroke-linejoin="miter" stroke="rgb(0%, 0%, 0%)" stroke-opacity="1" stroke-miterlimit="10" d="M -1.730594 -2.471062 L -15.035281 -21.471062 " transform="matrix(1, 0, 0, -1, 58.922, 2.818)"/>
<path fill="none" stroke-width="0.3985" stroke-linecap="butt" stroke-linejoin="miter" stroke="rgb(0%, 0%, 0%)" stroke-opacity="1" stroke-miterlimit="10" d="M 1.730344 -2.471062 L 18.788937 -26.834344 " transform="matrix(1, 0, 0, -1, 58.922, 2.818)"/>
<path fill="none" stroke-width="0.3985" stroke-linecap="butt" stroke-linejoin="miter" stroke="rgb(0%, 0%, 0%)" stroke-opacity="1" stroke-miterlimit="10" d="M 18.788937 -27.974969 L 2.023312 -51.920281 " transform="matrix(1, 0, 0, -1, 58.922, 2.818)"/>
<path fill="none" stroke-width="0.3985" stroke-linecap="butt" stroke-linejoin="miter" stroke="rgb(0%, 0%, 0%)" stroke-opacity="1" stroke-miterlimit="10" d="M 1.226437 -53.060906 L -29.871219 -97.474969 " transform="matrix(1, 0, 0, -1, 58.922, 2.818)"/>
<path fill="none" stroke-width="0.3985" stroke-linecap="butt" stroke-linejoin="miter" stroke="rgb(0%, 0%, 0%)" stroke-opacity="1" stroke-miterlimit="10" d="M -30.672 -98.615594 L -43.679813 -117.193719 " transform="matrix(1, 0, 0, -1, 58.922, 2.818)"/>
<path fill="none" stroke-width="0.3985" stroke-linecap="butt" stroke-linejoin="miter" stroke="rgb(0%, 0%, 0%)" stroke-opacity="1" stroke-miterlimit="10" d="M -29.871219 -98.615594 L -16.863406 -117.193719 " transform="matrix(1, 0, 0, -1, 58.922, 2.818)"/>
<path fill="none" stroke-width="0.3985" stroke-linecap="butt" stroke-linejoin="miter" stroke="rgb(0%, 0%, 0%)" stroke-opacity="1" stroke-miterlimit="10" d="M 2.023312 -53.060906 L 33.120969 -97.474969 " transform="matrix(1, 0, 0, -1, 58.922, 2.818)"/>
<path fill="none" stroke-width="0.3985" stroke-linecap="butt" stroke-linejoin="miter" stroke="rgb(0%, 0%, 0%)" stroke-opacity="1" stroke-miterlimit="10" d="M 33.120969 -98.615594 L 20.10925 -117.193719 " transform="matrix(1, 0, 0, -1, 58.922, 2.818)"/>
<path fill="none" stroke-width="0.3985" stroke-linecap="butt" stroke-linejoin="miter" stroke="rgb(0%, 0%, 0%)" stroke-opacity="1" stroke-miterlimit="10" d="M 33.92175 -98.615594 L 50.683469 -122.557 " transform="matrix(1, 0, 0, -1, 58.922, 2.818)"/>
<path fill="none" stroke-width="0.3985" stroke-linecap="butt" stroke-linejoin="miter" stroke="rgb(0%, 0%, 0%)" stroke-opacity="1" stroke-miterlimit="10" d="M 50.683469 -123.701531 L 37.675656 -142.279656 " transform="matrix(1, 0, 0, -1, 58.922, 2.818)"/>
<path fill="none" stroke-width="0.3985" stroke-linecap="butt" stroke-linejoin="miter" stroke="rgb(0%, 0%, 0%)" stroke-opacity="1" stroke-miterlimit="10" d="M 51.48425 -123.701531 L 68.249875 -147.642937 " transform="matrix(1, 0, 0, -1, 58.922, 2.818)"/>
<path fill="none" stroke-width="0.3985" stroke-linecap="butt" stroke-linejoin="miter" stroke="rgb(0%, 0%, 0%)" stroke-opacity="1" stroke-miterlimit="10" d="M 68.249875 -148.787469 L 55.238156 -167.365594 " transform="matrix(1, 0, 0, -1, 58.922, 2.818)"/>
<path fill="none" stroke-width="0.3985" stroke-linecap="butt" stroke-linejoin="miter" stroke="rgb(0%, 0%, 0%)" stroke-opacity="1" stroke-miterlimit="10" d="M 69.04675 -148.787469 L 82.058469 -167.365594 " transform="matrix(1, 0, 0, -1, 58.922, 2.818)"/>
<path fill="none" stroke-width="0.3985" stroke-linecap="butt" stroke-linejoin="miter" stroke="rgb(0%, 0%, 0%)" stroke-opacity="1" stroke-miterlimit="10" d="M 19.589719 -27.974969 L 32.597531 -46.557 " transform="matrix(1, 0, 0, -1, 58.922, 2.818)"/>
</svg>
