<?xml version="1.0" encoding="UTF-8"?>
<svg xmlns="http://www.w3.org/2000/svg" xmlns:xlink="http://www.w3.org/1999/xlink" width="156.221" height="208.447" viewBox="0 0 156.221 208.447">
<defs>
<clipPath id="clip-0">
<path clip-rule="nonzero" d="M 102 194 L 118 194 L 118 208.445312 L 102 208.445312 Z M 102 194 "/>
</clipPath>
<clipPath id="clip-1">
<path clip-rule="nonzero" d="M 97 188 L 123 188 L 123 208.445312 L 97 208.445312 Z M 97 188 "/>
</clipPath>
<clipPath id="clip-2">
<path clip-rule="nonzero" d="M 138 194 L 153 194 L 153 208.445312 L 138 208.445312 Z M 138 194 "/>
</clipPath>
<clipPath id="clip-3">
<path clip-rule="nonzero" d="M 132 188 L 156.222656 188 L 156.222656 208.445312 L 132 208.445312 Z M 132 188 "/>
</clipPath>
</defs>
<path fill-rule="nonzero" fill="rgb(0%, 0%, 0%)" fill-opacity="1" d="M 44.175781 2.816406 C 44.175781 1.261719 42.914062 0 41.359375 0 C 39.800781 0 38.539062 1.261719 38.539062 2.816406 C 38.539062 4.375 39.800781 5.636719 41.359375 5.636719 C 42.914062 5.636719 44.175781 4.375 44.175781 2.816406 Z M 44.175781 2.816406 "/>
<path fill-rule="nonzero" fill="rgb(79.998779%, 79.998779%, 79.998779%)" fill-opacity="1" stroke-width="0.3985" stroke-linecap="butt" stroke-linejoin="miter" stroke="rgb(0%, 0%, 0%)" stroke-opacity="1" stroke-miterlimit="10" d="M 7.045844 0.00034375 C 7.045844 3.890969 3.889594 7.047219 -0.00103125 7.047219 C -3.891656 7.047219 -7.044 3.890969 -7.044 0.00034375 C -7.044 -3.890281 -3.891656 -7.046531 -0.00103125 -7.046531 C 3.889594 -7.046531 7.045844 -3.890281 7.045844 0.00034375 Z M 7.045844 0.00034375 " transform="matrix(1, 0, 0, -1, 22.169, 30.223)"/>
<path fill-rule="nonzero" fill="rgb(0%, 0%, 0%)" fill-opacity="1" d="M 61.042969 30.222656 C 61.042969 29.949219 60.820312 29.726562 60.546875 29.726562 C 60.269531 29.726562 60.046875 29.949219 60.046875 30.222656 C 60.046875 30.5 60.269531 30.722656 60.546875 30.722656 C 60.820312 30.722656 61.042969 30.5 61.042969 30.222656 Z M 61.042969 30.222656 "/>
<path fill-rule="nonzero" fill="rgb(79.998779%, 79.998779%, 79.998779%)" fill-opacity="1" stroke-width="0.3985" stroke-linecap="butt" stroke-linejoin="miter" stroke="rgb(0%, 0%, 0%)" stroke-opacity="1" stroke-miterlimit="10" d="M 7.045344 0.00040625 C 7.045344 3.891031 3.893 7.047281 -0.00153125 7.047281 C -3.892156 7.047281 -7.0445 3.891031 -7.0445 0.00040625 C -7.0445 -3.890219 -3.892156 -7.046469 -0.00153125 -7.046469 C 3.893 -7.046469 7.045344 -3.890219 7.045344 0.00040625 Z M 7.045344 0.00040625 " transform="matrix(1, 0, 0, -1, 42.982, 55.309)"/>
<path fill-rule="nonzero" fill="rgb(0%, 0%, 0%)" fill-opacity="1" d="M 78.609375 55.308594 C 78.609375 55.035156 78.386719 54.8125 78.109375 54.8125 C 77.835938 54.8125 77.613281 55.035156 77.613281 55.308594 C 77.613281 55.585938 77.835938 55.808594 78.109375 55.808594 C 78.386719 55.808594 78.609375 55.585938 78.609375 55.308594 Z M 78.609375 55.308594 "/>
<path fill-rule="nonzero" fill="rgb(0%, 0%, 0%)" fill-opacity="1" d="M 61.046875 80.394531 C 61.046875 80.117188 60.820312 79.894531 60.546875 79.894531 C 60.273438 79.894531 60.050781 80.117188 60.050781 80.394531 C 60.050781 80.667969 60.273438 80.890625 60.546875 80.890625 C 60.820312 80.890625 61.046875 80.667969 61.046875 80.394531 Z M 61.046875 80.394531 "/>
<path fill-rule="nonzero" fill="rgb(0%, 0%, 0%)" fill-opacity="1" d="M 29.148438 125.945312 C 29.148438 125.671875 28.925781 125.449219 28.652344 125.449219 C 28.375 125.449219 28.152344 125.671875 28.152344 125.945312 C 28.152344 126.222656 28.375 126.445312 28.652344 126.445312 C 28.925781 126.445312 29.148438 126.222656 29.148438 125.945312 Z M 29.148438 125.945312 "/>
<path fill-rule="nonzero" fill="rgb(79.998779%, 79.998779%, 79.998779%)" fill-opacity="1" stroke-width="0.3985" stroke-linecap="butt" stroke-linejoin="miter" stroke="rgb(0%, 0%, 0%)" stroke-opacity="1" stroke-miterlimit="10" d="M 7.045813 0.00075 C 7.045813 3.891375 3.889563 7.043719 -0.0010625 7.043719 C -3.891687 7.043719 -7.044031 3.891375 -7.044031 0.00075 C -7.044031 -3.889875 -3.891687 -7.046125 -0.0010625 -7.046125 C 3.889563 -7.046125 7.045813 -3.889875 7.045813 0.00075 Z M 7.045813 0.00075 " transform="matrix(1, 0, 0, -1, 11.087, 151.032)"/>
<path fill-rule="nonzero" fill="rgb(79.998779%, 79.998779%, 79.998779%)" fill-opacity="1" stroke-width="0.3985" stroke-linecap="butt" stroke-linejoin="miter" stroke="rgb(0%, 0%, 0%)" stroke-opacity="1" stroke-miterlimit="10" d="M 7.046719 0.00075 C 7.046719 3.891375 3.890469 7.043719 -0.00015625 7.043719 C -3.890781 7.043719 -7.047031 3.891375 -7.047031 0.00075 C -7.047031 -3.889875 -3.890781 -7.046125 -0.00015625 -7.046125 C 3.890469 -7.046125 7.046719 -3.889875 7.046719 0.00075 Z M 7.046719 0.00075 " transform="matrix(1, 0, 0, -1, 46.215, 151.032)"/>
<path fill-rule="nonzero" fill="rgb(0%, 0%, 0%)" fill-opacity="1" d="M 92.941406 125.945312 C 92.941406 125.671875 92.71875 125.449219 92.441406 125.449219 C 92.167969 125.449219 91.945312 125.671875 91.945312 125.945312 C 91.945312 126.222656 92.167969 126.445312 92.441406 126.445312 C 92.71875 126.445312 92.941406 126.222656 92.941406 125.945312 Z M 92.941406 125.945312 "/>
<path fill-rule="nonzero" fill="rgb(79.998779%, 79.998779%, 79.998779%)" fill-opacity="1" stroke-width="0.3985" stroke-linecap="butt" stroke-linejoin="miter" stroke="rgb(0%, 0%, 0%)" stroke-opacity="1" stroke-miterlimit="10" d="M 7.043875 0.00075 C 7.043875 3.891375 3.891531 7.043719 0.00090625 7.043719 C -3.889719 7.043719 -7.045969 3.891375 -7.045969 0.00075 C -7.045969 -3.889875 -3.889719 -7.046125 0.00090625 -7.046125 C 3.891531 -7.046125 7.043875 -3.889875 7.043875 0.00075 Z M 7.043875 0.00075 " transform="matrix(1, 0, 0, -1, 74.878, 151.032)"/>
<path fill-rule="nonzero" fill="rgb(0%, 0%, 0%)" fill-opacity="1" d="M 110.503906 151.03125 C 110.503906 150.757812 110.28125 150.535156 110.007812 150.535156 C 109.730469 150.535156 109.507812 150.757812 109.507812 151.03125 C 109.507812 151.308594 109.730469 151.53125 110.007812 151.53125 C 110.28125 151.53125 110.503906 151.308594 110.503906 151.03125 Z M 110.503906 151.03125 "/>
<path fill-rule="nonzero" fill="rgb(79.998779%, 79.998779%, 79.998779%)" fill-opacity="1" stroke-width="0.3985" stroke-linecap="butt" stroke-linejoin="miter" stroke="rgb(0%, 0%, 0%)" stroke-opacity="1" stroke-miterlimit="10" d="M 7.046281 -0.0001875 C 7.046281 3.890437 3.890031 7.046687 -0.00059375 7.046687 C -3.891219 7.046687 -7.043562 3.890437 -7.043562 -0.0001875 C -7.043562 -3.890813 -3.891219 -7.047063 -0.00059375 -7.047063 C 3.890031 -7.047063 7.046281 -3.890813 7.046281 -0.0001875 Z M 7.046281 -0.0001875 " transform="matrix(1, 0, 0, -1, 92.442, 176.117)"/>
<path fill-rule="nonzero" fill="rgb(0%, 0%, 0%)" fill-opacity="1" d="M 128.066406 176.117188 C 128.066406 175.84375 127.84375 175.617188 127.570312 175.617188 C 127.292969 175.617188 127.070312 175.84375 127.070312 176.117188 C 127.070312 176.390625 127.292969 176.613281 127.570312 176.613281 C 127.84375 176.613281 128.066406 176.390625 128.066406 176.117188 Z M 128.066406 176.117188 "/>
<g clip-path="url(#clip-0)">
<path fill-rule="nonzero" fill="rgb(79.998779%, 79.998779%, 79.998779%)" fill-opacity="1" d="M 117.050781 201.203125 C 117.050781 197.3125 113.898438 194.15625 110.007812 194.15625 C 106.113281 194.15625 102.960938 197.3125 102.960938 201.203125 C 102.960938 205.09375 106.113281 208.246094 110.007812 208.246094 C 113.898438 208.246094 117.050781 205.09375 117.050781 201.203125 Z M 117.050781 201.203125 "/>
</g>
<g clip-path="url(#clip-1)">
<path fill="none" stroke-width="0.3985" stroke-linecap="butt" stroke-linejoin="miter" stroke="rgb(0%, 0%, 0%)" stroke-opacity="1" stroke-miterlimit="10" d="M 7.044781 -0.001125 C 7.044781 3.8895 3.892437 7.04575 0.0018125 7.04575 C -3.892719 7.04575 -7.045063 3.8895 -7.045063 -0.001125 C -7.045063 -3.89175 -3.892719 -7.044094 0.0018125 -7.044094 C 3.892437 -7.044094 7.044781 -3.89175 7.044781 -0.001125 Z M 7.044781 -0.001125 " transform="matrix(1, 0, 0, -1, 110.006, 201.202)"/>
</g>
<g clip-path="url(#clip-2)">
<path fill-rule="nonzero" fill="rgb(79.998779%, 79.998779%, 79.998779%)" fill-opacity="1" d="M 152.179688 201.203125 C 152.179688 197.3125 149.023438 194.15625 145.132812 194.15625 C 141.242188 194.15625 138.089844 197.3125 138.089844 201.203125 C 138.089844 205.09375 141.242188 208.246094 145.132812 208.246094 C 149.023438 208.246094 152.179688 205.09375 152.179688 201.203125 Z M 152.179688 201.203125 "/>
</g>
<g clip-path="url(#clip-3)">
<path fill="none" stroke-width="0.3985" stroke-linecap="butt" stroke-linejoin="miter" stroke="rgb(0%, 0%, 0%)" stroke-opacity="1" stroke-miterlimit="10" d="M 7.045688 -0.001125 C 7.045688 3.8895 3.889438 7.04575 -0.0011875 7.04575 C -3.891812 7.04575 -7.044156 3.8895 -7.044156 -0.001125 C -7.044156 -3.89175 -3.891812 -7.044094 -0.0011875 -7.044094 C 3.889438 -7.044094 7.045688 -3.89175 7.045688 -0.001125 Z M 7.045688 -0.001125 " transform="matrix(1, 0, 0, -1, 145.134, 201.202)"/>
</g>
<path fill-rule="nonzero" fill="rgb(79.998779%, 79.998779%, 79.998779%)" fill-opacity="1" stroke-width="0.3985" stroke-linecap="butt" stroke-linejoin="miter" stroke="rgb(0%, 0%, 0%)" stroke-opacity="1" stroke-miterlimit="10" d="M 7.04375 -0.00053125 C 7.04375 3.890094 3.891406 7.046344 0.00078125 7.046344 C -3.889844 7.046344 -7.046094 3.890094 -7.046094 -0.00053125 C -7.046094 -3.891156 -3.889844 -7.0435 0.00078125 -7.0435 C 3.891406 -7.0435 7.04375 -3.891156 7.04375 -0.00053125 Z M 7.04375 -0.00053125 " transform="matrix(1, 0, 0, -1, 95.675, 80.394)"/>
<path fill="none" stroke-width="0.3985" stroke-linecap="butt" stroke-linejoin="miter" stroke="rgb(0%, 0%, 0%)" stroke-opacity="1" stroke-miterlimit="10" d="M -1.729094 -2.471062 L -15.033781 -21.471062 " transform="matrix(1, 0, 0, -1, 41.358, 2.818)"/>
<path fill="none" stroke-width="0.3985" stroke-linecap="butt" stroke-linejoin="miter" stroke="rgb(0%, 0%, 0%)" stroke-opacity="1" stroke-miterlimit="10" d="M 1.731844 -2.471062 L 18.790438 -26.834344 " transform="matrix(1, 0, 0, -1, 41.358, 2.818)"/>
<path fill="none" stroke-width="0.3985" stroke-linecap="butt" stroke-linejoin="miter" stroke="rgb(0%, 0%, 0%)" stroke-opacity="1" stroke-miterlimit="10" d="M 18.790438 -27.974969 L 5.778719 -46.557 " transform="matrix(1, 0, 0, -1, 41.358, 2.818)"/>
<path fill="none" stroke-width="0.3985" stroke-linecap="butt" stroke-linejoin="miter" stroke="rgb(0%, 0%, 0%)" stroke-opacity="1" stroke-miterlimit="10" d="M 19.587313 -27.974969 L 36.352938 -51.920281 " transform="matrix(1, 0, 0, -1, 41.358, 2.818)"/>
<path fill="none" stroke-width="0.3985" stroke-linecap="butt" stroke-linejoin="miter" stroke="rgb(0%, 0%, 0%)" stroke-opacity="1" stroke-miterlimit="10" d="M 36.352938 -53.060906 L 19.587313 -77.006219 " transform="matrix(1, 0, 0, -1, 41.358, 2.818)"/>
<path fill="none" stroke-width="0.3985" stroke-linecap="butt" stroke-linejoin="miter" stroke="rgb(0%, 0%, 0%)" stroke-opacity="1" stroke-miterlimit="10" d="M 18.790438 -78.146844 L -12.307219 -122.557 " transform="matrix(1, 0, 0, -1, 41.358, 2.818)"/>
<path fill="none" stroke-width="0.3985" stroke-linecap="butt" stroke-linejoin="miter" stroke="rgb(0%, 0%, 0%)" stroke-opacity="1" stroke-miterlimit="10" d="M -13.108 -123.701531 L -26.115812 -142.279656 " transform="matrix(1, 0, 0, -1, 41.358, 2.818)"/>
<path fill="none" stroke-width="0.3985" stroke-linecap="butt" stroke-linejoin="miter" stroke="rgb(0%, 0%, 0%)" stroke-opacity="1" stroke-miterlimit="10" d="M -12.307219 -123.701531 L 0.700594 -142.279656 " transform="matrix(1, 0, 0, -1, 41.358, 2.818)"/>
<path fill="none" stroke-width="0.3985" stroke-linecap="butt" stroke-linejoin="miter" stroke="rgb(0%, 0%, 0%)" stroke-opacity="1" stroke-miterlimit="10" d="M 19.587313 -78.146844 L 50.684969 -122.557 " transform="matrix(1, 0, 0, -1, 41.358, 2.818)"/>
<path fill="none" stroke-width="0.3985" stroke-linecap="butt" stroke-linejoin="miter" stroke="rgb(0%, 0%, 0%)" stroke-opacity="1" stroke-miterlimit="10" d="M 50.684969 -123.701531 L 37.677156 -142.279656 " transform="matrix(1, 0, 0, -1, 41.358, 2.818)"/>
<path fill="none" stroke-width="0.3985" stroke-linecap="butt" stroke-linejoin="miter" stroke="rgb(0%, 0%, 0%)" stroke-opacity="1" stroke-miterlimit="10" d="M 51.48575 -123.701531 L 68.247469 -147.642937 " transform="matrix(1, 0, 0, -1, 41.358, 2.818)"/>
<path fill="none" stroke-width="0.3985" stroke-linecap="butt" stroke-linejoin="miter" stroke="rgb(0%, 0%, 0%)" stroke-opacity="1" stroke-miterlimit="10" d="M 68.247469 -148.787469 L 55.239656 -167.365594 " transform="matrix(1, 0, 0, -1, 41.358, 2.818)"/>
<path fill="none" stroke-width="0.3985" stroke-linecap="butt" stroke-linejoin="miter" stroke="rgb(0%, 0%, 0%)" stroke-opacity="1" stroke-miterlimit="10" d="M 69.04825 -148.787469 L 85.813875 -172.728875 " transform="matrix(1, 0, 0, -1, 41.358, 2.818)"/>
<path fill="none" stroke-width="0.3985" stroke-linecap="butt" stroke-linejoin="miter" stroke="rgb(0%, 0%, 0%)" stroke-opacity="1" stroke-miterlimit="10" d="M 85.813875 -173.873406 L 72.802156 -192.451531 " transform="matrix(1, 0, 0, -1, 41.358, 2.818)"/>
<path fill="none" stroke-width="0.3985" stroke-linecap="butt" stroke-linejoin="miter" stroke="rgb(0%, 0%, 0%)" stroke-opacity="1" stroke-miterlimit="10" d="M 86.614656 -173.873406 L 99.622469 -192.451531 " transform="matrix(1, 0, 0, -1, 41.358, 2.818)"/>
<path fill="none" stroke-width="0.3985" stroke-linecap="butt" stroke-linejoin="miter" stroke="rgb(0%, 0%, 0%)" stroke-opacity="1" stroke-miterlimit="10" d="M 37.153719 -53.060906 L 50.161531 -71.642937 " transform="matrix(1, 0, 0, -1, 41.358, 2.818)"/>
</svg>
