<?xml version="1.0" encoding="UTF-8"?>
<svg xmlns="http://www.w3.org/2000/svg" xmlns:xlink="http://www.w3.org/1999/xlink" width="180.267" height="208.447" viewBox="0 0 180.267 208.447">
<defs>
<clipPath id="clip-0">
<path clip-rule="nonzero" d="M 127 194 L 142 194 L 142 208.445312 L 127 208.445312 Z M 127 194 "/>
</clipPath>
<clipPath id="clip-1">
<path clip-rule="nonzero" d="M 121 188 L 147 188 L 147 208.445312 L 121 208.445312 Z M 121 188 "/>
</clipPath>
<clipPath id="clip-2">
<path clip-rule="nonzero" d="M 162 194 L 177 194 L 177 208.445312 L 162 208.445312 Z M 162 194 "/>
</clipPath>
<clipPath id="clip-3">
<path clip-rule="nonzero" d="M 156 188 L 180.265625 188 L 180.265625 208.445312 L 156 208.445312 Z M 156 188 "/>
</clipPath>
</defs>
<path fill-rule="nonzero" fill="rgb(0%, 0%, 0%)" fill-opacity="1" d="M 33.09375 2.816406 C 33.09375 1.261719 31.832031 0 30.277344 0 C 28.71875 0 27.457031 1.261719 27.457031 2.816406 C 27.457031 4.375 28.71875 5.636719 30.277344 5.636719 C 31.832031 5.636719 33.09375 4.375 33.09375 2.816406 Z M 33.09375 2.816406 "/>
<path fill-rule="nonzero" fill="rgb(79.998779%, 79.998779%, 79.998779%)" fill-opacity="1" stroke-width="0.3985" stroke-linecap="butt" stroke-linejoin="miter" stroke="rgb(0%, 0%, 0%)" stroke-opacity="1" stroke-miterlimit="10" d="M 7.045813 0.00034375 C 7.045813 3.890969 3.889563 7.047219 -0.0010625 7.047219 C -3.891687 7.047219 -7.044031 3.890969 -7.044031 0.00034375 C -7.044031 -3.890281 -3.891687 -7.046531 -0.0010625 -7.046531 C 3.889563 -7.046531 7.045813 -3.890281 7.045813 0.00034375 Z M 7.045813 0.00034375 " transform="matrix(1, 0, 0, -1, 11.087, 30.223)"/>
<path fill-rule="nonzero" fill="rgb(0%, 0%, 0%)" fill-opacity="1" d="M 49.960938 30.222656 C 49.960938 29.949219 49.738281 29.726562 49.464844 29.726562 C 49.1875 29.726562 48.964844 29.949219 48.964844 30.222656 C 48.964844 30.5 49.1875 30.722656 49.464844 30.722656 C 49.738281 30.722656 49.960938 30.5 49.960938 30.222656 Z M 49.960938 30.222656 "/>
<path fill-rule="nonzero" fill="rgb(79.998779%, 79.998779%, 79.998779%)" fill-opacity="1" stroke-width="0.3985" stroke-linecap="butt" stroke-linejoin="miter" stroke="rgb(0%, 0%, 0%)" stroke-opacity="1" stroke-miterlimit="10" d="M 7.045313 0.00040625 C 7.045313 3.891031 3.892969 7.047281 -0.0015625 7.047281 C -3.892187 7.047281 -7.044531 3.891031 -7.044531 0.00040625 C -7.044531 -3.890219 -3.892187 -7.046469 -0.0015625 -7.046469 C 3.892969 -7.046469 7.045313 -3.890219 7.045313 0.00040625 Z M 7.045313 0.00040625 " transform="matrix(1, 0, 0, -1, 31.9, 55.309)"/>
<path fill-rule="nonzero" fill="rgb(0%, 0%, 0%)" fill-opacity="1" d="M 67.527344 55.308594 C 67.527344 55.035156 67.304688 54.8125 67.027344 54.8125 C 66.753906 54.8125 66.53125 55.035156 66.53125 55.308594 C 66.53125 55.585938 66.753906 55.808594 67.027344 55.808594 C 67.304688 55.808594 67.527344 55.585938 67.527344 55.308594 Z M 67.527344 55.308594 "/>
<path fill-rule="nonzero" fill="rgb(0%, 0%, 0%)" fill-opacity="1" d="M 35.632812 100.863281 C 35.632812 100.585938 35.40625 100.363281 35.132812 100.363281 C 34.859375 100.363281 34.636719 100.585938 34.636719 100.863281 C 34.636719 101.136719 34.859375 101.359375 35.132812 101.359375 C 35.40625 101.359375 35.632812 101.136719 35.632812 100.863281 Z M 35.632812 100.863281 "/>
<path fill-rule="nonzero" fill="rgb(79.998779%, 79.998779%, 79.998779%)" fill-opacity="1" stroke-width="0.3985" stroke-linecap="butt" stroke-linejoin="miter" stroke="rgb(0%, 0%, 0%)" stroke-opacity="1" stroke-miterlimit="10" d="M 7.044281 0.0016875 C 7.044281 3.892313 3.891937 7.044656 0.0013125 7.044656 C -3.889313 7.044656 -7.045563 3.892313 -7.045563 0.0016875 C -7.045563 -3.892844 -3.889313 -7.045187 0.0013125 -7.045187 C 3.891937 -7.045187 7.044281 -3.892844 7.044281 0.0016875 Z M 7.044281 0.0016875 " transform="matrix(1, 0, 0, -1, 17.569, 125.947)"/>
<path fill-rule="nonzero" fill="rgb(79.998779%, 79.998779%, 79.998779%)" fill-opacity="1" stroke-width="0.3985" stroke-linecap="butt" stroke-linejoin="miter" stroke="rgb(0%, 0%, 0%)" stroke-opacity="1" stroke-miterlimit="10" d="M 7.045187 0.0016875 C 7.045187 3.892313 3.892844 7.044656 -0.0016875 7.044656 C -3.892313 7.044656 -7.044656 3.892313 -7.044656 0.0016875 C -7.044656 -3.892844 -3.892313 -7.045187 -0.0016875 -7.045187 C 3.892844 -7.045187 7.045187 -3.892844 7.045187 0.0016875 Z M 7.045187 0.0016875 " transform="matrix(1, 0, 0, -1, 52.697, 125.947)"/>
<path fill-rule="nonzero" fill="rgb(0%, 0%, 0%)" fill-opacity="1" d="M 99.421875 100.863281 C 99.421875 100.585938 99.199219 100.363281 98.925781 100.363281 C 98.648438 100.363281 98.425781 100.585938 98.425781 100.863281 C 98.425781 101.136719 98.648438 101.359375 98.925781 101.359375 C 99.199219 101.359375 99.421875 101.136719 99.421875 100.863281 Z M 99.421875 100.863281 "/>
<path fill-rule="nonzero" fill="rgb(79.998779%, 79.998779%, 79.998779%)" fill-opacity="1" stroke-width="0.3985" stroke-linecap="butt" stroke-linejoin="miter" stroke="rgb(0%, 0%, 0%)" stroke-opacity="1" stroke-miterlimit="10" d="M 7.04725 0.0016875 C 7.04725 3.892313 3.891 7.044656 0.000375 7.044656 C -3.89025 7.044656 -7.0465 3.892313 -7.0465 0.0016875 C -7.0465 -3.892844 -3.89025 -7.045187 0.000375 -7.045187 C 3.891 -7.045187 7.04725 -3.892844 7.04725 0.0016875 Z M 7.04725 0.0016875 " transform="matrix(1, 0, 0, -1, 81.359, 125.947)"/>
<path fill-rule="nonzero" fill="rgb(0%, 0%, 0%)" fill-opacity="1" d="M 116.984375 125.945312 C 116.984375 125.671875 116.761719 125.449219 116.488281 125.449219 C 116.214844 125.449219 115.988281 125.671875 115.988281 125.945312 C 115.988281 126.222656 116.214844 126.445312 116.488281 126.445312 C 116.761719 126.445312 116.984375 126.222656 116.984375 125.945312 Z M 116.984375 125.945312 "/>
<path fill-rule="nonzero" fill="rgb(79.998779%, 79.998779%, 79.998779%)" fill-opacity="1" stroke-width="0.3985" stroke-linecap="butt" stroke-linejoin="miter" stroke="rgb(0%, 0%, 0%)" stroke-opacity="1" stroke-miterlimit="10" d="M 7.04575 0.00075 C 7.04575 3.891375 3.8895 7.043719 -0.001125 7.043719 C -3.89175 7.043719 -7.044094 3.891375 -7.044094 0.00075 C -7.044094 -3.889875 -3.89175 -7.046125 -0.001125 -7.046125 C 3.8895 -7.046125 7.04575 -3.889875 7.04575 0.00075 Z M 7.04575 0.00075 " transform="matrix(1, 0, 0, -1, 98.923, 151.032)"/>
<path fill-rule="nonzero" fill="rgb(0%, 0%, 0%)" fill-opacity="1" d="M 134.550781 151.03125 C 134.550781 150.757812 134.328125 150.535156 134.050781 150.535156 C 133.777344 150.535156 133.554688 150.757812 133.554688 151.03125 C 133.554688 151.308594 133.777344 151.53125 134.050781 151.53125 C 134.328125 151.53125 134.550781 151.308594 134.550781 151.03125 Z M 134.550781 151.03125 "/>
<path fill-rule="nonzero" fill="rgb(79.998779%, 79.998779%, 79.998779%)" fill-opacity="1" stroke-width="0.3985" stroke-linecap="butt" stroke-linejoin="miter" stroke="rgb(0%, 0%, 0%)" stroke-opacity="1" stroke-miterlimit="10" d="M 7.04425 -0.0001875 C 7.04425 3.890437 3.891906 7.046687 0.00128125 7.046687 C -3.889344 7.046687 -7.045594 3.890437 -7.045594 -0.0001875 C -7.045594 -3.890813 -3.889344 -7.047063 0.00128125 -7.047063 C 3.891906 -7.047063 7.04425 -3.890813 7.04425 -0.0001875 Z M 7.04425 -0.0001875 " transform="matrix(1, 0, 0, -1, 116.487, 176.117)"/>
<path fill-rule="nonzero" fill="rgb(0%, 0%, 0%)" fill-opacity="1" d="M 152.113281 176.117188 C 152.113281 175.84375 151.890625 175.617188 151.617188 175.617188 C 151.339844 175.617188 151.117188 175.84375 151.117188 176.117188 C 151.117188 176.390625 151.339844 176.613281 151.617188 176.613281 C 151.890625 176.613281 152.113281 176.390625 152.113281 176.117188 Z M 152.113281 176.117188 "/>
<g clip-path="url(#clip-0)">
<path fill-rule="nonzero" fill="rgb(79.998779%, 79.998779%, 79.998779%)" fill-opacity="1" d="M 141.097656 201.203125 C 141.097656 197.3125 137.941406 194.15625 134.050781 194.15625 C 130.160156 194.15625 127.003906 197.3125 127.003906 201.203125 C 127.003906 205.09375 130.160156 208.246094 134.050781 208.246094 C 137.941406 208.246094 141.097656 205.09375 141.097656 201.203125 Z M 141.097656 201.203125 "/>
</g>
<g clip-path="url(#clip-1)">
<path fill="none" stroke-width="0.3985" stroke-linecap="butt" stroke-linejoin="miter" stroke="rgb(0%, 0%, 0%)" stroke-opacity="1" stroke-miterlimit="10" d="M 7.046656 -0.001125 C 7.046656 3.8895 3.890406 7.04575 -0.00021875 7.04575 C -3.890844 7.04575 -7.047094 3.8895 -7.047094 -0.001125 C -7.047094 -3.89175 -3.890844 -7.044094 -0.00021875 -7.044094 C 3.890406 -7.044094 7.046656 -3.89175 7.046656 -0.001125 Z M 7.046656 -0.001125 " transform="matrix(1, 0, 0, -1, 134.051, 201.202)"/>
</g>
<g clip-path="url(#clip-2)">
<path fill-rule="nonzero" fill="rgb(79.998779%, 79.998779%, 79.998779%)" fill-opacity="1" d="M 176.226562 201.203125 C 176.226562 197.3125 173.070312 194.15625 169.179688 194.15625 C 165.289062 194.15625 162.132812 197.3125 162.132812 201.203125 C 162.132812 205.09375 165.289062 208.246094 169.179688 208.246094 C 173.070312 208.246094 176.226562 205.09375 176.226562 201.203125 Z M 176.226562 201.203125 "/>
</g>
<g clip-path="url(#clip-3)">
<path fill="none" stroke-width="0.3985" stroke-linecap="butt" stroke-linejoin="miter" stroke="rgb(0%, 0%, 0%)" stroke-opacity="1" stroke-miterlimit="10" d="M 7.046562 -0.001125 C 7.046562 3.8895 3.890312 7.04575 -0.0003125 7.04575 C -3.890938 7.04575 -7.047188 3.8895 -7.047188 -0.001125 C -7.047188 -3.89175 -3.890938 -7.044094 -0.0003125 -7.044094 C 3.890312 -7.044094 7.046562 -3.89175 7.046562 -0.001125 Z M 7.046562 -0.001125 " transform="matrix(1, 0, 0, -1, 169.18, 201.202)"/>
</g>
<path fill="none" stroke-width="0.3985" stroke-linecap="butt" stroke-linejoin="miter" stroke="rgb(0%, 0%, 0%)" stroke-opacity="1" stroke-miterlimit="10" d="M -1.729125 -2.471062 L -15.033812 -21.471062 " transform="matrix(1, 0, 0, -1, 30.276, 2.818)"/>
<path fill="none" stroke-width="0.3985" stroke-linecap="butt" stroke-linejoin="miter" stroke="rgb(0%, 0%, 0%)" stroke-opacity="1" stroke-miterlimit="10" d="M 1.731813 -2.471062 L 18.790406 -26.834344 " transform="matrix(1, 0, 0, -1, 30.276, 2.818)"/>
<path fill="none" stroke-width="0.3985" stroke-linecap="butt" stroke-linejoin="miter" stroke="rgb(0%, 0%, 0%)" stroke-opacity="1" stroke-miterlimit="10" d="M 18.790406 -27.974969 L 5.778688 -46.557 " transform="matrix(1, 0, 0, -1, 30.276, 2.818)"/>
<path fill="none" stroke-width="0.3985" stroke-linecap="butt" stroke-linejoin="miter" stroke="rgb(0%, 0%, 0%)" stroke-opacity="1" stroke-miterlimit="10" d="M 19.587281 -27.974969 L 36.352906 -51.920281 " transform="matrix(1, 0, 0, -1, 30.276, 2.818)"/>
<path fill="none" stroke-width="0.3985" stroke-linecap="butt" stroke-linejoin="miter" stroke="rgb(0%, 0%, 0%)" stroke-opacity="1" stroke-miterlimit="10" d="M 36.352906 -53.060906 L 5.259156 -97.474969 " transform="matrix(1, 0, 0, -1, 30.276, 2.818)"/>
<path fill="none" stroke-width="0.3985" stroke-linecap="butt" stroke-linejoin="miter" stroke="rgb(0%, 0%, 0%)" stroke-opacity="1" stroke-miterlimit="10" d="M 4.458375 -98.615594 L -8.553344 -117.193719 " transform="matrix(1, 0, 0, -1, 30.276, 2.818)"/>
<path fill="none" stroke-width="0.3985" stroke-linecap="butt" stroke-linejoin="miter" stroke="rgb(0%, 0%, 0%)" stroke-opacity="1" stroke-miterlimit="10" d="M 5.259156 -98.615594 L 18.266969 -117.193719 " transform="matrix(1, 0, 0, -1, 30.276, 2.818)"/>
<path fill="none" stroke-width="0.3985" stroke-linecap="butt" stroke-linejoin="miter" stroke="rgb(0%, 0%, 0%)" stroke-opacity="1" stroke-miterlimit="10" d="M 37.153688 -53.060906 L 68.247438 -97.474969 " transform="matrix(1, 0, 0, -1, 30.276, 2.818)"/>
<path fill="none" stroke-width="0.3985" stroke-linecap="butt" stroke-linejoin="miter" stroke="rgb(0%, 0%, 0%)" stroke-opacity="1" stroke-miterlimit="10" d="M 68.247438 -98.615594 L 55.239625 -117.193719 " transform="matrix(1, 0, 0, -1, 30.276, 2.818)"/>
<path fill="none" stroke-width="0.3985" stroke-linecap="butt" stroke-linejoin="miter" stroke="rgb(0%, 0%, 0%)" stroke-opacity="1" stroke-miterlimit="10" d="M 69.048219 -98.615594 L 85.813844 -122.557 " transform="matrix(1, 0, 0, -1, 30.276, 2.818)"/>
<path fill="none" stroke-width="0.3985" stroke-linecap="butt" stroke-linejoin="miter" stroke="rgb(0%, 0%, 0%)" stroke-opacity="1" stroke-miterlimit="10" d="M 85.813844 -123.701531 L 72.802125 -142.279656 " transform="matrix(1, 0, 0, -1, 30.276, 2.818)"/>
<path fill="none" stroke-width="0.3985" stroke-linecap="butt" stroke-linejoin="miter" stroke="rgb(0%, 0%, 0%)" stroke-opacity="1" stroke-miterlimit="10" d="M 86.614625 -123.701531 L 103.376344 -147.642937 " transform="matrix(1, 0, 0, -1, 30.276, 2.818)"/>
<path fill="none" stroke-width="0.3985" stroke-linecap="butt" stroke-linejoin="miter" stroke="rgb(0%, 0%, 0%)" stroke-opacity="1" stroke-miterlimit="10" d="M 103.376344 -148.787469 L 90.368531 -167.365594 " transform="matrix(1, 0, 0, -1, 30.276, 2.818)"/>
<path fill="none" stroke-width="0.3985" stroke-linecap="butt" stroke-linejoin="miter" stroke="rgb(0%, 0%, 0%)" stroke-opacity="1" stroke-miterlimit="10" d="M 104.177125 -148.787469 L 120.94275 -172.728875 " transform="matrix(1, 0, 0, -1, 30.276, 2.818)"/>
<path fill="none" stroke-width="0.3985" stroke-linecap="butt" stroke-linejoin="miter" stroke="rgb(0%, 0%, 0%)" stroke-opacity="1" stroke-miterlimit="10" d="M 120.94275 -173.873406 L 107.931031 -192.451531 " transform="matrix(1, 0, 0, -1, 30.276, 2.818)"/>
<path fill="none" stroke-width="0.3985" stroke-linecap="butt" stroke-linejoin="miter" stroke="rgb(0%, 0%, 0%)" stroke-opacity="1" stroke-miterlimit="10" d="M 121.739625 -173.873406 L 134.751344 -192.451531 " transform="matrix(1, 0, 0, -1, 30.276, 2.818)"/>
</svg>
