<?xml version="1.0" encoding="UTF-8"?>
<svg xmlns="http://www.w3.org/2000/svg" xmlns:xlink="http://www.w3.org/1999/xlink" width="173.785" height="155.956" viewBox="0 0 173.785 155.956">
<defs>
<clipPath id="clip-0">
<path clip-rule="nonzero" d="M 120 141 L 135 141 L 135 155.957031 L 120 155.957031 Z M 120 141 "/>
</clipPath>
<clipPath id="clip-1">
<path clip-rule="nonzero" d="M 114 136 L 141 136 L 141 155.957031 L 114 155.957031 Z M 114 136 "/>
</clipPath>
<clipPath id="clip-2">
<path clip-rule="nonzero" d="M 155 141 L 170 141 L 170 155.957031 L 155 155.957031 Z M 155 141 "/>
</clipPath>
<clipPath id="clip-3">
<path clip-rule="nonzero" d="M 150 136 L 173.785156 136 L 173.785156 155.957031 L 150 155.957031 Z M 150 136 "/>
</clipPath>
</defs>
<path fill-rule="nonzero" fill="rgb(0%, 0%, 0%)" fill-opacity="1" d="M 63.363281 2.816406 C 63.363281 1.261719 62.101562 0 60.546875 0 C 58.992188 0 57.730469 1.261719 57.730469 2.816406 C 57.730469 4.375 58.992188 5.636719 60.546875 5.636719 C 62.101562 5.636719 63.363281 4.375 63.363281 2.816406 Z M 63.363281 2.816406 "/>
<path fill-rule="nonzero" fill="rgb(0%, 0%, 0%)" fill-opacity="1" d="M 29.148438 48.371094 C 29.148438 48.097656 28.925781 47.871094 28.652344 47.871094 C 28.375 47.871094 28.152344 48.097656 28.152344 48.371094 C 28.152344 48.644531 28.375 48.867188 28.652344 48.867188 C 28.925781 48.867188 29.148438 48.644531 29.148438 48.371094 Z M 29.148438 48.371094 "/>
<path fill-rule="nonzero" fill="rgb(79.998779%, 79.998779%, 79.998779%)" fill-opacity="1" stroke-width="0.3985" stroke-linecap="butt" stroke-linejoin="miter" stroke="rgb(0%, 0%, 0%)" stroke-opacity="1" stroke-miterlimit="10" d="M 7.045813 -0.00103125 C 7.045813 3.889594 3.889563 7.045844 -0.0010625 7.045844 C -3.891687 7.045844 -7.044031 3.889594 -7.044031 -0.00103125 C -7.044031 -3.891656 -3.891687 -7.044 -0.0010625 -7.044 C 3.889563 -7.044 7.045813 -3.891656 7.045813 -0.00103125 Z M 7.045813 -0.00103125 " transform="matrix(1, 0, 0, -1, 11.087, 73.456)"/>
<path fill-rule="nonzero" fill="rgb(79.998779%, 79.998779%, 79.998779%)" fill-opacity="1" stroke-width="0.3985" stroke-linecap="butt" stroke-linejoin="miter" stroke="rgb(0%, 0%, 0%)" stroke-opacity="1" stroke-miterlimit="10" d="M 7.046719 -0.00103125 C 7.046719 3.889594 3.890469 7.045844 -0.00015625 7.045844 C -3.890781 7.045844 -7.047031 3.889594 -7.047031 -0.00103125 C -7.047031 -3.891656 -3.890781 -7.044 -0.00015625 -7.044 C 3.890469 -7.044 7.046719 -3.891656 7.046719 -0.00103125 Z M 7.046719 -0.00103125 " transform="matrix(1, 0, 0, -1, 46.215, 73.456)"/>
<path fill-rule="nonzero" fill="rgb(0%, 0%, 0%)" fill-opacity="1" d="M 92.941406 48.371094 C 92.941406 48.097656 92.71875 47.871094 92.441406 47.871094 C 92.167969 47.871094 91.945312 48.097656 91.945312 48.371094 C 91.945312 48.644531 92.167969 48.867188 92.441406 48.867188 C 92.71875 48.867188 92.941406 48.644531 92.941406 48.371094 Z M 92.941406 48.371094 "/>
<path fill-rule="nonzero" fill="rgb(79.998779%, 79.998779%, 79.998779%)" fill-opacity="1" stroke-width="0.3985" stroke-linecap="butt" stroke-linejoin="miter" stroke="rgb(0%, 0%, 0%)" stroke-opacity="1" stroke-miterlimit="10" d="M 7.043875 -0.00103125 C 7.043875 3.889594 3.891531 7.045844 0.00090625 7.045844 C -3.889719 7.045844 -7.045969 3.889594 -7.045969 -0.00103125 C -7.045969 -3.891656 -3.889719 -7.044 0.00090625 -7.044 C 3.891531 -7.044 7.043875 -3.891656 7.043875 -0.00103125 Z M 7.043875 -0.00103125 " transform="matrix(1, 0, 0, -1, 74.878, 73.456)"/>
<path fill-rule="nonzero" fill="rgb(0%, 0%, 0%)" fill-opacity="1" d="M 110.503906 73.457031 C 110.503906 73.179688 110.28125 72.957031 110.007812 72.957031 C 109.730469 72.957031 109.507812 73.179688 109.507812 73.457031 C 109.507812 73.730469 109.730469 73.953125 110.007812 73.953125 C 110.28125 73.953125 110.503906 73.730469 110.503906 73.457031 Z M 110.503906 73.457031 "/>
<path fill-rule="nonzero" fill="rgb(79.998779%, 79.998779%, 79.998779%)" fill-opacity="1" stroke-width="0.3985" stroke-linecap="butt" stroke-linejoin="miter" stroke="rgb(0%, 0%, 0%)" stroke-opacity="1" stroke-miterlimit="10" d="M 7.046281 0.0019375 C 7.046281 3.892563 3.890031 7.044906 -0.00059375 7.044906 C -3.891219 7.044906 -7.043562 3.892563 -7.043562 0.0019375 C -7.043562 -3.892594 -3.891219 -7.044937 -0.00059375 -7.044937 C 3.890031 -7.044937 7.046281 -3.892594 7.046281 0.0019375 Z M 7.046281 0.0019375 " transform="matrix(1, 0, 0, -1, 92.442, 98.541)"/>
<path fill-rule="nonzero" fill="rgb(0%, 0%, 0%)" fill-opacity="1" d="M 128.066406 98.539062 C 128.066406 98.265625 127.84375 98.042969 127.570312 98.042969 C 127.292969 98.042969 127.070312 98.265625 127.070312 98.539062 C 127.070312 98.816406 127.292969 99.039062 127.570312 99.039062 C 127.84375 99.039062 128.066406 98.816406 128.066406 98.539062 Z M 128.066406 98.539062 "/>
<path fill-rule="nonzero" fill="rgb(79.998779%, 79.998779%, 79.998779%)" fill-opacity="1" stroke-width="0.3985" stroke-linecap="butt" stroke-linejoin="miter" stroke="rgb(0%, 0%, 0%)" stroke-opacity="1" stroke-miterlimit="10" d="M 7.044781 0.001 C 7.044781 3.891625 3.892437 7.043969 0.0018125 7.043969 C -3.892719 7.043969 -7.045063 3.891625 -7.045063 0.001 C -7.045063 -3.889625 -3.892719 -7.045875 0.0018125 -7.045875 C 3.892437 -7.045875 7.044781 -3.889625 7.044781 0.001 Z M 7.044781 0.001 " transform="matrix(1, 0, 0, -1, 110.006, 123.626)"/>
<path fill-rule="nonzero" fill="rgb(0%, 0%, 0%)" fill-opacity="1" d="M 145.632812 123.625 C 145.632812 123.351562 145.410156 123.128906 145.132812 123.128906 C 144.859375 123.128906 144.636719 123.351562 144.636719 123.625 C 144.636719 123.902344 144.859375 124.125 145.132812 124.125 C 145.410156 124.125 145.632812 123.902344 145.632812 123.625 Z M 145.632812 123.625 "/>
<g clip-path="url(#clip-0)">
<path fill-rule="nonzero" fill="rgb(79.998779%, 79.998779%, 79.998779%)" fill-opacity="1" d="M 134.617188 148.710938 C 134.617188 144.820312 131.460938 141.664062 127.570312 141.664062 C 123.679688 141.664062 120.523438 144.820312 120.523438 148.710938 C 120.523438 152.601562 123.679688 155.757812 127.570312 155.757812 C 131.460938 155.757812 134.617188 152.601562 134.617188 148.710938 Z M 134.617188 148.710938 "/>
</g>
<g clip-path="url(#clip-1)">
<path fill="none" stroke-width="0.3985" stroke-linecap="butt" stroke-linejoin="miter" stroke="rgb(0%, 0%, 0%)" stroke-opacity="1" stroke-miterlimit="10" d="M 7.047188 0.0000625 C 7.047188 3.890688 3.890938 7.046938 0.0003125 7.046938 C -3.890312 7.046938 -7.046562 3.890688 -7.046562 0.0000625 C -7.046562 -3.890562 -3.890312 -7.046812 0.0003125 -7.046812 C 3.890938 -7.046812 7.047188 -3.890562 7.047188 0.0000625 Z M 7.047188 0.0000625 " transform="matrix(1, 0, 0, -1, 127.57, 148.711)"/>
</g>
<g clip-path="url(#clip-2)">
<path fill-rule="nonzero" fill="rgb(79.998779%, 79.998779%, 79.998779%)" fill-opacity="1" d="M 169.742188 148.710938 C 169.742188 144.820312 166.589844 141.664062 162.699219 141.664062 C 158.808594 141.664062 155.652344 144.820312 155.652344 148.710938 C 155.652344 152.601562 158.808594 155.757812 162.699219 155.757812 C 166.589844 155.757812 169.742188 152.601562 169.742188 148.710938 Z M 169.742188 148.710938 "/>
</g>
<g clip-path="url(#clip-3)">
<path fill="none" stroke-width="0.3985" stroke-linecap="butt" stroke-linejoin="miter" stroke="rgb(0%, 0%, 0%)" stroke-opacity="1" stroke-miterlimit="10" d="M 7.044188 0.0000625 C 7.044188 3.890688 3.891844 7.046938 0.00121875 7.046938 C -3.889406 7.046938 -7.045656 3.890688 -7.045656 0.0000625 C -7.045656 -3.890562 -3.889406 -7.046812 0.00121875 -7.046812 C 3.891844 -7.046812 7.044188 -3.890562 7.044188 0.0000625 Z M 7.044188 0.0000625 " transform="matrix(1, 0, 0, -1, 162.698, 148.711)"/>
</g>
<path fill="none" stroke-width="0.3985" stroke-linecap="butt" stroke-linejoin="miter" stroke="rgb(0%, 0%, 0%)" stroke-opacity="1" stroke-miterlimit="10" d="M -1.730594 -2.471062 L -31.496219 -44.982781 " transform="matrix(1, 0, 0, -1, 60.547, 2.818)"/>
<path fill="none" stroke-width="0.3985" stroke-linecap="butt" stroke-linejoin="miter" stroke="rgb(0%, 0%, 0%)" stroke-opacity="1" stroke-miterlimit="10" d="M -32.297 -46.123406 L -45.304812 -64.705437 " transform="matrix(1, 0, 0, -1, 60.547, 2.818)"/>
<path fill="none" stroke-width="0.3985" stroke-linecap="butt" stroke-linejoin="miter" stroke="rgb(0%, 0%, 0%)" stroke-opacity="1" stroke-miterlimit="10" d="M -31.496219 -46.123406 L -18.488406 -64.705437 " transform="matrix(1, 0, 0, -1, 60.547, 2.818)"/>
<path fill="none" stroke-width="0.3985" stroke-linecap="butt" stroke-linejoin="miter" stroke="rgb(0%, 0%, 0%)" stroke-opacity="1" stroke-miterlimit="10" d="M 1.730344 -2.471062 L 31.495969 -44.982781 " transform="matrix(1, 0, 0, -1, 60.547, 2.818)"/>
<path fill="none" stroke-width="0.3985" stroke-linecap="butt" stroke-linejoin="miter" stroke="rgb(0%, 0%, 0%)" stroke-opacity="1" stroke-miterlimit="10" d="M 31.495969 -46.123406 L 18.488156 -64.705437 " transform="matrix(1, 0, 0, -1, 60.547, 2.818)"/>
<path fill="none" stroke-width="0.3985" stroke-linecap="butt" stroke-linejoin="miter" stroke="rgb(0%, 0%, 0%)" stroke-opacity="1" stroke-miterlimit="10" d="M 32.29675 -46.123406 L 49.058469 -70.068719 " transform="matrix(1, 0, 0, -1, 60.547, 2.818)"/>
<path fill="none" stroke-width="0.3985" stroke-linecap="butt" stroke-linejoin="miter" stroke="rgb(0%, 0%, 0%)" stroke-opacity="1" stroke-miterlimit="10" d="M 49.058469 -71.209344 L 36.050656 -89.791375 " transform="matrix(1, 0, 0, -1, 60.547, 2.818)"/>
<path fill="none" stroke-width="0.3985" stroke-linecap="butt" stroke-linejoin="miter" stroke="rgb(0%, 0%, 0%)" stroke-opacity="1" stroke-miterlimit="10" d="M 49.85925 -71.209344 L 66.624875 -95.154656 " transform="matrix(1, 0, 0, -1, 60.547, 2.818)"/>
<path fill="none" stroke-width="0.3985" stroke-linecap="butt" stroke-linejoin="miter" stroke="rgb(0%, 0%, 0%)" stroke-opacity="1" stroke-miterlimit="10" d="M 66.624875 -96.295281 L 53.613156 -114.877312 " transform="matrix(1, 0, 0, -1, 60.547, 2.818)"/>
<path fill="none" stroke-width="0.3985" stroke-linecap="butt" stroke-linejoin="miter" stroke="rgb(0%, 0%, 0%)" stroke-opacity="1" stroke-miterlimit="10" d="M 67.425656 -96.295281 L 84.187375 -120.240594 " transform="matrix(1, 0, 0, -1, 60.547, 2.818)"/>
<path fill="none" stroke-width="0.3985" stroke-linecap="butt" stroke-linejoin="miter" stroke="rgb(0%, 0%, 0%)" stroke-opacity="1" stroke-miterlimit="10" d="M 84.187375 -121.381219 L 71.179563 -139.959344 " transform="matrix(1, 0, 0, -1, 60.547, 2.818)"/>
<path fill="none" stroke-width="0.3985" stroke-linecap="butt" stroke-linejoin="miter" stroke="rgb(0%, 0%, 0%)" stroke-opacity="1" stroke-miterlimit="10" d="M 84.988156 -121.381219 L 97.995969 -139.959344 " transform="matrix(1, 0, 0, -1, 60.547, 2.818)"/>
</svg>
