<?xml version="1.0" encoding="UTF-8"?>
<svg xmlns="http://www.w3.org/2000/svg" xmlns:xlink="http://www.w3.org/1999/xlink" width="191.349" height="208.447" viewBox="0 0 191.349 208.447">
<defs>
<clipPath id="clip-0">
<path clip-rule="nonzero" d="M 138 194 L 153 194 L 153 208.445312 L 138 208.445312 Z M 138 194 "/>
</clipPath>
<clipPath id="clip-1">
<path clip-rule="nonzero" d="M 132 188 L 158 188 L 158 208.445312 L 132 208.445312 Z M 132 188 "/>
</clipPath>
<clipPath id="clip-2">
<path clip-rule="nonzero" d="M 173 194 L 188 194 L 188 208.445312 L 173 208.445312 Z M 173 194 "/>
</clipPath>
<clipPath id="clip-3">
<path clip-rule="nonzero" d="M 167 188 L 191.347656 188 L 191.347656 208.445312 L 167 208.445312 Z M 167 188 "/>
</clipPath>
</defs>
<path fill-rule="nonzero" fill="rgb(0%, 0%, 0%)" fill-opacity="1" d="M 82.554688 2.816406 C 82.554688 1.261719 81.292969 0 79.734375 0 C 78.179688 0 76.917969 1.261719 76.917969 2.816406 C 76.917969 4.375 78.179688 5.636719 79.734375 5.636719 C 81.292969 5.636719 82.554688 4.375 82.554688 2.816406 Z M 82.554688 2.816406 "/>
<path fill-rule="nonzero" fill="rgb(0%, 0%, 0%)" fill-opacity="1" d="M 61.046875 30.222656 C 61.046875 29.949219 60.820312 29.726562 60.546875 29.726562 C 60.273438 29.726562 60.050781 29.949219 60.050781 30.222656 C 60.050781 30.5 60.273438 30.722656 60.546875 30.722656 C 60.820312 30.722656 61.046875 30.5 61.046875 30.222656 Z M 61.046875 30.222656 "/>
<path fill-rule="nonzero" fill="rgb(0%, 0%, 0%)" fill-opacity="1" d="M 29.148438 75.777344 C 29.148438 75.5 28.925781 75.277344 28.652344 75.277344 C 28.375 75.277344 28.152344 75.5 28.152344 75.777344 C 28.152344 76.050781 28.375 76.273438 28.652344 76.273438 C 28.925781 76.273438 29.148438 76.050781 29.148438 75.777344 Z M 29.148438 75.777344 "/>
<path fill-rule="nonzero" fill="rgb(79.998779%, 79.998779%, 79.998779%)" fill-opacity="1" stroke-width="0.3985" stroke-linecap="butt" stroke-linejoin="miter" stroke="rgb(0%, 0%, 0%)" stroke-opacity="1" stroke-miterlimit="10" d="M 7.045812 -0.00128125 C 7.045812 3.889344 3.889562 7.045594 -0.0010625 7.045594 C -3.891688 7.045594 -7.044031 3.889344 -7.044031 -0.00128125 C -7.044031 -3.891906 -3.891688 -7.04425 -0.0010625 -7.04425 C 3.889562 -7.04425 7.045812 -3.891906 7.045812 -0.00128125 Z M 7.045812 -0.00128125 " transform="matrix(1, 0, 0, -1, 11.087, 100.862)"/>
<path fill-rule="nonzero" fill="rgb(79.998779%, 79.998779%, 79.998779%)" fill-opacity="1" stroke-width="0.3985" stroke-linecap="butt" stroke-linejoin="miter" stroke="rgb(0%, 0%, 0%)" stroke-opacity="1" stroke-miterlimit="10" d="M 7.046719 -0.00128125 C 7.046719 3.889344 3.890469 7.045594 -0.00015625 7.045594 C -3.890781 7.045594 -7.047031 3.889344 -7.047031 -0.00128125 C -7.047031 -3.891906 -3.890781 -7.04425 -0.00015625 -7.04425 C 3.890469 -7.04425 7.046719 -3.891906 7.046719 -0.00128125 Z M 7.046719 -0.00128125 " transform="matrix(1, 0, 0, -1, 46.215, 100.862)"/>
<path fill-rule="nonzero" fill="rgb(0%, 0%, 0%)" fill-opacity="1" d="M 92.941406 75.777344 C 92.941406 75.5 92.71875 75.277344 92.441406 75.277344 C 92.167969 75.277344 91.945312 75.5 91.945312 75.777344 C 91.945312 76.050781 92.167969 76.273438 92.441406 76.273438 C 92.71875 76.273438 92.941406 76.050781 92.941406 75.777344 Z M 92.941406 75.777344 "/>
<path fill-rule="nonzero" fill="rgb(79.998779%, 79.998779%, 79.998779%)" fill-opacity="1" stroke-width="0.3985" stroke-linecap="butt" stroke-linejoin="miter" stroke="rgb(0%, 0%, 0%)" stroke-opacity="1" stroke-miterlimit="10" d="M 7.043875 -0.00128125 C 7.043875 3.889344 3.891531 7.045594 0.00090625 7.045594 C -3.889719 7.045594 -7.045969 3.889344 -7.045969 -0.00128125 C -7.045969 -3.891906 -3.889719 -7.04425 0.00090625 -7.04425 C 3.891531 -7.04425 7.043875 -3.891906 7.043875 -0.00128125 Z M 7.043875 -0.00128125 " transform="matrix(1, 0, 0, -1, 74.878, 100.862)"/>
<path fill-rule="nonzero" fill="rgb(0%, 0%, 0%)" fill-opacity="1" d="M 110.503906 100.863281 C 110.503906 100.585938 110.28125 100.363281 110.007812 100.363281 C 109.730469 100.363281 109.507812 100.585938 109.507812 100.863281 C 109.507812 101.136719 109.730469 101.359375 110.007812 101.359375 C 110.28125 101.359375 110.503906 101.136719 110.503906 100.863281 Z M 110.503906 100.863281 "/>
<path fill-rule="nonzero" fill="rgb(79.998779%, 79.998779%, 79.998779%)" fill-opacity="1" stroke-width="0.3985" stroke-linecap="butt" stroke-linejoin="miter" stroke="rgb(0%, 0%, 0%)" stroke-opacity="1" stroke-miterlimit="10" d="M 7.046281 0.0016875 C 7.046281 3.892313 3.890031 7.044656 -0.00059375 7.044656 C -3.891219 7.044656 -7.043562 3.892313 -7.043562 0.0016875 C -7.043562 -3.892844 -3.891219 -7.045187 -0.00059375 -7.045187 C 3.890031 -7.045187 7.046281 -3.892844 7.046281 0.0016875 Z M 7.046281 0.0016875 " transform="matrix(1, 0, 0, -1, 92.442, 125.947)"/>
<path fill-rule="nonzero" fill="rgb(0%, 0%, 0%)" fill-opacity="1" d="M 128.066406 125.945312 C 128.066406 125.671875 127.84375 125.449219 127.570312 125.449219 C 127.292969 125.449219 127.070312 125.671875 127.070312 125.945312 C 127.070312 126.222656 127.292969 126.445312 127.570312 126.445312 C 127.84375 126.445312 128.066406 126.222656 128.066406 125.945312 Z M 128.066406 125.945312 "/>
<path fill-rule="nonzero" fill="rgb(79.998779%, 79.998779%, 79.998779%)" fill-opacity="1" stroke-width="0.3985" stroke-linecap="butt" stroke-linejoin="miter" stroke="rgb(0%, 0%, 0%)" stroke-opacity="1" stroke-miterlimit="10" d="M 7.044781 0.00075 C 7.044781 3.891375 3.892437 7.043719 0.0018125 7.043719 C -3.892719 7.043719 -7.045063 3.891375 -7.045063 0.00075 C -7.045063 -3.889875 -3.892719 -7.046125 0.0018125 -7.046125 C 3.892437 -7.046125 7.044781 -3.889875 7.044781 0.00075 Z M 7.044781 0.00075 " transform="matrix(1, 0, 0, -1, 110.006, 151.032)"/>
<path fill-rule="nonzero" fill="rgb(0%, 0%, 0%)" fill-opacity="1" d="M 145.632812 151.03125 C 145.632812 150.757812 145.410156 150.535156 145.132812 150.535156 C 144.859375 150.535156 144.636719 150.757812 144.636719 151.03125 C 144.636719 151.308594 144.859375 151.53125 145.132812 151.53125 C 145.410156 151.53125 145.632812 151.308594 145.632812 151.03125 Z M 145.632812 151.03125 "/>
<path fill-rule="nonzero" fill="rgb(79.998779%, 79.998779%, 79.998779%)" fill-opacity="1" stroke-width="0.3985" stroke-linecap="butt" stroke-linejoin="miter" stroke="rgb(0%, 0%, 0%)" stroke-opacity="1" stroke-miterlimit="10" d="M 7.047188 -0.0001875 C 7.047188 3.890437 3.890938 7.046687 0.0003125 7.046687 C -3.890312 7.046687 -7.046562 3.890437 -7.046562 -0.0001875 C -7.046562 -3.890813 -3.890312 -7.047063 0.0003125 -7.047063 C 3.890938 -7.047063 7.047188 -3.890813 7.047188 -0.0001875 Z M 7.047188 -0.0001875 " transform="matrix(1, 0, 0, -1, 127.57, 176.117)"/>
<path fill-rule="nonzero" fill="rgb(0%, 0%, 0%)" fill-opacity="1" d="M 163.195312 176.117188 C 163.195312 175.84375 162.972656 175.617188 162.699219 175.617188 C 162.421875 175.617188 162.199219 175.84375 162.199219 176.117188 C 162.199219 176.390625 162.421875 176.613281 162.699219 176.613281 C 162.972656 176.613281 163.195312 176.390625 163.195312 176.117188 Z M 163.195312 176.117188 "/>
<g clip-path="url(#clip-0)">
<path fill-rule="nonzero" fill="rgb(79.998779%, 79.998779%, 79.998779%)" fill-opacity="1" d="M 152.179688 201.203125 C 152.179688 197.3125 149.023438 194.15625 145.132812 194.15625 C 141.242188 194.15625 138.089844 197.3125 138.089844 201.203125 C 138.089844 205.09375 141.242188 208.246094 145.132812 208.246094 C 149.023438 208.246094 152.179688 205.09375 152.179688 201.203125 Z M 152.179688 201.203125 "/>
</g>
<g clip-path="url(#clip-1)">
<path fill="none" stroke-width="0.3985" stroke-linecap="butt" stroke-linejoin="miter" stroke="rgb(0%, 0%, 0%)" stroke-opacity="1" stroke-miterlimit="10" d="M 7.045687 -0.001125 C 7.045687 3.8895 3.889437 7.04575 -0.0011875 7.04575 C -3.891813 7.04575 -7.044156 3.8895 -7.044156 -0.001125 C -7.044156 -3.89175 -3.891813 -7.044094 -0.0011875 -7.044094 C 3.889437 -7.044094 7.045687 -3.89175 7.045687 -0.001125 Z M 7.045687 -0.001125 " transform="matrix(1, 0, 0, -1, 145.134, 201.202)"/>
</g>
<g clip-path="url(#clip-2)">
<path fill-rule="nonzero" fill="rgb(79.998779%, 79.998779%, 79.998779%)" fill-opacity="1" d="M 187.308594 201.203125 C 187.308594 197.3125 184.152344 194.15625 180.261719 194.15625 C 176.371094 194.15625 173.214844 197.3125 173.214844 201.203125 C 173.214844 205.09375 176.371094 208.246094 180.261719 208.246094 C 184.152344 208.246094 187.308594 205.09375 187.308594 201.203125 Z M 187.308594 201.203125 "/>
</g>
<g clip-path="url(#clip-3)">
<path fill="none" stroke-width="0.3985" stroke-linecap="butt" stroke-linejoin="miter" stroke="rgb(0%, 0%, 0%)" stroke-opacity="1" stroke-miterlimit="10" d="M 7.046594 -0.001125 C 7.046594 3.8895 3.890344 7.04575 -0.00028125 7.04575 C -3.890906 7.04575 -7.047156 3.8895 -7.047156 -0.001125 C -7.047156 -3.89175 -3.890906 -7.044094 -0.00028125 -7.044094 C 3.890344 -7.044094 7.046594 -3.89175 7.046594 -0.001125 Z M 7.046594 -0.001125 " transform="matrix(1, 0, 0, -1, 180.262, 201.202)"/>
</g>
<path fill-rule="nonzero" fill="rgb(79.998779%, 79.998779%, 79.998779%)" fill-opacity="1" stroke-width="0.3985" stroke-linecap="butt" stroke-linejoin="miter" stroke="rgb(0%, 0%, 0%)" stroke-opacity="1" stroke-miterlimit="10" d="M 7.04475 0.00034375 C 7.04475 3.890969 3.892406 7.047219 0.00178125 7.047219 C -3.89275 7.047219 -7.045094 3.890969 -7.045094 0.00034375 C -7.045094 -3.890281 -3.89275 -7.046531 0.00178125 -7.046531 C 3.892406 -7.046531 7.04475 -3.890281 7.04475 0.00034375 Z M 7.04475 0.00034375 " transform="matrix(1, 0, 0, -1, 98.924, 30.223)"/>
<path fill="none" stroke-width="0.3985" stroke-linecap="butt" stroke-linejoin="miter" stroke="rgb(0%, 0%, 0%)" stroke-opacity="1" stroke-miterlimit="10" d="M -1.731094 -2.471062 L -18.789687 -26.834344 " transform="matrix(1, 0, 0, -1, 79.735, 2.818)"/>
<path fill="none" stroke-width="0.3985" stroke-linecap="butt" stroke-linejoin="miter" stroke="rgb(0%, 0%, 0%)" stroke-opacity="1" stroke-miterlimit="10" d="M -19.590469 -27.974969 L -50.684219 -72.389031 " transform="matrix(1, 0, 0, -1, 79.735, 2.818)"/>
<path fill="none" stroke-width="0.3985" stroke-linecap="butt" stroke-linejoin="miter" stroke="rgb(0%, 0%, 0%)" stroke-opacity="1" stroke-miterlimit="10" d="M -51.485 -73.529656 L -64.492812 -92.111687 " transform="matrix(1, 0, 0, -1, 79.735, 2.818)"/>
<path fill="none" stroke-width="0.3985" stroke-linecap="butt" stroke-linejoin="miter" stroke="rgb(0%, 0%, 0%)" stroke-opacity="1" stroke-miterlimit="10" d="M -50.684219 -73.529656 L -37.676406 -92.111687 " transform="matrix(1, 0, 0, -1, 79.735, 2.818)"/>
<path fill="none" stroke-width="0.3985" stroke-linecap="butt" stroke-linejoin="miter" stroke="rgb(0%, 0%, 0%)" stroke-opacity="1" stroke-miterlimit="10" d="M -18.789687 -27.974969 L 12.307969 -72.389031 " transform="matrix(1, 0, 0, -1, 79.735, 2.818)"/>
<path fill="none" stroke-width="0.3985" stroke-linecap="butt" stroke-linejoin="miter" stroke="rgb(0%, 0%, 0%)" stroke-opacity="1" stroke-miterlimit="10" d="M 12.307969 -73.529656 L -0.70375 -92.111687 " transform="matrix(1, 0, 0, -1, 79.735, 2.818)"/>
<path fill="none" stroke-width="0.3985" stroke-linecap="butt" stroke-linejoin="miter" stroke="rgb(0%, 0%, 0%)" stroke-opacity="1" stroke-miterlimit="10" d="M 13.10875 -73.529656 L 29.870469 -97.474969 " transform="matrix(1, 0, 0, -1, 79.735, 2.818)"/>
<path fill="none" stroke-width="0.3985" stroke-linecap="butt" stroke-linejoin="miter" stroke="rgb(0%, 0%, 0%)" stroke-opacity="1" stroke-miterlimit="10" d="M 29.870469 -98.615594 L 16.862656 -117.193719 " transform="matrix(1, 0, 0, -1, 79.735, 2.818)"/>
<path fill="none" stroke-width="0.3985" stroke-linecap="butt" stroke-linejoin="miter" stroke="rgb(0%, 0%, 0%)" stroke-opacity="1" stroke-miterlimit="10" d="M 30.67125 -98.615594 L 47.436875 -122.557 " transform="matrix(1, 0, 0, -1, 79.735, 2.818)"/>
<path fill="none" stroke-width="0.3985" stroke-linecap="butt" stroke-linejoin="miter" stroke="rgb(0%, 0%, 0%)" stroke-opacity="1" stroke-miterlimit="10" d="M 47.436875 -123.701531 L 34.425156 -142.279656 " transform="matrix(1, 0, 0, -1, 79.735, 2.818)"/>
<path fill="none" stroke-width="0.3985" stroke-linecap="butt" stroke-linejoin="miter" stroke="rgb(0%, 0%, 0%)" stroke-opacity="1" stroke-miterlimit="10" d="M 48.23375 -123.701531 L 64.999375 -147.642937 " transform="matrix(1, 0, 0, -1, 79.735, 2.818)"/>
<path fill="none" stroke-width="0.3985" stroke-linecap="butt" stroke-linejoin="miter" stroke="rgb(0%, 0%, 0%)" stroke-opacity="1" stroke-miterlimit="10" d="M 64.999375 -148.787469 L 51.991563 -167.365594 " transform="matrix(1, 0, 0, -1, 79.735, 2.818)"/>
<path fill="none" stroke-width="0.3985" stroke-linecap="butt" stroke-linejoin="miter" stroke="rgb(0%, 0%, 0%)" stroke-opacity="1" stroke-miterlimit="10" d="M 65.800156 -148.787469 L 82.561875 -172.728875 " transform="matrix(1, 0, 0, -1, 79.735, 2.818)"/>
<path fill="none" stroke-width="0.3985" stroke-linecap="butt" stroke-linejoin="miter" stroke="rgb(0%, 0%, 0%)" stroke-opacity="1" stroke-miterlimit="10" d="M 82.561875 -173.873406 L 69.554063 -192.451531 " transform="matrix(1, 0, 0, -1, 79.735, 2.818)"/>
<path fill="none" stroke-width="0.3985" stroke-linecap="butt" stroke-linejoin="miter" stroke="rgb(0%, 0%, 0%)" stroke-opacity="1" stroke-miterlimit="10" d="M 83.362656 -173.873406 L 96.374375 -192.451531 " transform="matrix(1, 0, 0, -1, 79.735, 2.818)"/>
<path fill="none" stroke-width="0.3985" stroke-linecap="butt" stroke-linejoin="miter" stroke="rgb(0%, 0%, 0%)" stroke-opacity="1" stroke-miterlimit="10" d="M 1.729844 -2.471062 L 15.034531 -21.471062 " transform="matrix(1, 0, 0, -1, 79.735, 2.818)"/>
</svg>
