<?xml version="1.0" encoding="UTF-8"?>
<svg xmlns="http://www.w3.org/2000/svg" xmlns:xlink="http://www.w3.org/1999/xlink" width="208.913" height="206.127" viewBox="0 0 208.913 206.127">
<defs>
<clipPath id="clip-0">
<path clip-rule="nonzero" d="M 150 186 L 176 186 L 176 206.128906 L 150 206.128906 Z M 150 186 "/>
</clipPath>
<clipPath id="clip-1">
<path clip-rule="nonzero" d="M 185 186 L 208.914062 186 L 208.914062 206.128906 L 185 206.128906 Z M 185 186 "/>
</clipPath>
</defs>
<path fill-rule="nonzero" fill="rgb(0%, 0%, 0%)" fill-opacity="1" d="M 63.363281 2.816406 C 63.363281 1.261719 62.101562 0 60.546875 0 C 58.992188 0 57.730469 1.261719 57.730469 2.816406 C 57.730469 4.375 58.992188 5.636719 60.546875 5.636719 C 62.101562 5.636719 63.363281 4.375 63.363281 2.816406 Z M 63.363281 2.816406 "/>
<path fill-rule="nonzero" fill="rgb(0%, 0%, 0%)" fill-opacity="1" d="M 29.148438 48.371094 C 29.148438 48.097656 28.925781 47.871094 28.652344 47.871094 C 28.375 47.871094 28.152344 48.097656 28.152344 48.371094 C 28.152344 48.644531 28.375 48.867188 28.652344 48.867188 C 28.925781 48.867188 29.148438 48.644531 29.148438 48.371094 Z M 29.148438 48.371094 "/>
<path fill-rule="nonzero" fill="rgb(79.998779%, 79.998779%, 79.998779%)" fill-opacity="1" stroke-width="0.3985" stroke-linecap="butt" stroke-linejoin="miter" stroke="rgb(0%, 0%, 0%)" stroke-opacity="1" stroke-miterlimit="10" d="M 7.045813 -0.00103125 C 7.045813 3.889594 3.889563 7.045844 -0.0010625 7.045844 C -3.891687 7.045844 -7.044031 3.889594 -7.044031 -0.00103125 C -7.044031 -3.891656 -3.891687 -7.044 -0.0010625 -7.044 C 3.889563 -7.044 7.045813 -3.891656 7.045813 -0.00103125 Z M 7.045813 -0.00103125 " transform="matrix(1, 0, 0, -1, 11.087, 73.456)"/>
<path fill-rule="nonzero" fill="rgb(79.998779%, 79.998779%, 79.998779%)" fill-opacity="1" stroke-width="0.3985" stroke-linecap="butt" stroke-linejoin="miter" stroke="rgb(0%, 0%, 0%)" stroke-opacity="1" stroke-miterlimit="10" d="M 7.046719 -0.00103125 C 7.046719 3.889594 3.890469 7.045844 -0.00015625 7.045844 C -3.890781 7.045844 -7.047031 3.889594 -7.047031 -0.00103125 C -7.047031 -3.891656 -3.890781 -7.044 -0.00015625 -7.044 C 3.890469 -7.044 7.046719 -3.891656 7.046719 -0.00103125 Z M 7.046719 -0.00103125 " transform="matrix(1, 0, 0, -1, 46.215, 73.456)"/>
<path fill-rule="nonzero" fill="rgb(0%, 0%, 0%)" fill-opacity="1" d="M 92.941406 48.371094 C 92.941406 48.097656 92.71875 47.871094 92.441406 47.871094 C 92.167969 47.871094 91.945312 48.097656 91.945312 48.371094 C 91.945312 48.644531 92.167969 48.867188 92.441406 48.867188 C 92.71875 48.867188 92.941406 48.644531 92.941406 48.371094 Z M 92.941406 48.371094 "/>
<path fill-rule="nonzero" fill="rgb(79.998779%, 79.998779%, 79.998779%)" fill-opacity="1" stroke-width="0.3985" stroke-linecap="butt" stroke-linejoin="miter" stroke="rgb(0%, 0%, 0%)" stroke-opacity="1" stroke-miterlimit="10" d="M 7.043875 -0.00103125 C 7.043875 3.889594 3.891531 7.045844 0.00090625 7.045844 C -3.889719 7.045844 -7.045969 3.889594 -7.045969 -0.00103125 C -7.045969 -3.891656 -3.889719 -7.044 0.00090625 -7.044 C 3.891531 -7.044 7.043875 -3.891656 7.043875 -0.00103125 Z M 7.043875 -0.00103125 " transform="matrix(1, 0, 0, -1, 74.878, 73.456)"/>
<path fill-rule="nonzero" fill="rgb(0%, 0%, 0%)" fill-opacity="1" d="M 110.503906 73.457031 C 110.503906 73.179688 110.28125 72.957031 110.007812 72.957031 C 109.730469 72.957031 109.507812 73.179688 109.507812 73.457031 C 109.507812 73.730469 109.730469 73.953125 110.007812 73.953125 C 110.28125 73.953125 110.503906 73.730469 110.503906 73.457031 Z M 110.503906 73.457031 "/>
<path fill-rule="nonzero" fill="rgb(79.998779%, 79.998779%, 79.998779%)" fill-opacity="1" stroke-width="0.3985" stroke-linecap="butt" stroke-linejoin="miter" stroke="rgb(0%, 0%, 0%)" stroke-opacity="1" stroke-miterlimit="10" d="M 7.046281 -0.00096875 C 7.046281 3.889656 3.890031 7.045906 -0.00059375 7.045906 C -3.891219 7.045906 -7.043562 3.889656 -7.043562 -0.00096875 C -7.043562 -3.891594 -3.891219 -7.043937 -0.00059375 -7.043937 C 3.890031 -7.043937 7.046281 -3.891594 7.046281 -0.00096875 Z M 7.046281 -0.00096875 " transform="matrix(1, 0, 0, -1, 92.442, 98.542)"/>
<path fill-rule="nonzero" fill="rgb(0%, 0%, 0%)" fill-opacity="1" d="M 128.066406 98.542969 C 128.066406 98.265625 127.84375 98.042969 127.570312 98.042969 C 127.292969 98.042969 127.070312 98.265625 127.070312 98.542969 C 127.070312 98.816406 127.292969 99.039062 127.570312 99.039062 C 127.84375 99.039062 128.066406 98.816406 128.066406 98.542969 Z M 128.066406 98.542969 "/>
<path fill-rule="nonzero" fill="rgb(79.998779%, 79.998779%, 79.998779%)" fill-opacity="1" stroke-width="0.3985" stroke-linecap="butt" stroke-linejoin="miter" stroke="rgb(0%, 0%, 0%)" stroke-opacity="1" stroke-miterlimit="10" d="M 7.044781 -0.00190625 C 7.044781 3.892625 3.892437 7.044969 0.0018125 7.044969 C -3.892719 7.044969 -7.045063 3.892625 -7.045063 -0.00190625 C -7.045063 -3.892531 -3.892719 -7.044875 0.0018125 -7.044875 C 3.892437 -7.044875 7.044781 -3.892531 7.044781 -0.00190625 Z M 7.044781 -0.00190625 " transform="matrix(1, 0, 0, -1, 110.006, 123.627)"/>
<path fill-rule="nonzero" fill="rgb(0%, 0%, 0%)" fill-opacity="1" d="M 145.632812 123.628906 C 145.632812 123.351562 145.410156 123.128906 145.132812 123.128906 C 144.859375 123.128906 144.636719 123.351562 144.636719 123.628906 C 144.636719 123.902344 144.859375 124.125 145.132812 124.125 C 145.410156 124.125 145.632812 123.902344 145.632812 123.628906 Z M 145.632812 123.628906 "/>
<path fill-rule="nonzero" fill="rgb(79.998779%, 79.998779%, 79.998779%)" fill-opacity="1" stroke-width="0.3985" stroke-linecap="butt" stroke-linejoin="miter" stroke="rgb(0%, 0%, 0%)" stroke-opacity="1" stroke-miterlimit="10" d="M 7.047188 0.0010625 C 7.047188 3.891688 3.890938 7.044031 0.0003125 7.044031 C -3.890312 7.044031 -7.046562 3.891688 -7.046562 0.0010625 C -7.046562 -3.889562 -3.890312 -7.045812 0.0003125 -7.045812 C 3.890938 -7.045812 7.047188 -3.889562 7.047188 0.0010625 Z M 7.047188 0.0010625 " transform="matrix(1, 0, 0, -1, 127.57, 148.712)"/>
<path fill-rule="nonzero" fill="rgb(0%, 0%, 0%)" fill-opacity="1" d="M 163.195312 148.710938 C 163.195312 148.4375 162.972656 148.214844 162.699219 148.214844 C 162.421875 148.214844 162.199219 148.4375 162.199219 148.710938 C 162.199219 148.988281 162.421875 149.210938 162.699219 149.210938 C 162.972656 149.210938 163.195312 148.988281 163.195312 148.710938 Z M 163.195312 148.710938 "/>
<path fill-rule="nonzero" fill="rgb(79.998779%, 79.998779%, 79.998779%)" fill-opacity="1" stroke-width="0.3985" stroke-linecap="butt" stroke-linejoin="miter" stroke="rgb(0%, 0%, 0%)" stroke-opacity="1" stroke-miterlimit="10" d="M 7.045687 0.000125 C 7.045687 3.89075 3.889437 7.047 -0.0011875 7.047 C -3.891813 7.047 -7.044156 3.89075 -7.044156 0.000125 C -7.044156 -3.8905 -3.891813 -7.04675 -0.0011875 -7.04675 C 3.889437 -7.04675 7.045687 -3.8905 7.045687 0.000125 Z M 7.045687 0.000125 " transform="matrix(1, 0, 0, -1, 145.134, 173.797)"/>
<path fill-rule="nonzero" fill="rgb(0%, 0%, 0%)" fill-opacity="1" d="M 180.761719 173.796875 C 180.761719 173.523438 180.535156 173.300781 180.261719 173.300781 C 179.988281 173.300781 179.765625 173.523438 179.765625 173.796875 C 179.765625 174.070312 179.988281 174.296875 180.261719 174.296875 C 180.535156 174.296875 180.761719 174.070312 180.761719 173.796875 Z M 180.761719 173.796875 "/>
<path fill-rule="nonzero" fill="rgb(79.998779%, 79.998779%, 79.998779%)" fill-opacity="1" d="M 169.742188 198.882812 C 169.742188 194.992188 166.589844 191.835938 162.699219 191.835938 C 158.808594 191.835938 155.652344 194.992188 155.652344 198.882812 C 155.652344 202.773438 158.808594 205.925781 162.699219 205.925781 C 166.589844 205.925781 169.742188 202.773438 169.742188 198.882812 Z M 169.742188 198.882812 "/>
<g clip-path="url(#clip-0)">
<path fill="none" stroke-width="0.3985" stroke-linecap="butt" stroke-linejoin="miter" stroke="rgb(0%, 0%, 0%)" stroke-opacity="1" stroke-miterlimit="10" d="M 7.044188 -0.0008125 C 7.044188 3.889813 3.891844 7.046063 0.00121875 7.046063 C -3.889406 7.046063 -7.045656 3.889813 -7.045656 -0.0008125 C -7.045656 -3.891437 -3.889406 -7.043781 0.00121875 -7.043781 C 3.891844 -7.043781 7.044188 -3.891437 7.044188 -0.0008125 Z M 7.044188 -0.0008125 " transform="matrix(1, 0, 0, -1, 162.698, 198.882)"/>
</g>
<path fill-rule="nonzero" fill="rgb(79.998779%, 79.998779%, 79.998779%)" fill-opacity="1" d="M 204.871094 198.882812 C 204.871094 194.992188 201.71875 191.835938 197.824219 191.835938 C 193.933594 191.835938 190.78125 194.992188 190.78125 198.882812 C 190.78125 202.773438 193.933594 205.925781 197.824219 205.925781 C 201.71875 205.925781 204.871094 202.773438 204.871094 198.882812 Z M 204.871094 198.882812 "/>
<g clip-path="url(#clip-1)">
<path fill="none" stroke-width="0.3985" stroke-linecap="butt" stroke-linejoin="miter" stroke="rgb(0%, 0%, 0%)" stroke-opacity="1" stroke-miterlimit="10" d="M 7.045094 -0.0008125 C 7.045094 3.889813 3.89275 7.046063 -0.00178125 7.046063 C -3.892406 7.046063 -7.04475 3.889813 -7.04475 -0.0008125 C -7.04475 -3.891437 -3.892406 -7.043781 -0.00178125 -7.043781 C 3.89275 -7.043781 7.045094 -3.891437 7.045094 -0.0008125 Z M 7.045094 -0.0008125 " transform="matrix(1, 0, 0, -1, 197.826, 198.882)"/>
</g>
<path fill="none" stroke-width="0.3985" stroke-linecap="butt" stroke-linejoin="miter" stroke="rgb(0%, 0%, 0%)" stroke-opacity="1" stroke-miterlimit="10" d="M -1.730594 -2.471062 L -31.496219 -44.982781 " transform="matrix(1, 0, 0, -1, 60.547, 2.818)"/>
<path fill="none" stroke-width="0.3985" stroke-linecap="butt" stroke-linejoin="miter" stroke="rgb(0%, 0%, 0%)" stroke-opacity="1" stroke-miterlimit="10" d="M -32.297 -46.123406 L -45.304812 -64.705437 " transform="matrix(1, 0, 0, -1, 60.547, 2.818)"/>
<path fill="none" stroke-width="0.3985" stroke-linecap="butt" stroke-linejoin="miter" stroke="rgb(0%, 0%, 0%)" stroke-opacity="1" stroke-miterlimit="10" d="M -31.496219 -46.123406 L -18.488406 -64.705437 " transform="matrix(1, 0, 0, -1, 60.547, 2.818)"/>
<path fill="none" stroke-width="0.3985" stroke-linecap="butt" stroke-linejoin="miter" stroke="rgb(0%, 0%, 0%)" stroke-opacity="1" stroke-miterlimit="10" d="M 1.730344 -2.471062 L 31.495969 -44.982781 " transform="matrix(1, 0, 0, -1, 60.547, 2.818)"/>
<path fill="none" stroke-width="0.3985" stroke-linecap="butt" stroke-linejoin="miter" stroke="rgb(0%, 0%, 0%)" stroke-opacity="1" stroke-miterlimit="10" d="M 31.495969 -46.123406 L 18.488156 -64.705437 " transform="matrix(1, 0, 0, -1, 60.547, 2.818)"/>
<path fill="none" stroke-width="0.3985" stroke-linecap="butt" stroke-linejoin="miter" stroke="rgb(0%, 0%, 0%)" stroke-opacity="1" stroke-miterlimit="10" d="M 32.29675 -46.123406 L 49.058469 -70.068719 " transform="matrix(1, 0, 0, -1, 60.547, 2.818)"/>
<path fill="none" stroke-width="0.3985" stroke-linecap="butt" stroke-linejoin="miter" stroke="rgb(0%, 0%, 0%)" stroke-opacity="1" stroke-miterlimit="10" d="M 49.058469 -71.209344 L 36.050656 -89.791375 " transform="matrix(1, 0, 0, -1, 60.547, 2.818)"/>
<path fill="none" stroke-width="0.3985" stroke-linecap="butt" stroke-linejoin="miter" stroke="rgb(0%, 0%, 0%)" stroke-opacity="1" stroke-miterlimit="10" d="M 49.85925 -71.209344 L 66.624875 -95.154656 " transform="matrix(1, 0, 0, -1, 60.547, 2.818)"/>
<path fill="none" stroke-width="0.3985" stroke-linecap="butt" stroke-linejoin="miter" stroke="rgb(0%, 0%, 0%)" stroke-opacity="1" stroke-miterlimit="10" d="M 66.624875 -96.295281 L 53.613156 -114.877312 " transform="matrix(1, 0, 0, -1, 60.547, 2.818)"/>
<path fill="none" stroke-width="0.3985" stroke-linecap="butt" stroke-linejoin="miter" stroke="rgb(0%, 0%, 0%)" stroke-opacity="1" stroke-miterlimit="10" d="M 67.425656 -96.295281 L 84.187375 -120.240594 " transform="matrix(1, 0, 0, -1, 60.547, 2.818)"/>
<path fill="none" stroke-width="0.3985" stroke-linecap="butt" stroke-linejoin="miter" stroke="rgb(0%, 0%, 0%)" stroke-opacity="1" stroke-miterlimit="10" d="M 84.187375 -121.381219 L 71.179563 -139.959344 " transform="matrix(1, 0, 0, -1, 60.547, 2.818)"/>
<path fill="none" stroke-width="0.3985" stroke-linecap="butt" stroke-linejoin="miter" stroke="rgb(0%, 0%, 0%)" stroke-opacity="1" stroke-miterlimit="10" d="M 84.988156 -121.381219 L 101.753781 -145.322625 " transform="matrix(1, 0, 0, -1, 60.547, 2.818)"/>
<path fill="none" stroke-width="0.3985" stroke-linecap="butt" stroke-linejoin="miter" stroke="rgb(0%, 0%, 0%)" stroke-opacity="1" stroke-miterlimit="10" d="M 101.753781 -146.467156 L 88.742063 -165.045281 " transform="matrix(1, 0, 0, -1, 60.547, 2.818)"/>
<path fill="none" stroke-width="0.3985" stroke-linecap="butt" stroke-linejoin="miter" stroke="rgb(0%, 0%, 0%)" stroke-opacity="1" stroke-miterlimit="10" d="M 102.550656 -146.467156 L 119.316281 -170.408562 " transform="matrix(1, 0, 0, -1, 60.547, 2.818)"/>
<path fill="none" stroke-width="0.3985" stroke-linecap="butt" stroke-linejoin="miter" stroke="rgb(0%, 0%, 0%)" stroke-opacity="1" stroke-miterlimit="10" d="M 119.316281 -171.553094 L 106.308469 -190.131219 " transform="matrix(1, 0, 0, -1, 60.547, 2.818)"/>
<path fill="none" stroke-width="0.3985" stroke-linecap="butt" stroke-linejoin="miter" stroke="rgb(0%, 0%, 0%)" stroke-opacity="1" stroke-miterlimit="10" d="M 120.117063 -171.553094 L 133.124875 -190.131219 " transform="matrix(1, 0, 0, -1, 60.547, 2.818)"/>
</svg>
