<?xml version="1.0" encoding="UTF-8"?>
<svg xmlns="http://www.w3.org/2000/svg" xmlns:xlink="http://www.w3.org/1999/xlink" width="147.211" height="147.213" viewBox="0 0 147.211 147.213">
<defs>
<clipPath id="clip-0">
<path clip-rule="nonzero" d="M 4 132 L 19 132 L 19 147.214844 L 4 147.214844 Z M 4 132 "/>
</clipPath>
<clipPath id="clip-1">
<path clip-rule="nonzero" d="M 0 127 L 24 127 L 24 147.214844 L 0 147.214844 Z M 0 127 "/>
</clipPath>
<clipPath id="clip-2">
<path clip-rule="nonzero" d="M 39 132 L 54 132 L 54 147.214844 L 39 147.214844 Z M 39 132 "/>
</clipPath>
<clipPath id="clip-3">
<path clip-rule="nonzero" d="M 33 127 L 59 127 L 59 147.214844 L 33 147.214844 Z M 33 127 "/>
</clipPath>
<clipPath id="clip-4">
<path clip-rule="nonzero" d="M 67 132 L 82 132 L 82 147.214844 L 67 147.214844 Z M 67 132 "/>
</clipPath>
<clipPath id="clip-5">
<path clip-rule="nonzero" d="M 62 127 L 88 127 L 88 147.214844 L 62 147.214844 Z M 62 127 "/>
</clipPath>
<clipPath id="clip-6">
<path clip-rule="nonzero" d="M 102 132 L 118 132 L 118 147.214844 L 102 147.214844 Z M 102 132 "/>
</clipPath>
<clipPath id="clip-7">
<path clip-rule="nonzero" d="M 97 127 L 123 127 L 123 147.214844 L 97 147.214844 Z M 97 127 "/>
</clipPath>
<clipPath id="clip-8">
<path clip-rule="nonzero" d="M 123 81 L 147.210938 81 L 147.210938 108 L 123 108 Z M 123 81 "/>
</clipPath>
</defs>
<path fill-rule="nonzero" fill="rgb(0%, 0%, 0%)" fill-opacity="1" d="M 74.808594 2.816406 C 74.808594 1.261719 73.546875 0 71.988281 0 C 70.433594 0 69.171875 1.261719 69.171875 2.816406 C 69.171875 4.375 70.433594 5.636719 71.988281 5.636719 C 73.546875 5.636719 74.808594 4.375 74.808594 2.816406 Z M 74.808594 2.816406 "/>
<path fill-rule="nonzero" fill="rgb(0%, 0%, 0%)" fill-opacity="1" d="M 43.480469 44.246094 C 43.480469 43.96875 43.257812 43.746094 42.984375 43.746094 C 42.707031 43.746094 42.484375 43.96875 42.484375 44.246094 C 42.484375 44.519531 42.707031 44.742188 42.984375 44.742188 C 43.257812 44.742188 43.480469 44.519531 43.480469 44.246094 Z M 43.480469 44.246094 "/>
<path fill-rule="nonzero" fill="rgb(79.998779%, 79.998779%, 79.998779%)" fill-opacity="1" stroke-width="0.3985" stroke-linecap="butt" stroke-linejoin="miter" stroke="rgb(0%, 0%, 0%)" stroke-opacity="1" stroke-miterlimit="10" d="M 7.046844 0.001875 C 7.046844 3.8925 3.890594 7.044844 -0.00003125 7.044844 C -3.890656 7.044844 -7.046906 3.8925 -7.046906 0.001875 C -7.046906 -3.892656 -3.890656 -7.045 -0.00003125 -7.045 C 3.890594 -7.045 7.046844 -3.892656 7.046844 0.001875 Z M 7.046844 0.001875 " transform="matrix(1, 0, 0, -1, 25.418, 69.33)"/>
<path fill-rule="nonzero" fill="rgb(0%, 0%, 0%)" fill-opacity="1" d="M 61.046875 69.328125 C 61.046875 69.054688 60.820312 68.832031 60.546875 68.832031 C 60.273438 68.832031 60.050781 69.054688 60.050781 69.328125 C 60.050781 69.605469 60.273438 69.828125 60.546875 69.828125 C 60.820312 69.828125 61.046875 69.605469 61.046875 69.328125 Z M 61.046875 69.328125 "/>
<path fill-rule="nonzero" fill="rgb(0%, 0%, 0%)" fill-opacity="1" d="M 29.148438 114.882812 C 29.148438 114.609375 28.925781 114.386719 28.652344 114.386719 C 28.375 114.386719 28.152344 114.609375 28.152344 114.882812 C 28.152344 115.15625 28.375 115.382812 28.652344 115.382812 C 28.925781 115.382812 29.148438 115.15625 29.148438 114.882812 Z M 29.148438 114.882812 "/>
<g clip-path="url(#clip-0)">
<path fill-rule="nonzero" fill="rgb(79.998779%, 79.998779%, 79.998779%)" fill-opacity="1" d="M 18.132812 139.96875 C 18.132812 136.078125 14.976562 132.921875 11.085938 132.921875 C 7.195312 132.921875 4.042969 136.078125 4.042969 139.96875 C 4.042969 143.859375 7.195312 147.011719 11.085938 147.011719 C 14.976562 147.011719 18.132812 143.859375 18.132812 139.96875 Z M 18.132812 139.96875 "/>
</g>
<g clip-path="url(#clip-1)">
<path fill="none" stroke-width="0.3985" stroke-linecap="butt" stroke-linejoin="miter" stroke="rgb(0%, 0%, 0%)" stroke-opacity="1" stroke-miterlimit="10" d="M 7.045812 -0.00075 C 7.045812 3.889875 3.889562 7.046125 -0.0010625 7.046125 C -3.891688 7.046125 -7.044031 3.889875 -7.044031 -0.00075 C -7.044031 -3.891375 -3.891688 -7.043719 -0.0010625 -7.043719 C 3.889562 -7.043719 7.045812 -3.891375 7.045812 -0.00075 Z M 7.045812 -0.00075 " transform="matrix(1, 0, 0, -1, 11.087, 139.968)"/>
</g>
<g clip-path="url(#clip-2)">
<path fill-rule="nonzero" fill="rgb(79.998779%, 79.998779%, 79.998779%)" fill-opacity="1" d="M 53.261719 139.96875 C 53.261719 136.078125 50.105469 132.921875 46.214844 132.921875 C 42.324219 132.921875 39.167969 136.078125 39.167969 139.96875 C 39.167969 143.859375 42.324219 147.011719 46.214844 147.011719 C 50.105469 147.011719 53.261719 143.859375 53.261719 139.96875 Z M 53.261719 139.96875 "/>
</g>
<g clip-path="url(#clip-3)">
<path fill="none" stroke-width="0.3985" stroke-linecap="butt" stroke-linejoin="miter" stroke="rgb(0%, 0%, 0%)" stroke-opacity="1" stroke-miterlimit="10" d="M 7.046719 -0.00075 C 7.046719 3.889875 3.890469 7.046125 -0.00015625 7.046125 C -3.890781 7.046125 -7.047031 3.889875 -7.047031 -0.00075 C -7.047031 -3.891375 -3.890781 -7.043719 -0.00015625 -7.043719 C 3.890469 -7.043719 7.046719 -3.891375 7.046719 -0.00075 Z M 7.046719 -0.00075 " transform="matrix(1, 0, 0, -1, 46.215, 139.968)"/>
</g>
<path fill-rule="nonzero" fill="rgb(0%, 0%, 0%)" fill-opacity="1" d="M 92.941406 114.882812 C 92.941406 114.609375 92.71875 114.386719 92.441406 114.386719 C 92.167969 114.386719 91.945312 114.609375 91.945312 114.882812 C 91.945312 115.15625 92.167969 115.382812 92.441406 115.382812 C 92.71875 115.382812 92.941406 115.15625 92.941406 114.882812 Z M 92.941406 114.882812 "/>
<g clip-path="url(#clip-4)">
<path fill-rule="nonzero" fill="rgb(79.998779%, 79.998779%, 79.998779%)" fill-opacity="1" d="M 81.921875 139.96875 C 81.921875 136.078125 78.769531 132.921875 74.878906 132.921875 C 70.988281 132.921875 67.832031 136.078125 67.832031 139.96875 C 67.832031 143.859375 70.988281 147.011719 74.878906 147.011719 C 78.769531 147.011719 81.921875 143.859375 81.921875 139.96875 Z M 81.921875 139.96875 "/>
</g>
<g clip-path="url(#clip-5)">
<path fill="none" stroke-width="0.3985" stroke-linecap="butt" stroke-linejoin="miter" stroke="rgb(0%, 0%, 0%)" stroke-opacity="1" stroke-miterlimit="10" d="M 7.043875 -0.00075 C 7.043875 3.889875 3.891531 7.046125 0.00090625 7.046125 C -3.889719 7.046125 -7.045969 3.889875 -7.045969 -0.00075 C -7.045969 -3.891375 -3.889719 -7.043719 0.00090625 -7.043719 C 3.891531 -7.043719 7.043875 -3.891375 7.043875 -0.00075 Z M 7.043875 -0.00075 " transform="matrix(1, 0, 0, -1, 74.878, 139.968)"/>
</g>
<g clip-path="url(#clip-6)">
<path fill-rule="nonzero" fill="rgb(79.998779%, 79.998779%, 79.998779%)" fill-opacity="1" d="M 117.050781 139.96875 C 117.050781 136.078125 113.898438 132.921875 110.007812 132.921875 C 106.113281 132.921875 102.960938 136.078125 102.960938 139.96875 C 102.960938 143.859375 106.113281 147.011719 110.007812 147.011719 C 113.898438 147.011719 117.050781 143.859375 117.050781 139.96875 Z M 117.050781 139.96875 "/>
</g>
<g clip-path="url(#clip-7)">
<path fill="none" stroke-width="0.3985" stroke-linecap="butt" stroke-linejoin="miter" stroke="rgb(0%, 0%, 0%)" stroke-opacity="1" stroke-miterlimit="10" d="M 7.044781 -0.00075 C 7.044781 3.889875 3.892437 7.046125 0.0018125 7.046125 C -3.892719 7.046125 -7.045063 3.889875 -7.045063 -0.00075 C -7.045063 -3.891375 -3.892719 -7.043719 0.0018125 -7.043719 C 3.892437 -7.043719 7.044781 -3.891375 7.044781 -0.00075 Z M 7.044781 -0.00075 " transform="matrix(1, 0, 0, -1, 110.006, 139.968)"/>
</g>
<path fill-rule="nonzero" fill="rgb(0%, 0%, 0%)" fill-opacity="1" d="M 101.492188 44.246094 C 101.492188 43.96875 101.269531 43.746094 100.996094 43.746094 C 100.722656 43.746094 100.496094 43.96875 100.496094 44.246094 C 100.496094 44.519531 100.722656 44.742188 100.996094 44.742188 C 101.269531 44.742188 101.492188 44.519531 101.492188 44.246094 Z M 101.492188 44.246094 "/>
<path fill-rule="nonzero" fill="rgb(79.998779%, 79.998779%, 79.998779%)" fill-opacity="1" stroke-width="0.3985" stroke-linecap="butt" stroke-linejoin="miter" stroke="rgb(0%, 0%, 0%)" stroke-opacity="1" stroke-miterlimit="10" d="M 7.045562 0.001875 C 7.045562 3.8925 3.889312 7.044844 -0.0013125 7.044844 C -3.891938 7.044844 -7.044281 3.8925 -7.044281 0.001875 C -7.044281 -3.892656 -3.891938 -7.045 -0.0013125 -7.045 C 3.889312 -7.045 7.045562 -3.892656 7.045562 0.001875 Z M 7.045562 0.001875 " transform="matrix(1, 0, 0, -1, 83.431, 69.33)"/>
<path fill-rule="nonzero" fill="rgb(0%, 0%, 0%)" fill-opacity="1" d="M 119.058594 69.328125 C 119.058594 69.054688 118.835938 68.832031 118.558594 68.832031 C 118.285156 68.832031 118.0625 69.054688 118.0625 69.328125 C 118.0625 69.605469 118.285156 69.828125 118.558594 69.828125 C 118.835938 69.828125 119.058594 69.605469 119.058594 69.328125 Z M 119.058594 69.328125 "/>
<path fill-rule="nonzero" fill="rgb(79.998779%, 79.998779%, 79.998779%)" fill-opacity="1" stroke-width="0.3985" stroke-linecap="butt" stroke-linejoin="miter" stroke="rgb(0%, 0%, 0%)" stroke-opacity="1" stroke-miterlimit="10" d="M 7.044062 0.0009375 C 7.044062 3.891562 3.891719 7.043906 0.00109375 7.043906 C -3.889531 7.043906 -7.045781 3.891562 -7.045781 0.0009375 C -7.045781 -3.889688 -3.889531 -7.045938 0.00109375 -7.045938 C 3.891719 -7.045938 7.044062 -3.889688 7.044062 0.0009375 Z M 7.044062 0.0009375 " transform="matrix(1, 0, 0, -1, 100.995, 94.415)"/>
<path fill-rule="nonzero" fill="rgb(79.998779%, 79.998779%, 79.998779%)" fill-opacity="1" d="M 143.167969 94.414062 C 143.167969 90.523438 140.015625 87.371094 136.125 87.371094 C 132.234375 87.371094 129.078125 90.523438 129.078125 94.414062 C 129.078125 98.304688 132.234375 101.460938 136.125 101.460938 C 140.015625 101.460938 143.167969 98.304688 143.167969 94.414062 Z M 143.167969 94.414062 "/>
<g clip-path="url(#clip-8)">
<path fill="none" stroke-width="0.3985" stroke-linecap="butt" stroke-linejoin="miter" stroke="rgb(0%, 0%, 0%)" stroke-opacity="1" stroke-miterlimit="10" d="M 7.043969 0.0009375 C 7.043969 3.891562 3.891625 7.043906 0.001 7.043906 C -3.889625 7.043906 -7.045875 3.891562 -7.045875 0.0009375 C -7.045875 -3.889688 -3.889625 -7.045938 0.001 -7.045938 C 3.891625 -7.045938 7.043969 -3.889688 7.043969 0.0009375 Z M 7.043969 0.0009375 " transform="matrix(1, 0, 0, -1, 136.124, 94.415)"/>
</g>
<path fill="none" stroke-width="0.3985" stroke-linecap="butt" stroke-linejoin="miter" stroke="rgb(0%, 0%, 0%)" stroke-opacity="1" stroke-miterlimit="10" d="M -1.731188 -2.471063 L -28.606188 -40.857781 " transform="matrix(1, 0, 0, -1, 71.989, 2.818)"/>
<path fill="none" stroke-width="0.3985" stroke-linecap="butt" stroke-linejoin="miter" stroke="rgb(0%, 0%, 0%)" stroke-opacity="1" stroke-miterlimit="10" d="M -29.406969 -41.998406 L -42.414781 -60.580438 " transform="matrix(1, 0, 0, -1, 71.989, 2.818)"/>
<path fill="none" stroke-width="0.3985" stroke-linecap="butt" stroke-linejoin="miter" stroke="rgb(0%, 0%, 0%)" stroke-opacity="1" stroke-miterlimit="10" d="M -28.606188 -41.998406 L -11.840563 -65.943719 " transform="matrix(1, 0, 0, -1, 71.989, 2.818)"/>
<path fill="none" stroke-width="0.3985" stroke-linecap="butt" stroke-linejoin="miter" stroke="rgb(0%, 0%, 0%)" stroke-opacity="1" stroke-miterlimit="10" d="M -11.840563 -67.084344 L -42.938219 -111.4945 " transform="matrix(1, 0, 0, -1, 71.989, 2.818)"/>
<path fill="none" stroke-width="0.3985" stroke-linecap="butt" stroke-linejoin="miter" stroke="rgb(0%, 0%, 0%)" stroke-opacity="1" stroke-miterlimit="10" d="M -43.739 -112.639031 L -56.746813 -131.217156 " transform="matrix(1, 0, 0, -1, 71.989, 2.818)"/>
<path fill="none" stroke-width="0.3985" stroke-linecap="butt" stroke-linejoin="miter" stroke="rgb(0%, 0%, 0%)" stroke-opacity="1" stroke-miterlimit="10" d="M -42.938219 -112.639031 L -29.930406 -131.217156 " transform="matrix(1, 0, 0, -1, 71.989, 2.818)"/>
<path fill="none" stroke-width="0.3985" stroke-linecap="butt" stroke-linejoin="miter" stroke="rgb(0%, 0%, 0%)" stroke-opacity="1" stroke-miterlimit="10" d="M -11.043688 -67.084344 L 20.053969 -111.4945 " transform="matrix(1, 0, 0, -1, 71.989, 2.818)"/>
<path fill="none" stroke-width="0.3985" stroke-linecap="butt" stroke-linejoin="miter" stroke="rgb(0%, 0%, 0%)" stroke-opacity="1" stroke-miterlimit="10" d="M 20.053969 -112.639031 L 7.04225 -131.217156 " transform="matrix(1, 0, 0, -1, 71.989, 2.818)"/>
<path fill="none" stroke-width="0.3985" stroke-linecap="butt" stroke-linejoin="miter" stroke="rgb(0%, 0%, 0%)" stroke-opacity="1" stroke-miterlimit="10" d="M 20.85475 -112.639031 L 33.862562 -131.217156 " transform="matrix(1, 0, 0, -1, 71.989, 2.818)"/>
<path fill="none" stroke-width="0.3985" stroke-linecap="butt" stroke-linejoin="miter" stroke="rgb(0%, 0%, 0%)" stroke-opacity="1" stroke-miterlimit="10" d="M 1.72975 -2.471063 L 28.608656 -40.857781 " transform="matrix(1, 0, 0, -1, 71.989, 2.818)"/>
<path fill="none" stroke-width="0.3985" stroke-linecap="butt" stroke-linejoin="miter" stroke="rgb(0%, 0%, 0%)" stroke-opacity="1" stroke-miterlimit="10" d="M 28.608656 -41.998406 L 15.596937 -60.580438 " transform="matrix(1, 0, 0, -1, 71.989, 2.818)"/>
<path fill="none" stroke-width="0.3985" stroke-linecap="butt" stroke-linejoin="miter" stroke="rgb(0%, 0%, 0%)" stroke-opacity="1" stroke-miterlimit="10" d="M 29.405531 -41.998406 L 46.171156 -65.943719 " transform="matrix(1, 0, 0, -1, 71.989, 2.818)"/>
<path fill="none" stroke-width="0.3985" stroke-linecap="butt" stroke-linejoin="miter" stroke="rgb(0%, 0%, 0%)" stroke-opacity="1" stroke-miterlimit="10" d="M 46.171156 -67.084344 L 33.163344 -85.662469 " transform="matrix(1, 0, 0, -1, 71.989, 2.818)"/>
<path fill="none" stroke-width="0.3985" stroke-linecap="butt" stroke-linejoin="miter" stroke="rgb(0%, 0%, 0%)" stroke-opacity="1" stroke-miterlimit="10" d="M 46.971937 -67.084344 L 59.97975 -85.662469 " transform="matrix(1, 0, 0, -1, 71.989, 2.818)"/>
</svg>
