<?xml version="1.0" encoding="UTF-8"?>
<svg xmlns="http://www.w3.org/2000/svg" xmlns:xlink="http://www.w3.org/1999/xlink" width="242.898" height="192.767" viewBox="0 0 242.898 192.767">
<defs>
<clipPath id="clip-0">
<path clip-rule="nonzero" d="M 85 178 L 100 178 L 100 192.765625 L 85 192.765625 Z M 85 178 "/>
</clipPath>
<clipPath id="clip-1">
<path clip-rule="nonzero" d="M 79 172 L 106 172 L 106 192.765625 L 79 192.765625 Z M 79 172 "/>
</clipPath>
<clipPath id="clip-2">
<path clip-rule="nonzero" d="M 120 178 L 135 178 L 135 192.765625 L 120 192.765625 Z M 120 178 "/>
</clipPath>
<clipPath id="clip-3">
<path clip-rule="nonzero" d="M 114 172 L 141 172 L 141 192.765625 L 114 192.765625 Z M 114 172 "/>
</clipPath>
<clipPath id="clip-4">
<path clip-rule="nonzero" d="M 219 147 L 242.898438 147 L 242.898438 174 L 219 174 Z M 219 147 "/>
</clipPath>
</defs>
<path fill-rule="nonzero" fill="rgb(0%, 0%, 0%)" fill-opacity="1" d="M 124.265625 2.816406 C 124.265625 1.261719 123.003906 0 121.449219 0 C 119.894531 0 118.632812 1.261719 118.632812 2.816406 C 118.632812 4.375 119.894531 5.636719 121.449219 5.636719 C 123.003906 5.636719 124.265625 4.375 124.265625 2.816406 Z M 124.265625 2.816406 "/>
<path fill-rule="nonzero" fill="rgb(0%, 0%, 0%)" fill-opacity="1" d="M 61.046875 89.800781 C 61.046875 89.523438 60.820312 89.300781 60.546875 89.300781 C 60.273438 89.300781 60.050781 89.523438 60.050781 89.800781 C 60.050781 90.074219 60.273438 90.296875 60.546875 90.296875 C 60.820312 90.296875 61.046875 90.074219 61.046875 89.800781 Z M 61.046875 89.800781 "/>
<path fill-rule="nonzero" fill="rgb(0%, 0%, 0%)" fill-opacity="1" d="M 29.148438 135.351562 C 29.148438 135.078125 28.925781 134.855469 28.652344 134.855469 C 28.375 134.855469 28.152344 135.078125 28.152344 135.351562 C 28.152344 135.628906 28.375 135.851562 28.652344 135.851562 C 28.925781 135.851562 29.148438 135.628906 29.148438 135.351562 Z M 29.148438 135.351562 "/>
<path fill-rule="nonzero" fill="rgb(79.998779%, 79.998779%, 79.998779%)" fill-opacity="1" stroke-width="0.3985" stroke-linecap="butt" stroke-linejoin="miter" stroke="rgb(0%, 0%, 0%)" stroke-opacity="1" stroke-miterlimit="10" d="M 7.045812 -0.0005 C 7.045812 3.890125 3.889562 7.046375 -0.0010625 7.046375 C -3.891688 7.046375 -7.044031 3.890125 -7.044031 -0.0005 C -7.044031 -3.891125 -3.891688 -7.047375 -0.0010625 -7.047375 C 3.889562 -7.047375 7.045812 -3.891125 7.045812 -0.0005 Z M 7.045812 -0.0005 " transform="matrix(1, 0, 0, -1, 11.087, 160.437)"/>
<path fill-rule="nonzero" fill="rgb(79.998779%, 79.998779%, 79.998779%)" fill-opacity="1" stroke-width="0.3985" stroke-linecap="butt" stroke-linejoin="miter" stroke="rgb(0%, 0%, 0%)" stroke-opacity="1" stroke-miterlimit="10" d="M 7.046719 -0.0005 C 7.046719 3.890125 3.890469 7.046375 -0.00015625 7.046375 C -3.890781 7.046375 -7.047031 3.890125 -7.047031 -0.0005 C -7.047031 -3.891125 -3.890781 -7.047375 -0.00015625 -7.047375 C 3.890469 -7.047375 7.046719 -3.891125 7.046719 -0.0005 Z M 7.046719 -0.0005 " transform="matrix(1, 0, 0, -1, 46.215, 160.437)"/>
<path fill-rule="nonzero" fill="rgb(0%, 0%, 0%)" fill-opacity="1" d="M 92.941406 135.351562 C 92.941406 135.078125 92.71875 134.855469 92.441406 134.855469 C 92.167969 134.855469 91.945312 135.078125 91.945312 135.351562 C 91.945312 135.628906 92.167969 135.851562 92.441406 135.851562 C 92.71875 135.851562 92.941406 135.628906 92.941406 135.351562 Z M 92.941406 135.351562 "/>
<path fill-rule="nonzero" fill="rgb(79.998779%, 79.998779%, 79.998779%)" fill-opacity="1" stroke-width="0.3985" stroke-linecap="butt" stroke-linejoin="miter" stroke="rgb(0%, 0%, 0%)" stroke-opacity="1" stroke-miterlimit="10" d="M 7.043875 -0.0005 C 7.043875 3.890125 3.891531 7.046375 0.00090625 7.046375 C -3.889719 7.046375 -7.045969 3.890125 -7.045969 -0.0005 C -7.045969 -3.891125 -3.889719 -7.047375 0.00090625 -7.047375 C 3.891531 -7.047375 7.043875 -3.891125 7.043875 -0.0005 Z M 7.043875 -0.0005 " transform="matrix(1, 0, 0, -1, 74.878, 160.437)"/>
<path fill-rule="nonzero" fill="rgb(0%, 0%, 0%)" fill-opacity="1" d="M 110.503906 160.4375 C 110.503906 160.160156 110.28125 159.9375 110.007812 159.9375 C 109.730469 159.9375 109.507812 160.160156 109.507812 160.4375 C 109.507812 160.710938 109.730469 160.933594 110.007812 160.933594 C 110.28125 160.933594 110.503906 160.710938 110.503906 160.4375 Z M 110.503906 160.4375 "/>
<g clip-path="url(#clip-0)">
<path fill-rule="nonzero" fill="rgb(79.998779%, 79.998779%, 79.998779%)" fill-opacity="1" d="M 99.488281 185.523438 C 99.488281 181.632812 96.332031 178.476562 92.441406 178.476562 C 88.550781 178.476562 85.398438 181.632812 85.398438 185.523438 C 85.398438 189.414062 88.550781 192.566406 92.441406 192.566406 C 96.332031 192.566406 99.488281 189.414062 99.488281 185.523438 Z M 99.488281 185.523438 "/>
</g>
<g clip-path="url(#clip-1)">
<path fill="none" stroke-width="0.3985" stroke-linecap="butt" stroke-linejoin="miter" stroke="rgb(0%, 0%, 0%)" stroke-opacity="1" stroke-miterlimit="10" d="M 7.046281 -0.0014375 C 7.046281 3.889187 3.890031 7.045437 -0.00059375 7.045437 C -3.891219 7.045437 -7.043563 3.889187 -7.043563 -0.0014375 C -7.043563 -3.892063 -3.891219 -7.044406 -0.00059375 -7.044406 C 3.890031 -7.044406 7.046281 -3.892063 7.046281 -0.0014375 Z M 7.046281 -0.0014375 " transform="matrix(1, 0, 0, -1, 92.442, 185.522)"/>
</g>
<g clip-path="url(#clip-2)">
<path fill-rule="nonzero" fill="rgb(79.998779%, 79.998779%, 79.998779%)" fill-opacity="1" d="M 134.617188 185.523438 C 134.617188 181.632812 131.460938 178.476562 127.570312 178.476562 C 123.679688 178.476562 120.523438 181.632812 120.523438 185.523438 C 120.523438 189.414062 123.679688 192.566406 127.570312 192.566406 C 131.460938 192.566406 134.617188 189.414062 134.617188 185.523438 Z M 134.617188 185.523438 "/>
</g>
<g clip-path="url(#clip-3)">
<path fill="none" stroke-width="0.3985" stroke-linecap="butt" stroke-linejoin="miter" stroke="rgb(0%, 0%, 0%)" stroke-opacity="1" stroke-miterlimit="10" d="M 7.047187 -0.0014375 C 7.047187 3.889187 3.890937 7.045437 0.0003125 7.045437 C -3.890313 7.045437 -7.046563 3.889187 -7.046563 -0.0014375 C -7.046563 -3.892063 -3.890313 -7.044406 0.0003125 -7.044406 C 3.890937 -7.044406 7.047187 -3.892063 7.047187 -0.0014375 Z M 7.047187 -0.0014375 " transform="matrix(1, 0, 0, -1, 127.57, 185.522)"/>
</g>
<path fill-rule="nonzero" fill="rgb(0%, 0%, 0%)" fill-opacity="1" d="M 182.847656 89.800781 C 182.847656 89.523438 182.625 89.300781 182.351562 89.300781 C 182.074219 89.300781 181.851562 89.523438 181.851562 89.800781 C 181.851562 90.074219 182.074219 90.296875 182.351562 90.296875 C 182.625 90.296875 182.847656 90.074219 182.847656 89.800781 Z M 182.847656 89.800781 "/>
<path fill-rule="nonzero" fill="rgb(0%, 0%, 0%)" fill-opacity="1" d="M 150.953125 135.351562 C 150.953125 135.078125 150.730469 134.855469 150.457031 134.855469 C 150.179688 134.855469 149.957031 135.078125 149.957031 135.351562 C 149.957031 135.628906 150.179688 135.851562 150.457031 135.851562 C 150.730469 135.851562 150.953125 135.628906 150.953125 135.351562 Z M 150.953125 135.351562 "/>
<path fill-rule="nonzero" fill="rgb(79.998779%, 79.998779%, 79.998779%)" fill-opacity="1" stroke-width="0.3985" stroke-linecap="butt" stroke-linejoin="miter" stroke="rgb(0%, 0%, 0%)" stroke-opacity="1" stroke-miterlimit="10" d="M 7.0455 -0.0005 C 7.0455 3.890125 3.88925 7.046375 -0.001375 7.046375 C -3.892 7.046375 -7.044344 3.890125 -7.044344 -0.0005 C -7.044344 -3.891125 -3.892 -7.047375 -0.001375 -7.047375 C 3.88925 -7.047375 7.0455 -3.891125 7.0455 -0.0005 Z M 7.0455 -0.0005 " transform="matrix(1, 0, 0, -1, 132.892, 160.437)"/>
<path fill-rule="nonzero" fill="rgb(79.998779%, 79.998779%, 79.998779%)" fill-opacity="1" stroke-width="0.3985" stroke-linecap="butt" stroke-linejoin="miter" stroke="rgb(0%, 0%, 0%)" stroke-opacity="1" stroke-miterlimit="10" d="M 7.046406 -0.0005 C 7.046406 3.890125 3.890156 7.046375 -0.00046875 7.046375 C -3.891094 7.046375 -7.047344 3.890125 -7.047344 -0.0005 C -7.047344 -3.891125 -3.891094 -7.047375 -0.00046875 -7.047375 C 3.890156 -7.047375 7.046406 -3.891125 7.046406 -0.0005 Z M 7.046406 -0.0005 " transform="matrix(1, 0, 0, -1, 168.02, 160.437)"/>
<path fill-rule="nonzero" fill="rgb(0%, 0%, 0%)" fill-opacity="1" d="M 214.742188 135.351562 C 214.742188 135.078125 214.519531 134.855469 214.246094 134.855469 C 213.972656 134.855469 213.746094 135.078125 213.746094 135.351562 C 213.746094 135.628906 213.972656 135.851562 214.246094 135.851562 C 214.519531 135.851562 214.742188 135.628906 214.742188 135.351562 Z M 214.742188 135.351562 "/>
<path fill-rule="nonzero" fill="rgb(79.998779%, 79.998779%, 79.998779%)" fill-opacity="1" stroke-width="0.3985" stroke-linecap="butt" stroke-linejoin="miter" stroke="rgb(0%, 0%, 0%)" stroke-opacity="1" stroke-miterlimit="10" d="M 7.044562 -0.0005 C 7.044562 3.890125 3.892219 7.046375 0.00159375 7.046375 C -3.892938 7.046375 -7.045281 3.890125 -7.045281 -0.0005 C -7.045281 -3.891125 -3.892938 -7.047375 0.00159375 -7.047375 C 3.892219 -7.047375 7.044562 -3.891125 7.044562 -0.0005 Z M 7.044562 -0.0005 " transform="matrix(1, 0, 0, -1, 196.682, 160.437)"/>
<path fill-rule="nonzero" fill="rgb(79.998779%, 79.998779%, 79.998779%)" fill-opacity="1" d="M 238.855469 160.4375 C 238.855469 156.546875 235.703125 153.390625 231.8125 153.390625 C 227.917969 153.390625 224.765625 156.546875 224.765625 160.4375 C 224.765625 164.328125 227.917969 167.484375 231.8125 167.484375 C 235.703125 167.484375 238.855469 164.328125 238.855469 160.4375 Z M 238.855469 160.4375 "/>
<g clip-path="url(#clip-4)">
<path fill="none" stroke-width="0.3985" stroke-linecap="butt" stroke-linejoin="miter" stroke="rgb(0%, 0%, 0%)" stroke-opacity="1" stroke-miterlimit="10" d="M 7.044469 -0.0005 C 7.044469 3.890125 3.892125 7.046375 0.0015 7.046375 C -3.893031 7.046375 -7.045375 3.890125 -7.045375 -0.0005 C -7.045375 -3.891125 -3.893031 -7.047375 0.0015 -7.047375 C 3.892125 -7.047375 7.044469 -3.891125 7.044469 -0.0005 Z M 7.044469 -0.0005 " transform="matrix(1, 0, 0, -1, 231.811, 160.437)"/>
</g>
<path fill="none" stroke-width="0.3985" stroke-linecap="butt" stroke-linejoin="miter" stroke="rgb(0%, 0%, 0%)" stroke-opacity="1" stroke-miterlimit="10" d="M -1.73025 -2.471062 L -60.503688 -86.412469 " transform="matrix(1, 0, 0, -1, 121.449, 2.818)"/>
<path fill="none" stroke-width="0.3985" stroke-linecap="butt" stroke-linejoin="miter" stroke="rgb(0%, 0%, 0%)" stroke-opacity="1" stroke-miterlimit="10" d="M -61.304469 -87.553094 L -92.398219 -131.96325 " transform="matrix(1, 0, 0, -1, 121.449, 2.818)"/>
<path fill="none" stroke-width="0.3985" stroke-linecap="butt" stroke-linejoin="miter" stroke="rgb(0%, 0%, 0%)" stroke-opacity="1" stroke-miterlimit="10" d="M -93.199 -133.107781 L -106.206813 -151.685906 " transform="matrix(1, 0, 0, -1, 121.449, 2.818)"/>
<path fill="none" stroke-width="0.3985" stroke-linecap="butt" stroke-linejoin="miter" stroke="rgb(0%, 0%, 0%)" stroke-opacity="1" stroke-miterlimit="10" d="M -92.398219 -133.107781 L -79.390406 -151.685906 " transform="matrix(1, 0, 0, -1, 121.449, 2.818)"/>
<path fill="none" stroke-width="0.3985" stroke-linecap="butt" stroke-linejoin="miter" stroke="rgb(0%, 0%, 0%)" stroke-opacity="1" stroke-miterlimit="10" d="M -60.503688 -87.553094 L -29.406031 -131.96325 " transform="matrix(1, 0, 0, -1, 121.449, 2.818)"/>
<path fill="none" stroke-width="0.3985" stroke-linecap="butt" stroke-linejoin="miter" stroke="rgb(0%, 0%, 0%)" stroke-opacity="1" stroke-miterlimit="10" d="M -29.406031 -133.107781 L -42.41775 -151.685906 " transform="matrix(1, 0, 0, -1, 121.449, 2.818)"/>
<path fill="none" stroke-width="0.3985" stroke-linecap="butt" stroke-linejoin="miter" stroke="rgb(0%, 0%, 0%)" stroke-opacity="1" stroke-miterlimit="10" d="M -28.609156 -133.107781 L -11.843531 -157.049187 " transform="matrix(1, 0, 0, -1, 121.449, 2.818)"/>
<path fill="none" stroke-width="0.3985" stroke-linecap="butt" stroke-linejoin="miter" stroke="rgb(0%, 0%, 0%)" stroke-opacity="1" stroke-miterlimit="10" d="M -11.843531 -158.193719 L -24.851344 -176.771844 " transform="matrix(1, 0, 0, -1, 121.449, 2.818)"/>
<path fill="none" stroke-width="0.3985" stroke-linecap="butt" stroke-linejoin="miter" stroke="rgb(0%, 0%, 0%)" stroke-opacity="1" stroke-miterlimit="10" d="M -11.04275 -158.193719 L 1.965062 -176.771844 " transform="matrix(1, 0, 0, -1, 121.449, 2.818)"/>
<path fill="none" stroke-width="0.3985" stroke-linecap="butt" stroke-linejoin="miter" stroke="rgb(0%, 0%, 0%)" stroke-opacity="1" stroke-miterlimit="10" d="M 1.730687 -2.471062 L 60.504125 -86.412469 " transform="matrix(1, 0, 0, -1, 121.449, 2.818)"/>
<path fill="none" stroke-width="0.3985" stroke-linecap="butt" stroke-linejoin="miter" stroke="rgb(0%, 0%, 0%)" stroke-opacity="1" stroke-miterlimit="10" d="M 60.504125 -87.553094 L 29.406469 -131.96325 " transform="matrix(1, 0, 0, -1, 121.449, 2.818)"/>
<path fill="none" stroke-width="0.3985" stroke-linecap="butt" stroke-linejoin="miter" stroke="rgb(0%, 0%, 0%)" stroke-opacity="1" stroke-miterlimit="10" d="M 28.605687 -133.107781 L 15.597875 -151.685906 " transform="matrix(1, 0, 0, -1, 121.449, 2.818)"/>
<path fill="none" stroke-width="0.3985" stroke-linecap="butt" stroke-linejoin="miter" stroke="rgb(0%, 0%, 0%)" stroke-opacity="1" stroke-miterlimit="10" d="M 29.406469 -133.107781 L 42.418187 -151.685906 " transform="matrix(1, 0, 0, -1, 121.449, 2.818)"/>
<path fill="none" stroke-width="0.3985" stroke-linecap="butt" stroke-linejoin="miter" stroke="rgb(0%, 0%, 0%)" stroke-opacity="1" stroke-miterlimit="10" d="M 61.301 -87.553094 L 92.398656 -131.96325 " transform="matrix(1, 0, 0, -1, 121.449, 2.818)"/>
<path fill="none" stroke-width="0.3985" stroke-linecap="butt" stroke-linejoin="miter" stroke="rgb(0%, 0%, 0%)" stroke-opacity="1" stroke-miterlimit="10" d="M 92.398656 -133.107781 L 79.390844 -151.685906 " transform="matrix(1, 0, 0, -1, 121.449, 2.818)"/>
<path fill="none" stroke-width="0.3985" stroke-linecap="butt" stroke-linejoin="miter" stroke="rgb(0%, 0%, 0%)" stroke-opacity="1" stroke-miterlimit="10" d="M 93.199437 -133.107781 L 106.20725 -151.685906 " transform="matrix(1, 0, 0, -1, 121.449, 2.818)"/>
</svg>
