<?xml version="1.0" encoding="UTF-8"?>
<svg xmlns="http://www.w3.org/2000/svg" xmlns:xlink="http://www.w3.org/1999/xlink" width="145.139" height="208.447" viewBox="0 0 145.139 208.447">
<defs>
<clipPath id="clip-0">
<path clip-rule="nonzero" d="M 91 194 L 106 194 L 106 208.445312 L 91 208.445312 Z M 91 194 "/>
</clipPath>
<clipPath id="clip-1">
<path clip-rule="nonzero" d="M 86 188 L 112 188 L 112 208.445312 L 86 208.445312 Z M 86 188 "/>
</clipPath>
<clipPath id="clip-2">
<path clip-rule="nonzero" d="M 127 194 L 142 194 L 142 208.445312 L 127 208.445312 Z M 127 194 "/>
</clipPath>
<clipPath id="clip-3">
<path clip-rule="nonzero" d="M 121 188 L 145.140625 188 L 145.140625 208.445312 L 121 208.445312 Z M 121 188 "/>
</clipPath>
</defs>
<path fill-rule="nonzero" fill="rgb(0%, 0%, 0%)" fill-opacity="1" d="M 33.09375 2.816406 C 33.09375 1.261719 31.832031 0 30.277344 0 C 28.71875 0 27.457031 1.261719 27.457031 2.816406 C 27.457031 4.375 28.71875 5.636719 30.277344 5.636719 C 31.832031 5.636719 33.09375 4.375 33.09375 2.816406 Z M 33.09375 2.816406 "/>
<path fill-rule="nonzero" fill="rgb(79.998779%, 79.998779%, 79.998779%)" fill-opacity="1" stroke-width="0.3985" stroke-linecap="butt" stroke-linejoin="miter" stroke="rgb(0%, 0%, 0%)" stroke-opacity="1" stroke-miterlimit="10" d="M 7.045813 0.00034375 C 7.045813 3.890969 3.889563 7.047219 -0.0010625 7.047219 C -3.891687 7.047219 -7.044031 3.890969 -7.044031 0.00034375 C -7.044031 -3.890281 -3.891687 -7.046531 -0.0010625 -7.046531 C 3.889563 -7.046531 7.045813 -3.890281 7.045813 0.00034375 Z M 7.045813 0.00034375 " transform="matrix(1, 0, 0, -1, 11.087, 30.223)"/>
<path fill-rule="nonzero" fill="rgb(0%, 0%, 0%)" fill-opacity="1" d="M 49.960938 30.222656 C 49.960938 29.949219 49.738281 29.726562 49.464844 29.726562 C 49.1875 29.726562 48.964844 29.949219 48.964844 30.222656 C 48.964844 30.5 49.1875 30.722656 49.464844 30.722656 C 49.738281 30.722656 49.960938 30.5 49.960938 30.222656 Z M 49.960938 30.222656 "/>
<path fill-rule="nonzero" fill="rgb(79.998779%, 79.998779%, 79.998779%)" fill-opacity="1" stroke-width="0.3985" stroke-linecap="butt" stroke-linejoin="miter" stroke="rgb(0%, 0%, 0%)" stroke-opacity="1" stroke-miterlimit="10" d="M 7.045313 0.00040625 C 7.045313 3.891031 3.892969 7.047281 -0.0015625 7.047281 C -3.892187 7.047281 -7.044531 3.891031 -7.044531 0.00040625 C -7.044531 -3.890219 -3.892187 -7.046469 -0.0015625 -7.046469 C 3.892969 -7.046469 7.045313 -3.890219 7.045313 0.00040625 Z M 7.045313 0.00040625 " transform="matrix(1, 0, 0, -1, 31.9, 55.309)"/>
<path fill-rule="nonzero" fill="rgb(0%, 0%, 0%)" fill-opacity="1" d="M 67.527344 55.308594 C 67.527344 55.035156 67.304688 54.8125 67.027344 54.8125 C 66.753906 54.8125 66.53125 55.035156 66.53125 55.308594 C 66.53125 55.585938 66.753906 55.808594 67.027344 55.808594 C 67.304688 55.808594 67.527344 55.585938 67.527344 55.308594 Z M 67.527344 55.308594 "/>
<path fill-rule="nonzero" fill="rgb(0%, 0%, 0%)" fill-opacity="1" d="M 49.960938 80.394531 C 49.960938 80.117188 49.738281 79.894531 49.464844 79.894531 C 49.1875 79.894531 48.964844 80.117188 48.964844 80.394531 C 48.964844 80.667969 49.1875 80.890625 49.464844 80.890625 C 49.738281 80.890625 49.960938 80.667969 49.960938 80.394531 Z M 49.960938 80.394531 "/>
<path fill-rule="nonzero" fill="rgb(79.998779%, 79.998779%, 79.998779%)" fill-opacity="1" stroke-width="0.3985" stroke-linecap="butt" stroke-linejoin="miter" stroke="rgb(0%, 0%, 0%)" stroke-opacity="1" stroke-miterlimit="10" d="M 7.045313 -0.00146875 C 7.045313 3.893063 3.892969 7.045406 -0.0015625 7.045406 C -3.892187 7.045406 -7.044531 3.893063 -7.044531 -0.00146875 C -7.044531 -3.892094 -3.892187 -7.044437 -0.0015625 -7.044437 C 3.892969 -7.044437 7.045313 -3.892094 7.045313 -0.00146875 Z M 7.045313 -0.00146875 " transform="matrix(1, 0, 0, -1, 31.9, 105.479)"/>
<path fill-rule="nonzero" fill="rgb(0%, 0%, 0%)" fill-opacity="1" d="M 67.527344 105.480469 C 67.527344 105.203125 67.304688 104.980469 67.027344 104.980469 C 66.753906 104.980469 66.53125 105.203125 66.53125 105.480469 C 66.53125 105.753906 66.753906 105.976562 67.027344 105.976562 C 67.304688 105.976562 67.527344 105.753906 67.527344 105.480469 Z M 67.527344 105.480469 "/>
<path fill-rule="nonzero" fill="rgb(0%, 0%, 0%)" fill-opacity="1" d="M 35.632812 151.03125 C 35.632812 150.757812 35.40625 150.535156 35.132812 150.535156 C 34.859375 150.535156 34.636719 150.757812 34.636719 151.03125 C 34.636719 151.308594 34.859375 151.53125 35.132812 151.53125 C 35.40625 151.53125 35.632812 151.308594 35.632812 151.03125 Z M 35.632812 151.03125 "/>
<path fill-rule="nonzero" fill="rgb(79.998779%, 79.998779%, 79.998779%)" fill-opacity="1" stroke-width="0.3985" stroke-linecap="butt" stroke-linejoin="miter" stroke="rgb(0%, 0%, 0%)" stroke-opacity="1" stroke-miterlimit="10" d="M 7.044281 -0.0001875 C 7.044281 3.890437 3.891937 7.046687 0.0013125 7.046687 C -3.889313 7.046687 -7.045563 3.890437 -7.045563 -0.0001875 C -7.045563 -3.890813 -3.889313 -7.047063 0.0013125 -7.047063 C 3.891937 -7.047063 7.044281 -3.890813 7.044281 -0.0001875 Z M 7.044281 -0.0001875 " transform="matrix(1, 0, 0, -1, 17.569, 176.117)"/>
<path fill-rule="nonzero" fill="rgb(79.998779%, 79.998779%, 79.998779%)" fill-opacity="1" stroke-width="0.3985" stroke-linecap="butt" stroke-linejoin="miter" stroke="rgb(0%, 0%, 0%)" stroke-opacity="1" stroke-miterlimit="10" d="M 7.045187 -0.0001875 C 7.045187 3.890437 3.892844 7.046687 -0.0016875 7.046687 C -3.892313 7.046687 -7.044656 3.890437 -7.044656 -0.0001875 C -7.044656 -3.890813 -3.892313 -7.047063 -0.0016875 -7.047063 C 3.892844 -7.047063 7.045187 -3.890813 7.045187 -0.0001875 Z M 7.045187 -0.0001875 " transform="matrix(1, 0, 0, -1, 52.697, 176.117)"/>
<path fill-rule="nonzero" fill="rgb(0%, 0%, 0%)" fill-opacity="1" d="M 99.421875 151.03125 C 99.421875 150.757812 99.199219 150.535156 98.925781 150.535156 C 98.648438 150.535156 98.425781 150.757812 98.425781 151.03125 C 98.425781 151.308594 98.648438 151.53125 98.925781 151.53125 C 99.199219 151.53125 99.421875 151.308594 99.421875 151.03125 Z M 99.421875 151.03125 "/>
<path fill-rule="nonzero" fill="rgb(79.998779%, 79.998779%, 79.998779%)" fill-opacity="1" stroke-width="0.3985" stroke-linecap="butt" stroke-linejoin="miter" stroke="rgb(0%, 0%, 0%)" stroke-opacity="1" stroke-miterlimit="10" d="M 7.04625 -0.0001875 C 7.04625 3.890437 3.89 7.046687 -0.000625 7.046687 C -3.89125 7.046687 -7.043594 3.890437 -7.043594 -0.0001875 C -7.043594 -3.890813 -3.89125 -7.047063 -0.000625 -7.047063 C 3.89 -7.047063 7.04625 -3.890813 7.04625 -0.0001875 Z M 7.04625 -0.0001875 " transform="matrix(1, 0, 0, -1, 81.36, 176.117)"/>
<path fill-rule="nonzero" fill="rgb(0%, 0%, 0%)" fill-opacity="1" d="M 116.984375 176.117188 C 116.984375 175.84375 116.761719 175.617188 116.488281 175.617188 C 116.214844 175.617188 115.988281 175.84375 115.988281 176.117188 C 115.988281 176.390625 116.214844 176.613281 116.488281 176.613281 C 116.761719 176.613281 116.984375 176.390625 116.984375 176.117188 Z M 116.984375 176.117188 "/>
<g clip-path="url(#clip-0)">
<path fill-rule="nonzero" fill="rgb(79.998779%, 79.998779%, 79.998779%)" fill-opacity="1" d="M 105.96875 201.203125 C 105.96875 197.3125 102.816406 194.15625 98.925781 194.15625 C 95.03125 194.15625 91.878906 197.3125 91.878906 201.203125 C 91.878906 205.09375 95.03125 208.246094 98.925781 208.246094 C 102.816406 208.246094 105.96875 205.09375 105.96875 201.203125 Z M 105.96875 201.203125 "/>
</g>
<g clip-path="url(#clip-1)">
<path fill="none" stroke-width="0.3985" stroke-linecap="butt" stroke-linejoin="miter" stroke="rgb(0%, 0%, 0%)" stroke-opacity="1" stroke-miterlimit="10" d="M 7.04475 -0.001125 C 7.04475 3.8895 3.892406 7.04575 0.00178125 7.04575 C -3.89275 7.04575 -7.045094 3.8895 -7.045094 -0.001125 C -7.045094 -3.89175 -3.89275 -7.044094 0.00178125 -7.044094 C 3.892406 -7.044094 7.04475 -3.89175 7.04475 -0.001125 Z M 7.04475 -0.001125 " transform="matrix(1, 0, 0, -1, 98.924, 201.202)"/>
</g>
<g clip-path="url(#clip-2)">
<path fill-rule="nonzero" fill="rgb(79.998779%, 79.998779%, 79.998779%)" fill-opacity="1" d="M 141.097656 201.203125 C 141.097656 197.3125 137.941406 194.15625 134.050781 194.15625 C 130.160156 194.15625 127.007812 197.3125 127.007812 201.203125 C 127.007812 205.09375 130.160156 208.246094 134.050781 208.246094 C 137.941406 208.246094 141.097656 205.09375 141.097656 201.203125 Z M 141.097656 201.203125 "/>
</g>
<g clip-path="url(#clip-3)">
<path fill="none" stroke-width="0.3985" stroke-linecap="butt" stroke-linejoin="miter" stroke="rgb(0%, 0%, 0%)" stroke-opacity="1" stroke-miterlimit="10" d="M 7.045656 -0.001125 C 7.045656 3.8895 3.889406 7.04575 -0.00121875 7.04575 C -3.891844 7.04575 -7.044187 3.8895 -7.044187 -0.001125 C -7.044187 -3.89175 -3.891844 -7.044094 -0.00121875 -7.044094 C 3.889406 -7.044094 7.045656 -3.89175 7.045656 -0.001125 Z M 7.045656 -0.001125 " transform="matrix(1, 0, 0, -1, 134.052, 201.202)"/>
</g>
<path fill-rule="nonzero" fill="rgb(79.998779%, 79.998779%, 79.998779%)" fill-opacity="1" stroke-width="0.3985" stroke-linecap="butt" stroke-linejoin="miter" stroke="rgb(0%, 0%, 0%)" stroke-opacity="1" stroke-miterlimit="10" d="M 7.043719 -0.00053125 C 7.043719 3.890094 3.891375 7.046344 0.00075 7.046344 C -3.889875 7.046344 -7.046125 3.890094 -7.046125 -0.00053125 C -7.046125 -3.891156 -3.889875 -7.0435 0.00075 -7.0435 C 3.891375 -7.0435 7.043719 -3.891156 7.043719 -0.00053125 Z M 7.043719 -0.00053125 " transform="matrix(1, 0, 0, -1, 84.593, 80.394)"/>
<path fill="none" stroke-width="0.3985" stroke-linecap="butt" stroke-linejoin="miter" stroke="rgb(0%, 0%, 0%)" stroke-opacity="1" stroke-miterlimit="10" d="M -1.729125 -2.471062 L -15.033812 -21.471062 " transform="matrix(1, 0, 0, -1, 30.276, 2.818)"/>
<path fill="none" stroke-width="0.3985" stroke-linecap="butt" stroke-linejoin="miter" stroke="rgb(0%, 0%, 0%)" stroke-opacity="1" stroke-miterlimit="10" d="M 1.731813 -2.471062 L 18.790406 -26.834344 " transform="matrix(1, 0, 0, -1, 30.276, 2.818)"/>
<path fill="none" stroke-width="0.3985" stroke-linecap="butt" stroke-linejoin="miter" stroke="rgb(0%, 0%, 0%)" stroke-opacity="1" stroke-miterlimit="10" d="M 18.790406 -27.974969 L 5.778688 -46.557 " transform="matrix(1, 0, 0, -1, 30.276, 2.818)"/>
<path fill="none" stroke-width="0.3985" stroke-linecap="butt" stroke-linejoin="miter" stroke="rgb(0%, 0%, 0%)" stroke-opacity="1" stroke-miterlimit="10" d="M 19.587281 -27.974969 L 36.352906 -51.920281 " transform="matrix(1, 0, 0, -1, 30.276, 2.818)"/>
<path fill="none" stroke-width="0.3985" stroke-linecap="butt" stroke-linejoin="miter" stroke="rgb(0%, 0%, 0%)" stroke-opacity="1" stroke-miterlimit="10" d="M 36.352906 -53.060906 L 19.587281 -77.006219 " transform="matrix(1, 0, 0, -1, 30.276, 2.818)"/>
<path fill="none" stroke-width="0.3985" stroke-linecap="butt" stroke-linejoin="miter" stroke="rgb(0%, 0%, 0%)" stroke-opacity="1" stroke-miterlimit="10" d="M 18.790406 -78.146844 L 5.778688 -96.728875 " transform="matrix(1, 0, 0, -1, 30.276, 2.818)"/>
<path fill="none" stroke-width="0.3985" stroke-linecap="butt" stroke-linejoin="miter" stroke="rgb(0%, 0%, 0%)" stroke-opacity="1" stroke-miterlimit="10" d="M 19.587281 -78.146844 L 36.352906 -102.092156 " transform="matrix(1, 0, 0, -1, 30.276, 2.818)"/>
<path fill="none" stroke-width="0.3985" stroke-linecap="butt" stroke-linejoin="miter" stroke="rgb(0%, 0%, 0%)" stroke-opacity="1" stroke-miterlimit="10" d="M 36.352906 -103.232781 L 5.259156 -147.642937 " transform="matrix(1, 0, 0, -1, 30.276, 2.818)"/>
<path fill="none" stroke-width="0.3985" stroke-linecap="butt" stroke-linejoin="miter" stroke="rgb(0%, 0%, 0%)" stroke-opacity="1" stroke-miterlimit="10" d="M 4.458375 -148.787469 L -8.553344 -167.365594 " transform="matrix(1, 0, 0, -1, 30.276, 2.818)"/>
<path fill="none" stroke-width="0.3985" stroke-linecap="butt" stroke-linejoin="miter" stroke="rgb(0%, 0%, 0%)" stroke-opacity="1" stroke-miterlimit="10" d="M 5.259156 -148.787469 L 18.266969 -167.365594 " transform="matrix(1, 0, 0, -1, 30.276, 2.818)"/>
<path fill="none" stroke-width="0.3985" stroke-linecap="butt" stroke-linejoin="miter" stroke="rgb(0%, 0%, 0%)" stroke-opacity="1" stroke-miterlimit="10" d="M 37.153688 -103.232781 L 68.247438 -147.642937 " transform="matrix(1, 0, 0, -1, 30.276, 2.818)"/>
<path fill="none" stroke-width="0.3985" stroke-linecap="butt" stroke-linejoin="miter" stroke="rgb(0%, 0%, 0%)" stroke-opacity="1" stroke-miterlimit="10" d="M 68.247438 -148.787469 L 55.239625 -167.365594 " transform="matrix(1, 0, 0, -1, 30.276, 2.818)"/>
<path fill="none" stroke-width="0.3985" stroke-linecap="butt" stroke-linejoin="miter" stroke="rgb(0%, 0%, 0%)" stroke-opacity="1" stroke-miterlimit="10" d="M 69.048219 -148.787469 L 85.813844 -172.728875 " transform="matrix(1, 0, 0, -1, 30.276, 2.818)"/>
<path fill="none" stroke-width="0.3985" stroke-linecap="butt" stroke-linejoin="miter" stroke="rgb(0%, 0%, 0%)" stroke-opacity="1" stroke-miterlimit="10" d="M 85.813844 -173.873406 L 72.802125 -192.451531 " transform="matrix(1, 0, 0, -1, 30.276, 2.818)"/>
<path fill="none" stroke-width="0.3985" stroke-linecap="butt" stroke-linejoin="miter" stroke="rgb(0%, 0%, 0%)" stroke-opacity="1" stroke-miterlimit="10" d="M 86.614625 -173.873406 L 99.622438 -192.451531 " transform="matrix(1, 0, 0, -1, 30.276, 2.818)"/>
<path fill="none" stroke-width="0.3985" stroke-linecap="butt" stroke-linejoin="miter" stroke="rgb(0%, 0%, 0%)" stroke-opacity="1" stroke-miterlimit="10" d="M 37.153688 -53.060906 L 50.1615 -71.642937 " transform="matrix(1, 0, 0, -1, 30.276, 2.818)"/>
</svg>
