<?xml version="1.0" encoding="UTF-8"?>
<svg xmlns="http://www.w3.org/2000/svg" xmlns:xlink="http://www.w3.org/1999/xlink" width="164.774" height="197.383" viewBox="0 0 164.774 197.383">
<defs>
<clipPath id="clip-0">
<path clip-rule="nonzero" d="M 111 183 L 126 183 L 126 197.382812 L 111 197.382812 Z M 111 183 "/>
</clipPath>
<clipPath id="clip-1">
<path clip-rule="nonzero" d="M 105 177 L 132 177 L 132 197.382812 L 105 197.382812 Z M 105 177 "/>
</clipPath>
<clipPath id="clip-2">
<path clip-rule="nonzero" d="M 146 183 L 161 183 L 161 197.382812 L 146 197.382812 Z M 146 183 "/>
</clipPath>
<clipPath id="clip-3">
<path clip-rule="nonzero" d="M 141 177 L 164.773438 177 L 164.773438 197.382812 L 141 197.382812 Z M 141 177 "/>
</clipPath>
</defs>
<path fill-rule="nonzero" fill="rgb(0%, 0%, 0%)" fill-opacity="1" d="M 60.476562 2.816406 C 60.476562 1.261719 59.214844 0 57.65625 0 C 56.101562 0 54.839844 1.261719 54.839844 2.816406 C 54.839844 4.375 56.101562 5.636719 57.65625 5.636719 C 59.214844 5.636719 60.476562 4.375 60.476562 2.816406 Z M 60.476562 2.816406 "/>
<path fill-rule="nonzero" fill="rgb(0%, 0%, 0%)" fill-opacity="1" d="M 29.148438 44.246094 C 29.148438 43.96875 28.925781 43.746094 28.652344 43.746094 C 28.375 43.746094 28.152344 43.96875 28.152344 44.246094 C 28.152344 44.519531 28.375 44.742188 28.652344 44.742188 C 28.925781 44.742188 29.148438 44.519531 29.148438 44.246094 Z M 29.148438 44.246094 "/>
<path fill-rule="nonzero" fill="rgb(79.998779%, 79.998779%, 79.998779%)" fill-opacity="1" stroke-width="0.3985" stroke-linecap="butt" stroke-linejoin="miter" stroke="rgb(0%, 0%, 0%)" stroke-opacity="1" stroke-miterlimit="10" d="M 7.045813 0.001875 C 7.045813 3.8925 3.889563 7.044844 -0.0010625 7.044844 C -3.891687 7.044844 -7.044031 3.8925 -7.044031 0.001875 C -7.044031 -3.892656 -3.891687 -7.045 -0.0010625 -7.045 C 3.889563 -7.045 7.045813 -3.892656 7.045813 0.001875 Z M 7.045813 0.001875 " transform="matrix(1, 0, 0, -1, 11.087, 69.33)"/>
<path fill-rule="nonzero" fill="rgb(79.998779%, 79.998779%, 79.998779%)" fill-opacity="1" stroke-width="0.3985" stroke-linecap="butt" stroke-linejoin="miter" stroke="rgb(0%, 0%, 0%)" stroke-opacity="1" stroke-miterlimit="10" d="M 7.046719 0.001875 C 7.046719 3.8925 3.890469 7.044844 -0.00015625 7.044844 C -3.890781 7.044844 -7.047031 3.8925 -7.047031 0.001875 C -7.047031 -3.892656 -3.890781 -7.045 -0.00015625 -7.045 C 3.890469 -7.045 7.046719 -3.892656 7.046719 0.001875 Z M 7.046719 0.001875 " transform="matrix(1, 0, 0, -1, 46.215, 69.33)"/>
<path fill-rule="nonzero" fill="rgb(0%, 0%, 0%)" fill-opacity="1" d="M 87.164062 44.246094 C 87.164062 43.96875 86.9375 43.746094 86.664062 43.746094 C 86.390625 43.746094 86.164062 43.96875 86.164062 44.246094 C 86.164062 44.519531 86.390625 44.742188 86.664062 44.742188 C 86.9375 44.742188 87.164062 44.519531 87.164062 44.246094 Z M 87.164062 44.246094 "/>
<path fill-rule="nonzero" fill="rgb(0%, 0%, 0%)" fill-opacity="1" d="M 69.597656 69.328125 C 69.597656 69.054688 69.375 68.832031 69.101562 68.832031 C 68.824219 68.832031 68.601562 69.054688 68.601562 69.328125 C 68.601562 69.605469 68.824219 69.828125 69.101562 69.828125 C 69.375 69.828125 69.597656 69.605469 69.597656 69.328125 Z M 69.597656 69.328125 "/>
<path fill-rule="nonzero" fill="rgb(0%, 0%, 0%)" fill-opacity="1" d="M 37.703125 114.882812 C 37.703125 114.609375 37.480469 114.386719 37.203125 114.386719 C 36.929688 114.386719 36.707031 114.609375 36.707031 114.882812 C 36.707031 115.15625 36.929688 115.382812 37.203125 115.382812 C 37.480469 115.382812 37.703125 115.15625 37.703125 114.882812 Z M 37.703125 114.882812 "/>
<path fill-rule="nonzero" fill="rgb(79.998779%, 79.998779%, 79.998779%)" fill-opacity="1" stroke-width="0.3985" stroke-linecap="butt" stroke-linejoin="miter" stroke="rgb(0%, 0%, 0%)" stroke-opacity="1" stroke-miterlimit="10" d="M 7.043594 -0.00075 C 7.043594 3.889875 3.89125 7.046125 0.000625 7.046125 C -3.89 7.046125 -7.04625 3.889875 -7.04625 -0.00075 C -7.04625 -3.891375 -3.89 -7.043719 0.000625 -7.043719 C 3.89125 -7.043719 7.043594 -3.891375 7.043594 -0.00075 Z M 7.043594 -0.00075 " transform="matrix(1, 0, 0, -1, 19.64, 139.968)"/>
<path fill-rule="nonzero" fill="rgb(79.998779%, 79.998779%, 79.998779%)" fill-opacity="1" stroke-width="0.3985" stroke-linecap="butt" stroke-linejoin="miter" stroke="rgb(0%, 0%, 0%)" stroke-opacity="1" stroke-miterlimit="10" d="M 7.0445 -0.00075 C 7.0445 3.889875 3.892156 7.046125 0.00153125 7.046125 C -3.893 7.046125 -7.045344 3.889875 -7.045344 -0.00075 C -7.045344 -3.891375 -3.893 -7.043719 0.00153125 -7.043719 C 3.892156 -7.043719 7.0445 -3.891375 7.0445 -0.00075 Z M 7.0445 -0.00075 " transform="matrix(1, 0, 0, -1, 54.768, 139.968)"/>
<path fill-rule="nonzero" fill="rgb(0%, 0%, 0%)" fill-opacity="1" d="M 101.492188 114.882812 C 101.492188 114.609375 101.269531 114.386719 100.996094 114.386719 C 100.71875 114.386719 100.496094 114.609375 100.496094 114.882812 C 100.496094 115.15625 100.71875 115.382812 100.996094 115.382812 C 101.269531 115.382812 101.492188 115.15625 101.492188 114.882812 Z M 101.492188 114.882812 "/>
<path fill-rule="nonzero" fill="rgb(79.998779%, 79.998779%, 79.998779%)" fill-opacity="1" stroke-width="0.3985" stroke-linecap="butt" stroke-linejoin="miter" stroke="rgb(0%, 0%, 0%)" stroke-opacity="1" stroke-miterlimit="10" d="M 7.045563 -0.00075 C 7.045563 3.889875 3.889313 7.046125 -0.0013125 7.046125 C -3.891937 7.046125 -7.044281 3.889875 -7.044281 -0.00075 C -7.044281 -3.891375 -3.891937 -7.043719 -0.0013125 -7.043719 C 3.889313 -7.043719 7.045563 -3.891375 7.045563 -0.00075 Z M 7.045563 -0.00075 " transform="matrix(1, 0, 0, -1, 83.431, 139.968)"/>
<path fill-rule="nonzero" fill="rgb(0%, 0%, 0%)" fill-opacity="1" d="M 119.058594 139.96875 C 119.058594 139.691406 118.835938 139.46875 118.558594 139.46875 C 118.285156 139.46875 118.0625 139.691406 118.0625 139.96875 C 118.0625 140.242188 118.285156 140.464844 118.558594 140.464844 C 118.835938 140.464844 119.058594 140.242188 119.058594 139.96875 Z M 119.058594 139.96875 "/>
<path fill-rule="nonzero" fill="rgb(79.998779%, 79.998779%, 79.998779%)" fill-opacity="1" stroke-width="0.3985" stroke-linecap="butt" stroke-linejoin="miter" stroke="rgb(0%, 0%, 0%)" stroke-opacity="1" stroke-miterlimit="10" d="M 7.044062 -0.0016875 C 7.044062 3.892844 3.891719 7.045187 0.00109375 7.045187 C -3.889531 7.045187 -7.045781 3.892844 -7.045781 -0.0016875 C -7.045781 -3.892313 -3.889531 -7.044656 0.00109375 -7.044656 C 3.891719 -7.044656 7.044062 -3.892313 7.044062 -0.0016875 Z M 7.044062 -0.0016875 " transform="matrix(1, 0, 0, -1, 100.995, 165.053)"/>
<path fill-rule="nonzero" fill="rgb(0%, 0%, 0%)" fill-opacity="1" d="M 136.621094 165.054688 C 136.621094 164.777344 136.398438 164.554688 136.121094 164.554688 C 135.847656 164.554688 135.625 164.777344 135.625 165.054688 C 135.625 165.328125 135.847656 165.550781 136.121094 165.550781 C 136.398438 165.550781 136.621094 165.328125 136.621094 165.054688 Z M 136.621094 165.054688 "/>
<g clip-path="url(#clip-0)">
<path fill-rule="nonzero" fill="rgb(79.998779%, 79.998779%, 79.998779%)" fill-opacity="1" d="M 125.605469 190.136719 C 125.605469 186.246094 122.449219 183.09375 118.558594 183.09375 C 114.667969 183.09375 111.511719 186.246094 111.511719 190.136719 C 111.511719 194.027344 114.667969 197.183594 118.558594 197.183594 C 122.449219 197.183594 125.605469 194.027344 125.605469 190.136719 Z M 125.605469 190.136719 "/>
</g>
<g clip-path="url(#clip-1)">
<path fill="none" stroke-width="0.3985" stroke-linecap="butt" stroke-linejoin="miter" stroke="rgb(0%, 0%, 0%)" stroke-opacity="1" stroke-miterlimit="10" d="M 7.046469 0.00128125 C 7.046469 3.891906 3.890219 7.04425 -0.00040625 7.04425 C -3.891031 7.04425 -7.047281 3.891906 -7.047281 0.00128125 C -7.047281 -3.889344 -3.891031 -7.045594 -0.00040625 -7.045594 C 3.890219 -7.045594 7.046469 -3.889344 7.046469 0.00128125 Z M 7.046469 0.00128125 " transform="matrix(1, 0, 0, -1, 118.559, 190.138)"/>
</g>
<g clip-path="url(#clip-2)">
<path fill-rule="nonzero" fill="rgb(79.998779%, 79.998779%, 79.998779%)" fill-opacity="1" d="M 160.734375 190.136719 C 160.734375 186.246094 157.578125 183.09375 153.6875 183.09375 C 149.796875 183.09375 146.640625 186.246094 146.640625 190.136719 C 146.640625 194.027344 149.796875 197.183594 153.6875 197.183594 C 157.578125 197.183594 160.734375 194.027344 160.734375 190.136719 Z M 160.734375 190.136719 "/>
</g>
<g clip-path="url(#clip-3)">
<path fill="none" stroke-width="0.3985" stroke-linecap="butt" stroke-linejoin="miter" stroke="rgb(0%, 0%, 0%)" stroke-opacity="1" stroke-miterlimit="10" d="M 7.047375 0.00128125 C 7.047375 3.891906 3.891125 7.04425 0.0005 7.04425 C -3.890125 7.04425 -7.046375 3.891906 -7.046375 0.00128125 C -7.046375 -3.889344 -3.890125 -7.045594 0.0005 -7.045594 C 3.891125 -7.045594 7.047375 -3.889344 7.047375 0.00128125 Z M 7.047375 0.00128125 " transform="matrix(1, 0, 0, -1, 153.687, 190.138)"/>
</g>
<path fill-rule="nonzero" fill="rgb(79.998779%, 79.998779%, 79.998779%)" fill-opacity="1" stroke-width="0.3985" stroke-linecap="butt" stroke-linejoin="miter" stroke="rgb(0%, 0%, 0%)" stroke-opacity="1" stroke-miterlimit="10" d="M 7.045438 0.001875 C 7.045438 3.8925 3.889188 7.044844 -0.0014375 7.044844 C -3.892062 7.044844 -7.044406 3.8925 -7.044406 0.001875 C -7.044406 -3.892656 -3.892062 -7.045 -0.0014375 -7.045 C 3.889188 -7.045 7.045438 -3.892656 7.045438 0.001875 Z M 7.045438 0.001875 " transform="matrix(1, 0, 0, -1, 104.228, 69.33)"/>
<path fill="none" stroke-width="0.3985" stroke-linecap="butt" stroke-linejoin="miter" stroke="rgb(0%, 0%, 0%)" stroke-opacity="1" stroke-miterlimit="10" d="M -1.731219 -2.471062 L -28.606219 -40.857781 " transform="matrix(1, 0, 0, -1, 57.657, 2.818)"/>
<path fill="none" stroke-width="0.3985" stroke-linecap="butt" stroke-linejoin="miter" stroke="rgb(0%, 0%, 0%)" stroke-opacity="1" stroke-miterlimit="10" d="M -29.407 -41.998406 L -42.414812 -60.576531 " transform="matrix(1, 0, 0, -1, 57.657, 2.818)"/>
<path fill="none" stroke-width="0.3985" stroke-linecap="butt" stroke-linejoin="miter" stroke="rgb(0%, 0%, 0%)" stroke-opacity="1" stroke-miterlimit="10" d="M -28.606219 -41.998406 L -15.598406 -60.576531 " transform="matrix(1, 0, 0, -1, 57.657, 2.818)"/>
<path fill="none" stroke-width="0.3985" stroke-linecap="butt" stroke-linejoin="miter" stroke="rgb(0%, 0%, 0%)" stroke-opacity="1" stroke-miterlimit="10" d="M 1.729719 -2.471062 L 28.604719 -40.857781 " transform="matrix(1, 0, 0, -1, 57.657, 2.818)"/>
<path fill="none" stroke-width="0.3985" stroke-linecap="butt" stroke-linejoin="miter" stroke="rgb(0%, 0%, 0%)" stroke-opacity="1" stroke-miterlimit="10" d="M 28.604719 -41.998406 L 11.843 -65.939812 " transform="matrix(1, 0, 0, -1, 57.657, 2.818)"/>
<path fill="none" stroke-width="0.3985" stroke-linecap="butt" stroke-linejoin="miter" stroke="rgb(0%, 0%, 0%)" stroke-opacity="1" stroke-miterlimit="10" d="M 11.042219 -67.084344 L -20.055437 -111.4945 " transform="matrix(1, 0, 0, -1, 57.657, 2.818)"/>
<path fill="none" stroke-width="0.3985" stroke-linecap="butt" stroke-linejoin="miter" stroke="rgb(0%, 0%, 0%)" stroke-opacity="1" stroke-miterlimit="10" d="M -20.852312 -112.639031 L -33.864031 -131.217156 " transform="matrix(1, 0, 0, -1, 57.657, 2.818)"/>
<path fill="none" stroke-width="0.3985" stroke-linecap="butt" stroke-linejoin="miter" stroke="rgb(0%, 0%, 0%)" stroke-opacity="1" stroke-miterlimit="10" d="M -20.055437 -112.639031 L -7.043719 -131.217156 " transform="matrix(1, 0, 0, -1, 57.657, 2.818)"/>
<path fill="none" stroke-width="0.3985" stroke-linecap="butt" stroke-linejoin="miter" stroke="rgb(0%, 0%, 0%)" stroke-opacity="1" stroke-miterlimit="10" d="M 11.843 -67.084344 L 42.93675 -111.4945 " transform="matrix(1, 0, 0, -1, 57.657, 2.818)"/>
<path fill="none" stroke-width="0.3985" stroke-linecap="butt" stroke-linejoin="miter" stroke="rgb(0%, 0%, 0%)" stroke-opacity="1" stroke-miterlimit="10" d="M 42.93675 -112.639031 L 29.928938 -131.217156 " transform="matrix(1, 0, 0, -1, 57.657, 2.818)"/>
<path fill="none" stroke-width="0.3985" stroke-linecap="butt" stroke-linejoin="miter" stroke="rgb(0%, 0%, 0%)" stroke-opacity="1" stroke-miterlimit="10" d="M 43.737531 -112.639031 L 60.503156 -136.580437 " transform="matrix(1, 0, 0, -1, 57.657, 2.818)"/>
<path fill="none" stroke-width="0.3985" stroke-linecap="butt" stroke-linejoin="miter" stroke="rgb(0%, 0%, 0%)" stroke-opacity="1" stroke-miterlimit="10" d="M 60.503156 -137.724969 L 47.491438 -156.303094 " transform="matrix(1, 0, 0, -1, 57.657, 2.818)"/>
<path fill="none" stroke-width="0.3985" stroke-linecap="butt" stroke-linejoin="miter" stroke="rgb(0%, 0%, 0%)" stroke-opacity="1" stroke-miterlimit="10" d="M 61.303938 -137.724969 L 78.065656 -161.666375 " transform="matrix(1, 0, 0, -1, 57.657, 2.818)"/>
<path fill="none" stroke-width="0.3985" stroke-linecap="butt" stroke-linejoin="miter" stroke="rgb(0%, 0%, 0%)" stroke-opacity="1" stroke-miterlimit="10" d="M 78.065656 -162.807 L 65.057844 -181.389031 " transform="matrix(1, 0, 0, -1, 57.657, 2.818)"/>
<path fill="none" stroke-width="0.3985" stroke-linecap="butt" stroke-linejoin="miter" stroke="rgb(0%, 0%, 0%)" stroke-opacity="1" stroke-miterlimit="10" d="M 78.866438 -162.807 L 91.87425 -181.389031 " transform="matrix(1, 0, 0, -1, 57.657, 2.818)"/>
<path fill="none" stroke-width="0.3985" stroke-linecap="butt" stroke-linejoin="miter" stroke="rgb(0%, 0%, 0%)" stroke-opacity="1" stroke-miterlimit="10" d="M 29.4055 -41.998406 L 42.417219 -60.576531 " transform="matrix(1, 0, 0, -1, 57.657, 2.818)"/>
</svg>
