<?xml version="1.0" encoding="UTF-8"?>
<svg xmlns="http://www.w3.org/2000/svg" xmlns:xlink="http://www.w3.org/1999/xlink" width="200.537" height="152.284" viewBox="0 0 200.537 152.284">
<defs>
<clipPath id="clip-0">
<path clip-rule="nonzero" d="M 147 137 L 162 137 L 162 152.285156 L 147 152.285156 Z M 147 137 "/>
</clipPath>
<clipPath id="clip-1">
<path clip-rule="nonzero" d="M 141 132 L 168 132 L 168 152.285156 L 141 152.285156 Z M 141 132 "/>
</clipPath>
<clipPath id="clip-2">
<path clip-rule="nonzero" d="M 182 137 L 197 137 L 197 152.285156 L 182 152.285156 Z M 182 137 "/>
</clipPath>
<clipPath id="clip-3">
<path clip-rule="nonzero" d="M 176 132 L 200.535156 132 L 200.535156 152.285156 L 176 152.285156 Z M 176 132 "/>
</clipPath>
</defs>
<path fill-rule="nonzero" fill="rgb(0%, 0%, 0%)" fill-opacity="1" d="M 92.6875 2.816406 C 92.6875 1.261719 91.425781 0 89.871094 0 C 88.3125 0 87.050781 1.261719 87.050781 2.816406 C 87.050781 4.375 88.3125 5.636719 89.871094 5.636719 C 91.425781 5.636719 92.6875 4.375 92.6875 2.816406 Z M 92.6875 2.816406 "/>
<path fill-rule="nonzero" fill="rgb(0%, 0%, 0%)" fill-opacity="1" d="M 61.046875 44.699219 C 61.046875 44.425781 60.820312 44.199219 60.546875 44.199219 C 60.273438 44.199219 60.050781 44.425781 60.050781 44.699219 C 60.050781 44.972656 60.273438 45.195312 60.546875 45.195312 C 60.820312 45.195312 61.046875 44.972656 61.046875 44.699219 Z M 61.046875 44.699219 "/>
<path fill-rule="nonzero" fill="rgb(0%, 0%, 0%)" fill-opacity="1" d="M 29.148438 90.253906 C 29.148438 89.976562 28.925781 89.753906 28.652344 89.753906 C 28.375 89.753906 28.152344 89.976562 28.152344 90.253906 C 28.152344 90.527344 28.375 90.75 28.652344 90.75 C 28.925781 90.75 29.148438 90.527344 29.148438 90.253906 Z M 29.148438 90.253906 "/>
<path fill-rule="nonzero" fill="rgb(79.998779%, 79.998779%, 79.998779%)" fill-opacity="1" stroke-width="0.3985" stroke-linecap="butt" stroke-linejoin="miter" stroke="rgb(0%, 0%, 0%)" stroke-opacity="1" stroke-miterlimit="10" d="M 7.045813 0.0010625 C 7.045813 3.891687 3.889563 7.044031 -0.0010625 7.044031 C -3.891687 7.044031 -7.044031 3.891687 -7.044031 0.0010625 C -7.044031 -3.889563 -3.891687 -7.045813 -0.0010625 -7.045813 C 3.889563 -7.045813 7.045813 -3.889563 7.045813 0.0010625 Z M 7.045813 0.0010625 " transform="matrix(1, 0, 0, -1, 11.087, 115.337)"/>
<path fill-rule="nonzero" fill="rgb(79.998779%, 79.998779%, 79.998779%)" fill-opacity="1" stroke-width="0.3985" stroke-linecap="butt" stroke-linejoin="miter" stroke="rgb(0%, 0%, 0%)" stroke-opacity="1" stroke-miterlimit="10" d="M 7.046719 0.0010625 C 7.046719 3.891687 3.890469 7.044031 -0.00015625 7.044031 C -3.890781 7.044031 -7.047031 3.891687 -7.047031 0.0010625 C -7.047031 -3.889563 -3.890781 -7.045813 -0.00015625 -7.045813 C 3.890469 -7.045813 7.046719 -3.889563 7.046719 0.0010625 Z M 7.046719 0.0010625 " transform="matrix(1, 0, 0, -1, 46.215, 115.337)"/>
<path fill-rule="nonzero" fill="rgb(0%, 0%, 0%)" fill-opacity="1" d="M 92.941406 90.253906 C 92.941406 89.976562 92.71875 89.753906 92.441406 89.753906 C 92.167969 89.753906 91.945312 89.976562 91.945312 90.253906 C 91.945312 90.527344 92.167969 90.75 92.441406 90.75 C 92.71875 90.75 92.941406 90.527344 92.941406 90.253906 Z M 92.941406 90.253906 "/>
<path fill-rule="nonzero" fill="rgb(79.998779%, 79.998779%, 79.998779%)" fill-opacity="1" stroke-width="0.3985" stroke-linecap="butt" stroke-linejoin="miter" stroke="rgb(0%, 0%, 0%)" stroke-opacity="1" stroke-miterlimit="10" d="M 7.043875 0.0010625 C 7.043875 3.891687 3.891531 7.044031 0.00090625 7.044031 C -3.889719 7.044031 -7.045969 3.891687 -7.045969 0.0010625 C -7.045969 -3.889563 -3.889719 -7.045813 0.00090625 -7.045813 C 3.891531 -7.045813 7.043875 -3.889563 7.043875 0.0010625 Z M 7.043875 0.0010625 " transform="matrix(1, 0, 0, -1, 74.878, 115.337)"/>
<path fill-rule="nonzero" fill="rgb(79.998779%, 79.998779%, 79.998779%)" fill-opacity="1" stroke-width="0.3985" stroke-linecap="butt" stroke-linejoin="miter" stroke="rgb(0%, 0%, 0%)" stroke-opacity="1" stroke-miterlimit="10" d="M 7.044781 0.0010625 C 7.044781 3.891687 3.892437 7.044031 0.0018125 7.044031 C -3.892719 7.044031 -7.045063 3.891687 -7.045063 0.0010625 C -7.045063 -3.889563 -3.892719 -7.045813 0.0018125 -7.045813 C 3.892437 -7.045813 7.044781 -3.889563 7.044781 0.0010625 Z M 7.044781 0.0010625 " transform="matrix(1, 0, 0, -1, 110.006, 115.337)"/>
<path fill-rule="nonzero" fill="rgb(0%, 0%, 0%)" fill-opacity="1" d="M 119.691406 44.699219 C 119.691406 44.425781 119.46875 44.199219 119.195312 44.199219 C 118.917969 44.199219 118.695312 44.425781 118.695312 44.699219 C 118.695312 44.972656 118.917969 45.195312 119.195312 45.195312 C 119.46875 45.195312 119.691406 44.972656 119.691406 44.699219 Z M 119.691406 44.699219 "/>
<path fill-rule="nonzero" fill="rgb(79.998779%, 79.998779%, 79.998779%)" fill-opacity="1" stroke-width="0.3985" stroke-linecap="butt" stroke-linejoin="miter" stroke="rgb(0%, 0%, 0%)" stroke-opacity="1" stroke-miterlimit="10" d="M 7.045781 -0.00115625 C 7.045781 3.889469 3.889531 7.045719 -0.00109375 7.045719 C -3.891719 7.045719 -7.044062 3.889469 -7.044062 -0.00115625 C -7.044062 -3.891781 -3.891719 -7.044125 -0.00109375 -7.044125 C 3.889531 -7.044125 7.045781 -3.891781 7.045781 -0.00115625 Z M 7.045781 -0.00115625 " transform="matrix(1, 0, 0, -1, 101.63, 69.784)"/>
<path fill-rule="nonzero" fill="rgb(0%, 0%, 0%)" fill-opacity="1" d="M 137.257812 69.785156 C 137.257812 69.507812 137.03125 69.285156 136.757812 69.285156 C 136.484375 69.285156 136.261719 69.507812 136.261719 69.785156 C 136.261719 70.058594 136.484375 70.28125 136.757812 70.28125 C 137.03125 70.28125 137.257812 70.058594 137.257812 69.785156 Z M 137.257812 69.785156 "/>
<path fill-rule="nonzero" fill="rgb(79.998779%, 79.998779%, 79.998779%)" fill-opacity="1" stroke-width="0.3985" stroke-linecap="butt" stroke-linejoin="miter" stroke="rgb(0%, 0%, 0%)" stroke-opacity="1" stroke-miterlimit="10" d="M 7.044281 0.0018125 C 7.044281 3.892437 3.891938 7.044781 0.0013125 7.044781 C -3.889312 7.044781 -7.045562 3.892437 -7.045562 0.0018125 C -7.045562 -3.892719 -3.889312 -7.045063 0.0013125 -7.045063 C 3.891938 -7.045063 7.044281 -3.892719 7.044281 0.0018125 Z M 7.044281 0.0018125 " transform="matrix(1, 0, 0, -1, 119.194, 94.869)"/>
<path fill-rule="nonzero" fill="rgb(0%, 0%, 0%)" fill-opacity="1" d="M 154.820312 94.867188 C 154.820312 94.59375 154.597656 94.371094 154.320312 94.371094 C 154.046875 94.371094 153.824219 94.59375 153.824219 94.867188 C 153.824219 95.144531 154.046875 95.367188 154.320312 95.367188 C 154.597656 95.367188 154.820312 95.144531 154.820312 94.867188 Z M 154.820312 94.867188 "/>
<path fill-rule="nonzero" fill="rgb(79.998779%, 79.998779%, 79.998779%)" fill-opacity="1" stroke-width="0.3985" stroke-linecap="butt" stroke-linejoin="miter" stroke="rgb(0%, 0%, 0%)" stroke-opacity="1" stroke-miterlimit="10" d="M 7.046688 0.000875 C 7.046688 3.8915 3.890438 7.043844 -0.0001875 7.043844 C -3.890812 7.043844 -7.047062 3.8915 -7.047062 0.000875 C -7.047062 -3.88975 -3.890812 -7.046 -0.0001875 -7.046 C 3.890438 -7.046 7.046688 -3.88975 7.046688 0.000875 Z M 7.046688 0.000875 " transform="matrix(1, 0, 0, -1, 136.758, 119.954)"/>
<path fill-rule="nonzero" fill="rgb(0%, 0%, 0%)" fill-opacity="1" d="M 172.382812 119.953125 C 172.382812 119.679688 172.160156 119.457031 171.886719 119.457031 C 171.609375 119.457031 171.386719 119.679688 171.386719 119.953125 C 171.386719 120.230469 171.609375 120.453125 171.886719 120.453125 C 172.160156 120.453125 172.382812 120.230469 172.382812 119.953125 Z M 172.382812 119.953125 "/>
<g clip-path="url(#clip-0)">
<path fill-rule="nonzero" fill="rgb(79.998779%, 79.998779%, 79.998779%)" fill-opacity="1" d="M 161.367188 145.039062 C 161.367188 141.148438 158.210938 137.992188 154.320312 137.992188 C 150.429688 137.992188 147.277344 141.148438 147.277344 145.039062 C 147.277344 148.929688 150.429688 152.085938 154.320312 152.085938 C 158.210938 152.085938 161.367188 148.929688 161.367188 145.039062 Z M 161.367188 145.039062 "/>
</g>
<g clip-path="url(#clip-1)">
<path fill="none" stroke-width="0.3985" stroke-linecap="butt" stroke-linejoin="miter" stroke="rgb(0%, 0%, 0%)" stroke-opacity="1" stroke-miterlimit="10" d="M 7.046188 -0.0000625 C 7.046188 3.890562 3.889938 7.046812 -0.0006875 7.046812 C -3.891312 7.046812 -7.043656 3.890562 -7.043656 -0.0000625 C -7.043656 -3.890688 -3.891312 -7.046938 -0.0006875 -7.046938 C 3.889938 -7.046938 7.046188 -3.890688 7.046188 -0.0000625 Z M 7.046188 -0.0000625 " transform="matrix(1, 0, 0, -1, 154.321, 145.039)"/>
</g>
<g clip-path="url(#clip-2)">
<path fill-rule="nonzero" fill="rgb(79.998779%, 79.998779%, 79.998779%)" fill-opacity="1" d="M 196.496094 145.039062 C 196.496094 141.148438 193.339844 137.992188 189.449219 137.992188 C 185.558594 137.992188 182.40625 141.148438 182.40625 145.039062 C 182.40625 148.929688 185.558594 152.085938 189.449219 152.085938 C 193.339844 152.085938 196.496094 148.929688 196.496094 145.039062 Z M 196.496094 145.039062 "/>
</g>
<g clip-path="url(#clip-3)">
<path fill="none" stroke-width="0.3985" stroke-linecap="butt" stroke-linejoin="miter" stroke="rgb(0%, 0%, 0%)" stroke-opacity="1" stroke-miterlimit="10" d="M 7.046094 -0.0000625 C 7.046094 3.890562 3.889844 7.046812 -0.00078125 7.046812 C -3.891406 7.046812 -7.04375 3.890562 -7.04375 -0.0000625 C -7.04375 -3.890688 -3.891406 -7.046938 -0.00078125 -7.046938 C 3.889844 -7.046938 7.046094 -3.890688 7.046094 -0.0000625 Z M 7.046094 -0.0000625 " transform="matrix(1, 0, 0, -1, 189.45, 145.039)"/>
</g>
<path fill="none" stroke-width="0.3985" stroke-linecap="butt" stroke-linejoin="miter" stroke="rgb(0%, 0%, 0%)" stroke-opacity="1" stroke-miterlimit="10" d="M -1.729375 -2.471063 L -28.924687 -41.310906 " transform="matrix(1, 0, 0, -1, 89.87, 2.818)"/>
<path fill="none" stroke-width="0.3985" stroke-linecap="butt" stroke-linejoin="miter" stroke="rgb(0%, 0%, 0%)" stroke-opacity="1" stroke-miterlimit="10" d="M -29.725469 -42.451531 L -60.819219 -86.861688 " transform="matrix(1, 0, 0, -1, 89.87, 2.818)"/>
<path fill="none" stroke-width="0.3985" stroke-linecap="butt" stroke-linejoin="miter" stroke="rgb(0%, 0%, 0%)" stroke-opacity="1" stroke-miterlimit="10" d="M -61.62 -88.006219 L -74.627812 -106.584344 " transform="matrix(1, 0, 0, -1, 89.87, 2.818)"/>
<path fill="none" stroke-width="0.3985" stroke-linecap="butt" stroke-linejoin="miter" stroke="rgb(0%, 0%, 0%)" stroke-opacity="1" stroke-miterlimit="10" d="M -60.819219 -88.006219 L -47.811406 -106.584344 " transform="matrix(1, 0, 0, -1, 89.87, 2.818)"/>
<path fill="none" stroke-width="0.3985" stroke-linecap="butt" stroke-linejoin="miter" stroke="rgb(0%, 0%, 0%)" stroke-opacity="1" stroke-miterlimit="10" d="M -28.924687 -42.451531 L 2.172969 -86.861688 " transform="matrix(1, 0, 0, -1, 89.87, 2.818)"/>
<path fill="none" stroke-width="0.3985" stroke-linecap="butt" stroke-linejoin="miter" stroke="rgb(0%, 0%, 0%)" stroke-opacity="1" stroke-miterlimit="10" d="M 2.172969 -88.006219 L -10.83875 -106.584344 " transform="matrix(1, 0, 0, -1, 89.87, 2.818)"/>
<path fill="none" stroke-width="0.3985" stroke-linecap="butt" stroke-linejoin="miter" stroke="rgb(0%, 0%, 0%)" stroke-opacity="1" stroke-miterlimit="10" d="M 2.969844 -88.006219 L 15.981563 -106.584344 " transform="matrix(1, 0, 0, -1, 89.87, 2.818)"/>
<path fill="none" stroke-width="0.3985" stroke-linecap="butt" stroke-linejoin="miter" stroke="rgb(0%, 0%, 0%)" stroke-opacity="1" stroke-miterlimit="10" d="M 1.731563 -2.471063 L 28.922969 -41.310906 " transform="matrix(1, 0, 0, -1, 89.87, 2.818)"/>
<path fill="none" stroke-width="0.3985" stroke-linecap="butt" stroke-linejoin="miter" stroke="rgb(0%, 0%, 0%)" stroke-opacity="1" stroke-miterlimit="10" d="M 28.922969 -42.451531 L 15.915156 -61.033563 " transform="matrix(1, 0, 0, -1, 89.87, 2.818)"/>
<path fill="none" stroke-width="0.3985" stroke-linecap="butt" stroke-linejoin="miter" stroke="rgb(0%, 0%, 0%)" stroke-opacity="1" stroke-miterlimit="10" d="M 29.72375 -42.451531 L 46.489375 -66.396844 " transform="matrix(1, 0, 0, -1, 89.87, 2.818)"/>
<path fill="none" stroke-width="0.3985" stroke-linecap="butt" stroke-linejoin="miter" stroke="rgb(0%, 0%, 0%)" stroke-opacity="1" stroke-miterlimit="10" d="M 46.489375 -67.537469 L 33.477656 -86.115594 " transform="matrix(1, 0, 0, -1, 89.87, 2.818)"/>
<path fill="none" stroke-width="0.3985" stroke-linecap="butt" stroke-linejoin="miter" stroke="rgb(0%, 0%, 0%)" stroke-opacity="1" stroke-miterlimit="10" d="M 47.28625 -67.537469 L 64.051875 -91.478875 " transform="matrix(1, 0, 0, -1, 89.87, 2.818)"/>
<path fill="none" stroke-width="0.3985" stroke-linecap="butt" stroke-linejoin="miter" stroke="rgb(0%, 0%, 0%)" stroke-opacity="1" stroke-miterlimit="10" d="M 64.051875 -92.623406 L 51.044063 -111.201531 " transform="matrix(1, 0, 0, -1, 89.87, 2.818)"/>
<path fill="none" stroke-width="0.3985" stroke-linecap="butt" stroke-linejoin="miter" stroke="rgb(0%, 0%, 0%)" stroke-opacity="1" stroke-miterlimit="10" d="M 64.852656 -92.623406 L 81.618281 -116.564813 " transform="matrix(1, 0, 0, -1, 89.87, 2.818)"/>
<path fill="none" stroke-width="0.3985" stroke-linecap="butt" stroke-linejoin="miter" stroke="rgb(0%, 0%, 0%)" stroke-opacity="1" stroke-miterlimit="10" d="M 81.618281 -117.709344 L 68.606563 -136.287469 " transform="matrix(1, 0, 0, -1, 89.87, 2.818)"/>
<path fill="none" stroke-width="0.3985" stroke-linecap="butt" stroke-linejoin="miter" stroke="rgb(0%, 0%, 0%)" stroke-opacity="1" stroke-miterlimit="10" d="M 82.415156 -117.709344 L 95.426875 -136.287469 " transform="matrix(1, 0, 0, -1, 89.87, 2.818)"/>
</svg>
