<?xml version="1.0" encoding="UTF-8"?>
<svg xmlns="http://www.w3.org/2000/svg" xmlns:xlink="http://www.w3.org/1999/xlink" width="138.657" height="158.276" viewBox="0 0 138.657 158.276">
<defs>
<clipPath id="clip-0">
<path clip-rule="nonzero" d="M 85 143 L 100 143 L 100 158.277344 L 85 158.277344 Z M 85 143 "/>
</clipPath>
<clipPath id="clip-1">
<path clip-rule="nonzero" d="M 79 138 L 106 138 L 106 158.277344 L 79 158.277344 Z M 79 138 "/>
</clipPath>
<clipPath id="clip-2">
<path clip-rule="nonzero" d="M 120 143 L 135 143 L 135 158.277344 L 120 158.277344 Z M 120 143 "/>
</clipPath>
<clipPath id="clip-3">
<path clip-rule="nonzero" d="M 114 138 L 138.65625 138 L 138.65625 158.277344 L 114 158.277344 Z M 114 138 "/>
</clipPath>
</defs>
<path fill-rule="nonzero" fill="rgb(0%, 0%, 0%)" fill-opacity="1" d="M 64.988281 2.816406 C 64.988281 1.261719 63.726562 0 62.171875 0 C 60.613281 0 59.351562 1.261719 59.351562 2.816406 C 59.351562 4.375 60.613281 5.636719 62.171875 5.636719 C 63.726562 5.636719 64.988281 4.375 64.988281 2.816406 Z M 64.988281 2.816406 "/>
<path fill-rule="nonzero" fill="rgb(0%, 0%, 0%)" fill-opacity="1" d="M 43.480469 30.222656 C 43.480469 29.949219 43.257812 29.726562 42.984375 29.726562 C 42.707031 29.726562 42.484375 29.949219 42.484375 30.222656 C 42.484375 30.5 42.707031 30.722656 42.984375 30.722656 C 43.257812 30.722656 43.480469 30.5 43.480469 30.222656 Z M 43.480469 30.222656 "/>
<path fill-rule="nonzero" fill="rgb(79.998779%, 79.998779%, 79.998779%)" fill-opacity="1" stroke-width="0.3985" stroke-linecap="butt" stroke-linejoin="miter" stroke="rgb(0%, 0%, 0%)" stroke-opacity="1" stroke-miterlimit="10" d="M 7.046844 -0.00059375 C 7.046844 3.890031 3.890594 7.046281 -0.00003125 7.046281 C -3.890656 7.046281 -7.046906 3.890031 -7.046906 -0.00059375 C -7.046906 -3.891219 -3.890656 -7.043563 -0.00003125 -7.043563 C 3.890594 -7.043563 7.046844 -3.891219 7.046844 -0.00059375 Z M 7.046844 -0.00059375 " transform="matrix(1, 0, 0, -1, 25.418, 55.308)"/>
<path fill-rule="nonzero" fill="rgb(0%, 0%, 0%)" fill-opacity="1" d="M 61.046875 55.308594 C 61.046875 55.03125 60.820312 54.808594 60.546875 54.808594 C 60.273438 54.808594 60.050781 55.03125 60.050781 55.308594 C 60.050781 55.582031 60.273438 55.804688 60.546875 55.804688 C 60.820312 55.804688 61.046875 55.582031 61.046875 55.308594 Z M 61.046875 55.308594 "/>
<path fill-rule="nonzero" fill="rgb(0%, 0%, 0%)" fill-opacity="1" d="M 29.148438 100.859375 C 29.148438 100.585938 28.925781 100.363281 28.652344 100.363281 C 28.375 100.363281 28.152344 100.585938 28.152344 100.859375 C 28.152344 101.136719 28.375 101.359375 28.652344 101.359375 C 28.925781 101.359375 29.148438 101.136719 29.148438 100.859375 Z M 29.148438 100.859375 "/>
<path fill-rule="nonzero" fill="rgb(79.998779%, 79.998779%, 79.998779%)" fill-opacity="1" stroke-width="0.3985" stroke-linecap="butt" stroke-linejoin="miter" stroke="rgb(0%, 0%, 0%)" stroke-opacity="1" stroke-miterlimit="10" d="M 7.045812 0.0006875 C 7.045812 3.891312 3.889562 7.043656 -0.0010625 7.043656 C -3.891688 7.043656 -7.044031 3.891312 -7.044031 0.0006875 C -7.044031 -3.889938 -3.891688 -7.046188 -0.0010625 -7.046188 C 3.889562 -7.046188 7.045812 -3.889938 7.045812 0.0006875 Z M 7.045812 0.0006875 " transform="matrix(1, 0, 0, -1, 11.087, 125.946)"/>
<path fill-rule="nonzero" fill="rgb(79.998779%, 79.998779%, 79.998779%)" fill-opacity="1" stroke-width="0.3985" stroke-linecap="butt" stroke-linejoin="miter" stroke="rgb(0%, 0%, 0%)" stroke-opacity="1" stroke-miterlimit="10" d="M 7.046719 0.0006875 C 7.046719 3.891312 3.890469 7.043656 -0.00015625 7.043656 C -3.890781 7.043656 -7.047031 3.891312 -7.047031 0.0006875 C -7.047031 -3.889938 -3.890781 -7.046188 -0.00015625 -7.046188 C 3.890469 -7.046188 7.046719 -3.889938 7.046719 0.0006875 Z M 7.046719 0.0006875 " transform="matrix(1, 0, 0, -1, 46.215, 125.946)"/>
<path fill-rule="nonzero" fill="rgb(0%, 0%, 0%)" fill-opacity="1" d="M 92.941406 100.859375 C 92.941406 100.585938 92.71875 100.363281 92.441406 100.363281 C 92.167969 100.363281 91.945312 100.585938 91.945312 100.859375 C 91.945312 101.136719 92.167969 101.359375 92.441406 101.359375 C 92.71875 101.359375 92.941406 101.136719 92.941406 100.859375 Z M 92.941406 100.859375 "/>
<path fill-rule="nonzero" fill="rgb(79.998779%, 79.998779%, 79.998779%)" fill-opacity="1" stroke-width="0.3985" stroke-linecap="butt" stroke-linejoin="miter" stroke="rgb(0%, 0%, 0%)" stroke-opacity="1" stroke-miterlimit="10" d="M 7.043875 0.0006875 C 7.043875 3.891312 3.891531 7.043656 0.00090625 7.043656 C -3.889719 7.043656 -7.045969 3.891312 -7.045969 0.0006875 C -7.045969 -3.889938 -3.889719 -7.046188 0.00090625 -7.046188 C 3.891531 -7.046188 7.043875 -3.889938 7.043875 0.0006875 Z M 7.043875 0.0006875 " transform="matrix(1, 0, 0, -1, 74.878, 125.946)"/>
<path fill-rule="nonzero" fill="rgb(0%, 0%, 0%)" fill-opacity="1" d="M 110.503906 125.945312 C 110.503906 125.671875 110.28125 125.449219 110.007812 125.449219 C 109.730469 125.449219 109.507812 125.671875 109.507812 125.945312 C 109.507812 126.222656 109.730469 126.445312 110.007812 126.445312 C 110.28125 126.445312 110.503906 126.222656 110.503906 125.945312 Z M 110.503906 125.945312 "/>
<g clip-path="url(#clip-0)">
<path fill-rule="nonzero" fill="rgb(79.998779%, 79.998779%, 79.998779%)" fill-opacity="1" d="M 99.488281 151.03125 C 99.488281 147.140625 96.332031 143.984375 92.441406 143.984375 C 88.550781 143.984375 85.398438 147.140625 85.398438 151.03125 C 85.398438 154.921875 88.550781 158.078125 92.441406 158.078125 C 96.332031 158.078125 99.488281 154.921875 99.488281 151.03125 Z M 99.488281 151.03125 "/>
</g>
<g clip-path="url(#clip-1)">
<path fill="none" stroke-width="0.3985" stroke-linecap="butt" stroke-linejoin="miter" stroke="rgb(0%, 0%, 0%)" stroke-opacity="1" stroke-miterlimit="10" d="M 7.046281 -0.00025 C 7.046281 3.890375 3.890031 7.046625 -0.00059375 7.046625 C -3.891219 7.046625 -7.043563 3.890375 -7.043563 -0.00025 C -7.043563 -3.890875 -3.891219 -7.047125 -0.00059375 -7.047125 C 3.890031 -7.047125 7.046281 -3.890875 7.046281 -0.00025 Z M 7.046281 -0.00025 " transform="matrix(1, 0, 0, -1, 92.442, 151.031)"/>
</g>
<g clip-path="url(#clip-2)">
<path fill-rule="nonzero" fill="rgb(79.998779%, 79.998779%, 79.998779%)" fill-opacity="1" d="M 134.617188 151.03125 C 134.617188 147.140625 131.460938 143.984375 127.570312 143.984375 C 123.679688 143.984375 120.523438 147.140625 120.523438 151.03125 C 120.523438 154.921875 123.679688 158.078125 127.570312 158.078125 C 131.460938 158.078125 134.617188 154.921875 134.617188 151.03125 Z M 134.617188 151.03125 "/>
</g>
<g clip-path="url(#clip-3)">
<path fill="none" stroke-width="0.3985" stroke-linecap="butt" stroke-linejoin="miter" stroke="rgb(0%, 0%, 0%)" stroke-opacity="1" stroke-miterlimit="10" d="M 7.047188 -0.00025 C 7.047188 3.890375 3.890938 7.046625 0.0003125 7.046625 C -3.890312 7.046625 -7.046562 3.890375 -7.046562 -0.00025 C -7.046562 -3.890875 -3.890312 -7.047125 0.0003125 -7.047125 C 3.890938 -7.047125 7.047188 -3.890875 7.047188 -0.00025 Z M 7.047188 -0.00025 " transform="matrix(1, 0, 0, -1, 127.57, 151.031)"/>
</g>
<path fill-rule="nonzero" fill="rgb(79.998779%, 79.998779%, 79.998779%)" fill-opacity="1" stroke-width="0.3985" stroke-linecap="butt" stroke-linejoin="miter" stroke="rgb(0%, 0%, 0%)" stroke-opacity="1" stroke-miterlimit="10" d="M 7.04625 0.00034375 C 7.04625 3.890969 3.89 7.047219 -0.000625 7.047219 C -3.89125 7.047219 -7.043594 3.890969 -7.043594 0.00034375 C -7.043594 -3.890281 -3.89125 -7.046531 -0.000625 -7.046531 C 3.89 -7.046531 7.04625 -3.890281 7.04625 0.00034375 Z M 7.04625 0.00034375 " transform="matrix(1, 0, 0, -1, 81.36, 30.223)"/>
<path fill="none" stroke-width="0.3985" stroke-linecap="butt" stroke-linejoin="miter" stroke="rgb(0%, 0%, 0%)" stroke-opacity="1" stroke-miterlimit="10" d="M -1.729594 -2.471063 L -18.788187 -26.834344 " transform="matrix(1, 0, 0, -1, 62.171, 2.818)"/>
<path fill="none" stroke-width="0.3985" stroke-linecap="butt" stroke-linejoin="miter" stroke="rgb(0%, 0%, 0%)" stroke-opacity="1" stroke-miterlimit="10" d="M -19.588969 -27.974969 L -32.596781 -46.557 " transform="matrix(1, 0, 0, -1, 62.171, 2.818)"/>
<path fill="none" stroke-width="0.3985" stroke-linecap="butt" stroke-linejoin="miter" stroke="rgb(0%, 0%, 0%)" stroke-opacity="1" stroke-miterlimit="10" d="M -18.788187 -27.974969 L -2.022562 -51.920281 " transform="matrix(1, 0, 0, -1, 62.171, 2.818)"/>
<path fill="none" stroke-width="0.3985" stroke-linecap="butt" stroke-linejoin="miter" stroke="rgb(0%, 0%, 0%)" stroke-opacity="1" stroke-miterlimit="10" d="M -2.022562 -53.060906 L -33.120219 -97.474969 " transform="matrix(1, 0, 0, -1, 62.171, 2.818)"/>
<path fill="none" stroke-width="0.3985" stroke-linecap="butt" stroke-linejoin="miter" stroke="rgb(0%, 0%, 0%)" stroke-opacity="1" stroke-miterlimit="10" d="M -33.921 -98.615594 L -46.928812 -117.193719 " transform="matrix(1, 0, 0, -1, 62.171, 2.818)"/>
<path fill="none" stroke-width="0.3985" stroke-linecap="butt" stroke-linejoin="miter" stroke="rgb(0%, 0%, 0%)" stroke-opacity="1" stroke-miterlimit="10" d="M -33.120219 -98.615594 L -20.112406 -117.193719 " transform="matrix(1, 0, 0, -1, 62.171, 2.818)"/>
<path fill="none" stroke-width="0.3985" stroke-linecap="butt" stroke-linejoin="miter" stroke="rgb(0%, 0%, 0%)" stroke-opacity="1" stroke-miterlimit="10" d="M -1.225687 -53.060906 L 29.871969 -97.474969 " transform="matrix(1, 0, 0, -1, 62.171, 2.818)"/>
<path fill="none" stroke-width="0.3985" stroke-linecap="butt" stroke-linejoin="miter" stroke="rgb(0%, 0%, 0%)" stroke-opacity="1" stroke-miterlimit="10" d="M 29.871969 -98.615594 L 16.86025 -117.193719 " transform="matrix(1, 0, 0, -1, 62.171, 2.818)"/>
<path fill="none" stroke-width="0.3985" stroke-linecap="butt" stroke-linejoin="miter" stroke="rgb(0%, 0%, 0%)" stroke-opacity="1" stroke-miterlimit="10" d="M 30.67275 -98.615594 L 47.434469 -122.557 " transform="matrix(1, 0, 0, -1, 62.171, 2.818)"/>
<path fill="none" stroke-width="0.3985" stroke-linecap="butt" stroke-linejoin="miter" stroke="rgb(0%, 0%, 0%)" stroke-opacity="1" stroke-miterlimit="10" d="M 47.434469 -123.701531 L 34.426656 -142.279656 " transform="matrix(1, 0, 0, -1, 62.171, 2.818)"/>
<path fill="none" stroke-width="0.3985" stroke-linecap="butt" stroke-linejoin="miter" stroke="rgb(0%, 0%, 0%)" stroke-opacity="1" stroke-miterlimit="10" d="M 48.23525 -123.701531 L 61.243063 -142.279656 " transform="matrix(1, 0, 0, -1, 62.171, 2.818)"/>
<path fill="none" stroke-width="0.3985" stroke-linecap="butt" stroke-linejoin="miter" stroke="rgb(0%, 0%, 0%)" stroke-opacity="1" stroke-miterlimit="10" d="M 1.731344 -2.471063 L 15.032125 -21.471063 " transform="matrix(1, 0, 0, -1, 62.171, 2.818)"/>
</svg>
