<?xml version="1.0" encoding="UTF-8"?>
<svg xmlns="http://www.w3.org/2000/svg" xmlns:xlink="http://www.w3.org/1999/xlink" width="164.775" height="174.618" viewBox="0 0 164.775 174.618">
<defs>
<clipPath id="clip-0">
<path clip-rule="nonzero" d="M 4 160 L 19 160 L 19 174.617188 L 4 174.617188 Z M 4 160 "/>
</clipPath>
<clipPath id="clip-1">
<path clip-rule="nonzero" d="M 0 154 L 24 154 L 24 174.617188 L 0 174.617188 Z M 0 154 "/>
</clipPath>
<clipPath id="clip-2">
<path clip-rule="nonzero" d="M 39 160 L 54 160 L 54 174.617188 L 39 174.617188 Z M 39 160 "/>
</clipPath>
<clipPath id="clip-3">
<path clip-rule="nonzero" d="M 33 154 L 59 154 L 59 174.617188 L 33 174.617188 Z M 33 154 "/>
</clipPath>
<clipPath id="clip-4">
<path clip-rule="nonzero" d="M 67 160 L 82 160 L 82 174.617188 L 67 174.617188 Z M 67 160 "/>
</clipPath>
<clipPath id="clip-5">
<path clip-rule="nonzero" d="M 62 154 L 88 154 L 88 174.617188 L 62 174.617188 Z M 62 154 "/>
</clipPath>
<clipPath id="clip-6">
<path clip-rule="nonzero" d="M 102 160 L 118 160 L 118 174.617188 L 102 174.617188 Z M 102 160 "/>
</clipPath>
<clipPath id="clip-7">
<path clip-rule="nonzero" d="M 97 154 L 123 154 L 123 174.617188 L 97 174.617188 Z M 97 154 "/>
</clipPath>
<clipPath id="clip-8">
<path clip-rule="nonzero" d="M 141 134 L 164.773438 134 L 164.773438 160 L 141 160 Z M 141 134 "/>
</clipPath>
</defs>
<path fill-rule="nonzero" fill="rgb(0%, 0%, 0%)" fill-opacity="1" d="M 55.617188 2.816406 C 55.617188 1.261719 54.355469 0 52.800781 0 C 51.242188 0 49.980469 1.261719 49.980469 2.816406 C 49.980469 4.375 51.242188 5.636719 52.800781 5.636719 C 54.355469 5.636719 55.617188 4.375 55.617188 2.816406 Z M 55.617188 2.816406 "/>
<path fill-rule="nonzero" fill="rgb(79.998779%, 79.998779%, 79.998779%)" fill-opacity="1" stroke-width="0.3985" stroke-linecap="butt" stroke-linejoin="miter" stroke="rgb(0%, 0%, 0%)" stroke-opacity="1" stroke-miterlimit="10" d="M 7.04425 0.00034375 C 7.04425 3.890969 3.891906 7.047219 0.00128125 7.047219 C -3.889344 7.047219 -7.045594 3.890969 -7.045594 0.00034375 C -7.045594 -3.890281 -3.889344 -7.046531 0.00128125 -7.046531 C 3.891906 -7.046531 7.04425 -3.890281 7.04425 0.00034375 Z M 7.04425 0.00034375 " transform="matrix(1, 0, 0, -1, 33.612, 30.223)"/>
<path fill-rule="nonzero" fill="rgb(0%, 0%, 0%)" fill-opacity="1" d="M 72.488281 30.222656 C 72.488281 29.949219 72.265625 29.726562 71.988281 29.726562 C 71.714844 29.726562 71.492188 29.949219 71.492188 30.222656 C 71.492188 30.5 71.714844 30.722656 71.988281 30.722656 C 72.265625 30.722656 72.488281 30.5 72.488281 30.222656 Z M 72.488281 30.222656 "/>
<path fill-rule="nonzero" fill="rgb(79.998779%, 79.998779%, 79.998779%)" fill-opacity="1" stroke-width="0.3985" stroke-linecap="butt" stroke-linejoin="miter" stroke="rgb(0%, 0%, 0%)" stroke-opacity="1" stroke-miterlimit="10" d="M 7.04375 -0.00059375 C 7.04375 3.890031 3.891406 7.046281 0.00078125 7.046281 C -3.889844 7.046281 -7.046094 3.890031 -7.046094 -0.00059375 C -7.046094 -3.891219 -3.889844 -7.043563 0.00078125 -7.043563 C 3.891406 -7.043563 7.04375 -3.891219 7.04375 -0.00059375 Z M 7.04375 -0.00059375 " transform="matrix(1, 0, 0, -1, 54.425, 55.308)"/>
<path fill-rule="nonzero" fill="rgb(0%, 0%, 0%)" fill-opacity="1" d="M 90.050781 55.308594 C 90.050781 55.03125 89.828125 54.808594 89.554688 54.808594 C 89.277344 54.808594 89.054688 55.03125 89.054688 55.308594 C 89.054688 55.582031 89.277344 55.804688 89.554688 55.804688 C 89.828125 55.804688 90.050781 55.582031 90.050781 55.308594 Z M 90.050781 55.308594 "/>
<path fill-rule="nonzero" fill="rgb(0%, 0%, 0%)" fill-opacity="1" d="M 61.046875 96.734375 C 61.046875 96.460938 60.820312 96.238281 60.546875 96.238281 C 60.273438 96.238281 60.050781 96.460938 60.050781 96.734375 C 60.050781 97.011719 60.273438 97.234375 60.546875 97.234375 C 60.820312 97.234375 61.046875 97.011719 61.046875 96.734375 Z M 61.046875 96.734375 "/>
<path fill-rule="nonzero" fill="rgb(0%, 0%, 0%)" fill-opacity="1" d="M 29.148438 142.289062 C 29.148438 142.011719 28.925781 141.789062 28.652344 141.789062 C 28.375 141.789062 28.152344 142.011719 28.152344 142.289062 C 28.152344 142.5625 28.375 142.785156 28.652344 142.785156 C 28.925781 142.785156 29.148438 142.5625 29.148438 142.289062 Z M 29.148438 142.289062 "/>
<g clip-path="url(#clip-0)">
<path fill-rule="nonzero" fill="rgb(79.998779%, 79.998779%, 79.998779%)" fill-opacity="1" d="M 18.132812 167.371094 C 18.132812 163.480469 14.976562 160.328125 11.085938 160.328125 C 7.195312 160.328125 4.042969 163.480469 4.042969 167.371094 C 4.042969 171.265625 7.195312 174.417969 11.085938 174.417969 C 14.976562 174.417969 18.132812 171.265625 18.132812 167.371094 Z M 18.132812 167.371094 "/>
</g>
<g clip-path="url(#clip-1)">
<path fill="none" stroke-width="0.3985" stroke-linecap="butt" stroke-linejoin="miter" stroke="rgb(0%, 0%, 0%)" stroke-opacity="1" stroke-miterlimit="10" d="M 7.045813 0.00190625 C 7.045813 3.892531 3.889563 7.044875 -0.0010625 7.044875 C -3.891687 7.044875 -7.044031 3.892531 -7.044031 0.00190625 C -7.044031 -3.892625 -3.891687 -7.044969 -0.0010625 -7.044969 C 3.889563 -7.044969 7.045813 -3.892625 7.045813 0.00190625 Z M 7.045813 0.00190625 " transform="matrix(1, 0, 0, -1, 11.087, 167.373)"/>
</g>
<g clip-path="url(#clip-2)">
<path fill-rule="nonzero" fill="rgb(79.998779%, 79.998779%, 79.998779%)" fill-opacity="1" d="M 53.261719 167.371094 C 53.261719 163.480469 50.105469 160.328125 46.214844 160.328125 C 42.324219 160.328125 39.167969 163.480469 39.167969 167.371094 C 39.167969 171.265625 42.324219 174.417969 46.214844 174.417969 C 50.105469 174.417969 53.261719 171.265625 53.261719 167.371094 Z M 53.261719 167.371094 "/>
</g>
<g clip-path="url(#clip-3)">
<path fill="none" stroke-width="0.3985" stroke-linecap="butt" stroke-linejoin="miter" stroke="rgb(0%, 0%, 0%)" stroke-opacity="1" stroke-miterlimit="10" d="M 7.046719 0.00190625 C 7.046719 3.892531 3.890469 7.044875 -0.00015625 7.044875 C -3.890781 7.044875 -7.047031 3.892531 -7.047031 0.00190625 C -7.047031 -3.892625 -3.890781 -7.044969 -0.00015625 -7.044969 C 3.890469 -7.044969 7.046719 -3.892625 7.046719 0.00190625 Z M 7.046719 0.00190625 " transform="matrix(1, 0, 0, -1, 46.215, 167.373)"/>
</g>
<path fill-rule="nonzero" fill="rgb(0%, 0%, 0%)" fill-opacity="1" d="M 92.941406 142.289062 C 92.941406 142.011719 92.71875 141.789062 92.441406 141.789062 C 92.167969 141.789062 91.945312 142.011719 91.945312 142.289062 C 91.945312 142.5625 92.167969 142.785156 92.441406 142.785156 C 92.71875 142.785156 92.941406 142.5625 92.941406 142.289062 Z M 92.941406 142.289062 "/>
<g clip-path="url(#clip-4)">
<path fill-rule="nonzero" fill="rgb(79.998779%, 79.998779%, 79.998779%)" fill-opacity="1" d="M 81.921875 167.371094 C 81.921875 163.480469 78.769531 160.328125 74.878906 160.328125 C 70.988281 160.328125 67.832031 163.480469 67.832031 167.371094 C 67.832031 171.265625 70.988281 174.417969 74.878906 174.417969 C 78.769531 174.417969 81.921875 171.265625 81.921875 167.371094 Z M 81.921875 167.371094 "/>
</g>
<g clip-path="url(#clip-5)">
<path fill="none" stroke-width="0.3985" stroke-linecap="butt" stroke-linejoin="miter" stroke="rgb(0%, 0%, 0%)" stroke-opacity="1" stroke-miterlimit="10" d="M 7.043875 0.00190625 C 7.043875 3.892531 3.891531 7.044875 0.00090625 7.044875 C -3.889719 7.044875 -7.045969 3.892531 -7.045969 0.00190625 C -7.045969 -3.892625 -3.889719 -7.044969 0.00090625 -7.044969 C 3.891531 -7.044969 7.043875 -3.892625 7.043875 0.00190625 Z M 7.043875 0.00190625 " transform="matrix(1, 0, 0, -1, 74.878, 167.373)"/>
</g>
<g clip-path="url(#clip-6)">
<path fill-rule="nonzero" fill="rgb(79.998779%, 79.998779%, 79.998779%)" fill-opacity="1" d="M 117.050781 167.371094 C 117.050781 163.480469 113.898438 160.328125 110.007812 160.328125 C 106.113281 160.328125 102.960938 163.480469 102.960938 167.371094 C 102.960938 171.265625 106.113281 174.417969 110.007812 174.417969 C 113.898438 174.417969 117.050781 171.265625 117.050781 167.371094 Z M 117.050781 167.371094 "/>
</g>
<g clip-path="url(#clip-7)">
<path fill="none" stroke-width="0.3985" stroke-linecap="butt" stroke-linejoin="miter" stroke="rgb(0%, 0%, 0%)" stroke-opacity="1" stroke-miterlimit="10" d="M 7.044781 0.00190625 C 7.044781 3.892531 3.892437 7.044875 0.0018125 7.044875 C -3.892719 7.044875 -7.045063 3.892531 -7.045063 0.00190625 C -7.045063 -3.892625 -3.892719 -7.044969 0.0018125 -7.044969 C 3.892437 -7.044969 7.044781 -3.892625 7.044781 0.00190625 Z M 7.044781 0.00190625 " transform="matrix(1, 0, 0, -1, 110.006, 167.373)"/>
</g>
<path fill-rule="nonzero" fill="rgb(0%, 0%, 0%)" fill-opacity="1" d="M 119.058594 96.734375 C 119.058594 96.460938 118.835938 96.238281 118.558594 96.238281 C 118.285156 96.238281 118.0625 96.460938 118.0625 96.734375 C 118.0625 97.011719 118.285156 97.234375 118.558594 97.234375 C 118.835938 97.234375 119.058594 97.011719 119.058594 96.734375 Z M 119.058594 96.734375 "/>
<path fill-rule="nonzero" fill="rgb(79.998779%, 79.998779%, 79.998779%)" fill-opacity="1" stroke-width="0.3985" stroke-linecap="butt" stroke-linejoin="miter" stroke="rgb(0%, 0%, 0%)" stroke-opacity="1" stroke-miterlimit="10" d="M 7.046969 -0.0003125 C 7.046969 3.890312 3.890719 7.046562 0.00009375 7.046562 C -3.890531 7.046562 -7.046781 3.890312 -7.046781 -0.0003125 C -7.046781 -3.890938 -3.890531 -7.047188 0.00009375 -7.047188 C 3.890719 -7.047188 7.046969 -3.890938 7.046969 -0.0003125 Z M 7.046969 -0.0003125 " transform="matrix(1, 0, 0, -1, 100.996, 121.82)"/>
<path fill-rule="nonzero" fill="rgb(0%, 0%, 0%)" fill-opacity="1" d="M 136.621094 121.820312 C 136.621094 121.542969 136.398438 121.320312 136.125 121.320312 C 135.847656 121.320312 135.625 121.542969 135.625 121.820312 C 135.625 122.09375 135.847656 122.316406 136.125 122.316406 C 136.398438 122.316406 136.621094 122.09375 136.621094 121.820312 Z M 136.621094 121.820312 "/>
<path fill-rule="nonzero" fill="rgb(79.998779%, 79.998779%, 79.998779%)" fill-opacity="1" stroke-width="0.3985" stroke-linecap="butt" stroke-linejoin="miter" stroke="rgb(0%, 0%, 0%)" stroke-opacity="1" stroke-miterlimit="10" d="M 7.046469 -0.00125 C 7.046469 3.889375 3.890219 7.045625 -0.00040625 7.045625 C -3.891031 7.045625 -7.047281 3.889375 -7.047281 -0.00125 C -7.047281 -3.891875 -3.891031 -7.044219 -0.00040625 -7.044219 C 3.890219 -7.044219 7.046469 -3.891875 7.046469 -0.00125 Z M 7.046469 -0.00125 " transform="matrix(1, 0, 0, -1, 118.559, 146.905)"/>
<path fill-rule="nonzero" fill="rgb(79.998779%, 79.998779%, 79.998779%)" fill-opacity="1" d="M 160.734375 146.90625 C 160.734375 143.015625 157.578125 139.859375 153.6875 139.859375 C 149.796875 139.859375 146.640625 143.015625 146.640625 146.90625 C 146.640625 150.796875 149.796875 153.949219 153.6875 153.949219 C 157.578125 153.949219 160.734375 150.796875 160.734375 146.90625 Z M 160.734375 146.90625 "/>
<g clip-path="url(#clip-8)">
<path fill="none" stroke-width="0.3985" stroke-linecap="butt" stroke-linejoin="miter" stroke="rgb(0%, 0%, 0%)" stroke-opacity="1" stroke-miterlimit="10" d="M 7.046375 -0.00125 C 7.046375 3.889375 3.890125 7.045625 -0.0005 7.045625 C -3.891125 7.045625 -7.047375 3.889375 -7.047375 -0.00125 C -7.047375 -3.891875 -3.891125 -7.044219 -0.0005 -7.044219 C 3.890125 -7.044219 7.046375 -3.891875 7.046375 -0.00125 Z M 7.046375 -0.00125 " transform="matrix(1, 0, 0, -1, 153.688, 146.905)"/>
</g>
<path fill="none" stroke-width="0.3985" stroke-linecap="butt" stroke-linejoin="miter" stroke="rgb(0%, 0%, 0%)" stroke-opacity="1" stroke-miterlimit="10" d="M -1.729687 -2.471063 L -15.034375 -21.471063 " transform="matrix(1, 0, 0, -1, 52.8, 2.818)"/>
<path fill="none" stroke-width="0.3985" stroke-linecap="butt" stroke-linejoin="miter" stroke="rgb(0%, 0%, 0%)" stroke-opacity="1" stroke-miterlimit="10" d="M 1.73125 -2.471063 L 18.789844 -26.834344 " transform="matrix(1, 0, 0, -1, 52.8, 2.818)"/>
<path fill="none" stroke-width="0.3985" stroke-linecap="butt" stroke-linejoin="miter" stroke="rgb(0%, 0%, 0%)" stroke-opacity="1" stroke-miterlimit="10" d="M 18.789844 -27.974969 L 5.778125 -46.557 " transform="matrix(1, 0, 0, -1, 52.8, 2.818)"/>
<path fill="none" stroke-width="0.3985" stroke-linecap="butt" stroke-linejoin="miter" stroke="rgb(0%, 0%, 0%)" stroke-opacity="1" stroke-miterlimit="10" d="M 19.590625 -27.974969 L 36.352344 -51.920281 " transform="matrix(1, 0, 0, -1, 52.8, 2.818)"/>
<path fill="none" stroke-width="0.3985" stroke-linecap="butt" stroke-linejoin="miter" stroke="rgb(0%, 0%, 0%)" stroke-opacity="1" stroke-miterlimit="10" d="M 36.352344 -53.060906 L 8.145313 -93.346063 " transform="matrix(1, 0, 0, -1, 52.8, 2.818)"/>
<path fill="none" stroke-width="0.3985" stroke-linecap="butt" stroke-linejoin="miter" stroke="rgb(0%, 0%, 0%)" stroke-opacity="1" stroke-miterlimit="10" d="M 7.344531 -94.490594 L -23.749219 -138.90075 " transform="matrix(1, 0, 0, -1, 52.8, 2.818)"/>
<path fill="none" stroke-width="0.3985" stroke-linecap="butt" stroke-linejoin="miter" stroke="rgb(0%, 0%, 0%)" stroke-opacity="1" stroke-miterlimit="10" d="M -24.55 -140.045281 L -37.557812 -158.623406 " transform="matrix(1, 0, 0, -1, 52.8, 2.818)"/>
<path fill="none" stroke-width="0.3985" stroke-linecap="butt" stroke-linejoin="miter" stroke="rgb(0%, 0%, 0%)" stroke-opacity="1" stroke-miterlimit="10" d="M -23.749219 -140.045281 L -10.741406 -158.623406 " transform="matrix(1, 0, 0, -1, 52.8, 2.818)"/>
<path fill="none" stroke-width="0.3985" stroke-linecap="butt" stroke-linejoin="miter" stroke="rgb(0%, 0%, 0%)" stroke-opacity="1" stroke-miterlimit="10" d="M 8.145313 -94.490594 L 39.242969 -138.90075 " transform="matrix(1, 0, 0, -1, 52.8, 2.818)"/>
<path fill="none" stroke-width="0.3985" stroke-linecap="butt" stroke-linejoin="miter" stroke="rgb(0%, 0%, 0%)" stroke-opacity="1" stroke-miterlimit="10" d="M 39.242969 -140.045281 L 26.23125 -158.623406 " transform="matrix(1, 0, 0, -1, 52.8, 2.818)"/>
<path fill="none" stroke-width="0.3985" stroke-linecap="butt" stroke-linejoin="miter" stroke="rgb(0%, 0%, 0%)" stroke-opacity="1" stroke-miterlimit="10" d="M 40.04375 -140.045281 L 53.051563 -158.623406 " transform="matrix(1, 0, 0, -1, 52.8, 2.818)"/>
<path fill="none" stroke-width="0.3985" stroke-linecap="butt" stroke-linejoin="miter" stroke="rgb(0%, 0%, 0%)" stroke-opacity="1" stroke-miterlimit="10" d="M 37.153125 -53.060906 L 65.360156 -93.346063 " transform="matrix(1, 0, 0, -1, 52.8, 2.818)"/>
<path fill="none" stroke-width="0.3985" stroke-linecap="butt" stroke-linejoin="miter" stroke="rgb(0%, 0%, 0%)" stroke-opacity="1" stroke-miterlimit="10" d="M 65.360156 -94.490594 L 52.352344 -113.068719 " transform="matrix(1, 0, 0, -1, 52.8, 2.818)"/>
<path fill="none" stroke-width="0.3985" stroke-linecap="butt" stroke-linejoin="miter" stroke="rgb(0%, 0%, 0%)" stroke-opacity="1" stroke-miterlimit="10" d="M 66.160938 -94.490594 L 82.922656 -118.432 " transform="matrix(1, 0, 0, -1, 52.8, 2.818)"/>
<path fill="none" stroke-width="0.3985" stroke-linecap="butt" stroke-linejoin="miter" stroke="rgb(0%, 0%, 0%)" stroke-opacity="1" stroke-miterlimit="10" d="M 82.922656 -119.576531 L 69.914844 -138.154656 " transform="matrix(1, 0, 0, -1, 52.8, 2.818)"/>
<path fill="none" stroke-width="0.3985" stroke-linecap="butt" stroke-linejoin="miter" stroke="rgb(0%, 0%, 0%)" stroke-opacity="1" stroke-miterlimit="10" d="M 83.723438 -119.576531 L 96.735156 -138.154656 " transform="matrix(1, 0, 0, -1, 52.8, 2.818)"/>
</svg>
