<?xml version="1.0" encoding="UTF-8"?>
<svg xmlns="http://www.w3.org/2000/svg" xmlns:xlink="http://www.w3.org/1999/xlink" width="164.775" height="122.128" viewBox="0 0 164.775 122.128">
<defs>
<clipPath id="clip-0">
<path clip-rule="nonzero" d="M 0 102 L 24 102 L 24 122.128906 L 0 122.128906 Z M 0 102 "/>
</clipPath>
<clipPath id="clip-1">
<path clip-rule="nonzero" d="M 33 102 L 59 102 L 59 122.128906 L 33 122.128906 Z M 33 102 "/>
</clipPath>
<clipPath id="clip-2">
<path clip-rule="nonzero" d="M 62 102 L 88 102 L 88 122.128906 L 62 122.128906 Z M 62 102 "/>
</clipPath>
<clipPath id="clip-3">
<path clip-rule="nonzero" d="M 97 102 L 123 102 L 123 122.128906 L 97 122.128906 Z M 97 102 "/>
</clipPath>
<clipPath id="clip-4">
<path clip-rule="nonzero" d="M 141 81 L 164.773438 81 L 164.773438 108 L 141 108 Z M 141 81 "/>
</clipPath>
</defs>
<path fill-rule="nonzero" fill="rgb(0%, 0%, 0%)" fill-opacity="1" d="M 92.371094 2.816406 C 92.371094 1.261719 91.109375 0 89.554688 0 C 87.996094 0 86.734375 1.261719 86.734375 2.816406 C 86.734375 4.375 87.996094 5.636719 89.554688 5.636719 C 91.109375 5.636719 92.371094 4.375 92.371094 2.816406 Z M 92.371094 2.816406 "/>
<path fill-rule="nonzero" fill="rgb(0%, 0%, 0%)" fill-opacity="1" d="M 61.046875 44.246094 C 61.046875 43.96875 60.820312 43.746094 60.546875 43.746094 C 60.273438 43.746094 60.050781 43.96875 60.050781 44.246094 C 60.050781 44.519531 60.273438 44.742188 60.546875 44.742188 C 60.820312 44.742188 61.046875 44.519531 61.046875 44.246094 Z M 61.046875 44.246094 "/>
<path fill-rule="nonzero" fill="rgb(0%, 0%, 0%)" fill-opacity="1" d="M 29.148438 89.796875 C 29.148438 89.523438 28.925781 89.300781 28.652344 89.300781 C 28.375 89.300781 28.152344 89.523438 28.152344 89.796875 C 28.152344 90.074219 28.375 90.296875 28.652344 90.296875 C 28.925781 90.296875 29.148438 90.074219 29.148438 89.796875 Z M 29.148438 89.796875 "/>
<path fill-rule="nonzero" fill="rgb(79.998779%, 79.998779%, 79.998779%)" fill-opacity="1" d="M 18.132812 114.882812 C 18.132812 110.992188 14.976562 107.835938 11.085938 107.835938 C 7.195312 107.835938 4.042969 110.992188 4.042969 114.882812 C 4.042969 118.773438 7.195312 121.929688 11.085938 121.929688 C 14.976562 121.929688 18.132812 118.773438 18.132812 114.882812 Z M 18.132812 114.882812 "/>
<g clip-path="url(#clip-0)">
<path fill="none" stroke-width="0.3985" stroke-linecap="butt" stroke-linejoin="miter" stroke="rgb(0%, 0%, 0%)" stroke-opacity="1" stroke-miterlimit="10" d="M 7.045813 0.0001875 C 7.045813 3.890812 3.889563 7.047062 -0.0010625 7.047062 C -3.891687 7.047062 -7.044031 3.890812 -7.044031 0.0001875 C -7.044031 -3.890438 -3.891687 -7.046688 -0.0010625 -7.046688 C 3.889563 -7.046688 7.045813 -3.890438 7.045813 0.0001875 Z M 7.045813 0.0001875 " transform="matrix(1, 0, 0, -1, 11.087, 114.883)"/>
</g>
<path fill-rule="nonzero" fill="rgb(79.998779%, 79.998779%, 79.998779%)" fill-opacity="1" d="M 53.261719 114.882812 C 53.261719 110.992188 50.105469 107.835938 46.214844 107.835938 C 42.324219 107.835938 39.167969 110.992188 39.167969 114.882812 C 39.167969 118.773438 42.324219 121.929688 46.214844 121.929688 C 50.105469 121.929688 53.261719 118.773438 53.261719 114.882812 Z M 53.261719 114.882812 "/>
<g clip-path="url(#clip-1)">
<path fill="none" stroke-width="0.3985" stroke-linecap="butt" stroke-linejoin="miter" stroke="rgb(0%, 0%, 0%)" stroke-opacity="1" stroke-miterlimit="10" d="M 7.046719 0.0001875 C 7.046719 3.890812 3.890469 7.047062 -0.00015625 7.047062 C -3.890781 7.047062 -7.047031 3.890812 -7.047031 0.0001875 C -7.047031 -3.890438 -3.890781 -7.046688 -0.00015625 -7.046688 C 3.890469 -7.046688 7.046719 -3.890438 7.046719 0.0001875 Z M 7.046719 0.0001875 " transform="matrix(1, 0, 0, -1, 46.215, 114.883)"/>
</g>
<path fill-rule="nonzero" fill="rgb(0%, 0%, 0%)" fill-opacity="1" d="M 92.941406 89.796875 C 92.941406 89.523438 92.71875 89.300781 92.441406 89.300781 C 92.167969 89.300781 91.945312 89.523438 91.945312 89.796875 C 91.945312 90.074219 92.167969 90.296875 92.441406 90.296875 C 92.71875 90.296875 92.941406 90.074219 92.941406 89.796875 Z M 92.941406 89.796875 "/>
<path fill-rule="nonzero" fill="rgb(79.998779%, 79.998779%, 79.998779%)" fill-opacity="1" d="M 81.921875 114.882812 C 81.921875 110.992188 78.769531 107.835938 74.878906 107.835938 C 70.988281 107.835938 67.832031 110.992188 67.832031 114.882812 C 67.832031 118.773438 70.988281 121.929688 74.878906 121.929688 C 78.769531 121.929688 81.921875 118.773438 81.921875 114.882812 Z M 81.921875 114.882812 "/>
<g clip-path="url(#clip-2)">
<path fill="none" stroke-width="0.3985" stroke-linecap="butt" stroke-linejoin="miter" stroke="rgb(0%, 0%, 0%)" stroke-opacity="1" stroke-miterlimit="10" d="M 7.043875 0.0001875 C 7.043875 3.890812 3.891531 7.047062 0.00090625 7.047062 C -3.889719 7.047062 -7.045969 3.890812 -7.045969 0.0001875 C -7.045969 -3.890438 -3.889719 -7.046688 0.00090625 -7.046688 C 3.891531 -7.046688 7.043875 -3.890438 7.043875 0.0001875 Z M 7.043875 0.0001875 " transform="matrix(1, 0, 0, -1, 74.878, 114.883)"/>
</g>
<path fill-rule="nonzero" fill="rgb(79.998779%, 79.998779%, 79.998779%)" fill-opacity="1" d="M 117.050781 114.882812 C 117.050781 110.992188 113.898438 107.835938 110.007812 107.835938 C 106.113281 107.835938 102.960938 110.992188 102.960938 114.882812 C 102.960938 118.773438 106.113281 121.929688 110.007812 121.929688 C 113.898438 121.929688 117.050781 118.773438 117.050781 114.882812 Z M 117.050781 114.882812 "/>
<g clip-path="url(#clip-3)">
<path fill="none" stroke-width="0.3985" stroke-linecap="butt" stroke-linejoin="miter" stroke="rgb(0%, 0%, 0%)" stroke-opacity="1" stroke-miterlimit="10" d="M 7.044781 0.0001875 C 7.044781 3.890812 3.892437 7.047062 0.0018125 7.047062 C -3.892719 7.047062 -7.045063 3.890812 -7.045063 0.0001875 C -7.045063 -3.890438 -3.892719 -7.046688 0.0018125 -7.046688 C 3.892437 -7.046688 7.044781 -3.890438 7.044781 0.0001875 Z M 7.044781 0.0001875 " transform="matrix(1, 0, 0, -1, 110.006, 114.883)"/>
</g>
<path fill-rule="nonzero" fill="rgb(0%, 0%, 0%)" fill-opacity="1" d="M 119.058594 44.246094 C 119.058594 43.96875 118.835938 43.746094 118.558594 43.746094 C 118.285156 43.746094 118.0625 43.96875 118.0625 44.246094 C 118.0625 44.519531 118.285156 44.742188 118.558594 44.742188 C 118.835938 44.742188 119.058594 44.519531 119.058594 44.246094 Z M 119.058594 44.246094 "/>
<path fill-rule="nonzero" fill="rgb(79.998779%, 79.998779%, 79.998779%)" fill-opacity="1" stroke-width="0.3985" stroke-linecap="butt" stroke-linejoin="miter" stroke="rgb(0%, 0%, 0%)" stroke-opacity="1" stroke-miterlimit="10" d="M 7.044062 0.001875 C 7.044062 3.8925 3.891719 7.044844 0.00109375 7.044844 C -3.889531 7.044844 -7.045781 3.8925 -7.045781 0.001875 C -7.045781 -3.892656 -3.889531 -7.045 0.00109375 -7.045 C 3.891719 -7.045 7.044062 -3.892656 7.044062 0.001875 Z M 7.044062 0.001875 " transform="matrix(1, 0, 0, -1, 100.995, 69.33)"/>
<path fill-rule="nonzero" fill="rgb(0%, 0%, 0%)" fill-opacity="1" d="M 136.621094 69.328125 C 136.621094 69.054688 136.398438 68.832031 136.125 68.832031 C 135.847656 68.832031 135.625 69.054688 135.625 69.328125 C 135.625 69.605469 135.847656 69.828125 136.125 69.828125 C 136.398438 69.828125 136.621094 69.605469 136.621094 69.328125 Z M 136.621094 69.328125 "/>
<path fill-rule="nonzero" fill="rgb(79.998779%, 79.998779%, 79.998779%)" fill-opacity="1" stroke-width="0.3985" stroke-linecap="butt" stroke-linejoin="miter" stroke="rgb(0%, 0%, 0%)" stroke-opacity="1" stroke-miterlimit="10" d="M 7.046469 0.0009375 C 7.046469 3.891562 3.890219 7.043906 -0.00040625 7.043906 C -3.891031 7.043906 -7.047281 3.891562 -7.047281 0.0009375 C -7.047281 -3.889688 -3.891031 -7.045938 -0.00040625 -7.045938 C 3.890219 -7.045938 7.046469 -3.889688 7.046469 0.0009375 Z M 7.046469 0.0009375 " transform="matrix(1, 0, 0, -1, 118.559, 94.415)"/>
<path fill-rule="nonzero" fill="rgb(79.998779%, 79.998779%, 79.998779%)" fill-opacity="1" d="M 160.734375 94.414062 C 160.734375 90.523438 157.578125 87.371094 153.6875 87.371094 C 149.796875 87.371094 146.640625 90.523438 146.640625 94.414062 C 146.640625 98.304688 149.796875 101.460938 153.6875 101.460938 C 157.578125 101.460938 160.734375 98.304688 160.734375 94.414062 Z M 160.734375 94.414062 "/>
<g clip-path="url(#clip-4)">
<path fill="none" stroke-width="0.3985" stroke-linecap="butt" stroke-linejoin="miter" stroke="rgb(0%, 0%, 0%)" stroke-opacity="1" stroke-miterlimit="10" d="M 7.046375 0.0009375 C 7.046375 3.891562 3.890125 7.043906 -0.0005 7.043906 C -3.891125 7.043906 -7.047375 3.891562 -7.047375 0.0009375 C -7.047375 -3.889688 -3.891125 -7.045938 -0.0005 -7.045938 C 3.890125 -7.045938 7.046375 -3.889688 7.046375 0.0009375 Z M 7.046375 0.0009375 " transform="matrix(1, 0, 0, -1, 153.688, 94.415)"/>
</g>
<path fill="none" stroke-width="0.3985" stroke-linecap="butt" stroke-linejoin="miter" stroke="rgb(0%, 0%, 0%)" stroke-opacity="1" stroke-miterlimit="10" d="M -1.728781 -2.471063 L -28.607687 -40.857781 " transform="matrix(1, 0, 0, -1, 89.553, 2.818)"/>
<path fill="none" stroke-width="0.3985" stroke-linecap="butt" stroke-linejoin="miter" stroke="rgb(0%, 0%, 0%)" stroke-opacity="1" stroke-miterlimit="10" d="M -29.408469 -41.998406 L -60.502219 -86.408563 " transform="matrix(1, 0, 0, -1, 89.553, 2.818)"/>
<path fill="none" stroke-width="0.3985" stroke-linecap="butt" stroke-linejoin="miter" stroke="rgb(0%, 0%, 0%)" stroke-opacity="1" stroke-miterlimit="10" d="M -61.303 -87.553094 L -74.310812 -106.131219 " transform="matrix(1, 0, 0, -1, 89.553, 2.818)"/>
<path fill="none" stroke-width="0.3985" stroke-linecap="butt" stroke-linejoin="miter" stroke="rgb(0%, 0%, 0%)" stroke-opacity="1" stroke-miterlimit="10" d="M -60.502219 -87.553094 L -47.494406 -106.131219 " transform="matrix(1, 0, 0, -1, 89.553, 2.818)"/>
<path fill="none" stroke-width="0.3985" stroke-linecap="butt" stroke-linejoin="miter" stroke="rgb(0%, 0%, 0%)" stroke-opacity="1" stroke-miterlimit="10" d="M -28.607687 -41.998406 L 2.489969 -86.408563 " transform="matrix(1, 0, 0, -1, 89.553, 2.818)"/>
<path fill="none" stroke-width="0.3985" stroke-linecap="butt" stroke-linejoin="miter" stroke="rgb(0%, 0%, 0%)" stroke-opacity="1" stroke-miterlimit="10" d="M 2.489969 -87.553094 L -10.52175 -106.131219 " transform="matrix(1, 0, 0, -1, 89.553, 2.818)"/>
<path fill="none" stroke-width="0.3985" stroke-linecap="butt" stroke-linejoin="miter" stroke="rgb(0%, 0%, 0%)" stroke-opacity="1" stroke-miterlimit="10" d="M 3.286844 -87.553094 L 16.298563 -106.131219 " transform="matrix(1, 0, 0, -1, 89.553, 2.818)"/>
<path fill="none" stroke-width="0.3985" stroke-linecap="butt" stroke-linejoin="miter" stroke="rgb(0%, 0%, 0%)" stroke-opacity="1" stroke-miterlimit="10" d="M 1.732156 -2.471063 L 28.607156 -40.857781 " transform="matrix(1, 0, 0, -1, 89.553, 2.818)"/>
<path fill="none" stroke-width="0.3985" stroke-linecap="butt" stroke-linejoin="miter" stroke="rgb(0%, 0%, 0%)" stroke-opacity="1" stroke-miterlimit="10" d="M 28.607156 -41.998406 L 15.599344 -60.580438 " transform="matrix(1, 0, 0, -1, 89.553, 2.818)"/>
<path fill="none" stroke-width="0.3985" stroke-linecap="butt" stroke-linejoin="miter" stroke="rgb(0%, 0%, 0%)" stroke-opacity="1" stroke-miterlimit="10" d="M 29.407938 -41.998406 L 46.169656 -65.943719 " transform="matrix(1, 0, 0, -1, 89.553, 2.818)"/>
<path fill="none" stroke-width="0.3985" stroke-linecap="butt" stroke-linejoin="miter" stroke="rgb(0%, 0%, 0%)" stroke-opacity="1" stroke-miterlimit="10" d="M 46.169656 -67.084344 L 33.161844 -85.662469 " transform="matrix(1, 0, 0, -1, 89.553, 2.818)"/>
<path fill="none" stroke-width="0.3985" stroke-linecap="butt" stroke-linejoin="miter" stroke="rgb(0%, 0%, 0%)" stroke-opacity="1" stroke-miterlimit="10" d="M 46.970438 -67.084344 L 59.97825 -85.662469 " transform="matrix(1, 0, 0, -1, 89.553, 2.818)"/>
</svg>
