<?xml version="1.0" encoding="UTF-8"?>
<svg xmlns="http://www.w3.org/2000/svg" xmlns:xlink="http://www.w3.org/1999/xlink" width="147.21" height="174.618" viewBox="0 0 147.21 174.618">
<defs>
<clipPath id="clip-0">
<path clip-rule="nonzero" d="M 85 160 L 100 160 L 100 174.617188 L 85 174.617188 Z M 85 160 "/>
</clipPath>
<clipPath id="clip-1">
<path clip-rule="nonzero" d="M 79 154 L 106 154 L 106 174.617188 L 79 174.617188 Z M 79 154 "/>
</clipPath>
<clipPath id="clip-2">
<path clip-rule="nonzero" d="M 120 160 L 135 160 L 135 174.617188 L 120 174.617188 Z M 120 160 "/>
</clipPath>
<clipPath id="clip-3">
<path clip-rule="nonzero" d="M 114 154 L 141 154 L 141 174.617188 L 114 174.617188 Z M 114 154 "/>
</clipPath>
<clipPath id="clip-4">
<path clip-rule="nonzero" d="M 123 84 L 147.210938 84 L 147.210938 110 L 123 110 Z M 123 84 "/>
</clipPath>
</defs>
<path fill-rule="nonzero" fill="rgb(0%, 0%, 0%)" fill-opacity="1" d="M 73.183594 2.816406 C 73.183594 1.261719 71.921875 0 70.363281 0 C 68.808594 0 67.546875 1.261719 67.546875 2.816406 C 67.546875 4.375 68.808594 5.636719 70.363281 5.636719 C 71.921875 5.636719 73.183594 4.375 73.183594 2.816406 Z M 73.183594 2.816406 "/>
<path fill-rule="nonzero" fill="rgb(79.998779%, 79.998779%, 79.998779%)" fill-opacity="1" stroke-width="0.3985" stroke-linecap="butt" stroke-linejoin="miter" stroke="rgb(0%, 0%, 0%)" stroke-opacity="1" stroke-miterlimit="10" d="M 7.046656 0.00134375 C 7.046656 3.891969 3.890406 7.044312 -0.00021875 7.044312 C -3.890844 7.044312 -7.047094 3.891969 -7.047094 0.00134375 C -7.047094 -3.889281 -3.890844 -7.045531 -0.00021875 -7.045531 C 3.890406 -7.045531 7.046656 -3.889281 7.046656 0.00134375 Z M 7.046656 0.00134375 " transform="matrix(1, 0, 0, -1, 51.176, 30.224)"/>
<path fill-rule="nonzero" fill="rgb(0%, 0%, 0%)" fill-opacity="1" d="M 90.050781 30.222656 C 90.050781 29.949219 89.828125 29.726562 89.554688 29.726562 C 89.277344 29.726562 89.054688 29.949219 89.054688 30.222656 C 89.054688 30.5 89.277344 30.722656 89.554688 30.722656 C 89.828125 30.722656 90.050781 30.5 90.050781 30.222656 Z M 90.050781 30.222656 "/>
<path fill-rule="nonzero" fill="rgb(0%, 0%, 0%)" fill-opacity="1" d="M 61.046875 71.648438 C 61.046875 71.375 60.820312 71.152344 60.546875 71.152344 C 60.273438 71.152344 60.050781 71.375 60.050781 71.648438 C 60.050781 71.925781 60.273438 72.148438 60.546875 72.148438 C 60.820312 72.148438 61.046875 71.925781 61.046875 71.648438 Z M 61.046875 71.648438 "/>
<path fill-rule="nonzero" fill="rgb(0%, 0%, 0%)" fill-opacity="1" d="M 29.148438 117.203125 C 29.148438 116.929688 28.925781 116.703125 28.652344 116.703125 C 28.375 116.703125 28.152344 116.929688 28.152344 117.203125 C 28.152344 117.476562 28.375 117.699219 28.652344 117.699219 C 28.925781 117.699219 29.148438 117.476562 29.148438 117.203125 Z M 29.148438 117.203125 "/>
<path fill-rule="nonzero" fill="rgb(79.998779%, 79.998779%, 79.998779%)" fill-opacity="1" stroke-width="0.3985" stroke-linecap="butt" stroke-linejoin="miter" stroke="rgb(0%, 0%, 0%)" stroke-opacity="1" stroke-miterlimit="10" d="M 7.045812 -0.0010625 C 7.045812 3.889562 3.889562 7.045812 -0.0010625 7.045812 C -3.891688 7.045812 -7.044031 3.889562 -7.044031 -0.0010625 C -7.044031 -3.891688 -3.891688 -7.044031 -0.0010625 -7.044031 C 3.889562 -7.044031 7.045812 -3.891688 7.045812 -0.0010625 Z M 7.045812 -0.0010625 " transform="matrix(1, 0, 0, -1, 11.087, 142.288)"/>
<path fill-rule="nonzero" fill="rgb(79.998779%, 79.998779%, 79.998779%)" fill-opacity="1" stroke-width="0.3985" stroke-linecap="butt" stroke-linejoin="miter" stroke="rgb(0%, 0%, 0%)" stroke-opacity="1" stroke-miterlimit="10" d="M 7.046719 -0.0010625 C 7.046719 3.889562 3.890469 7.045812 -0.00015625 7.045812 C -3.890781 7.045812 -7.047031 3.889562 -7.047031 -0.0010625 C -7.047031 -3.891688 -3.890781 -7.044031 -0.00015625 -7.044031 C 3.890469 -7.044031 7.046719 -3.891688 7.046719 -0.0010625 Z M 7.046719 -0.0010625 " transform="matrix(1, 0, 0, -1, 46.215, 142.288)"/>
<path fill-rule="nonzero" fill="rgb(0%, 0%, 0%)" fill-opacity="1" d="M 92.941406 117.203125 C 92.941406 116.929688 92.71875 116.703125 92.441406 116.703125 C 92.167969 116.703125 91.945312 116.929688 91.945312 117.203125 C 91.945312 117.476562 92.167969 117.699219 92.441406 117.699219 C 92.71875 117.699219 92.941406 117.476562 92.941406 117.203125 Z M 92.941406 117.203125 "/>
<path fill-rule="nonzero" fill="rgb(79.998779%, 79.998779%, 79.998779%)" fill-opacity="1" stroke-width="0.3985" stroke-linecap="butt" stroke-linejoin="miter" stroke="rgb(0%, 0%, 0%)" stroke-opacity="1" stroke-miterlimit="10" d="M 7.043875 -0.0010625 C 7.043875 3.889562 3.891531 7.045812 0.00090625 7.045812 C -3.889719 7.045812 -7.045969 3.889562 -7.045969 -0.0010625 C -7.045969 -3.891688 -3.889719 -7.044031 0.00090625 -7.044031 C 3.891531 -7.044031 7.043875 -3.891688 7.043875 -0.0010625 Z M 7.043875 -0.0010625 " transform="matrix(1, 0, 0, -1, 74.878, 142.288)"/>
<path fill-rule="nonzero" fill="rgb(0%, 0%, 0%)" fill-opacity="1" d="M 110.503906 142.289062 C 110.503906 142.011719 110.28125 141.789062 110.007812 141.789062 C 109.730469 141.789062 109.507812 142.011719 109.507812 142.289062 C 109.507812 142.5625 109.730469 142.785156 110.007812 142.785156 C 110.28125 142.785156 110.503906 142.5625 110.503906 142.289062 Z M 110.503906 142.289062 "/>
<g clip-path="url(#clip-0)">
<path fill-rule="nonzero" fill="rgb(79.998779%, 79.998779%, 79.998779%)" fill-opacity="1" d="M 99.488281 167.371094 C 99.488281 163.480469 96.332031 160.328125 92.441406 160.328125 C 88.550781 160.328125 85.398438 163.480469 85.398438 167.371094 C 85.398438 171.265625 88.550781 174.417969 92.441406 174.417969 C 96.332031 174.417969 99.488281 171.265625 99.488281 167.371094 Z M 99.488281 167.371094 "/>
</g>
<g clip-path="url(#clip-1)">
<path fill="none" stroke-width="0.3985" stroke-linecap="butt" stroke-linejoin="miter" stroke="rgb(0%, 0%, 0%)" stroke-opacity="1" stroke-miterlimit="10" d="M 7.046281 0.00190625 C 7.046281 3.892531 3.890031 7.044875 -0.00059375 7.044875 C -3.891219 7.044875 -7.043563 3.892531 -7.043563 0.00190625 C -7.043563 -3.892625 -3.891219 -7.044969 -0.00059375 -7.044969 C 3.890031 -7.044969 7.046281 -3.892625 7.046281 0.00190625 Z M 7.046281 0.00190625 " transform="matrix(1, 0, 0, -1, 92.442, 167.373)"/>
</g>
<g clip-path="url(#clip-2)">
<path fill-rule="nonzero" fill="rgb(79.998779%, 79.998779%, 79.998779%)" fill-opacity="1" d="M 134.617188 167.371094 C 134.617188 163.480469 131.460938 160.328125 127.570312 160.328125 C 123.679688 160.328125 120.523438 163.480469 120.523438 167.371094 C 120.523438 171.265625 123.679688 174.417969 127.570312 174.417969 C 131.460938 174.417969 134.617188 171.265625 134.617188 167.371094 Z M 134.617188 167.371094 "/>
</g>
<g clip-path="url(#clip-3)">
<path fill="none" stroke-width="0.3985" stroke-linecap="butt" stroke-linejoin="miter" stroke="rgb(0%, 0%, 0%)" stroke-opacity="1" stroke-miterlimit="10" d="M 7.047187 0.00190625 C 7.047187 3.892531 3.890937 7.044875 0.0003125 7.044875 C -3.890313 7.044875 -7.046563 3.892531 -7.046563 0.00190625 C -7.046563 -3.892625 -3.890313 -7.044969 0.0003125 -7.044969 C 3.890937 -7.044969 7.047187 -3.892625 7.047187 0.00190625 Z M 7.047187 0.00190625 " transform="matrix(1, 0, 0, -1, 127.57, 167.373)"/>
</g>
<path fill-rule="nonzero" fill="rgb(0%, 0%, 0%)" fill-opacity="1" d="M 119.054688 71.648438 C 119.054688 71.375 118.832031 71.152344 118.558594 71.152344 C 118.28125 71.152344 118.058594 71.375 118.058594 71.648438 C 118.058594 71.925781 118.28125 72.148438 118.558594 72.148438 C 118.832031 72.148438 119.054688 71.925781 119.054688 71.648438 Z M 119.054688 71.648438 "/>
<path fill-rule="nonzero" fill="rgb(79.998779%, 79.998779%, 79.998779%)" fill-opacity="1" stroke-width="0.3985" stroke-linecap="butt" stroke-linejoin="miter" stroke="rgb(0%, 0%, 0%)" stroke-opacity="1" stroke-miterlimit="10" d="M 7.045063 0.000625 C 7.045063 3.89125 3.892719 7.043594 -0.0018125 7.043594 C -3.892437 7.043594 -7.044781 3.89125 -7.044781 0.000625 C -7.044781 -3.89 -3.892437 -7.04625 -0.0018125 -7.04625 C 3.892719 -7.04625 7.045063 -3.89 7.045063 0.000625 Z M 7.045063 0.000625 " transform="matrix(1, 0, 0, -1, 100.994, 96.735)"/>
<path fill-rule="nonzero" fill="rgb(79.998779%, 79.998779%, 79.998779%)" fill-opacity="1" d="M 143.167969 96.734375 C 143.167969 92.84375 140.015625 89.691406 136.121094 89.691406 C 132.230469 89.691406 129.078125 92.84375 129.078125 96.734375 C 129.078125 100.625 132.230469 103.78125 136.121094 103.78125 C 140.015625 103.78125 143.167969 100.625 143.167969 96.734375 Z M 143.167969 96.734375 "/>
<g clip-path="url(#clip-4)">
<path fill="none" stroke-width="0.3985" stroke-linecap="butt" stroke-linejoin="miter" stroke="rgb(0%, 0%, 0%)" stroke-opacity="1" stroke-miterlimit="10" d="M 7.044969 0.000625 C 7.044969 3.89125 3.892625 7.043594 -0.00190625 7.043594 C -3.892531 7.043594 -7.044875 3.89125 -7.044875 0.000625 C -7.044875 -3.89 -3.892531 -7.04625 -0.00190625 -7.04625 C 3.892625 -7.04625 7.044969 -3.89 7.044969 0.000625 Z M 7.044969 0.000625 " transform="matrix(1, 0, 0, -1, 136.123, 96.735)"/>
</g>
<path fill="none" stroke-width="0.3985" stroke-linecap="butt" stroke-linejoin="miter" stroke="rgb(0%, 0%, 0%)" stroke-opacity="1" stroke-miterlimit="10" d="M -1.731188 -2.471063 L -15.031969 -21.471063 " transform="matrix(1, 0, 0, -1, 70.364, 2.818)"/>
<path fill="none" stroke-width="0.3985" stroke-linecap="butt" stroke-linejoin="miter" stroke="rgb(0%, 0%, 0%)" stroke-opacity="1" stroke-miterlimit="10" d="M 1.72975 -2.471063 L 18.788344 -26.834344 " transform="matrix(1, 0, 0, -1, 70.364, 2.818)"/>
<path fill="none" stroke-width="0.3985" stroke-linecap="butt" stroke-linejoin="miter" stroke="rgb(0%, 0%, 0%)" stroke-opacity="1" stroke-miterlimit="10" d="M 18.788344 -27.974969 L -9.418688 -68.260125 " transform="matrix(1, 0, 0, -1, 70.364, 2.818)"/>
<path fill="none" stroke-width="0.3985" stroke-linecap="butt" stroke-linejoin="miter" stroke="rgb(0%, 0%, 0%)" stroke-opacity="1" stroke-miterlimit="10" d="M -10.219469 -69.404656 L -41.313219 -113.814813 " transform="matrix(1, 0, 0, -1, 70.364, 2.818)"/>
<path fill="none" stroke-width="0.3985" stroke-linecap="butt" stroke-linejoin="miter" stroke="rgb(0%, 0%, 0%)" stroke-opacity="1" stroke-miterlimit="10" d="M -42.114 -114.955438 L -55.121813 -133.537469 " transform="matrix(1, 0, 0, -1, 70.364, 2.818)"/>
<path fill="none" stroke-width="0.3985" stroke-linecap="butt" stroke-linejoin="miter" stroke="rgb(0%, 0%, 0%)" stroke-opacity="1" stroke-miterlimit="10" d="M -41.313219 -114.955438 L -28.305406 -133.537469 " transform="matrix(1, 0, 0, -1, 70.364, 2.818)"/>
<path fill="none" stroke-width="0.3985" stroke-linecap="butt" stroke-linejoin="miter" stroke="rgb(0%, 0%, 0%)" stroke-opacity="1" stroke-miterlimit="10" d="M -9.418688 -69.404656 L 21.678969 -113.814813 " transform="matrix(1, 0, 0, -1, 70.364, 2.818)"/>
<path fill="none" stroke-width="0.3985" stroke-linecap="butt" stroke-linejoin="miter" stroke="rgb(0%, 0%, 0%)" stroke-opacity="1" stroke-miterlimit="10" d="M 21.678969 -114.955438 L 8.66725 -133.537469 " transform="matrix(1, 0, 0, -1, 70.364, 2.818)"/>
<path fill="none" stroke-width="0.3985" stroke-linecap="butt" stroke-linejoin="miter" stroke="rgb(0%, 0%, 0%)" stroke-opacity="1" stroke-miterlimit="10" d="M 22.47975 -114.955438 L 39.241469 -138.90075 " transform="matrix(1, 0, 0, -1, 70.364, 2.818)"/>
<path fill="none" stroke-width="0.3985" stroke-linecap="butt" stroke-linejoin="miter" stroke="rgb(0%, 0%, 0%)" stroke-opacity="1" stroke-miterlimit="10" d="M 39.241469 -140.041375 L 26.233656 -158.623406 " transform="matrix(1, 0, 0, -1, 70.364, 2.818)"/>
<path fill="none" stroke-width="0.3985" stroke-linecap="butt" stroke-linejoin="miter" stroke="rgb(0%, 0%, 0%)" stroke-opacity="1" stroke-miterlimit="10" d="M 40.04225 -140.041375 L 53.050062 -158.623406 " transform="matrix(1, 0, 0, -1, 70.364, 2.818)"/>
<path fill="none" stroke-width="0.3985" stroke-linecap="butt" stroke-linejoin="miter" stroke="rgb(0%, 0%, 0%)" stroke-opacity="1" stroke-miterlimit="10" d="M 19.589125 -27.974969 L 47.796156 -68.260125 " transform="matrix(1, 0, 0, -1, 70.364, 2.818)"/>
<path fill="none" stroke-width="0.3985" stroke-linecap="butt" stroke-linejoin="miter" stroke="rgb(0%, 0%, 0%)" stroke-opacity="1" stroke-miterlimit="10" d="M 47.796156 -69.404656 L 34.784437 -87.982781 " transform="matrix(1, 0, 0, -1, 70.364, 2.818)"/>
<path fill="none" stroke-width="0.3985" stroke-linecap="butt" stroke-linejoin="miter" stroke="rgb(0%, 0%, 0%)" stroke-opacity="1" stroke-miterlimit="10" d="M 48.593031 -69.404656 L 61.60475 -87.982781 " transform="matrix(1, 0, 0, -1, 70.364, 2.818)"/>
</svg>
