<?xml version="1.0" encoding="UTF-8"?>
<svg xmlns="http://www.w3.org/2000/svg" xmlns:xlink="http://www.w3.org/1999/xlink" width="95.679" height="87.638" viewBox="0 0 95.679 87.638">
<defs>
<clipPath id="clip-0">
<path clip-rule="nonzero" d="M 42 73 L 57 73 L 57 87.636719 L 42 87.636719 Z M 42 73 "/>
</clipPath>
<clipPath id="clip-1">
<path clip-rule="nonzero" d="M 36 67 L 63 67 L 63 87.636719 L 36 87.636719 Z M 36 67 "/>
</clipPath>
<clipPath id="clip-2">
<path clip-rule="nonzero" d="M 77 73 L 92 73 L 92 87.636719 L 77 87.636719 Z M 77 73 "/>
</clipPath>
<clipPath id="clip-3">
<path clip-rule="nonzero" d="M 71 67 L 95.679688 67 L 95.679688 87.636719 L 71 87.636719 Z M 71 67 "/>
</clipPath>
</defs>
<path fill-rule="nonzero" fill="rgb(0%, 0%, 0%)" fill-opacity="1" d="M 33.09375 2.816406 C 33.09375 1.261719 31.832031 0 30.277344 0 C 28.71875 0 27.457031 1.261719 27.457031 2.816406 C 27.457031 4.375 28.71875 5.636719 30.277344 5.636719 C 31.832031 5.636719 33.09375 4.375 33.09375 2.816406 Z M 33.09375 2.816406 "/>
<path fill-rule="nonzero" fill="rgb(79.998779%, 79.998779%, 79.998779%)" fill-opacity="1" stroke-width="0.3985" stroke-linecap="butt" stroke-linejoin="miter" stroke="rgb(0%, 0%, 0%)" stroke-opacity="1" stroke-miterlimit="10" d="M 7.045813 0.00034375 C 7.045813 3.890969 3.889563 7.047219 -0.0010625 7.047219 C -3.891687 7.047219 -7.044031 3.890969 -7.044031 0.00034375 C -7.044031 -3.890281 -3.891687 -7.046531 -0.0010625 -7.046531 C 3.889563 -7.046531 7.045813 -3.890281 7.045813 0.00034375 Z M 7.045813 0.00034375 " transform="matrix(1, 0, 0, -1, 11.087, 30.223)"/>
<path fill-rule="nonzero" fill="rgb(0%, 0%, 0%)" fill-opacity="1" d="M 49.960938 30.222656 C 49.960938 29.949219 49.738281 29.726562 49.464844 29.726562 C 49.1875 29.726562 48.964844 29.949219 48.964844 30.222656 C 48.964844 30.5 49.1875 30.722656 49.464844 30.722656 C 49.738281 30.722656 49.960938 30.5 49.960938 30.222656 Z M 49.960938 30.222656 "/>
<path fill-rule="nonzero" fill="rgb(79.998779%, 79.998779%, 79.998779%)" fill-opacity="1" stroke-width="0.3985" stroke-linecap="butt" stroke-linejoin="miter" stroke="rgb(0%, 0%, 0%)" stroke-opacity="1" stroke-miterlimit="10" d="M 7.045313 -0.00059375 C 7.045313 3.890031 3.892969 7.046281 -0.0015625 7.046281 C -3.892187 7.046281 -7.044531 3.890031 -7.044531 -0.00059375 C -7.044531 -3.891219 -3.892187 -7.043563 -0.0015625 -7.043563 C 3.892969 -7.043563 7.045313 -3.891219 7.045313 -0.00059375 Z M 7.045313 -0.00059375 " transform="matrix(1, 0, 0, -1, 31.9, 55.308)"/>
<path fill-rule="nonzero" fill="rgb(0%, 0%, 0%)" fill-opacity="1" d="M 67.527344 55.308594 C 67.527344 55.03125 67.304688 54.808594 67.027344 54.808594 C 66.753906 54.808594 66.53125 55.03125 66.53125 55.308594 C 66.53125 55.582031 66.753906 55.804688 67.027344 55.804688 C 67.304688 55.804688 67.527344 55.582031 67.527344 55.308594 Z M 67.527344 55.308594 "/>
<g clip-path="url(#clip-0)">
<path fill-rule="nonzero" fill="rgb(79.998779%, 79.998779%, 79.998779%)" fill-opacity="1" d="M 56.507812 80.394531 C 56.507812 76.5 53.355469 73.347656 49.464844 73.347656 C 45.574219 73.347656 42.417969 76.5 42.417969 80.394531 C 42.417969 84.285156 45.574219 87.4375 49.464844 87.4375 C 53.355469 87.4375 56.507812 84.285156 56.507812 80.394531 Z M 56.507812 80.394531 "/>
</g>
<g clip-path="url(#clip-1)">
<path fill="none" stroke-width="0.3985" stroke-linecap="butt" stroke-linejoin="miter" stroke="rgb(0%, 0%, 0%)" stroke-opacity="1" stroke-miterlimit="10" d="M 7.043813 -0.00153125 C 7.043813 3.893 3.891469 7.045344 0.00084375 7.045344 C -3.889781 7.045344 -7.046031 3.893 -7.046031 -0.00153125 C -7.046031 -3.892156 -3.889781 -7.0445 0.00084375 -7.0445 C 3.891469 -7.0445 7.043813 -3.892156 7.043813 -0.00153125 Z M 7.043813 -0.00153125 " transform="matrix(1, 0, 0, -1, 49.464, 80.393)"/>
</g>
<g clip-path="url(#clip-2)">
<path fill-rule="nonzero" fill="rgb(79.998779%, 79.998779%, 79.998779%)" fill-opacity="1" d="M 91.636719 80.394531 C 91.636719 76.5 88.484375 73.347656 84.59375 73.347656 C 80.699219 73.347656 77.546875 76.5 77.546875 80.394531 C 77.546875 84.285156 80.699219 87.4375 84.59375 87.4375 C 88.484375 87.4375 91.636719 84.285156 91.636719 80.394531 Z M 91.636719 80.394531 "/>
</g>
<g clip-path="url(#clip-3)">
<path fill="none" stroke-width="0.3985" stroke-linecap="butt" stroke-linejoin="miter" stroke="rgb(0%, 0%, 0%)" stroke-opacity="1" stroke-miterlimit="10" d="M 7.044719 -0.00153125 C 7.044719 3.893 3.892375 7.045344 0.00175 7.045344 C -3.892781 7.045344 -7.045125 3.893 -7.045125 -0.00153125 C -7.045125 -3.892156 -3.892781 -7.0445 0.00175 -7.0445 C 3.892375 -7.0445 7.044719 -3.892156 7.044719 -0.00153125 Z M 7.044719 -0.00153125 " transform="matrix(1, 0, 0, -1, 84.592, 80.393)"/>
</g>
<path fill="none" stroke-width="0.3985" stroke-linecap="butt" stroke-linejoin="miter" stroke="rgb(0%, 0%, 0%)" stroke-opacity="1" stroke-miterlimit="10" d="M -1.729125 -2.471063 L -15.033812 -21.471063 " transform="matrix(1, 0, 0, -1, 30.276, 2.818)"/>
<path fill="none" stroke-width="0.3985" stroke-linecap="butt" stroke-linejoin="miter" stroke="rgb(0%, 0%, 0%)" stroke-opacity="1" stroke-miterlimit="10" d="M 1.731813 -2.471063 L 18.790406 -26.834344 " transform="matrix(1, 0, 0, -1, 30.276, 2.818)"/>
<path fill="none" stroke-width="0.3985" stroke-linecap="butt" stroke-linejoin="miter" stroke="rgb(0%, 0%, 0%)" stroke-opacity="1" stroke-miterlimit="10" d="M 18.790406 -27.974969 L 5.778688 -46.557 " transform="matrix(1, 0, 0, -1, 30.276, 2.818)"/>
<path fill="none" stroke-width="0.3985" stroke-linecap="butt" stroke-linejoin="miter" stroke="rgb(0%, 0%, 0%)" stroke-opacity="1" stroke-miterlimit="10" d="M 19.587281 -27.974969 L 36.352906 -51.920281 " transform="matrix(1, 0, 0, -1, 30.276, 2.818)"/>
<path fill="none" stroke-width="0.3985" stroke-linecap="butt" stroke-linejoin="miter" stroke="rgb(0%, 0%, 0%)" stroke-opacity="1" stroke-miterlimit="10" d="M 36.352906 -53.060906 L 23.345094 -71.642938 " transform="matrix(1, 0, 0, -1, 30.276, 2.818)"/>
<path fill="none" stroke-width="0.3985" stroke-linecap="butt" stroke-linejoin="miter" stroke="rgb(0%, 0%, 0%)" stroke-opacity="1" stroke-miterlimit="10" d="M 37.153688 -53.060906 L 50.1615 -71.642938 " transform="matrix(1, 0, 0, -1, 30.276, 2.818)"/>
</svg>
