<?xml version="1.0" encoding="UTF-8"?>
<svg xmlns="http://www.w3.org/2000/svg" xmlns:xlink="http://www.w3.org/1999/xlink" width="113.243" height="112.723" viewBox="0 0 113.243 112.723">
<defs>
<clipPath id="clip-0">
<path clip-rule="nonzero" d="M 59 98 L 75 98 L 75 112.722656 L 59 112.722656 Z M 59 98 "/>
</clipPath>
<clipPath id="clip-1">
<path clip-rule="nonzero" d="M 54 92 L 80 92 L 80 112.722656 L 54 112.722656 Z M 54 92 "/>
</clipPath>
<clipPath id="clip-2">
<path clip-rule="nonzero" d="M 95 98 L 110 98 L 110 112.722656 L 95 112.722656 Z M 95 98 "/>
</clipPath>
<clipPath id="clip-3">
<path clip-rule="nonzero" d="M 89 92 L 113.242188 92 L 113.242188 112.722656 L 89 112.722656 Z M 89 92 "/>
</clipPath>
</defs>
<path fill-rule="nonzero" fill="rgb(0%, 0%, 0%)" fill-opacity="1" d="M 33.09375 2.816406 C 33.09375 1.261719 31.832031 0 30.277344 0 C 28.71875 0 27.457031 1.261719 27.457031 2.816406 C 27.457031 4.375 28.71875 5.636719 30.277344 5.636719 C 31.832031 5.636719 33.09375 4.375 33.09375 2.816406 Z M 33.09375 2.816406 "/>
<path fill-rule="nonzero" fill="rgb(79.998779%, 79.998779%, 79.998779%)" fill-opacity="1" stroke-width="0.3985" stroke-linecap="butt" stroke-linejoin="miter" stroke="rgb(0%, 0%, 0%)" stroke-opacity="1" stroke-miterlimit="10" d="M 7.045813 0.00034375 C 7.045813 3.890969 3.889563 7.047219 -0.0010625 7.047219 C -3.891687 7.047219 -7.044031 3.890969 -7.044031 0.00034375 C -7.044031 -3.890281 -3.891687 -7.046531 -0.0010625 -7.046531 C 3.889563 -7.046531 7.045813 -3.890281 7.045813 0.00034375 Z M 7.045813 0.00034375 " transform="matrix(1, 0, 0, -1, 11.087, 30.223)"/>
<path fill-rule="nonzero" fill="rgb(0%, 0%, 0%)" fill-opacity="1" d="M 49.960938 30.222656 C 49.960938 29.949219 49.738281 29.726562 49.464844 29.726562 C 49.1875 29.726562 48.964844 29.949219 48.964844 30.222656 C 48.964844 30.5 49.1875 30.722656 49.464844 30.722656 C 49.738281 30.722656 49.960938 30.5 49.960938 30.222656 Z M 49.960938 30.222656 "/>
<path fill-rule="nonzero" fill="rgb(79.998779%, 79.998779%, 79.998779%)" fill-opacity="1" stroke-width="0.3985" stroke-linecap="butt" stroke-linejoin="miter" stroke="rgb(0%, 0%, 0%)" stroke-opacity="1" stroke-miterlimit="10" d="M 7.045313 -0.00059375 C 7.045313 3.890031 3.892969 7.046281 -0.0015625 7.046281 C -3.892187 7.046281 -7.044531 3.890031 -7.044531 -0.00059375 C -7.044531 -3.891219 -3.892187 -7.043563 -0.0015625 -7.043563 C 3.892969 -7.043563 7.045313 -3.891219 7.045313 -0.00059375 Z M 7.045313 -0.00059375 " transform="matrix(1, 0, 0, -1, 31.9, 55.308)"/>
<path fill-rule="nonzero" fill="rgb(0%, 0%, 0%)" fill-opacity="1" d="M 67.527344 55.308594 C 67.527344 55.03125 67.304688 54.808594 67.027344 54.808594 C 66.753906 54.808594 66.53125 55.03125 66.53125 55.308594 C 66.53125 55.582031 66.753906 55.804688 67.027344 55.804688 C 67.304688 55.804688 67.527344 55.582031 67.527344 55.308594 Z M 67.527344 55.308594 "/>
<path fill-rule="nonzero" fill="rgb(79.998779%, 79.998779%, 79.998779%)" fill-opacity="1" stroke-width="0.3985" stroke-linecap="butt" stroke-linejoin="miter" stroke="rgb(0%, 0%, 0%)" stroke-opacity="1" stroke-miterlimit="10" d="M 7.043813 -0.00153125 C 7.043813 3.893 3.891469 7.045344 0.00084375 7.045344 C -3.889781 7.045344 -7.046031 3.893 -7.046031 -0.00153125 C -7.046031 -3.892156 -3.889781 -7.0445 0.00084375 -7.0445 C 3.891469 -7.0445 7.043813 -3.892156 7.043813 -0.00153125 Z M 7.043813 -0.00153125 " transform="matrix(1, 0, 0, -1, 49.464, 80.393)"/>
<path fill-rule="nonzero" fill="rgb(0%, 0%, 0%)" fill-opacity="1" d="M 85.089844 80.394531 C 85.089844 80.117188 84.867188 79.894531 84.59375 79.894531 C 84.316406 79.894531 84.09375 80.117188 84.09375 80.394531 C 84.09375 80.667969 84.316406 80.890625 84.59375 80.890625 C 84.867188 80.890625 85.089844 80.667969 85.089844 80.394531 Z M 85.089844 80.394531 "/>
<g clip-path="url(#clip-0)">
<path fill-rule="nonzero" fill="rgb(79.998779%, 79.998779%, 79.998779%)" fill-opacity="1" d="M 74.074219 105.476562 C 74.074219 101.585938 70.917969 98.433594 67.027344 98.433594 C 63.136719 98.433594 59.984375 101.585938 59.984375 105.476562 C 59.984375 109.367188 63.136719 112.523438 67.027344 112.523438 C 70.917969 112.523438 74.074219 109.367188 74.074219 105.476562 Z M 74.074219 105.476562 "/>
</g>
<g clip-path="url(#clip-1)">
<path fill="none" stroke-width="0.3985" stroke-linecap="butt" stroke-linejoin="miter" stroke="rgb(0%, 0%, 0%)" stroke-opacity="1" stroke-miterlimit="10" d="M 7.046219 0.0014375 C 7.046219 3.892062 3.889969 7.044406 -0.00065625 7.044406 C -3.891281 7.044406 -7.043625 3.892062 -7.043625 0.0014375 C -7.043625 -3.889188 -3.891281 -7.045438 -0.00065625 -7.045438 C 3.889969 -7.045438 7.046219 -3.889188 7.046219 0.0014375 Z M 7.046219 0.0014375 " transform="matrix(1, 0, 0, -1, 67.028, 105.478)"/>
</g>
<g clip-path="url(#clip-2)">
<path fill-rule="nonzero" fill="rgb(79.998779%, 79.998779%, 79.998779%)" fill-opacity="1" d="M 109.203125 105.476562 C 109.203125 101.585938 106.046875 98.433594 102.15625 98.433594 C 98.265625 98.433594 95.109375 101.585938 95.109375 105.476562 C 95.109375 109.367188 98.265625 112.523438 102.15625 112.523438 C 106.046875 112.523438 109.203125 109.367188 109.203125 105.476562 Z M 109.203125 105.476562 "/>
</g>
<g clip-path="url(#clip-3)">
<path fill="none" stroke-width="0.3985" stroke-linecap="butt" stroke-linejoin="miter" stroke="rgb(0%, 0%, 0%)" stroke-opacity="1" stroke-miterlimit="10" d="M 7.047125 0.0014375 C 7.047125 3.892062 3.890875 7.044406 0.00025 7.044406 C -3.890375 7.044406 -7.046625 3.892062 -7.046625 0.0014375 C -7.046625 -3.889188 -3.890375 -7.045438 0.00025 -7.045438 C 3.890875 -7.045438 7.047125 -3.889188 7.047125 0.0014375 Z M 7.047125 0.0014375 " transform="matrix(1, 0, 0, -1, 102.156, 105.478)"/>
</g>
<path fill="none" stroke-width="0.3985" stroke-linecap="butt" stroke-linejoin="miter" stroke="rgb(0%, 0%, 0%)" stroke-opacity="1" stroke-miterlimit="10" d="M -1.729125 -2.471063 L -15.033812 -21.471063 " transform="matrix(1, 0, 0, -1, 30.276, 2.818)"/>
<path fill="none" stroke-width="0.3985" stroke-linecap="butt" stroke-linejoin="miter" stroke="rgb(0%, 0%, 0%)" stroke-opacity="1" stroke-miterlimit="10" d="M 1.731813 -2.471063 L 18.790406 -26.834344 " transform="matrix(1, 0, 0, -1, 30.276, 2.818)"/>
<path fill="none" stroke-width="0.3985" stroke-linecap="butt" stroke-linejoin="miter" stroke="rgb(0%, 0%, 0%)" stroke-opacity="1" stroke-miterlimit="10" d="M 18.790406 -27.974969 L 5.778688 -46.557 " transform="matrix(1, 0, 0, -1, 30.276, 2.818)"/>
<path fill="none" stroke-width="0.3985" stroke-linecap="butt" stroke-linejoin="miter" stroke="rgb(0%, 0%, 0%)" stroke-opacity="1" stroke-miterlimit="10" d="M 19.587281 -27.974969 L 36.352906 -51.920281 " transform="matrix(1, 0, 0, -1, 30.276, 2.818)"/>
<path fill="none" stroke-width="0.3985" stroke-linecap="butt" stroke-linejoin="miter" stroke="rgb(0%, 0%, 0%)" stroke-opacity="1" stroke-miterlimit="10" d="M 36.352906 -53.060906 L 23.345094 -71.642938 " transform="matrix(1, 0, 0, -1, 30.276, 2.818)"/>
<path fill="none" stroke-width="0.3985" stroke-linecap="butt" stroke-linejoin="miter" stroke="rgb(0%, 0%, 0%)" stroke-opacity="1" stroke-miterlimit="10" d="M 37.153688 -53.060906 L 53.915406 -77.006219 " transform="matrix(1, 0, 0, -1, 30.276, 2.818)"/>
<path fill="none" stroke-width="0.3985" stroke-linecap="butt" stroke-linejoin="miter" stroke="rgb(0%, 0%, 0%)" stroke-opacity="1" stroke-miterlimit="10" d="M 53.915406 -78.146844 L 40.907594 -96.728875 " transform="matrix(1, 0, 0, -1, 30.276, 2.818)"/>
<path fill="none" stroke-width="0.3985" stroke-linecap="butt" stroke-linejoin="miter" stroke="rgb(0%, 0%, 0%)" stroke-opacity="1" stroke-miterlimit="10" d="M 54.716188 -78.146844 L 67.727906 -96.728875 " transform="matrix(1, 0, 0, -1, 30.276, 2.818)"/>
</svg>
