<?xml version="1.0" encoding="UTF-8"?>
<svg xmlns="http://www.w3.org/2000/svg" xmlns:xlink="http://www.w3.org/1999/xlink" width="138.657" height="105.786" viewBox="0 0 138.657 105.786">
<defs>
<clipPath id="clip-0">
<path clip-rule="nonzero" d="M 21 91 L 36 91 L 36 105.785156 L 21 105.785156 Z M 21 91 "/>
</clipPath>
<clipPath id="clip-1">
<path clip-rule="nonzero" d="M 15 85 L 42 85 L 42 105.785156 L 15 105.785156 Z M 15 85 "/>
</clipPath>
<clipPath id="clip-2">
<path clip-rule="nonzero" d="M 56 91 L 71 91 L 71 105.785156 L 56 105.785156 Z M 56 91 "/>
</clipPath>
<clipPath id="clip-3">
<path clip-rule="nonzero" d="M 51 85 L 77 85 L 77 105.785156 L 51 105.785156 Z M 51 85 "/>
</clipPath>
<clipPath id="clip-4">
<path clip-rule="nonzero" d="M 85 91 L 100 91 L 100 105.785156 L 85 105.785156 Z M 85 91 "/>
</clipPath>
<clipPath id="clip-5">
<path clip-rule="nonzero" d="M 79 85 L 106 85 L 106 105.785156 L 79 105.785156 Z M 79 85 "/>
</clipPath>
<clipPath id="clip-6">
<path clip-rule="nonzero" d="M 120 91 L 135 91 L 135 105.785156 L 120 105.785156 Z M 120 91 "/>
</clipPath>
<clipPath id="clip-7">
<path clip-rule="nonzero" d="M 114 85 L 138.65625 85 L 138.65625 105.785156 L 114 105.785156 Z M 114 85 "/>
</clipPath>
</defs>
<path fill-rule="nonzero" fill="rgb(0%, 0%, 0%)" fill-opacity="1" d="M 63.363281 2.816406 C 63.363281 1.261719 62.101562 0 60.546875 0 C 58.992188 0 57.730469 1.261719 57.730469 2.816406 C 57.730469 4.375 58.992188 5.636719 60.546875 5.636719 C 62.101562 5.636719 63.363281 4.375 63.363281 2.816406 Z M 63.363281 2.816406 "/>
<path fill-rule="nonzero" fill="rgb(0%, 0%, 0%)" fill-opacity="1" d="M 29.148438 48.371094 C 29.148438 48.097656 28.925781 47.871094 28.652344 47.871094 C 28.375 47.871094 28.152344 48.097656 28.152344 48.371094 C 28.152344 48.644531 28.375 48.867188 28.652344 48.867188 C 28.925781 48.867188 29.148438 48.644531 29.148438 48.371094 Z M 29.148438 48.371094 "/>
<path fill-rule="nonzero" fill="rgb(79.998779%, 79.998779%, 79.998779%)" fill-opacity="1" stroke-width="0.3985" stroke-linecap="butt" stroke-linejoin="miter" stroke="rgb(0%, 0%, 0%)" stroke-opacity="1" stroke-miterlimit="10" d="M 7.045813 -0.00103125 C 7.045813 3.889594 3.889563 7.045844 -0.0010625 7.045844 C -3.891687 7.045844 -7.044031 3.889594 -7.044031 -0.00103125 C -7.044031 -3.891656 -3.891687 -7.044 -0.0010625 -7.044 C 3.889563 -7.044 7.045813 -3.891656 7.045813 -0.00103125 Z M 7.045813 -0.00103125 " transform="matrix(1, 0, 0, -1, 11.087, 73.456)"/>
<path fill-rule="nonzero" fill="rgb(0%, 0%, 0%)" fill-opacity="1" d="M 46.714844 73.457031 C 46.714844 73.179688 46.488281 72.957031 46.214844 72.957031 C 45.941406 72.957031 45.71875 73.179688 45.71875 73.457031 C 45.71875 73.730469 45.941406 73.953125 46.214844 73.953125 C 46.488281 73.953125 46.714844 73.730469 46.714844 73.457031 Z M 46.714844 73.457031 "/>
<g clip-path="url(#clip-0)">
<path fill-rule="nonzero" fill="rgb(79.998779%, 79.998779%, 79.998779%)" fill-opacity="1" d="M 35.695312 98.539062 C 35.695312 94.648438 32.542969 91.496094 28.652344 91.496094 C 24.761719 91.496094 21.605469 94.648438 21.605469 98.539062 C 21.605469 102.433594 24.761719 105.585938 28.652344 105.585938 C 32.542969 105.585938 35.695312 102.433594 35.695312 98.539062 Z M 35.695312 98.539062 "/>
</g>
<g clip-path="url(#clip-1)">
<path fill="none" stroke-width="0.3985" stroke-linecap="butt" stroke-linejoin="miter" stroke="rgb(0%, 0%, 0%)" stroke-opacity="1" stroke-miterlimit="10" d="M 7.044313 0.0019375 C 7.044313 3.892562 3.891969 7.044906 0.00134375 7.044906 C -3.889281 7.044906 -7.045531 3.892562 -7.045531 0.0019375 C -7.045531 -3.892594 -3.889281 -7.044938 0.00134375 -7.044938 C 3.891969 -7.044938 7.044313 -3.892594 7.044313 0.0019375 Z M 7.044313 0.0019375 " transform="matrix(1, 0, 0, -1, 28.651, 98.541)"/>
</g>
<g clip-path="url(#clip-2)">
<path fill-rule="nonzero" fill="rgb(79.998779%, 79.998779%, 79.998779%)" fill-opacity="1" d="M 70.824219 98.539062 C 70.824219 94.648438 67.671875 91.496094 63.777344 91.496094 C 59.886719 91.496094 56.734375 94.648438 56.734375 98.539062 C 56.734375 102.433594 59.886719 105.585938 63.777344 105.585938 C 67.671875 105.585938 70.824219 102.433594 70.824219 98.539062 Z M 70.824219 98.539062 "/>
</g>
<g clip-path="url(#clip-3)">
<path fill="none" stroke-width="0.3985" stroke-linecap="butt" stroke-linejoin="miter" stroke="rgb(0%, 0%, 0%)" stroke-opacity="1" stroke-miterlimit="10" d="M 7.045219 0.0019375 C 7.045219 3.892562 3.892875 7.044906 -0.00165625 7.044906 C -3.892281 7.044906 -7.044625 3.892562 -7.044625 0.0019375 C -7.044625 -3.892594 -3.892281 -7.044938 -0.00165625 -7.044938 C 3.892875 -7.044938 7.045219 -3.892594 7.045219 0.0019375 Z M 7.045219 0.0019375 " transform="matrix(1, 0, 0, -1, 63.779, 98.541)"/>
</g>
<path fill-rule="nonzero" fill="rgb(0%, 0%, 0%)" fill-opacity="1" d="M 92.941406 48.371094 C 92.941406 48.097656 92.71875 47.871094 92.441406 47.871094 C 92.167969 47.871094 91.945312 48.097656 91.945312 48.371094 C 91.945312 48.644531 92.167969 48.867188 92.441406 48.867188 C 92.71875 48.867188 92.941406 48.644531 92.941406 48.371094 Z M 92.941406 48.371094 "/>
<path fill-rule="nonzero" fill="rgb(79.998779%, 79.998779%, 79.998779%)" fill-opacity="1" stroke-width="0.3985" stroke-linecap="butt" stroke-linejoin="miter" stroke="rgb(0%, 0%, 0%)" stroke-opacity="1" stroke-miterlimit="10" d="M 7.043875 -0.00103125 C 7.043875 3.889594 3.891531 7.045844 0.00090625 7.045844 C -3.889719 7.045844 -7.045969 3.889594 -7.045969 -0.00103125 C -7.045969 -3.891656 -3.889719 -7.044 0.00090625 -7.044 C 3.891531 -7.044 7.043875 -3.891656 7.043875 -0.00103125 Z M 7.043875 -0.00103125 " transform="matrix(1, 0, 0, -1, 74.878, 73.456)"/>
<path fill-rule="nonzero" fill="rgb(0%, 0%, 0%)" fill-opacity="1" d="M 110.503906 73.457031 C 110.503906 73.179688 110.28125 72.957031 110.007812 72.957031 C 109.730469 72.957031 109.507812 73.179688 109.507812 73.457031 C 109.507812 73.730469 109.730469 73.953125 110.007812 73.953125 C 110.28125 73.953125 110.503906 73.730469 110.503906 73.457031 Z M 110.503906 73.457031 "/>
<g clip-path="url(#clip-4)">
<path fill-rule="nonzero" fill="rgb(79.998779%, 79.998779%, 79.998779%)" fill-opacity="1" d="M 99.488281 98.539062 C 99.488281 94.648438 96.332031 91.496094 92.441406 91.496094 C 88.550781 91.496094 85.398438 94.648438 85.398438 98.539062 C 85.398438 102.433594 88.550781 105.585938 92.441406 105.585938 C 96.332031 105.585938 99.488281 102.433594 99.488281 98.539062 Z M 99.488281 98.539062 "/>
</g>
<g clip-path="url(#clip-5)">
<path fill="none" stroke-width="0.3985" stroke-linecap="butt" stroke-linejoin="miter" stroke="rgb(0%, 0%, 0%)" stroke-opacity="1" stroke-miterlimit="10" d="M 7.046281 0.0019375 C 7.046281 3.892562 3.890031 7.044906 -0.00059375 7.044906 C -3.891219 7.044906 -7.043562 3.892562 -7.043562 0.0019375 C -7.043562 -3.892594 -3.891219 -7.044938 -0.00059375 -7.044938 C 3.890031 -7.044938 7.046281 -3.892594 7.046281 0.0019375 Z M 7.046281 0.0019375 " transform="matrix(1, 0, 0, -1, 92.442, 98.541)"/>
</g>
<g clip-path="url(#clip-6)">
<path fill-rule="nonzero" fill="rgb(79.998779%, 79.998779%, 79.998779%)" fill-opacity="1" d="M 134.617188 98.539062 C 134.617188 94.648438 131.460938 91.496094 127.570312 91.496094 C 123.679688 91.496094 120.523438 94.648438 120.523438 98.539062 C 120.523438 102.433594 123.679688 105.585938 127.570312 105.585938 C 131.460938 105.585938 134.617188 102.433594 134.617188 98.539062 Z M 134.617188 98.539062 "/>
</g>
<g clip-path="url(#clip-7)">
<path fill="none" stroke-width="0.3985" stroke-linecap="butt" stroke-linejoin="miter" stroke="rgb(0%, 0%, 0%)" stroke-opacity="1" stroke-miterlimit="10" d="M 7.047188 0.0019375 C 7.047188 3.892562 3.890938 7.044906 0.0003125 7.044906 C -3.890312 7.044906 -7.046562 3.892562 -7.046562 0.0019375 C -7.046562 -3.892594 -3.890312 -7.044938 0.0003125 -7.044938 C 3.890938 -7.044938 7.047188 -3.892594 7.047188 0.0019375 Z M 7.047188 0.0019375 " transform="matrix(1, 0, 0, -1, 127.57, 98.541)"/>
</g>
<path fill="none" stroke-width="0.3985" stroke-linecap="butt" stroke-linejoin="miter" stroke="rgb(0%, 0%, 0%)" stroke-opacity="1" stroke-miterlimit="10" d="M -1.730594 -2.471063 L -31.496219 -44.982781 " transform="matrix(1, 0, 0, -1, 60.547, 2.818)"/>
<path fill="none" stroke-width="0.3985" stroke-linecap="butt" stroke-linejoin="miter" stroke="rgb(0%, 0%, 0%)" stroke-opacity="1" stroke-miterlimit="10" d="M -32.297 -46.123406 L -45.304812 -64.705438 " transform="matrix(1, 0, 0, -1, 60.547, 2.818)"/>
<path fill="none" stroke-width="0.3985" stroke-linecap="butt" stroke-linejoin="miter" stroke="rgb(0%, 0%, 0%)" stroke-opacity="1" stroke-miterlimit="10" d="M -31.496219 -46.123406 L -14.730594 -70.068719 " transform="matrix(1, 0, 0, -1, 60.547, 2.818)"/>
<path fill="none" stroke-width="0.3985" stroke-linecap="butt" stroke-linejoin="miter" stroke="rgb(0%, 0%, 0%)" stroke-opacity="1" stroke-miterlimit="10" d="M -14.730594 -71.209344 L -27.742312 -89.791375 " transform="matrix(1, 0, 0, -1, 60.547, 2.818)"/>
<path fill="none" stroke-width="0.3985" stroke-linecap="butt" stroke-linejoin="miter" stroke="rgb(0%, 0%, 0%)" stroke-opacity="1" stroke-miterlimit="10" d="M -13.929812 -71.209344 L -0.922 -89.791375 " transform="matrix(1, 0, 0, -1, 60.547, 2.818)"/>
<path fill="none" stroke-width="0.3985" stroke-linecap="butt" stroke-linejoin="miter" stroke="rgb(0%, 0%, 0%)" stroke-opacity="1" stroke-miterlimit="10" d="M 1.730344 -2.471063 L 31.495969 -44.982781 " transform="matrix(1, 0, 0, -1, 60.547, 2.818)"/>
<path fill="none" stroke-width="0.3985" stroke-linecap="butt" stroke-linejoin="miter" stroke="rgb(0%, 0%, 0%)" stroke-opacity="1" stroke-miterlimit="10" d="M 31.495969 -46.123406 L 18.488156 -64.705438 " transform="matrix(1, 0, 0, -1, 60.547, 2.818)"/>
<path fill="none" stroke-width="0.3985" stroke-linecap="butt" stroke-linejoin="miter" stroke="rgb(0%, 0%, 0%)" stroke-opacity="1" stroke-miterlimit="10" d="M 32.29675 -46.123406 L 49.058469 -70.068719 " transform="matrix(1, 0, 0, -1, 60.547, 2.818)"/>
<path fill="none" stroke-width="0.3985" stroke-linecap="butt" stroke-linejoin="miter" stroke="rgb(0%, 0%, 0%)" stroke-opacity="1" stroke-miterlimit="10" d="M 49.058469 -71.209344 L 36.050656 -89.791375 " transform="matrix(1, 0, 0, -1, 60.547, 2.818)"/>
<path fill="none" stroke-width="0.3985" stroke-linecap="butt" stroke-linejoin="miter" stroke="rgb(0%, 0%, 0%)" stroke-opacity="1" stroke-miterlimit="10" d="M 49.85925 -71.209344 L 62.870969 -89.791375 " transform="matrix(1, 0, 0, -1, 60.547, 2.818)"/>
</svg>
