<?xml version="1.0" encoding="UTF-8"?>
<svg xmlns="http://www.w3.org/2000/svg" xmlns:xlink="http://www.w3.org/1999/xlink" width="150.444" height="151.831" viewBox="0 0 150.444 151.831">
<defs>
<clipPath id="clip-0">
<path clip-rule="nonzero" d="M 56 137 L 71 137 L 71 151.832031 L 56 151.832031 Z M 56 137 "/>
</clipPath>
<clipPath id="clip-1">
<path clip-rule="nonzero" d="M 51 131 L 77 131 L 77 151.832031 L 51 151.832031 Z M 51 131 "/>
</clipPath>
<clipPath id="clip-2">
<path clip-rule="nonzero" d="M 91 137 L 106 137 L 106 151.832031 L 91 151.832031 Z M 91 137 "/>
</clipPath>
<clipPath id="clip-3">
<path clip-rule="nonzero" d="M 86 131 L 112 131 L 112 151.832031 L 86 151.832031 Z M 86 131 "/>
</clipPath>
<clipPath id="clip-4">
<path clip-rule="nonzero" d="M 126 106 L 150.445312 106 L 150.445312 133 L 126 133 Z M 126 106 "/>
</clipPath>
</defs>
<path fill-rule="nonzero" fill="rgb(0%, 0%, 0%)" fill-opacity="1" d="M 60.476562 2.816406 C 60.476562 1.261719 59.214844 0 57.65625 0 C 56.101562 0 54.839844 1.261719 54.839844 2.816406 C 54.839844 4.375 56.101562 5.636719 57.65625 5.636719 C 59.214844 5.636719 60.476562 4.375 60.476562 2.816406 Z M 60.476562 2.816406 "/>
<path fill-rule="nonzero" fill="rgb(0%, 0%, 0%)" fill-opacity="1" d="M 29.148438 44.246094 C 29.148438 43.972656 28.925781 43.746094 28.652344 43.746094 C 28.375 43.746094 28.152344 43.972656 28.152344 44.246094 C 28.152344 44.519531 28.375 44.742188 28.652344 44.742188 C 28.925781 44.742188 29.148438 44.519531 29.148438 44.246094 Z M 29.148438 44.246094 "/>
<path fill-rule="nonzero" fill="rgb(79.998779%, 79.998779%, 79.998779%)" fill-opacity="1" stroke-width="0.3985" stroke-linecap="butt" stroke-linejoin="miter" stroke="rgb(0%, 0%, 0%)" stroke-opacity="1" stroke-miterlimit="10" d="M 7.045812 -0.00103125 C 7.045812 3.889594 3.889562 7.045844 -0.0010625 7.045844 C -3.891688 7.045844 -7.044031 3.889594 -7.044031 -0.00103125 C -7.044031 -3.891656 -3.891688 -7.044 -0.0010625 -7.044 C 3.889562 -7.044 7.045812 -3.891656 7.045812 -0.00103125 Z M 7.045812 -0.00103125 " transform="matrix(1, 0, 0, -1, 11.087, 69.331)"/>
<path fill-rule="nonzero" fill="rgb(0%, 0%, 0%)" fill-opacity="1" d="M 46.714844 69.332031 C 46.714844 69.054688 46.488281 68.832031 46.214844 68.832031 C 45.941406 68.832031 45.71875 69.054688 45.71875 69.332031 C 45.71875 69.605469 45.941406 69.828125 46.214844 69.828125 C 46.488281 69.828125 46.714844 69.605469 46.714844 69.332031 Z M 46.714844 69.332031 "/>
<path fill-rule="nonzero" fill="rgb(79.998779%, 79.998779%, 79.998779%)" fill-opacity="1" stroke-width="0.3985" stroke-linecap="butt" stroke-linejoin="miter" stroke="rgb(0%, 0%, 0%)" stroke-opacity="1" stroke-miterlimit="10" d="M 7.044313 0.0019375 C 7.044313 3.892563 3.891969 7.044906 0.00134375 7.044906 C -3.889281 7.044906 -7.045531 3.892563 -7.045531 0.0019375 C -7.045531 -3.892594 -3.889281 -7.044937 0.00134375 -7.044937 C 3.891969 -7.044937 7.044313 -3.892594 7.044313 0.0019375 Z M 7.044313 0.0019375 " transform="matrix(1, 0, 0, -1, 28.651, 94.416)"/>
<path fill-rule="nonzero" fill="rgb(0%, 0%, 0%)" fill-opacity="1" d="M 64.277344 94.414062 C 64.277344 94.140625 64.054688 93.917969 63.777344 93.917969 C 63.503906 93.917969 63.28125 94.140625 63.28125 94.414062 C 63.28125 94.691406 63.503906 94.914062 63.777344 94.914062 C 64.054688 94.914062 64.277344 94.691406 64.277344 94.414062 Z M 64.277344 94.414062 "/>
<path fill-rule="nonzero" fill="rgb(79.998779%, 79.998779%, 79.998779%)" fill-opacity="1" stroke-width="0.3985" stroke-linecap="butt" stroke-linejoin="miter" stroke="rgb(0%, 0%, 0%)" stroke-opacity="1" stroke-miterlimit="10" d="M 7.046719 0.001 C 7.046719 3.891625 3.890469 7.043969 -0.00015625 7.043969 C -3.890781 7.043969 -7.047031 3.891625 -7.047031 0.001 C -7.047031 -3.889625 -3.890781 -7.045875 -0.00015625 -7.045875 C 3.890469 -7.045875 7.046719 -3.889625 7.046719 0.001 Z M 7.046719 0.001 " transform="matrix(1, 0, 0, -1, 46.215, 119.501)"/>
<path fill-rule="nonzero" fill="rgb(0%, 0%, 0%)" fill-opacity="1" d="M 81.839844 119.5 C 81.839844 119.226562 81.617188 119.003906 81.34375 119.003906 C 81.066406 119.003906 80.84375 119.226562 80.84375 119.5 C 80.84375 119.777344 81.066406 120 81.34375 120 C 81.617188 120 81.839844 119.777344 81.839844 119.5 Z M 81.839844 119.5 "/>
<g clip-path="url(#clip-0)">
<path fill-rule="nonzero" fill="rgb(79.998779%, 79.998779%, 79.998779%)" fill-opacity="1" d="M 70.824219 144.585938 C 70.824219 140.695312 67.671875 137.539062 63.777344 137.539062 C 59.886719 137.539062 56.734375 140.695312 56.734375 144.585938 C 56.734375 148.476562 59.886719 151.632812 63.777344 151.632812 C 67.671875 151.632812 70.824219 148.476562 70.824219 144.585938 Z M 70.824219 144.585938 "/>
</g>
<g clip-path="url(#clip-1)">
<path fill="none" stroke-width="0.3985" stroke-linecap="butt" stroke-linejoin="miter" stroke="rgb(0%, 0%, 0%)" stroke-opacity="1" stroke-miterlimit="10" d="M 7.045219 0.0000625 C 7.045219 3.890688 3.892875 7.046938 -0.00165625 7.046938 C -3.892281 7.046938 -7.044625 3.890688 -7.044625 0.0000625 C -7.044625 -3.890562 -3.892281 -7.046812 -0.00165625 -7.046812 C 3.892875 -7.046812 7.045219 -3.890562 7.045219 0.0000625 Z M 7.045219 0.0000625 " transform="matrix(1, 0, 0, -1, 63.779, 144.586)"/>
</g>
<g clip-path="url(#clip-2)">
<path fill-rule="nonzero" fill="rgb(79.998779%, 79.998779%, 79.998779%)" fill-opacity="1" d="M 105.953125 144.585938 C 105.953125 140.695312 102.796875 137.539062 98.90625 137.539062 C 95.015625 137.539062 91.863281 140.695312 91.863281 144.585938 C 91.863281 148.476562 95.015625 151.632812 98.90625 151.632812 C 102.796875 151.632812 105.953125 148.476562 105.953125 144.585938 Z M 105.953125 144.585938 "/>
</g>
<g clip-path="url(#clip-3)">
<path fill="none" stroke-width="0.3985" stroke-linecap="butt" stroke-linejoin="miter" stroke="rgb(0%, 0%, 0%)" stroke-opacity="1" stroke-miterlimit="10" d="M 7.046125 0.0000625 C 7.046125 3.890688 3.889875 7.046938 -0.00075 7.046938 C -3.891375 7.046938 -7.043719 3.890688 -7.043719 0.0000625 C -7.043719 -3.890562 -3.891375 -7.046812 -0.00075 -7.046812 C 3.889875 -7.046812 7.046125 -3.890562 7.046125 0.0000625 Z M 7.046125 0.0000625 " transform="matrix(1, 0, 0, -1, 98.907, 144.586)"/>
</g>
<path fill-rule="nonzero" fill="rgb(0%, 0%, 0%)" fill-opacity="1" d="M 87.164062 44.246094 C 87.164062 43.972656 86.941406 43.746094 86.664062 43.746094 C 86.390625 43.746094 86.167969 43.972656 86.167969 44.246094 C 86.167969 44.519531 86.390625 44.742188 86.664062 44.742188 C 86.941406 44.742188 87.164062 44.519531 87.164062 44.246094 Z M 87.164062 44.246094 "/>
<path fill-rule="nonzero" fill="rgb(79.998779%, 79.998779%, 79.998779%)" fill-opacity="1" stroke-width="0.3985" stroke-linecap="butt" stroke-linejoin="miter" stroke="rgb(0%, 0%, 0%)" stroke-opacity="1" stroke-miterlimit="10" d="M 7.043531 -0.00103125 C 7.043531 3.889594 3.891188 7.045844 0.0005625 7.045844 C -3.890062 7.045844 -7.046312 3.889594 -7.046312 -0.00103125 C -7.046312 -3.891656 -3.890062 -7.044 0.0005625 -7.044 C 3.891188 -7.044 7.043531 -3.891656 7.043531 -0.00103125 Z M 7.043531 -0.00103125 " transform="matrix(1, 0, 0, -1, 69.101, 69.331)"/>
<path fill-rule="nonzero" fill="rgb(0%, 0%, 0%)" fill-opacity="1" d="M 104.726562 69.332031 C 104.726562 69.054688 104.503906 68.832031 104.230469 68.832031 C 103.953125 68.832031 103.730469 69.054688 103.730469 69.332031 C 103.730469 69.605469 103.953125 69.828125 104.230469 69.828125 C 104.503906 69.828125 104.726562 69.605469 104.726562 69.332031 Z M 104.726562 69.332031 "/>
<path fill-rule="nonzero" fill="rgb(79.998779%, 79.998779%, 79.998779%)" fill-opacity="1" stroke-width="0.3985" stroke-linecap="butt" stroke-linejoin="miter" stroke="rgb(0%, 0%, 0%)" stroke-opacity="1" stroke-miterlimit="10" d="M 7.045937 0.0019375 C 7.045937 3.892563 3.889687 7.044906 -0.0009375 7.044906 C -3.891563 7.044906 -7.043906 3.892563 -7.043906 0.0019375 C -7.043906 -3.892594 -3.891563 -7.044937 -0.0009375 -7.044937 C 3.889687 -7.044937 7.045937 -3.892594 7.045937 0.0019375 Z M 7.045937 0.0019375 " transform="matrix(1, 0, 0, -1, 86.665, 94.416)"/>
<path fill-rule="nonzero" fill="rgb(0%, 0%, 0%)" fill-opacity="1" d="M 122.292969 94.414062 C 122.292969 94.140625 122.066406 93.917969 121.792969 93.917969 C 121.519531 93.917969 121.292969 94.140625 121.292969 94.414062 C 121.292969 94.691406 121.519531 94.914062 121.792969 94.914062 C 122.066406 94.914062 122.292969 94.691406 122.292969 94.414062 Z M 122.292969 94.414062 "/>
<path fill-rule="nonzero" fill="rgb(79.998779%, 79.998779%, 79.998779%)" fill-opacity="1" stroke-width="0.3985" stroke-linecap="butt" stroke-linejoin="miter" stroke="rgb(0%, 0%, 0%)" stroke-opacity="1" stroke-miterlimit="10" d="M 7.044438 0.001 C 7.044438 3.891625 3.892094 7.043969 0.00146875 7.043969 C -3.893062 7.043969 -7.045406 3.891625 -7.045406 0.001 C -7.045406 -3.889625 -3.893062 -7.045875 0.00146875 -7.045875 C 3.892094 -7.045875 7.044438 -3.889625 7.044438 0.001 Z M 7.044438 0.001 " transform="matrix(1, 0, 0, -1, 104.229, 119.501)"/>
<path fill-rule="nonzero" fill="rgb(79.998779%, 79.998779%, 79.998779%)" fill-opacity="1" d="M 146.402344 119.5 C 146.402344 115.609375 143.25 112.457031 139.355469 112.457031 C 135.464844 112.457031 132.3125 115.609375 132.3125 119.5 C 132.3125 123.390625 135.464844 126.546875 139.355469 126.546875 C 143.25 126.546875 146.402344 123.390625 146.402344 119.5 Z M 146.402344 119.5 "/>
<g clip-path="url(#clip-4)">
<path fill="none" stroke-width="0.3985" stroke-linecap="butt" stroke-linejoin="miter" stroke="rgb(0%, 0%, 0%)" stroke-opacity="1" stroke-miterlimit="10" d="M 7.045344 0.001 C 7.045344 3.891625 3.893 7.043969 -0.00153125 7.043969 C -3.892156 7.043969 -7.0445 3.891625 -7.0445 0.001 C -7.0445 -3.889625 -3.892156 -7.045875 -0.00153125 -7.045875 C 3.893 -7.045875 7.045344 -3.889625 7.045344 0.001 Z M 7.045344 0.001 " transform="matrix(1, 0, 0, -1, 139.357, 119.501)"/>
</g>
<path fill="none" stroke-width="0.3985" stroke-linecap="butt" stroke-linejoin="miter" stroke="rgb(0%, 0%, 0%)" stroke-opacity="1" stroke-miterlimit="10" d="M -1.732219 -2.471062 L -28.607219 -40.857781 " transform="matrix(1, 0, 0, -1, 57.658, 2.818)"/>
<path fill="none" stroke-width="0.3985" stroke-linecap="butt" stroke-linejoin="miter" stroke="rgb(0%, 0%, 0%)" stroke-opacity="1" stroke-miterlimit="10" d="M -29.408 -41.998406 L -42.415813 -60.580437 " transform="matrix(1, 0, 0, -1, 57.658, 2.818)"/>
<path fill="none" stroke-width="0.3985" stroke-linecap="butt" stroke-linejoin="miter" stroke="rgb(0%, 0%, 0%)" stroke-opacity="1" stroke-miterlimit="10" d="M -28.607219 -41.998406 L -11.841594 -65.943719 " transform="matrix(1, 0, 0, -1, 57.658, 2.818)"/>
<path fill="none" stroke-width="0.3985" stroke-linecap="butt" stroke-linejoin="miter" stroke="rgb(0%, 0%, 0%)" stroke-opacity="1" stroke-miterlimit="10" d="M -11.841594 -67.084344 L -24.853313 -85.666375 " transform="matrix(1, 0, 0, -1, 57.658, 2.818)"/>
<path fill="none" stroke-width="0.3985" stroke-linecap="butt" stroke-linejoin="miter" stroke="rgb(0%, 0%, 0%)" stroke-opacity="1" stroke-miterlimit="10" d="M -11.044719 -67.084344 L 5.720906 -91.029656 " transform="matrix(1, 0, 0, -1, 57.658, 2.818)"/>
<path fill="none" stroke-width="0.3985" stroke-linecap="butt" stroke-linejoin="miter" stroke="rgb(0%, 0%, 0%)" stroke-opacity="1" stroke-miterlimit="10" d="M 5.720906 -92.170281 L -7.286906 -110.748406 " transform="matrix(1, 0, 0, -1, 57.658, 2.818)"/>
<path fill="none" stroke-width="0.3985" stroke-linecap="butt" stroke-linejoin="miter" stroke="rgb(0%, 0%, 0%)" stroke-opacity="1" stroke-miterlimit="10" d="M 6.521687 -92.170281 L 23.287312 -116.111687 " transform="matrix(1, 0, 0, -1, 57.658, 2.818)"/>
<path fill="none" stroke-width="0.3985" stroke-linecap="butt" stroke-linejoin="miter" stroke="rgb(0%, 0%, 0%)" stroke-opacity="1" stroke-miterlimit="10" d="M 23.287312 -117.256219 L 10.275594 -135.834344 " transform="matrix(1, 0, 0, -1, 57.658, 2.818)"/>
<path fill="none" stroke-width="0.3985" stroke-linecap="butt" stroke-linejoin="miter" stroke="rgb(0%, 0%, 0%)" stroke-opacity="1" stroke-miterlimit="10" d="M 24.084187 -117.256219 L 37.095906 -135.834344 " transform="matrix(1, 0, 0, -1, 57.658, 2.818)"/>
<path fill="none" stroke-width="0.3985" stroke-linecap="butt" stroke-linejoin="miter" stroke="rgb(0%, 0%, 0%)" stroke-opacity="1" stroke-miterlimit="10" d="M 1.728719 -2.471062 L 28.607625 -40.857781 " transform="matrix(1, 0, 0, -1, 57.658, 2.818)"/>
<path fill="none" stroke-width="0.3985" stroke-linecap="butt" stroke-linejoin="miter" stroke="rgb(0%, 0%, 0%)" stroke-opacity="1" stroke-miterlimit="10" d="M 28.607625 -41.998406 L 15.599812 -60.580437 " transform="matrix(1, 0, 0, -1, 57.658, 2.818)"/>
<path fill="none" stroke-width="0.3985" stroke-linecap="butt" stroke-linejoin="miter" stroke="rgb(0%, 0%, 0%)" stroke-opacity="1" stroke-miterlimit="10" d="M 29.408406 -41.998406 L 46.170125 -65.943719 " transform="matrix(1, 0, 0, -1, 57.658, 2.818)"/>
<path fill="none" stroke-width="0.3985" stroke-linecap="butt" stroke-linejoin="miter" stroke="rgb(0%, 0%, 0%)" stroke-opacity="1" stroke-miterlimit="10" d="M 46.170125 -67.084344 L 33.162312 -85.666375 " transform="matrix(1, 0, 0, -1, 57.658, 2.818)"/>
<path fill="none" stroke-width="0.3985" stroke-linecap="butt" stroke-linejoin="miter" stroke="rgb(0%, 0%, 0%)" stroke-opacity="1" stroke-miterlimit="10" d="M 46.970906 -67.084344 L 63.736531 -91.029656 " transform="matrix(1, 0, 0, -1, 57.658, 2.818)"/>
<path fill="none" stroke-width="0.3985" stroke-linecap="butt" stroke-linejoin="miter" stroke="rgb(0%, 0%, 0%)" stroke-opacity="1" stroke-miterlimit="10" d="M 63.736531 -92.170281 L 50.724812 -110.748406 " transform="matrix(1, 0, 0, -1, 57.658, 2.818)"/>
<path fill="none" stroke-width="0.3985" stroke-linecap="butt" stroke-linejoin="miter" stroke="rgb(0%, 0%, 0%)" stroke-opacity="1" stroke-miterlimit="10" d="M 64.537312 -92.170281 L 77.545125 -110.748406 " transform="matrix(1, 0, 0, -1, 57.658, 2.818)"/>
</svg>
