<?xml version="1.0" encoding="UTF-8"?>
<svg xmlns="http://www.w3.org/2000/svg" xmlns:xlink="http://www.w3.org/1999/xlink" width="156.221" height="172.298" viewBox="0 0 156.221 172.298">
<defs>
<clipPath id="clip-0">
<path clip-rule="nonzero" d="M 102 158 L 118 158 L 118 172.296875 L 102 172.296875 Z M 102 158 "/>
</clipPath>
<clipPath id="clip-1">
<path clip-rule="nonzero" d="M 97 152 L 123 152 L 123 172.296875 L 97 172.296875 Z M 97 152 "/>
</clipPath>
<clipPath id="clip-2">
<path clip-rule="nonzero" d="M 138 158 L 153 158 L 153 172.296875 L 138 172.296875 Z M 138 158 "/>
</clipPath>
<clipPath id="clip-3">
<path clip-rule="nonzero" d="M 132 152 L 156.222656 152 L 156.222656 172.296875 L 132 172.296875 Z M 132 152 "/>
</clipPath>
</defs>
<path fill-rule="nonzero" fill="rgb(0%, 0%, 0%)" fill-opacity="1" d="M 92.371094 2.816406 C 92.371094 1.261719 91.109375 0 89.554688 0 C 87.996094 0 86.734375 1.261719 86.734375 2.816406 C 86.734375 4.375 87.996094 5.636719 89.554688 5.636719 C 91.109375 5.636719 92.371094 4.375 92.371094 2.816406 Z M 92.371094 2.816406 "/>
<path fill-rule="nonzero" fill="rgb(0%, 0%, 0%)" fill-opacity="1" d="M 61.046875 44.246094 C 61.046875 43.96875 60.820312 43.746094 60.546875 43.746094 C 60.273438 43.746094 60.050781 43.96875 60.050781 44.246094 C 60.050781 44.519531 60.273438 44.742188 60.546875 44.742188 C 60.820312 44.742188 61.046875 44.519531 61.046875 44.246094 Z M 61.046875 44.246094 "/>
<path fill-rule="nonzero" fill="rgb(0%, 0%, 0%)" fill-opacity="1" d="M 29.148438 89.796875 C 29.148438 89.523438 28.925781 89.300781 28.652344 89.300781 C 28.375 89.300781 28.152344 89.523438 28.152344 89.796875 C 28.152344 90.074219 28.375 90.296875 28.652344 90.296875 C 28.925781 90.296875 29.148438 90.074219 29.148438 89.796875 Z M 29.148438 89.796875 "/>
<path fill-rule="nonzero" fill="rgb(79.998779%, 79.998779%, 79.998779%)" fill-opacity="1" stroke-width="0.3985" stroke-linecap="butt" stroke-linejoin="miter" stroke="rgb(0%, 0%, 0%)" stroke-opacity="1" stroke-miterlimit="10" d="M 7.045813 0.0001875 C 7.045813 3.890812 3.889563 7.047062 -0.0010625 7.047062 C -3.891687 7.047062 -7.044031 3.890812 -7.044031 0.0001875 C -7.044031 -3.890438 -3.891687 -7.046688 -0.0010625 -7.046688 C 3.889563 -7.046688 7.045813 -3.890438 7.045813 0.0001875 Z M 7.045813 0.0001875 " transform="matrix(1, 0, 0, -1, 11.087, 114.883)"/>
<path fill-rule="nonzero" fill="rgb(79.998779%, 79.998779%, 79.998779%)" fill-opacity="1" stroke-width="0.3985" stroke-linecap="butt" stroke-linejoin="miter" stroke="rgb(0%, 0%, 0%)" stroke-opacity="1" stroke-miterlimit="10" d="M 7.046719 0.0001875 C 7.046719 3.890812 3.890469 7.047062 -0.00015625 7.047062 C -3.890781 7.047062 -7.047031 3.890812 -7.047031 0.0001875 C -7.047031 -3.890438 -3.890781 -7.046688 -0.00015625 -7.046688 C 3.890469 -7.046688 7.046719 -3.890438 7.046719 0.0001875 Z M 7.046719 0.0001875 " transform="matrix(1, 0, 0, -1, 46.215, 114.883)"/>
<path fill-rule="nonzero" fill="rgb(0%, 0%, 0%)" fill-opacity="1" d="M 92.941406 89.796875 C 92.941406 89.523438 92.71875 89.300781 92.441406 89.300781 C 92.167969 89.300781 91.945312 89.523438 91.945312 89.796875 C 91.945312 90.074219 92.167969 90.296875 92.441406 90.296875 C 92.71875 90.296875 92.941406 90.074219 92.941406 89.796875 Z M 92.941406 89.796875 "/>
<path fill-rule="nonzero" fill="rgb(79.998779%, 79.998779%, 79.998779%)" fill-opacity="1" stroke-width="0.3985" stroke-linecap="butt" stroke-linejoin="miter" stroke="rgb(0%, 0%, 0%)" stroke-opacity="1" stroke-miterlimit="10" d="M 7.043875 0.0001875 C 7.043875 3.890812 3.891531 7.047062 0.00090625 7.047062 C -3.889719 7.047062 -7.045969 3.890812 -7.045969 0.0001875 C -7.045969 -3.890438 -3.889719 -7.046688 0.00090625 -7.046688 C 3.891531 -7.046688 7.043875 -3.890438 7.043875 0.0001875 Z M 7.043875 0.0001875 " transform="matrix(1, 0, 0, -1, 74.878, 114.883)"/>
<path fill-rule="nonzero" fill="rgb(0%, 0%, 0%)" fill-opacity="1" d="M 110.503906 114.882812 C 110.503906 114.609375 110.28125 114.386719 110.007812 114.386719 C 109.730469 114.386719 109.507812 114.609375 109.507812 114.882812 C 109.507812 115.15625 109.730469 115.382812 110.007812 115.382812 C 110.28125 115.382812 110.503906 115.15625 110.503906 114.882812 Z M 110.503906 114.882812 "/>
<path fill-rule="nonzero" fill="rgb(79.998779%, 79.998779%, 79.998779%)" fill-opacity="1" stroke-width="0.3985" stroke-linecap="butt" stroke-linejoin="miter" stroke="rgb(0%, 0%, 0%)" stroke-opacity="1" stroke-miterlimit="10" d="M 7.046281 -0.00075 C 7.046281 3.889875 3.890031 7.046125 -0.00059375 7.046125 C -3.891219 7.046125 -7.043562 3.889875 -7.043562 -0.00075 C -7.043562 -3.891375 -3.891219 -7.043719 -0.00059375 -7.043719 C 3.890031 -7.043719 7.046281 -3.891375 7.046281 -0.00075 Z M 7.046281 -0.00075 " transform="matrix(1, 0, 0, -1, 92.442, 139.968)"/>
<path fill-rule="nonzero" fill="rgb(0%, 0%, 0%)" fill-opacity="1" d="M 128.066406 139.96875 C 128.066406 139.691406 127.84375 139.46875 127.570312 139.46875 C 127.292969 139.46875 127.070312 139.691406 127.070312 139.96875 C 127.070312 140.242188 127.292969 140.464844 127.570312 140.464844 C 127.84375 140.464844 128.066406 140.242188 128.066406 139.96875 Z M 128.066406 139.96875 "/>
<g clip-path="url(#clip-0)">
<path fill-rule="nonzero" fill="rgb(79.998779%, 79.998779%, 79.998779%)" fill-opacity="1" d="M 117.050781 165.054688 C 117.050781 161.160156 113.898438 158.007812 110.007812 158.007812 C 106.113281 158.007812 102.960938 161.160156 102.960938 165.054688 C 102.960938 168.945312 106.113281 172.097656 110.007812 172.097656 C 113.898438 172.097656 117.050781 168.945312 117.050781 165.054688 Z M 117.050781 165.054688 "/>
</g>
<g clip-path="url(#clip-1)">
<path fill="none" stroke-width="0.3985" stroke-linecap="butt" stroke-linejoin="miter" stroke="rgb(0%, 0%, 0%)" stroke-opacity="1" stroke-miterlimit="10" d="M 7.044781 -0.0016875 C 7.044781 3.892844 3.892437 7.045187 0.0018125 7.045187 C -3.892719 7.045187 -7.045063 3.892844 -7.045063 -0.0016875 C -7.045063 -3.892313 -3.892719 -7.044656 0.0018125 -7.044656 C 3.892437 -7.044656 7.044781 -3.892313 7.044781 -0.0016875 Z M 7.044781 -0.0016875 " transform="matrix(1, 0, 0, -1, 110.006, 165.053)"/>
</g>
<g clip-path="url(#clip-2)">
<path fill-rule="nonzero" fill="rgb(79.998779%, 79.998779%, 79.998779%)" fill-opacity="1" d="M 152.179688 165.054688 C 152.179688 161.160156 149.023438 158.007812 145.132812 158.007812 C 141.242188 158.007812 138.089844 161.160156 138.089844 165.054688 C 138.089844 168.945312 141.242188 172.097656 145.132812 172.097656 C 149.023438 172.097656 152.179688 168.945312 152.179688 165.054688 Z M 152.179688 165.054688 "/>
</g>
<g clip-path="url(#clip-3)">
<path fill="none" stroke-width="0.3985" stroke-linecap="butt" stroke-linejoin="miter" stroke="rgb(0%, 0%, 0%)" stroke-opacity="1" stroke-miterlimit="10" d="M 7.045688 -0.0016875 C 7.045688 3.892844 3.889438 7.045187 -0.0011875 7.045187 C -3.891812 7.045187 -7.044156 3.892844 -7.044156 -0.0016875 C -7.044156 -3.892313 -3.891812 -7.044656 -0.0011875 -7.044656 C 3.889438 -7.044656 7.045688 -3.892313 7.045688 -0.0016875 Z M 7.045688 -0.0016875 " transform="matrix(1, 0, 0, -1, 145.134, 165.053)"/>
</g>
<path fill-rule="nonzero" fill="rgb(0%, 0%, 0%)" fill-opacity="1" d="M 119.058594 44.246094 C 119.058594 43.96875 118.835938 43.746094 118.558594 43.746094 C 118.285156 43.746094 118.0625 43.96875 118.0625 44.246094 C 118.0625 44.519531 118.285156 44.742188 118.558594 44.742188 C 118.835938 44.742188 119.058594 44.519531 119.058594 44.246094 Z M 119.058594 44.246094 "/>
<path fill-rule="nonzero" fill="rgb(79.998779%, 79.998779%, 79.998779%)" fill-opacity="1" stroke-width="0.3985" stroke-linecap="butt" stroke-linejoin="miter" stroke="rgb(0%, 0%, 0%)" stroke-opacity="1" stroke-miterlimit="10" d="M 7.045063 0.001875 C 7.045063 3.8925 3.892719 7.044844 -0.0018125 7.044844 C -3.892437 7.044844 -7.044781 3.8925 -7.044781 0.001875 C -7.044781 -3.892656 -3.892437 -7.045 -0.0018125 -7.045 C 3.892719 -7.045 7.045063 -3.892656 7.045063 0.001875 Z M 7.045063 0.001875 " transform="matrix(1, 0, 0, -1, 100.994, 69.33)"/>
<path fill-rule="nonzero" fill="rgb(79.998779%, 79.998779%, 79.998779%)" fill-opacity="1" stroke-width="0.3985" stroke-linecap="butt" stroke-linejoin="miter" stroke="rgb(0%, 0%, 0%)" stroke-opacity="1" stroke-miterlimit="10" d="M 7.044969 0.001875 C 7.044969 3.8925 3.892625 7.044844 -0.00190625 7.044844 C -3.892531 7.044844 -7.044875 3.8925 -7.044875 0.001875 C -7.044875 -3.892656 -3.892531 -7.045 -0.00190625 -7.045 C 3.892625 -7.045 7.044969 -3.892656 7.044969 0.001875 Z M 7.044969 0.001875 " transform="matrix(1, 0, 0, -1, 136.123, 69.33)"/>
<path fill="none" stroke-width="0.3985" stroke-linecap="butt" stroke-linejoin="miter" stroke="rgb(0%, 0%, 0%)" stroke-opacity="1" stroke-miterlimit="10" d="M -1.728781 -2.471063 L -28.607687 -40.853875 " transform="matrix(1, 0, 0, -1, 89.553, 2.818)"/>
<path fill="none" stroke-width="0.3985" stroke-linecap="butt" stroke-linejoin="miter" stroke="rgb(0%, 0%, 0%)" stroke-opacity="1" stroke-miterlimit="10" d="M -29.404562 -41.998406 L -60.502219 -86.408563 " transform="matrix(1, 0, 0, -1, 89.553, 2.818)"/>
<path fill="none" stroke-width="0.3985" stroke-linecap="butt" stroke-linejoin="miter" stroke="rgb(0%, 0%, 0%)" stroke-opacity="1" stroke-miterlimit="10" d="M -61.303 -87.553094 L -74.310812 -106.131219 " transform="matrix(1, 0, 0, -1, 89.553, 2.818)"/>
<path fill="none" stroke-width="0.3985" stroke-linecap="butt" stroke-linejoin="miter" stroke="rgb(0%, 0%, 0%)" stroke-opacity="1" stroke-miterlimit="10" d="M -60.502219 -87.553094 L -47.494406 -106.131219 " transform="matrix(1, 0, 0, -1, 89.553, 2.818)"/>
<path fill="none" stroke-width="0.3985" stroke-linecap="butt" stroke-linejoin="miter" stroke="rgb(0%, 0%, 0%)" stroke-opacity="1" stroke-miterlimit="10" d="M -28.607687 -41.998406 L 2.489969 -86.408563 " transform="matrix(1, 0, 0, -1, 89.553, 2.818)"/>
<path fill="none" stroke-width="0.3985" stroke-linecap="butt" stroke-linejoin="miter" stroke="rgb(0%, 0%, 0%)" stroke-opacity="1" stroke-miterlimit="10" d="M 2.489969 -87.553094 L -10.517844 -106.131219 " transform="matrix(1, 0, 0, -1, 89.553, 2.818)"/>
<path fill="none" stroke-width="0.3985" stroke-linecap="butt" stroke-linejoin="miter" stroke="rgb(0%, 0%, 0%)" stroke-opacity="1" stroke-miterlimit="10" d="M 3.29075 -87.553094 L 20.052469 -111.4945 " transform="matrix(1, 0, 0, -1, 89.553, 2.818)"/>
<path fill="none" stroke-width="0.3985" stroke-linecap="butt" stroke-linejoin="miter" stroke="rgb(0%, 0%, 0%)" stroke-opacity="1" stroke-miterlimit="10" d="M 20.052469 -112.639031 L 7.044656 -131.217156 " transform="matrix(1, 0, 0, -1, 89.553, 2.818)"/>
<path fill="none" stroke-width="0.3985" stroke-linecap="butt" stroke-linejoin="miter" stroke="rgb(0%, 0%, 0%)" stroke-opacity="1" stroke-miterlimit="10" d="M 20.85325 -112.639031 L 37.618875 -136.580438 " transform="matrix(1, 0, 0, -1, 89.553, 2.818)"/>
<path fill="none" stroke-width="0.3985" stroke-linecap="butt" stroke-linejoin="miter" stroke="rgb(0%, 0%, 0%)" stroke-opacity="1" stroke-miterlimit="10" d="M 37.618875 -137.721063 L 24.607156 -156.303094 " transform="matrix(1, 0, 0, -1, 89.553, 2.818)"/>
<path fill="none" stroke-width="0.3985" stroke-linecap="butt" stroke-linejoin="miter" stroke="rgb(0%, 0%, 0%)" stroke-opacity="1" stroke-miterlimit="10" d="M 38.419656 -137.721063 L 51.427469 -156.303094 " transform="matrix(1, 0, 0, -1, 89.553, 2.818)"/>
<path fill="none" stroke-width="0.3985" stroke-linecap="butt" stroke-linejoin="miter" stroke="rgb(0%, 0%, 0%)" stroke-opacity="1" stroke-miterlimit="10" d="M 1.732156 -2.471063 L 28.607156 -40.853875 " transform="matrix(1, 0, 0, -1, 89.553, 2.818)"/>
<path fill="none" stroke-width="0.3985" stroke-linecap="butt" stroke-linejoin="miter" stroke="rgb(0%, 0%, 0%)" stroke-opacity="1" stroke-miterlimit="10" d="M 28.607156 -41.998406 L 15.595438 -60.576531 " transform="matrix(1, 0, 0, -1, 89.553, 2.818)"/>
<path fill="none" stroke-width="0.3985" stroke-linecap="butt" stroke-linejoin="miter" stroke="rgb(0%, 0%, 0%)" stroke-opacity="1" stroke-miterlimit="10" d="M 29.407938 -41.998406 L 42.41575 -60.576531 " transform="matrix(1, 0, 0, -1, 89.553, 2.818)"/>
</svg>
