<?xml version="1.0" encoding="UTF-8"?>
<svg xmlns="http://www.w3.org/2000/svg" xmlns:xlink="http://www.w3.org/1999/xlink" width="182.34" height="147.214" viewBox="0 0 182.34 147.214">
<defs>
<clipPath id="clip-0">
<path clip-rule="nonzero" d="M 85 132 L 100 132 L 100 147.214844 L 85 147.214844 Z M 85 132 "/>
</clipPath>
<clipPath id="clip-1">
<path clip-rule="nonzero" d="M 79 127 L 106 127 L 106 147.214844 L 79 147.214844 Z M 79 127 "/>
</clipPath>
<clipPath id="clip-2">
<path clip-rule="nonzero" d="M 120 132 L 135 132 L 135 147.214844 L 120 147.214844 Z M 120 132 "/>
</clipPath>
<clipPath id="clip-3">
<path clip-rule="nonzero" d="M 114 127 L 141 127 L 141 147.214844 L 114 147.214844 Z M 114 127 "/>
</clipPath>
<clipPath id="clip-4">
<path clip-rule="nonzero" d="M 158 106 L 182.339844 106 L 182.339844 133 L 158 133 Z M 158 106 "/>
</clipPath>
</defs>
<path fill-rule="nonzero" fill="rgb(0%, 0%, 0%)" fill-opacity="1" d="M 92.371094 2.816406 C 92.371094 1.261719 91.109375 0 89.554688 0 C 87.996094 0 86.734375 1.261719 86.734375 2.816406 C 86.734375 4.375 87.996094 5.636719 89.554688 5.636719 C 91.109375 5.636719 92.371094 4.375 92.371094 2.816406 Z M 92.371094 2.816406 "/>
<path fill-rule="nonzero" fill="rgb(0%, 0%, 0%)" fill-opacity="1" d="M 61.046875 44.246094 C 61.046875 43.972656 60.820312 43.746094 60.546875 43.746094 C 60.273438 43.746094 60.050781 43.972656 60.050781 44.246094 C 60.050781 44.519531 60.273438 44.742188 60.546875 44.742188 C 60.820312 44.742188 61.046875 44.519531 61.046875 44.246094 Z M 61.046875 44.246094 "/>
<path fill-rule="nonzero" fill="rgb(0%, 0%, 0%)" fill-opacity="1" d="M 29.148438 89.800781 C 29.148438 89.523438 28.925781 89.300781 28.652344 89.300781 C 28.375 89.300781 28.152344 89.523438 28.152344 89.800781 C 28.152344 90.074219 28.375 90.296875 28.652344 90.296875 C 28.925781 90.296875 29.148438 90.074219 29.148438 89.800781 Z M 29.148438 89.800781 "/>
<path fill-rule="nonzero" fill="rgb(79.998779%, 79.998779%, 79.998779%)" fill-opacity="1" stroke-width="0.3985" stroke-linecap="butt" stroke-linejoin="miter" stroke="rgb(0%, 0%, 0%)" stroke-opacity="1" stroke-miterlimit="10" d="M 7.045813 0.0011875 C 7.045813 3.891812 3.889563 7.044156 -0.0010625 7.044156 C -3.891687 7.044156 -7.044031 3.891812 -7.044031 0.0011875 C -7.044031 -3.889438 -3.891687 -7.045688 -0.0010625 -7.045688 C 3.889563 -7.045688 7.045813 -3.889438 7.045813 0.0011875 Z M 7.045813 0.0011875 " transform="matrix(1, 0, 0, -1, 11.087, 114.884)"/>
<path fill-rule="nonzero" fill="rgb(79.998779%, 79.998779%, 79.998779%)" fill-opacity="1" stroke-width="0.3985" stroke-linecap="butt" stroke-linejoin="miter" stroke="rgb(0%, 0%, 0%)" stroke-opacity="1" stroke-miterlimit="10" d="M 7.046719 0.0011875 C 7.046719 3.891812 3.890469 7.044156 -0.00015625 7.044156 C -3.890781 7.044156 -7.047031 3.891812 -7.047031 0.0011875 C -7.047031 -3.889438 -3.890781 -7.045688 -0.00015625 -7.045688 C 3.890469 -7.045688 7.046719 -3.889438 7.046719 0.0011875 Z M 7.046719 0.0011875 " transform="matrix(1, 0, 0, -1, 46.215, 114.884)"/>
<path fill-rule="nonzero" fill="rgb(0%, 0%, 0%)" fill-opacity="1" d="M 92.941406 89.800781 C 92.941406 89.523438 92.71875 89.300781 92.441406 89.300781 C 92.167969 89.300781 91.945312 89.523438 91.945312 89.800781 C 91.945312 90.074219 92.167969 90.296875 92.441406 90.296875 C 92.71875 90.296875 92.941406 90.074219 92.941406 89.800781 Z M 92.941406 89.800781 "/>
<path fill-rule="nonzero" fill="rgb(79.998779%, 79.998779%, 79.998779%)" fill-opacity="1" stroke-width="0.3985" stroke-linecap="butt" stroke-linejoin="miter" stroke="rgb(0%, 0%, 0%)" stroke-opacity="1" stroke-miterlimit="10" d="M 7.043875 0.0011875 C 7.043875 3.891812 3.891531 7.044156 0.00090625 7.044156 C -3.889719 7.044156 -7.045969 3.891812 -7.045969 0.0011875 C -7.045969 -3.889438 -3.889719 -7.045688 0.00090625 -7.045688 C 3.891531 -7.045688 7.043875 -3.889438 7.043875 0.0011875 Z M 7.043875 0.0011875 " transform="matrix(1, 0, 0, -1, 74.878, 114.884)"/>
<path fill-rule="nonzero" fill="rgb(0%, 0%, 0%)" fill-opacity="1" d="M 110.503906 114.882812 C 110.503906 114.609375 110.28125 114.386719 110.007812 114.386719 C 109.730469 114.386719 109.507812 114.609375 109.507812 114.882812 C 109.507812 115.160156 109.730469 115.382812 110.007812 115.382812 C 110.28125 115.382812 110.503906 115.160156 110.503906 114.882812 Z M 110.503906 114.882812 "/>
<g clip-path="url(#clip-0)">
<path fill-rule="nonzero" fill="rgb(79.998779%, 79.998779%, 79.998779%)" fill-opacity="1" d="M 99.488281 139.96875 C 99.488281 136.078125 96.332031 132.921875 92.441406 132.921875 C 88.550781 132.921875 85.398438 136.078125 85.398438 139.96875 C 85.398438 143.859375 88.550781 147.015625 92.441406 147.015625 C 96.332031 147.015625 99.488281 143.859375 99.488281 139.96875 Z M 99.488281 139.96875 "/>
</g>
<g clip-path="url(#clip-1)">
<path fill="none" stroke-width="0.3985" stroke-linecap="butt" stroke-linejoin="miter" stroke="rgb(0%, 0%, 0%)" stroke-opacity="1" stroke-miterlimit="10" d="M 7.046281 0.00025 C 7.046281 3.890875 3.890031 7.047125 -0.00059375 7.047125 C -3.891219 7.047125 -7.043563 3.890875 -7.043563 0.00025 C -7.043563 -3.890375 -3.891219 -7.046625 -0.00059375 -7.046625 C 3.890031 -7.046625 7.046281 -3.890375 7.046281 0.00025 Z M 7.046281 0.00025 " transform="matrix(1, 0, 0, -1, 92.442, 139.969)"/>
</g>
<g clip-path="url(#clip-2)">
<path fill-rule="nonzero" fill="rgb(79.998779%, 79.998779%, 79.998779%)" fill-opacity="1" d="M 134.617188 139.96875 C 134.617188 136.078125 131.460938 132.921875 127.570312 132.921875 C 123.679688 132.921875 120.523438 136.078125 120.523438 139.96875 C 120.523438 143.859375 123.679688 147.015625 127.570312 147.015625 C 131.460938 147.015625 134.617188 143.859375 134.617188 139.96875 Z M 134.617188 139.96875 "/>
</g>
<g clip-path="url(#clip-3)">
<path fill="none" stroke-width="0.3985" stroke-linecap="butt" stroke-linejoin="miter" stroke="rgb(0%, 0%, 0%)" stroke-opacity="1" stroke-miterlimit="10" d="M 7.047188 0.00025 C 7.047188 3.890875 3.890938 7.047125 0.0003125 7.047125 C -3.890312 7.047125 -7.046562 3.890875 -7.046562 0.00025 C -7.046562 -3.890375 -3.890312 -7.046625 0.0003125 -7.046625 C 3.890938 -7.046625 7.047188 -3.890375 7.047188 0.00025 Z M 7.047188 0.00025 " transform="matrix(1, 0, 0, -1, 127.57, 139.969)"/>
</g>
<path fill-rule="nonzero" fill="rgb(0%, 0%, 0%)" fill-opacity="1" d="M 119.058594 44.246094 C 119.058594 43.972656 118.835938 43.746094 118.5625 43.746094 C 118.285156 43.746094 118.0625 43.972656 118.0625 44.246094 C 118.0625 44.519531 118.285156 44.742188 118.5625 44.742188 C 118.835938 44.742188 119.058594 44.519531 119.058594 44.246094 Z M 119.058594 44.246094 "/>
<path fill-rule="nonzero" fill="rgb(79.998779%, 79.998779%, 79.998779%)" fill-opacity="1" stroke-width="0.3985" stroke-linecap="butt" stroke-linejoin="miter" stroke="rgb(0%, 0%, 0%)" stroke-opacity="1" stroke-miterlimit="10" d="M 7.045969 -0.00103125 C 7.045969 3.889594 3.889719 7.045844 -0.00090625 7.045844 C -3.891531 7.045844 -7.043875 3.889594 -7.043875 -0.00103125 C -7.043875 -3.891656 -3.891531 -7.044 -0.00090625 -7.044 C 3.889719 -7.044 7.045969 -3.891656 7.045969 -0.00103125 Z M 7.045969 -0.00103125 " transform="matrix(1, 0, 0, -1, 100.997, 69.331)"/>
<path fill-rule="nonzero" fill="rgb(0%, 0%, 0%)" fill-opacity="1" d="M 136.625 69.332031 C 136.625 69.054688 136.398438 68.832031 136.125 68.832031 C 135.851562 68.832031 135.625 69.054688 135.625 69.332031 C 135.625 69.605469 135.851562 69.828125 136.125 69.828125 C 136.398438 69.828125 136.625 69.605469 136.625 69.332031 Z M 136.625 69.332031 "/>
<path fill-rule="nonzero" fill="rgb(79.998779%, 79.998779%, 79.998779%)" fill-opacity="1" stroke-width="0.3985" stroke-linecap="butt" stroke-linejoin="miter" stroke="rgb(0%, 0%, 0%)" stroke-opacity="1" stroke-miterlimit="10" d="M 7.044469 0.0019375 C 7.044469 3.892562 3.892125 7.044906 0.0015 7.044906 C -3.893031 7.044906 -7.045375 3.892562 -7.045375 0.0019375 C -7.045375 -3.892594 -3.893031 -7.044938 0.0015 -7.044938 C 3.892125 -7.044938 7.044469 -3.892594 7.044469 0.0019375 Z M 7.044469 0.0019375 " transform="matrix(1, 0, 0, -1, 118.561, 94.416)"/>
<path fill-rule="nonzero" fill="rgb(0%, 0%, 0%)" fill-opacity="1" d="M 154.1875 94.414062 C 154.1875 94.140625 153.964844 93.917969 153.6875 93.917969 C 153.414062 93.917969 153.191406 94.140625 153.191406 94.414062 C 153.191406 94.691406 153.414062 94.914062 153.6875 94.914062 C 153.964844 94.914062 154.1875 94.691406 154.1875 94.414062 Z M 154.1875 94.414062 "/>
<path fill-rule="nonzero" fill="rgb(79.998779%, 79.998779%, 79.998779%)" fill-opacity="1" stroke-width="0.3985" stroke-linecap="butt" stroke-linejoin="miter" stroke="rgb(0%, 0%, 0%)" stroke-opacity="1" stroke-miterlimit="10" d="M 7.046875 0.001 C 7.046875 3.891625 3.890625 7.043969 0 7.043969 C -3.890625 7.043969 -7.046875 3.891625 -7.046875 0.001 C -7.046875 -3.889625 -3.890625 -7.045875 0 -7.045875 C 3.890625 -7.045875 7.046875 -3.889625 7.046875 0.001 Z M 7.046875 0.001 " transform="matrix(1, 0, 0, -1, 136.125, 119.501)"/>
<path fill-rule="nonzero" fill="rgb(79.998779%, 79.998779%, 79.998779%)" fill-opacity="1" d="M 178.296875 119.5 C 178.296875 115.609375 175.144531 112.457031 171.253906 112.457031 C 167.363281 112.457031 164.207031 115.609375 164.207031 119.5 C 164.207031 123.390625 167.363281 126.546875 171.253906 126.546875 C 175.144531 126.546875 178.296875 123.390625 178.296875 119.5 Z M 178.296875 119.5 "/>
<g clip-path="url(#clip-4)">
<path fill="none" stroke-width="0.3985" stroke-linecap="butt" stroke-linejoin="miter" stroke="rgb(0%, 0%, 0%)" stroke-opacity="1" stroke-miterlimit="10" d="M 7.043875 0.001 C 7.043875 3.891625 3.891531 7.043969 0.00090625 7.043969 C -3.889719 7.043969 -7.045969 3.891625 -7.045969 0.001 C -7.045969 -3.889625 -3.889719 -7.045875 0.00090625 -7.045875 C 3.891531 -7.045875 7.043875 -3.889625 7.043875 0.001 Z M 7.043875 0.001 " transform="matrix(1, 0, 0, -1, 171.253, 119.501)"/>
</g>
<path fill="none" stroke-width="0.3985" stroke-linecap="butt" stroke-linejoin="miter" stroke="rgb(0%, 0%, 0%)" stroke-opacity="1" stroke-miterlimit="10" d="M -1.729781 -2.471063 L -28.608688 -40.857781 " transform="matrix(1, 0, 0, -1, 89.554, 2.818)"/>
<path fill="none" stroke-width="0.3985" stroke-linecap="butt" stroke-linejoin="miter" stroke="rgb(0%, 0%, 0%)" stroke-opacity="1" stroke-miterlimit="10" d="M -29.405563 -41.998406 L -60.503219 -86.412469 " transform="matrix(1, 0, 0, -1, 89.554, 2.818)"/>
<path fill="none" stroke-width="0.3985" stroke-linecap="butt" stroke-linejoin="miter" stroke="rgb(0%, 0%, 0%)" stroke-opacity="1" stroke-miterlimit="10" d="M -61.304 -87.553094 L -74.311813 -106.135125 " transform="matrix(1, 0, 0, -1, 89.554, 2.818)"/>
<path fill="none" stroke-width="0.3985" stroke-linecap="butt" stroke-linejoin="miter" stroke="rgb(0%, 0%, 0%)" stroke-opacity="1" stroke-miterlimit="10" d="M -60.503219 -87.553094 L -47.495406 -106.135125 " transform="matrix(1, 0, 0, -1, 89.554, 2.818)"/>
<path fill="none" stroke-width="0.3985" stroke-linecap="butt" stroke-linejoin="miter" stroke="rgb(0%, 0%, 0%)" stroke-opacity="1" stroke-miterlimit="10" d="M -28.608688 -41.998406 L 2.488969 -86.412469 " transform="matrix(1, 0, 0, -1, 89.554, 2.818)"/>
<path fill="none" stroke-width="0.3985" stroke-linecap="butt" stroke-linejoin="miter" stroke="rgb(0%, 0%, 0%)" stroke-opacity="1" stroke-miterlimit="10" d="M 2.488969 -87.553094 L -10.52275 -106.135125 " transform="matrix(1, 0, 0, -1, 89.554, 2.818)"/>
<path fill="none" stroke-width="0.3985" stroke-linecap="butt" stroke-linejoin="miter" stroke="rgb(0%, 0%, 0%)" stroke-opacity="1" stroke-miterlimit="10" d="M 3.28975 -87.553094 L 20.051469 -111.498406 " transform="matrix(1, 0, 0, -1, 89.554, 2.818)"/>
<path fill="none" stroke-width="0.3985" stroke-linecap="butt" stroke-linejoin="miter" stroke="rgb(0%, 0%, 0%)" stroke-opacity="1" stroke-miterlimit="10" d="M 20.051469 -112.639031 L 7.043656 -131.217156 " transform="matrix(1, 0, 0, -1, 89.554, 2.818)"/>
<path fill="none" stroke-width="0.3985" stroke-linecap="butt" stroke-linejoin="miter" stroke="rgb(0%, 0%, 0%)" stroke-opacity="1" stroke-miterlimit="10" d="M 20.85225 -112.639031 L 33.860062 -131.217156 " transform="matrix(1, 0, 0, -1, 89.554, 2.818)"/>
<path fill="none" stroke-width="0.3985" stroke-linecap="butt" stroke-linejoin="miter" stroke="rgb(0%, 0%, 0%)" stroke-opacity="1" stroke-miterlimit="10" d="M 1.731156 -2.471063 L 28.606156 -40.857781 " transform="matrix(1, 0, 0, -1, 89.554, 2.818)"/>
<path fill="none" stroke-width="0.3985" stroke-linecap="butt" stroke-linejoin="miter" stroke="rgb(0%, 0%, 0%)" stroke-opacity="1" stroke-miterlimit="10" d="M 28.606156 -41.998406 L 15.598344 -60.580438 " transform="matrix(1, 0, 0, -1, 89.554, 2.818)"/>
<path fill="none" stroke-width="0.3985" stroke-linecap="butt" stroke-linejoin="miter" stroke="rgb(0%, 0%, 0%)" stroke-opacity="1" stroke-miterlimit="10" d="M 29.406937 -41.998406 L 46.172562 -65.943719 " transform="matrix(1, 0, 0, -1, 89.554, 2.818)"/>
<path fill="none" stroke-width="0.3985" stroke-linecap="butt" stroke-linejoin="miter" stroke="rgb(0%, 0%, 0%)" stroke-opacity="1" stroke-miterlimit="10" d="M 46.172562 -67.084344 L 33.160844 -85.666375 " transform="matrix(1, 0, 0, -1, 89.554, 2.818)"/>
<path fill="none" stroke-width="0.3985" stroke-linecap="butt" stroke-linejoin="miter" stroke="rgb(0%, 0%, 0%)" stroke-opacity="1" stroke-miterlimit="10" d="M 46.973344 -67.084344 L 63.735062 -91.029656 " transform="matrix(1, 0, 0, -1, 89.554, 2.818)"/>
<path fill="none" stroke-width="0.3985" stroke-linecap="butt" stroke-linejoin="miter" stroke="rgb(0%, 0%, 0%)" stroke-opacity="1" stroke-miterlimit="10" d="M 63.735062 -92.170281 L 50.72725 -110.752313 " transform="matrix(1, 0, 0, -1, 89.554, 2.818)"/>
<path fill="none" stroke-width="0.3985" stroke-linecap="butt" stroke-linejoin="miter" stroke="rgb(0%, 0%, 0%)" stroke-opacity="1" stroke-miterlimit="10" d="M 64.535844 -92.170281 L 77.543656 -110.752313 " transform="matrix(1, 0, 0, -1, 89.554, 2.818)"/>
</svg>
