<?xml version="1.0" encoding="UTF-8"?>
<svg xmlns="http://www.w3.org/2000/svg" xmlns:xlink="http://www.w3.org/1999/xlink" width="170.553" height="176.425" viewBox="0 0 170.553 176.425">
<defs>
<clipPath id="clip-0">
<path clip-rule="nonzero" d="M 4 162 L 19 162 L 19 176.425781 L 4 176.425781 Z M 4 162 "/>
</clipPath>
<clipPath id="clip-1">
<path clip-rule="nonzero" d="M 0 156 L 24 156 L 24 176.425781 L 0 176.425781 Z M 0 156 "/>
</clipPath>
<clipPath id="clip-2">
<path clip-rule="nonzero" d="M 39 162 L 54 162 L 54 176.425781 L 39 176.425781 Z M 39 162 "/>
</clipPath>
<clipPath id="clip-3">
<path clip-rule="nonzero" d="M 33 156 L 59 156 L 59 176.425781 L 33 176.425781 Z M 33 156 "/>
</clipPath>
<clipPath id="clip-4">
<path clip-rule="nonzero" d="M 67 162 L 82 162 L 82 176.425781 L 67 176.425781 Z M 67 162 "/>
</clipPath>
<clipPath id="clip-5">
<path clip-rule="nonzero" d="M 62 156 L 88 156 L 88 176.425781 L 62 176.425781 Z M 62 156 "/>
</clipPath>
<clipPath id="clip-6">
<path clip-rule="nonzero" d="M 102 162 L 118 162 L 118 176.425781 L 102 176.425781 Z M 102 162 "/>
</clipPath>
<clipPath id="clip-7">
<path clip-rule="nonzero" d="M 97 156 L 123 156 L 123 176.425781 L 97 176.425781 Z M 97 156 "/>
</clipPath>
<clipPath id="clip-8">
<path clip-rule="nonzero" d="M 146 85 L 170.554688 85 L 170.554688 112 L 146 112 Z M 146 85 "/>
</clipPath>
</defs>
<path fill-rule="nonzero" fill="rgb(0%, 0%, 0%)" fill-opacity="1" d="M 95.261719 2.816406 C 95.261719 1.261719 94 0 92.441406 0 C 90.886719 0 89.625 1.261719 89.625 2.816406 C 89.625 4.375 90.886719 5.636719 92.441406 5.636719 C 94 5.636719 95.261719 4.375 95.261719 2.816406 Z M 95.261719 2.816406 "/>
<path fill-rule="nonzero" fill="rgb(0%, 0%, 0%)" fill-opacity="1" d="M 61.046875 48.371094 C 61.046875 48.097656 60.820312 47.875 60.546875 47.875 C 60.273438 47.875 60.050781 48.097656 60.050781 48.371094 C 60.050781 48.648438 60.273438 48.871094 60.546875 48.871094 C 60.820312 48.871094 61.046875 48.648438 61.046875 48.371094 Z M 61.046875 48.371094 "/>
<path fill-rule="nonzero" fill="rgb(0%, 0%, 0%)" fill-opacity="1" d="M 43.480469 73.457031 C 43.480469 73.183594 43.257812 72.957031 42.984375 72.957031 C 42.707031 72.957031 42.484375 73.183594 42.484375 73.457031 C 42.484375 73.730469 42.707031 73.957031 42.984375 73.957031 C 43.257812 73.957031 43.480469 73.730469 43.480469 73.457031 Z M 43.480469 73.457031 "/>
<path fill-rule="nonzero" fill="rgb(79.998779%, 79.998779%, 79.998779%)" fill-opacity="1" stroke-width="0.3985" stroke-linecap="butt" stroke-linejoin="miter" stroke="rgb(0%, 0%, 0%)" stroke-opacity="1" stroke-miterlimit="10" d="M 7.046844 -0.00096875 C 7.046844 3.889656 3.890594 7.045906 -0.00003125 7.045906 C -3.890656 7.045906 -7.046906 3.889656 -7.046906 -0.00096875 C -7.046906 -3.891594 -3.890656 -7.043937 -0.00003125 -7.043937 C 3.890594 -7.043937 7.046844 -3.891594 7.046844 -0.00096875 Z M 7.046844 -0.00096875 " transform="matrix(1, 0, 0, -1, 25.418, 98.542)"/>
<path fill-rule="nonzero" fill="rgb(0%, 0%, 0%)" fill-opacity="1" d="M 61.046875 98.542969 C 61.046875 98.265625 60.820312 98.042969 60.546875 98.042969 C 60.273438 98.042969 60.050781 98.265625 60.050781 98.542969 C 60.050781 98.816406 60.273438 99.039062 60.546875 99.039062 C 60.820312 99.039062 61.046875 98.816406 61.046875 98.542969 Z M 61.046875 98.542969 "/>
<path fill-rule="nonzero" fill="rgb(0%, 0%, 0%)" fill-opacity="1" d="M 29.148438 144.09375 C 29.148438 143.820312 28.925781 143.597656 28.652344 143.597656 C 28.375 143.597656 28.152344 143.820312 28.152344 144.09375 C 28.152344 144.371094 28.375 144.59375 28.652344 144.59375 C 28.925781 144.59375 29.148438 144.371094 29.148438 144.09375 Z M 29.148438 144.09375 "/>
<g clip-path="url(#clip-0)">
<path fill-rule="nonzero" fill="rgb(79.998779%, 79.998779%, 79.998779%)" fill-opacity="1" d="M 18.132812 169.179688 C 18.132812 165.289062 14.976562 162.132812 11.085938 162.132812 C 7.195312 162.132812 4.042969 165.289062 4.042969 169.179688 C 4.042969 173.070312 7.195312 176.226562 11.085938 176.226562 C 14.976562 176.226562 18.132812 173.070312 18.132812 169.179688 Z M 18.132812 169.179688 "/>
</g>
<g clip-path="url(#clip-1)">
<path fill="none" stroke-width="0.3985" stroke-linecap="butt" stroke-linejoin="miter" stroke="rgb(0%, 0%, 0%)" stroke-opacity="1" stroke-miterlimit="10" d="M 7.045812 0.0003125 C 7.045812 3.890938 3.889562 7.047188 -0.0010625 7.047188 C -3.891688 7.047188 -7.044031 3.890938 -7.044031 0.0003125 C -7.044031 -3.890312 -3.891688 -7.046562 -0.0010625 -7.046562 C 3.889562 -7.046562 7.045812 -3.890312 7.045812 0.0003125 Z M 7.045812 0.0003125 " transform="matrix(1, 0, 0, -1, 11.087, 169.18)"/>
</g>
<g clip-path="url(#clip-2)">
<path fill-rule="nonzero" fill="rgb(79.998779%, 79.998779%, 79.998779%)" fill-opacity="1" d="M 53.261719 169.179688 C 53.261719 165.289062 50.105469 162.132812 46.214844 162.132812 C 42.324219 162.132812 39.167969 165.289062 39.167969 169.179688 C 39.167969 173.070312 42.324219 176.226562 46.214844 176.226562 C 50.105469 176.226562 53.261719 173.070312 53.261719 169.179688 Z M 53.261719 169.179688 "/>
</g>
<g clip-path="url(#clip-3)">
<path fill="none" stroke-width="0.3985" stroke-linecap="butt" stroke-linejoin="miter" stroke="rgb(0%, 0%, 0%)" stroke-opacity="1" stroke-miterlimit="10" d="M 7.046719 0.0003125 C 7.046719 3.890938 3.890469 7.047188 -0.00015625 7.047188 C -3.890781 7.047188 -7.047031 3.890938 -7.047031 0.0003125 C -7.047031 -3.890312 -3.890781 -7.046562 -0.00015625 -7.046562 C 3.890469 -7.046562 7.046719 -3.890312 7.046719 0.0003125 Z M 7.046719 0.0003125 " transform="matrix(1, 0, 0, -1, 46.215, 169.18)"/>
</g>
<path fill-rule="nonzero" fill="rgb(0%, 0%, 0%)" fill-opacity="1" d="M 92.941406 144.09375 C 92.941406 143.820312 92.71875 143.597656 92.441406 143.597656 C 92.167969 143.597656 91.945312 143.820312 91.945312 144.09375 C 91.945312 144.371094 92.167969 144.59375 92.441406 144.59375 C 92.71875 144.59375 92.941406 144.371094 92.941406 144.09375 Z M 92.941406 144.09375 "/>
<g clip-path="url(#clip-4)">
<path fill-rule="nonzero" fill="rgb(79.998779%, 79.998779%, 79.998779%)" fill-opacity="1" d="M 81.921875 169.179688 C 81.921875 165.289062 78.769531 162.132812 74.878906 162.132812 C 70.988281 162.132812 67.832031 165.289062 67.832031 169.179688 C 67.832031 173.070312 70.988281 176.226562 74.878906 176.226562 C 78.769531 176.226562 81.921875 173.070312 81.921875 169.179688 Z M 81.921875 169.179688 "/>
</g>
<g clip-path="url(#clip-5)">
<path fill="none" stroke-width="0.3985" stroke-linecap="butt" stroke-linejoin="miter" stroke="rgb(0%, 0%, 0%)" stroke-opacity="1" stroke-miterlimit="10" d="M 7.043875 0.0003125 C 7.043875 3.890938 3.891531 7.047188 0.00090625 7.047188 C -3.889719 7.047188 -7.045969 3.890938 -7.045969 0.0003125 C -7.045969 -3.890312 -3.889719 -7.046562 0.00090625 -7.046562 C 3.891531 -7.046562 7.043875 -3.890312 7.043875 0.0003125 Z M 7.043875 0.0003125 " transform="matrix(1, 0, 0, -1, 74.878, 169.18)"/>
</g>
<g clip-path="url(#clip-6)">
<path fill-rule="nonzero" fill="rgb(79.998779%, 79.998779%, 79.998779%)" fill-opacity="1" d="M 117.050781 169.179688 C 117.050781 165.289062 113.898438 162.132812 110.007812 162.132812 C 106.113281 162.132812 102.960938 165.289062 102.960938 169.179688 C 102.960938 173.070312 106.113281 176.226562 110.007812 176.226562 C 113.898438 176.226562 117.050781 173.070312 117.050781 169.179688 Z M 117.050781 169.179688 "/>
</g>
<g clip-path="url(#clip-7)">
<path fill="none" stroke-width="0.3985" stroke-linecap="butt" stroke-linejoin="miter" stroke="rgb(0%, 0%, 0%)" stroke-opacity="1" stroke-miterlimit="10" d="M 7.044781 0.0003125 C 7.044781 3.890938 3.892437 7.047188 0.0018125 7.047188 C -3.892719 7.047188 -7.045063 3.890938 -7.045063 0.0003125 C -7.045063 -3.890312 -3.892719 -7.046562 0.0018125 -7.046562 C 3.892437 -7.046562 7.044781 -3.890312 7.044781 0.0003125 Z M 7.044781 0.0003125 " transform="matrix(1, 0, 0, -1, 110.006, 169.18)"/>
</g>
<path fill-rule="nonzero" fill="rgb(79.998779%, 79.998779%, 79.998779%)" fill-opacity="1" stroke-width="0.3985" stroke-linecap="butt" stroke-linejoin="miter" stroke="rgb(0%, 0%, 0%)" stroke-opacity="1" stroke-miterlimit="10" d="M 7.04525 -0.00003125 C 7.04525 3.890594 3.892906 7.046844 -0.001625 7.046844 C -3.89225 7.046844 -7.044594 3.890594 -7.044594 -0.00003125 C -7.044594 -3.890656 -3.89225 -7.046906 -0.001625 -7.046906 C 3.892906 -7.046906 7.04525 -3.890656 7.04525 -0.00003125 Z M 7.04525 -0.00003125 " transform="matrix(1, 0, 0, -1, 78.111, 73.457)"/>
<path fill-rule="nonzero" fill="rgb(0%, 0%, 0%)" fill-opacity="1" d="M 124.835938 48.371094 C 124.835938 48.097656 124.613281 47.875 124.339844 47.875 C 124.0625 47.875 123.839844 48.097656 123.839844 48.371094 C 123.839844 48.648438 124.0625 48.871094 124.339844 48.871094 C 124.613281 48.871094 124.835938 48.648438 124.835938 48.371094 Z M 124.835938 48.371094 "/>
<path fill-rule="nonzero" fill="rgb(79.998779%, 79.998779%, 79.998779%)" fill-opacity="1" stroke-width="0.3985" stroke-linecap="butt" stroke-linejoin="miter" stroke="rgb(0%, 0%, 0%)" stroke-opacity="1" stroke-miterlimit="10" d="M 7.047312 -0.00003125 C 7.047312 3.890594 3.891062 7.046844 0.0004375 7.046844 C -3.890188 7.046844 -7.046438 3.890594 -7.046438 -0.00003125 C -7.046438 -3.890656 -3.890188 -7.046906 0.0004375 -7.046906 C 3.891062 -7.046906 7.047312 -3.890656 7.047312 -0.00003125 Z M 7.047312 -0.00003125 " transform="matrix(1, 0, 0, -1, 106.773, 73.457)"/>
<path fill-rule="nonzero" fill="rgb(0%, 0%, 0%)" fill-opacity="1" d="M 142.398438 73.457031 C 142.398438 73.183594 142.175781 72.957031 141.902344 72.957031 C 141.625 72.957031 141.402344 73.183594 141.402344 73.457031 C 141.402344 73.730469 141.625 73.957031 141.902344 73.957031 C 142.175781 73.957031 142.398438 73.730469 142.398438 73.457031 Z M 142.398438 73.457031 "/>
<path fill-rule="nonzero" fill="rgb(79.998779%, 79.998779%, 79.998779%)" fill-opacity="1" stroke-width="0.3985" stroke-linecap="butt" stroke-linejoin="miter" stroke="rgb(0%, 0%, 0%)" stroke-opacity="1" stroke-miterlimit="10" d="M 7.045812 -0.00096875 C 7.045812 3.889656 3.889562 7.045906 -0.0010625 7.045906 C -3.891688 7.045906 -7.044031 3.889656 -7.044031 -0.00096875 C -7.044031 -3.891594 -3.891688 -7.043937 -0.0010625 -7.043937 C 3.889562 -7.043937 7.045812 -3.891594 7.045812 -0.00096875 Z M 7.045812 -0.00096875 " transform="matrix(1, 0, 0, -1, 124.337, 98.542)"/>
<path fill-rule="nonzero" fill="rgb(79.998779%, 79.998779%, 79.998779%)" fill-opacity="1" d="M 166.511719 98.542969 C 166.511719 94.652344 163.355469 91.496094 159.464844 91.496094 C 155.574219 91.496094 152.421875 94.652344 152.421875 98.542969 C 152.421875 102.433594 155.574219 105.585938 159.464844 105.585938 C 163.355469 105.585938 166.511719 102.433594 166.511719 98.542969 Z M 166.511719 98.542969 "/>
<g clip-path="url(#clip-8)">
<path fill="none" stroke-width="0.3985" stroke-linecap="butt" stroke-linejoin="miter" stroke="rgb(0%, 0%, 0%)" stroke-opacity="1" stroke-miterlimit="10" d="M 7.045719 -0.00096875 C 7.045719 3.889656 3.889469 7.045906 -0.00115625 7.045906 C -3.891781 7.045906 -7.044125 3.889656 -7.044125 -0.00096875 C -7.044125 -3.891594 -3.891781 -7.043937 -0.00115625 -7.043937 C 3.889469 -7.043937 7.045719 -3.891594 7.045719 -0.00096875 Z M 7.045719 -0.00096875 " transform="matrix(1, 0, 0, -1, 159.466, 98.542)"/>
</g>
<path fill="none" stroke-width="0.3985" stroke-linecap="butt" stroke-linejoin="miter" stroke="rgb(0%, 0%, 0%)" stroke-opacity="1" stroke-miterlimit="10" d="M -1.731063 -2.471062 L -31.496688 -44.982781 " transform="matrix(1, 0, 0, -1, 92.442, 2.818)"/>
<path fill="none" stroke-width="0.3985" stroke-linecap="butt" stroke-linejoin="miter" stroke="rgb(0%, 0%, 0%)" stroke-opacity="1" stroke-miterlimit="10" d="M -32.297469 -46.123406 L -49.059188 -70.068719 " transform="matrix(1, 0, 0, -1, 92.442, 2.818)"/>
<path fill="none" stroke-width="0.3985" stroke-linecap="butt" stroke-linejoin="miter" stroke="rgb(0%, 0%, 0%)" stroke-opacity="1" stroke-miterlimit="10" d="M -49.859969 -71.209344 L -62.867781 -89.791375 " transform="matrix(1, 0, 0, -1, 92.442, 2.818)"/>
<path fill="none" stroke-width="0.3985" stroke-linecap="butt" stroke-linejoin="miter" stroke="rgb(0%, 0%, 0%)" stroke-opacity="1" stroke-miterlimit="10" d="M -49.059188 -71.209344 L -32.297469 -95.154656 " transform="matrix(1, 0, 0, -1, 92.442, 2.818)"/>
<path fill="none" stroke-width="0.3985" stroke-linecap="butt" stroke-linejoin="miter" stroke="rgb(0%, 0%, 0%)" stroke-opacity="1" stroke-miterlimit="10" d="M -32.297469 -96.295281 L -63.391219 -140.709344 " transform="matrix(1, 0, 0, -1, 92.442, 2.818)"/>
<path fill="none" stroke-width="0.3985" stroke-linecap="butt" stroke-linejoin="miter" stroke="rgb(0%, 0%, 0%)" stroke-opacity="1" stroke-miterlimit="10" d="M -64.192 -141.849969 L -77.199813 -160.428094 " transform="matrix(1, 0, 0, -1, 92.442, 2.818)"/>
<path fill="none" stroke-width="0.3985" stroke-linecap="butt" stroke-linejoin="miter" stroke="rgb(0%, 0%, 0%)" stroke-opacity="1" stroke-miterlimit="10" d="M -63.391219 -141.849969 L -50.383406 -160.428094 " transform="matrix(1, 0, 0, -1, 92.442, 2.818)"/>
<path fill="none" stroke-width="0.3985" stroke-linecap="butt" stroke-linejoin="miter" stroke="rgb(0%, 0%, 0%)" stroke-opacity="1" stroke-miterlimit="10" d="M -31.496688 -96.295281 L -0.399031 -140.709344 " transform="matrix(1, 0, 0, -1, 92.442, 2.818)"/>
<path fill="none" stroke-width="0.3985" stroke-linecap="butt" stroke-linejoin="miter" stroke="rgb(0%, 0%, 0%)" stroke-opacity="1" stroke-miterlimit="10" d="M -0.399031 -141.849969 L -13.41075 -160.428094 " transform="matrix(1, 0, 0, -1, 92.442, 2.818)"/>
<path fill="none" stroke-width="0.3985" stroke-linecap="butt" stroke-linejoin="miter" stroke="rgb(0%, 0%, 0%)" stroke-opacity="1" stroke-miterlimit="10" d="M 0.397844 -141.849969 L 13.409562 -160.428094 " transform="matrix(1, 0, 0, -1, 92.442, 2.818)"/>
<path fill="none" stroke-width="0.3985" stroke-linecap="butt" stroke-linejoin="miter" stroke="rgb(0%, 0%, 0%)" stroke-opacity="1" stroke-miterlimit="10" d="M -31.496688 -46.123406 L -18.484969 -64.705437 " transform="matrix(1, 0, 0, -1, 92.442, 2.818)"/>
<path fill="none" stroke-width="0.3985" stroke-linecap="butt" stroke-linejoin="miter" stroke="rgb(0%, 0%, 0%)" stroke-opacity="1" stroke-miterlimit="10" d="M 1.729875 -2.471062 L 31.4955 -44.982781 " transform="matrix(1, 0, 0, -1, 92.442, 2.818)"/>
<path fill="none" stroke-width="0.3985" stroke-linecap="butt" stroke-linejoin="miter" stroke="rgb(0%, 0%, 0%)" stroke-opacity="1" stroke-miterlimit="10" d="M 31.4955 -46.123406 L 18.487687 -64.705437 " transform="matrix(1, 0, 0, -1, 92.442, 2.818)"/>
<path fill="none" stroke-width="0.3985" stroke-linecap="butt" stroke-linejoin="miter" stroke="rgb(0%, 0%, 0%)" stroke-opacity="1" stroke-miterlimit="10" d="M 32.296281 -46.123406 L 49.058 -70.068719 " transform="matrix(1, 0, 0, -1, 92.442, 2.818)"/>
<path fill="none" stroke-width="0.3985" stroke-linecap="butt" stroke-linejoin="miter" stroke="rgb(0%, 0%, 0%)" stroke-opacity="1" stroke-miterlimit="10" d="M 49.058 -71.209344 L 36.050187 -89.791375 " transform="matrix(1, 0, 0, -1, 92.442, 2.818)"/>
<path fill="none" stroke-width="0.3985" stroke-linecap="butt" stroke-linejoin="miter" stroke="rgb(0%, 0%, 0%)" stroke-opacity="1" stroke-miterlimit="10" d="M 49.858781 -71.209344 L 62.8705 -89.791375 " transform="matrix(1, 0, 0, -1, 92.442, 2.818)"/>
</svg>
