<?xml version="1.0" encoding="UTF-8"?>
<svg xmlns="http://www.w3.org/2000/svg" xmlns:xlink="http://www.w3.org/1999/xlink" width="142.25" height="179.236" viewBox="0 0 142.25 179.236">
<defs>
<clipPath id="clip-0">
<path clip-rule="nonzero" d="M 48 164 L 63 164 L 63 179.234375 L 48 179.234375 Z M 48 164 "/>
</clipPath>
<clipPath id="clip-1">
<path clip-rule="nonzero" d="M 42 159 L 69 159 L 69 179.234375 L 42 179.234375 Z M 42 159 "/>
</clipPath>
<clipPath id="clip-2">
<path clip-rule="nonzero" d="M 83 164 L 98 164 L 98 179.234375 L 83 179.234375 Z M 83 164 "/>
</clipPath>
<clipPath id="clip-3">
<path clip-rule="nonzero" d="M 78 159 L 104 159 L 104 179.234375 L 78 179.234375 Z M 78 159 "/>
</clipPath>
<clipPath id="clip-4">
<path clip-rule="nonzero" d="M 118 134 L 142.25 134 L 142.25 160 L 118 160 Z M 118 134 "/>
</clipPath>
</defs>
<path fill-rule="nonzero" fill="rgb(0%, 0%, 0%)" fill-opacity="1" d="M 33.09375 2.816406 C 33.09375 1.261719 31.832031 0 30.277344 0 C 28.71875 0 27.457031 1.261719 27.457031 2.816406 C 27.457031 4.375 28.71875 5.636719 30.277344 5.636719 C 31.832031 5.636719 33.09375 4.375 33.09375 2.816406 Z M 33.09375 2.816406 "/>
<path fill-rule="nonzero" fill="rgb(79.998779%, 79.998779%, 79.998779%)" fill-opacity="1" stroke-width="0.3985" stroke-linecap="butt" stroke-linejoin="miter" stroke="rgb(0%, 0%, 0%)" stroke-opacity="1" stroke-miterlimit="10" d="M 7.045813 0.00034375 C 7.045813 3.890969 3.889563 7.047219 -0.0010625 7.047219 C -3.891687 7.047219 -7.044031 3.890969 -7.044031 0.00034375 C -7.044031 -3.890281 -3.891687 -7.046531 -0.0010625 -7.046531 C 3.889563 -7.046531 7.045813 -3.890281 7.045813 0.00034375 Z M 7.045813 0.00034375 " transform="matrix(1, 0, 0, -1, 11.087, 30.223)"/>
<path fill-rule="nonzero" fill="rgb(0%, 0%, 0%)" fill-opacity="1" d="M 49.960938 30.222656 C 49.960938 29.949219 49.738281 29.726562 49.464844 29.726562 C 49.1875 29.726562 48.964844 29.949219 48.964844 30.222656 C 48.964844 30.5 49.1875 30.722656 49.464844 30.722656 C 49.738281 30.722656 49.960938 30.5 49.960938 30.222656 Z M 49.960938 30.222656 "/>
<path fill-rule="nonzero" fill="rgb(79.998779%, 79.998779%, 79.998779%)" fill-opacity="1" stroke-width="0.3985" stroke-linecap="butt" stroke-linejoin="miter" stroke="rgb(0%, 0%, 0%)" stroke-opacity="1" stroke-miterlimit="10" d="M 7.045313 0.00040625 C 7.045313 3.891031 3.892969 7.047281 -0.0015625 7.047281 C -3.892187 7.047281 -7.044531 3.891031 -7.044531 0.00040625 C -7.044531 -3.890219 -3.892187 -7.046469 -0.0015625 -7.046469 C 3.892969 -7.046469 7.045313 -3.890219 7.045313 0.00040625 Z M 7.045313 0.00040625 " transform="matrix(1, 0, 0, -1, 31.9, 55.309)"/>
<path fill-rule="nonzero" fill="rgb(0%, 0%, 0%)" fill-opacity="1" d="M 67.527344 55.308594 C 67.527344 55.035156 67.304688 54.8125 67.027344 54.8125 C 66.753906 54.8125 66.53125 55.035156 66.53125 55.308594 C 66.53125 55.585938 66.753906 55.808594 67.027344 55.808594 C 67.304688 55.808594 67.527344 55.585938 67.527344 55.308594 Z M 67.527344 55.308594 "/>
<path fill-rule="nonzero" fill="rgb(0%, 0%, 0%)" fill-opacity="1" d="M 38.519531 96.734375 C 38.519531 96.460938 38.296875 96.238281 38.023438 96.238281 C 37.746094 96.238281 37.523438 96.460938 37.523438 96.734375 C 37.523438 97.011719 37.746094 97.234375 38.023438 97.234375 C 38.296875 97.234375 38.519531 97.011719 38.519531 96.734375 Z M 38.519531 96.734375 "/>
<path fill-rule="nonzero" fill="rgb(79.998779%, 79.998779%, 79.998779%)" fill-opacity="1" stroke-width="0.3985" stroke-linecap="butt" stroke-linejoin="miter" stroke="rgb(0%, 0%, 0%)" stroke-opacity="1" stroke-miterlimit="10" d="M 7.045906 0.0006875 C 7.045906 3.891312 3.889656 7.043656 -0.00096875 7.043656 C -3.891594 7.043656 -7.043937 3.891312 -7.043937 0.0006875 C -7.043937 -3.889938 -3.891594 -7.046188 -0.00096875 -7.046188 C 3.889656 -7.046188 7.045906 -3.889938 7.045906 0.0006875 Z M 7.045906 0.0006875 " transform="matrix(1, 0, 0, -1, 20.458, 121.821)"/>
<path fill-rule="nonzero" fill="rgb(0%, 0%, 0%)" fill-opacity="1" d="M 56.085938 121.820312 C 56.085938 121.546875 55.859375 121.324219 55.585938 121.324219 C 55.3125 121.324219 55.085938 121.546875 55.085938 121.820312 C 55.085938 122.097656 55.3125 122.320312 55.585938 122.320312 C 55.859375 122.320312 56.085938 122.097656 56.085938 121.820312 Z M 56.085938 121.820312 "/>
<path fill-rule="nonzero" fill="rgb(79.998779%, 79.998779%, 79.998779%)" fill-opacity="1" stroke-width="0.3985" stroke-linecap="butt" stroke-linejoin="miter" stroke="rgb(0%, 0%, 0%)" stroke-opacity="1" stroke-miterlimit="10" d="M 7.044406 -0.00025 C 7.044406 3.890375 3.892063 7.046625 0.0014375 7.046625 C -3.889187 7.046625 -7.045437 3.890375 -7.045437 -0.00025 C -7.045437 -3.890875 -3.889187 -7.047125 0.0014375 -7.047125 C 3.892063 -7.047125 7.044406 -3.890875 7.044406 -0.00025 Z M 7.044406 -0.00025 " transform="matrix(1, 0, 0, -1, 38.022, 146.906)"/>
<path fill-rule="nonzero" fill="rgb(0%, 0%, 0%)" fill-opacity="1" d="M 73.648438 146.90625 C 73.648438 146.632812 73.425781 146.40625 73.148438 146.40625 C 72.875 146.40625 72.652344 146.632812 72.652344 146.90625 C 72.652344 147.179688 72.875 147.402344 73.148438 147.402344 C 73.425781 147.402344 73.648438 147.179688 73.648438 146.90625 Z M 73.648438 146.90625 "/>
<g clip-path="url(#clip-0)">
<path fill-rule="nonzero" fill="rgb(79.998779%, 79.998779%, 79.998779%)" fill-opacity="1" d="M 62.632812 171.992188 C 62.632812 168.101562 59.476562 164.945312 55.585938 164.945312 C 51.695312 164.945312 48.539062 168.101562 48.539062 171.992188 C 48.539062 175.882812 51.695312 179.035156 55.585938 179.035156 C 59.476562 179.035156 62.632812 175.882812 62.632812 171.992188 Z M 62.632812 171.992188 "/>
</g>
<g clip-path="url(#clip-1)">
<path fill="none" stroke-width="0.3985" stroke-linecap="butt" stroke-linejoin="miter" stroke="rgb(0%, 0%, 0%)" stroke-opacity="1" stroke-miterlimit="10" d="M 7.046813 -0.0011875 C 7.046813 3.889437 3.890563 7.045687 -0.0000625 7.045687 C -3.890687 7.045687 -7.046937 3.889437 -7.046937 -0.0011875 C -7.046937 -3.891813 -3.890687 -7.044156 -0.0000625 -7.044156 C 3.890563 -7.044156 7.046813 -3.891813 7.046813 -0.0011875 Z M 7.046813 -0.0011875 " transform="matrix(1, 0, 0, -1, 55.586, 171.991)"/>
</g>
<g clip-path="url(#clip-2)">
<path fill-rule="nonzero" fill="rgb(79.998779%, 79.998779%, 79.998779%)" fill-opacity="1" d="M 97.757812 171.992188 C 97.757812 168.101562 94.605469 164.945312 90.714844 164.945312 C 86.824219 164.945312 83.667969 168.101562 83.667969 171.992188 C 83.667969 175.882812 86.824219 179.035156 90.714844 179.035156 C 94.605469 179.035156 97.757812 175.882812 97.757812 171.992188 Z M 97.757812 171.992188 "/>
</g>
<g clip-path="url(#clip-3)">
<path fill="none" stroke-width="0.3985" stroke-linecap="butt" stroke-linejoin="miter" stroke="rgb(0%, 0%, 0%)" stroke-opacity="1" stroke-miterlimit="10" d="M 7.043813 -0.0011875 C 7.043813 3.889437 3.891469 7.045687 0.00084375 7.045687 C -3.889781 7.045687 -7.046031 3.889437 -7.046031 -0.0011875 C -7.046031 -3.891813 -3.889781 -7.044156 0.00084375 -7.044156 C 3.891469 -7.044156 7.043813 -3.891813 7.043813 -0.0011875 Z M 7.043813 -0.0011875 " transform="matrix(1, 0, 0, -1, 90.714, 171.991)"/>
</g>
<path fill-rule="nonzero" fill="rgb(0%, 0%, 0%)" fill-opacity="1" d="M 96.53125 96.734375 C 96.53125 96.460938 96.308594 96.238281 96.035156 96.238281 C 95.761719 96.238281 95.535156 96.460938 95.535156 96.734375 C 95.535156 97.011719 95.761719 97.234375 96.035156 97.234375 C 96.308594 97.234375 96.53125 97.011719 96.53125 96.734375 Z M 96.53125 96.734375 "/>
<path fill-rule="nonzero" fill="rgb(79.998779%, 79.998779%, 79.998779%)" fill-opacity="1" stroke-width="0.3985" stroke-linecap="butt" stroke-linejoin="miter" stroke="rgb(0%, 0%, 0%)" stroke-opacity="1" stroke-miterlimit="10" d="M 7.044625 0.0006875 C 7.044625 3.891312 3.892281 7.043656 0.00165625 7.043656 C -3.892875 7.043656 -7.045219 3.891312 -7.045219 0.0006875 C -7.045219 -3.889938 -3.892875 -7.046188 0.00165625 -7.046188 C 3.892281 -7.046188 7.044625 -3.889938 7.044625 0.0006875 Z M 7.044625 0.0006875 " transform="matrix(1, 0, 0, -1, 78.471, 121.821)"/>
<path fill-rule="nonzero" fill="rgb(0%, 0%, 0%)" fill-opacity="1" d="M 114.097656 121.820312 C 114.097656 121.546875 113.875 121.324219 113.597656 121.324219 C 113.324219 121.324219 113.101562 121.546875 113.101562 121.820312 C 113.101562 122.097656 113.324219 122.320312 113.597656 122.320312 C 113.875 122.320312 114.097656 122.097656 114.097656 121.820312 Z M 114.097656 121.820312 "/>
<path fill-rule="nonzero" fill="rgb(79.998779%, 79.998779%, 79.998779%)" fill-opacity="1" stroke-width="0.3985" stroke-linecap="butt" stroke-linejoin="miter" stroke="rgb(0%, 0%, 0%)" stroke-opacity="1" stroke-miterlimit="10" d="M 7.047031 -0.00025 C 7.047031 3.890375 3.890781 7.046625 0.00015625 7.046625 C -3.890469 7.046625 -7.046719 3.890375 -7.046719 -0.00025 C -7.046719 -3.890875 -3.890469 -7.047125 0.00015625 -7.047125 C 3.890781 -7.047125 7.047031 -3.890875 7.047031 -0.00025 Z M 7.047031 -0.00025 " transform="matrix(1, 0, 0, -1, 96.035, 146.906)"/>
<path fill-rule="nonzero" fill="rgb(79.998779%, 79.998779%, 79.998779%)" fill-opacity="1" d="M 138.207031 146.90625 C 138.207031 143.015625 135.054688 139.859375 131.164062 139.859375 C 127.273438 139.859375 124.117188 143.015625 124.117188 146.90625 C 124.117188 150.796875 127.273438 153.953125 131.164062 153.953125 C 135.054688 153.953125 138.207031 150.796875 138.207031 146.90625 Z M 138.207031 146.90625 "/>
<g clip-path="url(#clip-4)">
<path fill="none" stroke-width="0.3985" stroke-linecap="butt" stroke-linejoin="miter" stroke="rgb(0%, 0%, 0%)" stroke-opacity="1" stroke-miterlimit="10" d="M 7.044031 -0.00025 C 7.044031 3.890375 3.891687 7.046625 0.0010625 7.046625 C -3.889563 7.046625 -7.045813 3.890375 -7.045813 -0.00025 C -7.045813 -3.890875 -3.889563 -7.047125 0.0010625 -7.047125 C 3.891687 -7.047125 7.044031 -3.890875 7.044031 -0.00025 Z M 7.044031 -0.00025 " transform="matrix(1, 0, 0, -1, 131.163, 146.906)"/>
</g>
<path fill="none" stroke-width="0.3985" stroke-linecap="butt" stroke-linejoin="miter" stroke="rgb(0%, 0%, 0%)" stroke-opacity="1" stroke-miterlimit="10" d="M -1.729125 -2.471063 L -15.033812 -21.471063 " transform="matrix(1, 0, 0, -1, 30.276, 2.818)"/>
<path fill="none" stroke-width="0.3985" stroke-linecap="butt" stroke-linejoin="miter" stroke="rgb(0%, 0%, 0%)" stroke-opacity="1" stroke-miterlimit="10" d="M 1.731813 -2.471063 L 18.790406 -26.834344 " transform="matrix(1, 0, 0, -1, 30.276, 2.818)"/>
<path fill="none" stroke-width="0.3985" stroke-linecap="butt" stroke-linejoin="miter" stroke="rgb(0%, 0%, 0%)" stroke-opacity="1" stroke-miterlimit="10" d="M 18.790406 -27.974969 L 5.778688 -46.557 " transform="matrix(1, 0, 0, -1, 30.276, 2.818)"/>
<path fill="none" stroke-width="0.3985" stroke-linecap="butt" stroke-linejoin="miter" stroke="rgb(0%, 0%, 0%)" stroke-opacity="1" stroke-miterlimit="10" d="M 19.587281 -27.974969 L 36.352906 -51.920281 " transform="matrix(1, 0, 0, -1, 30.276, 2.818)"/>
<path fill="none" stroke-width="0.3985" stroke-linecap="butt" stroke-linejoin="miter" stroke="rgb(0%, 0%, 0%)" stroke-opacity="1" stroke-miterlimit="10" d="M 36.352906 -53.060906 L 8.145875 -93.346063 " transform="matrix(1, 0, 0, -1, 30.276, 2.818)"/>
<path fill="none" stroke-width="0.3985" stroke-linecap="butt" stroke-linejoin="miter" stroke="rgb(0%, 0%, 0%)" stroke-opacity="1" stroke-miterlimit="10" d="M 7.345094 -94.490594 L -5.662719 -113.068719 " transform="matrix(1, 0, 0, -1, 30.276, 2.818)"/>
<path fill="none" stroke-width="0.3985" stroke-linecap="butt" stroke-linejoin="miter" stroke="rgb(0%, 0%, 0%)" stroke-opacity="1" stroke-miterlimit="10" d="M 8.145875 -94.490594 L 24.9115 -118.432 " transform="matrix(1, 0, 0, -1, 30.276, 2.818)"/>
<path fill="none" stroke-width="0.3985" stroke-linecap="butt" stroke-linejoin="miter" stroke="rgb(0%, 0%, 0%)" stroke-opacity="1" stroke-miterlimit="10" d="M 24.9115 -119.576531 L 11.899781 -138.154656 " transform="matrix(1, 0, 0, -1, 30.276, 2.818)"/>
<path fill="none" stroke-width="0.3985" stroke-linecap="butt" stroke-linejoin="miter" stroke="rgb(0%, 0%, 0%)" stroke-opacity="1" stroke-miterlimit="10" d="M 25.712281 -119.576531 L 42.474 -143.517938 " transform="matrix(1, 0, 0, -1, 30.276, 2.818)"/>
<path fill="none" stroke-width="0.3985" stroke-linecap="butt" stroke-linejoin="miter" stroke="rgb(0%, 0%, 0%)" stroke-opacity="1" stroke-miterlimit="10" d="M 42.474 -144.662469 L 29.466188 -163.240594 " transform="matrix(1, 0, 0, -1, 30.276, 2.818)"/>
<path fill="none" stroke-width="0.3985" stroke-linecap="butt" stroke-linejoin="miter" stroke="rgb(0%, 0%, 0%)" stroke-opacity="1" stroke-miterlimit="10" d="M 43.274781 -144.662469 L 56.282594 -163.240594 " transform="matrix(1, 0, 0, -1, 30.276, 2.818)"/>
<path fill="none" stroke-width="0.3985" stroke-linecap="butt" stroke-linejoin="miter" stroke="rgb(0%, 0%, 0%)" stroke-opacity="1" stroke-miterlimit="10" d="M 37.153688 -53.060906 L 65.360719 -93.346063 " transform="matrix(1, 0, 0, -1, 30.276, 2.818)"/>
<path fill="none" stroke-width="0.3985" stroke-linecap="butt" stroke-linejoin="miter" stroke="rgb(0%, 0%, 0%)" stroke-opacity="1" stroke-miterlimit="10" d="M 65.360719 -94.490594 L 52.349 -113.068719 " transform="matrix(1, 0, 0, -1, 30.276, 2.818)"/>
<path fill="none" stroke-width="0.3985" stroke-linecap="butt" stroke-linejoin="miter" stroke="rgb(0%, 0%, 0%)" stroke-opacity="1" stroke-miterlimit="10" d="M 66.1615 -94.490594 L 82.923219 -118.432 " transform="matrix(1, 0, 0, -1, 30.276, 2.818)"/>
<path fill="none" stroke-width="0.3985" stroke-linecap="butt" stroke-linejoin="miter" stroke="rgb(0%, 0%, 0%)" stroke-opacity="1" stroke-miterlimit="10" d="M 82.923219 -119.576531 L 69.915406 -138.154656 " transform="matrix(1, 0, 0, -1, 30.276, 2.818)"/>
<path fill="none" stroke-width="0.3985" stroke-linecap="butt" stroke-linejoin="miter" stroke="rgb(0%, 0%, 0%)" stroke-opacity="1" stroke-miterlimit="10" d="M 83.724 -119.576531 L 96.731813 -138.154656 " transform="matrix(1, 0, 0, -1, 30.276, 2.818)"/>
</svg>
