<?xml version="1.0" encoding="UTF-8"?>
<svg xmlns="http://www.w3.org/2000/svg" xmlns:xlink="http://www.w3.org/1999/xlink" width="173.785" height="183.362" viewBox="0 0 173.785 183.362">
<defs>
<clipPath id="clip-0">
<path clip-rule="nonzero" d="M 120 169 L 135 169 L 135 183.363281 L 120 183.363281 Z M 120 169 "/>
</clipPath>
<clipPath id="clip-1">
<path clip-rule="nonzero" d="M 114 163 L 141 163 L 141 183.363281 L 114 183.363281 Z M 114 163 "/>
</clipPath>
<clipPath id="clip-2">
<path clip-rule="nonzero" d="M 155 169 L 170 169 L 170 183.363281 L 155 183.363281 Z M 155 169 "/>
</clipPath>
<clipPath id="clip-3">
<path clip-rule="nonzero" d="M 150 163 L 173.785156 163 L 173.785156 183.363281 L 150 183.363281 Z M 150 163 "/>
</clipPath>
</defs>
<path fill-rule="nonzero" fill="rgb(0%, 0%, 0%)" fill-opacity="1" d="M 44.175781 2.816406 C 44.175781 1.261719 42.914062 0 41.359375 0 C 39.800781 0 38.539062 1.261719 38.539062 2.816406 C 38.539062 4.375 39.800781 5.636719 41.359375 5.636719 C 42.914062 5.636719 44.175781 4.375 44.175781 2.816406 Z M 44.175781 2.816406 "/>
<path fill-rule="nonzero" fill="rgb(79.998779%, 79.998779%, 79.998779%)" fill-opacity="1" stroke-width="0.3985" stroke-linecap="butt" stroke-linejoin="miter" stroke="rgb(0%, 0%, 0%)" stroke-opacity="1" stroke-miterlimit="10" d="M 7.044844 0.00134375 C 7.044844 3.891969 3.8925 7.044313 0.001875 7.044313 C -3.892656 7.044313 -7.045 3.891969 -7.045 0.00134375 C -7.045 -3.889281 -3.892656 -7.045531 0.001875 -7.045531 C 3.8925 -7.045531 7.044844 -3.889281 7.044844 0.00134375 Z M 7.044844 0.00134375 " transform="matrix(1, 0, 0, -1, 22.17, 30.224)"/>
<path fill-rule="nonzero" fill="rgb(0%, 0%, 0%)" fill-opacity="1" d="M 61.046875 30.222656 C 61.046875 29.949219 60.820312 29.726562 60.546875 29.726562 C 60.273438 29.726562 60.050781 29.949219 60.050781 30.222656 C 60.050781 30.5 60.273438 30.722656 60.546875 30.722656 C 60.820312 30.722656 61.046875 30.5 61.046875 30.222656 Z M 61.046875 30.222656 "/>
<path fill-rule="nonzero" fill="rgb(0%, 0%, 0%)" fill-opacity="1" d="M 29.148438 75.777344 C 29.148438 75.5 28.925781 75.277344 28.652344 75.277344 C 28.375 75.277344 28.152344 75.5 28.152344 75.777344 C 28.152344 76.050781 28.375 76.273438 28.652344 76.273438 C 28.925781 76.273438 29.148438 76.050781 29.148438 75.777344 Z M 29.148438 75.777344 "/>
<path fill-rule="nonzero" fill="rgb(79.998779%, 79.998779%, 79.998779%)" fill-opacity="1" stroke-width="0.3985" stroke-linecap="butt" stroke-linejoin="miter" stroke="rgb(0%, 0%, 0%)" stroke-opacity="1" stroke-miterlimit="10" d="M 7.045813 -0.00128125 C 7.045813 3.889344 3.889563 7.045594 -0.0010625 7.045594 C -3.891687 7.045594 -7.044031 3.889344 -7.044031 -0.00128125 C -7.044031 -3.891906 -3.891687 -7.04425 -0.0010625 -7.04425 C 3.889563 -7.04425 7.045813 -3.891906 7.045813 -0.00128125 Z M 7.045813 -0.00128125 " transform="matrix(1, 0, 0, -1, 11.087, 100.862)"/>
<path fill-rule="nonzero" fill="rgb(79.998779%, 79.998779%, 79.998779%)" fill-opacity="1" stroke-width="0.3985" stroke-linecap="butt" stroke-linejoin="miter" stroke="rgb(0%, 0%, 0%)" stroke-opacity="1" stroke-miterlimit="10" d="M 7.046719 -0.00128125 C 7.046719 3.889344 3.890469 7.045594 -0.00015625 7.045594 C -3.890781 7.045594 -7.047031 3.889344 -7.047031 -0.00128125 C -7.047031 -3.891906 -3.890781 -7.04425 -0.00015625 -7.04425 C 3.890469 -7.04425 7.046719 -3.891906 7.046719 -0.00128125 Z M 7.046719 -0.00128125 " transform="matrix(1, 0, 0, -1, 46.215, 100.862)"/>
<path fill-rule="nonzero" fill="rgb(0%, 0%, 0%)" fill-opacity="1" d="M 92.941406 75.777344 C 92.941406 75.5 92.71875 75.277344 92.441406 75.277344 C 92.167969 75.277344 91.945312 75.5 91.945312 75.777344 C 91.945312 76.050781 92.167969 76.273438 92.441406 76.273438 C 92.71875 76.273438 92.941406 76.050781 92.941406 75.777344 Z M 92.941406 75.777344 "/>
<path fill-rule="nonzero" fill="rgb(79.998779%, 79.998779%, 79.998779%)" fill-opacity="1" stroke-width="0.3985" stroke-linecap="butt" stroke-linejoin="miter" stroke="rgb(0%, 0%, 0%)" stroke-opacity="1" stroke-miterlimit="10" d="M 7.043875 -0.00128125 C 7.043875 3.889344 3.891531 7.045594 0.00090625 7.045594 C -3.889719 7.045594 -7.045969 3.889344 -7.045969 -0.00128125 C -7.045969 -3.891906 -3.889719 -7.04425 0.00090625 -7.04425 C 3.891531 -7.04425 7.043875 -3.891906 7.043875 -0.00128125 Z M 7.043875 -0.00128125 " transform="matrix(1, 0, 0, -1, 74.878, 100.862)"/>
<path fill-rule="nonzero" fill="rgb(0%, 0%, 0%)" fill-opacity="1" d="M 110.503906 100.863281 C 110.503906 100.585938 110.28125 100.363281 110.007812 100.363281 C 109.730469 100.363281 109.507812 100.585938 109.507812 100.863281 C 109.507812 101.136719 109.730469 101.359375 110.007812 101.359375 C 110.28125 101.359375 110.503906 101.136719 110.503906 100.863281 Z M 110.503906 100.863281 "/>
<path fill-rule="nonzero" fill="rgb(79.998779%, 79.998779%, 79.998779%)" fill-opacity="1" stroke-width="0.3985" stroke-linecap="butt" stroke-linejoin="miter" stroke="rgb(0%, 0%, 0%)" stroke-opacity="1" stroke-miterlimit="10" d="M 7.046281 0.0016875 C 7.046281 3.892313 3.890031 7.044656 -0.00059375 7.044656 C -3.891219 7.044656 -7.043562 3.892313 -7.043562 0.0016875 C -7.043562 -3.892844 -3.891219 -7.045187 -0.00059375 -7.045187 C 3.890031 -7.045187 7.046281 -3.892844 7.046281 0.0016875 Z M 7.046281 0.0016875 " transform="matrix(1, 0, 0, -1, 92.442, 125.947)"/>
<path fill-rule="nonzero" fill="rgb(0%, 0%, 0%)" fill-opacity="1" d="M 128.066406 125.945312 C 128.066406 125.671875 127.84375 125.449219 127.570312 125.449219 C 127.292969 125.449219 127.070312 125.671875 127.070312 125.945312 C 127.070312 126.222656 127.292969 126.445312 127.570312 126.445312 C 127.84375 126.445312 128.066406 126.222656 128.066406 125.945312 Z M 128.066406 125.945312 "/>
<path fill-rule="nonzero" fill="rgb(79.998779%, 79.998779%, 79.998779%)" fill-opacity="1" stroke-width="0.3985" stroke-linecap="butt" stroke-linejoin="miter" stroke="rgb(0%, 0%, 0%)" stroke-opacity="1" stroke-miterlimit="10" d="M 7.044781 0.00075 C 7.044781 3.891375 3.892437 7.043719 0.0018125 7.043719 C -3.892719 7.043719 -7.045063 3.891375 -7.045063 0.00075 C -7.045063 -3.889875 -3.892719 -7.046125 0.0018125 -7.046125 C 3.892437 -7.046125 7.044781 -3.889875 7.044781 0.00075 Z M 7.044781 0.00075 " transform="matrix(1, 0, 0, -1, 110.006, 151.032)"/>
<path fill-rule="nonzero" fill="rgb(0%, 0%, 0%)" fill-opacity="1" d="M 145.632812 151.03125 C 145.632812 150.757812 145.410156 150.535156 145.132812 150.535156 C 144.859375 150.535156 144.636719 150.757812 144.636719 151.03125 C 144.636719 151.308594 144.859375 151.53125 145.132812 151.53125 C 145.410156 151.53125 145.632812 151.308594 145.632812 151.03125 Z M 145.632812 151.03125 "/>
<g clip-path="url(#clip-0)">
<path fill-rule="nonzero" fill="rgb(79.998779%, 79.998779%, 79.998779%)" fill-opacity="1" d="M 134.617188 176.117188 C 134.617188 172.226562 131.460938 169.070312 127.570312 169.070312 C 123.679688 169.070312 120.523438 172.226562 120.523438 176.117188 C 120.523438 180.007812 123.679688 183.164062 127.570312 183.164062 C 131.460938 183.164062 134.617188 180.007812 134.617188 176.117188 Z M 134.617188 176.117188 "/>
</g>
<g clip-path="url(#clip-1)">
<path fill="none" stroke-width="0.3985" stroke-linecap="butt" stroke-linejoin="miter" stroke="rgb(0%, 0%, 0%)" stroke-opacity="1" stroke-miterlimit="10" d="M 7.047188 -0.0001875 C 7.047188 3.890438 3.890938 7.046688 0.0003125 7.046688 C -3.890312 7.046688 -7.046562 3.890438 -7.046562 -0.0001875 C -7.046562 -3.890812 -3.890312 -7.047062 0.0003125 -7.047062 C 3.890938 -7.047062 7.047188 -3.890812 7.047188 -0.0001875 Z M 7.047188 -0.0001875 " transform="matrix(1, 0, 0, -1, 127.57, 176.117)"/>
</g>
<g clip-path="url(#clip-2)">
<path fill-rule="nonzero" fill="rgb(79.998779%, 79.998779%, 79.998779%)" fill-opacity="1" d="M 169.742188 176.117188 C 169.742188 172.226562 166.589844 169.070312 162.699219 169.070312 C 158.808594 169.070312 155.652344 172.226562 155.652344 176.117188 C 155.652344 180.007812 158.808594 183.164062 162.699219 183.164062 C 166.589844 183.164062 169.742188 180.007812 169.742188 176.117188 Z M 169.742188 176.117188 "/>
</g>
<g clip-path="url(#clip-3)">
<path fill="none" stroke-width="0.3985" stroke-linecap="butt" stroke-linejoin="miter" stroke="rgb(0%, 0%, 0%)" stroke-opacity="1" stroke-miterlimit="10" d="M 7.044187 -0.0001875 C 7.044187 3.890438 3.891844 7.046688 0.00121875 7.046688 C -3.889406 7.046688 -7.045656 3.890438 -7.045656 -0.0001875 C -7.045656 -3.890812 -3.889406 -7.047062 0.00121875 -7.047062 C 3.891844 -7.047062 7.044187 -3.890812 7.044187 -0.0001875 Z M 7.044187 -0.0001875 " transform="matrix(1, 0, 0, -1, 162.698, 176.117)"/>
</g>
<path fill="none" stroke-width="0.3985" stroke-linecap="butt" stroke-linejoin="miter" stroke="rgb(0%, 0%, 0%)" stroke-opacity="1" stroke-miterlimit="10" d="M -1.729094 -2.471062 L -15.033781 -21.471062 " transform="matrix(1, 0, 0, -1, 41.358, 2.818)"/>
<path fill="none" stroke-width="0.3985" stroke-linecap="butt" stroke-linejoin="miter" stroke="rgb(0%, 0%, 0%)" stroke-opacity="1" stroke-miterlimit="10" d="M 1.731844 -2.471062 L 18.790438 -26.834344 " transform="matrix(1, 0, 0, -1, 41.358, 2.818)"/>
<path fill="none" stroke-width="0.3985" stroke-linecap="butt" stroke-linejoin="miter" stroke="rgb(0%, 0%, 0%)" stroke-opacity="1" stroke-miterlimit="10" d="M 18.790438 -27.974969 L -12.307219 -72.389031 " transform="matrix(1, 0, 0, -1, 41.358, 2.818)"/>
<path fill="none" stroke-width="0.3985" stroke-linecap="butt" stroke-linejoin="miter" stroke="rgb(0%, 0%, 0%)" stroke-opacity="1" stroke-miterlimit="10" d="M -13.108 -73.529656 L -26.115812 -92.111687 " transform="matrix(1, 0, 0, -1, 41.358, 2.818)"/>
<path fill="none" stroke-width="0.3985" stroke-linecap="butt" stroke-linejoin="miter" stroke="rgb(0%, 0%, 0%)" stroke-opacity="1" stroke-miterlimit="10" d="M -12.307219 -73.529656 L 0.700594 -92.111687 " transform="matrix(1, 0, 0, -1, 41.358, 2.818)"/>
<path fill="none" stroke-width="0.3985" stroke-linecap="butt" stroke-linejoin="miter" stroke="rgb(0%, 0%, 0%)" stroke-opacity="1" stroke-miterlimit="10" d="M 19.587313 -27.974969 L 50.684969 -72.389031 " transform="matrix(1, 0, 0, -1, 41.358, 2.818)"/>
<path fill="none" stroke-width="0.3985" stroke-linecap="butt" stroke-linejoin="miter" stroke="rgb(0%, 0%, 0%)" stroke-opacity="1" stroke-miterlimit="10" d="M 50.684969 -73.529656 L 37.677156 -92.111687 " transform="matrix(1, 0, 0, -1, 41.358, 2.818)"/>
<path fill="none" stroke-width="0.3985" stroke-linecap="butt" stroke-linejoin="miter" stroke="rgb(0%, 0%, 0%)" stroke-opacity="1" stroke-miterlimit="10" d="M 51.48575 -73.529656 L 68.247469 -97.474969 " transform="matrix(1, 0, 0, -1, 41.358, 2.818)"/>
<path fill="none" stroke-width="0.3985" stroke-linecap="butt" stroke-linejoin="miter" stroke="rgb(0%, 0%, 0%)" stroke-opacity="1" stroke-miterlimit="10" d="M 68.247469 -98.615594 L 55.239656 -117.193719 " transform="matrix(1, 0, 0, -1, 41.358, 2.818)"/>
<path fill="none" stroke-width="0.3985" stroke-linecap="butt" stroke-linejoin="miter" stroke="rgb(0%, 0%, 0%)" stroke-opacity="1" stroke-miterlimit="10" d="M 69.04825 -98.615594 L 85.813875 -122.557 " transform="matrix(1, 0, 0, -1, 41.358, 2.818)"/>
<path fill="none" stroke-width="0.3985" stroke-linecap="butt" stroke-linejoin="miter" stroke="rgb(0%, 0%, 0%)" stroke-opacity="1" stroke-miterlimit="10" d="M 85.813875 -123.701531 L 72.802156 -142.279656 " transform="matrix(1, 0, 0, -1, 41.358, 2.818)"/>
<path fill="none" stroke-width="0.3985" stroke-linecap="butt" stroke-linejoin="miter" stroke="rgb(0%, 0%, 0%)" stroke-opacity="1" stroke-miterlimit="10" d="M 86.614656 -123.701531 L 103.376375 -147.642937 " transform="matrix(1, 0, 0, -1, 41.358, 2.818)"/>
<path fill="none" stroke-width="0.3985" stroke-linecap="butt" stroke-linejoin="miter" stroke="rgb(0%, 0%, 0%)" stroke-opacity="1" stroke-miterlimit="10" d="M 103.376375 -148.787469 L 90.368562 -167.365594 " transform="matrix(1, 0, 0, -1, 41.358, 2.818)"/>
<path fill="none" stroke-width="0.3985" stroke-linecap="butt" stroke-linejoin="miter" stroke="rgb(0%, 0%, 0%)" stroke-opacity="1" stroke-miterlimit="10" d="M 104.177156 -148.787469 L 117.184969 -167.365594 " transform="matrix(1, 0, 0, -1, 41.358, 2.818)"/>
</svg>
