<?xml version="1.0" encoding="UTF-8"?>
<svg xmlns="http://www.w3.org/2000/svg" xmlns:xlink="http://www.w3.org/1999/xlink" width="147.21" height="122.127" viewBox="0 0 147.21 122.127">
<defs>
<clipPath id="clip-0">
<path clip-rule="nonzero" d="M 24 102 L 50 102 L 50 122.128906 L 24 122.128906 Z M 24 102 "/>
</clipPath>
<clipPath id="clip-1">
<path clip-rule="nonzero" d="M 59 102 L 86 102 L 86 122.128906 L 59 122.128906 Z M 59 102 "/>
</clipPath>
<clipPath id="clip-2">
<path clip-rule="nonzero" d="M 88 102 L 114 102 L 114 122.128906 L 88 122.128906 Z M 88 102 "/>
</clipPath>
<clipPath id="clip-3">
<path clip-rule="nonzero" d="M 123 102 L 147.210938 102 L 147.210938 122.128906 L 123 122.128906 Z M 123 102 "/>
</clipPath>
</defs>
<path fill-rule="nonzero" fill="rgb(0%, 0%, 0%)" fill-opacity="1" d="M 60.476562 2.816406 C 60.476562 1.261719 59.214844 0 57.65625 0 C 56.101562 0 54.839844 1.261719 54.839844 2.816406 C 54.839844 4.375 56.101562 5.636719 57.65625 5.636719 C 59.214844 5.636719 60.476562 4.375 60.476562 2.816406 Z M 60.476562 2.816406 "/>
<path fill-rule="nonzero" fill="rgb(0%, 0%, 0%)" fill-opacity="1" d="M 29.148438 44.242188 C 29.148438 43.96875 28.925781 43.746094 28.652344 43.746094 C 28.375 43.746094 28.152344 43.96875 28.152344 44.242188 C 28.152344 44.519531 28.375 44.742188 28.652344 44.742188 C 28.925781 44.742188 29.148438 44.519531 29.148438 44.242188 Z M 29.148438 44.242188 "/>
<path fill-rule="nonzero" fill="rgb(79.998779%, 79.998779%, 79.998779%)" fill-opacity="1" stroke-width="0.3985" stroke-linecap="butt" stroke-linejoin="miter" stroke="rgb(0%, 0%, 0%)" stroke-opacity="1" stroke-miterlimit="10" d="M 7.045813 0.000875 C 7.045813 3.8915 3.889563 7.043844 -0.0010625 7.043844 C -3.891687 7.043844 -7.044031 3.8915 -7.044031 0.000875 C -7.044031 -3.88975 -3.891687 -7.046 -0.0010625 -7.046 C 3.889563 -7.046 7.045813 -3.88975 7.045813 0.000875 Z M 7.045813 0.000875 " transform="matrix(1, 0, 0, -1, 11.087, 69.329)"/>
<path fill-rule="nonzero" fill="rgb(79.998779%, 79.998779%, 79.998779%)" fill-opacity="1" stroke-width="0.3985" stroke-linecap="butt" stroke-linejoin="miter" stroke="rgb(0%, 0%, 0%)" stroke-opacity="1" stroke-miterlimit="10" d="M 7.046719 0.000875 C 7.046719 3.8915 3.890469 7.043844 -0.00015625 7.043844 C -3.890781 7.043844 -7.047031 3.8915 -7.047031 0.000875 C -7.047031 -3.88975 -3.890781 -7.046 -0.00015625 -7.046 C 3.890469 -7.046 7.046719 -3.88975 7.046719 0.000875 Z M 7.046719 0.000875 " transform="matrix(1, 0, 0, -1, 46.215, 69.329)"/>
<path fill-rule="nonzero" fill="rgb(0%, 0%, 0%)" fill-opacity="1" d="M 87.160156 44.242188 C 87.160156 43.96875 86.9375 43.746094 86.664062 43.746094 C 86.386719 43.746094 86.164062 43.96875 86.164062 44.242188 C 86.164062 44.519531 86.386719 44.742188 86.664062 44.742188 C 86.9375 44.742188 87.160156 44.519531 87.160156 44.242188 Z M 87.160156 44.242188 "/>
<path fill-rule="nonzero" fill="rgb(0%, 0%, 0%)" fill-opacity="1" d="M 55.265625 89.796875 C 55.265625 89.523438 55.042969 89.300781 54.769531 89.300781 C 54.492188 89.300781 54.269531 89.523438 54.269531 89.796875 C 54.269531 90.070312 54.492188 90.296875 54.769531 90.296875 C 55.042969 90.296875 55.265625 90.070312 55.265625 89.796875 Z M 55.265625 89.796875 "/>
<path fill-rule="nonzero" fill="rgb(79.998779%, 79.998779%, 79.998779%)" fill-opacity="1" d="M 44.25 114.882812 C 44.25 110.992188 41.09375 107.835938 37.203125 107.835938 C 33.3125 107.835938 30.15625 110.992188 30.15625 114.882812 C 30.15625 118.773438 33.3125 121.925781 37.203125 121.925781 C 41.09375 121.925781 44.25 118.773438 44.25 114.882812 Z M 44.25 114.882812 "/>
<g clip-path="url(#clip-0)">
<path fill="none" stroke-width="0.3985" stroke-linecap="butt" stroke-linejoin="miter" stroke="rgb(0%, 0%, 0%)" stroke-opacity="1" stroke-miterlimit="10" d="M 7.047 -0.0008125 C 7.047 3.889813 3.89075 7.046063 0.000125 7.046063 C -3.8905 7.046063 -7.04675 3.889813 -7.04675 -0.0008125 C -7.04675 -3.891437 -3.8905 -7.043781 0.000125 -7.043781 C 3.89075 -7.043781 7.047 -3.891437 7.047 -0.0008125 Z M 7.047 -0.0008125 " transform="matrix(1, 0, 0, -1, 37.203, 114.882)"/>
</g>
<path fill-rule="nonzero" fill="rgb(79.998779%, 79.998779%, 79.998779%)" fill-opacity="1" d="M 79.378906 114.882812 C 79.378906 110.992188 76.222656 107.835938 72.332031 107.835938 C 68.441406 107.835938 65.285156 110.992188 65.285156 114.882812 C 65.285156 118.773438 68.441406 121.925781 72.332031 121.925781 C 76.222656 121.925781 79.378906 118.773438 79.378906 114.882812 Z M 79.378906 114.882812 "/>
<g clip-path="url(#clip-1)">
<path fill="none" stroke-width="0.3985" stroke-linecap="butt" stroke-linejoin="miter" stroke="rgb(0%, 0%, 0%)" stroke-opacity="1" stroke-miterlimit="10" d="M 7.046906 -0.0008125 C 7.046906 3.889813 3.890656 7.046063 0.00003125 7.046063 C -3.890594 7.046063 -7.046844 3.889813 -7.046844 -0.0008125 C -7.046844 -3.891437 -3.890594 -7.043781 0.00003125 -7.043781 C 3.890656 -7.043781 7.046906 -3.891437 7.046906 -0.0008125 Z M 7.046906 -0.0008125 " transform="matrix(1, 0, 0, -1, 72.332, 114.882)"/>
</g>
<path fill-rule="nonzero" fill="rgb(0%, 0%, 0%)" fill-opacity="1" d="M 119.054688 89.796875 C 119.054688 89.523438 118.832031 89.300781 118.558594 89.300781 C 118.28125 89.300781 118.058594 89.523438 118.058594 89.796875 C 118.058594 90.070312 118.28125 90.296875 118.558594 90.296875 C 118.832031 90.296875 119.054688 90.070312 119.054688 89.796875 Z M 119.054688 89.796875 "/>
<path fill-rule="nonzero" fill="rgb(79.998779%, 79.998779%, 79.998779%)" fill-opacity="1" d="M 108.039062 114.882812 C 108.039062 110.992188 104.886719 107.835938 100.992188 107.835938 C 97.101562 107.835938 93.949219 110.992188 93.949219 114.882812 C 93.949219 118.773438 97.101562 121.925781 100.992188 121.925781 C 104.886719 121.925781 108.039062 118.773438 108.039062 114.882812 Z M 108.039062 114.882812 "/>
<g clip-path="url(#clip-2)">
<path fill="none" stroke-width="0.3985" stroke-linecap="butt" stroke-linejoin="miter" stroke="rgb(0%, 0%, 0%)" stroke-opacity="1" stroke-miterlimit="10" d="M 7.045063 -0.0008125 C 7.045063 3.889813 3.892719 7.046063 -0.0018125 7.046063 C -3.892437 7.046063 -7.044781 3.889813 -7.044781 -0.0008125 C -7.044781 -3.891437 -3.892437 -7.043781 -0.0018125 -7.043781 C 3.892719 -7.043781 7.045063 -3.891437 7.045063 -0.0008125 Z M 7.045063 -0.0008125 " transform="matrix(1, 0, 0, -1, 100.994, 114.882)"/>
</g>
<path fill-rule="nonzero" fill="rgb(79.998779%, 79.998779%, 79.998779%)" fill-opacity="1" d="M 143.167969 114.882812 C 143.167969 110.992188 140.011719 107.835938 136.121094 107.835938 C 132.230469 107.835938 129.078125 110.992188 129.078125 114.882812 C 129.078125 118.773438 132.230469 121.925781 136.121094 121.925781 C 140.011719 121.925781 143.167969 118.773438 143.167969 114.882812 Z M 143.167969 114.882812 "/>
<g clip-path="url(#clip-3)">
<path fill="none" stroke-width="0.3985" stroke-linecap="butt" stroke-linejoin="miter" stroke="rgb(0%, 0%, 0%)" stroke-opacity="1" stroke-miterlimit="10" d="M 7.045969 -0.0008125 C 7.045969 3.889813 3.889719 7.046063 -0.00090625 7.046063 C -3.891531 7.046063 -7.043875 3.889813 -7.043875 -0.0008125 C -7.043875 -3.891437 -3.891531 -7.043781 -0.00090625 -7.043781 C 3.889719 -7.043781 7.045969 -3.891437 7.045969 -0.0008125 Z M 7.045969 -0.0008125 " transform="matrix(1, 0, 0, -1, 136.122, 114.882)"/>
</g>
<path fill="none" stroke-width="0.3985" stroke-linecap="butt" stroke-linejoin="miter" stroke="rgb(0%, 0%, 0%)" stroke-opacity="1" stroke-miterlimit="10" d="M -1.731219 -2.471063 L -28.606219 -40.853875 " transform="matrix(1, 0, 0, -1, 57.657, 2.818)"/>
<path fill="none" stroke-width="0.3985" stroke-linecap="butt" stroke-linejoin="miter" stroke="rgb(0%, 0%, 0%)" stroke-opacity="1" stroke-miterlimit="10" d="M -29.407 -41.998406 L -42.414812 -60.576531 " transform="matrix(1, 0, 0, -1, 57.657, 2.818)"/>
<path fill="none" stroke-width="0.3985" stroke-linecap="butt" stroke-linejoin="miter" stroke="rgb(0%, 0%, 0%)" stroke-opacity="1" stroke-miterlimit="10" d="M -28.606219 -41.998406 L -15.598406 -60.576531 " transform="matrix(1, 0, 0, -1, 57.657, 2.818)"/>
<path fill="none" stroke-width="0.3985" stroke-linecap="butt" stroke-linejoin="miter" stroke="rgb(0%, 0%, 0%)" stroke-opacity="1" stroke-miterlimit="10" d="M 1.729719 -2.471063 L 28.604719 -40.853875 " transform="matrix(1, 0, 0, -1, 57.657, 2.818)"/>
<path fill="none" stroke-width="0.3985" stroke-linecap="butt" stroke-linejoin="miter" stroke="rgb(0%, 0%, 0%)" stroke-opacity="1" stroke-miterlimit="10" d="M 28.604719 -41.998406 L -2.489031 -86.408563 " transform="matrix(1, 0, 0, -1, 57.657, 2.818)"/>
<path fill="none" stroke-width="0.3985" stroke-linecap="butt" stroke-linejoin="miter" stroke="rgb(0%, 0%, 0%)" stroke-opacity="1" stroke-miterlimit="10" d="M -3.289812 -87.553094 L -16.297625 -106.131219 " transform="matrix(1, 0, 0, -1, 57.657, 2.818)"/>
<path fill="none" stroke-width="0.3985" stroke-linecap="butt" stroke-linejoin="miter" stroke="rgb(0%, 0%, 0%)" stroke-opacity="1" stroke-miterlimit="10" d="M -2.489031 -87.553094 L 10.518781 -106.131219 " transform="matrix(1, 0, 0, -1, 57.657, 2.818)"/>
<path fill="none" stroke-width="0.3985" stroke-linecap="butt" stroke-linejoin="miter" stroke="rgb(0%, 0%, 0%)" stroke-opacity="1" stroke-miterlimit="10" d="M 29.4055 -41.998406 L 60.503156 -86.408563 " transform="matrix(1, 0, 0, -1, 57.657, 2.818)"/>
<path fill="none" stroke-width="0.3985" stroke-linecap="butt" stroke-linejoin="miter" stroke="rgb(0%, 0%, 0%)" stroke-opacity="1" stroke-miterlimit="10" d="M 60.503156 -87.553094 L 47.491438 -106.131219 " transform="matrix(1, 0, 0, -1, 57.657, 2.818)"/>
<path fill="none" stroke-width="0.3985" stroke-linecap="butt" stroke-linejoin="miter" stroke="rgb(0%, 0%, 0%)" stroke-opacity="1" stroke-miterlimit="10" d="M 61.300031 -87.553094 L 74.31175 -106.131219 " transform="matrix(1, 0, 0, -1, 57.657, 2.818)"/>
</svg>
