<?xml version="1.0" encoding="UTF-8"?>
<svg xmlns="http://www.w3.org/2000/svg" xmlns:xlink="http://www.w3.org/1999/xlink" width="164.775" height="147.213" viewBox="0 0 164.775 147.213">
<defs>
<clipPath id="clip-0">
<path clip-rule="nonzero" d="M 21 132 L 36 132 L 36 147.214844 L 21 147.214844 Z M 21 132 "/>
</clipPath>
<clipPath id="clip-1">
<path clip-rule="nonzero" d="M 15 127 L 42 127 L 42 147.214844 L 15 147.214844 Z M 15 127 "/>
</clipPath>
<clipPath id="clip-2">
<path clip-rule="nonzero" d="M 56 132 L 71 132 L 71 147.214844 L 56 147.214844 Z M 56 132 "/>
</clipPath>
<clipPath id="clip-3">
<path clip-rule="nonzero" d="M 51 127 L 77 127 L 77 147.214844 L 51 147.214844 Z M 51 127 "/>
</clipPath>
<clipPath id="clip-4">
<path clip-rule="nonzero" d="M 85 132 L 100 132 L 100 147.214844 L 85 147.214844 Z M 85 132 "/>
</clipPath>
<clipPath id="clip-5">
<path clip-rule="nonzero" d="M 79 127 L 106 127 L 106 147.214844 L 79 147.214844 Z M 79 127 "/>
</clipPath>
<clipPath id="clip-6">
<path clip-rule="nonzero" d="M 120 132 L 135 132 L 135 147.214844 L 120 147.214844 Z M 120 132 "/>
</clipPath>
<clipPath id="clip-7">
<path clip-rule="nonzero" d="M 114 127 L 141 127 L 141 147.214844 L 114 147.214844 Z M 114 127 "/>
</clipPath>
<clipPath id="clip-8">
<path clip-rule="nonzero" d="M 141 81 L 164.773438 81 L 164.773438 108 L 141 108 Z M 141 81 "/>
</clipPath>
</defs>
<path fill-rule="nonzero" fill="rgb(0%, 0%, 0%)" fill-opacity="1" d="M 92.371094 2.816406 C 92.371094 1.261719 91.109375 0 89.554688 0 C 87.996094 0 86.734375 1.261719 86.734375 2.816406 C 86.734375 4.375 87.996094 5.636719 89.554688 5.636719 C 91.109375 5.636719 92.371094 4.375 92.371094 2.816406 Z M 92.371094 2.816406 "/>
<path fill-rule="nonzero" fill="rgb(0%, 0%, 0%)" fill-opacity="1" d="M 61.046875 44.246094 C 61.046875 43.96875 60.820312 43.746094 60.546875 43.746094 C 60.273438 43.746094 60.050781 43.96875 60.050781 44.246094 C 60.050781 44.519531 60.273438 44.742188 60.546875 44.742188 C 60.820312 44.742188 61.046875 44.519531 61.046875 44.246094 Z M 61.046875 44.246094 "/>
<path fill-rule="nonzero" fill="rgb(0%, 0%, 0%)" fill-opacity="1" d="M 29.148438 89.796875 C 29.148438 89.523438 28.925781 89.300781 28.652344 89.300781 C 28.375 89.300781 28.152344 89.523438 28.152344 89.796875 C 28.152344 90.074219 28.375 90.296875 28.652344 90.296875 C 28.925781 90.296875 29.148438 90.074219 29.148438 89.796875 Z M 29.148438 89.796875 "/>
<path fill-rule="nonzero" fill="rgb(79.998779%, 79.998779%, 79.998779%)" fill-opacity="1" stroke-width="0.3985" stroke-linecap="butt" stroke-linejoin="miter" stroke="rgb(0%, 0%, 0%)" stroke-opacity="1" stroke-miterlimit="10" d="M 7.045813 0.0001875 C 7.045813 3.890812 3.889563 7.047062 -0.0010625 7.047062 C -3.891687 7.047062 -7.044031 3.890812 -7.044031 0.0001875 C -7.044031 -3.890438 -3.891687 -7.046688 -0.0010625 -7.046688 C 3.889563 -7.046688 7.045813 -3.890438 7.045813 0.0001875 Z M 7.045813 0.0001875 " transform="matrix(1, 0, 0, -1, 11.087, 114.883)"/>
<path fill-rule="nonzero" fill="rgb(0%, 0%, 0%)" fill-opacity="1" d="M 46.714844 114.882812 C 46.714844 114.609375 46.488281 114.386719 46.214844 114.386719 C 45.941406 114.386719 45.71875 114.609375 45.71875 114.882812 C 45.71875 115.15625 45.941406 115.382812 46.214844 115.382812 C 46.488281 115.382812 46.714844 115.15625 46.714844 114.882812 Z M 46.714844 114.882812 "/>
<g clip-path="url(#clip-0)">
<path fill-rule="nonzero" fill="rgb(79.998779%, 79.998779%, 79.998779%)" fill-opacity="1" d="M 35.695312 139.96875 C 35.695312 136.078125 32.542969 132.921875 28.652344 132.921875 C 24.761719 132.921875 21.605469 136.078125 21.605469 139.96875 C 21.605469 143.859375 24.761719 147.011719 28.652344 147.011719 C 32.542969 147.011719 35.695312 143.859375 35.695312 139.96875 Z M 35.695312 139.96875 "/>
</g>
<g clip-path="url(#clip-1)">
<path fill="none" stroke-width="0.3985" stroke-linecap="butt" stroke-linejoin="miter" stroke="rgb(0%, 0%, 0%)" stroke-opacity="1" stroke-miterlimit="10" d="M 7.044313 -0.00075 C 7.044313 3.889875 3.891969 7.046125 0.00134375 7.046125 C -3.889281 7.046125 -7.045531 3.889875 -7.045531 -0.00075 C -7.045531 -3.891375 -3.889281 -7.043719 0.00134375 -7.043719 C 3.891969 -7.043719 7.044313 -3.891375 7.044313 -0.00075 Z M 7.044313 -0.00075 " transform="matrix(1, 0, 0, -1, 28.651, 139.968)"/>
</g>
<g clip-path="url(#clip-2)">
<path fill-rule="nonzero" fill="rgb(79.998779%, 79.998779%, 79.998779%)" fill-opacity="1" d="M 70.824219 139.96875 C 70.824219 136.078125 67.671875 132.921875 63.777344 132.921875 C 59.886719 132.921875 56.734375 136.078125 56.734375 139.96875 C 56.734375 143.859375 59.886719 147.011719 63.777344 147.011719 C 67.671875 147.011719 70.824219 143.859375 70.824219 139.96875 Z M 70.824219 139.96875 "/>
</g>
<g clip-path="url(#clip-3)">
<path fill="none" stroke-width="0.3985" stroke-linecap="butt" stroke-linejoin="miter" stroke="rgb(0%, 0%, 0%)" stroke-opacity="1" stroke-miterlimit="10" d="M 7.045219 -0.00075 C 7.045219 3.889875 3.892875 7.046125 -0.00165625 7.046125 C -3.892281 7.046125 -7.044625 3.889875 -7.044625 -0.00075 C -7.044625 -3.891375 -3.892281 -7.043719 -0.00165625 -7.043719 C 3.892875 -7.043719 7.045219 -3.891375 7.045219 -0.00075 Z M 7.045219 -0.00075 " transform="matrix(1, 0, 0, -1, 63.779, 139.968)"/>
</g>
<path fill-rule="nonzero" fill="rgb(0%, 0%, 0%)" fill-opacity="1" d="M 92.941406 89.796875 C 92.941406 89.523438 92.71875 89.300781 92.441406 89.300781 C 92.167969 89.300781 91.945312 89.523438 91.945312 89.796875 C 91.945312 90.074219 92.167969 90.296875 92.441406 90.296875 C 92.71875 90.296875 92.941406 90.074219 92.941406 89.796875 Z M 92.941406 89.796875 "/>
<path fill-rule="nonzero" fill="rgb(79.998779%, 79.998779%, 79.998779%)" fill-opacity="1" stroke-width="0.3985" stroke-linecap="butt" stroke-linejoin="miter" stroke="rgb(0%, 0%, 0%)" stroke-opacity="1" stroke-miterlimit="10" d="M 7.043875 0.0001875 C 7.043875 3.890812 3.891531 7.047062 0.00090625 7.047062 C -3.889719 7.047062 -7.045969 3.890812 -7.045969 0.0001875 C -7.045969 -3.890438 -3.889719 -7.046688 0.00090625 -7.046688 C 3.891531 -7.046688 7.043875 -3.890438 7.043875 0.0001875 Z M 7.043875 0.0001875 " transform="matrix(1, 0, 0, -1, 74.878, 114.883)"/>
<path fill-rule="nonzero" fill="rgb(0%, 0%, 0%)" fill-opacity="1" d="M 110.503906 114.882812 C 110.503906 114.609375 110.28125 114.386719 110.007812 114.386719 C 109.730469 114.386719 109.507812 114.609375 109.507812 114.882812 C 109.507812 115.15625 109.730469 115.382812 110.007812 115.382812 C 110.28125 115.382812 110.503906 115.15625 110.503906 114.882812 Z M 110.503906 114.882812 "/>
<g clip-path="url(#clip-4)">
<path fill-rule="nonzero" fill="rgb(79.998779%, 79.998779%, 79.998779%)" fill-opacity="1" d="M 99.488281 139.96875 C 99.488281 136.078125 96.332031 132.921875 92.441406 132.921875 C 88.550781 132.921875 85.398438 136.078125 85.398438 139.96875 C 85.398438 143.859375 88.550781 147.011719 92.441406 147.011719 C 96.332031 147.011719 99.488281 143.859375 99.488281 139.96875 Z M 99.488281 139.96875 "/>
</g>
<g clip-path="url(#clip-5)">
<path fill="none" stroke-width="0.3985" stroke-linecap="butt" stroke-linejoin="miter" stroke="rgb(0%, 0%, 0%)" stroke-opacity="1" stroke-miterlimit="10" d="M 7.046281 -0.00075 C 7.046281 3.889875 3.890031 7.046125 -0.00059375 7.046125 C -3.891219 7.046125 -7.043562 3.889875 -7.043562 -0.00075 C -7.043562 -3.891375 -3.891219 -7.043719 -0.00059375 -7.043719 C 3.890031 -7.043719 7.046281 -3.891375 7.046281 -0.00075 Z M 7.046281 -0.00075 " transform="matrix(1, 0, 0, -1, 92.442, 139.968)"/>
</g>
<g clip-path="url(#clip-6)">
<path fill-rule="nonzero" fill="rgb(79.998779%, 79.998779%, 79.998779%)" fill-opacity="1" d="M 134.617188 139.96875 C 134.617188 136.078125 131.460938 132.921875 127.570312 132.921875 C 123.679688 132.921875 120.523438 136.078125 120.523438 139.96875 C 120.523438 143.859375 123.679688 147.011719 127.570312 147.011719 C 131.460938 147.011719 134.617188 143.859375 134.617188 139.96875 Z M 134.617188 139.96875 "/>
</g>
<g clip-path="url(#clip-7)">
<path fill="none" stroke-width="0.3985" stroke-linecap="butt" stroke-linejoin="miter" stroke="rgb(0%, 0%, 0%)" stroke-opacity="1" stroke-miterlimit="10" d="M 7.047188 -0.00075 C 7.047188 3.889875 3.890938 7.046125 0.0003125 7.046125 C -3.890312 7.046125 -7.046562 3.889875 -7.046562 -0.00075 C -7.046562 -3.891375 -3.890312 -7.043719 0.0003125 -7.043719 C 3.890938 -7.043719 7.047188 -3.891375 7.047188 -0.00075 Z M 7.047188 -0.00075 " transform="matrix(1, 0, 0, -1, 127.57, 139.968)"/>
</g>
<path fill-rule="nonzero" fill="rgb(0%, 0%, 0%)" fill-opacity="1" d="M 119.058594 44.246094 C 119.058594 43.96875 118.835938 43.746094 118.558594 43.746094 C 118.285156 43.746094 118.0625 43.96875 118.0625 44.246094 C 118.0625 44.519531 118.285156 44.742188 118.558594 44.742188 C 118.835938 44.742188 119.058594 44.519531 119.058594 44.246094 Z M 119.058594 44.246094 "/>
<path fill-rule="nonzero" fill="rgb(79.998779%, 79.998779%, 79.998779%)" fill-opacity="1" stroke-width="0.3985" stroke-linecap="butt" stroke-linejoin="miter" stroke="rgb(0%, 0%, 0%)" stroke-opacity="1" stroke-miterlimit="10" d="M 7.044062 0.001875 C 7.044062 3.8925 3.891719 7.044844 0.00109375 7.044844 C -3.889531 7.044844 -7.045781 3.8925 -7.045781 0.001875 C -7.045781 -3.892656 -3.889531 -7.045 0.00109375 -7.045 C 3.891719 -7.045 7.044062 -3.892656 7.044062 0.001875 Z M 7.044062 0.001875 " transform="matrix(1, 0, 0, -1, 100.995, 69.33)"/>
<path fill-rule="nonzero" fill="rgb(0%, 0%, 0%)" fill-opacity="1" d="M 136.621094 69.328125 C 136.621094 69.054688 136.398438 68.832031 136.121094 68.832031 C 135.847656 68.832031 135.625 69.054688 135.625 69.328125 C 135.625 69.605469 135.847656 69.828125 136.121094 69.828125 C 136.398438 69.828125 136.621094 69.605469 136.621094 69.328125 Z M 136.621094 69.328125 "/>
<path fill-rule="nonzero" fill="rgb(79.998779%, 79.998779%, 79.998779%)" fill-opacity="1" stroke-width="0.3985" stroke-linecap="butt" stroke-linejoin="miter" stroke="rgb(0%, 0%, 0%)" stroke-opacity="1" stroke-miterlimit="10" d="M 7.046469 0.0009375 C 7.046469 3.891562 3.890219 7.043906 -0.00040625 7.043906 C -3.891031 7.043906 -7.047281 3.891562 -7.047281 0.0009375 C -7.047281 -3.889688 -3.891031 -7.045938 -0.00040625 -7.045938 C 3.890219 -7.045938 7.046469 -3.889688 7.046469 0.0009375 Z M 7.046469 0.0009375 " transform="matrix(1, 0, 0, -1, 118.559, 94.415)"/>
<path fill-rule="nonzero" fill="rgb(79.998779%, 79.998779%, 79.998779%)" fill-opacity="1" d="M 160.734375 94.414062 C 160.734375 90.523438 157.578125 87.371094 153.6875 87.371094 C 149.796875 87.371094 146.640625 90.523438 146.640625 94.414062 C 146.640625 98.304688 149.796875 101.460938 153.6875 101.460938 C 157.578125 101.460938 160.734375 98.304688 160.734375 94.414062 Z M 160.734375 94.414062 "/>
<g clip-path="url(#clip-8)">
<path fill="none" stroke-width="0.3985" stroke-linecap="butt" stroke-linejoin="miter" stroke="rgb(0%, 0%, 0%)" stroke-opacity="1" stroke-miterlimit="10" d="M 7.047375 0.0009375 C 7.047375 3.891562 3.891125 7.043906 0.0005 7.043906 C -3.890125 7.043906 -7.046375 3.891562 -7.046375 0.0009375 C -7.046375 -3.889688 -3.890125 -7.045938 0.0005 -7.045938 C 3.891125 -7.045938 7.047375 -3.889688 7.047375 0.0009375 Z M 7.047375 0.0009375 " transform="matrix(1, 0, 0, -1, 153.687, 94.415)"/>
</g>
<path fill="none" stroke-width="0.3985" stroke-linecap="butt" stroke-linejoin="miter" stroke="rgb(0%, 0%, 0%)" stroke-opacity="1" stroke-miterlimit="10" d="M -1.728781 -2.471063 L -28.607687 -40.857781 " transform="matrix(1, 0, 0, -1, 89.553, 2.818)"/>
<path fill="none" stroke-width="0.3985" stroke-linecap="butt" stroke-linejoin="miter" stroke="rgb(0%, 0%, 0%)" stroke-opacity="1" stroke-miterlimit="10" d="M -29.408469 -41.998406 L -60.502219 -86.408563 " transform="matrix(1, 0, 0, -1, 89.553, 2.818)"/>
<path fill="none" stroke-width="0.3985" stroke-linecap="butt" stroke-linejoin="miter" stroke="rgb(0%, 0%, 0%)" stroke-opacity="1" stroke-miterlimit="10" d="M -61.303 -87.553094 L -74.310812 -106.131219 " transform="matrix(1, 0, 0, -1, 89.553, 2.818)"/>
<path fill="none" stroke-width="0.3985" stroke-linecap="butt" stroke-linejoin="miter" stroke="rgb(0%, 0%, 0%)" stroke-opacity="1" stroke-miterlimit="10" d="M -60.502219 -87.553094 L -43.736594 -111.4945 " transform="matrix(1, 0, 0, -1, 89.553, 2.818)"/>
<path fill="none" stroke-width="0.3985" stroke-linecap="butt" stroke-linejoin="miter" stroke="rgb(0%, 0%, 0%)" stroke-opacity="1" stroke-miterlimit="10" d="M -43.736594 -112.639031 L -56.748312 -131.217156 " transform="matrix(1, 0, 0, -1, 89.553, 2.818)"/>
<path fill="none" stroke-width="0.3985" stroke-linecap="butt" stroke-linejoin="miter" stroke="rgb(0%, 0%, 0%)" stroke-opacity="1" stroke-miterlimit="10" d="M -42.939719 -112.639031 L -29.928 -131.217156 " transform="matrix(1, 0, 0, -1, 89.553, 2.818)"/>
<path fill="none" stroke-width="0.3985" stroke-linecap="butt" stroke-linejoin="miter" stroke="rgb(0%, 0%, 0%)" stroke-opacity="1" stroke-miterlimit="10" d="M -28.607687 -41.998406 L 2.489969 -86.408563 " transform="matrix(1, 0, 0, -1, 89.553, 2.818)"/>
<path fill="none" stroke-width="0.3985" stroke-linecap="butt" stroke-linejoin="miter" stroke="rgb(0%, 0%, 0%)" stroke-opacity="1" stroke-miterlimit="10" d="M 2.489969 -87.553094 L -10.52175 -106.131219 " transform="matrix(1, 0, 0, -1, 89.553, 2.818)"/>
<path fill="none" stroke-width="0.3985" stroke-linecap="butt" stroke-linejoin="miter" stroke="rgb(0%, 0%, 0%)" stroke-opacity="1" stroke-miterlimit="10" d="M 3.29075 -87.553094 L 20.052469 -111.4945 " transform="matrix(1, 0, 0, -1, 89.553, 2.818)"/>
<path fill="none" stroke-width="0.3985" stroke-linecap="butt" stroke-linejoin="miter" stroke="rgb(0%, 0%, 0%)" stroke-opacity="1" stroke-miterlimit="10" d="M 20.052469 -112.639031 L 7.044656 -131.217156 " transform="matrix(1, 0, 0, -1, 89.553, 2.818)"/>
<path fill="none" stroke-width="0.3985" stroke-linecap="butt" stroke-linejoin="miter" stroke="rgb(0%, 0%, 0%)" stroke-opacity="1" stroke-miterlimit="10" d="M 20.85325 -112.639031 L 33.861063 -131.217156 " transform="matrix(1, 0, 0, -1, 89.553, 2.818)"/>
<path fill="none" stroke-width="0.3985" stroke-linecap="butt" stroke-linejoin="miter" stroke="rgb(0%, 0%, 0%)" stroke-opacity="1" stroke-miterlimit="10" d="M 1.732156 -2.471063 L 28.607156 -40.857781 " transform="matrix(1, 0, 0, -1, 89.553, 2.818)"/>
<path fill="none" stroke-width="0.3985" stroke-linecap="butt" stroke-linejoin="miter" stroke="rgb(0%, 0%, 0%)" stroke-opacity="1" stroke-miterlimit="10" d="M 28.607156 -41.998406 L 15.599344 -60.580438 " transform="matrix(1, 0, 0, -1, 89.553, 2.818)"/>
<path fill="none" stroke-width="0.3985" stroke-linecap="butt" stroke-linejoin="miter" stroke="rgb(0%, 0%, 0%)" stroke-opacity="1" stroke-miterlimit="10" d="M 29.407938 -41.998406 L 46.169656 -65.943719 " transform="matrix(1, 0, 0, -1, 89.553, 2.818)"/>
<path fill="none" stroke-width="0.3985" stroke-linecap="butt" stroke-linejoin="miter" stroke="rgb(0%, 0%, 0%)" stroke-opacity="1" stroke-miterlimit="10" d="M 46.169656 -67.084344 L 33.161844 -85.662469 " transform="matrix(1, 0, 0, -1, 89.553, 2.818)"/>
<path fill="none" stroke-width="0.3985" stroke-linecap="butt" stroke-linejoin="miter" stroke="rgb(0%, 0%, 0%)" stroke-opacity="1" stroke-miterlimit="10" d="M 46.970438 -67.084344 L 59.97825 -85.662469 " transform="matrix(1, 0, 0, -1, 89.553, 2.818)"/>
</svg>
