<?xml version="1.0" encoding="UTF-8"?>
<svg xmlns="http://www.w3.org/2000/svg" xmlns:xlink="http://www.w3.org/1999/xlink" width="124.326" height="208.447" viewBox="0 0 124.326 208.447">
<defs>
<clipPath id="clip-0">
<path clip-rule="nonzero" d="M 7 194 L 22 194 L 22 208.445312 L 7 208.445312 Z M 7 194 "/>
</clipPath>
<clipPath id="clip-1">
<path clip-rule="nonzero" d="M 1 188 L 28 188 L 28 208.445312 L 1 208.445312 Z M 1 188 "/>
</clipPath>
<clipPath id="clip-2">
<path clip-rule="nonzero" d="M 42 194 L 57 194 L 57 208.445312 L 42 208.445312 Z M 42 194 "/>
</clipPath>
<clipPath id="clip-3">
<path clip-rule="nonzero" d="M 36 188 L 63 188 L 63 208.445312 L 36 208.445312 Z M 36 188 "/>
</clipPath>
<clipPath id="clip-4">
<path clip-rule="nonzero" d="M 71 194 L 86 194 L 86 208.445312 L 71 208.445312 Z M 71 194 "/>
</clipPath>
<clipPath id="clip-5">
<path clip-rule="nonzero" d="M 65 188 L 91 188 L 91 208.445312 L 65 208.445312 Z M 65 188 "/>
</clipPath>
<clipPath id="clip-6">
<path clip-rule="nonzero" d="M 106 194 L 121 194 L 121 208.445312 L 106 208.445312 Z M 106 194 "/>
</clipPath>
<clipPath id="clip-7">
<path clip-rule="nonzero" d="M 100 188 L 124.324219 188 L 124.324219 208.445312 L 100 208.445312 Z M 100 188 "/>
</clipPath>
</defs>
<path fill-rule="nonzero" fill="rgb(0%, 0%, 0%)" fill-opacity="1" d="M 50.65625 2.816406 C 50.65625 1.261719 49.394531 0 47.839844 0 C 46.285156 0 45.023438 1.261719 45.023438 2.816406 C 45.023438 4.375 46.285156 5.636719 47.839844 5.636719 C 49.394531 5.636719 50.65625 4.375 50.65625 2.816406 Z M 50.65625 2.816406 "/>
<path fill-rule="nonzero" fill="rgb(0%, 0%, 0%)" fill-opacity="1" d="M 29.148438 30.222656 C 29.148438 29.949219 28.925781 29.726562 28.652344 29.726562 C 28.375 29.726562 28.152344 29.949219 28.152344 30.222656 C 28.152344 30.5 28.375 30.722656 28.652344 30.722656 C 28.925781 30.722656 29.148438 30.5 29.148438 30.222656 Z M 29.148438 30.222656 "/>
<path fill-rule="nonzero" fill="rgb(79.998779%, 79.998779%, 79.998779%)" fill-opacity="1" stroke-width="0.3985" stroke-linecap="butt" stroke-linejoin="miter" stroke="rgb(0%, 0%, 0%)" stroke-opacity="1" stroke-miterlimit="10" d="M 7.045813 0.00040625 C 7.045813 3.891031 3.889563 7.047281 -0.0010625 7.047281 C -3.891687 7.047281 -7.044031 3.891031 -7.044031 0.00040625 C -7.044031 -3.890219 -3.891687 -7.046469 -0.0010625 -7.046469 C 3.889563 -7.046469 7.045813 -3.890219 7.045813 0.00040625 Z M 7.045813 0.00040625 " transform="matrix(1, 0, 0, -1, 11.087, 55.309)"/>
<path fill-rule="nonzero" fill="rgb(0%, 0%, 0%)" fill-opacity="1" d="M 46.714844 55.308594 C 46.714844 55.035156 46.488281 54.8125 46.214844 54.8125 C 45.941406 54.8125 45.71875 55.035156 45.71875 55.308594 C 45.71875 55.585938 45.941406 55.808594 46.214844 55.808594 C 46.488281 55.808594 46.714844 55.585938 46.714844 55.308594 Z M 46.714844 55.308594 "/>
<path fill-rule="nonzero" fill="rgb(79.998779%, 79.998779%, 79.998779%)" fill-opacity="1" stroke-width="0.3985" stroke-linecap="butt" stroke-linejoin="miter" stroke="rgb(0%, 0%, 0%)" stroke-opacity="1" stroke-miterlimit="10" d="M 7.044313 -0.00053125 C 7.044313 3.890094 3.891969 7.046344 0.00134375 7.046344 C -3.889281 7.046344 -7.045531 3.890094 -7.045531 -0.00053125 C -7.045531 -3.891156 -3.889281 -7.0435 0.00134375 -7.0435 C 3.891969 -7.0435 7.044313 -3.891156 7.044313 -0.00053125 Z M 7.044313 -0.00053125 " transform="matrix(1, 0, 0, -1, 28.651, 80.394)"/>
<path fill-rule="nonzero" fill="rgb(0%, 0%, 0%)" fill-opacity="1" d="M 64.277344 80.394531 C 64.277344 80.117188 64.054688 79.894531 63.78125 79.894531 C 63.503906 79.894531 63.28125 80.117188 63.28125 80.394531 C 63.28125 80.667969 63.503906 80.890625 63.78125 80.890625 C 64.054688 80.890625 64.277344 80.667969 64.277344 80.394531 Z M 64.277344 80.394531 "/>
<path fill-rule="nonzero" fill="rgb(0%, 0%, 0%)" fill-opacity="1" d="M 46.714844 105.480469 C 46.714844 105.203125 46.488281 104.980469 46.214844 104.980469 C 45.941406 104.980469 45.71875 105.203125 45.71875 105.480469 C 45.71875 105.753906 45.941406 105.976562 46.214844 105.976562 C 46.488281 105.976562 46.714844 105.753906 46.714844 105.480469 Z M 46.714844 105.480469 "/>
<path fill-rule="nonzero" fill="rgb(79.998779%, 79.998779%, 79.998779%)" fill-opacity="1" stroke-width="0.3985" stroke-linecap="butt" stroke-linejoin="miter" stroke="rgb(0%, 0%, 0%)" stroke-opacity="1" stroke-miterlimit="10" d="M 7.044313 0.0015 C 7.044313 3.892125 3.891969 7.044469 0.00134375 7.044469 C -3.889281 7.044469 -7.045531 3.892125 -7.045531 0.0015 C -7.045531 -3.893031 -3.889281 -7.045375 0.00134375 -7.045375 C 3.891969 -7.045375 7.044313 -3.893031 7.044313 0.0015 Z M 7.044313 0.0015 " transform="matrix(1, 0, 0, -1, 28.651, 130.564)"/>
<path fill-rule="nonzero" fill="rgb(0%, 0%, 0%)" fill-opacity="1" d="M 64.277344 130.5625 C 64.277344 130.289062 64.054688 130.066406 63.777344 130.066406 C 63.503906 130.066406 63.28125 130.289062 63.28125 130.5625 C 63.28125 130.839844 63.503906 131.0625 63.777344 131.0625 C 64.054688 131.0625 64.277344 130.839844 64.277344 130.5625 Z M 64.277344 130.5625 "/>
<path fill-rule="nonzero" fill="rgb(0%, 0%, 0%)" fill-opacity="1" d="M 32.382812 176.117188 C 32.382812 175.84375 32.160156 175.617188 31.882812 175.617188 C 31.609375 175.617188 31.386719 175.84375 31.386719 176.117188 C 31.386719 176.390625 31.609375 176.613281 31.882812 176.613281 C 32.160156 176.613281 32.382812 176.390625 32.382812 176.117188 Z M 32.382812 176.117188 "/>
<g clip-path="url(#clip-0)">
<path fill-rule="nonzero" fill="rgb(79.998779%, 79.998779%, 79.998779%)" fill-opacity="1" d="M 21.367188 201.203125 C 21.367188 197.3125 18.210938 194.15625 14.320312 194.15625 C 10.429688 194.15625 7.273438 197.3125 7.273438 201.203125 C 7.273438 205.09375 10.429688 208.246094 14.320312 208.246094 C 18.210938 208.246094 21.367188 205.09375 21.367188 201.203125 Z M 21.367188 201.203125 "/>
</g>
<g clip-path="url(#clip-1)">
<path fill="none" stroke-width="0.3985" stroke-linecap="butt" stroke-linejoin="miter" stroke="rgb(0%, 0%, 0%)" stroke-opacity="1" stroke-miterlimit="10" d="M 7.047188 -0.001125 C 7.047188 3.8895 3.890938 7.04575 0.0003125 7.04575 C -3.890312 7.04575 -7.046562 3.8895 -7.046562 -0.001125 C -7.046562 -3.89175 -3.890312 -7.044094 0.0003125 -7.044094 C 3.890938 -7.044094 7.047188 -3.89175 7.047188 -0.001125 Z M 7.047188 -0.001125 " transform="matrix(1, 0, 0, -1, 14.32, 201.202)"/>
</g>
<g clip-path="url(#clip-2)">
<path fill-rule="nonzero" fill="rgb(79.998779%, 79.998779%, 79.998779%)" fill-opacity="1" d="M 56.492188 201.203125 C 56.492188 197.3125 53.339844 194.15625 49.449219 194.15625 C 45.558594 194.15625 42.402344 197.3125 42.402344 201.203125 C 42.402344 205.09375 45.558594 208.246094 49.449219 208.246094 C 53.339844 208.246094 56.492188 205.09375 56.492188 201.203125 Z M 56.492188 201.203125 "/>
</g>
<g clip-path="url(#clip-3)">
<path fill="none" stroke-width="0.3985" stroke-linecap="butt" stroke-linejoin="miter" stroke="rgb(0%, 0%, 0%)" stroke-opacity="1" stroke-miterlimit="10" d="M 7.044188 -0.001125 C 7.044188 3.8895 3.891844 7.04575 0.00121875 7.04575 C -3.889406 7.04575 -7.045656 3.8895 -7.045656 -0.001125 C -7.045656 -3.89175 -3.889406 -7.044094 0.00121875 -7.044094 C 3.891844 -7.044094 7.044188 -3.89175 7.044188 -0.001125 Z M 7.044188 -0.001125 " transform="matrix(1, 0, 0, -1, 49.448, 201.202)"/>
</g>
<path fill-rule="nonzero" fill="rgb(0%, 0%, 0%)" fill-opacity="1" d="M 96.171875 176.117188 C 96.171875 175.84375 95.949219 175.617188 95.675781 175.617188 C 95.398438 175.617188 95.175781 175.84375 95.175781 176.117188 C 95.175781 176.390625 95.398438 176.613281 95.675781 176.613281 C 95.949219 176.613281 96.171875 176.390625 96.171875 176.117188 Z M 96.171875 176.117188 "/>
<g clip-path="url(#clip-4)">
<path fill-rule="nonzero" fill="rgb(79.998779%, 79.998779%, 79.998779%)" fill-opacity="1" d="M 85.15625 201.203125 C 85.15625 197.3125 82.003906 194.15625 78.109375 194.15625 C 74.21875 194.15625 71.066406 197.3125 71.066406 201.203125 C 71.066406 205.09375 74.21875 208.246094 78.109375 208.246094 C 82.003906 208.246094 85.15625 205.09375 85.15625 201.203125 Z M 85.15625 201.203125 "/>
</g>
<g clip-path="url(#clip-5)">
<path fill="none" stroke-width="0.3985" stroke-linecap="butt" stroke-linejoin="miter" stroke="rgb(0%, 0%, 0%)" stroke-opacity="1" stroke-miterlimit="10" d="M 7.04525 -0.001125 C 7.04525 3.8895 3.892906 7.04575 -0.001625 7.04575 C -3.89225 7.04575 -7.044594 3.8895 -7.044594 -0.001125 C -7.044594 -3.89175 -3.89225 -7.044094 -0.001625 -7.044094 C 3.892906 -7.044094 7.04525 -3.89175 7.04525 -0.001125 Z M 7.04525 -0.001125 " transform="matrix(1, 0, 0, -1, 78.111, 201.202)"/>
</g>
<g clip-path="url(#clip-6)">
<path fill-rule="nonzero" fill="rgb(79.998779%, 79.998779%, 79.998779%)" fill-opacity="1" d="M 120.285156 201.203125 C 120.285156 197.3125 117.128906 194.15625 113.238281 194.15625 C 109.347656 194.15625 106.195312 197.3125 106.195312 201.203125 C 106.195312 205.09375 109.347656 208.246094 113.238281 208.246094 C 117.128906 208.246094 120.285156 205.09375 120.285156 201.203125 Z M 120.285156 201.203125 "/>
</g>
<g clip-path="url(#clip-7)">
<path fill="none" stroke-width="0.3985" stroke-linecap="butt" stroke-linejoin="miter" stroke="rgb(0%, 0%, 0%)" stroke-opacity="1" stroke-miterlimit="10" d="M 7.046156 -0.001125 C 7.046156 3.8895 3.889906 7.04575 -0.00071875 7.04575 C -3.891344 7.04575 -7.043688 3.8895 -7.043688 -0.001125 C -7.043688 -3.89175 -3.891344 -7.044094 -0.00071875 -7.044094 C 3.889906 -7.044094 7.046156 -3.89175 7.046156 -0.001125 Z M 7.046156 -0.001125 " transform="matrix(1, 0, 0, -1, 113.239, 201.202)"/>
</g>
<path fill-rule="nonzero" fill="rgb(79.998779%, 79.998779%, 79.998779%)" fill-opacity="1" stroke-width="0.3985" stroke-linecap="butt" stroke-linejoin="miter" stroke="rgb(0%, 0%, 0%)" stroke-opacity="1" stroke-miterlimit="10" d="M 7.046625 -0.00146875 C 7.046625 3.893063 3.890375 7.045406 -0.00025 7.045406 C -3.890875 7.045406 -7.047125 3.893063 -7.047125 -0.00146875 C -7.047125 -3.892094 -3.890875 -7.044437 -0.00025 -7.044437 C 3.890375 -7.044437 7.046625 -3.892094 7.046625 -0.00146875 Z M 7.046625 -0.00146875 " transform="matrix(1, 0, 0, -1, 81.344, 105.479)"/>
<path fill-rule="nonzero" fill="rgb(79.998779%, 79.998779%, 79.998779%)" fill-opacity="1" stroke-width="0.3985" stroke-linecap="butt" stroke-linejoin="miter" stroke="rgb(0%, 0%, 0%)" stroke-opacity="1" stroke-miterlimit="10" d="M 7.046219 0.00034375 C 7.046219 3.890969 3.889969 7.047219 -0.00065625 7.047219 C -3.891281 7.047219 -7.043625 3.890969 -7.043625 0.00034375 C -7.043625 -3.890281 -3.891281 -7.046531 -0.00065625 -7.046531 C 3.889969 -7.046531 7.046219 -3.890281 7.046219 0.00034375 Z M 7.046219 0.00034375 " transform="matrix(1, 0, 0, -1, 67.028, 30.223)"/>
<path fill="none" stroke-width="0.3985" stroke-linecap="butt" stroke-linejoin="miter" stroke="rgb(0%, 0%, 0%)" stroke-opacity="1" stroke-miterlimit="10" d="M -1.730625 -2.471062 L -18.789219 -26.834344 " transform="matrix(1, 0, 0, -1, 47.84, 2.818)"/>
<path fill="none" stroke-width="0.3985" stroke-linecap="butt" stroke-linejoin="miter" stroke="rgb(0%, 0%, 0%)" stroke-opacity="1" stroke-miterlimit="10" d="M -19.59 -27.974969 L -32.597812 -46.557 " transform="matrix(1, 0, 0, -1, 47.84, 2.818)"/>
<path fill="none" stroke-width="0.3985" stroke-linecap="butt" stroke-linejoin="miter" stroke="rgb(0%, 0%, 0%)" stroke-opacity="1" stroke-miterlimit="10" d="M -18.789219 -27.974969 L -2.023594 -51.920281 " transform="matrix(1, 0, 0, -1, 47.84, 2.818)"/>
<path fill="none" stroke-width="0.3985" stroke-linecap="butt" stroke-linejoin="miter" stroke="rgb(0%, 0%, 0%)" stroke-opacity="1" stroke-miterlimit="10" d="M -2.023594 -53.060906 L -15.035312 -71.642937 " transform="matrix(1, 0, 0, -1, 47.84, 2.818)"/>
<path fill="none" stroke-width="0.3985" stroke-linecap="butt" stroke-linejoin="miter" stroke="rgb(0%, 0%, 0%)" stroke-opacity="1" stroke-miterlimit="10" d="M -1.222812 -53.060906 L 15.538906 -77.006219 " transform="matrix(1, 0, 0, -1, 47.84, 2.818)"/>
<path fill="none" stroke-width="0.3985" stroke-linecap="butt" stroke-linejoin="miter" stroke="rgb(0%, 0%, 0%)" stroke-opacity="1" stroke-miterlimit="10" d="M 15.538906 -78.146844 L -1.222812 -102.092156 " transform="matrix(1, 0, 0, -1, 47.84, 2.818)"/>
<path fill="none" stroke-width="0.3985" stroke-linecap="butt" stroke-linejoin="miter" stroke="rgb(0%, 0%, 0%)" stroke-opacity="1" stroke-miterlimit="10" d="M -2.023594 -103.232781 L -15.035312 -121.814812 " transform="matrix(1, 0, 0, -1, 47.84, 2.818)"/>
<path fill="none" stroke-width="0.3985" stroke-linecap="butt" stroke-linejoin="miter" stroke="rgb(0%, 0%, 0%)" stroke-opacity="1" stroke-miterlimit="10" d="M -1.222812 -103.232781 L 15.538906 -127.178094 " transform="matrix(1, 0, 0, -1, 47.84, 2.818)"/>
<path fill="none" stroke-width="0.3985" stroke-linecap="butt" stroke-linejoin="miter" stroke="rgb(0%, 0%, 0%)" stroke-opacity="1" stroke-miterlimit="10" d="M 15.538906 -128.318719 L -15.554844 -172.728875 " transform="matrix(1, 0, 0, -1, 47.84, 2.818)"/>
<path fill="none" stroke-width="0.3985" stroke-linecap="butt" stroke-linejoin="miter" stroke="rgb(0%, 0%, 0%)" stroke-opacity="1" stroke-miterlimit="10" d="M -16.355625 -173.873406 L -29.363437 -192.451531 " transform="matrix(1, 0, 0, -1, 47.84, 2.818)"/>
<path fill="none" stroke-width="0.3985" stroke-linecap="butt" stroke-linejoin="miter" stroke="rgb(0%, 0%, 0%)" stroke-opacity="1" stroke-miterlimit="10" d="M -15.554844 -173.873406 L -2.547031 -192.451531 " transform="matrix(1, 0, 0, -1, 47.84, 2.818)"/>
<path fill="none" stroke-width="0.3985" stroke-linecap="butt" stroke-linejoin="miter" stroke="rgb(0%, 0%, 0%)" stroke-opacity="1" stroke-miterlimit="10" d="M 16.339688 -128.318719 L 47.437344 -172.728875 " transform="matrix(1, 0, 0, -1, 47.84, 2.818)"/>
<path fill="none" stroke-width="0.3985" stroke-linecap="butt" stroke-linejoin="miter" stroke="rgb(0%, 0%, 0%)" stroke-opacity="1" stroke-miterlimit="10" d="M 47.437344 -173.873406 L 34.425625 -192.451531 " transform="matrix(1, 0, 0, -1, 47.84, 2.818)"/>
<path fill="none" stroke-width="0.3985" stroke-linecap="butt" stroke-linejoin="miter" stroke="rgb(0%, 0%, 0%)" stroke-opacity="1" stroke-miterlimit="10" d="M 48.234219 -173.873406 L 61.245938 -192.451531 " transform="matrix(1, 0, 0, -1, 47.84, 2.818)"/>
<path fill="none" stroke-width="0.3985" stroke-linecap="butt" stroke-linejoin="miter" stroke="rgb(0%, 0%, 0%)" stroke-opacity="1" stroke-miterlimit="10" d="M 16.339688 -78.146844 L 29.3475 -96.728875 " transform="matrix(1, 0, 0, -1, 47.84, 2.818)"/>
<path fill="none" stroke-width="0.3985" stroke-linecap="butt" stroke-linejoin="miter" stroke="rgb(0%, 0%, 0%)" stroke-opacity="1" stroke-miterlimit="10" d="M 1.730313 -2.471062 L 15.035 -21.471062 " transform="matrix(1, 0, 0, -1, 47.84, 2.818)"/>
</svg>
