<?xml version="1.0" encoding="UTF-8"?>
<svg xmlns="http://www.w3.org/2000/svg" xmlns:xlink="http://www.w3.org/1999/xlink" width="138.657" height="183.362" viewBox="0 0 138.657 183.362">
<defs>
<clipPath id="clip-0">
<path clip-rule="nonzero" d="M 85 169 L 100 169 L 100 183.363281 L 85 183.363281 Z M 85 169 "/>
</clipPath>
<clipPath id="clip-1">
<path clip-rule="nonzero" d="M 79 163 L 106 163 L 106 183.363281 L 79 183.363281 Z M 79 163 "/>
</clipPath>
<clipPath id="clip-2">
<path clip-rule="nonzero" d="M 120 169 L 135 169 L 135 183.363281 L 120 183.363281 Z M 120 169 "/>
</clipPath>
<clipPath id="clip-3">
<path clip-rule="nonzero" d="M 114 163 L 138.65625 163 L 138.65625 183.363281 L 114 183.363281 Z M 114 163 "/>
</clipPath>
</defs>
<path fill-rule="nonzero" fill="rgb(0%, 0%, 0%)" fill-opacity="1" d="M 44.175781 2.816406 C 44.175781 1.261719 42.914062 0 41.359375 0 C 39.800781 0 38.539062 1.261719 38.539062 2.816406 C 38.539062 4.375 39.800781 5.636719 41.359375 5.636719 C 42.914062 5.636719 44.175781 4.375 44.175781 2.816406 Z M 44.175781 2.816406 "/>
<path fill-rule="nonzero" fill="rgb(79.998779%, 79.998779%, 79.998779%)" fill-opacity="1" stroke-width="0.3985" stroke-linecap="butt" stroke-linejoin="miter" stroke="rgb(0%, 0%, 0%)" stroke-opacity="1" stroke-miterlimit="10" d="M 7.044844 0.00134375 C 7.044844 3.891969 3.8925 7.044313 0.001875 7.044313 C -3.892656 7.044313 -7.045 3.891969 -7.045 0.00134375 C -7.045 -3.889281 -3.892656 -7.045531 0.001875 -7.045531 C 3.8925 -7.045531 7.044844 -3.889281 7.044844 0.00134375 Z M 7.044844 0.00134375 " transform="matrix(1, 0, 0, -1, 22.17, 30.224)"/>
<path fill-rule="nonzero" fill="rgb(0%, 0%, 0%)" fill-opacity="1" d="M 61.046875 30.222656 C 61.046875 29.949219 60.820312 29.726562 60.546875 29.726562 C 60.273438 29.726562 60.050781 29.949219 60.050781 30.222656 C 60.050781 30.5 60.273438 30.722656 60.546875 30.722656 C 60.820312 30.722656 61.046875 30.5 61.046875 30.222656 Z M 61.046875 30.222656 "/>
<path fill-rule="nonzero" fill="rgb(0%, 0%, 0%)" fill-opacity="1" d="M 43.480469 55.308594 C 43.480469 55.035156 43.257812 54.8125 42.984375 54.8125 C 42.707031 54.8125 42.484375 55.035156 42.484375 55.308594 C 42.484375 55.585938 42.707031 55.808594 42.984375 55.808594 C 43.257812 55.808594 43.480469 55.585938 43.480469 55.308594 Z M 43.480469 55.308594 "/>
<path fill-rule="nonzero" fill="rgb(79.998779%, 79.998779%, 79.998779%)" fill-opacity="1" stroke-width="0.3985" stroke-linecap="butt" stroke-linejoin="miter" stroke="rgb(0%, 0%, 0%)" stroke-opacity="1" stroke-miterlimit="10" d="M 7.046844 -0.00053125 C 7.046844 3.890094 3.890594 7.046344 -0.00003125 7.046344 C -3.890656 7.046344 -7.046906 3.890094 -7.046906 -0.00053125 C -7.046906 -3.891156 -3.890656 -7.0435 -0.00003125 -7.0435 C 3.890594 -7.0435 7.046844 -3.891156 7.046844 -0.00053125 Z M 7.046844 -0.00053125 " transform="matrix(1, 0, 0, -1, 25.418, 80.394)"/>
<path fill-rule="nonzero" fill="rgb(0%, 0%, 0%)" fill-opacity="1" d="M 61.046875 80.394531 C 61.046875 80.117188 60.820312 79.894531 60.546875 79.894531 C 60.273438 79.894531 60.050781 80.117188 60.050781 80.394531 C 60.050781 80.667969 60.273438 80.890625 60.546875 80.890625 C 60.820312 80.890625 61.046875 80.667969 61.046875 80.394531 Z M 61.046875 80.394531 "/>
<path fill-rule="nonzero" fill="rgb(0%, 0%, 0%)" fill-opacity="1" d="M 29.148438 125.945312 C 29.148438 125.671875 28.925781 125.449219 28.652344 125.449219 C 28.375 125.449219 28.152344 125.671875 28.152344 125.945312 C 28.152344 126.222656 28.375 126.445312 28.652344 126.445312 C 28.925781 126.445312 29.148438 126.222656 29.148438 125.945312 Z M 29.148438 125.945312 "/>
<path fill-rule="nonzero" fill="rgb(79.998779%, 79.998779%, 79.998779%)" fill-opacity="1" stroke-width="0.3985" stroke-linecap="butt" stroke-linejoin="miter" stroke="rgb(0%, 0%, 0%)" stroke-opacity="1" stroke-miterlimit="10" d="M 7.045813 0.00075 C 7.045813 3.891375 3.889563 7.043719 -0.0010625 7.043719 C -3.891687 7.043719 -7.044031 3.891375 -7.044031 0.00075 C -7.044031 -3.889875 -3.891687 -7.046125 -0.0010625 -7.046125 C 3.889563 -7.046125 7.045813 -3.889875 7.045813 0.00075 Z M 7.045813 0.00075 " transform="matrix(1, 0, 0, -1, 11.087, 151.032)"/>
<path fill-rule="nonzero" fill="rgb(79.998779%, 79.998779%, 79.998779%)" fill-opacity="1" stroke-width="0.3985" stroke-linecap="butt" stroke-linejoin="miter" stroke="rgb(0%, 0%, 0%)" stroke-opacity="1" stroke-miterlimit="10" d="M 7.046719 0.00075 C 7.046719 3.891375 3.890469 7.043719 -0.00015625 7.043719 C -3.890781 7.043719 -7.047031 3.891375 -7.047031 0.00075 C -7.047031 -3.889875 -3.890781 -7.046125 -0.00015625 -7.046125 C 3.890469 -7.046125 7.046719 -3.889875 7.046719 0.00075 Z M 7.046719 0.00075 " transform="matrix(1, 0, 0, -1, 46.215, 151.032)"/>
<path fill-rule="nonzero" fill="rgb(0%, 0%, 0%)" fill-opacity="1" d="M 92.941406 125.945312 C 92.941406 125.671875 92.71875 125.449219 92.441406 125.449219 C 92.167969 125.449219 91.945312 125.671875 91.945312 125.945312 C 91.945312 126.222656 92.167969 126.445312 92.441406 126.445312 C 92.71875 126.445312 92.941406 126.222656 92.941406 125.945312 Z M 92.941406 125.945312 "/>
<path fill-rule="nonzero" fill="rgb(79.998779%, 79.998779%, 79.998779%)" fill-opacity="1" stroke-width="0.3985" stroke-linecap="butt" stroke-linejoin="miter" stroke="rgb(0%, 0%, 0%)" stroke-opacity="1" stroke-miterlimit="10" d="M 7.043875 0.00075 C 7.043875 3.891375 3.891531 7.043719 0.00090625 7.043719 C -3.889719 7.043719 -7.045969 3.891375 -7.045969 0.00075 C -7.045969 -3.889875 -3.889719 -7.046125 0.00090625 -7.046125 C 3.891531 -7.046125 7.043875 -3.889875 7.043875 0.00075 Z M 7.043875 0.00075 " transform="matrix(1, 0, 0, -1, 74.878, 151.032)"/>
<path fill-rule="nonzero" fill="rgb(0%, 0%, 0%)" fill-opacity="1" d="M 110.503906 151.03125 C 110.503906 150.757812 110.28125 150.535156 110.007812 150.535156 C 109.730469 150.535156 109.507812 150.757812 109.507812 151.03125 C 109.507812 151.308594 109.730469 151.53125 110.007812 151.53125 C 110.28125 151.53125 110.503906 151.308594 110.503906 151.03125 Z M 110.503906 151.03125 "/>
<g clip-path="url(#clip-0)">
<path fill-rule="nonzero" fill="rgb(79.998779%, 79.998779%, 79.998779%)" fill-opacity="1" d="M 99.488281 176.117188 C 99.488281 172.226562 96.332031 169.070312 92.441406 169.070312 C 88.550781 169.070312 85.398438 172.226562 85.398438 176.117188 C 85.398438 180.007812 88.550781 183.164062 92.441406 183.164062 C 96.332031 183.164062 99.488281 180.007812 99.488281 176.117188 Z M 99.488281 176.117188 "/>
</g>
<g clip-path="url(#clip-1)">
<path fill="none" stroke-width="0.3985" stroke-linecap="butt" stroke-linejoin="miter" stroke="rgb(0%, 0%, 0%)" stroke-opacity="1" stroke-miterlimit="10" d="M 7.046281 -0.0001875 C 7.046281 3.890438 3.890031 7.046688 -0.00059375 7.046688 C -3.891219 7.046688 -7.043562 3.890438 -7.043562 -0.0001875 C -7.043562 -3.890812 -3.891219 -7.047062 -0.00059375 -7.047062 C 3.890031 -7.047062 7.046281 -3.890812 7.046281 -0.0001875 Z M 7.046281 -0.0001875 " transform="matrix(1, 0, 0, -1, 92.442, 176.117)"/>
</g>
<g clip-path="url(#clip-2)">
<path fill-rule="nonzero" fill="rgb(79.998779%, 79.998779%, 79.998779%)" fill-opacity="1" d="M 134.617188 176.117188 C 134.617188 172.226562 131.460938 169.070312 127.570312 169.070312 C 123.679688 169.070312 120.523438 172.226562 120.523438 176.117188 C 120.523438 180.007812 123.679688 183.164062 127.570312 183.164062 C 131.460938 183.164062 134.617188 180.007812 134.617188 176.117188 Z M 134.617188 176.117188 "/>
</g>
<g clip-path="url(#clip-3)">
<path fill="none" stroke-width="0.3985" stroke-linecap="butt" stroke-linejoin="miter" stroke="rgb(0%, 0%, 0%)" stroke-opacity="1" stroke-miterlimit="10" d="M 7.047188 -0.0001875 C 7.047188 3.890438 3.890938 7.046688 0.0003125 7.046688 C -3.890312 7.046688 -7.046562 3.890438 -7.046562 -0.0001875 C -7.046562 -3.890812 -3.890312 -7.047062 0.0003125 -7.047062 C 3.890938 -7.047062 7.047188 -3.890812 7.047188 -0.0001875 Z M 7.047188 -0.0001875 " transform="matrix(1, 0, 0, -1, 127.57, 176.117)"/>
</g>
<path fill-rule="nonzero" fill="rgb(79.998779%, 79.998779%, 79.998779%)" fill-opacity="1" stroke-width="0.3985" stroke-linecap="butt" stroke-linejoin="miter" stroke="rgb(0%, 0%, 0%)" stroke-opacity="1" stroke-miterlimit="10" d="M 7.04525 0.00040625 C 7.04525 3.891031 3.892906 7.047281 -0.001625 7.047281 C -3.89225 7.047281 -7.044594 3.891031 -7.044594 0.00040625 C -7.044594 -3.890219 -3.89225 -7.046469 -0.001625 -7.046469 C 3.892906 -7.046469 7.04525 -3.890219 7.04525 0.00040625 Z M 7.04525 0.00040625 " transform="matrix(1, 0, 0, -1, 78.111, 55.309)"/>
<path fill="none" stroke-width="0.3985" stroke-linecap="butt" stroke-linejoin="miter" stroke="rgb(0%, 0%, 0%)" stroke-opacity="1" stroke-miterlimit="10" d="M -1.729094 -2.471062 L -15.033781 -21.471062 " transform="matrix(1, 0, 0, -1, 41.358, 2.818)"/>
<path fill="none" stroke-width="0.3985" stroke-linecap="butt" stroke-linejoin="miter" stroke="rgb(0%, 0%, 0%)" stroke-opacity="1" stroke-miterlimit="10" d="M 1.731844 -2.471062 L 18.790438 -26.834344 " transform="matrix(1, 0, 0, -1, 41.358, 2.818)"/>
<path fill="none" stroke-width="0.3985" stroke-linecap="butt" stroke-linejoin="miter" stroke="rgb(0%, 0%, 0%)" stroke-opacity="1" stroke-miterlimit="10" d="M 18.790438 -27.974969 L 2.024813 -51.920281 " transform="matrix(1, 0, 0, -1, 41.358, 2.818)"/>
<path fill="none" stroke-width="0.3985" stroke-linecap="butt" stroke-linejoin="miter" stroke="rgb(0%, 0%, 0%)" stroke-opacity="1" stroke-miterlimit="10" d="M 1.224031 -53.060906 L -11.783781 -71.642937 " transform="matrix(1, 0, 0, -1, 41.358, 2.818)"/>
<path fill="none" stroke-width="0.3985" stroke-linecap="butt" stroke-linejoin="miter" stroke="rgb(0%, 0%, 0%)" stroke-opacity="1" stroke-miterlimit="10" d="M 2.024813 -53.060906 L 18.790438 -77.006219 " transform="matrix(1, 0, 0, -1, 41.358, 2.818)"/>
<path fill="none" stroke-width="0.3985" stroke-linecap="butt" stroke-linejoin="miter" stroke="rgb(0%, 0%, 0%)" stroke-opacity="1" stroke-miterlimit="10" d="M 18.790438 -78.146844 L -12.307219 -122.557 " transform="matrix(1, 0, 0, -1, 41.358, 2.818)"/>
<path fill="none" stroke-width="0.3985" stroke-linecap="butt" stroke-linejoin="miter" stroke="rgb(0%, 0%, 0%)" stroke-opacity="1" stroke-miterlimit="10" d="M -13.108 -123.701531 L -26.115812 -142.279656 " transform="matrix(1, 0, 0, -1, 41.358, 2.818)"/>
<path fill="none" stroke-width="0.3985" stroke-linecap="butt" stroke-linejoin="miter" stroke="rgb(0%, 0%, 0%)" stroke-opacity="1" stroke-miterlimit="10" d="M -12.307219 -123.701531 L 0.700594 -142.279656 " transform="matrix(1, 0, 0, -1, 41.358, 2.818)"/>
<path fill="none" stroke-width="0.3985" stroke-linecap="butt" stroke-linejoin="miter" stroke="rgb(0%, 0%, 0%)" stroke-opacity="1" stroke-miterlimit="10" d="M 19.587313 -78.146844 L 50.684969 -122.557 " transform="matrix(1, 0, 0, -1, 41.358, 2.818)"/>
<path fill="none" stroke-width="0.3985" stroke-linecap="butt" stroke-linejoin="miter" stroke="rgb(0%, 0%, 0%)" stroke-opacity="1" stroke-miterlimit="10" d="M 50.684969 -123.701531 L 37.677156 -142.279656 " transform="matrix(1, 0, 0, -1, 41.358, 2.818)"/>
<path fill="none" stroke-width="0.3985" stroke-linecap="butt" stroke-linejoin="miter" stroke="rgb(0%, 0%, 0%)" stroke-opacity="1" stroke-miterlimit="10" d="M 51.48575 -123.701531 L 68.247469 -147.642937 " transform="matrix(1, 0, 0, -1, 41.358, 2.818)"/>
<path fill="none" stroke-width="0.3985" stroke-linecap="butt" stroke-linejoin="miter" stroke="rgb(0%, 0%, 0%)" stroke-opacity="1" stroke-miterlimit="10" d="M 68.247469 -148.787469 L 55.239656 -167.365594 " transform="matrix(1, 0, 0, -1, 41.358, 2.818)"/>
<path fill="none" stroke-width="0.3985" stroke-linecap="butt" stroke-linejoin="miter" stroke="rgb(0%, 0%, 0%)" stroke-opacity="1" stroke-miterlimit="10" d="M 69.04825 -148.787469 L 82.056062 -167.365594 " transform="matrix(1, 0, 0, -1, 41.358, 2.818)"/>
<path fill="none" stroke-width="0.3985" stroke-linecap="butt" stroke-linejoin="miter" stroke="rgb(0%, 0%, 0%)" stroke-opacity="1" stroke-miterlimit="10" d="M 19.587313 -27.974969 L 32.599031 -46.557 " transform="matrix(1, 0, 0, -1, 41.358, 2.818)"/>
</svg>
