<?xml version="1.0" encoding="UTF-8"?>
<svg xmlns="http://www.w3.org/2000/svg" xmlns:xlink="http://www.w3.org/1999/xlink" width="148.371" height="162.894" viewBox="0 0 148.371 162.894">
<defs>
<clipPath id="clip-0">
<path clip-rule="nonzero" d="M 95 148 L 110 148 L 110 162.894531 L 95 162.894531 Z M 95 148 "/>
</clipPath>
<clipPath id="clip-1">
<path clip-rule="nonzero" d="M 89 142 L 115 142 L 115 162.894531 L 89 162.894531 Z M 89 142 "/>
</clipPath>
<clipPath id="clip-2">
<path clip-rule="nonzero" d="M 130 148 L 145 148 L 145 162.894531 L 130 162.894531 Z M 130 148 "/>
</clipPath>
<clipPath id="clip-3">
<path clip-rule="nonzero" d="M 124 142 L 148.371094 142 L 148.371094 162.894531 L 124 162.894531 Z M 124 142 "/>
</clipPath>
</defs>
<path fill-rule="nonzero" fill="rgb(0%, 0%, 0%)" fill-opacity="1" d="M 33.09375 2.816406 C 33.09375 1.261719 31.832031 0 30.277344 0 C 28.71875 0 27.457031 1.261719 27.457031 2.816406 C 27.457031 4.375 28.71875 5.636719 30.277344 5.636719 C 31.832031 5.636719 33.09375 4.375 33.09375 2.816406 Z M 33.09375 2.816406 "/>
<path fill-rule="nonzero" fill="rgb(79.998779%, 79.998779%, 79.998779%)" fill-opacity="1" stroke-width="0.3985" stroke-linecap="butt" stroke-linejoin="miter" stroke="rgb(0%, 0%, 0%)" stroke-opacity="1" stroke-miterlimit="10" d="M 7.045813 0.00034375 C 7.045813 3.890969 3.889563 7.047219 -0.0010625 7.047219 C -3.891687 7.047219 -7.044031 3.890969 -7.044031 0.00034375 C -7.044031 -3.890281 -3.891687 -7.046531 -0.0010625 -7.046531 C 3.889563 -7.046531 7.045813 -3.890281 7.045813 0.00034375 Z M 7.045813 0.00034375 " transform="matrix(1, 0, 0, -1, 11.087, 30.223)"/>
<path fill-rule="nonzero" fill="rgb(0%, 0%, 0%)" fill-opacity="1" d="M 49.960938 30.222656 C 49.960938 29.949219 49.738281 29.726562 49.464844 29.726562 C 49.1875 29.726562 48.964844 29.949219 48.964844 30.222656 C 48.964844 30.5 49.1875 30.722656 49.464844 30.722656 C 49.738281 30.722656 49.960938 30.5 49.960938 30.222656 Z M 49.960938 30.222656 "/>
<path fill-rule="nonzero" fill="rgb(79.998779%, 79.998779%, 79.998779%)" fill-opacity="1" stroke-width="0.3985" stroke-linecap="butt" stroke-linejoin="miter" stroke="rgb(0%, 0%, 0%)" stroke-opacity="1" stroke-miterlimit="10" d="M 7.045313 0.00040625 C 7.045313 3.891031 3.892969 7.047281 -0.0015625 7.047281 C -3.892187 7.047281 -7.044531 3.891031 -7.044531 0.00040625 C -7.044531 -3.890219 -3.892187 -7.046469 -0.0015625 -7.046469 C 3.892969 -7.046469 7.045313 -3.890219 7.045313 0.00040625 Z M 7.045313 0.00040625 " transform="matrix(1, 0, 0, -1, 31.9, 55.309)"/>
<path fill-rule="nonzero" fill="rgb(0%, 0%, 0%)" fill-opacity="1" d="M 67.527344 55.308594 C 67.527344 55.035156 67.304688 54.8125 67.027344 54.8125 C 66.753906 54.8125 66.53125 55.035156 66.53125 55.308594 C 66.53125 55.585938 66.753906 55.808594 67.027344 55.808594 C 67.304688 55.808594 67.527344 55.585938 67.527344 55.308594 Z M 67.527344 55.308594 "/>
<path fill-rule="nonzero" fill="rgb(79.998779%, 79.998779%, 79.998779%)" fill-opacity="1" stroke-width="0.3985" stroke-linecap="butt" stroke-linejoin="miter" stroke="rgb(0%, 0%, 0%)" stroke-opacity="1" stroke-miterlimit="10" d="M 7.043813 -0.00053125 C 7.043813 3.890094 3.891469 7.046344 0.00084375 7.046344 C -3.889781 7.046344 -7.046031 3.890094 -7.046031 -0.00053125 C -7.046031 -3.891156 -3.889781 -7.0435 0.00084375 -7.0435 C 3.891469 -7.0435 7.043813 -3.891156 7.043813 -0.00053125 Z M 7.043813 -0.00053125 " transform="matrix(1, 0, 0, -1, 49.464, 80.394)"/>
<path fill-rule="nonzero" fill="rgb(0%, 0%, 0%)" fill-opacity="1" d="M 85.089844 80.394531 C 85.089844 80.117188 84.867188 79.894531 84.59375 79.894531 C 84.316406 79.894531 84.09375 80.117188 84.09375 80.394531 C 84.09375 80.667969 84.316406 80.890625 84.59375 80.890625 C 84.867188 80.890625 85.089844 80.667969 85.089844 80.394531 Z M 85.089844 80.394531 "/>
<path fill-rule="nonzero" fill="rgb(79.998779%, 79.998779%, 79.998779%)" fill-opacity="1" stroke-width="0.3985" stroke-linecap="butt" stroke-linejoin="miter" stroke="rgb(0%, 0%, 0%)" stroke-opacity="1" stroke-miterlimit="10" d="M 7.046219 -0.00146875 C 7.046219 3.893063 3.889969 7.045406 -0.00065625 7.045406 C -3.891281 7.045406 -7.043625 3.893063 -7.043625 -0.00146875 C -7.043625 -3.892094 -3.891281 -7.044437 -0.00065625 -7.044437 C 3.889969 -7.044437 7.046219 -3.892094 7.046219 -0.00146875 Z M 7.046219 -0.00146875 " transform="matrix(1, 0, 0, -1, 67.028, 105.479)"/>
<path fill-rule="nonzero" fill="rgb(0%, 0%, 0%)" fill-opacity="1" d="M 102.652344 105.480469 C 102.652344 105.203125 102.429688 104.980469 102.15625 104.980469 C 101.882812 104.980469 101.65625 105.203125 101.65625 105.480469 C 101.65625 105.753906 101.882812 105.976562 102.15625 105.976562 C 102.429688 105.976562 102.652344 105.753906 102.652344 105.480469 Z M 102.652344 105.480469 "/>
<path fill-rule="nonzero" fill="rgb(79.998779%, 79.998779%, 79.998779%)" fill-opacity="1" stroke-width="0.3985" stroke-linecap="butt" stroke-linejoin="miter" stroke="rgb(0%, 0%, 0%)" stroke-opacity="1" stroke-miterlimit="10" d="M 7.044719 0.0015 C 7.044719 3.892125 3.892375 7.044469 0.00175 7.044469 C -3.892781 7.044469 -7.045125 3.892125 -7.045125 0.0015 C -7.045125 -3.893031 -3.892781 -7.045375 0.00175 -7.045375 C 3.892375 -7.045375 7.044719 -3.893031 7.044719 0.0015 Z M 7.044719 0.0015 " transform="matrix(1, 0, 0, -1, 84.592, 130.564)"/>
<path fill-rule="nonzero" fill="rgb(0%, 0%, 0%)" fill-opacity="1" d="M 120.21875 130.5625 C 120.21875 130.289062 119.996094 130.066406 119.71875 130.066406 C 119.445312 130.066406 119.222656 130.289062 119.222656 130.5625 C 119.222656 130.839844 119.445312 131.0625 119.71875 131.0625 C 119.996094 131.0625 120.21875 130.839844 120.21875 130.5625 Z M 120.21875 130.5625 "/>
<g clip-path="url(#clip-0)">
<path fill-rule="nonzero" fill="rgb(79.998779%, 79.998779%, 79.998779%)" fill-opacity="1" d="M 109.203125 155.648438 C 109.203125 151.757812 106.046875 148.605469 102.15625 148.605469 C 98.265625 148.605469 95.109375 151.757812 95.109375 155.648438 C 95.109375 159.539062 98.265625 162.695312 102.15625 162.695312 C 106.046875 162.695312 109.203125 159.539062 109.203125 155.648438 Z M 109.203125 155.648438 "/>
</g>
<g clip-path="url(#clip-1)">
<path fill="none" stroke-width="0.3985" stroke-linecap="butt" stroke-linejoin="miter" stroke="rgb(0%, 0%, 0%)" stroke-opacity="1" stroke-miterlimit="10" d="M 7.047125 0.0005625 C 7.047125 3.891188 3.890875 7.043531 0.00025 7.043531 C -3.890375 7.043531 -7.046625 3.891188 -7.046625 0.0005625 C -7.046625 -3.890062 -3.890375 -7.046312 0.00025 -7.046312 C 3.890875 -7.046312 7.047125 -3.890062 7.047125 0.0005625 Z M 7.047125 0.0005625 " transform="matrix(1, 0, 0, -1, 102.156, 155.649)"/>
</g>
<g clip-path="url(#clip-2)">
<path fill-rule="nonzero" fill="rgb(79.998779%, 79.998779%, 79.998779%)" fill-opacity="1" d="M 144.328125 155.648438 C 144.328125 151.757812 141.175781 148.605469 137.285156 148.605469 C 133.394531 148.605469 130.238281 151.757812 130.238281 155.648438 C 130.238281 159.539062 133.394531 162.695312 137.285156 162.695312 C 141.175781 162.695312 144.328125 159.539062 144.328125 155.648438 Z M 144.328125 155.648438 "/>
</g>
<g clip-path="url(#clip-3)">
<path fill="none" stroke-width="0.3985" stroke-linecap="butt" stroke-linejoin="miter" stroke="rgb(0%, 0%, 0%)" stroke-opacity="1" stroke-miterlimit="10" d="M 7.044125 0.0005625 C 7.044125 3.891188 3.891781 7.043531 0.00115625 7.043531 C -3.889469 7.043531 -7.045719 3.891188 -7.045719 0.0005625 C -7.045719 -3.890062 -3.889469 -7.046312 0.00115625 -7.046312 C 3.891781 -7.046312 7.044125 -3.890062 7.044125 0.0005625 Z M 7.044125 0.0005625 " transform="matrix(1, 0, 0, -1, 137.284, 155.649)"/>
</g>
<path fill="none" stroke-width="0.3985" stroke-linecap="butt" stroke-linejoin="miter" stroke="rgb(0%, 0%, 0%)" stroke-opacity="1" stroke-miterlimit="10" d="M -1.729125 -2.471062 L -15.033812 -21.471062 " transform="matrix(1, 0, 0, -1, 30.276, 2.818)"/>
<path fill="none" stroke-width="0.3985" stroke-linecap="butt" stroke-linejoin="miter" stroke="rgb(0%, 0%, 0%)" stroke-opacity="1" stroke-miterlimit="10" d="M 1.731813 -2.471062 L 18.790406 -26.834344 " transform="matrix(1, 0, 0, -1, 30.276, 2.818)"/>
<path fill="none" stroke-width="0.3985" stroke-linecap="butt" stroke-linejoin="miter" stroke="rgb(0%, 0%, 0%)" stroke-opacity="1" stroke-miterlimit="10" d="M 18.790406 -27.974969 L 5.778688 -46.557 " transform="matrix(1, 0, 0, -1, 30.276, 2.818)"/>
<path fill="none" stroke-width="0.3985" stroke-linecap="butt" stroke-linejoin="miter" stroke="rgb(0%, 0%, 0%)" stroke-opacity="1" stroke-miterlimit="10" d="M 19.587281 -27.974969 L 36.352906 -51.920281 " transform="matrix(1, 0, 0, -1, 30.276, 2.818)"/>
<path fill="none" stroke-width="0.3985" stroke-linecap="butt" stroke-linejoin="miter" stroke="rgb(0%, 0%, 0%)" stroke-opacity="1" stroke-miterlimit="10" d="M 36.352906 -53.060906 L 23.345094 -71.642937 " transform="matrix(1, 0, 0, -1, 30.276, 2.818)"/>
<path fill="none" stroke-width="0.3985" stroke-linecap="butt" stroke-linejoin="miter" stroke="rgb(0%, 0%, 0%)" stroke-opacity="1" stroke-miterlimit="10" d="M 37.153688 -53.060906 L 53.915406 -77.006219 " transform="matrix(1, 0, 0, -1, 30.276, 2.818)"/>
<path fill="none" stroke-width="0.3985" stroke-linecap="butt" stroke-linejoin="miter" stroke="rgb(0%, 0%, 0%)" stroke-opacity="1" stroke-miterlimit="10" d="M 53.915406 -78.146844 L 40.907594 -96.728875 " transform="matrix(1, 0, 0, -1, 30.276, 2.818)"/>
<path fill="none" stroke-width="0.3985" stroke-linecap="butt" stroke-linejoin="miter" stroke="rgb(0%, 0%, 0%)" stroke-opacity="1" stroke-miterlimit="10" d="M 54.716188 -78.146844 L 71.481813 -102.092156 " transform="matrix(1, 0, 0, -1, 30.276, 2.818)"/>
<path fill="none" stroke-width="0.3985" stroke-linecap="butt" stroke-linejoin="miter" stroke="rgb(0%, 0%, 0%)" stroke-opacity="1" stroke-miterlimit="10" d="M 71.481813 -103.232781 L 58.474 -121.814812 " transform="matrix(1, 0, 0, -1, 30.276, 2.818)"/>
<path fill="none" stroke-width="0.3985" stroke-linecap="butt" stroke-linejoin="miter" stroke="rgb(0%, 0%, 0%)" stroke-opacity="1" stroke-miterlimit="10" d="M 72.282594 -103.232781 L 89.044313 -127.178094 " transform="matrix(1, 0, 0, -1, 30.276, 2.818)"/>
<path fill="none" stroke-width="0.3985" stroke-linecap="butt" stroke-linejoin="miter" stroke="rgb(0%, 0%, 0%)" stroke-opacity="1" stroke-miterlimit="10" d="M 89.044313 -128.318719 L 76.0365 -146.896844 " transform="matrix(1, 0, 0, -1, 30.276, 2.818)"/>
<path fill="none" stroke-width="0.3985" stroke-linecap="butt" stroke-linejoin="miter" stroke="rgb(0%, 0%, 0%)" stroke-opacity="1" stroke-miterlimit="10" d="M 89.845094 -128.318719 L 102.852906 -146.896844 " transform="matrix(1, 0, 0, -1, 30.276, 2.818)"/>
</svg>
