<?xml version="1.0" encoding="UTF-8"?>
<svg xmlns="http://www.w3.org/2000/svg" xmlns:xlink="http://www.w3.org/1999/xlink" width="138.657" height="133.191" viewBox="0 0 138.657 133.191">
<defs>
<clipPath id="clip-0">
<path clip-rule="nonzero" d="M 79 113 L 106 113 L 106 133.191406 L 79 133.191406 Z M 79 113 "/>
</clipPath>
<clipPath id="clip-1">
<path clip-rule="nonzero" d="M 114 113 L 138.65625 113 L 138.65625 133.191406 L 114 133.191406 Z M 114 113 "/>
</clipPath>
</defs>
<path fill-rule="nonzero" fill="rgb(0%, 0%, 0%)" fill-opacity="1" d="M 44.175781 2.816406 C 44.175781 1.261719 42.914062 0 41.359375 0 C 39.800781 0 38.539062 1.261719 38.539062 2.816406 C 38.539062 4.375 39.800781 5.636719 41.359375 5.636719 C 42.914062 5.636719 44.175781 4.375 44.175781 2.816406 Z M 44.175781 2.816406 "/>
<path fill-rule="nonzero" fill="rgb(79.998779%, 79.998779%, 79.998779%)" fill-opacity="1" stroke-width="0.3985" stroke-linecap="butt" stroke-linejoin="miter" stroke="rgb(0%, 0%, 0%)" stroke-opacity="1" stroke-miterlimit="10" d="M 7.044844 0.00034375 C 7.044844 3.890969 3.8925 7.047219 0.001875 7.047219 C -3.892656 7.047219 -7.045 3.890969 -7.045 0.00034375 C -7.045 -3.890281 -3.892656 -7.046531 0.001875 -7.046531 C 3.8925 -7.046531 7.044844 -3.890281 7.044844 0.00034375 Z M 7.044844 0.00034375 " transform="matrix(1, 0, 0, -1, 22.17, 30.223)"/>
<path fill-rule="nonzero" fill="rgb(0%, 0%, 0%)" fill-opacity="1" d="M 61.046875 30.222656 C 61.046875 29.949219 60.820312 29.726562 60.546875 29.726562 C 60.273438 29.726562 60.050781 29.949219 60.050781 30.222656 C 60.050781 30.5 60.273438 30.722656 60.546875 30.722656 C 60.820312 30.722656 61.046875 30.5 61.046875 30.222656 Z M 61.046875 30.222656 "/>
<path fill-rule="nonzero" fill="rgb(0%, 0%, 0%)" fill-opacity="1" d="M 29.148438 75.777344 C 29.148438 75.5 28.925781 75.277344 28.652344 75.277344 C 28.375 75.277344 28.152344 75.5 28.152344 75.777344 C 28.152344 76.050781 28.375 76.273438 28.652344 76.273438 C 28.925781 76.273438 29.148438 76.050781 29.148438 75.777344 Z M 29.148438 75.777344 "/>
<path fill-rule="nonzero" fill="rgb(79.998779%, 79.998779%, 79.998779%)" fill-opacity="1" stroke-width="0.3985" stroke-linecap="butt" stroke-linejoin="miter" stroke="rgb(0%, 0%, 0%)" stroke-opacity="1" stroke-miterlimit="10" d="M 7.045813 0.001625 C 7.045813 3.89225 3.889563 7.044594 -0.0010625 7.044594 C -3.891687 7.044594 -7.044031 3.89225 -7.044031 0.001625 C -7.044031 -3.892906 -3.891687 -7.04525 -0.0010625 -7.04525 C 3.889563 -7.04525 7.045813 -3.892906 7.045813 0.001625 Z M 7.045813 0.001625 " transform="matrix(1, 0, 0, -1, 11.087, 100.861)"/>
<path fill-rule="nonzero" fill="rgb(79.998779%, 79.998779%, 79.998779%)" fill-opacity="1" stroke-width="0.3985" stroke-linecap="butt" stroke-linejoin="miter" stroke="rgb(0%, 0%, 0%)" stroke-opacity="1" stroke-miterlimit="10" d="M 7.046719 0.001625 C 7.046719 3.89225 3.890469 7.044594 -0.00015625 7.044594 C -3.890781 7.044594 -7.047031 3.89225 -7.047031 0.001625 C -7.047031 -3.892906 -3.890781 -7.04525 -0.00015625 -7.04525 C 3.890469 -7.04525 7.046719 -3.892906 7.046719 0.001625 Z M 7.046719 0.001625 " transform="matrix(1, 0, 0, -1, 46.215, 100.861)"/>
<path fill-rule="nonzero" fill="rgb(0%, 0%, 0%)" fill-opacity="1" d="M 92.941406 75.777344 C 92.941406 75.5 92.71875 75.277344 92.441406 75.277344 C 92.167969 75.277344 91.945312 75.5 91.945312 75.777344 C 91.945312 76.050781 92.167969 76.273438 92.441406 76.273438 C 92.71875 76.273438 92.941406 76.050781 92.941406 75.777344 Z M 92.941406 75.777344 "/>
<path fill-rule="nonzero" fill="rgb(79.998779%, 79.998779%, 79.998779%)" fill-opacity="1" stroke-width="0.3985" stroke-linecap="butt" stroke-linejoin="miter" stroke="rgb(0%, 0%, 0%)" stroke-opacity="1" stroke-miterlimit="10" d="M 7.043875 0.001625 C 7.043875 3.89225 3.891531 7.044594 0.00090625 7.044594 C -3.889719 7.044594 -7.045969 3.89225 -7.045969 0.001625 C -7.045969 -3.892906 -3.889719 -7.04525 0.00090625 -7.04525 C 3.891531 -7.04525 7.043875 -3.892906 7.043875 0.001625 Z M 7.043875 0.001625 " transform="matrix(1, 0, 0, -1, 74.878, 100.861)"/>
<path fill-rule="nonzero" fill="rgb(0%, 0%, 0%)" fill-opacity="1" d="M 110.503906 100.859375 C 110.503906 100.585938 110.28125 100.363281 110.007812 100.363281 C 109.730469 100.363281 109.507812 100.585938 109.507812 100.859375 C 109.507812 101.136719 109.730469 101.359375 110.007812 101.359375 C 110.28125 101.359375 110.503906 101.136719 110.503906 100.859375 Z M 110.503906 100.859375 "/>
<path fill-rule="nonzero" fill="rgb(79.998779%, 79.998779%, 79.998779%)" fill-opacity="1" d="M 99.488281 125.945312 C 99.488281 122.054688 96.332031 118.902344 92.441406 118.902344 C 88.550781 118.902344 85.398438 122.054688 85.398438 125.945312 C 85.398438 129.835938 88.550781 132.992188 92.441406 132.992188 C 96.332031 132.992188 99.488281 129.835938 99.488281 125.945312 Z M 99.488281 125.945312 "/>
<g clip-path="url(#clip-0)">
<path fill="none" stroke-width="0.3985" stroke-linecap="butt" stroke-linejoin="miter" stroke="rgb(0%, 0%, 0%)" stroke-opacity="1" stroke-miterlimit="10" d="M 7.046281 0.0006875 C 7.046281 3.891312 3.890031 7.043656 -0.00059375 7.043656 C -3.891219 7.043656 -7.043562 3.891312 -7.043562 0.0006875 C -7.043562 -3.889938 -3.891219 -7.046188 -0.00059375 -7.046188 C 3.890031 -7.046188 7.046281 -3.889938 7.046281 0.0006875 Z M 7.046281 0.0006875 " transform="matrix(1, 0, 0, -1, 92.442, 125.946)"/>
</g>
<path fill-rule="nonzero" fill="rgb(79.998779%, 79.998779%, 79.998779%)" fill-opacity="1" d="M 134.617188 125.945312 C 134.617188 122.054688 131.460938 118.902344 127.570312 118.902344 C 123.679688 118.902344 120.523438 122.054688 120.523438 125.945312 C 120.523438 129.835938 123.679688 132.992188 127.570312 132.992188 C 131.460938 132.992188 134.617188 129.835938 134.617188 125.945312 Z M 134.617188 125.945312 "/>
<g clip-path="url(#clip-1)">
<path fill="none" stroke-width="0.3985" stroke-linecap="butt" stroke-linejoin="miter" stroke="rgb(0%, 0%, 0%)" stroke-opacity="1" stroke-miterlimit="10" d="M 7.047188 0.0006875 C 7.047188 3.891312 3.890938 7.043656 0.0003125 7.043656 C -3.890312 7.043656 -7.046562 3.891312 -7.046562 0.0006875 C -7.046562 -3.889938 -3.890312 -7.046188 0.0003125 -7.046188 C 3.890938 -7.046188 7.047188 -3.889938 7.047188 0.0006875 Z M 7.047188 0.0006875 " transform="matrix(1, 0, 0, -1, 127.57, 125.946)"/>
</g>
<path fill="none" stroke-width="0.3985" stroke-linecap="butt" stroke-linejoin="miter" stroke="rgb(0%, 0%, 0%)" stroke-opacity="1" stroke-miterlimit="10" d="M -1.729094 -2.471062 L -15.033781 -21.471062 " transform="matrix(1, 0, 0, -1, 41.358, 2.818)"/>
<path fill="none" stroke-width="0.3985" stroke-linecap="butt" stroke-linejoin="miter" stroke="rgb(0%, 0%, 0%)" stroke-opacity="1" stroke-miterlimit="10" d="M 1.731844 -2.471062 L 18.790438 -26.834344 " transform="matrix(1, 0, 0, -1, 41.358, 2.818)"/>
<path fill="none" stroke-width="0.3985" stroke-linecap="butt" stroke-linejoin="miter" stroke="rgb(0%, 0%, 0%)" stroke-opacity="1" stroke-miterlimit="10" d="M 18.790438 -27.974969 L -12.307219 -72.389031 " transform="matrix(1, 0, 0, -1, 41.358, 2.818)"/>
<path fill="none" stroke-width="0.3985" stroke-linecap="butt" stroke-linejoin="miter" stroke="rgb(0%, 0%, 0%)" stroke-opacity="1" stroke-miterlimit="10" d="M -13.108 -73.529656 L -26.115812 -92.111687 " transform="matrix(1, 0, 0, -1, 41.358, 2.818)"/>
<path fill="none" stroke-width="0.3985" stroke-linecap="butt" stroke-linejoin="miter" stroke="rgb(0%, 0%, 0%)" stroke-opacity="1" stroke-miterlimit="10" d="M -12.307219 -73.529656 L 0.700594 -92.111687 " transform="matrix(1, 0, 0, -1, 41.358, 2.818)"/>
<path fill="none" stroke-width="0.3985" stroke-linecap="butt" stroke-linejoin="miter" stroke="rgb(0%, 0%, 0%)" stroke-opacity="1" stroke-miterlimit="10" d="M 19.587313 -27.974969 L 50.684969 -72.389031 " transform="matrix(1, 0, 0, -1, 41.358, 2.818)"/>
<path fill="none" stroke-width="0.3985" stroke-linecap="butt" stroke-linejoin="miter" stroke="rgb(0%, 0%, 0%)" stroke-opacity="1" stroke-miterlimit="10" d="M 50.684969 -73.529656 L 37.677156 -92.111687 " transform="matrix(1, 0, 0, -1, 41.358, 2.818)"/>
<path fill="none" stroke-width="0.3985" stroke-linecap="butt" stroke-linejoin="miter" stroke="rgb(0%, 0%, 0%)" stroke-opacity="1" stroke-miterlimit="10" d="M 51.48575 -73.529656 L 68.247469 -97.474969 " transform="matrix(1, 0, 0, -1, 41.358, 2.818)"/>
<path fill="none" stroke-width="0.3985" stroke-linecap="butt" stroke-linejoin="miter" stroke="rgb(0%, 0%, 0%)" stroke-opacity="1" stroke-miterlimit="10" d="M 68.247469 -98.615594 L 55.239656 -117.193719 " transform="matrix(1, 0, 0, -1, 41.358, 2.818)"/>
<path fill="none" stroke-width="0.3985" stroke-linecap="butt" stroke-linejoin="miter" stroke="rgb(0%, 0%, 0%)" stroke-opacity="1" stroke-miterlimit="10" d="M 69.04825 -98.615594 L 82.056062 -117.193719 " transform="matrix(1, 0, 0, -1, 41.358, 2.818)"/>
</svg>
