<?xml version="1.0" encoding="UTF-8"?>
<svg xmlns="http://www.w3.org/2000/svg" xmlns:xlink="http://www.w3.org/1999/xlink" width="138.657" height="172.298" viewBox="0 0 138.657 172.298">
<defs>
<clipPath id="clip-0">
<path clip-rule="nonzero" d="M 85 158 L 100 158 L 100 172.296875 L 85 172.296875 Z M 85 158 "/>
</clipPath>
<clipPath id="clip-1">
<path clip-rule="nonzero" d="M 79 152 L 106 152 L 106 172.296875 L 79 172.296875 Z M 79 152 "/>
</clipPath>
<clipPath id="clip-2">
<path clip-rule="nonzero" d="M 120 158 L 135 158 L 135 172.296875 L 120 172.296875 Z M 120 158 "/>
</clipPath>
<clipPath id="clip-3">
<path clip-rule="nonzero" d="M 114 152 L 138.65625 152 L 138.65625 172.296875 L 114 172.296875 Z M 114 152 "/>
</clipPath>
</defs>
<path fill-rule="nonzero" fill="rgb(0%, 0%, 0%)" fill-opacity="1" d="M 74.808594 2.816406 C 74.808594 1.261719 73.546875 0 71.988281 0 C 70.433594 0 69.171875 1.261719 69.171875 2.816406 C 69.171875 4.375 70.433594 5.636719 71.988281 5.636719 C 73.546875 5.636719 74.808594 4.375 74.808594 2.816406 Z M 74.808594 2.816406 "/>
<path fill-rule="nonzero" fill="rgb(0%, 0%, 0%)" fill-opacity="1" d="M 43.480469 44.246094 C 43.480469 43.96875 43.257812 43.746094 42.984375 43.746094 C 42.707031 43.746094 42.484375 43.96875 42.484375 44.246094 C 42.484375 44.519531 42.707031 44.742188 42.984375 44.742188 C 43.257812 44.742188 43.480469 44.519531 43.480469 44.246094 Z M 43.480469 44.246094 "/>
<path fill-rule="nonzero" fill="rgb(79.998779%, 79.998779%, 79.998779%)" fill-opacity="1" stroke-width="0.3985" stroke-linecap="butt" stroke-linejoin="miter" stroke="rgb(0%, 0%, 0%)" stroke-opacity="1" stroke-miterlimit="10" d="M 7.046844 0.001875 C 7.046844 3.8925 3.890594 7.044844 -0.00003125 7.044844 C -3.890656 7.044844 -7.046906 3.8925 -7.046906 0.001875 C -7.046906 -3.892656 -3.890656 -7.045 -0.00003125 -7.045 C 3.890594 -7.045 7.046844 -3.892656 7.046844 0.001875 Z M 7.046844 0.001875 " transform="matrix(1, 0, 0, -1, 25.418, 69.33)"/>
<path fill-rule="nonzero" fill="rgb(0%, 0%, 0%)" fill-opacity="1" d="M 61.046875 69.328125 C 61.046875 69.054688 60.820312 68.832031 60.546875 68.832031 C 60.273438 68.832031 60.050781 69.054688 60.050781 69.328125 C 60.050781 69.605469 60.273438 69.828125 60.546875 69.828125 C 60.820312 69.828125 61.046875 69.605469 61.046875 69.328125 Z M 61.046875 69.328125 "/>
<path fill-rule="nonzero" fill="rgb(0%, 0%, 0%)" fill-opacity="1" d="M 29.148438 114.882812 C 29.148438 114.609375 28.925781 114.386719 28.652344 114.386719 C 28.375 114.386719 28.152344 114.609375 28.152344 114.882812 C 28.152344 115.15625 28.375 115.382812 28.652344 115.382812 C 28.925781 115.382812 29.148438 115.15625 29.148438 114.882812 Z M 29.148438 114.882812 "/>
<path fill-rule="nonzero" fill="rgb(79.998779%, 79.998779%, 79.998779%)" fill-opacity="1" stroke-width="0.3985" stroke-linecap="butt" stroke-linejoin="miter" stroke="rgb(0%, 0%, 0%)" stroke-opacity="1" stroke-miterlimit="10" d="M 7.045812 -0.00075 C 7.045812 3.889875 3.889562 7.046125 -0.0010625 7.046125 C -3.891688 7.046125 -7.044031 3.889875 -7.044031 -0.00075 C -7.044031 -3.891375 -3.891688 -7.043719 -0.0010625 -7.043719 C 3.889562 -7.043719 7.045812 -3.891375 7.045812 -0.00075 Z M 7.045812 -0.00075 " transform="matrix(1, 0, 0, -1, 11.087, 139.968)"/>
<path fill-rule="nonzero" fill="rgb(79.998779%, 79.998779%, 79.998779%)" fill-opacity="1" stroke-width="0.3985" stroke-linecap="butt" stroke-linejoin="miter" stroke="rgb(0%, 0%, 0%)" stroke-opacity="1" stroke-miterlimit="10" d="M 7.046719 -0.00075 C 7.046719 3.889875 3.890469 7.046125 -0.00015625 7.046125 C -3.890781 7.046125 -7.047031 3.889875 -7.047031 -0.00075 C -7.047031 -3.891375 -3.890781 -7.043719 -0.00015625 -7.043719 C 3.890469 -7.043719 7.046719 -3.891375 7.046719 -0.00075 Z M 7.046719 -0.00075 " transform="matrix(1, 0, 0, -1, 46.215, 139.968)"/>
<path fill-rule="nonzero" fill="rgb(0%, 0%, 0%)" fill-opacity="1" d="M 92.941406 114.882812 C 92.941406 114.609375 92.71875 114.386719 92.441406 114.386719 C 92.167969 114.386719 91.945312 114.609375 91.945312 114.882812 C 91.945312 115.15625 92.167969 115.382812 92.441406 115.382812 C 92.71875 115.382812 92.941406 115.15625 92.941406 114.882812 Z M 92.941406 114.882812 "/>
<path fill-rule="nonzero" fill="rgb(79.998779%, 79.998779%, 79.998779%)" fill-opacity="1" stroke-width="0.3985" stroke-linecap="butt" stroke-linejoin="miter" stroke="rgb(0%, 0%, 0%)" stroke-opacity="1" stroke-miterlimit="10" d="M 7.043875 -0.00075 C 7.043875 3.889875 3.891531 7.046125 0.00090625 7.046125 C -3.889719 7.046125 -7.045969 3.889875 -7.045969 -0.00075 C -7.045969 -3.891375 -3.889719 -7.043719 0.00090625 -7.043719 C 3.891531 -7.043719 7.043875 -3.891375 7.043875 -0.00075 Z M 7.043875 -0.00075 " transform="matrix(1, 0, 0, -1, 74.878, 139.968)"/>
<path fill-rule="nonzero" fill="rgb(0%, 0%, 0%)" fill-opacity="1" d="M 110.503906 139.96875 C 110.503906 139.691406 110.28125 139.46875 110.007812 139.46875 C 109.730469 139.46875 109.507812 139.691406 109.507812 139.96875 C 109.507812 140.242188 109.730469 140.464844 110.007812 140.464844 C 110.28125 140.464844 110.503906 140.242188 110.503906 139.96875 Z M 110.503906 139.96875 "/>
<g clip-path="url(#clip-0)">
<path fill-rule="nonzero" fill="rgb(79.998779%, 79.998779%, 79.998779%)" fill-opacity="1" d="M 99.488281 165.054688 C 99.488281 161.160156 96.332031 158.007812 92.441406 158.007812 C 88.550781 158.007812 85.398438 161.160156 85.398438 165.054688 C 85.398438 168.945312 88.550781 172.097656 92.441406 172.097656 C 96.332031 172.097656 99.488281 168.945312 99.488281 165.054688 Z M 99.488281 165.054688 "/>
</g>
<g clip-path="url(#clip-1)">
<path fill="none" stroke-width="0.3985" stroke-linecap="butt" stroke-linejoin="miter" stroke="rgb(0%, 0%, 0%)" stroke-opacity="1" stroke-miterlimit="10" d="M 7.046281 -0.0016875 C 7.046281 3.892844 3.890031 7.045187 -0.00059375 7.045187 C -3.891219 7.045187 -7.043563 3.892844 -7.043563 -0.0016875 C -7.043563 -3.892313 -3.891219 -7.044656 -0.00059375 -7.044656 C 3.890031 -7.044656 7.046281 -3.892313 7.046281 -0.0016875 Z M 7.046281 -0.0016875 " transform="matrix(1, 0, 0, -1, 92.442, 165.053)"/>
</g>
<g clip-path="url(#clip-2)">
<path fill-rule="nonzero" fill="rgb(79.998779%, 79.998779%, 79.998779%)" fill-opacity="1" d="M 134.617188 165.054688 C 134.617188 161.160156 131.460938 158.007812 127.570312 158.007812 C 123.679688 158.007812 120.523438 161.160156 120.523438 165.054688 C 120.523438 168.945312 123.679688 172.097656 127.570312 172.097656 C 131.460938 172.097656 134.617188 168.945312 134.617188 165.054688 Z M 134.617188 165.054688 "/>
</g>
<g clip-path="url(#clip-3)">
<path fill="none" stroke-width="0.3985" stroke-linecap="butt" stroke-linejoin="miter" stroke="rgb(0%, 0%, 0%)" stroke-opacity="1" stroke-miterlimit="10" d="M 7.047188 -0.0016875 C 7.047188 3.892844 3.890938 7.045187 0.0003125 7.045187 C -3.890312 7.045187 -7.046562 3.892844 -7.046562 -0.0016875 C -7.046562 -3.892313 -3.890312 -7.044656 0.0003125 -7.044656 C 3.890938 -7.044656 7.047188 -3.892313 7.047188 -0.0016875 Z M 7.047188 -0.0016875 " transform="matrix(1, 0, 0, -1, 127.57, 165.053)"/>
</g>
<path fill-rule="nonzero" fill="rgb(0%, 0%, 0%)" fill-opacity="1" d="M 101.492188 44.246094 C 101.492188 43.96875 101.269531 43.746094 100.996094 43.746094 C 100.71875 43.746094 100.496094 43.96875 100.496094 44.246094 C 100.496094 44.519531 100.71875 44.742188 100.996094 44.742188 C 101.269531 44.742188 101.492188 44.519531 101.492188 44.246094 Z M 101.492188 44.246094 "/>
<path fill-rule="nonzero" fill="rgb(79.998779%, 79.998779%, 79.998779%)" fill-opacity="1" stroke-width="0.3985" stroke-linecap="butt" stroke-linejoin="miter" stroke="rgb(0%, 0%, 0%)" stroke-opacity="1" stroke-miterlimit="10" d="M 7.045562 0.001875 C 7.045562 3.8925 3.889312 7.044844 -0.0013125 7.044844 C -3.891938 7.044844 -7.044281 3.8925 -7.044281 0.001875 C -7.044281 -3.892656 -3.891938 -7.045 -0.0013125 -7.045 C 3.889312 -7.045 7.045562 -3.892656 7.045562 0.001875 Z M 7.045562 0.001875 " transform="matrix(1, 0, 0, -1, 83.431, 69.33)"/>
<path fill-rule="nonzero" fill="rgb(79.998779%, 79.998779%, 79.998779%)" fill-opacity="1" stroke-width="0.3985" stroke-linecap="butt" stroke-linejoin="miter" stroke="rgb(0%, 0%, 0%)" stroke-opacity="1" stroke-miterlimit="10" d="M 7.046469 0.001875 C 7.046469 3.8925 3.890219 7.044844 -0.00040625 7.044844 C -3.891031 7.044844 -7.047281 3.8925 -7.047281 0.001875 C -7.047281 -3.892656 -3.891031 -7.045 -0.00040625 -7.045 C 3.890219 -7.045 7.046469 -3.892656 7.046469 0.001875 Z M 7.046469 0.001875 " transform="matrix(1, 0, 0, -1, 118.559, 69.33)"/>
<path fill="none" stroke-width="0.3985" stroke-linecap="butt" stroke-linejoin="miter" stroke="rgb(0%, 0%, 0%)" stroke-opacity="1" stroke-miterlimit="10" d="M -1.731188 -2.471063 L -28.606188 -40.857781 " transform="matrix(1, 0, 0, -1, 71.989, 2.818)"/>
<path fill="none" stroke-width="0.3985" stroke-linecap="butt" stroke-linejoin="miter" stroke="rgb(0%, 0%, 0%)" stroke-opacity="1" stroke-miterlimit="10" d="M -29.406969 -41.998406 L -42.414781 -60.576531 " transform="matrix(1, 0, 0, -1, 71.989, 2.818)"/>
<path fill="none" stroke-width="0.3985" stroke-linecap="butt" stroke-linejoin="miter" stroke="rgb(0%, 0%, 0%)" stroke-opacity="1" stroke-miterlimit="10" d="M -28.606188 -41.998406 L -11.840563 -65.939813 " transform="matrix(1, 0, 0, -1, 71.989, 2.818)"/>
<path fill="none" stroke-width="0.3985" stroke-linecap="butt" stroke-linejoin="miter" stroke="rgb(0%, 0%, 0%)" stroke-opacity="1" stroke-miterlimit="10" d="M -11.840563 -67.084344 L -42.938219 -111.4945 " transform="matrix(1, 0, 0, -1, 71.989, 2.818)"/>
<path fill="none" stroke-width="0.3985" stroke-linecap="butt" stroke-linejoin="miter" stroke="rgb(0%, 0%, 0%)" stroke-opacity="1" stroke-miterlimit="10" d="M -43.739 -112.639031 L -56.746813 -131.217156 " transform="matrix(1, 0, 0, -1, 71.989, 2.818)"/>
<path fill="none" stroke-width="0.3985" stroke-linecap="butt" stroke-linejoin="miter" stroke="rgb(0%, 0%, 0%)" stroke-opacity="1" stroke-miterlimit="10" d="M -42.938219 -112.639031 L -29.930406 -131.217156 " transform="matrix(1, 0, 0, -1, 71.989, 2.818)"/>
<path fill="none" stroke-width="0.3985" stroke-linecap="butt" stroke-linejoin="miter" stroke="rgb(0%, 0%, 0%)" stroke-opacity="1" stroke-miterlimit="10" d="M -11.043688 -67.084344 L 20.053969 -111.4945 " transform="matrix(1, 0, 0, -1, 71.989, 2.818)"/>
<path fill="none" stroke-width="0.3985" stroke-linecap="butt" stroke-linejoin="miter" stroke="rgb(0%, 0%, 0%)" stroke-opacity="1" stroke-miterlimit="10" d="M 20.053969 -112.639031 L 7.04225 -131.217156 " transform="matrix(1, 0, 0, -1, 71.989, 2.818)"/>
<path fill="none" stroke-width="0.3985" stroke-linecap="butt" stroke-linejoin="miter" stroke="rgb(0%, 0%, 0%)" stroke-opacity="1" stroke-miterlimit="10" d="M 20.85475 -112.639031 L 37.616469 -136.580438 " transform="matrix(1, 0, 0, -1, 71.989, 2.818)"/>
<path fill="none" stroke-width="0.3985" stroke-linecap="butt" stroke-linejoin="miter" stroke="rgb(0%, 0%, 0%)" stroke-opacity="1" stroke-miterlimit="10" d="M 37.616469 -137.724969 L 24.608656 -156.303094 " transform="matrix(1, 0, 0, -1, 71.989, 2.818)"/>
<path fill="none" stroke-width="0.3985" stroke-linecap="butt" stroke-linejoin="miter" stroke="rgb(0%, 0%, 0%)" stroke-opacity="1" stroke-miterlimit="10" d="M 38.41725 -137.724969 L 51.425062 -156.303094 " transform="matrix(1, 0, 0, -1, 71.989, 2.818)"/>
<path fill="none" stroke-width="0.3985" stroke-linecap="butt" stroke-linejoin="miter" stroke="rgb(0%, 0%, 0%)" stroke-opacity="1" stroke-miterlimit="10" d="M 1.72975 -2.471063 L 28.60475 -40.857781 " transform="matrix(1, 0, 0, -1, 71.989, 2.818)"/>
<path fill="none" stroke-width="0.3985" stroke-linecap="butt" stroke-linejoin="miter" stroke="rgb(0%, 0%, 0%)" stroke-opacity="1" stroke-miterlimit="10" d="M 28.60475 -41.998406 L 15.596937 -60.576531 " transform="matrix(1, 0, 0, -1, 71.989, 2.818)"/>
<path fill="none" stroke-width="0.3985" stroke-linecap="butt" stroke-linejoin="miter" stroke="rgb(0%, 0%, 0%)" stroke-opacity="1" stroke-miterlimit="10" d="M 29.405531 -41.998406 L 42.41725 -60.576531 " transform="matrix(1, 0, 0, -1, 71.989, 2.818)"/>
</svg>
