<?xml version="1.0" encoding="UTF-8"?>
<svg xmlns="http://www.w3.org/2000/svg" xmlns:xlink="http://www.w3.org/1999/xlink" width="156.221" height="158.276" viewBox="0 0 156.221 158.276">
<defs>
<clipPath id="clip-0">
<path clip-rule="nonzero" d="M 102 143 L 118 143 L 118 158.277344 L 102 158.277344 Z M 102 143 "/>
</clipPath>
<clipPath id="clip-1">
<path clip-rule="nonzero" d="M 97 138 L 123 138 L 123 158.277344 L 97 158.277344 Z M 97 138 "/>
</clipPath>
<clipPath id="clip-2">
<path clip-rule="nonzero" d="M 138 143 L 153 143 L 153 158.277344 L 138 158.277344 Z M 138 143 "/>
</clipPath>
<clipPath id="clip-3">
<path clip-rule="nonzero" d="M 132 138 L 156.222656 138 L 156.222656 158.277344 L 132 158.277344 Z M 132 138 "/>
</clipPath>
</defs>
<path fill-rule="nonzero" fill="rgb(0%, 0%, 0%)" fill-opacity="1" d="M 82.554688 2.816406 C 82.554688 1.261719 81.292969 0 79.734375 0 C 78.179688 0 76.917969 1.261719 76.917969 2.816406 C 76.917969 4.375 78.179688 5.636719 79.734375 5.636719 C 81.292969 5.636719 82.554688 4.375 82.554688 2.816406 Z M 82.554688 2.816406 "/>
<path fill-rule="nonzero" fill="rgb(0%, 0%, 0%)" fill-opacity="1" d="M 61.046875 30.222656 C 61.046875 29.949219 60.820312 29.726562 60.546875 29.726562 C 60.273438 29.726562 60.050781 29.949219 60.050781 30.222656 C 60.050781 30.5 60.273438 30.722656 60.546875 30.722656 C 60.820312 30.722656 61.046875 30.5 61.046875 30.222656 Z M 61.046875 30.222656 "/>
<path fill-rule="nonzero" fill="rgb(0%, 0%, 0%)" fill-opacity="1" d="M 29.148438 75.777344 C 29.148438 75.5 28.925781 75.277344 28.652344 75.277344 C 28.375 75.277344 28.152344 75.5 28.152344 75.777344 C 28.152344 76.050781 28.375 76.273438 28.652344 76.273438 C 28.925781 76.273438 29.148438 76.050781 29.148438 75.777344 Z M 29.148438 75.777344 "/>
<path fill-rule="nonzero" fill="rgb(79.998779%, 79.998779%, 79.998779%)" fill-opacity="1" stroke-width="0.3985" stroke-linecap="butt" stroke-linejoin="miter" stroke="rgb(0%, 0%, 0%)" stroke-opacity="1" stroke-miterlimit="10" d="M 7.045812 0.001625 C 7.045812 3.89225 3.889562 7.044594 -0.0010625 7.044594 C -3.891688 7.044594 -7.044031 3.89225 -7.044031 0.001625 C -7.044031 -3.892906 -3.891688 -7.04525 -0.0010625 -7.04525 C 3.889562 -7.04525 7.045812 -3.892906 7.045812 0.001625 Z M 7.045812 0.001625 " transform="matrix(1, 0, 0, -1, 11.087, 100.861)"/>
<path fill-rule="nonzero" fill="rgb(79.998779%, 79.998779%, 79.998779%)" fill-opacity="1" stroke-width="0.3985" stroke-linecap="butt" stroke-linejoin="miter" stroke="rgb(0%, 0%, 0%)" stroke-opacity="1" stroke-miterlimit="10" d="M 7.046719 0.001625 C 7.046719 3.89225 3.890469 7.044594 -0.00015625 7.044594 C -3.890781 7.044594 -7.047031 3.89225 -7.047031 0.001625 C -7.047031 -3.892906 -3.890781 -7.04525 -0.00015625 -7.04525 C 3.890469 -7.04525 7.046719 -3.892906 7.046719 0.001625 Z M 7.046719 0.001625 " transform="matrix(1, 0, 0, -1, 46.215, 100.861)"/>
<path fill-rule="nonzero" fill="rgb(0%, 0%, 0%)" fill-opacity="1" d="M 92.941406 75.777344 C 92.941406 75.5 92.71875 75.277344 92.441406 75.277344 C 92.167969 75.277344 91.945312 75.5 91.945312 75.777344 C 91.945312 76.050781 92.167969 76.273438 92.441406 76.273438 C 92.71875 76.273438 92.941406 76.050781 92.941406 75.777344 Z M 92.941406 75.777344 "/>
<path fill-rule="nonzero" fill="rgb(79.998779%, 79.998779%, 79.998779%)" fill-opacity="1" stroke-width="0.3985" stroke-linecap="butt" stroke-linejoin="miter" stroke="rgb(0%, 0%, 0%)" stroke-opacity="1" stroke-miterlimit="10" d="M 7.043875 0.001625 C 7.043875 3.89225 3.891531 7.044594 0.00090625 7.044594 C -3.889719 7.044594 -7.045969 3.89225 -7.045969 0.001625 C -7.045969 -3.892906 -3.889719 -7.04525 0.00090625 -7.04525 C 3.891531 -7.04525 7.043875 -3.892906 7.043875 0.001625 Z M 7.043875 0.001625 " transform="matrix(1, 0, 0, -1, 74.878, 100.861)"/>
<path fill-rule="nonzero" fill="rgb(0%, 0%, 0%)" fill-opacity="1" d="M 110.503906 100.859375 C 110.503906 100.585938 110.28125 100.363281 110.007812 100.363281 C 109.730469 100.363281 109.507812 100.585938 109.507812 100.859375 C 109.507812 101.136719 109.730469 101.359375 110.007812 101.359375 C 110.28125 101.359375 110.503906 101.136719 110.503906 100.859375 Z M 110.503906 100.859375 "/>
<path fill-rule="nonzero" fill="rgb(79.998779%, 79.998779%, 79.998779%)" fill-opacity="1" stroke-width="0.3985" stroke-linecap="butt" stroke-linejoin="miter" stroke="rgb(0%, 0%, 0%)" stroke-opacity="1" stroke-miterlimit="10" d="M 7.046281 0.0006875 C 7.046281 3.891312 3.890031 7.043656 -0.00059375 7.043656 C -3.891219 7.043656 -7.043562 3.891312 -7.043562 0.0006875 C -7.043562 -3.889938 -3.891219 -7.046188 -0.00059375 -7.046188 C 3.890031 -7.046188 7.046281 -3.889938 7.046281 0.0006875 Z M 7.046281 0.0006875 " transform="matrix(1, 0, 0, -1, 92.442, 125.946)"/>
<path fill-rule="nonzero" fill="rgb(0%, 0%, 0%)" fill-opacity="1" d="M 128.066406 125.945312 C 128.066406 125.671875 127.84375 125.449219 127.570312 125.449219 C 127.292969 125.449219 127.070312 125.671875 127.070312 125.945312 C 127.070312 126.222656 127.292969 126.445312 127.570312 126.445312 C 127.84375 126.445312 128.066406 126.222656 128.066406 125.945312 Z M 128.066406 125.945312 "/>
<g clip-path="url(#clip-0)">
<path fill-rule="nonzero" fill="rgb(79.998779%, 79.998779%, 79.998779%)" fill-opacity="1" d="M 117.050781 151.03125 C 117.050781 147.140625 113.898438 143.984375 110.007812 143.984375 C 106.113281 143.984375 102.960938 147.140625 102.960938 151.03125 C 102.960938 154.921875 106.113281 158.078125 110.007812 158.078125 C 113.898438 158.078125 117.050781 154.921875 117.050781 151.03125 Z M 117.050781 151.03125 "/>
</g>
<g clip-path="url(#clip-1)">
<path fill="none" stroke-width="0.3985" stroke-linecap="butt" stroke-linejoin="miter" stroke="rgb(0%, 0%, 0%)" stroke-opacity="1" stroke-miterlimit="10" d="M 7.044781 -0.00025 C 7.044781 3.890375 3.892437 7.046625 0.0018125 7.046625 C -3.892719 7.046625 -7.045063 3.890375 -7.045063 -0.00025 C -7.045063 -3.890875 -3.892719 -7.047125 0.0018125 -7.047125 C 3.892437 -7.047125 7.044781 -3.890875 7.044781 -0.00025 Z M 7.044781 -0.00025 " transform="matrix(1, 0, 0, -1, 110.006, 151.031)"/>
</g>
<g clip-path="url(#clip-2)">
<path fill-rule="nonzero" fill="rgb(79.998779%, 79.998779%, 79.998779%)" fill-opacity="1" d="M 152.179688 151.03125 C 152.179688 147.140625 149.023438 143.984375 145.132812 143.984375 C 141.242188 143.984375 138.089844 147.140625 138.089844 151.03125 C 138.089844 154.921875 141.242188 158.078125 145.132812 158.078125 C 149.023438 158.078125 152.179688 154.921875 152.179688 151.03125 Z M 152.179688 151.03125 "/>
</g>
<g clip-path="url(#clip-3)">
<path fill="none" stroke-width="0.3985" stroke-linecap="butt" stroke-linejoin="miter" stroke="rgb(0%, 0%, 0%)" stroke-opacity="1" stroke-miterlimit="10" d="M 7.045687 -0.00025 C 7.045687 3.890375 3.889437 7.046625 -0.0011875 7.046625 C -3.891813 7.046625 -7.044156 3.890375 -7.044156 -0.00025 C -7.044156 -3.890875 -3.891813 -7.047125 -0.0011875 -7.047125 C 3.889437 -7.047125 7.045687 -3.890875 7.045687 -0.00025 Z M 7.045687 -0.00025 " transform="matrix(1, 0, 0, -1, 145.134, 151.031)"/>
</g>
<path fill-rule="nonzero" fill="rgb(79.998779%, 79.998779%, 79.998779%)" fill-opacity="1" stroke-width="0.3985" stroke-linecap="butt" stroke-linejoin="miter" stroke="rgb(0%, 0%, 0%)" stroke-opacity="1" stroke-miterlimit="10" d="M 7.04475 0.00034375 C 7.04475 3.890969 3.892406 7.047219 0.00178125 7.047219 C -3.89275 7.047219 -7.045094 3.890969 -7.045094 0.00034375 C -7.045094 -3.890281 -3.89275 -7.046531 0.00178125 -7.046531 C 3.892406 -7.046531 7.04475 -3.890281 7.04475 0.00034375 Z M 7.04475 0.00034375 " transform="matrix(1, 0, 0, -1, 98.924, 30.223)"/>
<path fill="none" stroke-width="0.3985" stroke-linecap="butt" stroke-linejoin="miter" stroke="rgb(0%, 0%, 0%)" stroke-opacity="1" stroke-miterlimit="10" d="M -1.731094 -2.471063 L -18.789687 -26.834344 " transform="matrix(1, 0, 0, -1, 79.735, 2.818)"/>
<path fill="none" stroke-width="0.3985" stroke-linecap="butt" stroke-linejoin="miter" stroke="rgb(0%, 0%, 0%)" stroke-opacity="1" stroke-miterlimit="10" d="M -19.590469 -27.974969 L -50.684219 -72.389031 " transform="matrix(1, 0, 0, -1, 79.735, 2.818)"/>
<path fill="none" stroke-width="0.3985" stroke-linecap="butt" stroke-linejoin="miter" stroke="rgb(0%, 0%, 0%)" stroke-opacity="1" stroke-miterlimit="10" d="M -51.485 -73.529656 L -64.492812 -92.111688 " transform="matrix(1, 0, 0, -1, 79.735, 2.818)"/>
<path fill="none" stroke-width="0.3985" stroke-linecap="butt" stroke-linejoin="miter" stroke="rgb(0%, 0%, 0%)" stroke-opacity="1" stroke-miterlimit="10" d="M -50.684219 -73.529656 L -37.676406 -92.111688 " transform="matrix(1, 0, 0, -1, 79.735, 2.818)"/>
<path fill="none" stroke-width="0.3985" stroke-linecap="butt" stroke-linejoin="miter" stroke="rgb(0%, 0%, 0%)" stroke-opacity="1" stroke-miterlimit="10" d="M -18.789687 -27.974969 L 12.307969 -72.389031 " transform="matrix(1, 0, 0, -1, 79.735, 2.818)"/>
<path fill="none" stroke-width="0.3985" stroke-linecap="butt" stroke-linejoin="miter" stroke="rgb(0%, 0%, 0%)" stroke-opacity="1" stroke-miterlimit="10" d="M 12.307969 -73.529656 L -0.70375 -92.111688 " transform="matrix(1, 0, 0, -1, 79.735, 2.818)"/>
<path fill="none" stroke-width="0.3985" stroke-linecap="butt" stroke-linejoin="miter" stroke="rgb(0%, 0%, 0%)" stroke-opacity="1" stroke-miterlimit="10" d="M 13.10875 -73.529656 L 29.870469 -97.474969 " transform="matrix(1, 0, 0, -1, 79.735, 2.818)"/>
<path fill="none" stroke-width="0.3985" stroke-linecap="butt" stroke-linejoin="miter" stroke="rgb(0%, 0%, 0%)" stroke-opacity="1" stroke-miterlimit="10" d="M 29.870469 -98.615594 L 16.862656 -117.193719 " transform="matrix(1, 0, 0, -1, 79.735, 2.818)"/>
<path fill="none" stroke-width="0.3985" stroke-linecap="butt" stroke-linejoin="miter" stroke="rgb(0%, 0%, 0%)" stroke-opacity="1" stroke-miterlimit="10" d="M 30.67125 -98.615594 L 47.436875 -122.557 " transform="matrix(1, 0, 0, -1, 79.735, 2.818)"/>
<path fill="none" stroke-width="0.3985" stroke-linecap="butt" stroke-linejoin="miter" stroke="rgb(0%, 0%, 0%)" stroke-opacity="1" stroke-miterlimit="10" d="M 47.436875 -123.701531 L 34.425156 -142.279656 " transform="matrix(1, 0, 0, -1, 79.735, 2.818)"/>
<path fill="none" stroke-width="0.3985" stroke-linecap="butt" stroke-linejoin="miter" stroke="rgb(0%, 0%, 0%)" stroke-opacity="1" stroke-miterlimit="10" d="M 48.23375 -123.701531 L 61.245469 -142.279656 " transform="matrix(1, 0, 0, -1, 79.735, 2.818)"/>
<path fill="none" stroke-width="0.3985" stroke-linecap="butt" stroke-linejoin="miter" stroke="rgb(0%, 0%, 0%)" stroke-opacity="1" stroke-miterlimit="10" d="M 1.729844 -2.471063 L 15.034531 -21.471063 " transform="matrix(1, 0, 0, -1, 79.735, 2.818)"/>
</svg>
