<?xml version="1.0" encoding="UTF-8"?>
<svg xmlns="http://www.w3.org/2000/svg" xmlns:xlink="http://www.w3.org/1999/xlink" width="147.21" height="199.703" viewBox="0 0 147.21 199.703">
<defs>
<clipPath id="clip-0">
<path clip-rule="nonzero" d="M 30 185 L 45 185 L 45 199.703125 L 30 199.703125 Z M 30 185 "/>
</clipPath>
<clipPath id="clip-1">
<path clip-rule="nonzero" d="M 24 179 L 50 179 L 50 199.703125 L 24 199.703125 Z M 24 179 "/>
</clipPath>
<clipPath id="clip-2">
<path clip-rule="nonzero" d="M 65 185 L 80 185 L 80 199.703125 L 65 199.703125 Z M 65 185 "/>
</clipPath>
<clipPath id="clip-3">
<path clip-rule="nonzero" d="M 59 179 L 86 179 L 86 199.703125 L 59 199.703125 Z M 59 179 "/>
</clipPath>
<clipPath id="clip-4">
<path clip-rule="nonzero" d="M 93 185 L 109 185 L 109 199.703125 L 93 199.703125 Z M 93 185 "/>
</clipPath>
<clipPath id="clip-5">
<path clip-rule="nonzero" d="M 88 179 L 114 179 L 114 199.703125 L 88 199.703125 Z M 88 179 "/>
</clipPath>
<clipPath id="clip-6">
<path clip-rule="nonzero" d="M 129 185 L 144 185 L 144 199.703125 L 129 199.703125 Z M 129 185 "/>
</clipPath>
<clipPath id="clip-7">
<path clip-rule="nonzero" d="M 123 179 L 147.210938 179 L 147.210938 199.703125 L 123 199.703125 Z M 123 179 "/>
</clipPath>
</defs>
<path fill-rule="nonzero" fill="rgb(0%, 0%, 0%)" fill-opacity="1" d="M 41.285156 2.816406 C 41.285156 1.261719 40.023438 0 38.46875 0 C 36.914062 0 35.652344 1.261719 35.652344 2.816406 C 35.652344 4.375 36.914062 5.636719 38.46875 5.636719 C 40.023438 5.636719 41.285156 4.375 41.285156 2.816406 Z M 41.285156 2.816406 "/>
<path fill-rule="nonzero" fill="rgb(79.998779%, 79.998779%, 79.998779%)" fill-opacity="1" stroke-width="0.3985" stroke-linecap="butt" stroke-linejoin="miter" stroke="rgb(0%, 0%, 0%)" stroke-opacity="1" stroke-miterlimit="10" d="M 7.044219 0.00034375 C 7.044219 3.890969 3.891875 7.047219 0.00125 7.047219 C -3.889375 7.047219 -7.045625 3.890969 -7.045625 0.00034375 C -7.045625 -3.890281 -3.889375 -7.046531 0.00125 -7.046531 C 3.891875 -7.046531 7.044219 -3.890281 7.044219 0.00034375 Z M 7.044219 0.00034375 " transform="matrix(1, 0, 0, -1, 19.28, 30.223)"/>
<path fill-rule="nonzero" fill="rgb(0%, 0%, 0%)" fill-opacity="1" d="M 58.15625 30.222656 C 58.15625 29.949219 57.933594 29.726562 57.65625 29.726562 C 57.382812 29.726562 57.160156 29.949219 57.160156 30.222656 C 57.160156 30.5 57.382812 30.722656 57.65625 30.722656 C 57.933594 30.722656 58.15625 30.5 58.15625 30.222656 Z M 58.15625 30.222656 "/>
<path fill-rule="nonzero" fill="rgb(0%, 0%, 0%)" fill-opacity="1" d="M 29.148438 71.648438 C 29.148438 71.375 28.925781 71.152344 28.652344 71.152344 C 28.375 71.152344 28.152344 71.375 28.152344 71.648438 C 28.152344 71.925781 28.375 72.148438 28.652344 72.148438 C 28.925781 72.148438 29.148438 71.925781 29.148438 71.648438 Z M 29.148438 71.648438 "/>
<path fill-rule="nonzero" fill="rgb(79.998779%, 79.998779%, 79.998779%)" fill-opacity="1" stroke-width="0.3985" stroke-linecap="butt" stroke-linejoin="miter" stroke="rgb(0%, 0%, 0%)" stroke-opacity="1" stroke-miterlimit="10" d="M 7.045812 0.000625 C 7.045812 3.89125 3.889562 7.043594 -0.0010625 7.043594 C -3.891688 7.043594 -7.044031 3.89125 -7.044031 0.000625 C -7.044031 -3.89 -3.891688 -7.04625 -0.0010625 -7.04625 C 3.889562 -7.04625 7.045812 -3.89 7.045812 0.000625 Z M 7.045812 0.000625 " transform="matrix(1, 0, 0, -1, 11.087, 96.735)"/>
<path fill-rule="nonzero" fill="rgb(79.998779%, 79.998779%, 79.998779%)" fill-opacity="1" stroke-width="0.3985" stroke-linecap="butt" stroke-linejoin="miter" stroke="rgb(0%, 0%, 0%)" stroke-opacity="1" stroke-miterlimit="10" d="M 7.046719 0.000625 C 7.046719 3.89125 3.890469 7.043594 -0.00015625 7.043594 C -3.890781 7.043594 -7.047031 3.89125 -7.047031 0.000625 C -7.047031 -3.89 -3.890781 -7.04625 -0.00015625 -7.04625 C 3.890469 -7.04625 7.046719 -3.89 7.046719 0.000625 Z M 7.046719 0.000625 " transform="matrix(1, 0, 0, -1, 46.215, 96.735)"/>
<path fill-rule="nonzero" fill="rgb(0%, 0%, 0%)" fill-opacity="1" d="M 87.160156 71.648438 C 87.160156 71.375 86.9375 71.152344 86.664062 71.152344 C 86.386719 71.152344 86.164062 71.375 86.164062 71.648438 C 86.164062 71.925781 86.386719 72.148438 86.664062 72.148438 C 86.9375 72.148438 87.160156 71.925781 87.160156 71.648438 Z M 87.160156 71.648438 "/>
<path fill-rule="nonzero" fill="rgb(0%, 0%, 0%)" fill-opacity="1" d="M 69.597656 96.734375 C 69.597656 96.460938 69.375 96.238281 69.097656 96.238281 C 68.824219 96.238281 68.601562 96.460938 68.601562 96.734375 C 68.601562 97.011719 68.824219 97.234375 69.097656 97.234375 C 69.375 97.234375 69.597656 97.011719 69.597656 96.734375 Z M 69.597656 96.734375 "/>
<path fill-rule="nonzero" fill="rgb(79.998779%, 79.998779%, 79.998779%)" fill-opacity="1" stroke-width="0.3985" stroke-linecap="butt" stroke-linejoin="miter" stroke="rgb(0%, 0%, 0%)" stroke-opacity="1" stroke-miterlimit="10" d="M 7.047031 -0.0003125 C 7.047031 3.890312 3.890781 7.046562 0.00015625 7.046562 C -3.890469 7.046562 -7.046719 3.890312 -7.046719 -0.0003125 C -7.046719 -3.890938 -3.890469 -7.047188 0.00015625 -7.047188 C 3.890781 -7.047188 7.047031 -3.890938 7.047031 -0.0003125 Z M 7.047031 -0.0003125 " transform="matrix(1, 0, 0, -1, 51.535, 121.82)"/>
<path fill-rule="nonzero" fill="rgb(0%, 0%, 0%)" fill-opacity="1" d="M 87.160156 121.820312 C 87.160156 121.542969 86.9375 121.320312 86.664062 121.320312 C 86.386719 121.320312 86.164062 121.542969 86.164062 121.820312 C 86.164062 122.09375 86.386719 122.316406 86.664062 122.316406 C 86.9375 122.316406 87.160156 122.09375 87.160156 121.820312 Z M 87.160156 121.820312 "/>
<path fill-rule="nonzero" fill="rgb(0%, 0%, 0%)" fill-opacity="1" d="M 55.265625 167.371094 C 55.265625 167.097656 55.042969 166.875 54.769531 166.875 C 54.492188 166.875 54.269531 167.097656 54.269531 167.371094 C 54.269531 167.648438 54.492188 167.871094 54.769531 167.871094 C 55.042969 167.871094 55.265625 167.648438 55.265625 167.371094 Z M 55.265625 167.371094 "/>
<g clip-path="url(#clip-0)">
<path fill-rule="nonzero" fill="rgb(79.998779%, 79.998779%, 79.998779%)" fill-opacity="1" d="M 44.25 192.457031 C 44.25 188.566406 41.09375 185.414062 37.203125 185.414062 C 33.3125 185.414062 30.160156 188.566406 30.160156 192.457031 C 30.160156 196.347656 33.3125 199.503906 37.203125 199.503906 C 41.09375 199.503906 44.25 196.347656 44.25 192.457031 Z M 44.25 192.457031 "/>
</g>
<g clip-path="url(#clip-1)">
<path fill="none" stroke-width="0.3985" stroke-linecap="butt" stroke-linejoin="miter" stroke="rgb(0%, 0%, 0%)" stroke-opacity="1" stroke-miterlimit="10" d="M 7.046 0.00096875 C 7.046 3.891594 3.88975 7.043937 -0.000875 7.043937 C -3.8915 7.043937 -7.043844 3.891594 -7.043844 0.00096875 C -7.043844 -3.889656 -3.8915 -7.045906 -0.000875 -7.045906 C 3.88975 -7.045906 7.046 -3.889656 7.046 0.00096875 Z M 7.046 0.00096875 " transform="matrix(1, 0, 0, -1, 37.204, 192.458)"/>
</g>
<g clip-path="url(#clip-2)">
<path fill-rule="nonzero" fill="rgb(79.998779%, 79.998779%, 79.998779%)" fill-opacity="1" d="M 79.378906 192.457031 C 79.378906 188.566406 76.222656 185.414062 72.332031 185.414062 C 68.441406 185.414062 65.285156 188.566406 65.285156 192.457031 C 65.285156 196.347656 68.441406 199.503906 72.332031 199.503906 C 76.222656 199.503906 79.378906 196.347656 79.378906 192.457031 Z M 79.378906 192.457031 "/>
</g>
<g clip-path="url(#clip-3)">
<path fill="none" stroke-width="0.3985" stroke-linecap="butt" stroke-linejoin="miter" stroke="rgb(0%, 0%, 0%)" stroke-opacity="1" stroke-miterlimit="10" d="M 7.046906 0.00096875 C 7.046906 3.891594 3.890656 7.043937 0.00003125 7.043937 C -3.890594 7.043937 -7.046844 3.891594 -7.046844 0.00096875 C -7.046844 -3.889656 -3.890594 -7.045906 0.00003125 -7.045906 C 3.890656 -7.045906 7.046906 -3.889656 7.046906 0.00096875 Z M 7.046906 0.00096875 " transform="matrix(1, 0, 0, -1, 72.332, 192.458)"/>
</g>
<path fill-rule="nonzero" fill="rgb(0%, 0%, 0%)" fill-opacity="1" d="M 119.058594 167.371094 C 119.058594 167.097656 118.835938 166.875 118.558594 166.875 C 118.285156 166.875 118.0625 167.097656 118.0625 167.371094 C 118.0625 167.648438 118.285156 167.871094 118.558594 167.871094 C 118.835938 167.871094 119.058594 167.648438 119.058594 167.371094 Z M 119.058594 167.371094 "/>
<g clip-path="url(#clip-4)">
<path fill-rule="nonzero" fill="rgb(79.998779%, 79.998779%, 79.998779%)" fill-opacity="1" d="M 108.039062 192.457031 C 108.039062 188.566406 104.886719 185.414062 100.992188 185.414062 C 97.101562 185.414062 93.949219 188.566406 93.949219 192.457031 C 93.949219 196.347656 97.101562 199.503906 100.992188 199.503906 C 104.886719 199.503906 108.039062 196.347656 108.039062 192.457031 Z M 108.039062 192.457031 "/>
</g>
<g clip-path="url(#clip-5)">
<path fill="none" stroke-width="0.3985" stroke-linecap="butt" stroke-linejoin="miter" stroke="rgb(0%, 0%, 0%)" stroke-opacity="1" stroke-miterlimit="10" d="M 7.045063 0.00096875 C 7.045063 3.891594 3.892719 7.043937 -0.0018125 7.043937 C -3.892437 7.043937 -7.044781 3.891594 -7.044781 0.00096875 C -7.044781 -3.889656 -3.892437 -7.045906 -0.0018125 -7.045906 C 3.892719 -7.045906 7.045063 -3.889656 7.045063 0.00096875 Z M 7.045063 0.00096875 " transform="matrix(1, 0, 0, -1, 100.994, 192.458)"/>
</g>
<g clip-path="url(#clip-6)">
<path fill-rule="nonzero" fill="rgb(79.998779%, 79.998779%, 79.998779%)" fill-opacity="1" d="M 143.167969 192.457031 C 143.167969 188.566406 140.015625 185.414062 136.121094 185.414062 C 132.230469 185.414062 129.078125 188.566406 129.078125 192.457031 C 129.078125 196.347656 132.230469 199.503906 136.121094 199.503906 C 140.015625 199.503906 143.167969 196.347656 143.167969 192.457031 Z M 143.167969 192.457031 "/>
</g>
<g clip-path="url(#clip-7)">
<path fill="none" stroke-width="0.3985" stroke-linecap="butt" stroke-linejoin="miter" stroke="rgb(0%, 0%, 0%)" stroke-opacity="1" stroke-miterlimit="10" d="M 7.044969 0.00096875 C 7.044969 3.891594 3.892625 7.043937 -0.00190625 7.043937 C -3.892531 7.043937 -7.044875 3.891594 -7.044875 0.00096875 C -7.044875 -3.889656 -3.892531 -7.045906 -0.00190625 -7.045906 C 3.892625 -7.045906 7.044969 -3.889656 7.044969 0.00096875 Z M 7.044969 0.00096875 " transform="matrix(1, 0, 0, -1, 136.123, 192.458)"/>
</g>
<path fill-rule="nonzero" fill="rgb(79.998779%, 79.998779%, 79.998779%)" fill-opacity="1" stroke-width="0.3985" stroke-linecap="butt" stroke-linejoin="miter" stroke="rgb(0%, 0%, 0%)" stroke-opacity="1" stroke-miterlimit="10" d="M 7.045437 0.000625 C 7.045437 3.89125 3.889187 7.043594 -0.0014375 7.043594 C -3.892063 7.043594 -7.044406 3.89125 -7.044406 0.000625 C -7.044406 -3.89 -3.892063 -7.04625 -0.0014375 -7.04625 C 3.889187 -7.04625 7.045437 -3.89 7.045437 0.000625 Z M 7.045437 0.000625 " transform="matrix(1, 0, 0, -1, 104.228, 96.735)"/>
<path fill="none" stroke-width="0.3985" stroke-linecap="butt" stroke-linejoin="miter" stroke="rgb(0%, 0%, 0%)" stroke-opacity="1" stroke-miterlimit="10" d="M -1.730719 -2.471063 L -15.035406 -21.471063 " transform="matrix(1, 0, 0, -1, 38.469, 2.818)"/>
<path fill="none" stroke-width="0.3985" stroke-linecap="butt" stroke-linejoin="miter" stroke="rgb(0%, 0%, 0%)" stroke-opacity="1" stroke-miterlimit="10" d="M 1.730219 -2.471063 L 18.788812 -26.834344 " transform="matrix(1, 0, 0, -1, 38.469, 2.818)"/>
<path fill="none" stroke-width="0.3985" stroke-linecap="butt" stroke-linejoin="miter" stroke="rgb(0%, 0%, 0%)" stroke-opacity="1" stroke-miterlimit="10" d="M 18.788812 -27.974969 L -9.418219 -68.260125 " transform="matrix(1, 0, 0, -1, 38.469, 2.818)"/>
<path fill="none" stroke-width="0.3985" stroke-linecap="butt" stroke-linejoin="miter" stroke="rgb(0%, 0%, 0%)" stroke-opacity="1" stroke-miterlimit="10" d="M -10.219 -69.404656 L -23.226813 -87.982781 " transform="matrix(1, 0, 0, -1, 38.469, 2.818)"/>
<path fill="none" stroke-width="0.3985" stroke-linecap="butt" stroke-linejoin="miter" stroke="rgb(0%, 0%, 0%)" stroke-opacity="1" stroke-miterlimit="10" d="M -9.418219 -69.404656 L 3.589594 -87.982781 " transform="matrix(1, 0, 0, -1, 38.469, 2.818)"/>
<path fill="none" stroke-width="0.3985" stroke-linecap="butt" stroke-linejoin="miter" stroke="rgb(0%, 0%, 0%)" stroke-opacity="1" stroke-miterlimit="10" d="M 19.589594 -27.974969 L 47.796625 -68.260125 " transform="matrix(1, 0, 0, -1, 38.469, 2.818)"/>
<path fill="none" stroke-width="0.3985" stroke-linecap="butt" stroke-linejoin="miter" stroke="rgb(0%, 0%, 0%)" stroke-opacity="1" stroke-miterlimit="10" d="M 47.796625 -69.404656 L 31.031 -93.346063 " transform="matrix(1, 0, 0, -1, 38.469, 2.818)"/>
<path fill="none" stroke-width="0.3985" stroke-linecap="butt" stroke-linejoin="miter" stroke="rgb(0%, 0%, 0%)" stroke-opacity="1" stroke-miterlimit="10" d="M 30.230219 -94.490594 L 17.222406 -113.068719 " transform="matrix(1, 0, 0, -1, 38.469, 2.818)"/>
<path fill="none" stroke-width="0.3985" stroke-linecap="butt" stroke-linejoin="miter" stroke="rgb(0%, 0%, 0%)" stroke-opacity="1" stroke-miterlimit="10" d="M 31.031 -94.490594 L 47.796625 -118.432 " transform="matrix(1, 0, 0, -1, 38.469, 2.818)"/>
<path fill="none" stroke-width="0.3985" stroke-linecap="butt" stroke-linejoin="miter" stroke="rgb(0%, 0%, 0%)" stroke-opacity="1" stroke-miterlimit="10" d="M 47.796625 -119.576531 L 16.698969 -163.986688 " transform="matrix(1, 0, 0, -1, 38.469, 2.818)"/>
<path fill="none" stroke-width="0.3985" stroke-linecap="butt" stroke-linejoin="miter" stroke="rgb(0%, 0%, 0%)" stroke-opacity="1" stroke-miterlimit="10" d="M 15.898187 -165.127313 L 2.890375 -183.709344 " transform="matrix(1, 0, 0, -1, 38.469, 2.818)"/>
<path fill="none" stroke-width="0.3985" stroke-linecap="butt" stroke-linejoin="miter" stroke="rgb(0%, 0%, 0%)" stroke-opacity="1" stroke-miterlimit="10" d="M 16.698969 -165.127313 L 29.706781 -183.709344 " transform="matrix(1, 0, 0, -1, 38.469, 2.818)"/>
<path fill="none" stroke-width="0.3985" stroke-linecap="butt" stroke-linejoin="miter" stroke="rgb(0%, 0%, 0%)" stroke-opacity="1" stroke-miterlimit="10" d="M 48.5935 -119.576531 L 79.691156 -163.986688 " transform="matrix(1, 0, 0, -1, 38.469, 2.818)"/>
<path fill="none" stroke-width="0.3985" stroke-linecap="butt" stroke-linejoin="miter" stroke="rgb(0%, 0%, 0%)" stroke-opacity="1" stroke-miterlimit="10" d="M 79.691156 -165.127313 L 66.683344 -183.709344 " transform="matrix(1, 0, 0, -1, 38.469, 2.818)"/>
<path fill="none" stroke-width="0.3985" stroke-linecap="butt" stroke-linejoin="miter" stroke="rgb(0%, 0%, 0%)" stroke-opacity="1" stroke-miterlimit="10" d="M 80.491938 -165.127313 L 93.49975 -183.709344 " transform="matrix(1, 0, 0, -1, 38.469, 2.818)"/>
<path fill="none" stroke-width="0.3985" stroke-linecap="butt" stroke-linejoin="miter" stroke="rgb(0%, 0%, 0%)" stroke-opacity="1" stroke-miterlimit="10" d="M 48.5935 -69.404656 L 61.605219 -87.982781 " transform="matrix(1, 0, 0, -1, 38.469, 2.818)"/>
</svg>
