<?xml version="1.0" encoding="UTF-8"?>
<svg xmlns="http://www.w3.org/2000/svg" xmlns:xlink="http://www.w3.org/1999/xlink" width="176.216" height="190.959" viewBox="0 0 176.216 190.959">
<defs>
<clipPath id="clip-0">
<path clip-rule="nonzero" d="M 59 176 L 74 176 L 74 190.960938 L 59 190.960938 Z M 59 176 "/>
</clipPath>
<clipPath id="clip-1">
<path clip-rule="nonzero" d="M 53 171 L 79 171 L 79 190.960938 L 53 190.960938 Z M 53 171 "/>
</clipPath>
<clipPath id="clip-2">
<path clip-rule="nonzero" d="M 94 176 L 109 176 L 109 190.960938 L 94 190.960938 Z M 94 176 "/>
</clipPath>
<clipPath id="clip-3">
<path clip-rule="nonzero" d="M 88 171 L 115 171 L 115 190.960938 L 88 190.960938 Z M 88 171 "/>
</clipPath>
<clipPath id="clip-4">
<path clip-rule="nonzero" d="M 122 176 L 138 176 L 138 190.960938 L 122 190.960938 Z M 122 176 "/>
</clipPath>
<clipPath id="clip-5">
<path clip-rule="nonzero" d="M 117 171 L 143 171 L 143 190.960938 L 117 190.960938 Z M 117 171 "/>
</clipPath>
<clipPath id="clip-6">
<path clip-rule="nonzero" d="M 158 176 L 173 176 L 173 190.960938 L 158 190.960938 Z M 158 176 "/>
</clipPath>
<clipPath id="clip-7">
<path clip-rule="nonzero" d="M 152 171 L 176.214844 171 L 176.214844 190.960938 L 152 190.960938 Z M 152 171 "/>
</clipPath>
</defs>
<path fill-rule="nonzero" fill="rgb(0%, 0%, 0%)" fill-opacity="1" d="M 41.285156 2.816406 C 41.285156 1.261719 40.023438 0 38.46875 0 C 36.914062 0 35.652344 1.261719 35.652344 2.816406 C 35.652344 4.375 36.914062 5.636719 38.46875 5.636719 C 40.023438 5.636719 41.285156 4.375 41.285156 2.816406 Z M 41.285156 2.816406 "/>
<path fill-rule="nonzero" fill="rgb(79.998779%, 79.998779%, 79.998779%)" fill-opacity="1" stroke-width="0.3985" stroke-linecap="butt" stroke-linejoin="miter" stroke="rgb(0%, 0%, 0%)" stroke-opacity="1" stroke-miterlimit="10" d="M 7.044219 0.00034375 C 7.044219 3.890969 3.891875 7.047219 0.00125 7.047219 C -3.889375 7.047219 -7.045625 3.890969 -7.045625 0.00034375 C -7.045625 -3.890281 -3.889375 -7.046531 0.00125 -7.046531 C 3.891875 -7.046531 7.044219 -3.890281 7.044219 0.00034375 Z M 7.044219 0.00034375 " transform="matrix(1, 0, 0, -1, 19.28, 30.223)"/>
<path fill-rule="nonzero" fill="rgb(0%, 0%, 0%)" fill-opacity="1" d="M 58.15625 30.222656 C 58.15625 29.949219 57.933594 29.726562 57.65625 29.726562 C 57.382812 29.726562 57.160156 29.949219 57.160156 30.222656 C 57.160156 30.5 57.382812 30.722656 57.65625 30.722656 C 57.933594 30.722656 58.15625 30.5 58.15625 30.222656 Z M 58.15625 30.222656 "/>
<path fill-rule="nonzero" fill="rgb(0%, 0%, 0%)" fill-opacity="1" d="M 29.148438 71.648438 C 29.148438 71.375 28.925781 71.152344 28.652344 71.152344 C 28.375 71.152344 28.152344 71.375 28.152344 71.648438 C 28.152344 71.925781 28.375 72.148438 28.652344 72.148438 C 28.925781 72.148438 29.148438 71.925781 29.148438 71.648438 Z M 29.148438 71.648438 "/>
<path fill-rule="nonzero" fill="rgb(79.998779%, 79.998779%, 79.998779%)" fill-opacity="1" stroke-width="0.3985" stroke-linecap="butt" stroke-linejoin="miter" stroke="rgb(0%, 0%, 0%)" stroke-opacity="1" stroke-miterlimit="10" d="M 7.045812 0.000625 C 7.045812 3.89125 3.889562 7.043594 -0.0010625 7.043594 C -3.891688 7.043594 -7.044031 3.89125 -7.044031 0.000625 C -7.044031 -3.89 -3.891688 -7.04625 -0.0010625 -7.04625 C 3.889562 -7.04625 7.045812 -3.89 7.045812 0.000625 Z M 7.045812 0.000625 " transform="matrix(1, 0, 0, -1, 11.087, 96.735)"/>
<path fill-rule="nonzero" fill="rgb(79.998779%, 79.998779%, 79.998779%)" fill-opacity="1" stroke-width="0.3985" stroke-linecap="butt" stroke-linejoin="miter" stroke="rgb(0%, 0%, 0%)" stroke-opacity="1" stroke-miterlimit="10" d="M 7.046719 0.000625 C 7.046719 3.89125 3.890469 7.043594 -0.00015625 7.043594 C -3.890781 7.043594 -7.047031 3.89125 -7.047031 0.000625 C -7.047031 -3.89 -3.890781 -7.04625 -0.00015625 -7.04625 C 3.890469 -7.04625 7.046719 -3.89 7.046719 0.000625 Z M 7.046719 0.000625 " transform="matrix(1, 0, 0, -1, 46.215, 96.735)"/>
<path fill-rule="nonzero" fill="rgb(0%, 0%, 0%)" fill-opacity="1" d="M 87.164062 71.648438 C 87.164062 71.375 86.9375 71.152344 86.664062 71.152344 C 86.390625 71.152344 86.164062 71.375 86.164062 71.648438 C 86.164062 71.925781 86.390625 72.148438 86.664062 72.148438 C 86.9375 72.148438 87.164062 71.925781 87.164062 71.648438 Z M 87.164062 71.648438 "/>
<path fill-rule="nonzero" fill="rgb(0%, 0%, 0%)" fill-opacity="1" d="M 58.15625 113.074219 C 58.15625 112.800781 57.933594 112.578125 57.65625 112.578125 C 57.382812 112.578125 57.160156 112.800781 57.160156 113.074219 C 57.160156 113.351562 57.382812 113.574219 57.65625 113.574219 C 57.933594 113.574219 58.15625 113.351562 58.15625 113.074219 Z M 58.15625 113.074219 "/>
<path fill-rule="nonzero" fill="rgb(79.998779%, 79.998779%, 79.998779%)" fill-opacity="1" stroke-width="0.3985" stroke-linecap="butt" stroke-linejoin="miter" stroke="rgb(0%, 0%, 0%)" stroke-opacity="1" stroke-miterlimit="10" d="M 7.046625 0.00084375 C 7.046625 3.891469 3.890375 7.043813 -0.00025 7.043813 C -3.890875 7.043813 -7.047125 3.891469 -7.047125 0.00084375 C -7.047125 -3.889781 -3.890875 -7.046031 -0.00025 -7.046031 C 3.890375 -7.046031 7.046625 -3.889781 7.046625 0.00084375 Z M 7.046625 0.00084375 " transform="matrix(1, 0, 0, -1, 40.094, 138.161)"/>
<path fill-rule="nonzero" fill="rgb(79.998779%, 79.998779%, 79.998779%)" fill-opacity="1" stroke-width="0.3985" stroke-linecap="butt" stroke-linejoin="miter" stroke="rgb(0%, 0%, 0%)" stroke-opacity="1" stroke-miterlimit="10" d="M 7.043625 0.00084375 C 7.043625 3.891469 3.891281 7.043813 0.00065625 7.043813 C -3.889969 7.043813 -7.046219 3.891469 -7.046219 0.00084375 C -7.046219 -3.889781 -3.889969 -7.046031 0.00065625 -7.046031 C 3.891281 -7.046031 7.043625 -3.889781 7.043625 0.00084375 Z M 7.043625 0.00084375 " transform="matrix(1, 0, 0, -1, 75.222, 138.161)"/>
<path fill-rule="nonzero" fill="rgb(0%, 0%, 0%)" fill-opacity="1" d="M 116.167969 113.074219 C 116.167969 112.800781 115.945312 112.578125 115.671875 112.578125 C 115.394531 112.578125 115.171875 112.800781 115.171875 113.074219 C 115.171875 113.351562 115.394531 113.574219 115.671875 113.574219 C 115.945312 113.574219 116.167969 113.351562 116.167969 113.074219 Z M 116.167969 113.074219 "/>
<path fill-rule="nonzero" fill="rgb(0%, 0%, 0%)" fill-opacity="1" d="M 84.273438 158.628906 C 84.273438 158.355469 84.050781 158.132812 83.773438 158.132812 C 83.5 158.132812 83.277344 158.355469 83.277344 158.628906 C 83.277344 158.902344 83.5 159.128906 83.773438 159.128906 C 84.050781 159.128906 84.273438 158.902344 84.273438 158.628906 Z M 84.273438 158.628906 "/>
<g clip-path="url(#clip-0)">
<path fill-rule="nonzero" fill="rgb(79.998779%, 79.998779%, 79.998779%)" fill-opacity="1" d="M 73.253906 183.714844 C 73.253906 179.824219 70.101562 176.667969 66.210938 176.667969 C 62.320312 176.667969 59.164062 179.824219 59.164062 183.714844 C 59.164062 187.605469 62.320312 190.757812 66.210938 190.757812 C 70.101562 190.757812 73.253906 187.605469 73.253906 183.714844 Z M 73.253906 183.714844 "/>
</g>
<g clip-path="url(#clip-1)">
<path fill="none" stroke-width="0.3985" stroke-linecap="butt" stroke-linejoin="miter" stroke="rgb(0%, 0%, 0%)" stroke-opacity="1" stroke-miterlimit="10" d="M 7.043906 -0.00084375 C 7.043906 3.889781 3.891562 7.046031 0.0009375 7.046031 C -3.889688 7.046031 -7.045938 3.889781 -7.045938 -0.00084375 C -7.045938 -3.891469 -3.889688 -7.043812 0.0009375 -7.043812 C 3.891562 -7.043812 7.043906 -3.891469 7.043906 -0.00084375 Z M 7.043906 -0.00084375 " transform="matrix(1, 0, 0, -1, 66.21, 183.714)"/>
</g>
<g clip-path="url(#clip-2)">
<path fill-rule="nonzero" fill="rgb(79.998779%, 79.998779%, 79.998779%)" fill-opacity="1" d="M 108.382812 183.714844 C 108.382812 179.824219 105.230469 176.667969 101.339844 176.667969 C 97.445312 176.667969 94.292969 179.824219 94.292969 183.714844 C 94.292969 187.605469 97.445312 190.757812 101.339844 190.757812 C 105.230469 190.757812 108.382812 187.605469 108.382812 183.714844 Z M 108.382812 183.714844 "/>
</g>
<g clip-path="url(#clip-3)">
<path fill="none" stroke-width="0.3985" stroke-linecap="butt" stroke-linejoin="miter" stroke="rgb(0%, 0%, 0%)" stroke-opacity="1" stroke-miterlimit="10" d="M 7.044813 -0.00084375 C 7.044813 3.889781 3.892469 7.046031 0.00184375 7.046031 C -3.892687 7.046031 -7.045031 3.889781 -7.045031 -0.00084375 C -7.045031 -3.891469 -3.892687 -7.043812 0.00184375 -7.043812 C 3.892469 -7.043812 7.044813 -3.891469 7.044813 -0.00084375 Z M 7.044813 -0.00084375 " transform="matrix(1, 0, 0, -1, 101.338, 183.714)"/>
</g>
<path fill-rule="nonzero" fill="rgb(0%, 0%, 0%)" fill-opacity="1" d="M 148.0625 158.628906 C 148.0625 158.355469 147.839844 158.132812 147.566406 158.132812 C 147.289062 158.132812 147.066406 158.355469 147.066406 158.628906 C 147.066406 158.902344 147.289062 159.128906 147.566406 159.128906 C 147.839844 159.128906 148.0625 158.902344 148.0625 158.628906 Z M 148.0625 158.628906 "/>
<g clip-path="url(#clip-4)">
<path fill-rule="nonzero" fill="rgb(79.998779%, 79.998779%, 79.998779%)" fill-opacity="1" d="M 137.046875 183.714844 C 137.046875 179.824219 133.890625 176.667969 130 176.667969 C 126.109375 176.667969 122.957031 179.824219 122.957031 183.714844 C 122.957031 187.605469 126.109375 190.757812 130 190.757812 C 133.890625 190.757812 137.046875 187.605469 137.046875 183.714844 Z M 137.046875 183.714844 "/>
</g>
<g clip-path="url(#clip-5)">
<path fill="none" stroke-width="0.3985" stroke-linecap="butt" stroke-linejoin="miter" stroke="rgb(0%, 0%, 0%)" stroke-opacity="1" stroke-miterlimit="10" d="M 7.045875 -0.00084375 C 7.045875 3.889781 3.889625 7.046031 -0.001 7.046031 C -3.891625 7.046031 -7.043969 3.889781 -7.043969 -0.00084375 C -7.043969 -3.891469 -3.891625 -7.043812 -0.001 -7.043812 C 3.889625 -7.043812 7.045875 -3.891469 7.045875 -0.00084375 Z M 7.045875 -0.00084375 " transform="matrix(1, 0, 0, -1, 130.001, 183.714)"/>
</g>
<g clip-path="url(#clip-6)">
<path fill-rule="nonzero" fill="rgb(79.998779%, 79.998779%, 79.998779%)" fill-opacity="1" d="M 172.175781 183.714844 C 172.175781 179.824219 169.019531 176.667969 165.128906 176.667969 C 161.238281 176.667969 158.082031 179.824219 158.082031 183.714844 C 158.082031 187.605469 161.238281 190.757812 165.128906 190.757812 C 169.019531 190.757812 172.175781 187.605469 172.175781 183.714844 Z M 172.175781 183.714844 "/>
</g>
<g clip-path="url(#clip-7)">
<path fill="none" stroke-width="0.3985" stroke-linecap="butt" stroke-linejoin="miter" stroke="rgb(0%, 0%, 0%)" stroke-opacity="1" stroke-miterlimit="10" d="M 7.046781 -0.00084375 C 7.046781 3.889781 3.890531 7.046031 -0.00009375 7.046031 C -3.890719 7.046031 -7.046969 3.889781 -7.046969 -0.00084375 C -7.046969 -3.891469 -3.890719 -7.043812 -0.00009375 -7.043812 C 3.890531 -7.043812 7.046781 -3.891469 7.046781 -0.00084375 Z M 7.046781 -0.00084375 " transform="matrix(1, 0, 0, -1, 165.129, 183.714)"/>
</g>
<path fill="none" stroke-width="0.3985" stroke-linecap="butt" stroke-linejoin="miter" stroke="rgb(0%, 0%, 0%)" stroke-opacity="1" stroke-miterlimit="10" d="M -1.730719 -2.471062 L -15.035406 -21.471062 " transform="matrix(1, 0, 0, -1, 38.469, 2.818)"/>
<path fill="none" stroke-width="0.3985" stroke-linecap="butt" stroke-linejoin="miter" stroke="rgb(0%, 0%, 0%)" stroke-opacity="1" stroke-miterlimit="10" d="M 1.730219 -2.471062 L 18.788812 -26.834344 " transform="matrix(1, 0, 0, -1, 38.469, 2.818)"/>
<path fill="none" stroke-width="0.3985" stroke-linecap="butt" stroke-linejoin="miter" stroke="rgb(0%, 0%, 0%)" stroke-opacity="1" stroke-miterlimit="10" d="M 18.788812 -27.974969 L -9.418219 -68.260125 " transform="matrix(1, 0, 0, -1, 38.469, 2.818)"/>
<path fill="none" stroke-width="0.3985" stroke-linecap="butt" stroke-linejoin="miter" stroke="rgb(0%, 0%, 0%)" stroke-opacity="1" stroke-miterlimit="10" d="M -10.219 -69.404656 L -23.226813 -87.982781 " transform="matrix(1, 0, 0, -1, 38.469, 2.818)"/>
<path fill="none" stroke-width="0.3985" stroke-linecap="butt" stroke-linejoin="miter" stroke="rgb(0%, 0%, 0%)" stroke-opacity="1" stroke-miterlimit="10" d="M -9.418219 -69.404656 L 3.589594 -87.982781 " transform="matrix(1, 0, 0, -1, 38.469, 2.818)"/>
<path fill="none" stroke-width="0.3985" stroke-linecap="butt" stroke-linejoin="miter" stroke="rgb(0%, 0%, 0%)" stroke-opacity="1" stroke-miterlimit="10" d="M 19.589594 -27.974969 L 47.796625 -68.260125 " transform="matrix(1, 0, 0, -1, 38.469, 2.818)"/>
<path fill="none" stroke-width="0.3985" stroke-linecap="butt" stroke-linejoin="miter" stroke="rgb(0%, 0%, 0%)" stroke-opacity="1" stroke-miterlimit="10" d="M 47.796625 -69.404656 L 19.589594 -109.689812 " transform="matrix(1, 0, 0, -1, 38.469, 2.818)"/>
<path fill="none" stroke-width="0.3985" stroke-linecap="butt" stroke-linejoin="miter" stroke="rgb(0%, 0%, 0%)" stroke-opacity="1" stroke-miterlimit="10" d="M 18.788812 -110.830437 L 5.781 -129.412469 " transform="matrix(1, 0, 0, -1, 38.469, 2.818)"/>
<path fill="none" stroke-width="0.3985" stroke-linecap="butt" stroke-linejoin="miter" stroke="rgb(0%, 0%, 0%)" stroke-opacity="1" stroke-miterlimit="10" d="M 19.589594 -110.830437 L 32.597406 -129.412469 " transform="matrix(1, 0, 0, -1, 38.469, 2.818)"/>
<path fill="none" stroke-width="0.3985" stroke-linecap="butt" stroke-linejoin="miter" stroke="rgb(0%, 0%, 0%)" stroke-opacity="1" stroke-miterlimit="10" d="M 48.5935 -69.404656 L 76.800531 -109.689812 " transform="matrix(1, 0, 0, -1, 38.469, 2.818)"/>
<path fill="none" stroke-width="0.3985" stroke-linecap="butt" stroke-linejoin="miter" stroke="rgb(0%, 0%, 0%)" stroke-opacity="1" stroke-miterlimit="10" d="M 76.800531 -110.830437 L 45.706781 -155.240594 " transform="matrix(1, 0, 0, -1, 38.469, 2.818)"/>
<path fill="none" stroke-width="0.3985" stroke-linecap="butt" stroke-linejoin="miter" stroke="rgb(0%, 0%, 0%)" stroke-opacity="1" stroke-miterlimit="10" d="M 44.906 -156.385125 L 31.898187 -174.96325 " transform="matrix(1, 0, 0, -1, 38.469, 2.818)"/>
<path fill="none" stroke-width="0.3985" stroke-linecap="butt" stroke-linejoin="miter" stroke="rgb(0%, 0%, 0%)" stroke-opacity="1" stroke-miterlimit="10" d="M 45.706781 -156.385125 L 58.714594 -174.96325 " transform="matrix(1, 0, 0, -1, 38.469, 2.818)"/>
<path fill="none" stroke-width="0.3985" stroke-linecap="butt" stroke-linejoin="miter" stroke="rgb(0%, 0%, 0%)" stroke-opacity="1" stroke-miterlimit="10" d="M 77.601313 -110.830437 L 108.698969 -155.240594 " transform="matrix(1, 0, 0, -1, 38.469, 2.818)"/>
<path fill="none" stroke-width="0.3985" stroke-linecap="butt" stroke-linejoin="miter" stroke="rgb(0%, 0%, 0%)" stroke-opacity="1" stroke-miterlimit="10" d="M 108.698969 -156.385125 L 95.68725 -174.96325 " transform="matrix(1, 0, 0, -1, 38.469, 2.818)"/>
<path fill="none" stroke-width="0.3985" stroke-linecap="butt" stroke-linejoin="miter" stroke="rgb(0%, 0%, 0%)" stroke-opacity="1" stroke-miterlimit="10" d="M 109.495844 -156.385125 L 122.507563 -174.96325 " transform="matrix(1, 0, 0, -1, 38.469, 2.818)"/>
</svg>
