<?xml version="1.0" encoding="UTF-8"?>
<svg xmlns="http://www.w3.org/2000/svg" xmlns:xlink="http://www.w3.org/1999/xlink" width="164.774" height="147.213" viewBox="0 0 164.774 147.213">
<defs>
<clipPath id="clip-0">
<path clip-rule="nonzero" d="M 47 132 L 62 132 L 62 147.214844 L 47 147.214844 Z M 47 132 "/>
</clipPath>
<clipPath id="clip-1">
<path clip-rule="nonzero" d="M 42 127 L 68 127 L 68 147.214844 L 42 147.214844 Z M 42 127 "/>
</clipPath>
<clipPath id="clip-2">
<path clip-rule="nonzero" d="M 82 132 L 97 132 L 97 147.214844 L 82 147.214844 Z M 82 132 "/>
</clipPath>
<clipPath id="clip-3">
<path clip-rule="nonzero" d="M 77 127 L 103 127 L 103 147.214844 L 77 147.214844 Z M 77 127 "/>
</clipPath>
<clipPath id="clip-4">
<path clip-rule="nonzero" d="M 111 132 L 126 132 L 126 147.214844 L 111 147.214844 Z M 111 132 "/>
</clipPath>
<clipPath id="clip-5">
<path clip-rule="nonzero" d="M 105 127 L 132 127 L 132 147.214844 L 105 147.214844 Z M 105 127 "/>
</clipPath>
<clipPath id="clip-6">
<path clip-rule="nonzero" d="M 146 132 L 161 132 L 161 147.214844 L 146 147.214844 Z M 146 132 "/>
</clipPath>
<clipPath id="clip-7">
<path clip-rule="nonzero" d="M 141 127 L 164.773438 127 L 164.773438 147.214844 L 141 147.214844 Z M 141 127 "/>
</clipPath>
</defs>
<path fill-rule="nonzero" fill="rgb(0%, 0%, 0%)" fill-opacity="1" d="M 60.476562 2.816406 C 60.476562 1.261719 59.214844 0 57.65625 0 C 56.101562 0 54.839844 1.261719 54.839844 2.816406 C 54.839844 4.375 56.101562 5.636719 57.65625 5.636719 C 59.214844 5.636719 60.476562 4.375 60.476562 2.816406 Z M 60.476562 2.816406 "/>
<path fill-rule="nonzero" fill="rgb(0%, 0%, 0%)" fill-opacity="1" d="M 29.148438 44.246094 C 29.148438 43.96875 28.925781 43.746094 28.652344 43.746094 C 28.375 43.746094 28.152344 43.96875 28.152344 44.246094 C 28.152344 44.519531 28.375 44.742188 28.652344 44.742188 C 28.925781 44.742188 29.148438 44.519531 29.148438 44.246094 Z M 29.148438 44.246094 "/>
<path fill-rule="nonzero" fill="rgb(79.998779%, 79.998779%, 79.998779%)" fill-opacity="1" stroke-width="0.3985" stroke-linecap="butt" stroke-linejoin="miter" stroke="rgb(0%, 0%, 0%)" stroke-opacity="1" stroke-miterlimit="10" d="M 7.045813 0.001875 C 7.045813 3.8925 3.889563 7.044844 -0.0010625 7.044844 C -3.891687 7.044844 -7.044031 3.8925 -7.044031 0.001875 C -7.044031 -3.892656 -3.891687 -7.045 -0.0010625 -7.045 C 3.889563 -7.045 7.045813 -3.892656 7.045813 0.001875 Z M 7.045813 0.001875 " transform="matrix(1, 0, 0, -1, 11.087, 69.33)"/>
<path fill-rule="nonzero" fill="rgb(79.998779%, 79.998779%, 79.998779%)" fill-opacity="1" stroke-width="0.3985" stroke-linecap="butt" stroke-linejoin="miter" stroke="rgb(0%, 0%, 0%)" stroke-opacity="1" stroke-miterlimit="10" d="M 7.046719 0.001875 C 7.046719 3.8925 3.890469 7.044844 -0.00015625 7.044844 C -3.890781 7.044844 -7.047031 3.8925 -7.047031 0.001875 C -7.047031 -3.892656 -3.890781 -7.045 -0.00015625 -7.045 C 3.890469 -7.045 7.046719 -3.892656 7.046719 0.001875 Z M 7.046719 0.001875 " transform="matrix(1, 0, 0, -1, 46.215, 69.33)"/>
<path fill-rule="nonzero" fill="rgb(0%, 0%, 0%)" fill-opacity="1" d="M 87.160156 44.246094 C 87.160156 43.96875 86.9375 43.746094 86.664062 43.746094 C 86.386719 43.746094 86.164062 43.96875 86.164062 44.246094 C 86.164062 44.519531 86.386719 44.742188 86.664062 44.742188 C 86.9375 44.742188 87.160156 44.519531 87.160156 44.246094 Z M 87.160156 44.246094 "/>
<path fill-rule="nonzero" fill="rgb(0%, 0%, 0%)" fill-opacity="1" d="M 55.265625 89.796875 C 55.265625 89.523438 55.042969 89.300781 54.769531 89.300781 C 54.492188 89.300781 54.269531 89.523438 54.269531 89.796875 C 54.269531 90.074219 54.492188 90.296875 54.769531 90.296875 C 55.042969 90.296875 55.265625 90.074219 55.265625 89.796875 Z M 55.265625 89.796875 "/>
<path fill-rule="nonzero" fill="rgb(79.998779%, 79.998779%, 79.998779%)" fill-opacity="1" stroke-width="0.3985" stroke-linecap="butt" stroke-linejoin="miter" stroke="rgb(0%, 0%, 0%)" stroke-opacity="1" stroke-miterlimit="10" d="M 7.047 0.0001875 C 7.047 3.890812 3.89075 7.047062 0.000125 7.047062 C -3.8905 7.047062 -7.04675 3.890812 -7.04675 0.0001875 C -7.04675 -3.890438 -3.8905 -7.046688 0.000125 -7.046688 C 3.89075 -7.046688 7.047 -3.890438 7.047 0.0001875 Z M 7.047 0.0001875 " transform="matrix(1, 0, 0, -1, 37.203, 114.883)"/>
<path fill-rule="nonzero" fill="rgb(0%, 0%, 0%)" fill-opacity="1" d="M 72.832031 114.882812 C 72.832031 114.609375 72.605469 114.386719 72.332031 114.386719 C 72.058594 114.386719 71.832031 114.609375 71.832031 114.882812 C 71.832031 115.15625 72.058594 115.382812 72.332031 115.382812 C 72.605469 115.382812 72.832031 115.15625 72.832031 114.882812 Z M 72.832031 114.882812 "/>
<g clip-path="url(#clip-0)">
<path fill-rule="nonzero" fill="rgb(79.998779%, 79.998779%, 79.998779%)" fill-opacity="1" d="M 61.8125 139.96875 C 61.8125 136.078125 58.65625 132.921875 54.765625 132.921875 C 50.875 132.921875 47.722656 136.078125 47.722656 139.96875 C 47.722656 143.859375 50.875 147.011719 54.765625 147.011719 C 58.65625 147.011719 61.8125 143.859375 61.8125 139.96875 Z M 61.8125 139.96875 "/>
</g>
<g clip-path="url(#clip-1)">
<path fill="none" stroke-width="0.3985" stroke-linecap="butt" stroke-linejoin="miter" stroke="rgb(0%, 0%, 0%)" stroke-opacity="1" stroke-miterlimit="10" d="M 7.0455 -0.00075 C 7.0455 3.889875 3.88925 7.046125 -0.001375 7.046125 C -3.892 7.046125 -7.044344 3.889875 -7.044344 -0.00075 C -7.044344 -3.891375 -3.892 -7.043719 -0.001375 -7.043719 C 3.88925 -7.043719 7.0455 -3.891375 7.0455 -0.00075 Z M 7.0455 -0.00075 " transform="matrix(1, 0, 0, -1, 54.767, 139.968)"/>
</g>
<g clip-path="url(#clip-2)">
<path fill-rule="nonzero" fill="rgb(79.998779%, 79.998779%, 79.998779%)" fill-opacity="1" d="M 96.941406 139.96875 C 96.941406 136.078125 93.789062 132.921875 89.894531 132.921875 C 86.003906 132.921875 82.851562 136.078125 82.851562 139.96875 C 82.851562 143.859375 86.003906 147.011719 89.894531 147.011719 C 93.789062 147.011719 96.941406 143.859375 96.941406 139.96875 Z M 96.941406 139.96875 "/>
</g>
<g clip-path="url(#clip-3)">
<path fill="none" stroke-width="0.3985" stroke-linecap="butt" stroke-linejoin="miter" stroke="rgb(0%, 0%, 0%)" stroke-opacity="1" stroke-miterlimit="10" d="M 7.045406 -0.00075 C 7.045406 3.889875 3.893062 7.046125 -0.00146875 7.046125 C -3.892094 7.046125 -7.044438 3.889875 -7.044438 -0.00075 C -7.044438 -3.891375 -3.892094 -7.043719 -0.00146875 -7.043719 C 3.893062 -7.043719 7.045406 -3.891375 7.045406 -0.00075 Z M 7.045406 -0.00075 " transform="matrix(1, 0, 0, -1, 89.896, 139.968)"/>
</g>
<path fill-rule="nonzero" fill="rgb(0%, 0%, 0%)" fill-opacity="1" d="M 119.054688 89.796875 C 119.054688 89.523438 118.832031 89.300781 118.558594 89.300781 C 118.28125 89.300781 118.058594 89.523438 118.058594 89.796875 C 118.058594 90.074219 118.28125 90.296875 118.558594 90.296875 C 118.832031 90.296875 119.054688 90.074219 119.054688 89.796875 Z M 119.054688 89.796875 "/>
<path fill-rule="nonzero" fill="rgb(79.998779%, 79.998779%, 79.998779%)" fill-opacity="1" stroke-width="0.3985" stroke-linecap="butt" stroke-linejoin="miter" stroke="rgb(0%, 0%, 0%)" stroke-opacity="1" stroke-miterlimit="10" d="M 7.045063 0.0001875 C 7.045063 3.890812 3.892719 7.047062 -0.0018125 7.047062 C -3.892437 7.047062 -7.044781 3.890812 -7.044781 0.0001875 C -7.044781 -3.890438 -3.892437 -7.046688 -0.0018125 -7.046688 C 3.892719 -7.046688 7.045063 -3.890438 7.045063 0.0001875 Z M 7.045063 0.0001875 " transform="matrix(1, 0, 0, -1, 100.994, 114.883)"/>
<path fill-rule="nonzero" fill="rgb(0%, 0%, 0%)" fill-opacity="1" d="M 136.621094 114.882812 C 136.621094 114.609375 136.398438 114.386719 136.121094 114.386719 C 135.847656 114.386719 135.625 114.609375 135.625 114.882812 C 135.625 115.15625 135.847656 115.382812 136.121094 115.382812 C 136.398438 115.382812 136.621094 115.15625 136.621094 114.882812 Z M 136.621094 114.882812 "/>
<g clip-path="url(#clip-4)">
<path fill-rule="nonzero" fill="rgb(79.998779%, 79.998779%, 79.998779%)" fill-opacity="1" d="M 125.601562 139.96875 C 125.601562 136.078125 122.449219 132.921875 118.558594 132.921875 C 114.667969 132.921875 111.511719 136.078125 111.511719 139.96875 C 111.511719 143.859375 114.667969 147.011719 118.558594 147.011719 C 122.449219 147.011719 125.601562 143.859375 125.601562 139.96875 Z M 125.601562 139.96875 "/>
</g>
<g clip-path="url(#clip-5)">
<path fill="none" stroke-width="0.3985" stroke-linecap="butt" stroke-linejoin="miter" stroke="rgb(0%, 0%, 0%)" stroke-opacity="1" stroke-miterlimit="10" d="M 7.043563 -0.00075 C 7.043563 3.889875 3.891219 7.046125 0.00059375 7.046125 C -3.890031 7.046125 -7.046281 3.889875 -7.046281 -0.00075 C -7.046281 -3.891375 -3.890031 -7.043719 0.00059375 -7.043719 C 3.891219 -7.043719 7.043563 -3.891375 7.043563 -0.00075 Z M 7.043563 -0.00075 " transform="matrix(1, 0, 0, -1, 118.558, 139.968)"/>
</g>
<g clip-path="url(#clip-6)">
<path fill-rule="nonzero" fill="rgb(79.998779%, 79.998779%, 79.998779%)" fill-opacity="1" d="M 160.730469 139.96875 C 160.730469 136.078125 157.578125 132.921875 153.6875 132.921875 C 149.792969 132.921875 146.640625 136.078125 146.640625 139.96875 C 146.640625 143.859375 149.792969 147.011719 153.6875 147.011719 C 157.578125 147.011719 160.730469 143.859375 160.730469 139.96875 Z M 160.730469 139.96875 "/>
</g>
<g clip-path="url(#clip-7)">
<path fill="none" stroke-width="0.3985" stroke-linecap="butt" stroke-linejoin="miter" stroke="rgb(0%, 0%, 0%)" stroke-opacity="1" stroke-miterlimit="10" d="M 7.044469 -0.00075 C 7.044469 3.889875 3.892125 7.046125 0.0015 7.046125 C -3.893031 7.046125 -7.045375 3.889875 -7.045375 -0.00075 C -7.045375 -3.891375 -3.893031 -7.043719 0.0015 -7.043719 C 3.892125 -7.043719 7.044469 -3.891375 7.044469 -0.00075 Z M 7.044469 -0.00075 " transform="matrix(1, 0, 0, -1, 153.686, 139.968)"/>
</g>
<path fill="none" stroke-width="0.3985" stroke-linecap="butt" stroke-linejoin="miter" stroke="rgb(0%, 0%, 0%)" stroke-opacity="1" stroke-miterlimit="10" d="M -1.731219 -2.471063 L -28.606219 -40.853875 " transform="matrix(1, 0, 0, -1, 57.657, 2.818)"/>
<path fill="none" stroke-width="0.3985" stroke-linecap="butt" stroke-linejoin="miter" stroke="rgb(0%, 0%, 0%)" stroke-opacity="1" stroke-miterlimit="10" d="M -29.407 -41.998406 L -42.414812 -60.576531 " transform="matrix(1, 0, 0, -1, 57.657, 2.818)"/>
<path fill="none" stroke-width="0.3985" stroke-linecap="butt" stroke-linejoin="miter" stroke="rgb(0%, 0%, 0%)" stroke-opacity="1" stroke-miterlimit="10" d="M -28.606219 -41.998406 L -15.598406 -60.576531 " transform="matrix(1, 0, 0, -1, 57.657, 2.818)"/>
<path fill="none" stroke-width="0.3985" stroke-linecap="butt" stroke-linejoin="miter" stroke="rgb(0%, 0%, 0%)" stroke-opacity="1" stroke-miterlimit="10" d="M 1.729719 -2.471063 L 28.604719 -40.853875 " transform="matrix(1, 0, 0, -1, 57.657, 2.818)"/>
<path fill="none" stroke-width="0.3985" stroke-linecap="butt" stroke-linejoin="miter" stroke="rgb(0%, 0%, 0%)" stroke-opacity="1" stroke-miterlimit="10" d="M 28.604719 -41.998406 L -2.489031 -86.408563 " transform="matrix(1, 0, 0, -1, 57.657, 2.818)"/>
<path fill="none" stroke-width="0.3985" stroke-linecap="butt" stroke-linejoin="miter" stroke="rgb(0%, 0%, 0%)" stroke-opacity="1" stroke-miterlimit="10" d="M -3.289812 -87.553094 L -16.297625 -106.131219 " transform="matrix(1, 0, 0, -1, 57.657, 2.818)"/>
<path fill="none" stroke-width="0.3985" stroke-linecap="butt" stroke-linejoin="miter" stroke="rgb(0%, 0%, 0%)" stroke-opacity="1" stroke-miterlimit="10" d="M -2.489031 -87.553094 L 14.276594 -111.4945 " transform="matrix(1, 0, 0, -1, 57.657, 2.818)"/>
<path fill="none" stroke-width="0.3985" stroke-linecap="butt" stroke-linejoin="miter" stroke="rgb(0%, 0%, 0%)" stroke-opacity="1" stroke-miterlimit="10" d="M 14.276594 -112.639031 L 1.264875 -131.217156 " transform="matrix(1, 0, 0, -1, 57.657, 2.818)"/>
<path fill="none" stroke-width="0.3985" stroke-linecap="butt" stroke-linejoin="miter" stroke="rgb(0%, 0%, 0%)" stroke-opacity="1" stroke-miterlimit="10" d="M 15.073469 -112.639031 L 28.085188 -131.217156 " transform="matrix(1, 0, 0, -1, 57.657, 2.818)"/>
<path fill="none" stroke-width="0.3985" stroke-linecap="butt" stroke-linejoin="miter" stroke="rgb(0%, 0%, 0%)" stroke-opacity="1" stroke-miterlimit="10" d="M 29.4055 -41.998406 L 60.503156 -86.408563 " transform="matrix(1, 0, 0, -1, 57.657, 2.818)"/>
<path fill="none" stroke-width="0.3985" stroke-linecap="butt" stroke-linejoin="miter" stroke="rgb(0%, 0%, 0%)" stroke-opacity="1" stroke-miterlimit="10" d="M 60.503156 -87.553094 L 47.491438 -106.131219 " transform="matrix(1, 0, 0, -1, 57.657, 2.818)"/>
<path fill="none" stroke-width="0.3985" stroke-linecap="butt" stroke-linejoin="miter" stroke="rgb(0%, 0%, 0%)" stroke-opacity="1" stroke-miterlimit="10" d="M 61.300031 -87.553094 L 78.065656 -111.4945 " transform="matrix(1, 0, 0, -1, 57.657, 2.818)"/>
<path fill="none" stroke-width="0.3985" stroke-linecap="butt" stroke-linejoin="miter" stroke="rgb(0%, 0%, 0%)" stroke-opacity="1" stroke-miterlimit="10" d="M 78.065656 -112.639031 L 65.057844 -131.217156 " transform="matrix(1, 0, 0, -1, 57.657, 2.818)"/>
<path fill="none" stroke-width="0.3985" stroke-linecap="butt" stroke-linejoin="miter" stroke="rgb(0%, 0%, 0%)" stroke-opacity="1" stroke-miterlimit="10" d="M 78.866438 -112.639031 L 91.87425 -131.217156 " transform="matrix(1, 0, 0, -1, 57.657, 2.818)"/>
</svg>
