<?xml version="1.0" encoding="UTF-8"?>
<svg xmlns="http://www.w3.org/2000/svg" xmlns:xlink="http://www.w3.org/1999/xlink" width="147.21" height="174.618" viewBox="0 0 147.21 174.618">
<defs>
<clipPath id="clip-0">
<path clip-rule="nonzero" d="M 30 160 L 45 160 L 45 174.617188 L 30 174.617188 Z M 30 160 "/>
</clipPath>
<clipPath id="clip-1">
<path clip-rule="nonzero" d="M 24 154 L 50 154 L 50 174.617188 L 24 174.617188 Z M 24 154 "/>
</clipPath>
<clipPath id="clip-2">
<path clip-rule="nonzero" d="M 65 160 L 80 160 L 80 174.617188 L 65 174.617188 Z M 65 160 "/>
</clipPath>
<clipPath id="clip-3">
<path clip-rule="nonzero" d="M 59 154 L 86 154 L 86 174.617188 L 59 174.617188 Z M 59 154 "/>
</clipPath>
<clipPath id="clip-4">
<path clip-rule="nonzero" d="M 93 160 L 109 160 L 109 174.617188 L 93 174.617188 Z M 93 160 "/>
</clipPath>
<clipPath id="clip-5">
<path clip-rule="nonzero" d="M 88 154 L 114 154 L 114 174.617188 L 88 174.617188 Z M 88 154 "/>
</clipPath>
<clipPath id="clip-6">
<path clip-rule="nonzero" d="M 129 160 L 144 160 L 144 174.617188 L 129 174.617188 Z M 129 160 "/>
</clipPath>
<clipPath id="clip-7">
<path clip-rule="nonzero" d="M 123 154 L 147.210938 154 L 147.210938 174.617188 L 123 174.617188 Z M 123 154 "/>
</clipPath>
</defs>
<path fill-rule="nonzero" fill="rgb(0%, 0%, 0%)" fill-opacity="1" d="M 62.097656 2.816406 C 62.097656 1.261719 60.835938 0 59.28125 0 C 57.726562 0 56.464844 1.261719 56.464844 2.816406 C 56.464844 4.375 57.726562 5.636719 59.28125 5.636719 C 60.835938 5.636719 62.097656 4.375 62.097656 2.816406 Z M 62.097656 2.816406 "/>
<path fill-rule="nonzero" fill="rgb(0%, 0%, 0%)" fill-opacity="1" d="M 40.589844 30.222656 C 40.589844 29.949219 40.367188 29.726562 40.09375 29.726562 C 39.816406 29.726562 39.59375 29.949219 39.59375 30.222656 C 39.59375 30.5 39.816406 30.722656 40.09375 30.722656 C 40.367188 30.722656 40.589844 30.5 40.589844 30.222656 Z M 40.589844 30.222656 "/>
<path fill-rule="nonzero" fill="rgb(79.998779%, 79.998779%, 79.998779%)" fill-opacity="1" stroke-width="0.3985" stroke-linecap="butt" stroke-linejoin="miter" stroke="rgb(0%, 0%, 0%)" stroke-opacity="1" stroke-miterlimit="10" d="M 7.045219 0.00040625 C 7.045219 3.891031 3.892875 7.047281 -0.00165625 7.047281 C -3.892281 7.047281 -7.044625 3.891031 -7.044625 0.00040625 C -7.044625 -3.890219 -3.892281 -7.046469 -0.00165625 -7.046469 C 3.892875 -7.046469 7.045219 -3.890219 7.045219 0.00040625 Z M 7.045219 0.00040625 " transform="matrix(1, 0, 0, -1, 22.529, 55.309)"/>
<path fill-rule="nonzero" fill="rgb(0%, 0%, 0%)" fill-opacity="1" d="M 58.15625 55.308594 C 58.15625 55.035156 57.933594 54.8125 57.65625 54.8125 C 57.382812 54.8125 57.160156 55.035156 57.160156 55.308594 C 57.160156 55.585938 57.382812 55.808594 57.65625 55.808594 C 57.933594 55.808594 58.15625 55.585938 58.15625 55.308594 Z M 58.15625 55.308594 "/>
<path fill-rule="nonzero" fill="rgb(0%, 0%, 0%)" fill-opacity="1" d="M 29.148438 96.734375 C 29.148438 96.460938 28.925781 96.238281 28.652344 96.238281 C 28.375 96.238281 28.152344 96.460938 28.152344 96.734375 C 28.152344 97.011719 28.375 97.234375 28.652344 97.234375 C 28.925781 97.234375 29.148438 97.011719 29.148438 96.734375 Z M 29.148438 96.734375 "/>
<path fill-rule="nonzero" fill="rgb(79.998779%, 79.998779%, 79.998779%)" fill-opacity="1" stroke-width="0.3985" stroke-linecap="butt" stroke-linejoin="miter" stroke="rgb(0%, 0%, 0%)" stroke-opacity="1" stroke-miterlimit="10" d="M 7.045813 -0.0003125 C 7.045813 3.890312 3.889563 7.046562 -0.0010625 7.046562 C -3.891687 7.046562 -7.044031 3.890312 -7.044031 -0.0003125 C -7.044031 -3.890938 -3.891687 -7.047188 -0.0010625 -7.047188 C 3.889563 -7.047188 7.045813 -3.890938 7.045813 -0.0003125 Z M 7.045813 -0.0003125 " transform="matrix(1, 0, 0, -1, 11.087, 121.82)"/>
<path fill-rule="nonzero" fill="rgb(79.998779%, 79.998779%, 79.998779%)" fill-opacity="1" stroke-width="0.3985" stroke-linecap="butt" stroke-linejoin="miter" stroke="rgb(0%, 0%, 0%)" stroke-opacity="1" stroke-miterlimit="10" d="M 7.046719 -0.0003125 C 7.046719 3.890312 3.890469 7.046562 -0.00015625 7.046562 C -3.890781 7.046562 -7.047031 3.890312 -7.047031 -0.0003125 C -7.047031 -3.890938 -3.890781 -7.047188 -0.00015625 -7.047188 C 3.890469 -7.047188 7.046719 -3.890938 7.046719 -0.0003125 Z M 7.046719 -0.0003125 " transform="matrix(1, 0, 0, -1, 46.215, 121.82)"/>
<path fill-rule="nonzero" fill="rgb(0%, 0%, 0%)" fill-opacity="1" d="M 87.160156 96.734375 C 87.160156 96.460938 86.9375 96.238281 86.664062 96.238281 C 86.386719 96.238281 86.164062 96.460938 86.164062 96.734375 C 86.164062 97.011719 86.386719 97.234375 86.664062 97.234375 C 86.9375 97.234375 87.160156 97.011719 87.160156 96.734375 Z M 87.160156 96.734375 "/>
<path fill-rule="nonzero" fill="rgb(0%, 0%, 0%)" fill-opacity="1" d="M 55.265625 142.289062 C 55.265625 142.011719 55.042969 141.789062 54.769531 141.789062 C 54.492188 141.789062 54.269531 142.011719 54.269531 142.289062 C 54.269531 142.5625 54.492188 142.785156 54.769531 142.785156 C 55.042969 142.785156 55.265625 142.5625 55.265625 142.289062 Z M 55.265625 142.289062 "/>
<g clip-path="url(#clip-0)">
<path fill-rule="nonzero" fill="rgb(79.998779%, 79.998779%, 79.998779%)" fill-opacity="1" d="M 44.25 167.371094 C 44.25 163.480469 41.09375 160.328125 37.203125 160.328125 C 33.3125 160.328125 30.160156 163.480469 30.160156 167.371094 C 30.160156 171.265625 33.3125 174.417969 37.203125 174.417969 C 41.09375 174.417969 44.25 171.265625 44.25 167.371094 Z M 44.25 167.371094 "/>
</g>
<g clip-path="url(#clip-1)">
<path fill="none" stroke-width="0.3985" stroke-linecap="butt" stroke-linejoin="miter" stroke="rgb(0%, 0%, 0%)" stroke-opacity="1" stroke-miterlimit="10" d="M 7.046 0.00190625 C 7.046 3.892531 3.88975 7.044875 -0.000875 7.044875 C -3.8915 7.044875 -7.043844 3.892531 -7.043844 0.00190625 C -7.043844 -3.892625 -3.8915 -7.044969 -0.000875 -7.044969 C 3.88975 -7.044969 7.046 -3.892625 7.046 0.00190625 Z M 7.046 0.00190625 " transform="matrix(1, 0, 0, -1, 37.204, 167.373)"/>
</g>
<g clip-path="url(#clip-2)">
<path fill-rule="nonzero" fill="rgb(79.998779%, 79.998779%, 79.998779%)" fill-opacity="1" d="M 79.378906 167.371094 C 79.378906 163.480469 76.222656 160.328125 72.332031 160.328125 C 68.441406 160.328125 65.285156 163.480469 65.285156 167.371094 C 65.285156 171.265625 68.441406 174.417969 72.332031 174.417969 C 76.222656 174.417969 79.378906 171.265625 79.378906 167.371094 Z M 79.378906 167.371094 "/>
</g>
<g clip-path="url(#clip-3)">
<path fill="none" stroke-width="0.3985" stroke-linecap="butt" stroke-linejoin="miter" stroke="rgb(0%, 0%, 0%)" stroke-opacity="1" stroke-miterlimit="10" d="M 7.046906 0.00190625 C 7.046906 3.892531 3.890656 7.044875 0.00003125 7.044875 C -3.890594 7.044875 -7.046844 3.892531 -7.046844 0.00190625 C -7.046844 -3.892625 -3.890594 -7.044969 0.00003125 -7.044969 C 3.890656 -7.044969 7.046906 -3.892625 7.046906 0.00190625 Z M 7.046906 0.00190625 " transform="matrix(1, 0, 0, -1, 72.332, 167.373)"/>
</g>
<path fill-rule="nonzero" fill="rgb(0%, 0%, 0%)" fill-opacity="1" d="M 119.054688 142.289062 C 119.054688 142.011719 118.832031 141.789062 118.558594 141.789062 C 118.28125 141.789062 118.058594 142.011719 118.058594 142.289062 C 118.058594 142.5625 118.28125 142.785156 118.558594 142.785156 C 118.832031 142.785156 119.054688 142.5625 119.054688 142.289062 Z M 119.054688 142.289062 "/>
<g clip-path="url(#clip-4)">
<path fill-rule="nonzero" fill="rgb(79.998779%, 79.998779%, 79.998779%)" fill-opacity="1" d="M 108.039062 167.371094 C 108.039062 163.480469 104.886719 160.328125 100.992188 160.328125 C 97.101562 160.328125 93.949219 163.480469 93.949219 167.371094 C 93.949219 171.265625 97.101562 174.417969 100.992188 174.417969 C 104.886719 174.417969 108.039062 171.265625 108.039062 167.371094 Z M 108.039062 167.371094 "/>
</g>
<g clip-path="url(#clip-5)">
<path fill="none" stroke-width="0.3985" stroke-linecap="butt" stroke-linejoin="miter" stroke="rgb(0%, 0%, 0%)" stroke-opacity="1" stroke-miterlimit="10" d="M 7.045063 0.00190625 C 7.045063 3.892531 3.892719 7.044875 -0.0018125 7.044875 C -3.892437 7.044875 -7.044781 3.892531 -7.044781 0.00190625 C -7.044781 -3.892625 -3.892437 -7.044969 -0.0018125 -7.044969 C 3.892719 -7.044969 7.045063 -3.892625 7.045063 0.00190625 Z M 7.045063 0.00190625 " transform="matrix(1, 0, 0, -1, 100.994, 167.373)"/>
</g>
<g clip-path="url(#clip-6)">
<path fill-rule="nonzero" fill="rgb(79.998779%, 79.998779%, 79.998779%)" fill-opacity="1" d="M 143.167969 167.371094 C 143.167969 163.480469 140.011719 160.328125 136.121094 160.328125 C 132.230469 160.328125 129.078125 163.480469 129.078125 167.371094 C 129.078125 171.265625 132.230469 174.417969 136.121094 174.417969 C 140.011719 174.417969 143.167969 171.265625 143.167969 167.371094 Z M 143.167969 167.371094 "/>
</g>
<g clip-path="url(#clip-7)">
<path fill="none" stroke-width="0.3985" stroke-linecap="butt" stroke-linejoin="miter" stroke="rgb(0%, 0%, 0%)" stroke-opacity="1" stroke-miterlimit="10" d="M 7.045969 0.00190625 C 7.045969 3.892531 3.889719 7.044875 -0.00090625 7.044875 C -3.891531 7.044875 -7.043875 3.892531 -7.043875 0.00190625 C -7.043875 -3.892625 -3.891531 -7.044969 -0.00090625 -7.044969 C 3.889719 -7.044969 7.045969 -3.892625 7.045969 0.00190625 Z M 7.045969 0.00190625 " transform="matrix(1, 0, 0, -1, 136.122, 167.373)"/>
</g>
<path fill-rule="nonzero" fill="rgb(79.998779%, 79.998779%, 79.998779%)" fill-opacity="1" stroke-width="0.3985" stroke-linecap="butt" stroke-linejoin="miter" stroke="rgb(0%, 0%, 0%)" stroke-opacity="1" stroke-miterlimit="10" d="M 7.045625 0.00034375 C 7.045625 3.890969 3.889375 7.047219 -0.00125 7.047219 C -3.891875 7.047219 -7.044219 3.890969 -7.044219 0.00034375 C -7.044219 -3.890281 -3.891875 -7.046531 -0.00125 -7.046531 C 3.889375 -7.046531 7.045625 -3.890281 7.045625 0.00034375 Z M 7.045625 0.00034375 " transform="matrix(1, 0, 0, -1, 78.47, 30.223)"/>
<path fill="none" stroke-width="0.3985" stroke-linecap="butt" stroke-linejoin="miter" stroke="rgb(0%, 0%, 0%)" stroke-opacity="1" stroke-miterlimit="10" d="M -1.730219 -2.471063 L -18.788812 -26.834344 " transform="matrix(1, 0, 0, -1, 59.281, 2.818)"/>
<path fill="none" stroke-width="0.3985" stroke-linecap="butt" stroke-linejoin="miter" stroke="rgb(0%, 0%, 0%)" stroke-opacity="1" stroke-miterlimit="10" d="M -19.589594 -27.974969 L -32.597406 -46.557 " transform="matrix(1, 0, 0, -1, 59.281, 2.818)"/>
<path fill="none" stroke-width="0.3985" stroke-linecap="butt" stroke-linejoin="miter" stroke="rgb(0%, 0%, 0%)" stroke-opacity="1" stroke-miterlimit="10" d="M -18.788812 -27.974969 L -2.023187 -51.920281 " transform="matrix(1, 0, 0, -1, 59.281, 2.818)"/>
<path fill="none" stroke-width="0.3985" stroke-linecap="butt" stroke-linejoin="miter" stroke="rgb(0%, 0%, 0%)" stroke-opacity="1" stroke-miterlimit="10" d="M -2.023187 -53.060906 L -30.230219 -93.346063 " transform="matrix(1, 0, 0, -1, 59.281, 2.818)"/>
<path fill="none" stroke-width="0.3985" stroke-linecap="butt" stroke-linejoin="miter" stroke="rgb(0%, 0%, 0%)" stroke-opacity="1" stroke-miterlimit="10" d="M -31.031 -94.490594 L -44.038812 -113.068719 " transform="matrix(1, 0, 0, -1, 59.281, 2.818)"/>
<path fill="none" stroke-width="0.3985" stroke-linecap="butt" stroke-linejoin="miter" stroke="rgb(0%, 0%, 0%)" stroke-opacity="1" stroke-miterlimit="10" d="M -30.230219 -94.490594 L -17.222406 -113.068719 " transform="matrix(1, 0, 0, -1, 59.281, 2.818)"/>
<path fill="none" stroke-width="0.3985" stroke-linecap="butt" stroke-linejoin="miter" stroke="rgb(0%, 0%, 0%)" stroke-opacity="1" stroke-miterlimit="10" d="M -1.226312 -53.060906 L 26.980719 -93.346063 " transform="matrix(1, 0, 0, -1, 59.281, 2.818)"/>
<path fill="none" stroke-width="0.3985" stroke-linecap="butt" stroke-linejoin="miter" stroke="rgb(0%, 0%, 0%)" stroke-opacity="1" stroke-miterlimit="10" d="M 26.980719 -94.490594 L -4.113031 -138.90075 " transform="matrix(1, 0, 0, -1, 59.281, 2.818)"/>
<path fill="none" stroke-width="0.3985" stroke-linecap="butt" stroke-linejoin="miter" stroke="rgb(0%, 0%, 0%)" stroke-opacity="1" stroke-miterlimit="10" d="M -4.913812 -140.041375 L -17.921625 -158.623406 " transform="matrix(1, 0, 0, -1, 59.281, 2.818)"/>
<path fill="none" stroke-width="0.3985" stroke-linecap="butt" stroke-linejoin="miter" stroke="rgb(0%, 0%, 0%)" stroke-opacity="1" stroke-miterlimit="10" d="M -4.113031 -140.041375 L 8.894781 -158.623406 " transform="matrix(1, 0, 0, -1, 59.281, 2.818)"/>
<path fill="none" stroke-width="0.3985" stroke-linecap="butt" stroke-linejoin="miter" stroke="rgb(0%, 0%, 0%)" stroke-opacity="1" stroke-miterlimit="10" d="M 27.7815 -94.490594 L 58.879156 -138.90075 " transform="matrix(1, 0, 0, -1, 59.281, 2.818)"/>
<path fill="none" stroke-width="0.3985" stroke-linecap="butt" stroke-linejoin="miter" stroke="rgb(0%, 0%, 0%)" stroke-opacity="1" stroke-miterlimit="10" d="M 58.879156 -140.041375 L 45.867438 -158.623406 " transform="matrix(1, 0, 0, -1, 59.281, 2.818)"/>
<path fill="none" stroke-width="0.3985" stroke-linecap="butt" stroke-linejoin="miter" stroke="rgb(0%, 0%, 0%)" stroke-opacity="1" stroke-miterlimit="10" d="M 59.676031 -140.041375 L 72.68775 -158.623406 " transform="matrix(1, 0, 0, -1, 59.281, 2.818)"/>
<path fill="none" stroke-width="0.3985" stroke-linecap="butt" stroke-linejoin="miter" stroke="rgb(0%, 0%, 0%)" stroke-opacity="1" stroke-miterlimit="10" d="M 1.730719 -2.471063 L 15.035406 -21.471063 " transform="matrix(1, 0, 0, -1, 59.281, 2.818)"/>
</svg>
