<?xml version="1.0" encoding="UTF-8"?>
<svg xmlns="http://www.w3.org/2000/svg" xmlns:xlink="http://www.w3.org/1999/xlink" width="182.973" height="154.603" viewBox="0 0 182.973 154.603">
<defs>
<clipPath id="clip-0">
<path clip-rule="nonzero" d="M 0 130 L 24 130 L 24 154.601562 L 0 154.601562 Z M 0 130 "/>
</clipPath>
<clipPath id="clip-1">
<path clip-rule="nonzero" d="M 33 130 L 59 130 L 59 154.601562 L 33 154.601562 Z M 33 130 "/>
</clipPath>
<clipPath id="clip-2">
<path clip-rule="nonzero" d="M 62 130 L 88 130 L 88 154.601562 L 62 154.601562 Z M 62 130 "/>
</clipPath>
<clipPath id="clip-3">
<path clip-rule="nonzero" d="M 97 130 L 123 130 L 123 154.601562 L 97 154.601562 Z M 97 130 "/>
</clipPath>
<clipPath id="clip-4">
<path clip-rule="nonzero" d="M 129 140 L 144 140 L 144 154.601562 L 129 154.601562 Z M 129 140 "/>
</clipPath>
<clipPath id="clip-5">
<path clip-rule="nonzero" d="M 124 134 L 150 134 L 150 154.601562 L 124 154.601562 Z M 124 134 "/>
</clipPath>
<clipPath id="clip-6">
<path clip-rule="nonzero" d="M 164 140 L 179 140 L 179 154.601562 L 164 154.601562 Z M 164 140 "/>
</clipPath>
<clipPath id="clip-7">
<path clip-rule="nonzero" d="M 159 134 L 182.972656 134 L 182.972656 154.601562 L 159 154.601562 Z M 159 134 "/>
</clipPath>
</defs>
<path fill-rule="nonzero" fill="rgb(0%, 0%, 0%)" fill-opacity="1" d="M 73.5 2.816406 C 73.5 1.261719 72.238281 0 70.683594 0 C 69.125 0 67.863281 1.261719 67.863281 2.816406 C 67.863281 4.375 69.125 5.636719 70.683594 5.636719 C 72.238281 5.636719 73.5 4.375 73.5 2.816406 Z M 73.5 2.816406 "/>
<path fill-rule="nonzero" fill="rgb(79.998779%, 79.998779%, 79.998779%)" fill-opacity="1" stroke-width="0.3985" stroke-linecap="butt" stroke-linejoin="miter" stroke="rgb(0%, 0%, 0%)" stroke-opacity="1" stroke-miterlimit="10" d="M 7.046063 0.00034375 C 7.046063 3.890969 3.889813 7.047219 -0.0008125 7.047219 C -3.891437 7.047219 -7.043781 3.890969 -7.043781 0.00034375 C -7.043781 -3.890281 -3.891437 -7.046531 -0.0008125 -7.046531 C 3.889813 -7.046531 7.046063 -3.890281 7.046063 0.00034375 Z M 7.046063 0.00034375 " transform="matrix(1, 0, 0, -1, 51.493, 30.223)"/>
<path fill-rule="nonzero" fill="rgb(0%, 0%, 0%)" fill-opacity="1" d="M 90.367188 30.222656 C 90.367188 29.949219 90.144531 29.726562 89.871094 29.726562 C 89.59375 29.726562 89.371094 29.949219 89.371094 30.222656 C 89.371094 30.5 89.59375 30.722656 89.871094 30.722656 C 90.144531 30.722656 90.367188 30.5 90.367188 30.222656 Z M 90.367188 30.222656 "/>
<path fill-rule="nonzero" fill="rgb(0%, 0%, 0%)" fill-opacity="1" d="M 61.046875 72.101562 C 61.046875 71.828125 60.820312 71.605469 60.546875 71.605469 C 60.273438 71.605469 60.050781 71.828125 60.050781 72.101562 C 60.050781 72.378906 60.273438 72.601562 60.546875 72.601562 C 60.820312 72.601562 61.046875 72.378906 61.046875 72.101562 Z M 61.046875 72.101562 "/>
<path fill-rule="nonzero" fill="rgb(0%, 0%, 0%)" fill-opacity="1" d="M 29.148438 117.65625 C 29.148438 117.382812 28.925781 117.15625 28.652344 117.15625 C 28.375 117.15625 28.152344 117.382812 28.152344 117.65625 C 28.152344 117.929688 28.375 118.152344 28.652344 118.152344 C 28.925781 118.152344 29.148438 117.929688 29.148438 117.65625 Z M 29.148438 117.65625 "/>
<path fill-rule="nonzero" fill="rgb(79.998779%, 79.998779%, 79.998779%)" fill-opacity="1" d="M 18.132812 142.742188 C 18.132812 138.851562 14.976562 135.695312 11.085938 135.695312 C 7.195312 135.695312 4.042969 138.851562 4.042969 142.742188 C 4.042969 146.632812 7.195312 149.785156 11.085938 149.785156 C 14.976562 149.785156 18.132812 146.632812 18.132812 142.742188 Z M 18.132812 142.742188 "/>
<g clip-path="url(#clip-0)">
<path fill="none" stroke-width="0.3985" stroke-linecap="butt" stroke-linejoin="miter" stroke="rgb(0%, 0%, 0%)" stroke-opacity="1" stroke-miterlimit="10" d="M 7.045813 -0.0011875 C 7.045813 3.889437 3.889563 7.045687 -0.0010625 7.045687 C -3.891687 7.045687 -7.044031 3.889437 -7.044031 -0.0011875 C -7.044031 -3.891813 -3.891687 -7.044156 -0.0010625 -7.044156 C 3.889563 -7.044156 7.045813 -3.891813 7.045813 -0.0011875 Z M 7.045813 -0.0011875 " transform="matrix(1, 0, 0, -1, 11.087, 142.741)"/>
</g>
<path fill-rule="nonzero" fill="rgb(79.998779%, 79.998779%, 79.998779%)" fill-opacity="1" d="M 53.261719 142.742188 C 53.261719 138.851562 50.105469 135.695312 46.214844 135.695312 C 42.324219 135.695312 39.167969 138.851562 39.167969 142.742188 C 39.167969 146.632812 42.324219 149.785156 46.214844 149.785156 C 50.105469 149.785156 53.261719 146.632812 53.261719 142.742188 Z M 53.261719 142.742188 "/>
<g clip-path="url(#clip-1)">
<path fill="none" stroke-width="0.3985" stroke-linecap="butt" stroke-linejoin="miter" stroke="rgb(0%, 0%, 0%)" stroke-opacity="1" stroke-miterlimit="10" d="M 7.046719 -0.0011875 C 7.046719 3.889437 3.890469 7.045687 -0.00015625 7.045687 C -3.890781 7.045687 -7.047031 3.889437 -7.047031 -0.0011875 C -7.047031 -3.891813 -3.890781 -7.044156 -0.00015625 -7.044156 C 3.890469 -7.044156 7.046719 -3.891813 7.046719 -0.0011875 Z M 7.046719 -0.0011875 " transform="matrix(1, 0, 0, -1, 46.215, 142.741)"/>
</g>
<path fill-rule="nonzero" fill="rgb(0%, 0%, 0%)" fill-opacity="1" d="M 92.941406 117.65625 C 92.941406 117.382812 92.71875 117.15625 92.441406 117.15625 C 92.167969 117.15625 91.945312 117.382812 91.945312 117.65625 C 91.945312 117.929688 92.167969 118.152344 92.441406 118.152344 C 92.71875 118.152344 92.941406 117.929688 92.941406 117.65625 Z M 92.941406 117.65625 "/>
<path fill-rule="nonzero" fill="rgb(79.998779%, 79.998779%, 79.998779%)" fill-opacity="1" d="M 81.921875 142.742188 C 81.921875 138.851562 78.769531 135.695312 74.878906 135.695312 C 70.988281 135.695312 67.832031 138.851562 67.832031 142.742188 C 67.832031 146.632812 70.988281 149.785156 74.878906 149.785156 C 78.769531 149.785156 81.921875 146.632812 81.921875 142.742188 Z M 81.921875 142.742188 "/>
<g clip-path="url(#clip-2)">
<path fill="none" stroke-width="0.3985" stroke-linecap="butt" stroke-linejoin="miter" stroke="rgb(0%, 0%, 0%)" stroke-opacity="1" stroke-miterlimit="10" d="M 7.043875 -0.0011875 C 7.043875 3.889437 3.891531 7.045687 0.00090625 7.045687 C -3.889719 7.045687 -7.045969 3.889437 -7.045969 -0.0011875 C -7.045969 -3.891813 -3.889719 -7.044156 0.00090625 -7.044156 C 3.891531 -7.044156 7.043875 -3.891813 7.043875 -0.0011875 Z M 7.043875 -0.0011875 " transform="matrix(1, 0, 0, -1, 74.878, 142.741)"/>
</g>
<path fill-rule="nonzero" fill="rgb(79.998779%, 79.998779%, 79.998779%)" fill-opacity="1" d="M 117.050781 142.742188 C 117.050781 138.851562 113.898438 135.695312 110.007812 135.695312 C 106.113281 135.695312 102.960938 138.851562 102.960938 142.742188 C 102.960938 146.632812 106.113281 149.785156 110.007812 149.785156 C 113.898438 149.785156 117.050781 146.632812 117.050781 142.742188 Z M 117.050781 142.742188 "/>
<g clip-path="url(#clip-3)">
<path fill="none" stroke-width="0.3985" stroke-linecap="butt" stroke-linejoin="miter" stroke="rgb(0%, 0%, 0%)" stroke-opacity="1" stroke-miterlimit="10" d="M 7.044781 -0.0011875 C 7.044781 3.889437 3.892438 7.045687 0.0018125 7.045687 C -3.892719 7.045687 -7.045062 3.889437 -7.045062 -0.0011875 C -7.045062 -3.891813 -3.892719 -7.044156 0.0018125 -7.044156 C 3.892438 -7.044156 7.044781 -3.891813 7.044781 -0.0011875 Z M 7.044781 -0.0011875 " transform="matrix(1, 0, 0, -1, 110.006, 142.741)"/>
</g>
<path fill-rule="nonzero" fill="rgb(0%, 0%, 0%)" fill-opacity="1" d="M 119.691406 72.101562 C 119.691406 71.828125 119.46875 71.605469 119.195312 71.605469 C 118.917969 71.605469 118.695312 71.828125 118.695312 72.101562 C 118.695312 72.378906 118.917969 72.601562 119.195312 72.601562 C 119.46875 72.601562 119.691406 72.378906 119.691406 72.101562 Z M 119.691406 72.101562 "/>
<path fill-rule="nonzero" fill="rgb(79.998779%, 79.998779%, 79.998779%)" fill-opacity="1" stroke-width="0.3985" stroke-linecap="butt" stroke-linejoin="miter" stroke="rgb(0%, 0%, 0%)" stroke-opacity="1" stroke-miterlimit="10" d="M 7.045781 0.0005 C 7.045781 3.891125 3.889531 7.047375 -0.00109375 7.047375 C -3.891719 7.047375 -7.044062 3.891125 -7.044062 0.0005 C -7.044062 -3.890125 -3.891719 -7.046375 -0.00109375 -7.046375 C 3.889531 -7.046375 7.045781 -3.890125 7.045781 0.0005 Z M 7.045781 0.0005 " transform="matrix(1, 0, 0, -1, 101.63, 97.188)"/>
<path fill-rule="nonzero" fill="rgb(0%, 0%, 0%)" fill-opacity="1" d="M 137.257812 97.1875 C 137.257812 96.914062 137.03125 96.691406 136.757812 96.691406 C 136.484375 96.691406 136.261719 96.914062 136.261719 97.1875 C 136.261719 97.464844 136.484375 97.6875 136.757812 97.6875 C 137.03125 97.6875 137.257812 97.464844 137.257812 97.1875 Z M 137.257812 97.1875 "/>
<path fill-rule="nonzero" fill="rgb(79.998779%, 79.998779%, 79.998779%)" fill-opacity="1" stroke-width="0.3985" stroke-linecap="butt" stroke-linejoin="miter" stroke="rgb(0%, 0%, 0%)" stroke-opacity="1" stroke-miterlimit="10" d="M 7.044281 -0.0004375 C 7.044281 3.890187 3.891938 7.046437 0.0013125 7.046437 C -3.889312 7.046437 -7.045562 3.890187 -7.045562 -0.0004375 C -7.045562 -3.891063 -3.889312 -7.047313 0.0013125 -7.047313 C 3.891938 -7.047313 7.044281 -3.891063 7.044281 -0.0004375 Z M 7.044281 -0.0004375 " transform="matrix(1, 0, 0, -1, 119.194, 122.273)"/>
<path fill-rule="nonzero" fill="rgb(0%, 0%, 0%)" fill-opacity="1" d="M 154.820312 122.273438 C 154.820312 121.996094 154.597656 121.773438 154.320312 121.773438 C 154.046875 121.773438 153.824219 121.996094 153.824219 122.273438 C 153.824219 122.546875 154.046875 122.769531 154.320312 122.769531 C 154.597656 122.769531 154.820312 122.546875 154.820312 122.273438 Z M 154.820312 122.273438 "/>
<g clip-path="url(#clip-4)">
<path fill-rule="nonzero" fill="rgb(79.998779%, 79.998779%, 79.998779%)" fill-opacity="1" d="M 143.804688 147.359375 C 143.804688 143.46875 140.648438 140.3125 136.757812 140.3125 C 132.867188 140.3125 129.710938 143.46875 129.710938 147.359375 C 129.710938 151.25 132.867188 154.402344 136.757812 154.402344 C 140.648438 154.402344 143.804688 151.25 143.804688 147.359375 Z M 143.804688 147.359375 "/>
</g>
<g clip-path="url(#clip-5)">
<path fill="none" stroke-width="0.3985" stroke-linecap="butt" stroke-linejoin="miter" stroke="rgb(0%, 0%, 0%)" stroke-opacity="1" stroke-miterlimit="10" d="M 7.046688 -0.001375 C 7.046688 3.88925 3.890438 7.0455 -0.0001875 7.0455 C -3.890812 7.0455 -7.047062 3.88925 -7.047062 -0.001375 C -7.047062 -3.892 -3.890812 -7.044344 -0.0001875 -7.044344 C 3.890438 -7.044344 7.046688 -3.892 7.046688 -0.001375 Z M 7.046688 -0.001375 " transform="matrix(1, 0, 0, -1, 136.758, 147.358)"/>
</g>
<g clip-path="url(#clip-6)">
<path fill-rule="nonzero" fill="rgb(79.998779%, 79.998779%, 79.998779%)" fill-opacity="1" d="M 178.929688 147.359375 C 178.929688 143.46875 175.777344 140.3125 171.886719 140.3125 C 167.996094 140.3125 164.839844 143.46875 164.839844 147.359375 C 164.839844 151.25 167.996094 154.402344 171.886719 154.402344 C 175.777344 154.402344 178.929688 151.25 178.929688 147.359375 Z M 178.929688 147.359375 "/>
</g>
<g clip-path="url(#clip-7)">
<path fill="none" stroke-width="0.3985" stroke-linecap="butt" stroke-linejoin="miter" stroke="rgb(0%, 0%, 0%)" stroke-opacity="1" stroke-miterlimit="10" d="M 7.043688 -0.001375 C 7.043688 3.88925 3.891344 7.0455 0.00071875 7.0455 C -3.889906 7.0455 -7.046156 3.88925 -7.046156 -0.001375 C -7.046156 -3.892 -3.889906 -7.044344 0.00071875 -7.044344 C 3.891344 -7.044344 7.043688 -3.892 7.043688 -0.001375 Z M 7.043688 -0.001375 " transform="matrix(1, 0, 0, -1, 171.886, 147.358)"/>
</g>
<path fill="none" stroke-width="0.3985" stroke-linecap="butt" stroke-linejoin="miter" stroke="rgb(0%, 0%, 0%)" stroke-opacity="1" stroke-miterlimit="10" d="M -1.728875 -2.471063 L -15.033562 -21.471063 " transform="matrix(1, 0, 0, -1, 70.682, 2.818)"/>
<path fill="none" stroke-width="0.3985" stroke-linecap="butt" stroke-linejoin="miter" stroke="rgb(0%, 0%, 0%)" stroke-opacity="1" stroke-miterlimit="10" d="M 1.732063 -2.471063 L 18.790656 -26.834344 " transform="matrix(1, 0, 0, -1, 70.682, 2.818)"/>
<path fill="none" stroke-width="0.3985" stroke-linecap="butt" stroke-linejoin="miter" stroke="rgb(0%, 0%, 0%)" stroke-opacity="1" stroke-miterlimit="10" d="M 18.790656 -27.974969 L -9.736687 -68.71325 " transform="matrix(1, 0, 0, -1, 70.682, 2.818)"/>
<path fill="none" stroke-width="0.3985" stroke-linecap="butt" stroke-linejoin="miter" stroke="rgb(0%, 0%, 0%)" stroke-opacity="1" stroke-miterlimit="10" d="M -10.533562 -69.857781 L -41.631219 -114.267938 " transform="matrix(1, 0, 0, -1, 70.682, 2.818)"/>
<path fill="none" stroke-width="0.3985" stroke-linecap="butt" stroke-linejoin="miter" stroke="rgb(0%, 0%, 0%)" stroke-opacity="1" stroke-miterlimit="10" d="M -42.432 -115.412469 L -55.439812 -133.990594 " transform="matrix(1, 0, 0, -1, 70.682, 2.818)"/>
<path fill="none" stroke-width="0.3985" stroke-linecap="butt" stroke-linejoin="miter" stroke="rgb(0%, 0%, 0%)" stroke-opacity="1" stroke-miterlimit="10" d="M -41.631219 -115.412469 L -28.623406 -133.990594 " transform="matrix(1, 0, 0, -1, 70.682, 2.818)"/>
<path fill="none" stroke-width="0.3985" stroke-linecap="butt" stroke-linejoin="miter" stroke="rgb(0%, 0%, 0%)" stroke-opacity="1" stroke-miterlimit="10" d="M -9.736687 -69.857781 L 21.360969 -114.267938 " transform="matrix(1, 0, 0, -1, 70.682, 2.818)"/>
<path fill="none" stroke-width="0.3985" stroke-linecap="butt" stroke-linejoin="miter" stroke="rgb(0%, 0%, 0%)" stroke-opacity="1" stroke-miterlimit="10" d="M 21.360969 -115.412469 L 8.353156 -133.990594 " transform="matrix(1, 0, 0, -1, 70.682, 2.818)"/>
<path fill="none" stroke-width="0.3985" stroke-linecap="butt" stroke-linejoin="miter" stroke="rgb(0%, 0%, 0%)" stroke-opacity="1" stroke-miterlimit="10" d="M 22.16175 -115.412469 L 35.169563 -133.990594 " transform="matrix(1, 0, 0, -1, 70.682, 2.818)"/>
<path fill="none" stroke-width="0.3985" stroke-linecap="butt" stroke-linejoin="miter" stroke="rgb(0%, 0%, 0%)" stroke-opacity="1" stroke-miterlimit="10" d="M 19.587531 -27.974969 L 48.110969 -68.71325 " transform="matrix(1, 0, 0, -1, 70.682, 2.818)"/>
<path fill="none" stroke-width="0.3985" stroke-linecap="butt" stroke-linejoin="miter" stroke="rgb(0%, 0%, 0%)" stroke-opacity="1" stroke-miterlimit="10" d="M 48.110969 -69.857781 L 35.103156 -88.435906 " transform="matrix(1, 0, 0, -1, 70.682, 2.818)"/>
<path fill="none" stroke-width="0.3985" stroke-linecap="butt" stroke-linejoin="miter" stroke="rgb(0%, 0%, 0%)" stroke-opacity="1" stroke-miterlimit="10" d="M 48.91175 -69.857781 L 65.677375 -93.799188 " transform="matrix(1, 0, 0, -1, 70.682, 2.818)"/>
<path fill="none" stroke-width="0.3985" stroke-linecap="butt" stroke-linejoin="miter" stroke="rgb(0%, 0%, 0%)" stroke-opacity="1" stroke-miterlimit="10" d="M 65.677375 -94.943719 L 52.669563 -113.521844 " transform="matrix(1, 0, 0, -1, 70.682, 2.818)"/>
<path fill="none" stroke-width="0.3985" stroke-linecap="butt" stroke-linejoin="miter" stroke="rgb(0%, 0%, 0%)" stroke-opacity="1" stroke-miterlimit="10" d="M 66.478156 -94.943719 L 83.239875 -118.885125 " transform="matrix(1, 0, 0, -1, 70.682, 2.818)"/>
<path fill="none" stroke-width="0.3985" stroke-linecap="butt" stroke-linejoin="miter" stroke="rgb(0%, 0%, 0%)" stroke-opacity="1" stroke-miterlimit="10" d="M 83.239875 -120.029656 L 70.232063 -138.607781 " transform="matrix(1, 0, 0, -1, 70.682, 2.818)"/>
<path fill="none" stroke-width="0.3985" stroke-linecap="butt" stroke-linejoin="miter" stroke="rgb(0%, 0%, 0%)" stroke-opacity="1" stroke-miterlimit="10" d="M 84.040656 -120.029656 L 97.048469 -138.607781 " transform="matrix(1, 0, 0, -1, 70.682, 2.818)"/>
</svg>
