<?xml version="1.0" encoding="UTF-8"?>
<svg xmlns="http://www.w3.org/2000/svg" xmlns:xlink="http://www.w3.org/1999/xlink" width="434.077" height="142.928" viewBox="0 0 434.077 142.928">
<defs>
<clipPath id="clip-0">
<path clip-rule="nonzero" d="M 3 0 L 147 0 L 147 142.929688 L 3 142.929688 Z M 3 0 "/>
</clipPath>
<clipPath id="clip-1">
<path clip-rule="nonzero" d="M 287 0 L 431 0 L 431 142.929688 L 287 142.929688 Z M 287 0 "/>
</clipPath>
</defs>
<g clip-path="url(#clip-0)">
<path fill="none" stroke-width="1.19553" stroke-linecap="butt" stroke-linejoin="miter" stroke="rgb(0%, 0%, 0%)" stroke-opacity="1" stroke-miterlimit="10" d="M 0.00140625 0.001875 L 0.00140625 141.732344 L 141.735781 141.732344 L 141.735781 0.001875 Z M 0.00140625 0.001875 " transform="matrix(1, 0, 0, -1, 4.44, 142.33)"/>
</g>
<path fill="none" stroke-width="1.19553" stroke-linecap="butt" stroke-linejoin="miter" stroke="rgb(0%, 0%, 0%)" stroke-opacity="1" stroke-miterlimit="10" d="M 170.079531 70.865156 L 238.665469 70.865156 " transform="matrix(1, 0, 0, -1, 4.44, 142.33)"/>
<path fill-rule="nonzero" fill="rgb(0%, 0%, 0%)" fill-opacity="1" stroke-width="1.19553" stroke-linecap="butt" stroke-linejoin="miter" stroke="rgb(0%, 0%, 0%)" stroke-opacity="1" stroke-miterlimit="10" d="M 23.404105 -0.00187375 L 1.931449 8.072345 L 8.95098 -0.00187375 L 1.931449 -8.072186 Z M 23.404105 -0.00187375 " transform="matrix(1, 0, 0, -1, 234.45527, 71.46297)"/>
<g clip-path="url(#clip-1)">
<path fill="none" stroke-width="1.19553" stroke-linecap="butt" stroke-linejoin="miter" stroke="rgb(25%, 25%, 25%)" stroke-opacity="1" stroke-miterlimit="10" d="M 283.470156 0.001875 L 283.470156 141.732344 L 425.200625 141.732344 L 425.200625 0.001875 Z M 283.470156 0.001875 " transform="matrix(1, 0, 0, -1, 4.44, 142.33)"/>
</g>
<path fill="none" stroke-width="1.19553" stroke-linecap="butt" stroke-linejoin="miter" stroke="rgb(0%, 0%, 0%)" stroke-opacity="1" stroke-miterlimit="10" d="M 283.470156 141.732344 L 283.470156 99.212813 L 325.989688 99.212813 L 325.989688 141.732344 Z M 325.989688 99.212813 L 325.989688 70.865156 L 354.333438 70.865156 L 354.333438 99.212813 Z M 354.333438 70.865156 L 354.333438 56.693281 L 368.509219 56.693281 L 368.509219 70.865156 Z M 368.509219 56.693281 L 368.509219 42.521406 L 382.681094 42.521406 L 382.681094 56.693281 Z M 368.509219 56.693281 " transform="matrix(1, 0, 0, -1, 4.44, 142.33)"/>
</svg>
